<?xml version="1.0" encoding="utf-8"?>
<!-- Generator: Adobe Illustrator 21.1.0, SVG Export Plug-In . SVG Version: 6.00 Build 0)  -->
<svg version="1.1" id="Слой_1" xmlns="http://www.w3.org/2000/svg" xmlns:xlink="http://www.w3.org/1999/xlink" x="0px" y="0px"
	 viewBox="0 0 65.7 70" enable-background="new 0 0 65.7 70" xml:space="preserve">
<g>
	<path fill="#353535" d="M34.7,44.3c1.2-0.1,2.3-0.7,3-1.7l10.9-15.1c0.3-0.5,0.3-1.1-0.1-1.5c-0.4-0.4-1-0.5-1.5-0.1L32,36.8
		c-1,0.7-1.6,1.8-1.7,3c-0.1,1.2,0.3,2.4,1.2,3.3c0.8,0.8,1.8,1.2,2.9,1.2C34.5,44.3,34.6,44.3,34.7,44.3L34.7,44.3z M32.6,40
		c0-0.5,0.3-1,0.7-1.3l9.2-6.7l-6.7,9.2c-0.3,0.4-0.8,0.7-1.3,0.7c-0.5,0-1-0.1-1.4-0.5C32.7,41.1,32.5,40.6,32.6,40L32.6,40z"/>
	<path fill="#353535" d="M60.9,22.8C60.8,22.8,60.8,22.8,60.9,22.8c0-0.1-0.1-0.1-0.1-0.1c-1.2-2-2.6-3.9-4.2-5.6l2.5-2.5l1.7,1.6
		l5-5l-5-4.9l-5,4.9l1.7,1.7L55,15.4c-1.7-1.6-3.6-3-5.6-4.2c0,0,0,0-0.1-0.1c0,0-0.1,0-0.1,0c-3.6-2.1-7.7-3.5-12-4V5.8H39
		c1.6,0,2.9-1.3,2.9-2.9S40.6,0,39,0H28.5c-1.6,0-2.9,1.3-2.9,2.9s1.3,2.9,2.9,2.9h1.7v1.4c-1.3,0.1-2.5,0.3-3.8,0.6
		c-0.6,0.1-1,0.8-0.9,1.4c0.1,0.6,0.8,1,1.4,0.9c1.1-0.2,2.2-0.4,3.2-0.6l1.3-0.1c0.4,0,0.7-0.1,1.1-0.1v2.3c0,0.6,0.5,1.2,1.2,1.2
		c0.6,0,1.2-0.5,1.2-1.2V9.4c4.4,0.2,8.5,1.4,12.2,3.3l-1.2,2c-0.3,0.6-0.1,1.3,0.4,1.6c0.2,0.1,0.4,0.2,0.6,0.2
		c0.4,0,0.8-0.2,1-0.6l1.1-2c3.7,2.3,6.8,5.4,9.1,9.1l-2,1.1c-0.6,0.3-0.7,1-0.4,1.6c0.2,0.4,0.6,0.6,1,0.6c0.2,0,0.4-0.1,0.6-0.2
		l2-1.2c2,3.7,3.1,7.9,3.3,12.4h-2.3c-0.6,0-1.2,0.5-1.2,1.2c0,0.6,0.5,1.2,1.2,1.2h2.3c-0.2,4.5-1.4,8.7-3.3,12.4l-2-1.2
		c-0.6-0.3-1.3-0.1-1.6,0.4c-0.3,0.6-0.1,1.3,0.4,1.6l2,1.1c-2.3,3.7-5.4,6.8-9.1,9.1l-1.1-2c-0.3-0.6-1-0.8-1.6-0.4
		c-0.6,0.3-0.8,1-0.4,1.6l1.2,2c-3.7,1.9-7.8,3.1-12.2,3.3v-2.3c0-0.6-0.5-1.2-1.2-1.2c-0.6,0-1.2,0.5-1.2,1.2v2.3
		c-1.9-0.1-3.7-0.3-5.6-0.7c-0.6-0.1-1.3,0.3-1.4,0.9c-0.1,0.6,0.3,1.3,0.9,1.4c2.3,0.5,4.7,0.8,7.1,0.8c0.1,0,0.1,0,0.2,0
		c0,0,0,0,0,0c0,0,0,0,0,0c5.6,0,10.9-1.6,15.4-4.2c0,0,0.1,0,0.1,0c0,0,0,0,0.1-0.1C54.1,63,58,59,60.8,54.3c0,0,0.1-0.1,0.1-0.1
		c0,0,0-0.1,0-0.1c2.7-4.6,4.2-10,4.2-15.7C65.1,32.8,63.5,27.4,60.9,22.8L60.9,22.8z M60.8,9.6l1.6,1.6l-1.6,1.7l-1.7-1.7L60.8,9.6
		z M32.6,7V3.5h-4.1c-0.3,0-0.6-0.3-0.6-0.6s0.3-0.6,0.6-0.6H39c0.3,0,0.6,0.3,0.6,0.6S39.3,3.5,39,3.5h-4.1V7c-0.4,0-0.8,0-1.2,0
		c0,0-0.1,0-0.1,0c0,0-0.1,0-0.1,0c-0.2,0-0.4,0-0.6,0C32.8,7,32.7,7,32.6,7L32.6,7z"/>
	<path fill="#EB1B24" d="M23.3,16.5h-5.8c-0.6,0-1.2,0.5-1.2,1.2s0.5,1.2,1.2,1.2h5.8c0.6,0,1.2-0.5,1.2-1.2S24,16.5,23.3,16.5
		L23.3,16.5z"/>
	<path fill="#EB1B24" d="M23.3,24.6H11.7c-0.6,0-1.2,0.5-1.2,1.2c0,0.6,0.5,1.2,1.2,1.2h11.7c0.6,0,1.2-0.5,1.2-1.2
		C24.5,25.2,24,24.6,23.3,24.6L23.3,24.6z"/>
	<path fill="#EB1B24" d="M23.3,32.8H5.8c-0.6,0-1.2,0.5-1.2,1.2c0,0.6,0.5,1.2,1.2,1.2h17.5c0.6,0,1.2-0.5,1.2-1.2
		C24.5,33.3,24,32.8,23.3,32.8L23.3,32.8z"/>
	<path fill="#EB1B24" d="M23.3,41H1.2C0.5,41,0,41.5,0,42.1c0,0.6,0.5,1.2,1.2,1.2h22.2c0.6,0,1.2-0.5,1.2-1.2
		C24.5,41.5,24,41,23.3,41L23.3,41z"/>
	<path fill="#EB1B24" d="M23.3,49.1H8.2c-0.6,0-1.2,0.5-1.2,1.2c0,0.6,0.5,1.2,1.2,1.2h15.2c0.6,0,1.2-0.5,1.2-1.2
		C24.5,49.7,24,49.1,23.3,49.1L23.3,49.1z"/>
	<path fill="#EB1B24" d="M23.3,57.3h-8.2c-0.6,0-1.2,0.5-1.2,1.2s0.5,1.2,1.2,1.2h8.2c0.6,0,1.2-0.5,1.2-1.2S24,57.3,23.3,57.3
		L23.3,57.3z"/>
</g>
</svg>
