<?xml version="1.0" encoding="utf-8"?>
<!-- Generator: Adobe Illustrator 21.1.0, SVG Export Plug-In . SVG Version: 6.00 Build 0)  -->
<svg version="1.1" id="Слой_1" xmlns="http://www.w3.org/2000/svg" xmlns:xlink="http://www.w3.org/1999/xlink" x="0px" y="0px"
	 viewBox="0 0 60 30" enable-background="new 0 0 60 30" xml:space="preserve">
<g>
	<path fill="#353535" d="M56.2,5.6h-3.8C52.5,2.5,50,0,46.9,0H5.6C2.5,0,0,2.5,0,5.6v18.7C0,27.5,2.5,30,5.6,30h41.3
		c3.1,0,5.6-2.5,5.6-5.6h3.8c2.1,0,3.8-1.7,3.8-3.7V9.4C60,7.3,58.3,5.6,56.2,5.6L56.2,5.6z M48.7,24.4c0,1-0.8,1.9-1.9,1.9H5.6
		c-1,0-1.9-0.8-1.9-1.9V5.6c0-1,0.8-1.9,1.9-1.9h41.3c1,0,1.9,0.8,1.9,1.9V24.4z M56.2,20.6h-3.8V9.4h3.8V20.6z"/>
	<path fill="#D80027" d="M13.6,9.4c-0.5-0.9-1.7-1.7-2.7-1.7H9.1c-1,0-1.9,0.8-1.9,1.9v11.2c0,1,0.8,1.9,1.9,1.9h9.4
		c1,0,1.5-0.8,1-1.7L13.6,9.4z"/>
</g>
</svg>
