<?xml version="1.0" encoding="utf-8"?>
<!-- Generator: Adobe Illustrator 21.1.0, SVG Export Plug-In . SVG Version: 6.00 Build 0)  -->
<svg version="1.1" id="Layer_1" xmlns="http://www.w3.org/2000/svg" xmlns:xlink="http://www.w3.org/1999/xlink" x="0px" y="0px"
	 viewBox="0 0 60 60" enable-background="new 0 0 60 60" xml:space="preserve">
<g>
	<path fill="#ED1C24" d="M54,7.7C53.8,7.3,53.5,7,53,7h-1c-0.4,0-0.8,0.3-0.9,0.7l-2,7c-0.1,0.5,0.1,1,0.6,1.2
		c0.5,0.1,1-0.1,1.2-0.6l0.4-1.3h2.4l0.4,1.3c0.1,0.4,0.5,0.7,0.9,0.7c0.1,0,0.2,0,0.3,0c0.5-0.1,0.8-0.7,0.6-1.2L54,7.7z M51.9,12
		l0.7-2.4l0.7,2.4H51.9z"/>
	<path fill="#ED1C24" d="M56.1,2h-5.4c0-0.4-0.1-0.9-0.4-1.2C49.9,0.3,49.3,0,48.7,0H37c-2.2,0-3.9,1.8-3.9,3.9v11
		c0,1.9,1.3,3.4,3,3.8V23c0,0.4,0.2,0.7,0.6,0.9c0.1,0,0.2,0.1,0.4,0.1c0.2,0,0.5-0.1,0.7-0.3l4.7-4.7h1c0,0.4,0.1,0.9,0.4,1.2
		c0.4,0.5,0.9,0.8,1.6,0.8h10.7c2.2,0,3.9-1.8,3.9-3.9V6C60,3.8,58.2,2,56.1,2z M44,17H42c-0.2,0-0.5,0.1-0.7,0.3L38,20.7V18
		c0-0.5-0.4-0.9-0.9-0.9c-1.1,0-2.1-0.9-2.1-2.1v-11c0-1.1,0.9-2.1,2.1-2.1h11.7c0,0,0,0,0.1,0c0,0,0,0,0,0.1l-3.2,10.2
		c0,0-0.1,0-0.1-0.1c-0.8-0.3-1.5-0.7-2.1-1.3c1.1-1.5,1.4-3,1.6-3.9H46C46.6,6.9,47,6.5,47,6S46.6,5,46,5H43V5C43,4.4,42.5,4,42,4
		S41.1,4.4,41.1,5V5H38c-0.5,0-0.9,0.4-0.9,0.9s0.4,0.9,0.9,0.9h5c-0.1,0.6-0.4,1.5-1,2.4c-0.1-0.2-0.3-0.5-0.4-0.8
		c-0.2-0.5-0.8-0.7-1.2-0.5s-0.7,0.8-0.5,1.2c0.2,0.5,0.5,1,0.9,1.5c-0.6,0.5-1.2,0.9-2.1,1.3c-0.5,0.2-0.7,0.7-0.5,1.2
		c0.1,0.4,0.5,0.6,0.9,0.6c0.1,0,0.2,0,0.3-0.1c1.1-0.4,2-1,2.7-1.6c0.8,0.7,1.6,1.2,2.6,1.6c0.1,0,0.2,0.1,0.3,0.1L44,17z M58.1,17
		c0,1.1-0.9,2.1-2.1,2.1H45.4c0,0,0,0-0.1,0c0,0,0,0,0-0.1l4.8-15.1h6c1.1,0,2.1,0.9,2.1,2.1L58.1,17L58.1,17z"/>
	<path fill="#353535" d="M38.5,48.3l-8.8-2.7c-0.4-0.1-0.8-0.5-0.8-1v-3.4l0.5-0.4c0.9-0.8,1.5-1.8,1.7-3l0.1-0.7H32
		c1.6,0,2.9-1.3,2.9-2.9v-2c0-1.4-1-2.6-2.4-2.9l0.9-5.7c0.4-2.6-0.3-5.2-2-7.2c-1.7-2-4.2-3.1-6.8-3.1h-7.3c-2.6,0-5.1,1.1-6.8,3.1
		s-2.4,4.6-2,7.2l0.9,5.7C8.1,29.4,7,30.6,7,32v2C7,35.6,8.3,37,10,37h0.7l0.1,0.7c0.2,1.2,0.8,2.3,1.7,3l0.5,0.4v3.4
		c0,0.5-0.3,0.9-0.8,1l-8.8,2.7C1.4,48.9,0,50.8,0,53v4.1C0,58.7,1.3,60,2.9,60H39c1.6,0,2.9-1.3,2.9-2.9V53
		C42,50.8,40.6,48.9,38.5,48.3z M33.1,32v2c0,0.6-0.5,1.1-1.1,1.1h-0.4l0.7-4.1C32.7,31.1,33.1,31.5,33.1,32z M12,17.4
		c1.3-1.6,3.3-2.5,5.4-2.5h7.3c2.1,0,4,0.9,5.4,2.5c1.3,1.6,1.9,3.7,1.6,5.7l-1,6h-0.8c0,0-0.1,0-0.1-0.1l-0.7-4.3
		c-0.2-0.9-1-1.6-1.9-1.6H14.8c-1,0-1.8,0.7-1.9,1.6L12.2,29c0,0,0,0.1-0.1,0.1h-0.8l-1-6C10,21.1,10.6,19,12,17.4z M10,35.1
		c-0.6,0-1.1-0.5-1.1-1.1v-2c0-0.5,0.4-0.9,0.8-1l0.7,4.1L10,35.1L10,35.1z M11.6,30.9h0.5c1,0,1.8-0.7,1.9-1.6l0.7-4.3
		c0,0,0-0.1,0.1-0.1h12.3c0,0,0.1,0,0.1,0.1l0.7,4.3c0.2,0.9,1,1.6,1.9,1.6h0.5l-0.7,4.5c-0.1,0.9-0.1,1.2-0.6,2.7
		c-0.2,0.4-0.5,0.8-0.8,1.1l-4,3.4c-0.4,0.3-0.8,0.5-1.3,0.5h-3.8c-0.5,0-1-0.2-1.3-0.5l-4-3.4c-0.6-0.5-0.9-1.1-1.1-1.9L11.6,30.9z
		 M12.8,47.4c1.2-0.4,2.1-1.5,2.1-2.8v-1.9l1.6,1.4c0.7,0.6,1.6,0.9,2.5,0.9h3.8c0.9,0,1.8-0.3,2.5-0.9l1.6-1.4v1.9
		c0,1.3,0.8,2.4,2.1,2.8l0.5,0.1c-3.3,5.1-7.8,6.4-8.6,6.6c-0.9-0.2-5.3-1.4-8.6-6.6L12.8,47.4z M10.5,48.1
		c4.2,6.8,10.1,7.9,10.3,7.9c0.1,0,0.1,0,0.2,0s0.1,0,0.2,0c0.3,0,6.2-1.1,10.3-7.9l6.4,2c0.1,0,0.3,0.1,0.4,0.2l-3.8,3.2
		c-0.9,0.8-1.4,1.9-1.4,3v1.7H8.9v-1.7c0-1.2-0.5-2.3-1.4-3l-3.8-3.2c0.1-0.1,0.3-0.1,0.4-0.2L10.5,48.1z M1.9,57.1V53
		c0-0.5,0.1-1,0.4-1.5l4,3.3c0.5,0.4,0.7,1,0.7,1.6v1.7H2.9C2.4,58.1,1.9,57.6,1.9,57.1z M40.1,57.1c0,0.6-0.5,1.1-1.1,1.1h-4.1
		v-1.7c0-0.6,0.3-1.2,0.7-1.6l4-3.3c0.2,0.4,0.4,0.9,0.4,1.5L40.1,57.1L40.1,57.1z"/>
</g>
</svg>
