<?xml version="1.0" encoding="utf-8"?>
<!-- Generator: Adobe Illustrator 21.1.0, SVG Export Plug-In . SVG Version: 6.00 Build 0)  -->
<svg version="1.1" id="Layer_1" xmlns="http://www.w3.org/2000/svg" xmlns:xlink="http://www.w3.org/1999/xlink" x="0px" y="0px"
	 viewBox="0 0 54.7 70" enable-background="new 0 0 54.7 70" xml:space="preserve">
<g>
	<path fill="#353535" d="M27.5,3.7c-1.7,0-3.1,1.4-3.1,3.1s1.4,3.1,3.1,3.1c1.7,0,3.1-1.4,3.1-3.1C30.6,5.1,29.2,3.7,27.5,3.7z
		 M27.5,7.8c-0.5,0-0.9-0.4-0.9-0.9c0-0.5,0.4-0.9,0.9-0.9s0.9,0.4,0.9,0.9S28,7.8,27.5,7.8z"/>
	<path fill="#353535" d="M51.8,8.8H38.9V7.3c0-0.6-0.5-1.1-1.1-1.1h-3.5C34,2.7,31,0,27.5,0S21,2.7,20.6,6.2h-3.5
		c-0.6,0-1.1,0.5-1.1,1.1v1.5H2.9C1.3,8.8,0,10.1,0,11.7v55.5C0,68.7,1.3,70,2.9,70h48.9c1.6,0,2.9-1.3,2.9-2.9V11.7
		C54.7,10.1,53.4,8.8,51.8,8.8z M18.3,8.4h3.4c0.3,0,0.6-0.1,0.8-0.3c0.2-0.2,0.3-0.5,0.3-0.8c0-0.1,0-0.2,0-0.3
		c0-2.6,2.1-4.7,4.7-4.7c2.6,0,4.7,2.1,4.7,4.7c0,0.1,0,0.2,0,0.3c0,0.3,0.1,0.6,0.3,0.8c0.2,0.2,0.5,0.3,0.8,0.3h3.4v4.9H18.3V8.4z
		 M52.5,67.1c0,0.4-0.3,0.7-0.7,0.7H2.9c-0.4,0-0.7-0.3-0.7-0.7V11.7c0-0.4,0.3-0.7,0.7-0.7h13.2v2.3H5.8c-0.6,0-1.1,0.5-1.1,1.1
		v49.8c0,0.6,0.5,1.1,1.1,1.1h8c0.6,0,1.1-0.5,1.1-1.1s-0.5-1.1-1.1-1.1H6.9V15.5h10.3h20.6h10v47.6H18.2c-0.6,0-1.1,0.5-1.1,1.1
		s0.5,1.1,1.1,1.1h30.6c0.6,0,1.1-0.5,1.1-1.1V14.4c0-0.6-0.5-1.1-1.1-1.1h-10V11h12.9c0.4,0,0.7,0.3,0.7,0.7L52.5,67.1L52.5,67.1z"
		/>
	<path fill="#ED1C24" d="M15.7,27.3c0.2,0.2,0.5,0.3,0.8,0.3c0.3,0,0.6-0.1,0.8-0.3l2.4-2.3c0.4-0.4,0.5-1.1,0-1.6s-1.1-0.5-1.6,0
		L16.4,25l-0.6-0.6c-0.4-0.4-1.1-0.4-1.6,0c-0.4,0.4-0.4,1.1,0,1.6L15.7,27.3z"/>
	<path fill="#ED1C24" d="M17,31.4c3.4,0,6.2-2.8,6.2-6.2S20.4,19,17,19s-6.2,2.8-6.2,6.2S13.6,31.4,17,31.4z M17,21.2
		c2.2,0,4,1.8,4,4c0,2.2-1.8,4-4,4c-2.2,0-4-1.8-4-4S14.8,21.2,17,21.2z"/>
	<path fill="#ED1C24" d="M15.7,41.7c0.2,0.2,0.5,0.3,0.8,0.3c0.3,0,0.6-0.1,0.8-0.3l2.4-2.3c0.4-0.4,0.5-1.1,0-1.6s-1.1-0.5-1.6,0
		l-1.6,1.5l-0.6-0.6c-0.4-0.4-1.1-0.4-1.6,0s-0.4,1.1,0,1.6L15.7,41.7z"/>
	<path fill="#ED1C24" d="M17,45.7c3.4,0,6.2-2.8,6.2-6.2s-2.8-6.2-6.2-6.2s-6.2,2.8-6.2,6.2S13.6,45.7,17,45.7z M17,35.6
		c2.2,0,4,1.8,4,4c0,2.2-1.8,4-4,4c-2.2,0-4-1.8-4-4S14.8,35.6,17,35.6z"/>
	<path fill="#ED1C24" d="M18,52.1l-1.6,1.5l-0.6-0.6c-0.4-0.4-1.1-0.4-1.6,0c-0.4,0.4-0.4,1.1,0,1.6l1.4,1.3
		c0.2,0.2,0.5,0.3,0.8,0.3c0.3,0,0.6-0.1,0.8-0.3l2.4-2.3c0.4-0.4,0.5-1.1,0-1.6C19.2,51.7,18.5,51.7,18,52.1z"/>
	<path fill="#ED1C24" d="M23.2,53.9c0-3.4-2.8-6.2-6.2-6.2s-6.2,2.8-6.2,6.2s2.8,6.2,6.2,6.2C20.4,60.1,23.2,57.3,23.2,53.9z
		 M17,57.9c-2.2,0-4-1.8-4-4c0-2.2,1.8-4,4-4c2.2,0,4,1.8,4,4S19.2,57.9,17,57.9z"/>
	<path fill="#353535" d="M26.7,23.4H35c0.6,0,1.1-0.5,1.1-1.1s-0.5-1.1-1.1-1.1h-8.4c-0.6,0-1.1,0.5-1.1,1.1S26,23.4,26.7,23.4z"/>
	<path fill="#353535" d="M26.7,27.9h15.8c0.6,0,1.1-0.5,1.1-1.1s-0.5-1.1-1.1-1.1H26.7c-0.6,0-1.1,0.5-1.1,1.1S26,27.9,26.7,27.9z"
		/>
	<path fill="#353535" d="M26.7,38.4H35c0.6,0,1.1-0.5,1.1-1.1s-0.5-1.1-1.1-1.1h-8.4c-0.6,0-1.1,0.5-1.1,1.1S26,38.4,26.7,38.4z"/>
	<path fill="#353535" d="M26.7,42.9h15.8c0.6,0,1.1-0.5,1.1-1.1s-0.5-1.1-1.1-1.1H26.7c-0.6,0-1.1,0.5-1.1,1.1S26,42.9,26.7,42.9z"
		/>
	<path fill="#353535" d="M26.7,52.7H35c0.6,0,1.1-0.5,1.1-1.1s-0.5-1.1-1.1-1.1h-8.4c-0.6,0-1.1,0.5-1.1,1.1S26,52.7,26.7,52.7z"/>
	<path fill="#353535" d="M26.7,57.3h15.8c0.6,0,1.1-0.5,1.1-1.1s-0.5-1.1-1.1-1.1H26.7c-0.6,0-1.1,0.5-1.1,1.1
		C25.6,56.8,26,57.3,26.7,57.3z"/>
</g>
</svg>
