<?xml version="1.0" encoding="utf-8"?>
<!-- Generator: Adobe Illustrator 21.1.0, SVG Export Plug-In . SVG Version: 6.00 Build 0)  -->
<svg version="1.1" id="Слой_1" xmlns="http://www.w3.org/2000/svg" xmlns:xlink="http://www.w3.org/1999/xlink" x="0px" y="0px"
	 viewBox="0 0 55.9 60" enable-background="new 0 0 55.9 60" xml:space="preserve">
<g>
	<g>
		<g>
			<g>
				<defs>
					<rect id="SVGID_1_" width="55.9" height="60"/>
				</defs>
				<clipPath id="SVGID_2_">
					<use xlink:href="#SVGID_1_"  overflow="visible"/>
				</clipPath>
				<path clip-path="url(#SVGID_2_)" fill="#353535" d="M54.6,41.1l-2-2c-1.5-1.5-3.9-1.5-5.4,0L34.2,52.2c-0.2,0.2-0.3,0.4-0.3,0.7
					v6c0,0.5,0.4,1,1,1h6c0.3,0,0.5-0.1,0.7-0.3l13.1-13.1C56.2,44.9,56.2,42.7,54.6,41.1L54.6,41.1z M46,43.2l1.6,1.6l-8.7,8.7
					l-1.6-1.6L46,43.2z M35.9,57.9v-4.6l4.6,4.6H35.9z M41.9,56.5l-1.6-1.6l8.7-8.7l1.6,1.6L41.9,56.5z M53.2,45.1l-1.3,1.3
					l-4.6-4.6l1.3-1.3c0.8-0.8,1.8-0.8,2.6,0l2,2C54,43.3,54,44.3,53.2,45.1L53.2,45.1z"/>
			</g>
		</g>
		<path fill="#353535" d="M34.9,6h2c0.6,0,1-0.4,1-1c0-0.5-0.4-1-1-1h-2c-0.6,0-1,0.4-1,1S34.3,6,34.9,6L34.9,6z"/>
		<path fill="#353535" d="M40.9,12c1.6,0,3-1.3,3-3c0-1.3-0.8-2.4-2-2.8V1c0-0.5-0.4-1-1-1c-0.6,0-1,0.4-1,1v5.2
			c-1.2,0.4-2,1.5-2,2.8C37.9,10.7,39.2,12,40.9,12L40.9,12z M40.9,8c0.5,0,1,0.4,1,1s-0.4,1-1,1c-0.6,0-1-0.4-1-1
			C39.9,8.5,40.3,8,40.9,8L40.9,8z"/>
		<path fill="#353535" d="M44.9,6h2c1.5,0,3,1.5,3,3v25.8c0,0.5,0.4,1,1,1c0.6,0,1-0.4,1-1V9c0-2.6-2.4-5-5-5h-2c-0.6,0-1,0.4-1,1
			C43.9,5.6,44.3,6,44.9,6L44.9,6z"/>
		<path fill="#353535" d="M30.9,12c1.6,0,3-1.3,3-3c0-1.3-0.8-2.4-2-2.8V1c0-0.5-0.4-1-1-1c-0.6,0-1,0.4-1,1v5.2
			c-1.2,0.4-2,1.5-2,2.8C27.9,10.7,29.3,12,30.9,12L30.9,12z M30.9,8c0.5,0,1,0.4,1,1s-0.4,1-1,1c-0.6,0-1-0.4-1-1
			C29.9,8.5,30.4,8,30.9,8L30.9,8z"/>
		<path fill="#353535" d="M30.9,51.9c0.6,0,1-0.4,1-1c0-0.5-0.4-1-1-1H2V9c0-1.5,1.5-3,3-3h2c0.5,0,1-0.4,1-1c0-0.5-0.4-1-1-1H5
			C2.4,4,0,6.5,0,9v45.9c0,2.6,2.4,5,5,5h25.9c0.6,0,1-0.4,1-1c0-0.5-0.4-1-1-1H5c-1.1,0-2.3-0.9-2.8-2h28.7c0.6,0,1-0.4,1-1
			c0-0.6-0.4-1-1-1H2v-2L30.9,51.9L30.9,51.9z"/>
		<path fill="#353535" d="M24.9,6h2c0.6,0,1-0.4,1-1c0-0.5-0.4-1-1-1h-2c-0.6,0-1,0.4-1,1C23.9,5.6,24.4,6,24.9,6L24.9,6z"/>
		<path fill="#353535" d="M15,6h2c0.5,0,1-0.4,1-1c0-0.5-0.4-1-1-1h-2c-0.5,0-1,0.4-1,1C14,5.6,14.4,6,15,6L15,6z"/>
		<path fill="#353535" d="M20.9,12c1.6,0,3-1.3,3-3c0-1.3-0.8-2.4-2-2.8V1c0-0.5-0.4-1-1-1c-0.5,0-1,0.4-1,1v5.2
			c-1.2,0.4-2,1.5-2,2.8C17.9,10.7,19.3,12,20.9,12L20.9,12z M20.9,8c0.5,0,1,0.4,1,1s-0.4,1-1,1s-1-0.4-1-1C19.9,8.5,20.4,8,20.9,8
			L20.9,8z"/>
		<path fill="#353535" d="M11,12c1.6,0,3-1.3,3-3c0-1.3-0.8-2.4-2-2.8V1c0-0.5-0.4-1-1-1c-0.6,0-1,0.4-1,1v5.2C8.8,6.6,8,7.7,8,9
			C8,10.7,9.3,12,11,12L11,12z M11,8c0.5,0,1,0.4,1,1s-0.4,1-1,1s-1-0.4-1-1C10,8.5,10.4,8,11,8L11,8z"/>
	</g>
	<g>
		<path fill="#ED1C24" d="M27.8,21.8c0.2,0.3,0.4,0.5,0.6,0.7c1.8,1.9,3.7,3.7,5.5,5.6c0.9,1,2,1.3,3.3,1.2c1.6-0.1,3.3-0.3,4.9-0.5
			c0.2,0,0.4-0.2,0.6-0.3c-0.2-0.1-0.3-0.3-0.5-0.4c-0.1,0-0.2,0-0.2,0c-3.6-0.9-7.1-2.1-10.1-4.4c-0.8-0.6-1.6-1.1-2.4-1.8
			c0.4-0.2,0.7-0.3,0.9-0.4c1.7-0.7,3.5-1.4,5.2-2.1c0.8-0.3,0.8-0.7,0.2-1.2c-0.5-0.4-1-0.7-1.5-1c-0.6-0.3-0.8-0.2-1.1,0.4
			c-0.3,0.5-0.6,1.1-1.1,1.5c-0.9,0.7-1.9,1.3-2.8,2c-0.2,0.1-0.6,0.3-0.7,0.2c-0.3-0.3-1-0.4-0.9-1.1c0.2-1.3,0.3-2.6,0.6-3.9
			c0.1-0.5,0.1-1-0.4-1.3c-0.9-0.5-1.9-0.8-3.1-0.7c0.1,0.4,0.3,0.6,0.4,0.9c0.3,0.7,0.7,1.3,0.7,2c0.1,2,0.2,4,0.2,5.9
			c0,1.4-0.2,2.9-0.3,4.3c-0.1,0.9-0.6,1.1-1.4,1c-0.4-0.1-0.8-0.2-1.2-0.2c-0.2,0-0.4,0-0.6,0c0.1,0.2,0.2,0.4,0.3,0.5
			c1,0.8,1.9,1.6,2.6,2.8c0.2,0.4,0.6,0.4,0.9,0.1c0.3-0.3,0.6-0.7,0.7-1.1c0.7-1.4,0.8-2.9,0.8-4.4C27.8,24.8,27.8,23.4,27.8,21.8z
			 M22.2,19.6c-0.3,0.1-0.5,0.2-0.7,0.3c-1.4,0.9-3,1.2-4.6,1.5c-0.6,0.1-1.3,0.2-1.9,0.3c-0.2,0-0.5,0.2-0.5,0.3
			c0,0.2,0.1,0.5,0.3,0.6c0.6,0.4,1.2,0.7,2,0.4c0.9-0.3,1.9-0.6,2.9-0.8c0.4-0.1,0.8-0.1,1.2-0.2c-0.1,0.4-0.2,0.9-0.4,1.3
			c-1.4,2.6-3.4,4.7-5.8,6.5c-0.8,0.6-1.7,1.1-2.5,1.7c-0.1,0.1-0.2,0.3-0.3,0.4c0.2,0,0.3,0.1,0.5,0.1c0.1,0,0.2,0,0.3-0.1
			c3.3-1.4,6.2-3.3,8.4-6.1c1.1-1.5,2.2-3,3.3-4.5c0.1-0.1,0.1-0.4,0-0.5C23.8,20.3,23.1,19.9,22.2,19.6z"/>
		<path fill="#ED1C24" d="M21.4,45.9c-0.8-0.7-0.9-1.6-1-2.6c-0.1-1.3-0.3-2.6-0.5-3.9c-2.9,2.4-6,4.1-9.8,4.9
			c0.1-0.7,0.5-0.8,0.9-1c1.3-0.7,2.6-1.4,3.9-2.2c2.1-1.3,4.1-2.8,5.6-4.9c0.4-0.6,0.7-1.3,1.1-2c0-0.1-0.1-0.1-0.1-0.2
			c-0.7,0.1-1.4,0.2-2.1,0.3c-1.2,0.2-2.4,0.3-3.5-0.5c-0.2-0.1-0.3-0.3-0.6-0.5c0.4-0.1,0.6-0.2,0.8-0.2c3.3-0.3,6.6-0.6,9.9-1
			c2.2-0.3,4.5-0.8,6.7-1c1-0.1,2,0,3,0.1c0.3,0,0.6,0.2,0.9,0.4c0.4,0.3,0.3,0.9-0.2,1.1c-0.4,0.1-0.9,0.3-1.4,0.3
			c-1.8,0.1-3.6,0.1-5.4,0.3c-1.8,0.1-3.6,0.3-5.4,0.5c-0.2,0-0.3,0.1-0.7,0.3c0.2,0.1,0.4,0.2,0.5,0.3c0.7,0.7,0.6,0.9-0.2,1.5
			c-0.8,0.6-1.5,1.2-2.2,1.8c0,0.1,0.1,0.1,0.1,0.2c1.1-0.1,2.2-0.2,3.3-0.4c1.7-0.3,3.4-0.6,5.1-0.9c0.1,0,0.2,0,0.2-0.1
			c1.9-0.9,3.3,0,4.8,1c0.5,0.3,0.4,0.8-0.1,1.4c-0.4,0.5-0.9,1-1.3,1.6c-0.2,0.3-0.4,0.7-0.6,1.1c-0.1,0.4-0.1,0.7,0.2,1.1
			c0.5,0.5,0.4,0.8-0.3,1c-0.6,0.1-1.3,0.2-2,0.2c-1.3,0.1-2.6,0.1-3.9,0.1c-1.6,0.1-3.2,0.1-4.8,0.2c-0.2,0.7-0.3,1.2-0.5,1.8
			C21.7,45.9,21.6,45.9,21.4,45.9z M22.3,42.9c2.6-0.2,5.1-0.5,7.7-0.7c0.5,0,0.8-0.3,1-0.8c0.2-0.7,0.4-1.4,0.5-2.2
			c0.1-0.8-0.3-1.2-1.1-1.2c-2.7,0.2-5.4,0.5-8.1,0.7c-0.1,0-0.4,0.2-0.4,0.3C21.9,40.3,22.1,41.5,22.3,42.9z"/>
		<path fill="#ED1C24" d="M27.8,21.8c0,1.6,0,3,0,4.4c0,1.5-0.1,3-0.8,4.4c-0.2,0.4-0.4,0.8-0.7,1.1c-0.3,0.3-0.7,0.3-0.9-0.1
			c-0.6-1.1-1.6-2-2.6-2.8c-0.1-0.1-0.2-0.3-0.3-0.5c0.2,0,0.4-0.1,0.6,0c0.4,0,0.8,0.1,1.2,0.2c0.8,0.2,1.3-0.1,1.4-1
			c0.2-1.4,0.3-2.9,0.3-4.3c0-2,0-4-0.2-5.9c0-0.7-0.5-1.4-0.7-2c-0.1-0.3-0.2-0.6-0.4-0.9c1.2-0.2,2.2,0.1,3.1,0.7
			c0.5,0.3,0.5,0.8,0.4,1.3c-0.2,1.3-0.4,2.6-0.6,3.9c-0.1,0.7,0.5,0.8,0.9,1.1c0.1,0.1,0.5-0.1,0.7-0.2c1-0.6,1.9-1.2,2.8-2
			c0.5-0.4,0.8-1,1.1-1.5c0.3-0.6,0.5-0.7,1.1-0.4c0.5,0.3,1,0.7,1.5,1c0.6,0.5,0.6,0.9-0.2,1.2c-1.7,0.7-3.5,1.4-5.2,2.1
			c-0.3,0.1-0.5,0.2-0.9,0.4c0.9,0.6,1.7,1.2,2.4,1.8c3,2.3,6.5,3.5,10.1,4.4c0.1,0,0.2,0,0.2,0c0.2,0.1,0.4,0.3,0.5,0.4
			c-0.2,0.1-0.4,0.3-0.6,0.3c-1.6,0.2-3.3,0.4-4.9,0.5c-1.3,0.1-2.4-0.2-3.3-1.2c-1.8-1.9-3.6-3.7-5.5-5.6
			C28.2,22.3,28,22.1,27.8,21.8z"/>
		<path fill="#ED1C24" d="M22.2,19.6c0.9,0.3,1.6,0.7,2.2,1.3c0.1,0.1,0.1,0.4,0,0.5c-1.1,1.5-2.2,3.1-3.3,4.5
			c-2.2,2.8-5.1,4.8-8.4,6.1c-0.1,0-0.2,0.1-0.3,0.1c-0.2,0-0.3-0.1-0.5-0.1c0.1-0.2,0.1-0.4,0.3-0.4c0.8-0.6,1.7-1.1,2.5-1.7
			c2.3-1.8,4.4-3.9,5.8-6.5c0.2-0.4,0.3-0.9,0.4-1.3c-0.4,0.1-0.8,0.1-1.2,0.2c-1,0.2-1.9,0.5-2.9,0.8c-0.8,0.2-1.4,0-2-0.4
			c-0.2-0.1-0.3-0.4-0.3-0.6c0-0.1,0.3-0.3,0.5-0.3c0.6-0.1,1.3-0.2,1.9-0.3c1.6-0.3,3.2-0.7,4.6-1.5C21.7,19.8,22,19.7,22.2,19.6z"
			/>
	</g>
</g>
</svg>
