<?xml version="1.0" encoding="utf-8"?>
<!-- Generator: Adobe Illustrator 21.1.0, SVG Export Plug-In . SVG Version: 6.00 Build 0)  -->
<svg version="1.1" id="Слой_1" xmlns="http://www.w3.org/2000/svg" xmlns:xlink="http://www.w3.org/1999/xlink" x="0px" y="0px"
	 viewBox="0 0 60 49.6" enable-background="new 0 0 60 49.6" xml:space="preserve">
<g>
	<path fill="#353535" d="M1.2,40.4h49.6c0.3,0,0.6-0.1,0.9-0.4l8-8c0.2-0.2,0.4-0.5,0.4-0.9h0v-30C60,0.5,59.5,0,58.8,0H1.2
		C0.5,0,0,0.5,0,1.2v38C0,39.9,0.5,40.4,1.2,40.4L1.2,40.4z M52,36.2v-3.8h3.8L52,36.2z M2.4,2.5h55.1V30h-6.7
		c-0.7,0-1.2,0.5-1.2,1.2V38H2.4V2.5z"/>
	<rect x="6.1" y="25.1" fill="#353535" width="9.2" height="2.4"/>
	<rect x="6.1" y="28.8" fill="#353535" width="9.2" height="2.4"/>
	<rect x="6.1" y="32.5" fill="#353535" width="15.9" height="2.4"/>
	<rect x="16.5" y="25.1" fill="#353535" width="2.4" height="2.4"/>
	<rect x="46.5" y="6.1" fill="#353535" width="3.1" height="2.4"/>
	<rect x="51.4" y="6.1" fill="#353535" width="3.1" height="2.4"/>
	<rect x="46.5" y="9.8" fill="#353535" width="3.1" height="2.4"/>
	<rect x="51.4" y="9.8" fill="#353535" width="3.1" height="2.4"/>
	<rect x="46.5" y="13.5" fill="#353535" width="3.1" height="2.4"/>
	<rect x="51.4" y="13.5" fill="#353535" width="3.1" height="2.4"/>
	<rect x="46.5" y="17.1" fill="#353535" width="3.1" height="2.4"/>
	<rect x="51.4" y="17.1" fill="#353535" width="3.1" height="2.4"/>
	<path fill="#353535" d="M59.2,44.8l-7.3-2.4c-0.1,0-0.3-0.1-0.4-0.1v0H1.2c-0.7,0-1.2,0.5-1.2,1.2v4.9c0,0.7,0.5,1.2,1.2,1.2h50.2
		c0.1,0,0.3,0,0.4-0.1l7.3-2.4c0.5-0.2,0.8-0.6,0.8-1.2C60,45.4,59.7,44.9,59.2,44.8L59.2,44.8z M7.3,47.1H2.4v-2.4h4.9V47.1z
		 M50.2,47.1H9.8v-2.4h40.4V47.1z M52.7,46.7v-1.5l2.3,0.8L52.7,46.7z"/>
	<path fill="#EB1B24" d="M42.8,6.2H30.6c-0.7,0-1.2,0.5-1.2,1.2v1.8h-3.1c-0.7,0-1.2,0.5-1.2,1.2v9.2h-9.8v-4.3H22
		c0.7,0,1.2-0.5,1.2-1.2V6.8c0-0.7-0.5-1.2-1.2-1.2H7.4c-0.7,0-1.2,0.5-1.2,1.2v7.3c0,0.7,0.5,1.2,1.2,1.2h5.5v5.5
		c0,0.7,0.5,1.2,1.2,1.2h11v8.5c0,0.7,0.5,1.2,1.2,1.2h3.1v1.2c0,0.7,0.5,1.2,1.2,1.2h12.2c0.7,0,1.2-0.5,1.2-1.2V27
		c0-0.7-0.5-1.2-1.2-1.2H30.6c-0.7,0-1.2,0.5-1.2,1.2v2.4h-1.8v-7.3h1.8v1.2c0,0.7,0.5,1.2,1.2,1.2h12.2c0.7,0,1.2-0.5,1.2-1.2v-6.1
		c0-0.7-0.5-1.2-1.2-1.2H30.6c-0.7,0-1.2,0.5-1.2,1.2v2.4h-1.8v-7.9h1.8v1.8c0,0.7,0.5,1.2,1.2,1.2h12.2c0.7,0,1.2-0.5,1.2-1.2V7.4
		C44,6.8,43.5,6.2,42.8,6.2z M8.6,12.9V8h12.2v4.9H8.6z M31.8,28.2h9.8v3.7h-9.8V28.2z M31.8,18.4h9.8v3.7h-9.8V18.4z M41.6,12.3
		h-9.8V8.6h9.8V12.3z"/>
</g>
</svg>
