<?xml version="1.0" encoding="utf-8"?>
<!-- Generator: Adobe Illustrator 21.1.0, SVG Export Plug-In . SVG Version: 6.00 Build 0)  -->
<svg version="1.1" id="Layer_1" xmlns="http://www.w3.org/2000/svg" xmlns:xlink="http://www.w3.org/1999/xlink" x="0px" y="0px"
	 viewBox="0 0 31.3 60" style="enable-background:new 0 0 31.3 60;" xml:space="preserve">
<style type="text/css">
	.st0{fill:#353535;}
	.st1{fill:#E9170B;}
</style>
<g>
	<path class="st0" d="M30.4,38.7c0.5,0,1-0.4,1-1V21.6c0-0.5-0.4-1-1-1h-1.9v-5.5c0-0.5-0.4-1-1-1h-2.6V9.6c0-0.5-0.4-1-1-1h-2.5
		l-4.9-8.2C16.3,0.2,16,0,15.7,0S15,0.2,14.8,0.5L9.9,8.7H7.4c-0.5,0-1,0.4-1,1v4.5H3.9c-0.5,0-1,0.4-1,1v5.5H1c-0.5,0-1,0.4-1,1V51
		c0,0.5,0.4,1,1,1h2.3V59c0,0.5,0.4,1,1,1s1-0.4,1-1V52h2.2V59c0,0.5,0.4,1,1,1s1-0.4,1-1V52h2.8v2c0,0.5,0.4,1,1,1s1-0.4,1-1v-2
		h3.2V59c0,0.5,0.4,1,1,1s1-0.4,1-1V52H22V59c0,0.5,0.4,1,1,1s1-0.4,1-1V52h2.2V59c0,0.5,0.4,1,1,1s1-0.4,1-1V52h2.3
		c0.5,0,1-0.4,1-1V40.8c0-0.5-0.4-1-1-1s-1,0.4-1,1v9.3H1.9V22.6h27.5v15.1C29.4,38.2,29.8,38.7,30.4,38.7z M15.7,2.8l3.5,5.9h-7
		L15.7,2.8z M4.8,20.7v-4.6h13.5c0.5,0,1-0.4,1-1c0-0.5-0.4-1-1-1h-10v-3.6H23v3.6h-1.7c-0.5,0-1,0.4-1,1c0,0.5,0.4,1,1,1h5.2v4.6
		L4.8,20.7L4.8,20.7z"/>
	<path class="st1" d="M27.3,36.3c0-6.4-5.2-11.7-11.7-11.7c-3.1,0-6.1,1.2-8.3,3.5c-0.4,0.4-0.4,1,0,1.4c0.4,0.4,1,0.4,1.4,0
		c1.8-1.9,4.3-2.9,6.9-2.9c5.4,0,9.8,4.4,9.8,9.8s-4.4,9.8-9.8,9.8s-9.8-4.4-9.8-9.8c0-1.7,0.4-3.4,1.3-4.9c0.3-0.5,0.1-1-0.4-1.3
		c-0.5-0.3-1-0.1-1.3,0.4c-1,1.8-1.6,3.8-1.6,5.8C4,42.8,9.2,48,15.7,48S27.3,42.8,27.3,36.3z"/>
	<path class="st0" d="M13.1,56.1c-0.5,0-1,0.4-1,1v2c0,0.5,0.4,1,1,1s1-0.4,1-1v-2C14.1,56.5,13.6,56.1,13.1,56.1z"/>
	<path class="st1" d="M15.7,37.3c0.5,0,1-0.4,1-1v-6.9c0-0.5-0.4-1-1-1s-1,0.4-1,1v6h-2c-0.5,0-1,0.4-1,1s0.4,1,1,1H15.7z"/>
	<path class="st0" d="M26.2,23.4c-1.3,0-2.4,1.1-2.4,2.4c0,1.3,1.1,2.4,2.4,2.4s2.4-1.1,2.4-2.4C28.6,24.4,27.6,23.4,26.2,23.4z
		 M26.2,26.2c-0.3,0-0.5-0.2-0.5-0.5s0.2-0.5,0.5-0.5s0.5,0.2,0.5,0.5S26.5,26.2,26.2,26.2z"/>
	<path class="st0" d="M26.2,49.3c1.3,0,2.4-1.1,2.4-2.4c0-1.3-1.1-2.4-2.4-2.4s-2.4,1.1-2.4,2.4S24.9,49.3,26.2,49.3z M26.2,46.4
		c0.3,0,0.5,0.2,0.5,0.5s-0.2,0.5-0.5,0.5s-0.5-0.2-0.5-0.5S26,46.4,26.2,46.4z"/>
	<path class="st0" d="M5.1,28.2c1.3,0,2.4-1.1,2.4-2.4c0-1.3-1.1-2.4-2.4-2.4s-2.4,1.1-2.4,2.4C2.7,27.1,3.7,28.2,5.1,28.2z
		 M5.1,25.3c0.3,0,0.5,0.2,0.5,0.5s-0.2,0.5-0.5,0.5S4.6,26,4.6,25.8S4.8,25.3,5.1,25.3z"/>
	<path class="st0" d="M5.1,49.3c1.3,0,2.4-1.1,2.4-2.4c0-1.3-1.1-2.4-2.4-2.4s-2.4,1.1-2.4,2.4C2.7,48.2,3.7,49.3,5.1,49.3z
		 M5.1,46.4c0.3,0,0.5,0.2,0.5,0.5s-0.2,0.5-0.5,0.5s-0.5-0.2-0.5-0.5S4.8,46.4,5.1,46.4z"/>
</g>
</svg>
