<?xml version="1.0" encoding="iso-8859-1"?>
<!-- Generator: Adobe Illustrator 21.1.0, SVG Export Plug-In . SVG Version: 6.00 Build 0)  -->
<svg version="1.1" id="&#x421;&#x43B;&#x43E;&#x439;_1"
	 xmlns="http://www.w3.org/2000/svg" xmlns:xlink="http://www.w3.org/1999/xlink" x="0px" y="0px" viewBox="0 0 60 60"
	 style="enable-background:new 0 0 60 60;" xml:space="preserve">
<g>
	<path style="fill:#353535;" d="M33.707,54.293c-0.391-0.391-1.023-0.391-1.414,0c-0.391,0.391-0.391,1.023,0,1.414l4,4
		C36.488,59.902,36.744,60,37,60c0.256,0,0.512-0.098,0.707-0.293c0.391-0.391,0.391-1.023,0-1.415L33.707,54.293z M33.707,54.293"
		/>
	<path style="fill:#353535;" d="M30,48c-0.553,0-1,0.448-1,1v2.586l-6.707,6.707c-0.391,0.391-0.391,1.023,0,1.414
		c0.195,0.195,0.451,0.293,0.707,0.293c0.256,0,0.512-0.098,0.707-0.293l7-7C30.894,52.519,31,52.265,31,52v-3
		C31,48.448,30.553,48,30,48L30,48z M30,48"/>
	<path style="fill:#353535;" d="M59,2H31V1c0-0.552-0.447-1-1-1c-0.553,0-1,0.448-1,1v1H1C0.447,2,0,2.448,0,3v4
		c0,0.552,0.447,1,1,1H53c0.553,0,1-0.448,1-1c0-0.552-0.447-1-1-1H2V4h56v2h-1c-0.553,0-1,0.448-1,1v34
		c0,1.654-1.346,2.999-3,2.999H7c-1.654,0-3-1.346-3-2.999V11c0-0.552-0.447-1-1-1c-0.553,0-1,0.448-1,1v30C2,43.757,4.243,46,7,46
		H53c2.757,0,5-2.243,5-5V8h1c0.553,0,1-0.448,1-1V3C60,2.448,59.552,2,59,2L59,2z M59,2"/>
	<path style="fill:#E9170B;" d="M45,20c2.821,0,2.994,2.5,3,3.005C48.003,23.555,48.449,24,49,24c0.553,0,1-0.448,1-1
		C50,21.27,48.955,18,45,18S40,21.27,40,23v4c0,1.729,1.045,5,5,5s5-3.271,5-5c0-0.55-0.444-0.994-0.994-0.997H49
		c-0.548,0-0.994,0.443-1,0.992C47.994,27.497,47.823,30,45,30c-2.823,0-2.994-2.503-3-3v-3.995C42.006,22.503,42.177,20,45,20
		L45,20z M45,20"/>
	<path style="fill:#E9170B;" d="M20.077,29.385C20.237,29.769,20.608,30,21,30c0.129,0,0.259-0.024,0.385-0.077
		c0.509-0.213,0.751-0.798,0.538-1.308l-5-12C16.768,16.243,16.403,16,16,16c-0.403,0-0.768,0.243-0.923,0.615l-5,12
		c-0.213,0.51,0.028,1.095,0.538,1.308c0.511,0.214,1.095-0.028,1.308-0.538L12.5,28H15c0.553,0,1-0.448,1-1c0-0.552-0.447-1-1-1
		h-1.667L16,19.6L20.077,29.385z M20.077,29.385"/>
	<path style="fill:#E9170B;" d="M27,22c-0.553,0-1,0.448-1,1v12c0,0.552,0.447,1,1,1h4C32.729,36,36,35.164,36,32
		c0-1.269-0.526-2.164-1.268-2.78C35.573,28.5,36,27.418,36,26c0-1.482-0.468-2.599-1.386-3.316
		c-1.528-1.193-3.623-0.712-3.856-0.654c-0.536,0.134-0.862,0.676-0.728,1.213c0.134,0.535,0.676,0.86,1.212,0.727
		c0.014-0.004,1.375-0.308,2.141,0.29C33.792,24.58,34,25.165,34,26c0,0.832-0.206,1.416-0.612,1.736
		c-0.334,0.264-0.798,0.357-1.22,0.373C31.743,28.033,31.342,28,31,28c-0.505,0-0.931,0.376-0.992,0.878
		c-0.063,0.501,0.26,0.97,0.75,1.092c0.105,0.027,0.59,0.138,1.23,0.144C32.864,30.296,34,30.77,34,32c0,1.958-2.881,1.999-3,2h-3
		V23C28,22.448,27.553,22,27,22L27,22z M27,22"/>
</g>
</svg>
