<?xml version="1.0" encoding="iso-8859-1"?>
<!-- Generator: Adobe Illustrator 21.1.0, SVG Export Plug-In . SVG Version: 6.00 Build 0)  -->
<svg version="1.1" id="Layer_1" xmlns="http://www.w3.org/2000/svg" xmlns:xlink="http://www.w3.org/1999/xlink" x="0px" y="0px"
	 viewBox="177 373.012 60 47.976" style="enable-background:new 177 373.012 60 47.976;" xml:space="preserve">
<g>
	<path style="fill:#E9170B;" d="M189.965,380.904c0.519,0,0.939-0.421,0.939-0.939c0-0.519-0.421-0.939-0.939-0.939h-6.013
		c-0.519,0-0.939,0.421-0.939,0.939v10.021c0,0.519,0.421,0.939,0.939,0.939h6.013c0.519,0,0.939-0.421,0.939-0.939
		c0-0.519-0.421-0.939-0.939-0.939h-5.073v-3.132h4.071c0.519,0,0.939-0.421,0.939-0.939s-0.421-0.939-0.939-0.939h-4.071v-3.132
		H189.965z"/>
	<path style="fill:#E9170B;" d="M192.384,390.719c0.173,0.139,0.38,0.206,0.586,0.206c0.276,0,0.549-0.121,0.734-0.353l3.275-4.093
		l3.275,4.093c0.186,0.232,0.459,0.353,0.734,0.353c0.206,0,0.413-0.067,0.586-0.206c0.405-0.324,0.471-0.915,0.147-1.32
		l-3.539-4.424l3.539-4.424c0.324-0.405,0.258-0.996-0.147-1.32c-0.405-0.324-0.996-0.258-1.321,0.147l-3.275,4.094l-3.275-4.093
		c-0.324-0.405-0.916-0.471-1.321-0.147c-0.405,0.324-0.471,0.915-0.147,1.321l3.539,4.424l-3.539,4.424
		C191.913,389.804,191.979,390.395,192.384,390.719z"/>
	<path style="fill:#E9170B;" d="M203.81,390.907c0.509,0.102,1.004-0.228,1.105-0.737l0.45-2.251h5.274l0.45,2.251
		c0.089,0.447,0.482,0.755,0.92,0.755c0.061,0,0.123-0.006,0.185-0.018c0.509-0.102,0.839-0.597,0.737-1.105l-1.763-8.813
		c-0.227-1.138-1.235-1.964-2.395-1.964h-1.544c-1.16,0-2.168,0.826-2.395,1.964l-1.763,8.813
		C202.971,390.31,203.301,390.805,203.81,390.907z M207.231,380.904h1.544c0.268,0,0.5,0.191,0.553,0.453l0.937,4.683h-4.522
		l0.937-4.683C206.731,381.094,206.963,380.904,207.231,380.904z"/>
	<path style="fill:#E9170B;" d="M185.956,394.056c-1.623,0-2.944,1.321-2.944,2.944c0,1.623,1.321,2.944,2.944,2.944
		c1.623,0,2.944-1.321,2.944-2.944C188.9,395.377,187.58,394.056,185.956,394.056z M185.956,398.065
		c-0.587,0-1.065-0.478-1.065-1.065c0-0.587,0.478-1.065,1.065-1.065c0.587,0,1.065,0.478,1.065,1.065
		C187.021,397.587,186.544,398.065,185.956,398.065z"/>
	<path style="fill:#E9170B;" d="M185.956,402.073c-1.623,0-2.944,1.321-2.944,2.944s1.321,2.944,2.944,2.944
		c1.623,0,2.944-1.32,2.944-2.944S187.58,402.073,185.956,402.073z M185.956,406.082c-0.587,0-1.065-0.478-1.065-1.065
		c0-0.587,0.478-1.065,1.065-1.065c0.587,0,1.065,0.478,1.065,1.065C187.021,405.604,186.544,406.082,185.956,406.082z"/>
	<path style="fill:#E9170B;" d="M225.59,379.063c-0.4-0.117-0.829,0.043-1.055,0.393l-3.719,5.785l-3.719-5.785
		c-0.225-0.351-0.655-0.511-1.055-0.393c-0.4,0.118-0.675,0.485-0.675,0.901v10.021c0,0.519,0.421,0.939,0.939,0.939
		s0.939-0.421,0.939-0.939v-6.822l2.78,4.324c0.173,0.269,0.471,0.431,0.79,0.431s0.617-0.163,0.79-0.431l2.78-4.324v3.397
		c0.166-0.183,0.342-0.361,0.527-0.534c0.419-0.451,0.872-0.845,1.357-1.183c0.001-0.049,0.004-0.097,0.008-0.145l-0.013,0.013
		v-4.747C226.265,379.547,225.99,379.18,225.59,379.063z"/>
	<path style="fill:#E9170B;" d="M185.956,410.09c-1.623,0-2.944,1.321-2.944,2.944c0,1.623,1.321,2.944,2.944,2.944
		c1.623,0,2.944-1.321,2.944-2.944C188.9,411.411,187.58,410.09,185.956,410.09z M185.956,414.098c-0.587,0-1.065-0.478-1.065-1.065
		c0-0.587,0.478-1.065,1.065-1.065c0.587,0,1.065,0.478,1.065,1.065C187.021,413.621,186.544,414.098,185.956,414.098z"/>
	<path style="fill:#E9170B;" d="M191.969,397.939h16.034c0.519,0,0.939-0.421,0.939-0.939c0-0.519-0.421-0.939-0.939-0.939h-16.034
		c-0.519,0-0.939,0.421-0.939,0.939C191.03,397.519,191.45,397.939,191.969,397.939z"/>
	<path style="fill:#E9170B;" d="M191.969,405.956h4.008c0.519,0,0.939-0.421,0.939-0.939s-0.421-0.939-0.939-0.939h-4.008
		c-0.519,0-0.939,0.421-0.939,0.939S191.45,405.956,191.969,405.956z"/>
	<path style="fill:#353535;" d="M236.432,381.183l-2.591-2.591c-0.367-0.367-0.854-0.569-1.373-0.569s-1.006,0.202-1.373,0.569
		l-0.107,0.107v-1.74c0-2.176-1.77-3.946-3.946-3.946h-46.097c-2.176,0-3.946,1.77-3.946,3.946v40.084
		c0,2.176,1.77,3.946,3.946,3.946h46.097c2.176,0,3.946-1.77,3.946-3.946v-27.67l5.444-5.444
		C237.189,383.171,237.189,381.94,236.432,381.183z M229.11,417.042c0,1.14-0.927,2.067-2.067,2.067h-46.097
		c-1.14,0-2.067-0.927-2.067-2.067v-40.084c0-1.14,0.927-2.067,2.067-2.067h46.097c1.14,0,2.067,0.927,2.067,2.067v3.619l-23.5,23.5
		h-5.624c-0.519,0-0.939,0.421-0.939,0.939s0.421,0.939,0.939,0.939h4.27l-2.864,6.138h-9.423c-0.519,0-0.939,0.421-0.939,0.939
		c0,0.519,0.421,0.939,0.939,0.939h10.021c0,0,0,0,0,0c0.134,0,0.27-0.029,0.397-0.088l7.516-3.507
		c0.099-0.046,0.19-0.11,0.267-0.187l4.234-4.234h7.628c0.519,0,0.939-0.421,0.939-0.939c0-0.519-0.421-0.939-0.939-0.939h-5.749
		l12.826-12.826V417.042z M206.1,406.447l2.476,2.476l-4.642,2.166L206.1,406.447z M210.007,407.697l-2.68-2.68l22.135-22.135
		l2.68,2.68L210.007,407.697z M235.104,382.6l-1.633,1.633l-2.68-2.68l1.633-1.633c0.024-0.024,0.064-0.024,0.089,0l2.591,2.591
		C235.128,382.536,235.128,382.575,235.104,382.6z"/>
</g>
</svg>
