<?xml version="1.0" encoding="iso-8859-1"?>
<!-- Generator: Adobe Illustrator 21.1.0, SVG Export Plug-In . SVG Version: 6.00 Build 0)  -->
<svg version="1.1" id="&#x421;&#x43B;&#x43E;&#x439;_1"
	 xmlns="http://www.w3.org/2000/svg" xmlns:xlink="http://www.w3.org/1999/xlink" x="0px" y="0px" viewBox="0 0 60 61.111"
	 style="enable-background:new 0 0 60 61.111;" xml:space="preserve">
<g>
	<g>
		<defs>
			<rect id="SVGID_1_" y="-1" width="60" height="61.111"/>
		</defs>
		<clipPath id="SVGID_2_">
			<use xlink:href="#SVGID_1_"  style="overflow:visible;"/>
		</clipPath>
		<path style="clip-path:url(#SVGID_2_);fill:#353535;" d="M9.259,16.405c0,3.066,2.491,5.557,5.557,5.557
			c3.06,0,5.557-2.491,5.557-5.557c0-3.06-2.497-5.551-5.557-5.551C11.75,10.854,9.259,13.345,9.259,16.405L9.259,16.405z
			 M18.518,16.405c0,2.044-1.66,3.708-3.703,3.708c-2.044,0-3.703-1.664-3.703-3.708c0-2.038,1.659-3.703,3.703-3.703
			C16.859,12.703,18.518,14.367,18.518,16.405L18.518,16.405z M18.518,16.405"/>
		<path style="clip-path:url(#SVGID_2_);fill:#353535;" d="M28.433,26.321l6.479-6.479c0.362-0.361,0.362-0.949,0-1.311
			l-2.775-2.775c-0.344-0.344-0.891-0.366-1.257-0.05l-6.375,5.462l-6.176,2.649H7.405c-0.266,0-0.52,0.112-0.696,0.316L0.23,31.538
			c-0.216,0.248-0.289,0.591-0.181,0.904l2.775,8.332c0.087,0.254,0.277,0.462,0.525,0.56c0.248,0.104,0.524,0.096,0.769-0.027
			l3.703-1.85c0.316-0.157,0.51-0.475,0.51-0.814v15.725c0,2.554,2.08,4.63,4.63,4.63h7.411c0.51,0,0.921-0.411,0.921-0.927v-28.13
			l6.895-3.45C28.28,26.451,28.361,26.392,28.433,26.321L28.433,26.321z M8.332,38.613c0-0.113-0.022-0.221-0.063-0.33l-1.655-4.128
			l1.718-2.147V38.613z M19.956,28.541c-0.311,0.159-0.51,0.479-0.51,0.832V57.15h-3.703V42.335c0-0.512-0.417-0.927-0.927-0.927
			c-0.512,0-0.927,0.415-0.927,0.927V57.15h-0.927c-1.532,0-2.775-1.249-2.775-2.781V29.373c0-0.394-0.249-0.747-0.619-0.877
			c-0.372-0.127-0.787-0.009-1.031,0.299l-3.703,4.63c-0.208,0.257-0.263,0.61-0.14,0.921l1.537,3.839l-1.985,0.99l-2.274-6.813
			l5.855-6.697h10.692c0.126,0,0.249-0.022,0.366-0.072l6.479-2.78c0.086-0.037,0.168-0.087,0.24-0.145l5.832-4.997l1.515,1.515
			l-5.72,5.719L19.956,28.541z M19.956,28.541"/>
	</g>
	<path style="fill:#353535;" d="M12.962,29.373h0.927v7.405h1.854v-7.405h0.921v-1.854h-3.703V29.373z M12.962,29.373"/>
	<path style="fill:#353535;" d="M59.258,46.037c0-3.065-2.491-5.557-5.557-5.557c-1.931,0-3.63,0.995-4.63,2.492
		c-0.994-1.501-2.694-2.492-4.63-2.492c-1.931,0-3.63,0.995-4.63,2.492c-0.994-1.501-2.694-2.492-4.63-2.492
		c-3.06,0-5.551,2.492-5.551,5.557c0,1.931,0.99,3.635,2.486,4.63c-1.497,0.994-2.486,2.699-2.486,4.63v3.703h1.848v-3.703
		c0-2.044,1.664-3.703,3.703-3.703c2.044,0,3.708,1.659,3.708,3.703v3.703h1.848v-3.703c0-2.044,1.664-3.703,3.703-3.703
		c2.044,0,3.708,1.659,3.708,3.703v3.703h1.848v-3.703c0-2.044,1.664-3.703,3.703-3.703c2.044,0,3.708,1.659,3.708,3.703v3.703
		h1.848v-3.703c0-1.931-0.99-3.635-2.491-4.63C58.268,49.672,59.258,47.968,59.258,46.037L59.258,46.037z M44.442,42.335
		c2.044,0,3.708,1.659,3.708,3.703c0,2.044-1.664,3.703-3.708,3.703c-2.038,0-3.703-1.659-3.703-3.703
		C40.74,43.993,42.404,42.335,44.442,42.335L44.442,42.335z M31.48,46.037c0-2.044,1.664-3.703,3.703-3.703
		c2.044,0,3.708,1.659,3.708,3.703c0,2.044-1.664,3.703-3.708,3.703C33.145,49.74,31.48,48.081,31.48,46.037L31.48,46.037z
		 M39.812,52.231c-0.411-0.62-0.944-1.154-1.564-1.565c0.619-0.411,1.153-0.944,1.564-1.565c0.412,0.62,0.946,1.154,1.565,1.565
		C40.758,51.078,40.225,51.611,39.812,52.231L39.812,52.231z M49.072,52.231c-0.411-0.62-0.944-1.154-1.564-1.565
		c0.619-0.411,1.153-0.944,1.564-1.565c0.412,0.62,0.946,1.154,1.565,1.565C50.017,51.078,49.484,51.611,49.072,52.231
		L49.072,52.231z M53.701,49.74c-2.038,0-3.703-1.659-3.703-3.703c0-2.044,1.664-3.703,3.703-3.703c2.044,0,3.708,1.659,3.708,3.703
		C57.41,48.081,55.745,49.74,53.701,49.74L53.701,49.74z M53.701,49.74"/>
	<path style="fill:#353535;" d="M58.331-0.259H24.075c-0.512,0-0.927,0.415-0.927,0.927v17.591h1.854V1.595H57.41v24.997
		c0,1.532-1.249,2.781-2.781,2.781H25.924v1.848h28.705c2.554,0,4.63-2.075,4.63-4.63V0.668C59.258,0.156,58.843-0.259,58.331-0.259
		L58.331-0.259z M58.331-0.259"/>
	<path style="fill:#E9170B;" d="M38.891,4.37h-9.259c-0.512,0-0.927,0.416-0.927,0.927V9c0,0.51,0.416,0.927,0.927,0.927h9.259
		c0.51,0,0.921-0.417,0.921-0.927V8.073h2.781V9c0,0.51,0.416,0.927,0.927,0.927h3.703v2.775h-3.703
		c-0.512,0-0.927,0.417-0.927,0.927v3.703c0,0.512,0.416,0.927,0.927,0.927h3.703v2.775h-3.703c-0.512,0-0.927,0.417-0.927,0.927
		v3.703c0,0.516,0.416,0.927,0.927,0.927h9.259c0.51,0,0.921-0.411,0.921-0.927v-3.703c0-0.51-0.411-0.927-0.921-0.927h-3.708
		v-2.775h3.708c0.51,0,0.921-0.416,0.921-0.927V13.63c0-0.51-0.411-0.927-0.921-0.927h-3.708V9.927h3.708
		c0.51,0,0.921-0.417,0.921-0.927V5.298c0-0.512-0.411-0.927-0.921-0.927h-9.259c-0.512,0-0.927,0.416-0.927,0.927v0.927h-2.781
		V5.298C39.812,4.786,39.402,4.37,38.891,4.37L38.891,4.37z M37.964,8.073h-7.411V6.225h7.411V8.073z M51.853,24.743h-7.411v-1.854
		h7.411V24.743z M51.853,16.405h-7.411v-1.848h7.411V16.405z M44.442,6.225h7.411v1.848h-7.411V6.225z M44.442,6.225"/>
	<rect x="29.632" y="11.775" style="fill:#E9170B;" width="10.182" height="1.854"/>
	<rect x="36.11" y="15.484" style="fill:#E9170B;" width="3.703" height="1.85"/>
	<rect x="37.037" y="19.186" style="fill:#E9170B;" width="2.775" height="1.85"/>
	<rect x="34.262" y="22.889" style="fill:#E9170B;" width="5.552" height="1.854"/>
	<path style="fill:#E9170B;" d="M3.703,9h0.466l2.5,3.332c0.176,0.24,0.451,0.37,0.736,0.37c0.1,0,0.199-0.014,0.294-0.045
		c0.38-0.126,0.633-0.479,0.633-0.882V9h5.557c1.532,0,2.775-1.248,2.775-2.775V2.516c0-1.528-1.243-2.775-2.775-2.775H3.703
		c-1.532,0-2.775,1.248-2.775,2.775v3.708C0.927,7.752,2.17,9,3.703,9L3.703,9z M2.775,2.516c0-0.51,0.417-0.921,0.927-0.921h10.186
		c0.51,0,0.927,0.411,0.927,0.921v3.708c0,0.51-0.417,0.921-0.927,0.921H7.405c-0.51,0-0.921,0.417-0.921,0.927V9L5.372,7.517
		C5.194,7.287,4.919,7.146,4.63,7.146H3.703c-0.51,0-0.927-0.411-0.927-0.921V2.516z M2.775,2.516"/>
	<rect x="4.63" y="3.443" style="fill:#E9170B;" width="8.332" height="1.854"/>
</g>
</svg>
