<?xml version="1.0" encoding="iso-8859-1"?>
<!-- Generator: Adobe Illustrator 21.1.0, SVG Export Plug-In . SVG Version: 6.00 Build 0)  -->
<svg version="1.1" id="&#x421;&#x43B;&#x43E;&#x439;_1"
	 xmlns="http://www.w3.org/2000/svg" xmlns:xlink="http://www.w3.org/1999/xlink" x="0px" y="0px" viewBox="0 0 60 55.423"
	 style="enable-background:new 0 0 60 55.423;" xml:space="preserve">
<g>
	<g>
		<defs>
			<rect id="SVGID_1_" width="60" height="55.423"/>
		</defs>
		<clipPath id="SVGID_2_">
			<use xlink:href="#SVGID_1_"  style="overflow:visible;"/>
		</clipPath>
		<path style="clip-path:url(#SVGID_2_);fill:#353535;" d="M59.096,53.521H57.16v-24.53h1.936c0.321,0,0.617-0.175,0.771-0.457
			c0.155-0.282,0.144-0.625-0.029-0.896l-6.573-10.329c-0.162-0.254-0.442-0.408-0.743-0.408H35.048l-4.18-4.179v-3.45h8.509
			c0.325,0,0.624-0.179,0.777-0.465c0.153-0.286,0.136-0.634-0.044-0.904l-1.552-2.328l1.553-2.328
			c0.18-0.27,0.196-0.618,0.043-0.904c-0.153-0.286-0.452-0.465-0.777-0.465h-8.509V0.88c0-0.486-0.394-0.88-0.88-0.88
			c-0.486,0-0.88,0.394-0.88,0.88v11.842l-4.179,4.179H7.453c-0.301,0-0.581,0.154-0.743,0.408L0.138,27.638
			c-0.173,0.271-0.183,0.614-0.029,0.896c0.155,0.281,0.451,0.457,0.772,0.457h1.936v24.53H0.88c-0.486,0-0.88,0.394-0.88,0.88
			c0,0.486,0.394,0.88,0.88,0.88h58.216c0.486,0,0.88-0.394,0.88-0.88C59.977,53.915,59.582,53.521,59.096,53.521L59.096,53.521z
			 M52.04,18.662l5.452,8.569H45.376l-8.568-8.569H52.04z M37.733,3.639l-0.966,1.448c-0.197,0.296-0.197,0.681,0,0.977l0.966,1.448
			h-6.865V3.639H37.733z M7.936,18.662h15.232L14.6,27.23H2.484L7.936,18.662z M4.577,28.991h10.387
			c0.029,0,0.058-0.002,0.087-0.005c0.013-0.001,0.025-0.003,0.037-0.005c0.016-0.002,0.032-0.005,0.048-0.007
			c0.014-0.003,0.028-0.007,0.042-0.01c0.014-0.003,0.028-0.007,0.041-0.011c0.014-0.004,0.028-0.009,0.041-0.014
			c0.013-0.005,0.027-0.009,0.04-0.015c0.013-0.005,0.025-0.011,0.038-0.017c0.013-0.006,0.027-0.012,0.04-0.019
			c0.012-0.006,0.023-0.014,0.036-0.021c0.013-0.008,0.026-0.015,0.038-0.023c0.013-0.009,0.025-0.019,0.038-0.028
			c0.01-0.008,0.021-0.015,0.031-0.023c0.023-0.018,0.044-0.038,0.065-0.058l14.401-14.401L44.39,28.732
			c0.02,0.021,0.042,0.04,0.064,0.058c0.01,0.009,0.021,0.016,0.031,0.023c0.013,0.009,0.025,0.02,0.038,0.028
			c0.013,0.008,0.025,0.015,0.038,0.023c0.012,0.007,0.024,0.015,0.036,0.021c0.013,0.007,0.026,0.013,0.04,0.019
			c0.013,0.006,0.025,0.012,0.038,0.018c0.013,0.005,0.026,0.01,0.039,0.014c0.014,0.005,0.028,0.01,0.042,0.014
			c0.013,0.005,0.027,0.007,0.04,0.011c0.014,0.004,0.029,0.007,0.043,0.01c0.015,0.003,0.032,0.005,0.047,0.007
			c0.013,0.002,0.025,0.005,0.038,0.006c0.029,0.003,0.058,0.005,0.087,0.005h10.387v24.53H36.502V41.256
			c0-1.521-1.237-2.758-2.758-2.758h-7.512c-1.521,0-2.758,1.237-2.758,2.758v12.266H4.577V28.991z M34.742,42.254h-9.507v-0.998
			c0-0.55,0.448-0.998,0.998-0.998h7.512c0.55,0,0.998,0.448,0.998,0.998V42.254z M25.235,44.014h3.873v9.507h-3.873V44.014z
			 M30.868,44.014h3.874v9.507h-3.874V44.014z M30.868,44.014"/>
	</g>
	<path style="fill:#E9170B;" d="M29.988,35.563c3.592,0,6.515-2.922,6.515-6.514s-2.922-6.514-6.515-6.514
		c-3.592,0-6.514,2.922-6.514,6.514S26.396,35.563,29.988,35.563L29.988,35.563z M29.988,24.296c2.621,0,4.754,2.132,4.754,4.753
		s-2.132,4.753-4.754,4.753c-2.621,0-4.753-2.132-4.753-4.753S27.367,24.296,29.988,24.296L29.988,24.296z M29.988,24.296"/>
	<path style="fill:#E9170B;" d="M29.988,29.93c0.487,0,0.88-0.394,0.88-0.88v-2.817c0-0.486-0.394-0.88-0.88-0.88
		c-0.486,0-0.88,0.394-0.88,0.88v1.936h-1.936c-0.486,0-0.88,0.394-0.88,0.88c0,0.486,0.394,0.88,0.88,0.88H29.988z M29.988,29.93"
		/>
	<path style="fill:#E9170B;" d="M20.598,43.192h-4.695c-0.486,0-0.88,0.394-0.88,0.88v5.634c0,0.486,0.394,0.88,0.88,0.88h4.695
		c0.487,0,0.88-0.394,0.88-0.88v-5.634C21.479,43.587,21.085,43.192,20.598,43.192L20.598,43.192z M19.718,44.953v1.057h-2.934
		v-1.057H19.718z M16.784,48.826V47.77h2.934v1.056H16.784z M16.784,48.826"/>
	<path style="fill:#E9170B;" d="M12.148,43.192H7.453c-0.486,0-0.88,0.394-0.88,0.88v5.634c0,0.486,0.394,0.88,0.88,0.88h4.695
		c0.486,0,0.88-0.394,0.88-0.88v-5.634C13.028,43.587,12.634,43.192,12.148,43.192L12.148,43.192z M11.268,44.953v1.057H8.333
		v-1.057H11.268z M8.333,48.826V47.77h2.934v1.056H8.333z M8.333,48.826"/>
	<path style="fill:#E9170B;" d="M20.305,31.925h-4.108c-0.647,0-1.174,0.526-1.174,1.174v6.279c0,0.487,0.394,0.88,0.88,0.88h4.695
		c0.487,0,0.88-0.394,0.88-0.88v-6.279C21.479,32.451,20.952,31.925,20.305,31.925L20.305,31.925z M19.718,33.686v1.995h-2.934
		v-1.995H19.718z M16.784,38.497v-1.056h2.934v1.056H16.784z M16.784,38.497"/>
	<path style="fill:#E9170B;" d="M11.855,31.925H7.747c-0.647,0-1.174,0.526-1.174,1.174v6.279c0,0.487,0.394,0.88,0.88,0.88h4.695
		c0.486,0,0.88-0.394,0.88-0.88v-6.279C13.028,32.451,12.502,31.925,11.855,31.925L11.855,31.925z M11.268,33.686v1.995H8.333
		v-1.995H11.268z M8.333,38.497v-1.056h2.934v1.056H8.333z M8.333,38.497"/>
	<path style="fill:#E9170B;" d="M47.829,50.587h4.695c0.486,0,0.88-0.394,0.88-0.88v-5.634c0-0.486-0.394-0.88-0.88-0.88h-4.695
		c-0.486,0-0.88,0.394-0.88,0.88v5.634C46.948,50.193,47.343,50.587,47.829,50.587L47.829,50.587z M48.709,48.826V47.77h2.934v1.056
		H48.709z M51.643,44.953v1.057h-2.934v-1.057H51.643z M51.643,44.953"/>
	<path style="fill:#E9170B;" d="M39.378,50.587h4.695c0.487,0,0.88-0.394,0.88-0.88v-5.634c0-0.486-0.394-0.88-0.88-0.88h-4.695
		c-0.486,0-0.88,0.394-0.88,0.88v5.634C38.497,50.193,38.892,50.587,39.378,50.587L39.378,50.587z M40.258,48.826V47.77h2.934v1.056
		H40.258z M43.192,44.953v1.057h-2.934v-1.057H43.192z M43.192,44.953"/>
	<path style="fill:#E9170B;" d="M47.829,40.258h4.695c0.486,0,0.88-0.394,0.88-0.88v-6.279c0-0.648-0.527-1.174-1.174-1.174h-4.108
		c-0.647,0-1.174,0.526-1.174,1.174v6.279C46.948,39.864,47.343,40.258,47.829,40.258L47.829,40.258z M48.709,38.497v-1.056h2.934
		v1.056H48.709z M51.643,33.686v1.995h-2.934v-1.995H51.643z M51.643,33.686"/>
	<path style="fill:#E9170B;" d="M39.378,40.258h4.695c0.487,0,0.88-0.394,0.88-0.88v-6.279c0-0.648-0.526-1.174-1.174-1.174h-4.108
		c-0.647,0-1.174,0.526-1.174,1.174v6.279C38.497,39.864,38.892,40.258,39.378,40.258L39.378,40.258z M40.258,38.497v-1.056h2.934
		v1.056H40.258z M43.192,33.686v1.995h-2.934v-1.995H43.192z M43.192,33.686"/>
</g>
</svg>
