<?xml version="1.0" encoding="iso-8859-1"?>
<!-- Generator: Adobe Illustrator 21.1.0, SVG Export Plug-In . SVG Version: 6.00 Build 0)  -->
<svg version="1.1" id="&#x421;&#x43B;&#x43E;&#x439;_1"
	 xmlns="http://www.w3.org/2000/svg" xmlns:xlink="http://www.w3.org/1999/xlink" x="0px" y="0px" viewBox="0 0 60 60"
	 style="enable-background:new 0 0 60 60;" xml:space="preserve">
<g>
	<linearGradient id="SVGID_1_" gradientUnits="userSpaceOnUse" x1="30" y1="0.5081" x2="30" y2="59.9374">
		<stop  offset="0" style="stop-color:#EB1B24"/>
		<stop  offset="1" style="stop-color:#333333"/>
	</linearGradient>
	<path style="fill:url(#SVGID_1_);" d="M56.294,21.29c-0.988,0-1.919,0.385-2.619,1.085l-5.288,5.289V15.39
		c0.617,1.259,0.967,2.637,0.967,3.965h1.936c0-3.439,3.468-8.709,7.741-8.709V8.709c-4.703,0-7.741-3.039-7.741-7.742h-1.936
		c0,1.39-0.351,2.681-0.967,3.797V2.903c0-1.6-1.303-2.903-2.904-2.903H2.904C1.303,0,0,1.303,0,2.903v54.193
		C0,58.697,1.303,60,2.904,60h42.58c1.601,0,2.904-1.303,2.904-2.903V38.142l10.527-10.528C59.615,26.915,60,25.986,60,24.994
		C60,22.953,58.338,21.29,56.294,21.29L56.294,21.29z M50.252,5.399c0.935,2.074,2.56,3.634,4.69,4.494
		c-1.983,1.194-3.558,3.151-4.523,5.2c-0.969-2.29-2.668-4.2-4.728-5.317C47.673,8.877,49.276,7.334,50.252,5.399L50.252,5.399z
		 M46.452,57.097h-0.001c0,0.534-0.434,0.967-0.967,0.967H2.904c-0.534,0-0.968-0.434-0.968-0.967V2.903
		c0-0.535,0.434-0.967,0.968-0.967h42.58c0.534,0,0.968,0.433,0.968,0.967v4.144c-1.318,1.042-2.992,1.662-4.839,1.662v1.936
		c1.867,0,3.534,0.823,4.839,2.076V29.6L32.903,43.148v-5.406h-6.773v6.775h5.405L31.252,44.8l-0.132,0.131l-3.931,9.171l9.17-3.93
		l10.093-10.093V57.097z M34.111,49.028l-3.236,1.386l1.387-3.236L34.111,49.028z M30.967,39.677v2.904h-2.902v-2.904H30.967z
		 M35.807,47.986l-2.502-2.502l17.018-17.018l2.502,2.503L35.807,47.986z M57.545,26.247L54.193,29.6l-2.503-2.502l3.352-3.352
		c0.335-0.335,0.779-0.519,1.251-0.519c0.976,0,1.77,0.794,1.77,1.769C58.064,25.462,57.876,25.916,57.545,26.247L57.545,26.247z
		 M57.545,26.247"/>
	<linearGradient id="SVGID_2_" gradientUnits="userSpaceOnUse" x1="12.5805" y1="0.5081" x2="12.5805" y2="59.9374">
		<stop  offset="0" style="stop-color:#EB1B24"/>
		<stop  offset="1" style="stop-color:#333333"/>
	</linearGradient>
	<path style="fill:url(#SVGID_2_);" d="M12.58,18.387c3.202,0,5.806-2.604,5.806-5.806c0-3.202-2.604-5.806-5.806-5.806
		c-3.202,0-5.806,2.604-5.806,5.806C6.775,15.783,9.378,18.387,12.58,18.387L12.58,18.387z M12.58,8.709
		c2.136,0,3.871,1.737,3.871,3.871c0,2.135-1.736,3.871-3.871,3.871c-2.134,0-3.871-1.736-3.871-3.871
		C8.709,10.446,10.446,8.709,12.58,8.709L12.58,8.709z M12.58,8.709"/>
	<linearGradient id="SVGID_3_" gradientUnits="userSpaceOnUse" x1="11.6132" y1="0.5081" x2="11.6132" y2="59.9374">
		<stop  offset="0" style="stop-color:#EB1B24"/>
		<stop  offset="1" style="stop-color:#333333"/>
	</linearGradient>
	<rect x="7.742" y="20.323" style="fill:url(#SVGID_3_);" width="7.742" height="1.936"/>
	<linearGradient id="SVGID_4_" gradientUnits="userSpaceOnUse" x1="12.0967" y1="0.5081" x2="12.0967" y2="59.9374">
		<stop  offset="0" style="stop-color:#EB1B24"/>
		<stop  offset="1" style="stop-color:#333333"/>
	</linearGradient>
	<path style="fill:url(#SVGID_4_);" d="M15.484,28.064H8.709v6.774h6.775V28.064z M13.548,32.903h-2.904V30h2.904V32.903z
		 M13.548,32.903"/>
	<linearGradient id="SVGID_5_" gradientUnits="userSpaceOnUse" x1="12.0967" y1="0.5081" x2="12.0967" y2="59.9374">
		<stop  offset="0" style="stop-color:#EB1B24"/>
		<stop  offset="1" style="stop-color:#333333"/>
	</linearGradient>
	<path style="fill:url(#SVGID_5_);" d="M8.709,44.516h6.775v-6.775H8.709V44.516z M10.644,39.677h2.904v2.904h-2.904V39.677z
		 M10.644,39.677"/>
	<linearGradient id="SVGID_6_" gradientUnits="userSpaceOnUse" x1="29.5157" y1="0.5081" x2="29.5157" y2="59.9374">
		<stop  offset="0" style="stop-color:#EB1B24"/>
		<stop  offset="1" style="stop-color:#333333"/>
	</linearGradient>
	<path style="fill:url(#SVGID_6_);" d="M32.903,28.064h-6.775v6.775h6.775V28.064z M30.967,32.903h-2.902V30h2.902V32.903z
		 M30.967,32.903"/>
	<linearGradient id="SVGID_7_" gradientUnits="userSpaceOnUse" x1="31.9356" y1="0.5081" x2="31.9356" y2="59.9374">
		<stop  offset="0" style="stop-color:#EB1B24"/>
		<stop  offset="1" style="stop-color:#333333"/>
	</linearGradient>
	<rect x="25.161" y="9.677" style="fill:url(#SVGID_7_);" width="13.549" height="1.936"/>
	<linearGradient id="SVGID_8_" gradientUnits="userSpaceOnUse" x1="33.8711" y1="0.5081" x2="33.8711" y2="59.9374">
		<stop  offset="0" style="stop-color:#EB1B24"/>
		<stop  offset="1" style="stop-color:#333333"/>
	</linearGradient>
	<rect x="25.161" y="15.484" style="fill:url(#SVGID_8_);" width="17.42" height="1.935"/>
	<linearGradient id="SVGID_9_" gradientUnits="userSpaceOnUse" x1="33.8711" y1="0.5081" x2="33.8711" y2="59.9374">
		<stop  offset="0" style="stop-color:#EB1B24"/>
		<stop  offset="1" style="stop-color:#333333"/>
	</linearGradient>
	<rect x="25.161" y="21.29" style="fill:url(#SVGID_9_);" width="17.42" height="1.936"/>
	<linearGradient id="SVGID_10_" gradientUnits="userSpaceOnUse" x1="19.8382" y1="0.5081" x2="19.8382" y2="59.9374">
		<stop  offset="0" style="stop-color:#EB1B24"/>
		<stop  offset="1" style="stop-color:#333333"/>
	</linearGradient>
	<rect x="17.419" y="29.032" style="fill:url(#SVGID_10_);" width="4.839" height="1.936"/>
	<linearGradient id="SVGID_11_" gradientUnits="userSpaceOnUse" x1="19.8382" y1="0.5081" x2="19.8382" y2="59.9374">
		<stop  offset="0" style="stop-color:#EB1B24"/>
		<stop  offset="1" style="stop-color:#333333"/>
	</linearGradient>
	<rect x="17.419" y="32.903" style="fill:url(#SVGID_11_);" width="4.839" height="1.936"/>
	<linearGradient id="SVGID_12_" gradientUnits="userSpaceOnUse" x1="37.2584" y1="0.5081" x2="37.2584" y2="59.9374">
		<stop  offset="0" style="stop-color:#EB1B24"/>
		<stop  offset="1" style="stop-color:#333333"/>
	</linearGradient>
	<rect x="34.839" y="29.032" style="fill:url(#SVGID_12_);" width="4.839" height="1.936"/>
	<linearGradient id="SVGID_13_" gradientUnits="userSpaceOnUse" x1="37.2584" y1="0.5081" x2="37.2584" y2="59.9374">
		<stop  offset="0" style="stop-color:#EB1B24"/>
		<stop  offset="1" style="stop-color:#333333"/>
	</linearGradient>
	<rect x="34.839" y="32.903" style="fill:url(#SVGID_13_);" width="4.839" height="1.936"/>
	<linearGradient id="SVGID_14_" gradientUnits="userSpaceOnUse" x1="19.8382" y1="0.5081" x2="19.8382" y2="59.9374">
		<stop  offset="0" style="stop-color:#EB1B24"/>
		<stop  offset="1" style="stop-color:#333333"/>
	</linearGradient>
	<rect x="17.419" y="40.645" style="fill:url(#SVGID_14_);" width="4.839" height="1.936"/>
	<linearGradient id="SVGID_15_" gradientUnits="userSpaceOnUse" x1="17.4189" y1="0.5081" x2="17.4189" y2="59.9374">
		<stop  offset="0" style="stop-color:#EB1B24"/>
		<stop  offset="1" style="stop-color:#333333"/>
	</linearGradient>
	<rect x="8.709" y="48.387" style="fill:url(#SVGID_15_);" width="17.419" height="1.935"/>
	<linearGradient id="SVGID_16_" gradientUnits="userSpaceOnUse" x1="17.4189" y1="0.5081" x2="17.4189" y2="59.9374">
		<stop  offset="0" style="stop-color:#EB1B24"/>
		<stop  offset="1" style="stop-color:#333333"/>
	</linearGradient>
	<rect x="8.709" y="52.258" style="fill:url(#SVGID_16_);" width="17.419" height="1.935"/>
	<linearGradient id="SVGID_17_" gradientUnits="userSpaceOnUse" x1="18.3869" y1="0.5081" x2="18.3869" y2="59.9374">
		<stop  offset="0" style="stop-color:#EB1B24"/>
		<stop  offset="1" style="stop-color:#333333"/>
	</linearGradient>
	<rect x="17.419" y="20.323" style="fill:url(#SVGID_17_);" width="1.936" height="1.936"/>
	<linearGradient id="SVGID_18_" gradientUnits="userSpaceOnUse" x1="43.548" y1="0.5081" x2="43.548" y2="59.9374">
		<stop  offset="0" style="stop-color:#EB1B24"/>
		<stop  offset="1" style="stop-color:#333333"/>
	</linearGradient>
	<rect x="42.58" y="54.193" style="fill:url(#SVGID_18_);" width="1.936" height="1.936"/>
	<linearGradient id="SVGID_19_" gradientUnits="userSpaceOnUse" x1="39.6771" y1="0.5081" x2="39.6771" y2="59.9374">
		<stop  offset="0" style="stop-color:#EB1B24"/>
		<stop  offset="1" style="stop-color:#333333"/>
	</linearGradient>
	<rect x="38.709" y="54.193" style="fill:url(#SVGID_19_);" width="1.936" height="1.936"/>
	<linearGradient id="SVGID_20_" gradientUnits="userSpaceOnUse" x1="4.8384" y1="0.5081" x2="4.8384" y2="59.9374">
		<stop  offset="0" style="stop-color:#EB1B24"/>
		<stop  offset="1" style="stop-color:#333333"/>
	</linearGradient>
	<rect x="3.871" y="54.193" style="fill:url(#SVGID_20_);" width="1.935" height="1.936"/>
</g>
</svg>
