<?xml version="1.0" encoding="iso-8859-1"?>
<!-- Generator: Adobe Illustrator 21.1.0, SVG Export Plug-In . SVG Version: 6.00 Build 0)  -->
<svg version="1.1" id="&#x421;&#x43B;&#x43E;&#x439;_1"
	 xmlns="http://www.w3.org/2000/svg" xmlns:xlink="http://www.w3.org/1999/xlink" x="0px" y="0px" viewBox="0 0 56 60"
	 style="enable-background:new 0 0 56 60;" xml:space="preserve">
<g>
	<linearGradient id="SVGID_1_" gradientUnits="userSpaceOnUse" x1="27.9998" y1="0.1465" x2="27.9998" y2="60.033">
		<stop  offset="0" style="stop-color:#E91B24"/>
		<stop  offset="1" style="stop-color:#333333"/>
	</linearGradient>
	<path style="fill:url(#SVGID_1_);" d="M49.753,14.37c-0.347-0.429-0.977-0.494-1.406-0.146c-0.429,0.347-0.494,0.977-0.146,1.406
		C51.94,20.239,54,26.053,54,32c0,14.336-11.664,26-26,26c-14.336,0-26-11.664-26-26C2,17.999,13.126,6.553,27,6.025v4
		C15.332,10.55,6,20.205,6,32c0,12.131,9.869,22,22,22c12.131,0,22-9.869,22-22c0-5.96-2.344-11.541-6.601-15.713
		c-0.395-0.386-1.028-0.38-1.415,0.014c-0.386,0.394-0.38,1.028,0.015,1.414C45.869,21.508,48,26.582,48,32c0,11.028-8.972,20-20,20
		C16.971,52,8,43.028,8,32c0-10.69,8.438-19.423,19-19.949v4C18.643,16.571,12,23.515,12,32c0,8.822,7.178,16,16,16
		c8.822,0,16-7.178,16-16c0-6.773-4.289-12.837-10.671-15.091c-0.523-0.184-1.092,0.089-1.276,0.61
		c-0.184,0.521,0.089,1.092,0.61,1.276C38.248,20.767,42,26.073,42,32c0,7.72-6.28,14-14,14c-7.72,0-14-6.28-14-14
		c0-7.382,5.747-13.432,13-13.949v4c-5.046,0.503-9,4.772-9,9.949c0,5.514,4.486,10,10,10c5.514,0,10-4.486,10-10
		c0-3.824-2.128-7.257-5.555-8.96c-0.495-0.248-1.095-0.044-1.341,0.451c-0.246,0.494-0.044,1.094,0.451,1.34
		C34.297,26.193,36,28.94,36,32c0,4.411-3.589,8-8,8c-4.411,0-8-3.589-8-8c0-4.072,3.06-7.436,7-7.931v4.073
		c-1.72,0.447-3,2-3,3.858c0,2.206,1.794,4,4,4c2.206,0,4-1.794,4-4c0-0.552-0.448-1-1-1c-0.552,0-1,0.448-1,1c0,1.103-0.897,2-2,2
		c-1.103,0-2-0.897-2-2c0-0.737,0.405-1.375,1-1.722V32c0,0.552,0.448,1,1,1c0.552,0,1-0.448,1-1V2h7v8h-4c-0.552,0-1,0.448-1,1
		c0,0.552,0.448,1,1,1h4v1c0,0.552,0.447,1,1,1h8c0.552,0,1-0.448,1-1V3c0-0.552-0.448-1-1-1h-4c-0.552,0-1,0.448-1,1
		c0,0.552,0.448,1,1,1h3V12h-6V1c0-0.552-0.448-1-1-1h-9c-0.552,0-1,0.448-1,1v3.025C12.022,4.555,0,16.896,0,32
		c0,15.439,12.561,28,28,28c15.439,0,28-12.561,28-28C56,25.596,53.782,19.334,49.753,14.37L49.753,14.37z M49.753,14.37"/>
</g>
</svg>
