<?xml version="1.0" encoding="iso-8859-1"?>
<!-- Generator: Adobe Illustrator 21.1.0, SVG Export Plug-In . SVG Version: 6.00 Build 0)  -->
<svg version="1.1" id="Layer_1" xmlns="http://www.w3.org/2000/svg" xmlns:xlink="http://www.w3.org/1999/xlink" x="0px" y="0px"
	 viewBox="182.418 372 49.167 50" style="enable-background:new 182.418 372 49.167 50;" xml:space="preserve">
<g>
	<path d="M200.751,413.667c-2.454,0-4.383,2.109-4.147,4.573c0.204,2.143,2.099,3.76,4.29,3.76h24.857
		c0.46,0,0.833-0.373,0.833-0.833V414.5c0-0.46-0.373-0.833-0.833-0.833H200.751z M224.918,420.333h-24.023
		c-1.354,0-2.511-0.987-2.631-2.251c-0.142-1.484,1.015-2.749,2.488-2.749h24.167V420.333z"/>
	<path d="M201.584,418.667h20c0.46,0,0.833-0.373,0.833-0.833S222.045,417,221.584,417h-20c-0.46,0-0.833,0.373-0.833,0.833
		S201.124,418.667,201.584,418.667z"/>
	<path d="M195.751,378.667h3.333c0.46,0,0.833-0.373,0.833-0.833S199.545,377,199.084,377h-3.333c-0.46,0-0.833,0.373-0.833,0.833
		S195.291,378.667,195.751,378.667z"/>
	<path d="M195.751,382h3.333c0.46,0,0.833-0.373,0.833-0.833s-0.373-0.833-0.833-0.833h-3.333c-0.46,0-0.833,0.373-0.833,0.833
		S195.291,382,195.751,382z"/>
	<path d="M195.751,385.333h3.333c0.46,0,0.833-0.373,0.833-0.833s-0.373-0.833-0.833-0.833h-3.333c-0.46,0-0.833,0.373-0.833,0.833
		S195.291,385.333,195.751,385.333z"/>
	<path d="M195.751,388.667h3.333c0.46,0,0.833-0.373,0.833-0.833S199.545,387,199.084,387h-3.333c-0.46,0-0.833,0.373-0.833,0.833
		S195.291,388.667,195.751,388.667z"/>
	<path d="M195.751,392h3.333c0.46,0,0.833-0.373,0.833-0.833s-0.373-0.833-0.833-0.833h-3.333c-0.46,0-0.833,0.373-0.833,0.833
		S195.291,392,195.751,392z"/>
	<path d="M195.751,395.333h3.333c0.46,0,0.833-0.373,0.833-0.833s-0.373-0.833-0.833-0.833h-3.333c-0.46,0-0.833,0.373-0.833,0.833
		S195.291,395.333,195.751,395.333z"/>
	<path d="M195.751,398.667h3.333c0.46,0,0.833-0.373,0.833-0.833S199.545,397,199.084,397h-3.333c-0.46,0-0.833,0.373-0.833,0.833
		S195.291,398.667,195.751,398.667z"/>
	<path d="M195.751,402h3.333c0.46,0,0.833-0.373,0.833-0.833s-0.373-0.833-0.833-0.833h-3.333c-0.46,0-0.833,0.373-0.833,0.833
		S195.291,402,195.751,402z"/>
	<path d="M195.751,405.333h3.333c0.46,0,0.833-0.373,0.833-0.833s-0.373-0.833-0.833-0.833h-3.333c-0.46,0-0.833,0.373-0.833,0.833
		S195.291,405.333,195.751,405.333z"/>
	<path d="M195.751,408.667h3.333c0.46,0,0.833-0.373,0.833-0.833S199.545,407,199.084,407h-3.333c-0.46,0-0.833,0.373-0.833,0.833
		S195.291,408.667,195.751,408.667z"/>
	<path d="M195.751,412h3.333c0.46,0,0.833-0.373,0.833-0.833s-0.373-0.833-0.833-0.833h-3.333c-0.46,0-0.833,0.373-0.833,0.833
		S195.291,412,195.751,412z"/>
	<path d="M200.751,413.667c-0.938,0-1.804,0.31-2.5,0.833v-38.333c0-1.381,1.119-2.5,2.5-2.5h29.167v3.392
		c-2.828,0.404-5,2.834-5,5.774v30.833H200.751z M225.751,415.333c0.46,0,0.833-0.373,0.833-0.833v-31.667
		c0-2.303,1.864-4.167,4.167-4.167c0.46,0,0.833-0.373,0.833-0.833v-5c0-0.46-0.373-0.833-0.833-0.833h-30
		c-2.301,0-4.167,1.866-4.167,4.167v41.667c0,1.111,1.667,1.111,1.667,0c0-1.381,1.119-2.5,2.5-2.5H225.751z"/>
	<path d="M225.751,388.667h5c0.46,0,0.833-0.373,0.833-0.833v-5c0-0.46-0.373-0.833-0.833-0.833h-5c-0.46,0-0.833,0.373-0.833,0.833
		v5C224.918,388.294,225.291,388.667,225.751,388.667z M226.584,383.667h3.333V387h-3.333V383.667z"/>
	<path d="M225.751,393.667h5c0.46,0,0.833-0.373,0.833-0.833v-5c0-0.46-0.373-0.833-0.833-0.833h-5c-0.46,0-0.833,0.373-0.833,0.833
		v5C224.918,393.294,225.291,393.667,225.751,393.667z M226.584,388.667h3.333V392h-3.333V388.667z"/>
	<path d="M225.751,398.667h5c0.46,0,0.833-0.373,0.833-0.833v-5c0-0.46-0.373-0.833-0.833-0.833h-5c-0.46,0-0.833,0.373-0.833,0.833
		v5C224.918,398.294,225.291,398.667,225.751,398.667z M226.584,393.667h3.333V397h-3.333V393.667z"/>
	<path d="M225.751,403.667h5c0.46,0,0.833-0.373,0.833-0.833v-5c0-0.46-0.373-0.833-0.833-0.833h-5c-0.46,0-0.833,0.373-0.833,0.833
		v5C224.918,403.294,225.291,403.667,225.751,403.667z M226.584,398.667h3.333V402h-3.333V398.667z"/>
	<path d="M225.751,408.667h5c0.46,0,0.833-0.373,0.833-0.833v-5c0-0.46-0.373-0.833-0.833-0.833h-5c-0.46,0-0.833,0.373-0.833,0.833
		v5C224.918,408.294,225.291,408.667,225.751,408.667z M226.584,403.667h3.333V407h-3.333V403.667z"/>
	<path d="M225.751,413.667h5c0.46,0,0.833-0.373,0.833-0.833v-5c0-0.46-0.373-0.833-0.833-0.833h-5c-0.46,0-0.833,0.373-0.833,0.833
		v5C224.918,413.294,225.291,413.667,225.751,413.667z M226.584,408.667h3.333V412h-3.333V408.667z"/>
	<path d="M226.585,413.667h3.333v1.753c0,0.873-0.707,1.58-1.58,1.58h-1.753V413.667z M228.338,418.667
		c1.794,0,3.247-1.453,3.247-3.247v-2.587c0-0.46-0.373-0.833-0.833-0.833h-5c-0.46,0-0.833,0.373-0.833,0.833v5
		c0,0.46,0.373,0.833,0.833,0.833H228.338z"/>
	<path d="M225.751,383.667h5c0.46,0,0.833-0.373,0.833-0.833v-5c0-0.46-0.373-0.833-0.833-0.833c-3.224,0-5.833,2.61-5.833,5.833
		C224.918,383.294,225.291,383.667,225.751,383.667z M229.918,378.75V382h-3.25C226.999,380.366,228.284,379.081,229.918,378.75z"/>
	<path d="M215.276,395.972c-0.02,0.023-0.02,0.023-0.04,0.046c-0.152,0.171-0.295,0.319-0.283,0.311
		c-0.547,0.37-0.884,0.343-1.368-0.141l-1.844-1.844l-1.843-1.843c-0.484-0.484-0.512-0.821-0.14-1.37
		c-0.01,0.014,0.138-0.129,0.309-0.281c0.023-0.02,0.023-0.02,0.046-0.04c0.16-0.141,0.321-0.279,0.441-0.38
		c0.879-0.548,0.948-1.604,0.435-2.505c-0.067-0.114-0.175-0.29-0.322-0.514c-0.243-0.372-0.507-0.744-0.784-1.094
		c-0.398-0.504-0.791-0.922-1.181-1.23c-0.172-0.136-0.344-0.251-0.516-0.342c-0.813-0.43-1.812-0.28-2.461,0.37l-0.815,0.815
		c-2.738,2.738-1.983,6.002,1.271,9.257l2.36,2.359l2.36,2.36c3.254,3.254,6.519,4.009,9.257,1.272l0.815-0.815
		c0.65-0.649,0.801-1.648,0.37-2.461c-0.091-0.173-0.206-0.344-0.342-0.516c-0.309-0.39-0.727-0.783-1.23-1.181
		c-0.35-0.277-0.722-0.541-1.094-0.784c-0.224-0.146-0.4-0.255-0.505-0.316c-0.909-0.518-1.966-0.45-2.515,0.429
		C215.555,395.65,215.417,395.812,215.276,395.972z M219.793,399.182l-0.815,0.816c-1.94,1.939-4.214,1.414-6.9-1.272l-2.36-2.36
		l-2.36-2.359c-2.685-2.686-3.211-4.959-1.271-6.9l0.815-0.815c0.132-0.132,0.337-0.163,0.504-0.075
		c0.077,0.04,0.165,0.099,0.261,0.176c0.273,0.216,0.583,0.546,0.908,0.957c0.243,0.307,0.479,0.64,0.697,0.973
		c0.13,0.199,0.224,0.352,0.273,0.435c0.118,0.207,0.113,0.265,0.116,0.264l-0.126,0.087c-0.034,0.028-0.091,0.077-0.165,0.139
		c-0.123,0.105-0.246,0.211-0.361,0.313c-0.025,0.022-0.025,0.022-0.05,0.045c-0.305,0.271-0.475,0.436-0.58,0.59
		c-0.816,1.206-0.716,2.43,0.34,3.486l1.843,1.843l1.843,1.843c1.055,1.056,2.28,1.156,3.483,0.342
		c0.156-0.106,0.321-0.277,0.592-0.582c0.022-0.025,0.022-0.025,0.045-0.05c0.102-0.116,0.208-0.239,0.313-0.362
		c0.063-0.074,0.111-0.131,0.139-0.165l0.086-0.125c-0.002,0.003,0.057-0.002,0.272,0.121c0.074,0.044,0.227,0.138,0.426,0.268
		c0.333,0.218,0.666,0.454,0.973,0.697c0.411,0.325,0.741,0.635,0.957,0.908c0.077,0.097,0.135,0.185,0.176,0.261
		C219.956,398.845,219.925,399.049,219.793,399.182z"/>
	<path d="M186.584,415.333h5c0.46,0,0.833-0.373,0.833-0.833V377c0-0.46-0.373-0.833-0.833-0.833h-5
		c-0.46,0-0.833,0.373-0.833,0.833v37.5C185.751,414.96,186.124,415.333,186.584,415.333z M187.418,377.833h3.333v35.833h-3.333
		V377.833z"/>
	<path d="M189.918,376.167h-1.667v-2.083c0-0.23,0.187-0.417,0.417-0.417h0.833c0.23,0,0.417,0.187,0.417,0.417V376.167z
		 M190.751,377.833c0.46,0,0.833-0.373,0.833-0.833v-2.917c0-1.15-0.933-2.083-2.083-2.083h-0.833c-1.15,0-2.083,0.933-2.083,2.083
		V377c0,0.46,0.373,0.833,0.833,0.833H190.751z"/>
	<path d="M186.212,377.088l-3.333,1.667c-0.412,0.206-0.578,0.706-0.373,1.118s0.706,0.578,1.118,0.373l3.333-1.667
		c0.412-0.206,0.579-0.706,0.373-1.118S186.623,376.882,186.212,377.088z"/>
	<path d="M182.418,379.5v10.833c0,0.46,0.373,0.833,0.833,0.833s0.833-0.373,0.833-0.833V379.5c0-0.46-0.373-0.833-0.833-0.833
		S182.418,379.04,182.418,379.5z"/>
	<path d="M189.317,418.667h-0.465l-1.111-3.333h2.688L189.317,418.667z M189.918,420.333c0.359,0,0.677-0.23,0.791-0.57l1.667-5
		c0.18-0.54-0.222-1.097-0.791-1.097h-5c-0.569,0-0.97,0.557-0.791,1.097l1.667,5c0.113,0.34,0.432,0.57,0.791,0.57H189.918z"/>
	<path d="M188.251,419.5v1.667c0,0.46,0.373,0.833,0.833,0.833s0.833-0.373,0.833-0.833V419.5c0-0.46-0.373-0.833-0.833-0.833
		S188.251,419.04,188.251,419.5z"/>
	<path d="M186.584,415.333h5c0.46,0,0.833-0.373,0.833-0.833v-13.333c0-0.46-0.373-0.833-0.833-0.833h-5
		c-0.46,0-0.833,0.373-0.833,0.833V414.5C185.751,414.96,186.124,415.333,186.584,415.333z M187.418,413.667V402h3.333v11.667
		H187.418z"/>
	<path d="M186.584,412h5c0.46,0,0.833-0.373,0.833-0.833s-0.373-0.833-0.833-0.833h-5c-0.46,0-0.833,0.373-0.833,0.833
		S186.124,412,186.584,412z"/>
	<path d="M186.584,408.667h5c0.46,0,0.833-0.373,0.833-0.833S192.045,407,191.584,407h-5c-0.46,0-0.833,0.373-0.833,0.833
		S186.124,408.667,186.584,408.667z"/>
	<path d="M186.584,405.333h5c0.46,0,0.833-0.373,0.833-0.833s-0.373-0.833-0.833-0.833h-5c-0.46,0-0.833,0.373-0.833,0.833
		S186.124,405.333,186.584,405.333z"/>
</g>
</svg>
