<?xml version="1.0" encoding="iso-8859-1"?>
<!-- Generator: Adobe Illustrator 21.1.0, SVG Export Plug-In . SVG Version: 6.00 Build 0)  -->
<svg version="1.1" id="Layer_1" xmlns="http://www.w3.org/2000/svg" xmlns:xlink="http://www.w3.org/1999/xlink" x="0px" y="0px"
	 viewBox="182 377.119 50 39.761" style="enable-background:new 182 377.119 50 39.761;" xml:space="preserve">
<g>
	<path d="M231.167,377.119h-48.333c-0.46,0-0.833,0.373-0.833,0.833v38.094c0,0.46,0.373,0.833,0.833,0.833h48.333
		c0.46,0,0.833-0.373,0.833-0.833v-38.094C232,377.492,231.627,377.119,231.167,377.119z M230.333,415.213h-46.667v-36.428h46.667
		V415.213z"/>
	<path d="M190.806,394.008c2.604,0,4.722-2.118,4.722-4.722c0-2.604-2.118-4.722-4.722-4.722c-2.604,0-4.722,2.118-4.722,4.722
		C186.083,391.89,188.202,394.008,190.806,394.008z M190.806,392.341c-1.396,0-2.575-0.941-2.939-2.222h2.777l2.572,1.041
		C192.656,391.878,191.784,392.341,190.806,392.341z M193.843,389.616l-1.889-0.765l0.91-1.821c0.612,0.559,0.997,1.363,0.997,2.255
		C193.861,389.397,193.855,389.508,193.843,389.616z M190.806,386.23c0.194,0,0.384,0.019,0.569,0.054l-1.084,2.168h-2.424
		C188.23,387.172,189.41,386.23,190.806,386.23z"/>
	<path d="M197.472,387.989h13.722c0.46,0,0.833-0.373,0.833-0.833c0-0.46-0.373-0.833-0.833-0.833h-13.722
		c-0.46,0-0.833,0.373-0.833,0.833C196.639,387.616,197.012,387.989,197.472,387.989z"/>
	<path d="M197.472,391.163h10.151c0.46,0,0.833-0.373,0.833-0.833c0-0.46-0.373-0.833-0.833-0.833h-10.151
		c-0.46,0-0.833,0.373-0.833,0.833C196.639,390.789,197.012,391.163,197.472,391.163z"/>
	<path d="M227.611,403.927h-19.889c-0.46,0-0.833,0.373-0.833,0.833c0,0.46,0.373,0.833,0.833,0.833h19.889
		c0.46,0,0.833-0.373,0.833-0.833C228.444,404.3,228.071,403.927,227.611,403.927z"/>
	<path d="M227.611,407.038H212.5c-0.46,0-0.833,0.373-0.833,0.833c0,0.46,0.373,0.833,0.833,0.833h15.111
		c0.46,0,0.833-0.373,0.833-0.833C228.444,407.411,228.071,407.038,227.611,407.038z"/>
	<path d="M228.444,410.982c0-0.46-0.373-0.833-0.833-0.833h-23.5c-0.46,0-0.833,0.373-0.833,0.833c0,0.46,0.373,0.833,0.833,0.833
		h23.5C228.071,411.816,228.444,411.443,228.444,410.982z"/>
	<path d="M205.514,383.266c0.163,0.163,0.376,0.244,0.589,0.244c0.213,0,0.427-0.081,0.589-0.244l0.196-0.196l0.196,0.196
		c0.163,0.163,0.376,0.244,0.589,0.244c0.213,0,0.427-0.081,0.589-0.244c0.325-0.325,0.325-0.853,0-1.178l-0.196-0.196l0.196-0.196
		c0.325-0.325,0.325-0.853,0-1.178c-0.325-0.325-0.853-0.325-1.178,0l-0.196,0.196l-0.196-0.196c-0.325-0.325-0.853-0.325-1.178,0
		c-0.325,0.325-0.325,0.853,0,1.178l0.196,0.196l-0.196,0.196C205.189,382.413,205.189,382.941,205.514,383.266z"/>
	<path d="M210.444,382.725h4.667c0.46,0,0.833-0.373,0.833-0.833c0-0.46-0.373-0.833-0.833-0.833h-4.667
		c-0.46,0-0.833,0.373-0.833,0.833C209.611,382.352,209.984,382.725,210.444,382.725z"/>
	<path d="M198.889,382.725h4.667c0.46,0,0.833-0.373,0.833-0.833c0-0.46-0.373-0.833-0.833-0.833h-4.667
		c-0.46,0-0.833,0.373-0.833,0.833C198.056,382.352,198.429,382.725,198.889,382.725z"/>
	<path d="M216.918,397.728c1.312,1.312,3.056,2.034,4.91,2.034s3.599-0.722,4.91-2.034c2.708-2.708,2.708-7.113,0-9.821
		c-1.312-1.312-3.056-2.034-4.91-2.034s-3.599,0.722-4.91,2.034C214.21,390.615,214.21,395.02,216.918,397.728z M225.56,389.085
		c2.058,2.058,2.058,5.406,0,7.464c-0.997,0.997-2.322,1.546-3.732,1.546c-1.41,0-2.735-0.549-3.732-1.546
		c-0.39-0.39-0.706-0.827-0.948-1.293l4.944-1.649c0.22-0.074,0.4-0.236,0.496-0.448c0.096-0.212,0.098-0.454,0.008-0.668
		l-2.034-4.8c0.409-0.1,0.834-0.153,1.266-0.153C223.238,387.539,224.563,388.089,225.56,389.085z M218.096,389.085
		c0.285-0.285,0.598-0.532,0.932-0.742l1.681,3.969l-4.085,1.362C216.359,392.054,216.849,390.333,218.096,389.085z"/>
	<path d="M189.445,406.611h-3c-0.46,0-0.833,0.373-0.833,0.833v3.538c0,0.46,0.373,0.833,0.833,0.833h3
		c0.46,0,0.833-0.373,0.833-0.833v-3.538C190.278,406.984,189.905,406.611,189.445,406.611z M188.611,410.149h-1.333v-1.872h1.333
		V410.149z"/>
	<path d="M191.949,404.466c-0.46,0-0.833,0.373-0.833,0.833v5.683c0,0.46,0.373,0.833,0.833,0.833h3c0.46,0,0.833-0.373,0.833-0.833
		v-5.683c0-0.46-0.373-0.833-0.833-0.833H191.949z M194.116,410.149h-1.333v-4.016h1.333V410.149z"/>
	<path d="M197.454,411.816h3c0.46,0,0.833-0.373,0.833-0.833v-8.291c0-0.46-0.373-0.833-0.833-0.833h-3
		c-0.46,0-0.833,0.373-0.833,0.833v8.291C196.621,411.443,196.994,411.816,197.454,411.816z M198.287,403.524h1.333v6.625h-1.333
		V403.524z"/>
	<path d="M212.556,396.816h-12c-0.46,0-0.833,0.373-0.833,0.833c0,0.46,0.373,0.833,0.833,0.833h12c0.46,0,0.833-0.373,0.833-0.833
		C213.389,397.189,213.016,396.816,212.556,396.816z"/>
	<circle cx="228.278" cy="380.527" r="0.833"/>
	<circle cx="228.278" cy="413.455" r="0.833"/>
	<circle cx="185.723" cy="413.455" r="0.833"/>
	<circle cx="185.723" cy="380.527" r="0.833"/>
</g>
</svg>
