<?xml version="1.0" encoding="iso-8859-1"?>
<!-- Generator: Adobe Illustrator 21.1.0, SVG Export Plug-In . SVG Version: 6.00 Build 0)  -->
<svg version="1.1" id="Capa_1" xmlns="http://www.w3.org/2000/svg" xmlns:xlink="http://www.w3.org/1999/xlink" x="0px" y="0px"
	 viewBox="181.999 375.131 50 43.738" style="enable-background:new 181.999 375.131 50 43.738;" xml:space="preserve">
<g>
	<path d="M212.766,407.321h-2.741c-0.404,0-0.732,0.328-0.732,0.732c0,0.405,0.328,0.732,0.732,0.732h2.741
		c0.404,0,0.732-0.328,0.732-0.732C213.498,407.649,213.17,407.321,212.766,407.321z"/>
	<path d="M228.899,399.48l-3.988-1.538l-2.033-2.034c-0.131-0.131-0.299-0.201-0.471-0.212v-1.618
		c0.958-1.022,1.641-2.316,1.916-3.774c0.171,0.008,0.343-0.006,0.514-0.041c0.975-0.199,1.682-1.104,1.682-2.15v-0.534
		c0-0.605-0.245-1.161-0.645-1.558c0.647-3.518,0.114-6.384-1.547-8.303c-1.607-1.856-4.196-2.743-7.488-2.565
		c-3.041,0.164-5.004,1.563-5.625,2.075c-0.34,0.04-0.92,0.16-1.507,0.512c-0.813,0.488-1.783,1.513-1.783,3.626
		c0,1.843,0.295,3.382,0.508,4.255c-0.715,0.348-1.193,1.103-1.193,1.966v0.526c0,1.046,0.707,1.95,1.682,2.15
		c0.17,0.035,0.343,0.049,0.514,0.041c0.275,1.458,0.958,2.752,1.916,3.774v1.618c-0.172,0.011-0.34,0.082-0.471,0.212l-2.034,2.034
		l-3.988,1.538c-0.345,0.133-0.675,0.306-0.979,0.513c-0.335,0.227-0.421,0.683-0.194,1.017c0.142,0.209,0.372,0.321,0.606,0.321
		c0.142,0,0.285-0.041,0.411-0.127c0.213-0.144,0.443-0.265,0.683-0.358l3.701-1.428l2.83,4.245
		c0.351,0.526,0.913,0.864,1.542,0.926c0.07,0.007,0.14,0.01,0.21,0.01c0.364,0,0.718-0.096,1.031-0.273l-0.607,13.776
		c-0.018,0.404,0.295,0.746,0.7,0.764c0.011,0,0.022,0.001,0.033,0.001c0.39,0,0.714-0.307,0.731-0.7l0.564-12.787h1.521
		l0.564,12.787c0.017,0.393,0.342,0.7,0.731,0.7c0.011,0,0.022,0,0.033-0.001c0.404-0.018,0.717-0.36,0.7-0.764l-0.607-13.776
		c0.313,0.177,0.666,0.273,1.031,0.273c0.07,0,0.14-0.003,0.21-0.01c0.629-0.062,1.192-0.4,1.542-0.926l2.83-4.245l3.701,1.428
		c0.519,0.2,0.966,0.52,1.317,0.918l-2.532,2.532c-0.915,0.915-1.419,2.131-1.419,3.425v10.414c0,0.404,0.328,0.732,0.732,0.732
		s0.732-0.328,0.732-0.732v-10.414c0-0.902,0.351-1.751,0.99-2.389l2.222-2.222c0.089,0.327,0.131,0.672,0.117,1.024l-0.567,13.973
		c-0.016,0.404,0.298,0.745,0.702,0.762c0.01,0,0.02,0.001,0.03,0.001c0.391,0,0.715-0.309,0.731-0.703l0.567-13.973
		C232.078,402.121,230.834,400.226,228.899,399.48z M216.877,400.249l-4.064-3.556v-1.402c1.182,0.751,2.58,1.182,4.064,1.182
		s2.883-0.43,4.064-1.182v1.402L216.877,400.249z M209.383,388.84c-0.056,0.004-0.113,0-0.17-0.012
		c-0.291-0.06-0.511-0.367-0.511-0.715v-0.526c0-0.34,0.227-0.646,0.517-0.697c0.245-0.043,0.479,0.047,0.627,0.24
		c0.134,0.175,0.314,0.301,0.519,0.362c0.3,0.091,0.631,0.037,0.885-0.142c0.458-0.323,0.862-0.718,1.201-1.174
		c0.241-0.325,0.174-0.783-0.151-1.025c-0.325-0.241-0.783-0.174-1.025,0.151c-0.169,0.227-0.36,0.434-0.57,0.616
		c-0.232-0.199-0.504-0.342-0.794-0.424c-0.188-0.721-0.523-2.265-0.523-4.128c0-1.122,0.346-1.91,1.028-2.343
		c0.532-0.338,1.095-0.351,1.095-0.351c0.187,0,0.369-0.074,0.505-0.202c0.018-0.017,1.818-1.688,4.902-1.854
		c2.822-0.152,5.001,0.56,6.301,2.061c1.31,1.513,1.746,3.835,1.273,6.742c-0.196-0.007-0.411,0.008-0.625,0.044l-0.688-1.653
		c-0.14-0.337-0.508-0.519-0.862-0.427c-0.068,0.018-6.832,1.732-9.668-1.798c-0.253-0.315-0.714-0.366-1.03-0.112
		c-0.315,0.253-0.366,0.714-0.112,1.03c2.896,3.606,8.643,2.821,10.556,2.439l0.532,1.278c0.229,0.549,0.814,0.849,1.391,0.713
		c0.237-0.056,0.463-0.057,0.548-0.04c0.296,0.059,0.52,0.354,0.52,0.687v0.534c0,0.348-0.22,0.655-0.511,0.715
		c-0.058,0.012-0.115,0.016-0.17,0.012c-0.703-0.051-1.354,0.459-1.483,1.162c-0.533,2.901-3.061,5.006-6.011,5.006
		c-2.95,0-5.478-2.105-6.011-5.006C210.737,389.299,210.085,388.788,209.383,388.84z M213.601,403.133
		c-0.112-0.011-0.322-0.062-0.468-0.281l-2.851-4.277l1.147-1.147l4.377,3.83l-1.691,1.691
		C213.929,403.135,213.713,403.144,213.601,403.133z M216.181,403.916l0.044-1.007l0.651-0.651l0.651,0.651l0.044,1.007
		L216.181,403.916L216.181,403.916z M220.621,402.852c-0.146,0.219-0.356,0.27-0.468,0.281c-0.112,0.011-0.328,0.002-0.514-0.184
		l-1.691-1.691l4.377-3.83l1.147,1.147L220.621,402.852z"/>
	<path d="M205.226,403.318l-3.576-1.561l-1.955-1.955c-0.131-0.131-0.299-0.201-0.471-0.212v-1.152
		c1.671-1.098,2.893-2.844,3.286-4.925c0.192,0.009,0.387-0.01,0.578-0.055c0.937-0.222,1.617-1.12,1.617-2.136v-0.534
		c0-0.742-0.368-1.409-0.939-1.801c0.168-0.665,0.253-1.345,0.253-2.029c0-3.034-1.64-5.707-4.113-7.242
		c-0.026-2.533-2.188-4.585-4.843-4.585s-4.816,2.053-4.843,4.585c-2.472,1.535-4.113,4.207-4.113,7.242
		c0,0.682,0.085,1.36,0.252,2.023c-0.57,0.39-0.937,1.06-0.937,1.815v0.526c0,1.016,0.68,1.914,1.617,2.136
		c0.191,0.045,0.386,0.064,0.578,0.055c0.393,2.081,1.616,3.827,3.286,4.925v1.152c-0.171,0.011-0.34,0.081-0.471,0.212
		l-1.955,1.955l-3.576,1.561c-1.82,0.794-2.986,2.661-2.902,4.644l0.433,10.204c0.017,0.394,0.341,0.701,0.731,0.701
		c0.01,0,0.021,0,0.032-0.001c0.404-0.017,0.718-0.359,0.701-0.763l-0.433-10.205c-0.028-0.658,0.143-1.296,0.464-1.845l1.922,2.307
		c0.608,0.729,0.942,1.653,0.942,2.602v7.172c0,0.405,0.328,0.732,0.732,0.732s0.732-0.328,0.732-0.732v-7.172
		c0-1.291-0.455-2.548-1.282-3.54l-2.044-2.452c0.174-0.12,0.358-0.226,0.556-0.312l3.117-1.361l2.203,3.575
		c0.217,0.353,0.577,0.592,0.987,0.657c0.074,0.012,0.147,0.017,0.221,0.017c0.335,0,0.661-0.119,0.92-0.339l1.396-1.191v12.117
		c0,0.404,0.328,0.732,0.732,0.732s0.732-0.328,0.732-0.732v-12.117l1.396,1.191c0.259,0.221,0.585,0.339,0.92,0.339
		c0.073,0,0.147-0.006,0.221-0.017c0.41-0.064,0.769-0.304,0.987-0.657l2.203-3.575l3.117,1.361
		c0.197,0.086,0.382,0.192,0.556,0.312l-2.044,2.452c-0.826,0.992-1.282,2.249-1.282,3.54v7.172c0,0.405,0.328,0.732,0.732,0.732
		s0.732-0.328,0.732-0.732v-7.172c0-0.949,0.335-1.873,0.942-2.602l1.922-2.307c0.321,0.549,0.492,1.187,0.464,1.845l-0.433,10.205
		c-0.017,0.404,0.297,0.746,0.701,0.763c0.011,0,0.021,0.001,0.032,0.001c0.39,0,0.715-0.308,0.731-0.701l0.433-10.204
		C208.212,405.979,207.046,404.113,205.226,403.318z M195.066,376.596c1.558,0,2.873,0.994,3.262,2.341
		c-1.011-0.382-2.111-0.592-3.262-0.592s-2.251,0.21-3.262,0.592C192.193,377.59,193.507,376.596,195.066,376.596z M189.055,393.211
		c-0.129-0.703-0.781-1.214-1.483-1.162c-0.062,0.004-0.126-0.001-0.191-0.016c-0.279-0.066-0.49-0.371-0.49-0.71v-0.526
		c0-0.34,0.227-0.646,0.517-0.697c0.245-0.043,0.479,0.047,0.627,0.24c0.134,0.175,0.314,0.301,0.519,0.363
		c0.3,0.091,0.631,0.037,0.885-0.142c0.451-0.318,0.85-0.706,1.185-1.153c0.243-0.323,0.178-0.783-0.146-1.025
		c-0.324-0.243-0.783-0.178-1.025,0.146c-0.166,0.221-0.353,0.422-0.559,0.601c-0.313-0.268-0.698-0.436-1.105-0.487
		c-0.14-0.552-0.212-1.116-0.212-1.683c0-3.941,3.36-7.148,7.49-7.148c4.13,0,7.49,3.206,7.49,7.148c0,0.566-0.071,1.129-0.211,1.68
		c-0.193,0.015-0.389,0.047-0.57,0.094l-0.551-0.453c-0.277-0.228-0.625-0.341-0.977-0.32c-1.077,0.064-6.59,0.209-9.419-3.176
		c-0.259-0.31-0.721-0.352-1.032-0.092c-0.31,0.259-0.352,0.721-0.092,1.032c1.395,1.67,3.441,2.799,6.082,3.356
		c2.022,0.426,3.819,0.385,4.523,0.345l0.859,0.706c0.236,0.194,0.568,0.222,0.833,0.068c0.124-0.068,0.54-0.132,0.722-0.096
		c0.296,0.059,0.519,0.354,0.519,0.688v0.534c0,0.339-0.211,0.644-0.49,0.71c-0.065,0.015-0.129,0.021-0.191,0.016
		c-0.701-0.051-1.354,0.459-1.483,1.162c-0.533,2.901-3.061,5.006-6.011,5.006C192.115,398.217,189.587,396.112,189.055,393.211z
		 M195.066,399.682c0.944,0,1.853-0.175,2.694-0.495v1.515l-2.694,2.694l-2.694-2.694v-1.515
		C193.213,399.507,194.122,399.682,195.066,399.682z M192.029,406.06l-2.203-3.576l1.129-1.129l3.033,3.033L192.029,406.06z
		 M198.103,406.06l-1.959-1.671l3.033-3.033l1.129,1.129L198.103,406.06z"/>
	<path d="M192.325,410.552h-2.056c-0.404,0-0.732,0.328-0.732,0.732c0,0.404,0.328,0.732,0.732,0.732h2.056
		c0.404,0,0.732-0.328,0.732-0.732C193.057,410.879,192.729,410.552,192.325,410.552z"/>
</g>
</svg>
