<?xml version="1.0" encoding="iso-8859-1"?>
<!-- Generator: Adobe Illustrator 21.1.0, SVG Export Plug-In . SVG Version: 6.00 Build 0)  -->
<svg version="1.1" id="Layer_1" xmlns="http://www.w3.org/2000/svg" xmlns:xlink="http://www.w3.org/1999/xlink" x="0px" y="0px"
	 viewBox="171.999 364.819 70 64.363" style="enable-background:new 171.999 364.819 70 64.363;" xml:space="preserve">
<g>
	<path style="fill:#FFD782;" d="M195.654,370.477l-0.004-2.259c-0.002-1.243,1.012-2.261,2.255-2.263l18.073-0.034
		c1.243-0.002,2.261,1.012,2.263,2.255l0.004,2.259l0.021,11.296l0.083,44.053c0.002,1.243-1.012,2.261-2.255,2.263l-18.073,0.034
		c-1.243,0.002-2.261-1.012-2.263-2.255l-0.083-44.053L195.654,370.477z"/>
	<path style="fill:#FF6464;" d="M195.758,425.826c0.002,1.243-1.012,2.261-2.255,2.263l-18.073,0.034
		c-1.243,0.002-2.261-1.012-2.263-2.255l-0.108-57.608c-0.002-1.243,1.012-2.261,2.255-2.263l18.073-0.034
		c1.243-0.002,2.261,1.012,2.263,2.255"/>
	<path style="fill:#C3E678;" d="M218.241,368.175c-0.002-1.243,1.012-2.261,2.255-2.263l18.073-0.034
		c1.243-0.002,2.261,1.012,2.263,2.255l0.108,57.608c0.002,1.243-1.012,2.261-2.255,2.263l-18.073,0.034
		c-1.243,0.002-2.261-1.012-2.263-2.255"/>
	<g>
		<path style="fill:#EFF2FA;" d="M213.78,398.682c0.001,0.621-0.506,1.131-1.127,1.132l-11.296,0.021
			c-0.621,0.001-1.131-0.506-1.132-1.127l-0.042-22.591c-0.001-0.621,0.506-1.131,1.127-1.132l11.296-0.021
			c0.621-0.001,1.131,0.506,1.132,1.127L213.78,398.682z"/>
		<path style="fill:#EFF2FA;" d="M191.189,398.725c0.001,0.621-0.506,1.131-1.127,1.132l-11.296,0.021
			c-0.621,0.001-1.131-0.506-1.132-1.127l-0.042-22.591c-0.001-0.621,0.506-1.131,1.127-1.132l11.296-0.021
			c0.621-0.001,1.131,0.506,1.132,1.127L191.189,398.725z"/>
		<path style="fill:#EFF2FA;" d="M236.371,398.64c0.001,0.621-0.506,1.131-1.127,1.132l-11.296,0.021
			c-0.621,0.001-1.131-0.506-1.132-1.127l-0.042-22.591c-0.001-0.621,0.506-1.131,1.127-1.132l11.296-0.021
			c0.621-0.001,1.131,0.506,1.132,1.127L236.371,398.64z"/>
	</g>
	<g>
		<rect x="222.795" y="396.448" style="fill:#C7CFE2;" width="13.555" height="3.389"/>
		<rect x="200.203" y="396.448" style="fill:#C7CFE2;" width="13.555" height="3.389"/>
		<rect x="177.613" y="396.448" style="fill:#C7CFE2;" width="13.555" height="3.389"/>
		<rect x="222.795" y="374.845" style="fill:#C7CFE2;" width="13.555" height="8.048"/>
		<rect x="200.203" y="374.845" style="fill:#C7CFE2;" width="13.555" height="8.048"/>
		<rect x="177.613" y="374.845" style="fill:#C7CFE2;" width="13.555" height="8.048"/>
	</g>
	<g>
		<path style="fill:#464655;" d="M188.115,413.96c2.849,4.583-1.972,9.404-6.555,6.555c-0.371-0.23-0.685-0.545-0.916-0.916
			c-2.849-4.583,1.972-9.404,6.555-6.555C187.57,413.275,187.885,413.589,188.115,413.96z"/>
		<path style="fill:#464655;" d="M210.777,413.96c2.849,4.583-1.972,9.404-6.555,6.555c-0.371-0.23-0.685-0.545-0.916-0.916
			c-2.849-4.583,1.972-9.404,6.555-6.555C210.232,413.275,210.547,413.589,210.777,413.96z"/>
		<path style="fill:#464655;" d="M233.51,413.96c2.849,4.583-1.972,9.404-6.555,6.555c-0.371-0.23-0.685-0.545-0.916-0.916
			c-2.849-4.583,1.972-9.404,6.555-6.555C232.965,413.275,233.279,413.589,233.51,413.96z"/>
	</g>
	<path d="M195.663,373.936c-0.001,0-0.001,0-0.002,0c-0.585,0.001-1.058,0.476-1.057,1.061l0.004,2.259
		c0.001,0.584,0.475,1.057,1.059,1.057c0.001,0,0.001,0,0.002,0c0.585-0.001,1.058-0.476,1.057-1.061l-0.004-2.259
		C196.72,374.409,196.247,373.936,195.663,373.936z"/>
	<path d="M218.254,373.893c-0.001,0-0.001,0-0.002,0c-0.585,0.001-1.058,0.476-1.057,1.061l0.004,2.259
		c0.001,0.584,0.475,1.057,1.059,1.057c0.001,0,0.001,0,0.002,0c0.585-0.001,1.058-0.476,1.057-1.061l-0.004-2.259
		C219.312,374.366,218.838,373.893,218.254,373.893z"/>
	<path d="M241.891,368.131c-0.003-1.828-1.491-3.312-3.318-3.312c-0.002,0-0.004,0-0.006,0l-18.073,0.034
		c-0.846,0.002-1.643,0.32-2.26,0.899c-0.618-0.574-1.413-0.886-2.259-0.89l-18.073,0.034c-0.845,0.002-1.641,0.32-2.257,0.897
		c-0.617-0.574-1.412-0.888-2.254-0.888c-0.002,0-0.004,0-0.006,0l-18.073,0.034c-0.884,0.002-1.716,0.349-2.342,0.978
		c-0.627,0.629-0.971,1.462-0.969,2.346l0.108,57.608c0.003,1.828,1.491,3.312,3.318,3.312c0.002,0,0.004,0,0.006,0l18.073-0.034
		c0.845-0.002,1.641-0.32,2.257-0.897c0.617,0.574,1.412,0.888,2.254,0.888c0.002,0,0.004,0,0.006,0l18.073-0.034
		c0.844-0.002,1.641-0.319,2.256-0.896c0.593,0.55,1.385,0.888,2.255,0.888c0.002,0,0.004,0,0.006,0l18.073-0.034
		c1.83-0.003,3.315-1.495,3.312-3.324L241.891,368.131z M238.684,426.945l-18.073,0.034c-0.001,0-0.002,0-0.002,0
		c-0.661,0-1.199-0.537-1.2-1.198l-0.083-44.053c-0.001-0.584-0.475-1.057-1.059-1.057c-0.001,0-0.001,0-0.002,0
		c-0.585,0.001-1.058,0.476-1.057,1.061l0.083,44.053c0.001,0.318-0.124,0.619-0.352,0.847c-0.227,0.228-0.528,0.354-0.846,0.355
		l-18.073,0.034c-0.001,0-0.002,0-0.002,0c-0.317,0-0.617-0.125-0.845-0.352c-0.228-0.227-0.354-0.528-0.355-0.846l-0.083-44.053
		c-0.001-0.584-0.475-1.057-1.059-1.057c-0.001,0-0.001,0-0.002,0c-0.585,0.001-1.058,0.476-1.057,1.061l0.083,44.053
		c0.001,0.318-0.124,0.619-0.352,0.847s-0.528,0.354-0.846,0.355l-18.073,0.034c-0.001,0-0.002,0-0.002,0
		c-0.661,0-1.199-0.537-1.2-1.198l-0.108-57.608c-0.001-0.318,0.124-0.619,0.352-0.847c0.227-0.228,0.528-0.354,0.846-0.355
		l18.073-0.034c0.001,0,0.002,0,0.002,0c0.661,0,1.199,0.537,1.2,1.198l0.004,2.259c0.001,0.584,0.475,1.057,1.059,1.057
		c0.001,0,0.001,0,0.002,0c0.585-0.001,1.058-0.476,1.057-1.061l-0.004-2.259c-0.001-0.318,0.124-0.619,0.352-0.847
		c0.227-0.228,0.528-0.354,0.846-0.355l18.073-0.034c0.001,0,0.002,0,0.002,0c0.317,0,0.617,0.125,0.845,0.352
		c0.228,0.227,0.354,0.528,0.355,0.846l0.004,2.259c0.001,0.584,0.475,1.057,1.059,1.057c0.001,0,0.001,0,0.002,0
		c0.585-0.001,1.058-0.476,1.057-1.061l-0.004-2.26c-0.001-0.318,0.124-0.619,0.352-0.847c0.227-0.228,0.528-0.354,0.846-0.355
		l18.073-0.034c0.001,0,0.002,0,0.002,0c0.661,0,1.199,0.537,1.2,1.198l0.108,57.608
		C239.883,426.404,239.346,426.944,238.684,426.945z"/>
	<path d="M211.144,414.604c-0.566,0.147-0.906,0.725-0.759,1.291c0.073,0.281,0.11,0.572,0.111,0.866
		c0.002,0.924-0.356,1.793-1.009,2.448c-0.652,0.655-1.52,1.016-2.444,1.018c-0.002,0-0.004,0-0.007,0
		c-0.921,0-1.788-0.358-2.441-1.009c-0.655-0.652-1.016-1.52-1.018-2.444s0.356-1.793,1.009-2.448
		c0.652-0.655,1.52-1.016,2.444-1.018c0.297,0.001,0.586,0.036,0.868,0.108c0.567,0.145,1.144-0.197,1.289-0.763
		c0.145-0.567-0.197-1.144-0.763-1.289c-0.455-0.116-0.928-0.177-1.398-0.174c-1.49,0.003-2.889,0.586-3.941,1.641
		c-1.051,1.055-1.629,2.457-1.626,3.947c0.003,1.49,0.586,2.889,1.641,3.941c1.053,1.049,2.45,1.626,3.936,1.626
		c0.004,0,0.007,0,0.011,0c1.49-0.003,2.889-0.586,3.941-1.641c1.051-1.055,1.629-2.457,1.626-3.947
		c-0.001-0.472-0.061-0.941-0.179-1.395C212.288,414.797,211.71,414.457,211.144,414.604z"/>
	<path d="M188.553,414.646c-0.566,0.147-0.906,0.725-0.759,1.291c0.073,0.281,0.11,0.572,0.111,0.866
		c0.002,0.924-0.356,1.793-1.009,2.448c-0.652,0.655-1.52,1.016-2.444,1.018c-0.002,0-0.004,0-0.007,0
		c-1.904,0-3.456-1.548-3.459-3.453c-0.004-1.907,1.545-3.462,3.453-3.466c0.292,0.003,0.586,0.036,0.868,0.108
		c0.567,0.145,1.144-0.197,1.289-0.763c0.145-0.567-0.197-1.144-0.763-1.289c-0.455-0.116-0.922-0.169-1.398-0.174
		c-3.075,0.006-5.572,2.512-5.567,5.588c0.006,3.072,2.506,5.567,5.577,5.567c0.003,0,0.007,0,0.011,0
		c1.49-0.003,2.889-0.586,3.941-1.641c1.051-1.055,1.629-2.457,1.626-3.947c-0.001-0.472-0.061-0.941-0.179-1.395
		C189.697,414.839,189.119,414.5,188.553,414.646z"/>
	<path d="M233.735,414.562c-0.566,0.147-0.906,0.725-0.759,1.291c0.073,0.281,0.11,0.573,0.111,0.866
		c0.004,1.907-1.545,3.462-3.453,3.466c-0.002,0-0.004,0-0.007,0c-0.921,0-1.788-0.358-2.441-1.009
		c-0.655-0.652-1.016-1.52-1.018-2.444c-0.004-1.907,1.545-3.462,3.453-3.466c0.295-0.001,0.586,0.036,0.868,0.108
		c0.567,0.145,1.144-0.197,1.289-0.763c0.145-0.567-0.197-1.144-0.763-1.289c-0.455-0.117-0.932-0.175-1.398-0.174
		c-3.075,0.006-5.572,2.512-5.567,5.588c0.006,3.072,2.506,5.567,5.577,5.567c0.003,0,0.007,0,0.011,0
		c3.075-0.006,5.572-2.512,5.567-5.588c-0.001-0.472-0.061-0.941-0.179-1.395C234.88,414.754,234.301,414.415,233.735,414.562z"/>
	<path d="M212.604,373.904l-11.296,0.021c-1.207,0.002-2.187,0.986-2.184,2.193l0.042,22.591c0.002,1.205,0.984,2.184,2.189,2.184
		c0.001,0,0.003,0,0.004,0l11.296-0.021c0.583-0.001,1.132-0.23,1.545-0.645c0.413-0.415,0.64-0.965,0.639-1.548l-0.042-22.591
		C214.794,374.884,213.813,373.904,212.604,373.904z M212.7,398.733c-0.014,0.014-0.031,0.022-0.049,0.022l-11.296,0.021v1.059
		l0-1.024v-0.035c-0.036,0-0.071-0.034-0.071-0.07l-0.042-22.591c0-0.036,0.034-0.071,0.07-0.071l11.296-0.021
		c0.036,0,0.071,0.034,0.071,0.07l0.043,22.591C212.721,398.702,212.714,398.719,212.7,398.733z"/>
	<path d="M204.71,381.685c0.001,0,0.001,0,0.002,0l4.518-0.008c0.585-0.001,1.058-0.476,1.057-1.061
		c-0.001-0.584-0.475-1.057-1.059-1.057c-0.001,0-0.001,0-0.002,0l-4.518,0.008c-0.585,0.001-1.058,0.476-1.057,1.061
		C203.652,381.212,204.126,381.685,204.71,381.685z"/>
	<path d="M204.718,386.203c0.001,0,0.001,0,0.002,0l4.518-0.008c0.585-0.001,1.058-0.476,1.057-1.061
		c-0.001-0.584-0.475-1.057-1.059-1.057c-0.001,0-0.001,0-0.002,0l-4.518,0.008c-0.585,0.001-1.058,0.476-1.057,1.061
		C203.66,385.73,204.134,386.203,204.718,386.203z"/>
	<path d="M204.727,390.721c0.001,0,0.001,0,0.002,0l4.518-0.008c0.585-0.001,1.058-0.476,1.057-1.061
		c-0.001-0.584-0.475-1.057-1.059-1.057c-0.001,0-0.001,0-0.002,0l-4.518,0.008c-0.585,0.001-1.058,0.476-1.057,1.061
		C203.669,390.249,204.143,390.721,204.727,390.721z"/>
	<path d="M209.253,393.113c-0.001,0-0.001,0-0.002,0l-4.518,0.008c-0.585,0.001-1.058,0.476-1.057,1.061
		c0.001,0.584,0.475,1.057,1.059,1.057c0.001,0,0.001,0,0.002,0l4.518-0.008c0.585-0.001,1.058-0.476,1.057-1.061
		C210.311,393.586,209.837,393.113,209.253,393.113z"/>
	<path d="M190.013,373.947l-11.296,0.021c-1.207,0.002-2.187,0.986-2.184,2.193l0.043,22.591c0.002,1.205,0.984,2.184,2.189,2.184
		c0.001,0,0.003,0,0.004,0l11.296-0.021c0.583-0.001,1.132-0.23,1.545-0.645c0.413-0.415,0.64-0.965,0.639-1.548l-0.042-22.591
		C192.203,374.927,191.221,373.947,190.013,373.947z M190.108,398.776c-0.014,0.014-0.031,0.022-0.049,0.022l-11.296,0.021v1.059
		l0-1.024v-0.035c-0.036,0-0.071-0.034-0.071-0.07l-0.043-22.591c0-0.036,0.034-0.071,0.07-0.071l11.296-0.021
		c0.036,0,0.071,0.034,0.071,0.07l0.042,22.591C190.13,398.745,190.123,398.761,190.108,398.776z"/>
	<path d="M182.118,381.727c0.001,0,0.001,0,0.002,0l4.518-0.008c0.585-0.001,1.058-0.476,1.057-1.061
		c-0.001-0.584-0.475-1.057-1.059-1.057c-0.001,0-0.001,0-0.002,0l-4.518,0.008c-0.585,0.001-1.058,0.476-1.057,1.061
		C181.06,381.255,181.534,381.727,182.118,381.727z"/>
	<path d="M182.127,386.246c0.001,0,0.001,0,0.002,0l4.518-0.008c0.585-0.001,1.058-0.476,1.057-1.061
		c-0.001-0.584-0.475-1.057-1.059-1.057c-0.001,0-0.001,0-0.002,0l-4.518,0.008c-0.585,0.001-1.058,0.476-1.057,1.061
		C181.069,385.773,181.543,386.246,182.127,386.246z"/>
	<path d="M186.654,388.638c-0.001,0-0.001,0-0.002,0l-4.518,0.008c-0.585,0.001-1.058,0.476-1.057,1.061
		c0.001,0.584,0.475,1.057,1.059,1.057c0.001,0,0.001,0,0.002,0l4.518-0.008c0.585-0.001,1.058-0.476,1.057-1.061
		C187.711,389.11,187.238,388.638,186.654,388.638z"/>
	<path d="M235.195,373.862l-11.296,0.021c-1.207,0.002-2.187,0.986-2.184,2.193l0.042,22.591c0.002,1.205,0.984,2.184,2.189,2.184
		c0.001,0,0.003,0,0.004,0l11.296-0.021c0.583-0.001,1.132-0.23,1.546-0.645c0.413-0.415,0.64-0.964,0.639-1.548l-0.042-22.591
		C237.386,374.842,236.404,373.862,235.195,373.862z M235.291,398.691c-0.014,0.014-0.031,0.022-0.049,0.022l-11.296,0.021v1.059
		l0-1.024v-0.035c-0.036,0-0.071-0.034-0.071-0.07l-0.042-22.591c0-0.036,0.034-0.071,0.07-0.071l11.296-0.021
		c0.036,0,0.071,0.034,0.071,0.07l0.042,22.591C235.312,398.66,235.305,398.676,235.291,398.691z"/>
	<path d="M227.301,381.643c0.001,0,0.001,0,0.002,0l4.518-0.009c0.585-0.001,1.058-0.476,1.057-1.061
		c-0.001-0.584-0.475-1.057-1.059-1.057c-0.001,0-0.001,0-0.002,0l-4.518,0.009c-0.585,0.001-1.058,0.476-1.057,1.061
		C226.243,381.17,226.717,381.643,227.301,381.643z"/>
	<path d="M231.828,384.034c-0.001,0-0.001,0-0.002,0l-4.518,0.008c-0.585,0.001-1.058,0.476-1.057,1.061
		c0.001,0.584,0.475,1.057,1.059,1.057c0.001,0,0.001,0,0.002,0l4.518-0.008c0.585-0.001,1.058-0.476,1.057-1.061
		C232.886,384.507,232.412,384.034,231.828,384.034z"/>
</g>
</svg>
