<?xml version="1.0" encoding="iso-8859-1"?>
<!-- Generator: Adobe Illustrator 21.1.0, SVG Export Plug-In . SVG Version: 6.00 Build 0)  -->
<svg version="1.1" id="&#x421;&#x43B;&#x43E;&#x439;_1"
	 xmlns="http://www.w3.org/2000/svg" xmlns:xlink="http://www.w3.org/1999/xlink" x="0px" y="0px" viewBox="0 0 49.883 50"
	 style="enable-background:new 0 0 49.883 50;" xml:space="preserve">
<g>
	<path d="M28.335,23.677c0.147,0.287,0.44,0.453,0.742,0.453c0.126,0,0.256-0.029,0.376-0.091c0.049-0.025,4.939-2.508,7.35-3.27
		c0.437-0.139,0.68-0.606,0.541-1.042c-0.138-0.437-0.601-0.681-1.043-0.542c-2.54,0.803-7.397,3.27-7.603,3.375
		C28.29,22.767,28.127,23.267,28.335,23.677L28.335,23.677z M28.335,23.677"/>
	<g>
		<defs>
			<rect id="SVGID_1_" width="49.883" height="50"/>
		</defs>
		<clipPath id="SVGID_2_">
			<use xlink:href="#SVGID_1_"  style="overflow:visible;"/>
		</clipPath>
		<path style="clip-path:url(#SVGID_2_);" d="M29.077,14.162c0.126,0,0.256-0.03,0.376-0.091c0.049-0.025,4.939-2.509,7.35-3.27
			c0.437-0.139,0.68-0.606,0.541-1.043c-0.138-0.437-0.601-0.68-1.043-0.542c-2.54,0.803-7.397,3.271-7.603,3.375
			c-0.409,0.208-0.572,0.708-0.364,1.117C28.482,13.995,28.774,14.162,29.077,14.162L29.077,14.162z M29.077,14.162"/>
		<path style="clip-path:url(#SVGID_2_);" d="M49.013,12.5c-0.459,0-0.831,0.372-0.831,0.831v32.399
			c0,1.374-1.118,2.492-2.492,2.492H25.753V46.31c1.211-0.423,4.366-1.411,7.476-1.411c7.237,0,12.151,1.602,12.199,1.619
			c0.25,0.083,0.529,0.041,0.748-0.115c0.217-0.156,0.345-0.407,0.345-0.674V9.177c0-0.39-0.27-0.727-0.65-0.811
			c0,0-0.651-0.146-1.765-0.35c-0.45-0.083-0.884,0.216-0.967,0.666c-0.083,0.452,0.215,0.885,0.667,0.968
			c0.424,0.078,0.78,0.147,1.054,0.202v34.773c-1.882-0.494-6.063-1.388-11.631-1.388c-3.619,0-7.175,1.189-8.275,1.592
			c-0.978-0.432-3.934-1.592-7.509-1.592c-5.722,0-10.436,0.944-12.461,1.423V9.82c1.659-0.408,6.558-1.474,12.461-1.474
			c3.029,0,5.627,0.943,6.646,1.369v32.691c0,0.299,0.161,0.576,0.421,0.722c0.26,0.148,0.581,0.144,0.837-0.011
			c0.082-0.049,8.313-4.965,15.619-7.4c0.34-0.114,0.568-0.431,0.568-0.789V0.869c0-0.272-0.134-0.527-0.358-0.683
			c-0.223-0.156-0.509-0.191-0.765-0.096c-6.646,2.493-13.372,6.678-13.44,6.72c-0.389,0.243-0.507,0.756-0.264,1.145
			c0.242,0.389,0.755,0.508,1.145,0.264c0.061-0.039,5.912-3.68,12.021-6.136v32.251c-5.671,1.97-11.591,5.188-14.123,6.628V9.177
			c0-0.315-0.178-0.602-0.459-0.744c-0.143-0.071-3.548-1.749-7.848-1.749c-7.507,0-13.277,1.624-13.52,1.694
			C3.569,8.48,3.323,8.806,3.323,9.177v36.552c0,0.26,0.123,0.506,0.33,0.663c0.146,0.111,0.322,0.168,0.501,0.168
			c0.077,0,0.153-0.011,0.228-0.032c0.057-0.016,5.802-1.629,13.064-1.629c3.037,0,5.633,0.946,6.646,1.37v1.953H4.154
			c-1.374,0-2.492-1.118-2.492-2.492V13.331c0-0.459-0.372-0.831-0.83-0.831C0.372,12.5,0,12.872,0,13.331v32.399
			c0,2.291,1.863,4.154,4.154,4.154h41.537c2.29,0,4.154-1.863,4.154-4.154V13.331C49.844,12.872,49.473,12.5,49.013,12.5
			L49.013,12.5z M49.013,12.5"/>
	</g>
	<path d="M28.335,18.692c0.147,0.288,0.44,0.454,0.742,0.454c0.126,0,0.256-0.029,0.376-0.09c0.049-0.025,4.939-2.509,7.35-3.271
		c0.437-0.139,0.68-0.606,0.541-1.042c-0.138-0.437-0.601-0.68-1.043-0.542c-2.54,0.803-7.397,3.27-7.603,3.375
		C28.29,17.782,28.127,18.283,28.335,18.692L28.335,18.692z M28.335,18.692"/>
	<path d="M28.335,28.661c0.147,0.288,0.44,0.454,0.742,0.454c0.126,0,0.256-0.029,0.376-0.091c0.049-0.025,4.939-2.509,7.35-3.27
		c0.437-0.139,0.68-0.606,0.541-1.042c-0.138-0.437-0.601-0.681-1.043-0.543c-2.54,0.803-7.397,3.271-7.603,3.375
		C28.29,27.751,28.127,28.252,28.335,28.661L28.335,28.661z M28.335,28.661"/>
	<path d="M20.127,15.455c-5.13-1.204-10.959,0.33-11.204,0.395c-0.442,0.119-0.706,0.574-0.587,1.018
		c0.1,0.371,0.435,0.616,0.801,0.616c0.072,0,0.144-0.009,0.216-0.028c0.056-0.016,5.668-1.492,10.395-0.383
		c0.445,0.104,0.894-0.173,0.999-0.62C20.852,16.007,20.574,15.561,20.127,15.455L20.127,15.455z M20.127,15.455"/>
	<path d="M20.127,20.44c-5.13-1.203-10.959,0.33-11.204,0.395c-0.442,0.119-0.706,0.574-0.587,1.018
		c0.1,0.371,0.435,0.616,0.801,0.616c0.072,0,0.144-0.009,0.216-0.028c0.056-0.016,5.668-1.492,10.395-0.383
		c0.445,0.104,0.894-0.173,0.999-0.62C20.852,20.992,20.574,20.545,20.127,20.44L20.127,20.44z M20.127,20.44"/>
	<path d="M28.335,33.645c0.147,0.288,0.44,0.453,0.742,0.453c0.126,0,0.256-0.029,0.376-0.09c0.049-0.025,4.939-2.509,7.35-3.271
		c0.437-0.138,0.68-0.606,0.541-1.042c-0.138-0.437-0.601-0.68-1.043-0.542c-2.54,0.803-7.397,3.271-7.603,3.375
		C28.29,32.736,28.127,33.236,28.335,33.645L28.335,33.645z M28.335,33.645"/>
	<path d="M20.127,25.425c-5.13-1.203-10.959,0.329-11.204,0.395c-0.442,0.119-0.706,0.574-0.587,1.018
		c0.1,0.371,0.435,0.616,0.801,0.616c0.072,0,0.144-0.01,0.216-0.029c0.056-0.016,5.668-1.492,10.395-0.383
		c0.445,0.104,0.894-0.173,0.999-0.619C20.852,25.976,20.574,25.529,20.127,25.425L20.127,25.425z M20.127,25.425"/>
	<path d="M20.127,35.393c-5.13-1.204-10.959,0.33-11.204,0.395c-0.442,0.119-0.706,0.574-0.587,1.018
		c0.1,0.371,0.435,0.617,0.801,0.617c0.072,0,0.144-0.01,0.216-0.029c0.056-0.016,5.668-1.492,10.395-0.383
		c0.445,0.103,0.894-0.173,0.999-0.62C20.852,35.945,20.574,35.498,20.127,35.393L20.127,35.393z M20.127,35.393"/>
	<path d="M20.127,30.409c-5.13-1.204-10.959,0.329-11.204,0.395c-0.442,0.118-0.706,0.574-0.587,1.017
		c0.1,0.371,0.435,0.616,0.801,0.616c0.072,0,0.144-0.01,0.216-0.029c0.056-0.016,5.668-1.492,10.395-0.383
		c0.445,0.104,0.894-0.173,0.999-0.62C20.852,30.961,20.574,30.514,20.127,30.409L20.127,30.409z M20.127,30.409"/>
</g>
</svg>
