<?xml version="1.0" encoding="utf-8"?>
<!-- Generator: Adobe Illustrator 21.1.0, SVG Export Plug-In . SVG Version: 6.00 Build 0)  -->
<svg version="1.1" id="Слой_1" xmlns="http://www.w3.org/2000/svg" xmlns:xlink="http://www.w3.org/1999/xlink" x="0px" y="0px"
	 viewBox="0 0 50 58.3" style="enable-background:new 0 0 50 58.3;" xml:space="preserve">
<g>
	<g>
		<path d="M25,58.3c-10.4,0-18.8-8.4-18.8-18.8v-0.3H5.8c-3.2,0-5.8-2.6-5.8-5.8v-2.7C0,27.6,2.6,25,5.8,25h0.4v-8.5
			c0-3.3,1.5-6.4,4.1-8.4c-0.1-0.4-0.1-0.9-0.1-1.4c0-1.2,0.6-2.4,1.7-3.3c0,0,0,0,0,0l0.6-0.5c0,0,0,0,0.1,0
			c0.1-0.1,0.2-0.1,0.3-0.2c0.6-0.4,1.5-0.9,3-1.4c2.1-0.7,4.3-1.1,6.7-1.2C32.1-0.5,40.4,2.3,43,6.8c0,0,0,0,0,0
			c0.3,0.5,0.6,0.9,0.8,1.4c2.1,4.5,0.4,9.3,0,10.2V25h0.4c3.2,0,5.8,2.6,5.8,5.8v2.7c0,3.2-2.6,5.8-5.8,5.8h-0.4v0.3
			C43.8,49.8,35.3,58.3,25,58.3L25,58.3z M7.6,38.5v1c0,9.6,7.8,17.4,17.4,17.4c9.6,0,17.4-7.8,17.4-17.4v-5.8h-1.2
			c-0.2,0-0.4-0.1-0.5-0.2c-0.1-0.1-0.2-0.3-0.2-0.5c0-0.1,0.1-8-0.5-10.5c-0.6-2.2-2.1-3.1-2.2-3.1c-0.2-0.1-0.3-0.2-0.3-0.4
			c0-0.2,0-0.4,0.1-0.5c0,0,0.9-1.6,1-3.2c0-0.2-1-0.8-2.3-1.2c-1.5-0.3-2.6-0.3-2.7-0.3c0,0,0,0,0,0H19.1c-2.1,0-3.9-0.4-5.3-1.1
			c-0.2-0.1-0.5-0.2-0.7-0.4c-0.6,0.7-1.6,2-1.6,3c0,1.5,1,3.1,1,3.1c0.1,0.2,0.1,0.4,0.1,0.5c0,0.2-0.2,0.3-0.3,0.4
			c-0.1,0-1.7,0.9-2.2,3.1c-0.6,2.5-0.5,10.4-0.5,10.5c0,0.2-0.1,0.4-0.2,0.5c-0.1,0.1-0.3,0.2-0.5,0.2H7.6V38.5z M43.8,37.8h0.4
			c2.4,0,4.4-2,4.4-4.4v-2.7c0-2.4-2-4.4-4.4-4.4h-0.4V37.8z M5.8,26.4c-2.4,0-4.4,2-4.4,4.4v2.7c0,2.4,2,4.4,4.4,4.4h0.4V26.4H5.8z
			 M41.9,32.3h0.5V18.4c-0.6-1.3-1.5-2.3-2.6-2.9c-0.1,1.2-0.6,2.4-0.9,3c0.7,0.5,1.8,1.7,2.3,3.6C41.8,24.3,41.9,30.2,41.9,32.3
			L41.9,32.3z M7.6,32.3h0.5c0-2,0-7.9,0.6-10.1c0.5-1.9,1.6-3.1,2.3-3.6c-0.4-0.7-0.9-2-0.9-3.3c0-1.5,1.2-3,1.9-3.9
			c-0.5-0.5-1-1.2-1.3-1.9c-2,1.8-3.1,4.3-3.1,7V32.3z M33.6,12.3c0.9,0,6.5,0.2,9.3,4.2c0.1-0.4,0.2-0.8,0.3-1.3
			c-0.8-0.8-3.7-3.4-8.1-4.2c-3-0.6-6.6-0.4-10.1-0.1c-2.6,0.2-5.3,0.3-7.6,0.1c-2.3-0.2-3.9-0.8-5-1.4c0.5,0.8,1.2,1.4,2,1.8
			c1.3,0.6,2.8,0.9,4.7,0.9h14.4C33.5,12.3,33.5,12.3,33.6,12.3L33.6,12.3z M30.5,9.3c1.7,0,3.3,0.1,4.9,0.4c3.8,0.7,6.6,2.7,8,3.9
			c0-0.6,0-1.2-0.1-1.9c-1.9-1.9-5.3-3.3-9.9-3.9c-2.4-0.3-5.2,0-8.1,0.4c-2.9,0.4-6,0.8-8.7,0.5c-3-0.4-4.4-1.5-5-2.5
			c0,0.2-0.1,0.4-0.1,0.5c0,0.1,0,0.1,0,0.2c0.2,0.4,1.5,2.5,5.9,2.8c2.3,0.2,4.8,0,7.4-0.1C26.7,9.4,28.6,9.3,30.5,9.3L30.5,9.3z
			 M31.4,6.2c0.7,0,1.5,0,2.2,0.1c3.9,0.5,7,1.6,9.2,3c-0.1-0.2-0.2-0.4-0.3-0.6c-0.2-0.4-0.4-0.8-0.7-1.3c0,0,0,0,0,0
			c-2.3-4-10.3-6.5-19-6c-2.3,0.1-4.4,0.5-6.4,1.2c0,0,0,0,0,0C15,3,14.2,3.5,13.6,3.8c-0.1,0.1-0.3,0.1-0.4,0.2l-0.6,0.4
			c-0.1,0.1-0.2,0.1-0.2,0.2c0.1,0.5,0.7,2.1,4.4,2.6c2.5,0.3,5.5-0.1,8.3-0.5C27.2,6.5,29.4,6.2,31.4,6.2L31.4,6.2z M34.9,47.1
			c-0.2,0-0.4-0.1-0.5-0.2l-1.8-1.8c-0.3-0.3-0.7-0.5-1.1-0.5c-0.4,0-0.8,0.2-1.1,0.5l-0.1,0.1c-0.6,0.6-1.3,0.9-2.1,0.9
			c-0.8,0-1.5-0.3-2.1-0.9l0-0.1c-0.3-0.3-0.7-0.5-1.1-0.5c-0.4,0-0.8,0.2-1.1,0.5c-0.6,0.6-1.3,0.9-2.1,0.9c-0.8,0-1.5-0.3-2.1-0.9
			c-0.3-0.3-0.7-0.5-1.1-0.5c-0.4,0-0.8,0.2-1.1,0.5l-1.6,1.6c-0.3,0.3-0.7,0.3-1,0c-0.3-0.3-0.3-0.7,0-1l1.6-1.6
			c0.6-0.6,1.3-0.9,2.1-0.9c0.8,0,1.5,0.3,2.1,0.9c0.3,0.3,0.7,0.5,1.1,0.5c0.4,0,0.8-0.2,1.1-0.5c0.6-0.6,1.3-0.9,2.1-0.9
			c0.8,0,1.5,0.3,2.1,0.9l0,0.1c0.3,0.3,0.7,0.5,1.1,0.5c0.4,0,0.8-0.2,1.1-0.5l0.1-0.1c0.6-0.6,1.3-0.9,2.1-0.9
			c0.8,0,1.5,0.3,2.1,0.9l1.8,1.8c0.3,0.3,0.3,0.7,0,1C35.2,47.1,35.1,47.1,34.9,47.1L34.9,47.1z M31.8,35.5c-2.7,0-4.9-2.2-4.9-4.9
			c0-2.7,2.2-4.9,4.9-4.9s4.9,2.2,4.9,4.9C36.7,33.3,34.5,35.5,31.8,35.5L31.8,35.5z M31.8,27.1c-1.9,0-3.5,1.6-3.5,3.5
			c0,1.9,1.6,3.5,3.5,3.5s3.5-1.6,3.5-3.5C35.3,28.7,33.7,27.1,31.8,27.1L31.8,27.1z M22,33.3h-7.4c-0.3,0-0.5-0.1-0.6-0.4
			c-0.4-0.7-0.6-1.5-0.6-2.3c0-2.7,2.2-4.9,4.9-4.9c2.7,0,4.9,2.2,4.9,4.9c0,0.8-0.2,1.6-0.6,2.3C22.4,33.2,22.2,33.3,22,33.3
			L22,33.3z M15,32h6.5c0.2-0.4,0.3-0.9,0.3-1.3c0-1.9-1.6-3.5-3.5-3.5c-1.9,0-3.5,1.6-3.5,3.5C14.7,31.1,14.8,31.5,15,32L15,32z
			 M31.8,31.4c-0.4,0-0.7-0.3-0.7-0.7v-0.1c0-0.4,0.3-0.7,0.7-0.7c0.4,0,0.7,0.3,0.7,0.7v0.1C32.5,31.1,32.2,31.4,31.8,31.4
			L31.8,31.4z M18.3,31.4c-0.4,0-0.7-0.3-0.7-0.7v-0.1c0-0.4,0.3-0.7,0.7-0.7c0.4,0,0.7,0.3,0.7,0.7v0.1
			C18.9,31.1,18.6,31.4,18.3,31.4L18.3,31.4z M15.5,24.5c-0.3,0-0.6-0.2-0.7-0.5c-0.1-0.4,0.1-0.7,0.5-0.8l5.6-1.3
			c0.4-0.1,0.7,0.1,0.8,0.5c0.1,0.4-0.1,0.7-0.5,0.8l-5.6,1.3C15.6,24.5,15.5,24.5,15.5,24.5L15.5,24.5z M34.2,22.6
			c-0.1,0-0.2,0-0.4-0.1l-4.9-3c-0.3-0.2-0.4-0.6-0.2-0.9c0.2-0.3,0.6-0.4,0.9-0.2l4.9,3c0.3,0.2,0.4,0.6,0.2,0.9
			C34.7,22.4,34.5,22.6,34.2,22.6L34.2,22.6z M34.2,22.6"/>
	</g>
</g>
</svg>
