<?xml version="1.0" encoding="utf-8"?>
<!-- Generator: Adobe Illustrator 21.1.0, SVG Export Plug-In . SVG Version: 6.00 Build 0)  -->
<svg version="1.1" id="Слой_1" xmlns="http://www.w3.org/2000/svg" xmlns:xlink="http://www.w3.org/1999/xlink" x="0px" y="0px"
	 viewBox="0 0 50 58.3" style="enable-background:new 0 0 50 58.3;" xml:space="preserve">
<g>
	<g>
		<path d="M25,58.3c-10.4,0-18.8-8.4-18.8-18.8v-0.3H5.8c-3.2,0-5.8-2.6-5.8-5.8v-2.7C0,27.6,2.6,25,5.8,25h0.4v-8.5
			c0-3.3,1.5-6.4,4.1-8.4c-0.1-0.4-0.1-0.9-0.1-1.4c0-1.2,0.6-2.4,1.7-3.3c0,0,0,0,0,0l0.6-0.5c0,0,0,0,0.1,0
			c0.1-0.1,0.2-0.1,0.3-0.2c0.6-0.4,1.5-0.9,3-1.4c2.1-0.7,4.3-1.1,6.7-1.2C32.1-0.5,40.4,2.3,43,6.8c0,0,0,0,0,0
			c0.3,0.5,0.6,0.9,0.8,1.4c2.1,4.5,0.4,9.3,0,10.2V25h0.4c3.2,0,5.8,2.6,5.8,5.8v2.7c0,3.2-2.6,5.8-5.8,5.8h-0.4v0.3
			C43.8,49.8,35.3,58.3,25,58.3L25,58.3z M7.6,38.5v1c0,9.6,7.8,17.4,17.4,17.4c9.6,0,17.4-7.8,17.4-17.4v-5.9h-1.2
			c-0.2,0-0.4-0.1-0.5-0.2c-0.1-0.1-0.2-0.3-0.2-0.5c0-0.1,0.1-8-0.5-10.5c-0.6-2.2-2.1-3.1-2.2-3.1c-0.2-0.1-0.3-0.2-0.3-0.4
			c-0.1-0.2,0-0.4,0.1-0.5c0,0,0.9-1.6,1-3.2c0-0.2-1-0.8-2.4-1.2c-1.5-0.3-2.6-0.3-2.6-0.3c0,0,0,0,0,0H19.1
			c-2.1,0-3.9-0.4-5.3-1.1c-0.2-0.1-0.5-0.3-0.7-0.4c-0.6,0.7-1.6,2-1.6,3c0,1.5,1,3.1,1,3.1c0.1,0.2,0.1,0.4,0.1,0.5
			c0,0.2-0.2,0.3-0.3,0.4c-0.1,0-1.7,0.9-2.2,3.1c-0.6,2.5-0.5,10.4-0.5,10.5c0,0.2-0.1,0.4-0.2,0.5c-0.1,0.1-0.3,0.2-0.5,0.2H7.6
			V38.5z M43.8,37.8h0.4c2.4,0,4.4-2,4.4-4.4v-2.7c0-2.4-2-4.4-4.4-4.4h-0.4V37.8z M5.8,26.4c-2.4,0-4.4,2-4.4,4.4v2.7
			c0,2.4,2,4.4,4.4,4.4h0.4V26.4H5.8z M41.9,32.3h0.5V18.4c-0.6-1.3-1.5-2.3-2.6-2.9c-0.1,1.2-0.5,2.4-0.9,3
			c0.7,0.5,1.8,1.7,2.3,3.6C41.8,24.3,41.9,30.2,41.9,32.3L41.9,32.3z M7.6,32.3h0.5c0-2,0-7.9,0.6-10.1c0.5-1.9,1.6-3.1,2.3-3.6
			c-0.4-0.7-0.9-2-0.9-3.3c0-1.5,1.2-3,1.9-3.9c-0.5-0.5-1-1.2-1.3-1.9c-2,1.8-3.1,4.3-3.1,7V32.3z M33.6,12.3
			c0.9,0,6.5,0.2,9.3,4.2c0.1-0.4,0.2-0.8,0.3-1.3c-0.8-0.8-3.7-3.4-8.1-4.2c-3-0.6-6.6-0.4-10.1-0.1c-2.6,0.2-5.3,0.3-7.6,0.1
			c-2.3-0.2-3.9-0.8-5-1.4c0.5,0.8,1.2,1.4,2,1.8c1.3,0.6,2.8,0.9,4.7,0.9h14.4C33.5,12.3,33.5,12.3,33.6,12.3L33.6,12.3z M30.5,9.3
			c1.7,0,3.3,0.1,4.9,0.4c3.8,0.7,6.6,2.7,8,3.9c0-0.6,0-1.3-0.1-1.9c-1.9-1.9-5.3-3.3-9.9-3.9c-2.4-0.3-5.2,0-8.1,0.4
			c-2.9,0.4-6,0.8-8.7,0.5c-3-0.4-4.4-1.5-5-2.5c0,0.2-0.1,0.4-0.1,0.5c0,0.1,0,0.1,0,0.2c0.2,0.4,1.5,2.5,5.9,2.8
			c2.3,0.2,4.8,0,7.4-0.1C26.7,9.4,28.6,9.3,30.5,9.3L30.5,9.3z M31.4,6.2c0.7,0,1.5,0,2.2,0.1c3.9,0.5,7,1.6,9.2,3
			c-0.1-0.2-0.2-0.4-0.3-0.6c-0.2-0.4-0.4-0.8-0.7-1.3c0,0,0,0,0,0c-2.3-4-10.3-6.5-19-6c-2.3,0.1-4.4,0.5-6.4,1.2c0,0,0,0,0,0
			C15,3,14.2,3.5,13.6,3.8c-0.1,0.1-0.3,0.1-0.4,0.2l-0.6,0.4c-0.1,0.1-0.2,0.1-0.2,0.2c0.1,0.5,0.7,2.1,4.4,2.6
			c2.5,0.3,5.5-0.1,8.3-0.5C27.2,6.5,29.4,6.2,31.4,6.2L31.4,6.2z M31.6,48.7H18.4c-0.4,0-0.7-0.3-0.7-0.7c0-1.3,0.4-2.6,1-3.6
			c0,0,0,0,0-0.1c1.3-2.2,3.6-3.6,6.3-3.6c2.7,0,5,1.5,6.3,3.6c0,0,0,0,0,0c0.6,1.1,1,2.3,1,3.6C32.3,48.4,32,48.7,31.6,48.7
			L31.6,48.7z M19.1,47.3h11.8c-0.1-0.7-0.3-1.3-0.6-1.9H19.7C19.4,46,19.2,46.6,19.1,47.3L19.1,47.3z M20.6,44h8.7
			c-1.1-1.2-2.6-1.9-4.4-1.9C23.3,42.1,21.7,42.8,20.6,44L20.6,44z M11.7,43.3c-1.4,0-2.6-1.2-2.6-2.6c0-0.4,0.1-0.9,0.3-1.3
			l1.6-3.5c0.1-0.2,0.4-0.4,0.6-0.4c0.3,0,0.5,0.2,0.6,0.4l1.6,3.5c0.2,0.4,0.3,0.8,0.3,1.3C14.3,42.1,13.1,43.3,11.7,43.3
			L11.7,43.3z M11.7,37.9l-1,2.2c0,0,0,0,0,0.1c-0.1,0.2-0.2,0.4-0.2,0.6c0,0.7,0.5,1.2,1.2,1.2c0.7,0,1.2-0.5,1.2-1.2
			c0-0.2-0.1-0.4-0.2-0.6c0,0,0,0,0-0.1L11.7,37.9z M31.4,36.1L31.4,36.1c-2.7,0-4.9-2.2-4.9-4.9c0-1.3,0.5-2.5,1.5-3.5
			c0.9-0.9,2.2-1.4,3.5-1.4h0c1.3,0,2.5,0.5,3.5,1.5c0.9,0.9,1.4,2.2,1.4,3.5C36.3,33.9,34.1,36.1,31.4,36.1L31.4,36.1z M31.4,27.7
			c-1.9,0-3.5,1.6-3.5,3.5c0,1.9,1.6,3.5,3.5,3.5h0c1.9,0,3.5-1.6,3.5-3.5c0-0.9-0.4-1.8-1-2.5C33.3,28,32.4,27.7,31.4,27.7
			L31.4,27.7z M18.2,36.1L18.2,36.1c-2.7,0-4.9-2.2-4.9-4.9c0-1.3,0.5-2.5,1.5-3.5c0.9-0.9,2.2-1.4,3.5-1.4h0c1.3,0,2.5,0.5,3.5,1.5
			c0.9,0.9,1.4,2.2,1.4,3.5C23,33.9,20.8,36.1,18.2,36.1L18.2,36.1z M18.2,27.7c-0.9,0-1.8,0.4-2.5,1c-0.7,0.7-1,1.5-1,2.5
			c0,1.9,1.6,3.5,3.5,3.5c2,0,3.5-1.6,3.5-3.5c0-0.9-0.4-1.8-1-2.5C20,28,19.1,27.7,18.2,27.7L18.2,27.7z M31.4,31.9L31.4,31.9
			c-0.4,0-0.7-0.3-0.7-0.7v-0.1c0-0.4,0.3-0.7,0.7-0.7h0c0.4,0,0.7,0.3,0.7,0.7v0.1C32.1,31.6,31.8,31.9,31.4,31.9L31.4,31.9z
			 M18.2,31.9L18.2,31.9c-0.4,0-0.7-0.3-0.7-0.7v-0.1c0-0.4,0.3-0.7,0.7-0.7h0c0.4,0,0.7,0.3,0.7,0.7v0.1
			C18.8,31.6,18.5,31.9,18.2,31.9L18.2,31.9z M34.3,24.3c-0.1,0-0.1,0-0.2,0l-5.5-1.7c-0.4-0.1-0.6-0.5-0.5-0.9
			c0.1-0.4,0.5-0.6,0.9-0.5l5.5,1.7c0.4,0.1,0.6,0.5,0.5,0.9C34.9,24.1,34.6,24.3,34.3,24.3L34.3,24.3z M15.5,24.2
			c-0.3,0-0.6-0.2-0.7-0.5c-0.1-0.4,0.1-0.7,0.5-0.9l5.5-1.5c0.4-0.1,0.7,0.1,0.8,0.5c0.1,0.4-0.1,0.7-0.5,0.8l-5.5,1.5
			C15.6,24.2,15.5,24.2,15.5,24.2L15.5,24.2z M15.5,24.2"/>
	</g>
</g>
</svg>
