<?xml version="1.0" encoding="iso-8859-1"?>
<!-- Generator: Adobe Illustrator 21.1.0, SVG Export Plug-In . SVG Version: 6.00 Build 0)  -->
<svg version="1.1" id="Layer_1" xmlns="http://www.w3.org/2000/svg" xmlns:xlink="http://www.w3.org/1999/xlink" x="0px" y="0px"
	 viewBox="172 365.351 70 63.298" style="enable-background:new 172 365.351 70 63.298;" xml:space="preserve">
<g>
	<polygon style="fill:#367596;" points="240.883,366.468 240.883,375.404 233.436,378.383 236.415,366.468 	"/>
	<polygon style="fill:#5195AF;" points="236.415,366.468 236.415,378.383 213.702,378.383 216.681,366.468 	"/>
	<polygon style="fill:#27467A;" points="173.117,366.468 173.117,375.404 177.585,378.383 216.681,378.383 216.681,366.468 	"/>
	<polygon style="fill:#A0F6FA;" points="240.883,375.404 240.883,427.532 236.415,427.532 230.457,401.468 236.415,375.404 	"/>
	<polygon style="fill:#F0FEFF;" points="177.585,375.404 183.543,401.468 177.585,427.532 173.117,427.532 173.117,375.404 	"/>
	<rect x="177.585" y="375.404" style="fill:#D0FBFD;" width="58.83" height="52.128"/>
	<path style="fill:#25BBCC;" d="M189.974,395.365h5.633v5.633c-2.915,2.916-4.718,6.943-4.718,11.394h-7.968
		C182.92,405.743,185.616,399.723,189.974,395.365z"/>
	<path style="fill:#50D1DD;" d="M207,388.311l2.979,3.984L207,396.279c-4.45,0-8.477,1.804-11.394,4.718l-5.633-5.633
		C194.331,391.007,200.351,388.311,207,388.311z"/>
	<path style="fill:#FF0F47;" d="M207,388.311c6.649,0,12.669,2.696,17.026,7.054v5.633h-5.633
		c-2.916-2.915-6.943-4.718-11.394-4.718V388.311z"/>
	<circle style="fill:#27467A;" cx="207" cy="412.391" r="2.234"/>
	<path style="fill:#C20035;" d="M231.08,412.391h-7.968c0-4.45-1.804-8.477-4.718-11.394l5.633-5.633
		C228.384,399.723,231.08,405.743,231.08,412.391z"/>
	<path d="M240.883,365.351h-67.766c-0.617,0-1.117,0.5-1.117,1.117v61.064c0,0.617,0.5,1.117,1.117,1.117h67.766
		c0.617,0,1.117-0.5,1.117-1.117v-11.915c0-0.617-0.5-1.117-1.117-1.117c-0.617,0-1.117,0.5-1.117,1.117v10.798h-65.532v-49.894
		h65.532v34.628c0,0.617,0.5,1.117,1.117,1.117c0.617,0,1.117-0.5,1.117-1.117v-44.681C242,365.851,241.5,365.351,240.883,365.351z
		 M174.234,367.585h41.33v6.702h-41.33V367.585z M217.798,374.287v-6.702h21.968v6.702H217.798z"/>
	<path d="M228.819,369.745c-0.657,0-1.191,0.535-1.191,1.191s0.535,1.191,1.191,1.191c0.657,0,1.191-0.535,1.191-1.191
		S229.476,369.745,228.819,369.745z"/>
	<path d="M222.713,369.745c-0.657,0-1.191,0.535-1.191,1.191s0.535,1.191,1.191,1.191c0.657,0,1.191-0.535,1.191-1.191
		S223.37,369.745,222.713,369.745z"/>
	<path d="M234.926,369.745c-0.657,0-1.191,0.535-1.191,1.191s0.535,1.191,1.191,1.191c0.657,0,1.191-0.535,1.191-1.191
		S235.582,369.745,234.926,369.745z"/>
	<path d="M216.019,403.372c-0.436-0.436-1.144-0.436-1.58,0l-5.996,5.996c-0.438-0.21-0.927-0.328-1.444-0.328
		c-1.848,0-3.351,1.503-3.351,3.351c0,1.848,1.503,3.351,3.351,3.351s3.351-1.503,3.351-3.351c0-0.517-0.118-1.006-0.327-1.444
		l5.996-5.996C216.456,404.515,216.456,403.808,216.019,403.372z M207,413.508c-0.616,0-1.117-0.501-1.117-1.117
		s0.501-1.117,1.117-1.117s1.117,0.501,1.117,1.117S207.616,413.508,207,413.508z"/>
	<path d="M221.995,412.391c0,0.617,0.5,1.117,1.117,1.117h7.968c0.617,0,1.117-0.5,1.117-1.117c0-6.887-2.778-13.136-7.272-17.689
		c-0.033-0.044-0.068-0.088-0.108-0.128c-0.04-0.04-0.083-0.075-0.128-0.108c-4.553-4.494-10.802-7.272-17.689-7.272
		c-6.887,0-13.137,2.778-17.689,7.272c-0.044,0.033-0.088,0.068-0.128,0.108c-0.04,0.04-0.076,0.083-0.108,0.128
		c-4.493,4.553-7.272,10.802-7.272,17.689c0,0.617,0.5,1.117,1.117,1.117h7.968c0.617,0,1.117-0.5,1.117-1.117
		c0-8.268,6.727-14.995,14.995-14.995C215.268,397.396,221.995,404.123,221.995,412.391z M195.639,399.451l-4.059-4.059
		c3.821-3.469,8.812-5.672,14.303-5.936v5.744C201.972,395.451,198.412,397.013,195.639,399.451z M208.117,389.455
		c5.491,0.264,10.482,2.467,14.303,5.936l-4.059,4.059c-2.773-2.437-6.333-4-10.244-4.251V389.455z M224.193,411.274
		c-0.251-3.911-1.814-7.471-4.252-10.244l4.059-4.059c3.469,3.821,5.672,8.812,5.936,14.303L224.193,411.274L224.193,411.274z
		 M189.807,411.274h-5.743c0.265-5.491,2.467-10.482,5.936-14.303l4.059,4.059C191.621,403.803,190.058,407.363,189.807,411.274z"/>
</g>
</svg>
