<?xml version="1.0" encoding="iso-8859-1"?>
<!-- Generator: Adobe Illustrator 21.1.0, SVG Export Plug-In . SVG Version: 6.00 Build 0)  -->
<svg version="1.1" id="&#x421;&#x43B;&#x43E;&#x439;_1"
	 xmlns="http://www.w3.org/2000/svg" xmlns:xlink="http://www.w3.org/1999/xlink" x="0px" y="0px" viewBox="0 0 50 49.81"
	 style="enable-background:new 0 0 50 49.81;" xml:space="preserve">
<g>
	<path style="fill:#FFFFFF;" d="M4.59,10.259c0.42-0.192,0.602-0.688,0.411-1.106C4.809,8.737,4.318,8.549,3.898,8.741
		C3.321,9.006,2.783,9.351,2.299,9.77c-0.346,0.301-0.382,0.826-0.081,1.172c0.163,0.192,0.395,0.29,0.63,0.29
		c0.192,0,0.386-0.066,0.546-0.204C3.752,10.715,4.154,10.454,4.59,10.259L4.59,10.259z M4.59,10.259"/>
	<path style="fill:#FFFFFF;" d="M7.499,9.807h1.669c0.459,0,0.834-0.37,0.834-0.833c0-0.46-0.375-0.83-0.834-0.83H7.499
		c-0.459,0-0.834,0.37-0.834,0.83C6.665,9.437,7.04,9.807,7.499,9.807L7.499,9.807z M7.499,9.807"/>
	<path style="fill:#FFFFFF;" d="M12.5,9.807h1.669c0.459,0,0.829-0.37,0.829-0.833c0-0.46-0.37-0.83-0.829-0.83H12.5
		c-0.459,0-0.834,0.37-0.834,0.83C11.666,9.437,12.041,9.807,12.5,9.807L12.5,9.807z M12.5,9.807"/>
	<path style="fill:#FFFFFF;" d="M9.168,19.809H7.499c-0.459,0-0.834,0.37-0.834,0.834c0,0.459,0.375,0.83,0.834,0.83h1.669
		c0.459,0,0.834-0.371,0.834-0.83C10.002,20.178,9.627,19.809,9.168,19.809L9.168,19.809z M9.168,19.809"/>
	<path style="fill:#FFFFFF;" d="M19.165,19.809h-1.664c-0.46,0-0.834,0.37-0.834,0.834c0,0.459,0.374,0.83,0.834,0.83h1.664
		c0.465,0,0.834-0.371,0.834-0.83C19.999,20.178,19.629,19.809,19.165,19.809L19.165,19.809z M19.165,19.809"/>
	<path style="fill:#FFFFFF;" d="M14.169,19.809H12.5c-0.459,0-0.834,0.37-0.834,0.834c0,0.459,0.375,0.83,0.834,0.83h1.669
		c0.459,0,0.829-0.371,0.829-0.83C14.998,20.178,14.628,19.809,14.169,19.809L14.169,19.809z M14.169,19.809"/>
	<path style="fill:#FFFFFF;" d="M4.59,19.356c-0.431-0.199-0.834-0.455-1.196-0.769c-0.346-0.301-0.875-0.265-1.176,0.081
		c-0.301,0.35-0.265,0.875,0.085,1.176c0.48,0.42,1.018,0.766,1.595,1.026c0.11,0.052,0.228,0.077,0.346,0.077
		c0.314,0,0.619-0.179,0.757-0.484C5.192,20.045,5.009,19.548,4.59,19.356L4.59,19.356z M4.59,19.356"/>
	<path style="fill:#FFFFFF;" d="M24.166,19.809h-1.664c-0.465,0-0.834,0.37-0.834,0.834c0,0.459,0.37,0.83,0.834,0.83h1.664
		c0.46,0,0.834-0.371,0.834-0.83C25,20.178,24.626,19.809,24.166,19.809L24.166,19.809z M24.166,19.809"/>
	<path style="fill:#FFFFFF;" d="M39.169,19.809H37.5c-0.459,0-0.834,0.37-0.834,0.834c0,0.459,0.375,0.83,0.834,0.83h1.669
		c0.459,0,0.829-0.371,0.829-0.83C39.998,20.178,39.628,19.809,39.169,19.809L39.169,19.809z M39.169,19.809"/>
	<path style="fill:#FFFFFF;" d="M44.165,19.809h-1.664c-0.46,0-0.834,0.37-0.834,0.834c0,0.459,0.374,0.83,0.834,0.83h1.664
		c0.465,0,0.834-0.371,0.834-0.83C44.999,20.178,44.629,19.809,44.165,19.809L44.165,19.809z M44.165,19.809"/>
	<path style="fill:#FFFFFF;" d="M29.167,19.809h-1.669c-0.459,0-0.829,0.37-0.829,0.834c0,0.459,0.37,0.83,0.829,0.83h1.669
		c0.459,0,0.834-0.371,0.834-0.83C30.001,20.178,29.626,19.809,29.167,19.809L29.167,19.809z M29.167,19.809"/>
	<path style="fill:#FFFFFF;" d="M34.168,19.809h-1.669c-0.459,0-0.834,0.37-0.834,0.834c0,0.459,0.375,0.83,0.834,0.83h1.669
		c0.459,0,0.834-0.371,0.834-0.83C35.002,20.178,34.627,19.809,34.168,19.809L34.168,19.809z M34.168,19.809"/>
	<path style="fill:#FFFFFF;" d="M4.59,44.356c-0.431-0.199-0.834-0.455-1.196-0.769c-0.346-0.301-0.875-0.265-1.176,0.081
		c-0.301,0.35-0.265,0.875,0.085,1.176c0.48,0.42,1.018,0.766,1.595,1.026c0.11,0.052,0.228,0.077,0.346,0.077
		c0.314,0,0.619-0.179,0.757-0.484C5.192,45.045,5.009,44.548,4.59,44.356L4.59,44.356z M4.59,44.356"/>
	<path style="fill:#FFFFFF;" d="M14.169,44.809H12.5c-0.459,0-0.834,0.37-0.834,0.834c0,0.459,0.375,0.83,0.834,0.83h1.669
		c0.459,0,0.829-0.371,0.829-0.83C14.998,45.178,14.628,44.809,14.169,44.809L14.169,44.809z M14.169,44.809"/>
	<path style="fill:#FFFFFF;" d="M9.168,44.809H7.499c-0.459,0-0.834,0.37-0.834,0.834c0,0.459,0.375,0.83,0.834,0.83h1.669
		c0.459,0,0.834-0.371,0.834-0.83C10.002,45.178,9.627,44.809,9.168,44.809L9.168,44.809z M9.168,44.809"/>
	<path style="fill:#FFFFFF;" d="M29.167,44.809h-1.669c-0.459,0-0.829,0.37-0.829,0.834c0,0.459,0.37,0.83,0.829,0.83h1.669
		c0.459,0,0.834-0.371,0.834-0.83C30.001,45.178,29.626,44.809,29.167,44.809L29.167,44.809z M29.167,44.809"/>
	<path style="fill:#FFFFFF;" d="M31.665,45.643c0,0.459,0.375,0.83,0.834,0.83h1.669c0.459,0,0.834-0.371,0.834-0.83
		c0-0.465-0.375-0.834-0.834-0.834h-1.669C32.04,44.809,31.665,45.178,31.665,45.643L31.665,45.643z M31.665,45.643"/>
	<path style="fill:#FFFFFF;" d="M37.5,46.473h1.669c0.459,0,0.829-0.371,0.829-0.83c0-0.465-0.37-0.834-0.829-0.834H37.5
		c-0.459,0-0.834,0.37-0.834,0.834C36.666,46.102,37.041,46.473,37.5,46.473L37.5,46.473z M37.5,46.473"/>
	<path style="fill:#FFFFFF;" d="M24.166,44.809h-1.664c-0.465,0-0.834,0.37-0.834,0.834c0,0.459,0.37,0.83,0.834,0.83h1.664
		c0.46,0,0.834-0.371,0.834-0.83C25,45.178,24.626,44.809,24.166,44.809L24.166,44.809z M24.166,44.809"/>
	<path style="fill:#FFFFFF;" d="M42.501,46.473h1.664c0.465,0,0.834-0.371,0.834-0.83c0-0.465-0.37-0.834-0.834-0.834h-1.664
		c-0.46,0-0.834,0.37-0.834,0.834C41.667,46.102,42.041,46.473,42.501,46.473L42.501,46.473z M42.501,46.473"/>
	<path style="fill:#FFFFFF;" d="M19.165,44.809h-1.664c-0.46,0-0.834,0.37-0.834,0.834c0,0.459,0.374,0.83,0.834,0.83h1.664
		c0.465,0,0.834-0.371,0.834-0.83C19.999,45.178,19.629,44.809,19.165,44.809L19.165,44.809z M19.165,44.809"/>
	<path style="fill:#FFFFFF;" d="M36.666,32.309c0,1.84,1.498,3.332,3.332,3.332c1.84,0,3.337-1.493,3.337-3.332
		c0-1.84-1.498-3.332-3.337-3.332C38.164,28.976,36.666,30.469,36.666,32.309L36.666,32.309z M39.998,30.64
		c0.92,0,1.669,0.749,1.669,1.669c0,0.92-0.749,1.665-1.669,1.665c-0.915,0-1.664-0.745-1.664-1.665
		C38.334,31.389,39.083,30.64,39.998,30.64L39.998,30.64z M39.998,30.64"/>
	<path style="fill:#FFFFFF;" d="M35.786,4.807l-4.532-4.529c-0.367-0.37-0.973-0.37-1.339,0L28.21,1.983l-1.705-1.705
		c-0.37-0.37-0.972-0.37-1.343,0l-4.528,4.529H6.665C2.991,4.807,0,7.797,0,11.475v32.373c0,3.283,2.673,5.961,5.961,5.961H50V4.807
		H35.786z M30.586,1.966l14.51,14.51h-4.496l-9.388-9.392c-0.354-0.342-0.903-0.342-1.266,0.008l-9.379,9.383h-4.492L29.386,3.163
		L30.586,1.966z M38.249,16.476H22.925l7.661-7.662L38.249,16.476z M25.834,1.966l1.196,1.197L13.717,16.476h-2.393L22.99,4.807
		L25.834,1.966z M6.665,6.474h12.301l-1.717,1.718c-0.253,0.081-0.444,0.272-0.525,0.528l-7.756,7.756H6.665
		c-2.754,0-4.996-2.246-4.996-5.001C1.669,8.717,3.91,6.474,6.665,6.474L6.665,6.474z M48.331,36.475h-9.162
		c-2.299,0-4.167-1.872-4.167-4.167c0-2.299,1.868-4.167,4.167-4.167h9.162V36.475z M48.331,19.809h-0.829
		c-0.465,0-0.834,0.37-0.834,0.834c0,0.459,0.37,0.83,0.834,0.83h0.829v5h-9.162c-3.219,0-5.835,2.617-5.835,5.835
		c0,3.215,2.617,5.831,5.835,5.831h9.162v6.669h-0.829c-0.465,0-0.834,0.37-0.834,0.834c0,0.459,0.37,0.83,0.834,0.83h0.829v1.668
		H5.961c-2.369,0-4.293-1.924-4.293-4.293V42.01c0.191-0.208,0.284-0.501,0.199-0.794c-0.134-0.456-0.199-0.928-0.199-1.408V17.01
		c0.191-0.208,0.284-0.501,0.199-0.794c-0.017-0.053-0.021-0.11-0.036-0.162c0.077,0.077,0.15,0.154,0.228,0.231
		c0.073,0.07,0.146,0.134,0.223,0.2c0.094,0.081,0.187,0.163,0.285,0.235c0.077,0.066,0.158,0.122,0.24,0.179
		c0.102,0.073,0.204,0.143,0.309,0.207c0.085,0.053,0.167,0.106,0.256,0.155c0.11,0.065,0.22,0.122,0.334,0.179
		c0.09,0.045,0.175,0.09,0.264,0.13c0.123,0.052,0.241,0.097,0.363,0.142c0.09,0.036,0.179,0.07,0.273,0.102
		c0.13,0.041,0.265,0.073,0.399,0.109c0.085,0.025,0.175,0.049,0.265,0.07c0.15,0.032,0.301,0.053,0.455,0.077
		c0.077,0.008,0.155,0.024,0.232,0.032c0.231,0.025,0.468,0.041,0.707,0.041h41.667V19.809z M47.453,16.476l-6.67-6.67h0.049
		c0.46,0,0.834-0.37,0.834-0.833c0-0.46-0.374-0.83-0.834-0.83h-1.664c-0.017,0-0.029,0.004-0.042,0.008l-1.676-1.677h10.88v10.002
		H47.453z M47.453,16.476"/>
	<path style="fill:#FFFFFF;" d="M45.833,8.143h-1.669c-0.459,0-0.829,0.37-0.829,0.83c0,0.464,0.37,0.833,0.829,0.833h1.669
		c0.459,0,0.834-0.37,0.834-0.833C46.668,8.513,46.293,8.143,45.833,8.143L45.833,8.143z M45.833,8.143"/>
</g>
</svg>
