<?xml version="1.0" encoding="iso-8859-1"?>
<!-- Generator: Adobe Illustrator 21.1.0, SVG Export Plug-In . SVG Version: 6.00 Build 0)  -->
<svg version="1.1" id="Layer_1" xmlns="http://www.w3.org/2000/svg" xmlns:xlink="http://www.w3.org/1999/xlink" x="0px" y="0px"
	 viewBox="172 362 70 70" style="enable-background:new 172 362 70 70;" xml:space="preserve">
<g>
	<rect x="173.129" y="383.452" style="fill:#FFCB57;" width="67.742" height="47.419"/>
	<rect x="235.226" y="383.452" style="fill:#F2BE55;" width="5.645" height="47.419"/>
	<path style="fill:#684621;" d="M242,432h-70v-49.677h70V432z M174.258,429.742h65.484v-45.161h-65.484V429.742z"/>
	<rect x="177.645" y="381.194" style="fill:#EFE7E4;" width="58.71" height="45.161"/>
	<rect x="230.71" y="381.194" style="fill:#D8D1D0;" width="5.645" height="45.161"/>
	<g>
		<path style="fill:#684621;" d="M237.484,427.484h-60.968v-47.419h60.968V427.484z M178.774,425.226h56.452v-42.903h-56.452
			V425.226z"/>
		<rect x="205.871" y="381.194" style="fill:#684621;" width="2.258" height="45.161"/>
	</g>
	<rect x="182.161" y="385.71" style="fill:#66ADDD;" width="20.323" height="18.065"/>
	<rect x="194.581" y="385.71" style="fill:#5B9DC1;" width="7.903" height="18.065"/>
	<g>
		<path style="fill:#684621;" d="M203.613,404.903h-22.581v-20.323h22.581V404.903z M183.29,402.645h18.065v-15.806H183.29V402.645z
			"/>
		<rect x="181.032" y="411.677" style="fill:#684621;" width="22.581" height="2.258"/>
		<rect x="181.032" y="407.161" style="fill:#684621;" width="22.581" height="2.258"/>
		<rect x="181.032" y="416.194" style="fill:#684621;" width="22.581" height="2.258"/>
		<rect x="201.355" y="420.71" style="fill:#684621;" width="2.258" height="2.258"/>
		<rect x="181.032" y="420.71" style="fill:#684621;" width="18.065" height="2.258"/>
		<rect x="221.677" y="384.581" style="fill:#684621;" width="11.29" height="2.258"/>
		<rect x="219.419" y="389.097" style="fill:#684621;" width="13.548" height="2.258"/>
		<rect x="230.71" y="393.613" style="fill:#684621;" width="2.258" height="2.258"/>
		<rect x="219.419" y="393.613" style="fill:#684621;" width="9.032" height="2.258"/>
	</g>
	<rect x="218.29" y="408.29" style="fill:#66ADDD;" width="13.548" height="13.548"/>
	<rect x="227.323" y="408.29" style="fill:#5B9DC1;" width="4.516" height="13.548"/>
	<path style="fill:#684621;" d="M232.968,422.968h-15.806v-15.806h15.806V422.968z M219.419,420.71h11.29v-11.29h-11.29V420.71z"/>
	<g>
		<circle style="fill:#FFCB57;" cx="218.29" cy="410.548" r="6.774"/>
		<path style="fill:#FFCB57;" d="M218.29,381.194c0-6.236-5.055-11.29-11.29-11.29s-11.29,5.055-11.29,11.29
			c0,3.69,1.778,6.957,4.516,9.016v9.048h13.548v-9.048C216.512,388.151,218.29,384.883,218.29,381.194z"/>
	</g>
	<g>
		<path style="fill:#F2BE55;" d="M208.852,370.068c3.596,1.888,6.052,5.653,6.052,9.996c0,3.69-1.778,6.957-4.516,9.016v10.177
			h3.387v-9.048c2.738-2.06,4.516-5.327,4.516-9.016C218.29,375.59,214.204,370.953,208.852,370.068z"/>
		<path style="fill:#F2BE55;" d="M218.29,403.774c-0.586,0-1.152,0.082-1.694,0.222c2.92,0.753,5.081,3.396,5.081,6.552
			c0,3.156-2.161,5.799-5.081,6.552c0.542,0.14,1.108,0.222,1.694,0.222c3.742,0,6.774-3.033,6.774-6.774
			C225.065,406.807,222.032,403.774,218.29,403.774z"/>
	</g>
	<path style="fill:#684621;" d="M218.29,418.452c-4.357,0-7.903-3.546-7.903-7.903c0-4.357,3.546-7.903,7.903-7.903
		c4.357,0,7.903,3.546,7.903,7.903C226.194,414.905,222.647,418.452,218.29,418.452z M218.29,404.903
		c-3.113,0-5.645,2.532-5.645,5.645c0,3.113,2.532,5.645,5.645,5.645c3.113,0,5.645-2.532,5.645-5.645
		C223.935,407.436,221.403,404.903,218.29,404.903z"/>
	<g>
		<rect x="185.548" y="389.097" style="fill:#EFE7E4;" width="2.258" height="2.258"/>
		<rect x="190.065" y="389.097" style="fill:#EFE7E4;" width="4.516" height="2.258"/>
		<circle style="fill:#EFE7E4;" cx="207" cy="381.194" r="3.387"/>
	</g>
	<path style="fill:#684621;" d="M207,385.71c-2.491,0-4.516-2.025-4.516-4.516c0-2.491,2.025-4.516,4.516-4.516
		s4.516,2.025,4.516,4.516C211.516,383.684,209.491,385.71,207,385.71z M207,378.935c-1.245,0-2.258,1.013-2.258,2.258
		s1.013,2.258,2.258,2.258s2.258-1.013,2.258-2.258S208.245,378.935,207,378.935z"/>
	<path style="fill:#EFE7E4;" d="M201.355,381.194h-2.258c0-4.358,3.546-7.903,7.903-7.903v2.258
		C203.887,375.548,201.355,378.081,201.355,381.194z"/>
	<g>
		<rect x="205.871" y="362" style="fill:#684621;" width="2.258" height="4.516"/>
		
			<rect x="197.402" y="364.268" transform="matrix(0.866 -0.5 0.5 0.866 -156.6676 148.3752)" style="fill:#684621;" width="2.258" height="4.516"/>
		
			<rect x="191.204" y="370.467" transform="matrix(0.5 -0.866 0.866 0.5 -226.6227 352.9222)" style="fill:#684621;" width="2.258" height="4.516"/>
		
			<rect x="219.41" y="371.598" transform="matrix(0.8661 -0.4999 0.4999 0.8661 -156.6394 160.7231)" style="fill:#684621;" width="4.516" height="2.258"/>
		
			<rect x="213.21" y="365.397" transform="matrix(0.4999 -0.8661 0.8661 0.4999 -209.6862 369.9163)" style="fill:#684621;" width="4.516" height="2.258"/>
		<path style="fill:#684621;" d="M214.903,400.387h-15.806v-9.63c-2.878-2.372-4.516-5.827-4.516-9.564
			c0-6.848,5.572-12.419,12.419-12.419s12.419,5.572,12.419,12.419c0,3.738-1.638,7.192-4.516,9.564V400.387z M201.355,398.129
			h11.29v-8.482l0.449-0.339c2.585-1.944,4.067-4.902,4.067-8.114c0-5.602-4.558-10.161-10.161-10.161s-10.161,4.559-10.161,10.161
			c0,3.212,1.481,6.17,4.067,8.115l0.449,0.339V398.129z"/>
		<rect x="196.839" y="393.613" style="fill:#684621;" width="20.323" height="2.258"/>
		<rect x="205.871" y="384.581" style="fill:#684621;" width="2.258" height="10.161"/>
	</g>
</g>
</svg>
