<?xml version="1.0" encoding="iso-8859-1"?>
<!-- Generator: Adobe Illustrator 21.1.0, SVG Export Plug-In . SVG Version: 6.00 Build 0)  -->
<svg version="1.1" id="Layer_1" xmlns="http://www.w3.org/2000/svg" xmlns:xlink="http://www.w3.org/1999/xlink" x="0px" y="0px"
	 viewBox="172 362 70 70" style="enable-background:new 172 362 70 70;" xml:space="preserve">
<g>
	<rect x="173.129" y="363.129" style="fill:#FFCB57;" width="57.581" height="9.032"/>
	<rect x="173.129" y="363.129" style="fill:#F2BE55;" width="4.516" height="9.032"/>
	<rect x="173.129" y="372.161" style="fill:#EFE7E4;" width="57.581" height="27.097"/>
	<rect x="173.129" y="372.161" style="fill:#D8D1D0;" width="4.516" height="27.097"/>
	<g>
		<path style="fill:#684621;" d="M172,362h59.839v38.387H172V362z M229.581,364.258h-55.323v33.871h55.323V364.258z"/>
		<rect x="225.065" y="366.516" style="fill:#684621;" width="2.258" height="2.258"/>
		<rect x="220.548" y="366.516" style="fill:#684621;" width="2.258" height="2.258"/>
		<rect x="216.032" y="366.516" style="fill:#684621;" width="2.258" height="2.258"/>
		<rect x="173.129" y="371.032" style="fill:#684621;" width="57.581" height="2.258"/>
	</g>
	<rect x="199.097" y="376.677" style="fill:#FFCB57;" width="27.097" height="13.548"/>
	<rect x="199.097" y="376.677" style="fill:#F2BE55;" width="3.387" height="13.548"/>
	<path style="fill:#684621;" d="M197.968,375.548h29.355v15.806h-29.355V375.548z M225.065,377.806h-24.839v11.29h24.839V377.806z"
		/>
	<path style="fill:#EFE7E4;" d="M205.871,421.839h30.484c2.494,0,4.516,2.022,4.516,4.516l0,0c0,2.494-2.022,4.516-4.516,4.516
		h-30.484V421.839z"/>
	<rect x="205.871" y="421.839" style="fill:#D8D1D0;" width="5.645" height="9.032"/>
	<g>
		<path style="fill:#684621;" d="M204.742,420.71h31.613c3.113,0,5.645,2.532,5.645,5.645c0,3.113-2.532,5.645-5.645,5.645h-31.613
			V420.71z M207,422.968v6.774h29.355c1.867,0,3.387-1.52,3.387-3.387c0-1.867-1.52-3.387-3.387-3.387H207z"/>
		<rect x="234.097" y="425.226" style="fill:#684621;" width="2.258" height="2.258"/>
		<rect x="209.258" y="425.226" style="fill:#684621;" width="22.581" height="2.258"/>
	</g>
	<path style="fill:#FFCB57;" d="M205.871,412.806h30.484c2.494,0,4.516,2.022,4.516,4.516l0,0c0,2.494-2.022,4.516-4.516,4.516
		h-30.484V412.806z"/>
	<rect x="205.871" y="412.806" style="fill:#F2BE55;" width="5.645" height="9.032"/>
	<g>
		<path style="fill:#684621;" d="M204.742,411.677h31.613c3.113,0,5.645,2.532,5.645,5.645c0,3.113-2.532,5.645-5.645,5.645h-31.613
			V411.677z M207,413.935v6.774h29.355c1.867,0,3.387-1.52,3.387-3.387c0-1.867-1.52-3.387-3.387-3.387H207z"/>
		<rect x="234.097" y="416.194" style="fill:#684621;" width="2.258" height="2.258"/>
		<rect x="209.258" y="416.194" style="fill:#684621;" width="22.581" height="2.258"/>
	</g>
	<path style="fill:#EFE7E4;" d="M205.871,403.774h30.484c2.494,0,4.516,2.022,4.516,4.516l0,0c0,2.494-2.022,4.516-4.516,4.516
		h-30.484V403.774z"/>
	<rect x="205.871" y="403.774" style="fill:#D8D1D0;" width="5.645" height="9.032"/>
	<g>
		<path style="fill:#684621;" d="M204.742,402.645h31.613c3.113,0,5.645,2.532,5.645,5.645c0,3.113-2.532,5.645-5.645,5.645h-31.613
			V402.645z M207,404.903v6.774h29.355c1.867,0,3.387-1.52,3.387-3.387c0-1.867-1.52-3.387-3.387-3.387H207z"/>
		<rect x="234.097" y="407.161" style="fill:#684621;" width="2.258" height="2.258"/>
		<rect x="209.258" y="407.161" style="fill:#684621;" width="22.581" height="2.258"/>
	</g>
	<path style="fill:#66ADDD;" d="M205.871,394.742h30.484c2.494,0,4.516,2.022,4.516,4.516l0,0c0,2.494-2.022,4.516-4.516,4.516
		h-30.484V394.742z"/>
	<rect x="205.871" y="394.742" style="fill:#5B9DC1;" width="5.645" height="9.032"/>
	<g>
		<path style="fill:#684621;" d="M204.742,393.613h31.613c3.113,0,5.645,2.532,5.645,5.645c0,3.113-2.532,5.645-5.645,5.645h-31.613
			V393.613z M207,395.871v6.774h29.355c1.867,0,3.387-1.52,3.387-3.387c0-1.867-1.52-3.387-3.387-3.387H207z"/>
		<rect x="234.097" y="398.129" style="fill:#684621;" width="2.258" height="2.258"/>
		<rect x="209.258" y="398.129" style="fill:#684621;" width="22.581" height="2.258"/>
	</g>
	<polygon style="fill:#FFCB57;" points="175.387,394.742 185.548,383.452 195.71,394.742 191.194,394.742 191.194,430.871 
		179.903,430.871 179.903,394.742 	"/>
	<polygon style="fill:#F2BE55;" points="175.387,394.742 183.29,385.96 183.29,430.871 179.903,430.871 179.903,394.742 	"/>
	<path style="fill:#684621;" d="M178.774,395.871h-5.922l12.696-14.107l12.696,14.107h-5.922V432h-13.548V395.871z M190.065,393.613
		h3.11l-7.627-8.473l-7.627,8.473h3.11v36.129h9.032V393.613z"/>
	<polygon style="fill:#66ADDD;" points="182.161,413.935 192.323,402.645 202.484,413.935 197.968,413.935 197.968,430.871 
		186.677,430.871 186.677,413.935 	"/>
	<polygon style="fill:#5B9DC1;" points="182.161,413.935 190.065,405.154 190.065,430.871 186.677,430.871 186.677,413.935 	"/>
	<path style="fill:#684621;" d="M185.548,415.065h-5.922l12.696-14.107l12.696,14.107h-5.922V432h-13.548V415.065z M196.839,412.806
		h3.11l-7.627-8.473l-7.627,8.473h3.11v16.935h9.032V412.806z"/>
	<g>
		<rect x="192.323" y="425.226" style="fill:#EFE7E4;" width="2.258" height="2.258"/>
		<rect x="192.323" y="412.806" style="fill:#EFE7E4;" width="2.258" height="10.161"/>
		<rect x="185.548" y="401.516" style="fill:#EFE7E4;" width="2.258" height="2.258"/>
		<rect x="185.548" y="393.613" style="fill:#EFE7E4;" width="2.258" height="5.645"/>
		<rect x="220.548" y="380.065" style="fill:#EFE7E4;" width="2.258" height="2.258"/>
		<rect x="204.742" y="380.065" style="fill:#EFE7E4;" width="13.548" height="2.258"/>
	</g>
</g>
</svg>
