<?xml version="1.0" encoding="iso-8859-1"?>
<!-- Generator: Adobe Illustrator 21.1.0, SVG Export Plug-In . SVG Version: 6.00 Build 0)  -->
<svg version="1.1" id="Layer_1" xmlns="http://www.w3.org/2000/svg" xmlns:xlink="http://www.w3.org/1999/xlink" x="0px" y="0px"
	 viewBox="172 358.462 70 77.075" style="enable-background:new 172 358.462 70 77.075;" xml:space="preserve">
<g>
	<circle style="fill:#FAD06A;" cx="207" cy="400.538" r="33.871"/>
	<circle style="fill:#F5BE48;" cx="207" cy="400.538" r="33.871"/>
	<circle style="fill:#FAD06A;" cx="207" cy="400.538" r="30.865"/>
	<circle style="fill:#EC7462;" cx="207" cy="400.538" r="23.795"/>
	<circle style="fill:#FAD06A;" cx="207" cy="400.538" r="13.038"/>
	<circle style="fill:#DB4E40;" cx="206.998" cy="400.581" r="4.093"/>
	<path style="fill:#59B6D6;" d="M210.785,381.151c0-2.092-1.695-3.786-3.786-3.786v-8.252h5.835c0,5.328,5.835,9.692,5.835,9.692
		l-11.671,21.776v-15.645C209.091,384.936,210.785,383.241,210.785,381.151z"/>
	<path style="fill:#4A99BD;" d="M212.835,369.113h-2.372c0,5.331,3.539,8.463,4.776,9.396c0.238,0.179,0.31,0.504,0.169,0.766
		l-8.408,15.689v5.618l11.671-21.776C218.67,378.805,212.835,374.441,212.835,369.113z"/>
	<path style="fill:#C0E8F4;" d="M195.33,378.805c0,0,5.834-4.364,5.834-9.692h5.835v8.252c-2.09,0-3.785,1.695-3.785,3.786
		c0,2.09,1.695,3.785,3.785,3.785v15.645L195.33,378.805z"/>
	<rect x="200.054" y="359.591" style="fill:#4B596E;" width="13.89" height="9.522"/>
	<rect x="210.937" y="359.591" style="fill:#2C394B;" width="3.011" height="9.522"/>
	<path d="M236.568,381.803c-0.334-0.526-1.032-0.682-1.559-0.348c-0.526,0.334-0.682,1.032-0.348,1.558
		c3.323,5.234,5.08,11.294,5.08,17.524c0,18.054-14.688,32.742-32.742,32.742s-32.742-14.688-32.742-32.742
		c0-7.568,2.643-14.95,7.443-20.785c4.438-5.395,10.515-9.249,17.231-10.955v0.314c0,0.58,0.438,1.058,1.001,1.121
		c-0.727,4.197-5.23,7.631-5.279,7.667c-0.383,0.287-0.537,0.776-0.407,1.22c-7.534,4.491-12.172,12.597-12.172,21.416
		c0,8.408,4.197,16.194,11.226,20.826c0.191,0.126,0.407,0.187,0.62,0.187c0.367,0,0.727-0.179,0.944-0.508
		c0.343-0.521,0.199-1.221-0.322-1.564c-6.394-4.214-10.211-11.294-10.211-18.941c0-7.978,4.173-15.312,10.96-19.411l0.757,1.413
		c0.294,0.55,0.979,0.757,1.528,0.462c0.55-0.295,0.756-0.979,0.462-1.528l-1.277-2.385c1.54-1.34,4.912-4.702,5.455-8.847h3.652
		v6.125c-2.167,0.512-3.785,2.463-3.785,4.784c0,2.321,1.618,4.271,3.785,4.783v9.55c-0.095,0.021-0.19,0.045-0.283,0.071
		l-3.768-7.031c-0.001-0.002-0.002-0.005-0.003-0.007c-0.001-0.002-0.002-0.004-0.003-0.006l-1.295-2.417
		c-0.294-0.549-0.978-0.756-1.528-0.462c-0.55,0.295-0.756,0.979-0.462,1.528l0.79,1.474c-4.025,2.6-6.484,7.063-6.484,11.903
		c0,7.812,6.355,14.167,14.167,14.167s14.167-6.355,14.167-14.167c0-4.841-2.459-9.305-6.484-11.903l4.024-7.508
		c6.787,4.098,10.96,11.433,10.96,19.411c0,12.498-10.168,22.666-22.666,22.666c-2.862,0-5.65-0.526-8.289-1.563
		c-0.581-0.228-1.236,0.057-1.464,0.638c-0.228,0.58,0.058,1.236,0.638,1.464c2.903,1.141,5.969,1.719,9.115,1.719
		c13.743,0,24.925-11.181,24.925-24.924c0-8.82-4.637-16.925-12.172-21.416c0.13-0.444-0.023-0.934-0.407-1.22
		c-0.014-0.01-1.368-1.03-2.725-2.665c-1.022-1.231-2.206-3.022-2.553-5c0.569-0.058,1.013-0.539,1.013-1.123v-0.31
		c6.355,1.62,12.187,5.19,16.542,10.154c0.223,0.254,0.535,0.384,0.849,0.384c0.264,0,0.53-0.092,0.744-0.28
		c0.469-0.411,0.515-1.125,0.104-1.593c-4.781-5.45-11.229-9.327-18.24-10.989v-6.886c0-0.624-0.505-1.129-1.129-1.129h-13.89
		c-0.624,0-1.129,0.505-1.129,1.129v6.883c-7.4,1.749-14.11,5.929-18.975,11.844c-5.131,6.238-7.957,14.129-7.957,22.219
		c0,9.349,3.641,18.138,10.252,24.749c6.611,6.611,15.4,10.251,24.748,10.251s18.138-3.641,24.748-10.251
		c6.611-6.611,10.252-15.4,10.252-24.749C242,393.878,240.122,387.4,236.568,381.803z M204.344,381.151
		c0-1.465,1.191-2.657,2.655-2.657c1.465,0,2.657,1.192,2.657,2.657c0,1.464-1.192,2.655-2.657,2.655
		C205.535,383.807,204.344,382.616,204.344,381.151z M209.963,400.581c0,1.634-1.329,2.964-2.964,2.964
		c-1.634,0-2.964-1.33-2.964-2.964c0-0.713,0.254-1.369,0.675-1.881l1.294,2.414c0.001,0.001,0.002,0.002,0.002,0.003
		c0.006,0.01,0.013,0.019,0.019,0.03c0.023,0.04,0.048,0.079,0.076,0.115c0.011,0.015,0.024,0.028,0.036,0.043
		c0.025,0.03,0.051,0.059,0.079,0.086c0.015,0.014,0.03,0.028,0.045,0.041c0.028,0.025,0.058,0.048,0.089,0.069
		c0.017,0.012,0.033,0.023,0.05,0.034c0.037,0.023,0.075,0.044,0.115,0.062c0.012,0.006,0.024,0.013,0.036,0.018
		c0.053,0.023,0.107,0.041,0.163,0.056c0.004,0.001,0.007,0.003,0.011,0.004c0.026,0.006,0.051,0.01,0.077,0.014
		c0.018,0.003,0.035,0.008,0.053,0.01c0.047,0.006,0.095,0.009,0.142,0.01c0.001,0,0.002,0,0.003,0h0h0c0.001,0,0.002,0,0.003,0
		c0.047,0,0.094-0.003,0.142-0.01c0.018-0.002,0.035-0.007,0.053-0.01c0.026-0.005,0.051-0.008,0.077-0.014
		c0.004-0.001,0.007-0.003,0.011-0.004c0.056-0.015,0.11-0.033,0.163-0.056c0.013-0.006,0.025-0.013,0.038-0.019
		c0.039-0.019,0.077-0.039,0.114-0.062c0.017-0.011,0.034-0.023,0.05-0.035c0.031-0.022,0.06-0.045,0.088-0.069
		c0.016-0.013,0.031-0.027,0.045-0.041c0.028-0.027,0.054-0.056,0.079-0.086c0.012-0.014,0.025-0.028,0.036-0.042
		c0.028-0.037,0.053-0.076,0.076-0.116c0.006-0.01,0.013-0.019,0.018-0.029c0.001-0.001,0.002-0.002,0.002-0.004l1.294-2.414
		C209.709,399.213,209.963,399.868,209.963,400.581z M218.909,400.538c0,6.567-5.342,11.909-11.909,11.909
		c-6.567,0-11.909-5.342-11.909-11.909c0-4.006,2.004-7.706,5.296-9.905l3.211,5.992c-1.113,0.958-1.82,2.376-1.82,3.957
		c0,2.879,2.343,5.222,5.222,5.222c2.879,0,5.222-2.343,5.222-5.222c0-1.581-0.707-2.998-1.82-3.957l3.211-5.992
		C216.905,392.83,218.909,396.53,218.909,400.538z M217.237,379.089l-5.046,9.416c-0.002,0.004-0.005,0.008-0.008,0.013
		c-0.003,0.005-0.005,0.01-0.007,0.015l-3.764,7.023c-0.093-0.026-0.188-0.05-0.284-0.072v-9.55
		c2.168-0.511,3.786-2.462,3.786-4.783c0-2.322-1.618-4.273-3.786-4.785v-6.125h3.652
		C212.323,374.387,215.697,377.749,217.237,379.089z M212.822,360.72v7.263H201.19v-0.587c0-0.013,0-0.025,0-0.038v-6.638H212.822z"
		/>
	<path d="M204.128,365.481h5.744c0.624,0,1.129-0.506,1.129-1.129c0-0.624-0.505-1.129-1.129-1.129h-5.744
		c-0.624,0-1.129,0.506-1.129,1.129C202.999,364.975,203.504,365.481,204.128,365.481z"/>
</g>
</svg>
