<?xml version="1.0" encoding="iso-8859-1"?>
<!-- Generator: Adobe Illustrator 21.1.0, SVG Export Plug-In . SVG Version: 6.00 Build 0)  -->
<svg version="1.1" id="Layer_1" xmlns="http://www.w3.org/2000/svg" xmlns:xlink="http://www.w3.org/1999/xlink" x="0px" y="0px"
	 viewBox="164 335.833 70 58.333" style="enable-background:new 164 335.833 70 58.333;" xml:space="preserve">
<g>
	<path style="fill:#FF9900;" d="M228.167,355.667H220V358h8.167V355.667z M213,351h15.167v-2.333h3.5V376.2l-5.017-5.017
		c-0.233-0.233-0.467-0.35-0.817-0.35h-7.35c-0.35-0.933-0.933-1.75-1.633-2.333c1.167-0.933,1.983-2.45,1.983-4.083
		c0-2.917-2.333-5.25-5.25-5.25h-13.417V351h1.167h9.333H213z"/>
	<g>
		<rect x="220" y="355.667" style="fill:#42210B;" width="8.167" height="2.333"/>
		<rect x="213" y="348.667" style="fill:#42210B;" width="15.167" height="2.333"/>
		<rect x="223.5" y="341.667" style="fill:#42210B;" width="4.667" height="2.333"/>
		<rect x="201.333" y="341.667" style="fill:#42210B;" width="18.667" height="2.333"/>
		<rect x="201.333" y="348.667" style="fill:#42210B;" width="9.333" height="2.333"/>
	</g>
	<path style="fill:#FFF8EF;" d="M213.583,361.5c1.633,0,2.917,1.283,2.917,2.917s-1.283,2.917-2.917,2.917H206h-2.333v2.333H206
		h7.583c1.633,0,2.917,1.283,2.917,2.917s-1.283,2.917-2.917,2.917H206h-2.333v2.333H206h7.583c1.633,0,2.917,1.283,2.917,2.917
		s-1.283,2.917-2.917,2.917H206h-2.333V386H206h7.583c1.633,0,2.917,1.283,2.917,2.917s-1.283,2.917-2.917,2.917H187.8l-3.15-3.15
		c-0.233-0.233-0.467-0.35-0.817-0.35h-3.5v-22.167H185c0.35,0,0.7-0.233,0.933-0.583l4.667-7c0.117-0.233,0.233-0.35,0.233-0.583
		v-9.567c0-1.167,0.583-2.217,1.517-2.917c0.933-0.7,2.1-0.817,3.267-0.467c1.4,0.467,2.333,1.867,2.333,3.267v12.017
		c0,0.583,0.583,1.167,1.167,1.167H213.583z"/>
	<path style="fill:#FF9900;" d="M228.167,341.667H223.5V344h4.667V341.667z M220,341.667h-18.667V344H220V341.667z M213,348.667V351
		h-2.333v-2.333h-9.333V351h-1.167v-2.567c0-2.45-1.517-4.667-3.733-5.483c-1.75-0.7-3.85-0.467-5.367,0.7
		c-1.633,1.05-2.45,2.917-2.45,4.783v9.217l-3.5,5.25v-23.1c-0.117-0.817,0.583-1.633,1.633-1.633h43.283
		c0.817,0,1.633,0.817,1.633,1.633v8.867h-3.5H213z"/>
	<rect x="166.333" y="362.667" style="fill:#2FB4C2;" width="11.667" height="28"/>
	<path style="fill:#42210B;" d="M178,390.667v-28h-11.667v28H178z M213.583,359.167c2.917,0,5.25,2.333,5.25,5.25
		c0,1.633-0.817,3.15-1.983,4.083c0.7,0.583,1.283,1.4,1.633,2.333h7.35c0.35,0,0.583,0.117,0.817,0.35l5.017,5.017v-27.533V339.8
		c0-0.817-0.817-1.633-1.75-1.633H186.75c-1.05,0-1.75,0.817-1.75,1.633v23.1l3.5-5.25v-9.217c0-1.867,0.933-3.733,2.45-4.783
		c1.633-1.05,3.617-1.283,5.367-0.7c2.217,0.817,3.733,3.033,3.733,5.483V351v8.167H213.583z M218.833,388.917
		c0,2.917-2.333,5.25-5.25,5.25h-26.25c-0.35,0-0.583-0.117-0.817-0.35l-3.15-3.15h-3.033v1.167c0,0.583-0.467,1.167-1.167,1.167
		h-14c-0.583,0-1.167-0.583-1.167-1.167V361.5c0-0.583,0.583-1.167,1.167-1.167h14c0.7,0,1.167,0.583,1.167,1.167v2.333h2.333V339.8
		c0-2.1,1.75-3.967,4.083-3.967h43.283c2.217,0,3.967,1.867,3.967,3.967V379c0,0.467-0.233,0.933-0.7,1.05
		c-0.117,0.117-0.35,0.117-0.467,0.117c-0.35,0-0.583-0.117-0.817-0.35l-6.65-6.65h-6.533c-0.117,1.4-0.933,2.683-1.983,3.5
		c1.167,0.933,1.983,2.45,1.983,4.083s-0.817,3.15-1.983,4.083C218.017,385.767,218.833,387.283,218.833,388.917z M213.583,367.333
		c1.633,0,2.917-1.283,2.917-2.917s-1.283-2.917-2.917-2.917H199c-0.583,0-1.167-0.583-1.167-1.167v-11.9
		c0-1.4-0.933-2.8-2.333-3.267c-1.05-0.467-2.217-0.233-3.267,0.467c-0.933,0.7-1.517,1.75-1.517,2.917V358
		c0,0.233-0.117,0.467-0.233,0.583l-4.667,7c-0.117,0.35-0.467,0.583-0.817,0.583h-4.667v22.167h3.5c0.35,0,0.583,0.117,0.817,0.35
		l3.15,3.15h25.783c1.633,0,2.917-1.283,2.917-2.917S215.217,386,213.583,386H206h-2.333v-2.333H206h7.583
		c1.633,0,2.917-1.283,2.917-2.917s-1.283-2.917-2.917-2.917H206h-2.333V375.5H206h7.583c1.633,0,2.917-1.283,2.917-2.917
		s-1.283-2.917-2.917-2.917H206h-2.333v-2.333H206H213.583z"/>
	<path style="fill:#1D9AAE;" d="M166.333,362.667l5.483,1.4c2.333,0.583,3.967,2.567,4.2,4.9l1.983,21.7v-28H166.333z"/>
	<g>
		<path style="fill:#D9CDC1;" d="M197.833,348.667v-0.233c0-1.4-0.933-2.8-2.333-3.267c-1.05-0.35-2.217-0.233-3.267,0.467
			c-0.933,0.7-1.517,1.75-1.517,2.917v0.117C190.833,348.667,194.333,345.167,197.833,348.667z"/>
		<path style="fill:#D9CDC1;" d="M213.583,361.5H213c0,0,2.333,2.333,0,5.833h0.583c1.633,0,2.917-1.283,2.917-2.917
			S215.217,361.5,213.583,361.5z"/>
		<path style="fill:#D9CDC1;" d="M213.583,369.667H213c0,0,2.333,2.333,0,5.833h0.583c1.633,0,2.917-1.283,2.917-2.917
			S215.217,369.667,213.583,369.667z"/>
		<path style="fill:#D9CDC1;" d="M213.583,377.833H213c0,0,2.333,2.333,0,5.833h0.583c1.633,0,2.917-1.283,2.917-2.917
			S215.217,377.833,213.583,377.833z"/>
		<path style="fill:#D9CDC1;" d="M213.583,386H213c0,0,2.333,2.333,0,5.833h0.583c1.633,0,2.917-1.283,2.917-2.917
			S215.217,386,213.583,386z"/>
	</g>
	<path style="fill:#FF7D00;" d="M231.667,348.667v-8.75c0-1.05-0.7-1.75-1.75-1.75h-43.4l0,0l38.383,2.1
		c1.867,0.117,3.5,1.633,3.617,3.5l3.15,32.317l0,0V348.667z"/>
</g>
</svg>
