<?xml version="1.0" encoding="iso-8859-1"?>
<!-- Generator: Adobe Illustrator 21.1.0, SVG Export Plug-In . SVG Version: 6.00 Build 0)  -->
<svg version="1.1" id="&#x421;&#x43B;&#x43E;&#x439;_1"
	 xmlns="http://www.w3.org/2000/svg" xmlns:xlink="http://www.w3.org/1999/xlink" x="0px" y="0px" viewBox="0 0 56.355 60"
	 style="enable-background:new 0 0 56.355 60;" xml:space="preserve">
<g>
	<path style="fill:#BDCCD4;" d="M17.992,29.494c0-2.693,1.046-5.143,2.753-6.964c-0.65-0.142-1.324-0.219-2.018-0.219
		c-5.197,0-9.41,4.213-9.41,9.41c0,5.198,4.213,9.411,9.41,9.411c2.237,0,4.291-0.782,5.906-2.086
		C20.756,37.606,17.992,33.873,17.992,29.494L17.992,29.494z M17.992,29.494"/>
	<path style="fill:#BDCCD4;" d="M20.633,41.234c-0.626-0.067-1.261-0.102-1.904-0.102c-9.723,0-17.606,7.883-17.606,17.605h7.999
		C9.122,50.893,13.861,44.157,20.633,41.234L20.633,41.234z M20.633,41.234"/>
	<path style="fill:#BDCCD4;" d="M37.63,41.131c-0.644,0-1.279,0.035-1.905,0.102c6.771,2.923,11.511,9.659,11.511,17.503h7.999
		C55.235,49.014,47.353,41.131,37.63,41.131L37.63,41.131z M37.63,41.131"/>
	<path style="fill:#BDCCD4;" d="M31.724,39.046c1.615,1.303,3.668,2.086,5.906,2.086c5.197,0,9.41-4.213,9.41-9.41
		c0-5.198-4.213-9.411-9.41-9.411c-0.693,0-1.368,0.077-2.018,0.219c1.707,1.822,2.754,4.271,2.754,6.964
		C38.366,33.873,35.602,37.606,31.724,39.046L31.724,39.046z M31.724,39.046"/>
	<path style="fill:#29ABE2;" d="M35.725,41.234c-2.314-0.999-4.865-1.553-7.546-1.553c-2.681,0-5.232,0.554-7.546,1.553
		c-6.771,2.923-11.511,9.659-11.511,17.503h38.114C47.236,50.893,42.496,44.157,35.725,41.234L35.725,41.234z M35.725,41.234"/>
	<g>
		<defs>
			<rect id="SVGID_1_" width="56.355" height="60"/>
		</defs>
		<clipPath id="SVGID_2_">
			<use xlink:href="#SVGID_1_"  style="overflow:visible;"/>
		</clipPath>
		<path style="clip-path:url(#SVGID_2_);fill:#29ABE2;" d="M38.366,29.494c0-2.693-1.046-5.143-2.754-6.964
			c-1.859-1.983-4.501-3.222-7.433-3.222c-2.932,0-5.574,1.239-7.433,3.222c-1.707,1.821-2.753,4.271-2.753,6.964
			c0,4.379,2.764,8.113,6.641,9.552c1.104,0.41,2.298,0.634,3.545,0.634c1.246,0,2.441-0.225,3.545-0.634
			C35.602,37.606,38.366,33.873,38.366,29.494L38.366,29.494z M38.366,29.494"/>
		<path style="clip-path:url(#SVGID_2_);" d="M55.235,59.86c0.62,0,1.123-0.503,1.123-1.123c0-8.467-5.649-15.639-13.376-17.948
			c3.099-1.836,5.18-5.213,5.18-9.068c0-5.808-4.725-10.533-10.533-10.533c-0.56,0-1.11,0.044-1.646,0.129
			c-2.031-1.939-4.781-3.132-7.804-3.132c-3.023,0-5.773,1.193-7.805,3.132c-0.537-0.084-1.086-0.129-1.646-0.129
			c-5.809,0-10.533,4.725-10.533,10.533c0,3.855,2.082,7.232,5.181,9.068C5.649,43.098,0,50.27,0,58.737
			c0,0.621,0.502,1.123,1.123,1.123H55.235z M45.917,31.721c0,4.57-3.718,8.288-8.288,8.288c-1.296,0-2.522-0.299-3.615-0.831
			c3.278-1.983,5.474-5.582,5.474-9.684c0-2.227-0.647-4.305-1.764-6.058C42.251,23.487,45.917,27.183,45.917,31.721L45.917,31.721z
			 M28.179,20.43c1.936,0,3.732,0.612,5.207,1.651c0.687,0.484,1.304,1.059,1.832,1.71c1.265,1.559,2.025,3.543,2.025,5.702
			c0,3.657-2.178,6.813-5.304,8.244c-0.752,0.345-1.557,0.591-2.401,0.718c-0.443,0.067-0.897,0.102-1.358,0.102
			c-0.461,0-0.914-0.035-1.358-0.102c-0.844-0.127-1.65-0.374-2.402-0.718c-3.126-1.431-5.304-4.587-5.304-8.244
			c0-2.159,0.76-4.143,2.025-5.702c0.528-0.651,1.145-1.226,1.831-1.71C24.447,21.042,26.242,20.43,28.179,20.43L28.179,20.43z
			 M10.44,31.721c0-4.538,3.667-8.235,8.193-8.286c-1.116,1.753-1.764,3.831-1.764,6.058c0,4.103,2.196,7.701,5.474,9.684
			c-1.093,0.532-2.32,0.831-3.615,0.831C14.158,40.009,10.44,36.291,10.44,31.721L10.44,31.721z M16.304,42.433
			c-4.747,3.466-7.929,8.952-8.273,15.182H2.283C2.807,49.857,8.723,43.554,16.304,42.433L16.304,42.433z M10.279,57.614
			c0.421-6.783,4.631-12.557,10.533-15.226c1.318-0.597,2.72-1.038,4.183-1.301c1.034-0.186,2.097-0.284,3.184-0.284
			c1.086,0,2.15,0.098,3.184,0.284c1.464,0.264,2.866,0.704,4.183,1.301c5.902,2.67,10.111,8.443,10.532,15.226H10.279z
			 M48.327,57.614c-0.343-6.23-3.526-11.715-8.272-15.182c7.58,1.122,13.496,7.425,14.02,15.182H48.327z M48.327,57.614"/>
	</g>
	<path d="M20.002,44.694c-3.664,2.189-6.336,5.815-7.329,9.948c-0.144,0.603,0.226,1.209,0.829,1.354
		c0.088,0.021,0.176,0.031,0.264,0.031c0.507,0,0.967-0.346,1.091-0.861c0.853-3.549,3.148-6.664,6.297-8.546
		c0.532-0.318,0.706-1.007,0.389-1.54C21.224,44.55,20.535,44.376,20.002,44.694L20.002,44.694z M20.002,44.694"/>
	<path d="M28.353,42.467c-0.063-0.011-0.127-0.018-0.193-0.018c-0.061,0-0.122,0.002-0.183,0.003
		c-1.185,0.013-2.365,0.156-3.509,0.427c-0.18,0.042-0.338,0.127-0.469,0.238c-0.31,0.265-0.465,0.689-0.365,1.113
		c0.123,0.516,0.583,0.864,1.092,0.864c0.086,0,0.173-0.01,0.26-0.03c0.786-0.186,1.593-0.303,2.406-0.348
		c0.255-0.014,0.511-0.022,0.767-0.022c0.62,0,1.123-0.502,1.123-1.123C29.283,43.018,28.881,42.559,28.353,42.467L28.353,42.467z
		 M28.353,42.467"/>
	<path style="fill:#BDCCD4;" d="M3.162,19.702l1.84-1.832c1.497-1.491,3.525-2.329,5.638-2.329h13.638
		c2.183,0,3.953-1.769,3.953-3.953V5.191c0-2.183-1.77-3.953-3.953-3.953H7.115c-2.183,0-3.953,1.769-3.953,3.953V19.702z
		 M3.162,19.702"/>
	<path d="M3.162,20.893c-0.154,0-0.309-0.03-0.457-0.091c-0.445-0.185-0.735-0.618-0.735-1.1V5.191c0-2.836,2.308-5.144,5.145-5.144
		h17.163c2.837,0,5.145,2.308,5.145,5.144v6.398c0,2.836-2.308,5.144-5.145,5.144H10.64c-1.81,0-3.514,0.704-4.797,1.981
		l-1.84,1.832C3.775,20.773,3.471,20.893,3.162,20.893L3.162,20.893z M7.115,2.43c-1.522,0-2.762,1.238-2.762,2.761v11.649
		c1.709-1.607,3.93-2.49,6.286-2.49h13.639c1.522,0,2.761-1.238,2.761-2.761V5.191c0-1.522-1.238-2.761-2.761-2.761H7.115z
		 M7.115,2.43"/>
	<path d="M24.148,7.465H7.245c-0.658,0-1.192-0.533-1.192-1.191c0-0.658,0.533-1.192,1.192-1.192h16.903
		c0.658,0,1.192,0.533,1.192,1.192C25.34,6.932,24.807,7.465,24.148,7.465L24.148,7.465z M24.148,7.465"/>
	<path d="M24.148,11.728H7.245c-0.658,0-1.192-0.533-1.192-1.191c0-0.658,0.533-1.192,1.192-1.192h16.903
		c0.658,0,1.192,0.533,1.192,1.192C25.34,11.195,24.807,11.728,24.148,11.728L24.148,11.728z M24.148,11.728"/>
	<path style="fill:#BDCCD4;" d="M53.409,19.702l-1.413-1.407c-1.15-1.145-2.707-1.788-4.329-1.788H37.194
		c-1.676,0-3.035-1.359-3.035-3.035V8.559c0-1.677,1.359-3.035,3.035-3.035h13.18c1.677,0,3.035,1.359,3.035,3.035L53.409,19.702
		L53.409,19.702z M53.409,19.702"/>
	<path d="M53.409,20.893c-0.309,0-0.613-0.12-0.841-0.347l-1.413-1.407c-0.933-0.929-2.172-1.441-3.488-1.441H37.194
		c-2.331,0-4.227-1.896-4.227-4.227V8.559c0-2.331,1.896-4.227,4.227-4.227h13.18c2.331,0,4.227,1.896,4.227,4.227v11.143
		c0,0.482-0.29,0.916-0.734,1.1C53.718,20.864,53.563,20.893,53.409,20.893L53.409,20.893z M37.194,6.716
		c-1.017,0-1.844,0.827-1.844,1.844v4.913c0,1.017,0.827,1.844,1.844,1.844h10.472c1.673,0,3.261,0.557,4.551,1.583v-8.34
		c0-1.017-0.827-1.844-1.844-1.844H37.194z M37.194,6.716"/>
	<path d="M49.155,12.389H38.413c-0.658,0-1.192-0.533-1.192-1.192c0-0.658,0.533-1.192,1.192-1.192h10.742
		c0.658,0,1.192,0.534,1.192,1.192C50.347,11.856,49.813,12.389,49.155,12.389L49.155,12.389z M49.155,12.389"/>
</g>
</svg>
