<?xml version="1.0" encoding="iso-8859-1"?>
<!-- Generator: Adobe Illustrator 21.1.0, SVG Export Plug-In . SVG Version: 6.00 Build 0)  -->
<svg version="1.1" id="Layer_1" xmlns="http://www.w3.org/2000/svg" xmlns:xlink="http://www.w3.org/1999/xlink" x="0px" y="0px"
	 viewBox="177 367.001 60 60" style="enable-background:new 177 367.001 60 60;" xml:space="preserve">
<g>
	<circle style="fill:#FFF082;" cx="207" cy="397.001" r="18.75"/>
	<circle style="fill:#FFFFFF;" cx="207" cy="402.626" r="11.25"/>
	<path style="fill:#E6AF78;" d="M211.62,408.304l-2.242-1.174c-0.309-0.162-0.503-0.482-0.503-0.831v-1.798h-3.75v1.798
		c0,0.349-0.194,0.669-0.503,0.831l-2.242,1.174c-0.618,0.324-1.005,0.964-1.005,1.661v6.412c0,2.036,0.603,4.028,1.732,5.722
		l0.143,0.215h7.5l0.143-0.214c1.129-1.695,1.732-3.686,1.732-5.722v-6.412C212.625,409.267,212.238,408.628,211.62,408.304z"/>
	<path style="fill:#FFF082;" d="M211.62,408.304l-1.193-0.625c-0.856,0.923-2.069,1.509-3.427,1.509s-2.571-0.586-3.427-1.509
		l-1.193,0.625c-0.618,0.324-1.005,0.964-1.005,1.661v6.412c0,2.036,0.603,4.027,1.732,5.722l0.143,0.214h7.5l0.143-0.214
		c1.129-1.695,1.732-3.686,1.732-5.722v-6.412C212.625,409.267,212.238,408.628,211.62,408.304z"/>
	<path style="fill:#F0C087;" d="M207,405.438L207,405.438c-2.071,0-3.75-1.679-3.75-3.75v-1.875c0-1.553,1.259-2.813,2.813-2.813
		h1.875c1.553,0,2.813,1.259,2.813,2.813v1.875C210.75,403.759,209.071,405.438,207,405.438z"/>
	<path style="fill:#E6AF78;" d="M206.063,401.688v-1.875c0-1.393,1.015-2.541,2.344-2.765c-0.153-0.026-0.308-0.047-0.469-0.047
		h-1.875c-1.553,0-2.813,1.259-2.813,2.813v1.875c0,2.071,1.679,3.75,3.75,3.75c0.498,0,0.971-0.102,1.406-0.278
		C207.033,404.603,206.063,403.261,206.063,401.688z"/>
	<path style="fill:#7F8499;" d="M210.75,422.313h-7.5v2.813c0,0.518,0.42,0.938,0.938,0.938h5.625c0.518,0,0.938-0.42,0.938-0.938
		V422.313z"/>
	<path style="fill:#694B4B;" d="M203.25,399.813c0,0,2.813,0.938,7.5,0.938v-0.938c0-1.553-1.259-2.813-2.813-2.813h-1.875
		C204.509,397.001,203.25,398.26,203.25,399.813L203.25,399.813z"/>
	<path style="fill:#5A4146;" d="M206.063,399.813c0-1.393,1.015-2.541,2.344-2.765c-0.153-0.026-0.308-0.047-0.469-0.047h-1.875
		c-1.553,0-2.813,1.259-2.813,2.813c0,0,1.008,0.333,2.813,0.603V399.813z"/>
	<g>
		<path style="fill:#FFDC64;" d="M204.188,411.969c0-0.572-0.261-1.113-0.709-1.469l-1.849-1.467
			c-0.161,0.279-0.254,0.598-0.254,0.932v6.412c0,2.035,0.602,4.025,1.73,5.719l0.145,0.218h0.938V411.969z"/>
		<path style="fill:#FFDC64;" d="M209.813,411.969c0-0.572,0.261-1.113,0.709-1.469l1.849-1.467
			c0.161,0.279,0.254,0.598,0.254,0.932v6.412c0,2.035-0.602,4.025-1.73,5.719l-0.145,0.218h-0.938V411.969z"/>
	</g>
	<path d="M220.535,382.733c-3.951-3.75-9.134-5.657-14.593-5.371c-4.921,0.258-9.553,2.388-13.043,5.997
		c-3.488,3.607-5.463,8.308-5.562,13.238c-0.088,4.35,1.218,8.499,3.774,11.997c2.341,3.203,5.651,5.659,9.373,6.968v3.131
		c0,0.732,0.215,1.442,0.621,2.051l0.932,1.398c0.213,0.32,0.326,0.692,0.326,1.076v1.965c0,1.003,0.816,1.818,1.818,1.818h5.636
		c1.003,0,1.818-0.816,1.818-1.818v-1.965c0-0.384,0.113-0.756,0.326-1.076l0.932-1.398c0.406-0.609,0.621-1.318,0.621-2.05l0-2.441
		c0-0.406,0.248-0.774,0.617-0.918c3.651-1.421,6.77-3.879,9.018-7.107c2.301-3.304,3.517-7.186,3.517-11.226
		C226.667,391.552,224.489,386.485,220.535,382.733z M209.818,425.243h-5.636c-0.033,0-0.06-0.027-0.06-0.061v-1.939h5.757v1.939
		C209.879,425.216,209.852,425.243,209.818,425.243z M221.707,407.223c-2.048,2.941-4.888,5.179-8.213,6.474
		c-1.039,0.404-1.737,1.432-1.737,2.556l0,2.441c0,0.384-0.113,0.756-0.326,1.076l-0.932,1.398c-0.069,0.103-0.13,0.21-0.188,0.319
		h-6.624c-0.058-0.109-0.119-0.215-0.188-0.319l-0.932-1.398c-0.213-0.32-0.326-0.692-0.326-1.076v-8.319
		c0-0.381,0.212-0.724,0.553-0.894l1.526-0.763l1.393,1.393c0.343,0.343,0.8,0.533,1.286,0.533c0.486,0,0.942-0.189,1.286-0.533
		l1.393-1.393l1.526,0.763c0.341,0.171,0.553,0.513,0.553,0.894v0.717c0,0.486,0.393,0.879,0.879,0.879
		c0.486,0,0.879-0.393,0.879-0.879v-0.717c0-1.051-0.584-1.996-1.524-2.467l-2.2-1.1c-0.02-0.01-0.033-0.031-0.033-0.054v-1.331
		c1.139-0.846,1.879-2.2,1.879-3.725v-1.879c0-2.039-1.658-3.697-3.697-3.697h-1.879c-2.039,0-3.697,1.658-3.697,3.697v1.879
		c0,1.524,0.74,2.879,1.879,3.725v1.331c0,0.023-0.013,0.044-0.033,0.054l-2.2,1.1c-0.94,0.47-1.524,1.415-1.524,2.467v3.313
		c-3.152-1.236-5.945-3.381-7.954-6.131c-2.328-3.185-3.516-6.963-3.436-10.925c0.09-4.484,1.89-8.764,5.068-12.051
		c3.179-3.288,7.395-5.228,11.871-5.463c4.972-0.261,9.693,1.476,13.291,4.89c3.601,3.417,5.584,8.031,5.584,12.993
		C224.909,400.68,223.802,404.215,221.707,407.223z M207,404.577c-1.587,0-2.879-1.291-2.879-2.879v-1.879
		c0-1.069,0.87-1.939,1.939-1.939h1.879c1.069,0,1.939,0.87,1.939,1.939v1.879C209.879,403.285,208.587,404.577,207,404.577z
		 M208,406.334v0.419c0,0.328,0.087,0.641,0.244,0.912l-1.201,1.202c-0.004,0.004-0.018,0.018-0.043,0.018s-0.038-0.013-0.043-0.018
		l-1.201-1.201c0.157-0.271,0.244-0.583,0.244-0.912v-0.419H208L208,406.334z"/>
	<path d="M185.334,397.001c0-0.486-0.393-0.879-0.879-0.879h-6.576c-0.486,0-0.879,0.393-0.879,0.879s0.393,0.879,0.879,0.879h6.576
		C184.94,397.88,185.334,397.486,185.334,397.001z"/>
	<path d="M236.121,396.122h-6.576c-0.486,0-0.879,0.393-0.879,0.879s0.393,0.879,0.879,0.879h6.576c0.486,0,0.879-0.393,0.879-0.879
		S236.607,396.122,236.121,396.122z"/>
	<path d="M207,375.334c0.486,0,0.879-0.393,0.879-0.879v-6.576c0-0.486-0.393-0.879-0.879-0.879s-0.879,0.393-0.879,0.879v6.576
		C206.121,374.941,206.514,375.334,207,375.334z"/>
	<path d="M196.167,415.765c-0.421-0.243-0.958-0.099-1.201,0.322l-1.879,3.254c-0.243,0.42-0.099,0.958,0.322,1.201
		c0.139,0.08,0.29,0.118,0.439,0.118c0.304,0,0.599-0.158,0.762-0.44l1.879-3.254C196.731,416.545,196.587,416.007,196.167,415.765z
		"/>
	<path d="M217.833,378.237c0.139,0.08,0.29,0.118,0.439,0.118c0.304,0,0.599-0.158,0.762-0.44l1.879-3.254
		c0.243-0.42,0.099-0.958-0.322-1.201c-0.421-0.243-0.958-0.099-1.201,0.322l-1.879,3.254
		C217.269,377.457,217.413,377.994,217.833,378.237z"/>
	<path d="M183.782,384.611l3.254,1.879c0.139,0.08,0.29,0.118,0.439,0.118c0.304,0,0.599-0.158,0.762-0.44
		c0.243-0.42,0.099-0.958-0.322-1.201l-3.254-1.879c-0.421-0.243-0.958-0.099-1.201,0.322
		C183.217,383.83,183.361,384.368,183.782,384.611z"/>
	<path d="M230.218,409.391l-3.254-1.879c-0.421-0.243-0.958-0.099-1.201,0.322c-0.243,0.42-0.099,0.958,0.322,1.201l3.254,1.879
		c0.139,0.08,0.29,0.118,0.439,0.118c0.304,0,0.599-0.158,0.762-0.44C230.783,410.171,230.639,409.634,230.218,409.391z"/>
	<path d="M219.034,416.086c-0.243-0.42-0.78-0.564-1.201-0.322c-0.42,0.243-0.564,0.78-0.322,1.201l1.879,3.254
		c0.163,0.282,0.458,0.44,0.762,0.44c0.149,0,0.3-0.038,0.439-0.118c0.42-0.243,0.564-0.78,0.322-1.201L219.034,416.086z"/>
	<path d="M194.966,377.915c0.163,0.282,0.458,0.44,0.762,0.44c0.149,0,0.3-0.038,0.439-0.118c0.42-0.243,0.564-0.78,0.322-1.201
		l-1.879-3.254c-0.243-0.42-0.78-0.564-1.201-0.322c-0.42,0.243-0.564,0.78-0.322,1.201L194.966,377.915z"/>
	<path d="M226.526,386.607c0.149,0,0.3-0.038,0.439-0.118l3.254-1.879c0.42-0.243,0.564-0.78,0.322-1.201
		c-0.243-0.42-0.78-0.564-1.201-0.322l-3.254,1.879c-0.42,0.243-0.564,0.78-0.322,1.201
		C225.926,386.45,226.222,386.607,226.526,386.607z"/>
	<path d="M187.036,407.512l-3.254,1.879c-0.42,0.243-0.564,0.78-0.322,1.201c0.163,0.282,0.458,0.44,0.762,0.44
		c0.149,0,0.3-0.038,0.439-0.118l3.254-1.879c0.42-0.243,0.564-0.78,0.322-1.201C187.994,407.414,187.456,407.27,187.036,407.512z"
		/>
	<path d="M221.753,391.036c-1.886-4.661-5.914-8.191-10.774-9.442c-0.47-0.121-0.949,0.162-1.07,0.632
		c-0.121,0.47,0.162,0.949,0.632,1.07c4.322,1.113,7.905,4.253,9.583,8.4c0.138,0.342,0.467,0.549,0.815,0.549
		c0.11,0,0.221-0.021,0.329-0.064C221.718,391.998,221.935,391.486,221.753,391.036z"/>
</g>
</svg>
