<?xml version="1.0" encoding="iso-8859-1"?>
<!-- Generator: Adobe Illustrator 21.1.0, SVG Export Plug-In . SVG Version: 6.00 Build 0)  -->
<svg version="1.1" id="Layer_1" xmlns="http://www.w3.org/2000/svg" xmlns:xlink="http://www.w3.org/1999/xlink" x="0px" y="0px"
	 viewBox="172.001 367.663 70 58.675" style="enable-background:new 172.001 367.663 70 58.675;" xml:space="preserve">
<g>
	<path style="fill:#B4E66E;" d="M231.915,400.398V384.81c0-0.858-0.485-1.642-1.252-2.026l-2.652-1.326
		c-0.384-0.192-0.626-0.584-0.626-1.013v-2.698h-4.53v2.698c0,0.429-0.242,0.821-0.626,1.013l-2.652,1.326
		c-0.767,0.384-1.252,1.168-1.252,2.026v15.588H231.915z"/>
	<rect x="220.59" y="400.398" style="fill:#7F8499;" width="9.06" height="14.722"/>
	<rect x="224.554" y="383.411" style="fill:#A0D755;" width="1.132" height="16.987"/>
	<path style="fill:#E6AF78;" d="M225.12,383.411L225.12,383.411c-1.251,0-2.265-1.014-2.265-2.265v-3.397h4.53v3.397
		C227.385,382.397,226.371,383.411,225.12,383.411z"/>
	<path style="fill:#F0C087;" d="M225.12,378.881L225.12,378.881c-2.502,0-4.53-2.028-4.53-4.53v-2.265
		c0-1.876,1.521-3.397,3.397-3.397h2.265c1.876,0,3.397,1.521,3.397,3.397v2.265C229.65,376.853,227.622,378.881,225.12,378.881z"/>
	<path style="fill:#E6AF78;" d="M223.988,374.351v-2.265c0-1.682,1.226-3.07,2.831-3.34c-0.185-0.031-0.372-0.057-0.566-0.057
		h-2.265c-1.876,0-3.397,1.521-3.397,3.397v2.265c0,2.502,2.028,4.53,4.53,4.53c0.602,0,1.173-0.123,1.699-0.336
		C225.16,377.872,223.988,376.251,223.988,374.351z"/>
	<path style="fill:#694B4B;" d="M220.59,372.086c0,0,3.397,1.132,9.06,1.132v-1.132c0-1.876-1.521-3.397-3.397-3.397h-2.265
		C222.111,368.688,220.59,370.209,220.59,372.086L220.59,372.086z"/>
	<path style="fill:#5A4146;" d="M223.988,372.086c0-1.682,1.226-3.07,2.831-3.34c-0.185-0.031-0.372-0.057-0.566-0.057h-2.265
		c-1.876,0-3.397,1.521-3.397,3.397c0,0,1.218,0.403,3.397,0.728V372.086z"/>
	<g>
		<path style="fill:#A0D755;" d="M220.817,384.996l-2.031-1.524c-0.284,0.383-0.46,0.843-0.46,1.338v15.588h3.397v-13.59
			C221.723,386.095,221.387,385.424,220.817,384.996z"/>
		<path style="fill:#A0D755;" d="M229.424,384.996l2.032-1.524c0.284,0.383,0.46,0.843,0.46,1.338v15.588h-3.397v-13.59
			C228.518,386.095,228.853,385.424,229.424,384.996z"/>
	</g>
	<path style="fill:#FFF082;" d="M195.676,400.398V384.81c0-0.858-0.485-1.642-1.252-2.026l-2.652-1.326
		c-0.384-0.192-0.626-0.584-0.626-1.013v-2.698h-4.53v2.698c0,0.429-0.242,0.821-0.626,1.013l-2.652,1.326
		c-0.767,0.384-1.252,1.168-1.252,2.026v15.588H195.676z"/>
	<rect x="184.35" y="400.398" style="fill:#707487;" width="9.06" height="14.722"/>
	<rect x="188.315" y="383.411" style="fill:#FFDC64;" width="1.132" height="16.987"/>
	<path style="fill:#E6AF78;" d="M188.881,383.411L188.881,383.411c-1.251,0-2.265-1.014-2.265-2.265v-3.397h4.53v3.397
		C191.146,382.397,190.132,383.411,188.881,383.411z"/>
	<path style="fill:#F0C087;" d="M188.881,378.881L188.881,378.881c-2.502,0-4.53-2.028-4.53-4.53v-2.265
		c0-1.876,1.521-3.397,3.397-3.397h2.265c1.876,0,3.397,1.521,3.397,3.397v2.265C193.411,376.853,191.383,378.881,188.881,378.881z"
		/>
	<path style="fill:#E6AF78;" d="M187.748,374.351v-2.265c0-1.682,1.226-3.07,2.831-3.34c-0.185-0.031-0.372-0.057-0.566-0.057
		h-2.265c-1.876,0-3.397,1.521-3.397,3.397v2.265c0,2.502,2.028,4.53,4.53,4.53c0.602,0,1.173-0.123,1.699-0.336
		C188.921,377.872,187.748,376.251,187.748,374.351z"/>
	<path style="fill:#694B4B;" d="M184.351,372.086c0,0,3.397,1.132,9.06,1.132v-1.132c0-1.876-1.521-3.397-3.397-3.397h-2.265
		C185.872,368.688,184.351,370.209,184.351,372.086L184.351,372.086z"/>
	<path style="fill:#5A4146;" d="M187.748,372.086c0-1.682,1.226-3.07,2.831-3.34c-0.185-0.031-0.372-0.057-0.566-0.057h-2.265
		c-1.876,0-3.397,1.521-3.397,3.397c0,0,1.218,0.403,3.397,0.728L187.748,372.086L187.748,372.086z"/>
	<g>
		<path style="fill:#FFDC64;" d="M184.577,384.996l-2.032-1.524c-0.284,0.383-0.46,0.843-0.46,1.338v15.588h3.397v-13.59
			C185.483,386.095,185.148,385.424,184.577,384.996z"/>
		<path style="fill:#FFDC64;" d="M193.184,384.996l2.032-1.524c0.284,0.383,0.46,0.843,0.46,1.338v15.588h-3.397v-13.59
			C192.278,386.095,192.614,385.424,193.184,384.996z"/>
	</g>
	<path style="fill:#E2E7F2;" d="M213.795,400.398V384.81c0-0.858-0.485-1.642-1.252-2.026l-2.652-1.326
		c-0.384-0.192-0.626-0.584-0.626-1.013v-2.698h-4.53v2.698c0,0.429-0.242,0.821-0.626,1.013l-2.652,1.326
		c-0.767,0.384-1.252,1.168-1.252,2.026v15.588H213.795z"/>
	<rect x="202.471" y="400.398" style="fill:#7F8499;" width="9.06" height="14.722"/>
	<rect x="206.434" y="383.411" style="fill:#C7CFE2;" width="1.132" height="16.987"/>
	<path style="fill:#E6AF78;" d="M207,383.411L207,383.411c-1.251,0-2.265-1.014-2.265-2.265v-3.397h4.53v3.397
		C209.265,382.397,208.251,383.411,207,383.411z"/>
	<path style="fill:#F0C087;" d="M207,378.881L207,378.881c-2.502,0-4.53-2.028-4.53-4.53v-2.265c0-1.876,1.521-3.397,3.397-3.397
		h2.265c1.876,0,3.397,1.521,3.397,3.397v2.265C211.53,376.853,209.502,378.881,207,378.881z"/>
	<path style="fill:#E6AF78;" d="M205.868,374.351v-2.265c0-1.682,1.226-3.07,2.831-3.34c-0.185-0.031-0.372-0.057-0.566-0.057
		h-2.265c-1.876,0-3.397,1.521-3.397,3.397v2.265c0,2.502,2.028,4.53,4.53,4.53c0.602,0,1.173-0.123,1.699-0.336
		C207.04,377.872,205.868,376.251,205.868,374.351z"/>
	<path style="fill:#694B4B;" d="M202.471,372.086c0,0,3.397,1.132,9.06,1.132v-1.132c0-1.876-1.521-3.397-3.397-3.397h-2.265
		C203.992,368.688,202.471,370.209,202.471,372.086L202.471,372.086z"/>
	<path style="fill:#5A4146;" d="M205.868,372.086c0-1.682,1.226-3.07,2.831-3.34c-0.185-0.031-0.372-0.057-0.566-0.057h-2.265
		c-1.876,0-3.397,1.521-3.397,3.397c0,0,1.218,0.403,3.397,0.728L205.868,372.086L205.868,372.086z"/>
	<g>
		<path style="fill:#C7CFE2;" d="M202.697,384.996l-2.031-1.524c-0.284,0.383-0.46,0.843-0.46,1.338v15.588h3.397v-13.59
			C203.603,386.095,203.267,385.424,202.697,384.996z"/>
		<path style="fill:#C7CFE2;" d="M211.304,384.996l2.031-1.524c0.284,0.383,0.46,0.843,0.46,1.338v15.588h-3.397v-13.59
			C210.398,386.095,210.734,385.424,211.304,384.996z"/>
	</g>
	<path style="fill:#00C3FF;" d="M185.364,402.037l-2.652-1.326c-0.384-0.192-0.626-0.584-0.626-1.013V397h-4.53v2.698
		c0,0.429-0.242,0.821-0.626,1.013l-2.652,1.326c-0.767,0.384-1.252,1.168-1.252,2.026v11.161c0,0.671,0.199,1.326,0.571,1.885
		l1.124,1.686c0.372,0.558,0.571,1.214,0.571,1.885v4.634h9.06v-4.634c0-0.671,0.199-1.326,0.571-1.885l1.124-1.686
		c0.372-0.558,0.571-1.214,0.571-1.885v-11.161C186.616,403.205,186.131,402.421,185.364,402.037z"/>
	<g>
		<path style="fill:#00AAF0;" d="M174.72,418.794c0.372,0.558,0.571,1.214,0.571,1.885v0.104h1.132V406.06
			c0-0.713-0.336-1.384-0.906-1.812l-2.032-1.524c-0.284,0.383-0.46,0.843-0.46,1.338v11.161c0,0.671,0.199,1.326,0.571,1.885
			L174.72,418.794z"/>
		<path style="fill:#00AAF0;" d="M184.921,418.794c-0.372,0.558-0.571,1.214-0.571,1.885v0.104h-1.132V406.06
			c0-0.713,0.336-1.384,0.906-1.812l2.032-1.524c0.284,0.383,0.46,0.843,0.46,1.338v11.161c0,0.671-0.199,1.326-0.571,1.885
			L184.921,418.794z"/>
	</g>
	<rect x="175.291" y="418.517" style="fill:#7F8499;" width="9.06" height="6.795"/>
	<path style="fill:#707487;" d="M179.821,420.783c-0.313,0-0.566,0.253-0.566,0.566v3.964h1.132v-3.964
		C180.387,421.036,180.133,420.783,179.821,420.783z"/>
	<rect x="179.255" y="402.663" style="fill:#00AAF0;" width="1.132" height="15.855"/>
	<path style="fill:#E6AF78;" d="M179.821,402.663L179.821,402.663c-1.251,0-2.265-1.014-2.265-2.265V397h4.53v3.397
		C182.086,401.649,181.072,402.663,179.821,402.663z"/>
	<path style="fill:#F0C087;" d="M179.821,398.133L179.821,398.133c-2.502,0-4.53-2.028-4.53-4.53v-2.265
		c0-1.876,1.521-3.397,3.397-3.397h2.265c1.876,0,3.397,1.521,3.397,3.397v2.265C184.351,396.105,182.323,398.133,179.821,398.133z"
		/>
	<path style="fill:#E6AF78;" d="M178.688,393.603v-2.265c0-1.682,1.226-3.07,2.831-3.34c-0.185-0.031-0.372-0.057-0.566-0.057
		h-2.265c-1.876,0-3.397,1.521-3.397,3.397v2.265c0,2.502,2.028,4.53,4.53,4.53c0.602,0,1.173-0.123,1.699-0.336
		C179.861,397.124,178.688,395.503,178.688,393.603z"/>
	<path style="fill:#694B4B;" d="M175.291,391.338c0,0,3.397,1.132,9.06,1.132v-1.132c0-1.876-1.521-3.397-3.397-3.397h-2.265
		C176.812,387.941,175.291,389.462,175.291,391.338L175.291,391.338z"/>
	<path style="fill:#5A4146;" d="M178.688,391.338c0-1.682,1.226-3.07,2.831-3.34c-0.185-0.031-0.372-0.057-0.566-0.057h-2.265
		c-1.876,0-3.397,1.521-3.397,3.397c0,0,1.218,0.403,3.397,0.728V391.338z"/>
	<path style="fill:#AFB9D2;" d="M203.483,402.037l-2.652-1.326c-0.384-0.192-0.626-0.584-0.626-1.013V397h-4.53v2.698
		c0,0.429-0.242,0.821-0.626,1.013l-2.652,1.326c-0.767,0.384-1.252,1.168-1.252,2.026v11.161c0,0.671,0.199,1.326,0.571,1.885
		l1.124,1.686c0.372,0.558,0.571,1.214,0.571,1.885v4.634h9.06v-4.634c0-0.671,0.199-1.326,0.571-1.885l1.124-1.686
		c0.372-0.558,0.571-1.214,0.571-1.885v-11.161C204.735,403.205,204.251,402.421,203.483,402.037z"/>
	<g>
		<path style="fill:#959CB5;" d="M192.84,418.794c0.372,0.558,0.571,1.214,0.571,1.885v0.104h1.132V406.06
			c0-0.713-0.336-1.384-0.906-1.812l-2.031-1.524c-0.284,0.383-0.46,0.843-0.46,1.338v11.161c0,0.671,0.199,1.326,0.571,1.885
			L192.84,418.794z"/>
		<path style="fill:#959CB5;" d="M203.041,418.794c-0.372,0.558-0.571,1.214-0.571,1.885v0.104h-1.132V406.06
			c0-0.713,0.336-1.384,0.906-1.812l2.031-1.524c0.284,0.383,0.46,0.843,0.46,1.338v11.161c0,0.671-0.199,1.326-0.571,1.885
			L203.041,418.794z"/>
	</g>
	<rect x="193.411" y="418.517" style="fill:#707487;" width="9.06" height="6.795"/>
	<path style="fill:#5B5D6E;" d="M197.941,420.783c-0.313,0-0.566,0.253-0.566,0.566v3.964h1.132v-3.964
		C198.507,421.036,198.253,420.783,197.941,420.783z"/>
	<rect x="197.374" y="402.663" style="fill:#959CB5;" width="1.132" height="15.855"/>
	<path style="fill:#E6AF78;" d="M197.941,402.663L197.941,402.663c-1.251,0-2.265-1.014-2.265-2.265V397h4.53v3.397
		C200.206,401.649,199.191,402.663,197.941,402.663z"/>
	<path style="fill:#F0C087;" d="M197.941,398.133L197.941,398.133c-2.502,0-4.53-2.028-4.53-4.53v-2.265
		c0-1.876,1.521-3.397,3.397-3.397h2.265c1.876,0,3.397,1.521,3.397,3.397v2.265C202.471,396.105,200.442,398.133,197.941,398.133z"
		/>
	<path style="fill:#E6AF78;" d="M196.808,393.603v-2.265c0-1.682,1.226-3.07,2.831-3.34c-0.185-0.031-0.372-0.057-0.566-0.057
		h-2.265c-1.876,0-3.397,1.521-3.397,3.397v2.265c0,2.502,2.028,4.53,4.53,4.53c0.602,0,1.173-0.123,1.699-0.336
		C197.981,397.124,196.808,395.503,196.808,393.603z"/>
	<path style="fill:#694B4B;" d="M193.411,391.338c0,0,3.397,1.132,9.06,1.132v-1.132c0-1.876-1.521-3.397-3.397-3.397h-2.265
		C194.932,387.941,193.411,389.462,193.411,391.338L193.411,391.338z"/>
	<path style="fill:#5A4146;" d="M196.808,391.338c0-1.682,1.226-3.07,2.831-3.34c-0.185-0.031-0.372-0.057-0.566-0.057h-2.265
		c-1.876,0-3.397,1.521-3.397,3.397c0,0,1.218,0.403,3.397,0.728V391.338z"/>
	<path style="fill:#FF507D;" d="M221.603,402.037l-2.652-1.326c-0.384-0.192-0.626-0.584-0.626-1.013V397h-4.53v2.698
		c0,0.429-0.242,0.821-0.626,1.013l-2.652,1.326c-0.767,0.384-1.252,1.168-1.252,2.026v11.161c0,0.671,0.199,1.326,0.571,1.885
		l1.124,1.686c0.372,0.558,0.571,1.214,0.571,1.885v4.634h9.06v-4.634c0-0.671,0.199-1.326,0.571-1.885l1.124-1.686
		c0.372-0.558,0.571-1.214,0.571-1.885v-11.161C222.855,403.205,222.371,402.421,221.603,402.037z"/>
	<g>
		<path style="fill:#D23C69;" d="M210.96,418.794c0.372,0.558,0.571,1.214,0.571,1.885v0.104h1.132V406.06
			c0-0.713-0.336-1.384-0.906-1.812l-2.031-1.524c-0.284,0.383-0.46,0.843-0.46,1.338v11.161c0,0.671,0.199,1.326,0.571,1.885
			L210.96,418.794z"/>
		<path style="fill:#D23C69;" d="M221.161,418.794c-0.372,0.558-0.571,1.214-0.571,1.885v0.104h-1.132V406.06
			c0-0.713,0.336-1.384,0.906-1.812l2.031-1.524c0.284,0.383,0.46,0.843,0.46,1.338v11.161c0,0.671-0.199,1.326-0.571,1.885
			L221.161,418.794z"/>
	</g>
	<rect x="211.53" y="418.517" style="fill:#7F8499;" width="9.06" height="6.795"/>
	<path style="fill:#707487;" d="M216.06,420.783c-0.313,0-0.566,0.253-0.566,0.566v3.964h1.132v-3.964
		C216.627,421.036,216.373,420.783,216.06,420.783z"/>
	<rect x="215.493" y="402.663" style="fill:#D23C69;" width="1.132" height="15.855"/>
	<path style="fill:#E6AF78;" d="M216.06,402.663L216.06,402.663c-1.251,0-2.265-1.014-2.265-2.265V397h4.53v3.397
		C218.325,401.649,217.311,402.663,216.06,402.663z"/>
	<path style="fill:#F0C087;" d="M216.06,398.133L216.06,398.133c-2.502,0-4.53-2.028-4.53-4.53v-2.265
		c0-1.876,1.521-3.397,3.397-3.397h2.265c1.876,0,3.397,1.521,3.397,3.397v2.265C220.59,396.105,218.562,398.133,216.06,398.133z"/>
	<path style="fill:#E6AF78;" d="M214.928,393.603v-2.265c0-1.682,1.226-3.07,2.831-3.34c-0.185-0.031-0.372-0.057-0.566-0.057
		h-2.265c-1.876,0-3.397,1.521-3.397,3.397v2.265c0,2.502,2.028,4.53,4.53,4.53c0.602,0,1.173-0.123,1.699-0.336
		C216.1,397.124,214.928,395.503,214.928,393.603z"/>
	<path style="fill:#694B4B;" d="M211.53,391.338c0,0,3.397,1.132,9.06,1.132v-1.132c0-1.876-1.521-3.397-3.397-3.397h-2.265
		C213.051,387.941,211.53,389.462,211.53,391.338L211.53,391.338z"/>
	<path style="fill:#5A4146;" d="M214.928,391.338c0-1.682,1.226-3.07,2.831-3.34c-0.185-0.031-0.372-0.057-0.566-0.057h-2.265
		c-1.876,0-3.397,1.521-3.397,3.397c0,0,1.218,0.403,3.397,0.728L214.928,391.338L214.928,391.338z"/>
	<path style="fill:#C7CFE2;" d="M239.723,402.037l-2.652-1.326c-0.384-0.192-0.626-0.584-0.626-1.013V397h-4.53v2.698
		c0,0.429-0.242,0.821-0.626,1.013l-2.652,1.326c-0.767,0.384-1.252,1.168-1.252,2.026v11.161c0,0.671,0.199,1.326,0.571,1.885
		l1.124,1.686c0.372,0.558,0.571,1.214,0.571,1.885v4.634h9.06v-4.634c0-0.671,0.199-1.326,0.571-1.885l1.124-1.686
		c0.372-0.558,0.571-1.214,0.571-1.885v-11.161C240.975,403.205,240.49,402.421,239.723,402.037z"/>
	<g>
		<path style="fill:#AFB9D2;" d="M229.08,418.794c0.372,0.558,0.571,1.214,0.571,1.885v0.104h1.132V406.06
			c0-0.713-0.336-1.384-0.906-1.812l-2.031-1.524c-0.284,0.383-0.46,0.843-0.46,1.338v11.161c0,0.671,0.199,1.326,0.571,1.885
			L229.08,418.794z"/>
		<path style="fill:#AFB9D2;" d="M239.281,418.794c-0.372,0.558-0.571,1.214-0.571,1.885v0.104h-1.132V406.06
			c0-0.713,0.336-1.384,0.906-1.812l2.032-1.524c0.284,0.383,0.46,0.843,0.46,1.338v11.161c0,0.671-0.199,1.326-0.571,1.885
			L239.281,418.794z"/>
	</g>
	<rect x="229.651" y="418.517" style="fill:#7F8499;" width="9.06" height="6.795"/>
	<path style="fill:#707487;" d="M234.18,420.783c-0.313,0-0.566,0.253-0.566,0.566v3.964h1.132v-3.964
		C234.746,421.036,234.493,420.783,234.18,420.783z"/>
	<rect x="233.614" y="402.663" style="fill:#AFB9D2;" width="1.132" height="15.855"/>
	<path style="fill:#E6AF78;" d="M234.18,402.663L234.18,402.663c-1.251,0-2.265-1.014-2.265-2.265V397h4.53v3.397
		C236.445,401.649,235.431,402.663,234.18,402.663z"/>
	<path style="fill:#F0C087;" d="M234.18,398.133L234.18,398.133c-2.502,0-4.53-2.028-4.53-4.53v-2.265
		c0-1.876,1.521-3.397,3.397-3.397h2.265c1.876,0,3.397,1.521,3.397,3.397v2.265C238.71,396.105,236.682,398.133,234.18,398.133z"/>
	<path style="fill:#E6AF78;" d="M233.048,393.603v-2.265c0-1.682,1.226-3.07,2.831-3.34c-0.185-0.031-0.372-0.057-0.566-0.057
		h-2.265c-1.876,0-3.397,1.521-3.397,3.397v2.265c0,2.502,2.028,4.53,4.53,4.53c0.602,0,1.173-0.123,1.699-0.336
		C234.22,397.124,233.048,395.503,233.048,393.603z"/>
	<path style="fill:#694B4B;" d="M229.65,391.338c0,0,3.397,1.132,9.06,1.132v-1.132c0-1.876-1.521-3.397-3.397-3.397h-2.265
		C231.171,387.941,229.65,389.462,229.65,391.338L229.65,391.338z"/>
	<path style="fill:#5A4146;" d="M233.048,391.338c0-1.682,1.226-3.07,2.831-3.34c-0.185-0.031-0.372-0.057-0.566-0.057h-2.265
		c-1.876,0-3.397,1.521-3.397,3.397c0,0,1.218,0.403,3.397,0.728L233.048,391.338L233.048,391.338z"/>
	<path d="M240.181,401.12l-2.652-1.326c-0.037-0.018-0.059-0.055-0.059-0.096v-1.622c1.373-1.012,2.265-2.64,2.265-4.473v-2.265
		c0-2.439-1.984-4.423-4.423-4.423h-2.265c-0.036,0-0.071,0.002-0.107,0.003v-2.107c0-1.254-0.697-2.382-1.819-2.943l-2.652-1.326
		c-0.037-0.018-0.059-0.055-0.059-0.096v-1.622c1.373-1.012,2.265-2.64,2.265-4.473v-2.265c0-2.439-1.984-4.423-4.423-4.423h-2.264
		c-2.439,0-4.423,1.984-4.423,4.423v2.265c0,1.833,0.892,3.46,2.265,4.473v1.622c0,0.041-0.023,0.078-0.059,0.096l-2.652,1.326
		c-1.122,0.561-1.819,1.689-1.819,2.943v2.107c-0.036-0.001-0.071-0.003-0.107-0.003h-2.265c-0.036,0-0.071,0.002-0.107,0.003
		v-2.107c0-1.254-0.697-2.382-1.819-2.943l-2.652-1.326c-0.037-0.018-0.059-0.055-0.059-0.096v-1.622
		c1.373-1.012,2.265-2.64,2.265-4.473v-2.265c0-2.439-1.984-4.423-4.423-4.423h-2.265c-2.439,0-4.423,1.984-4.423,4.423v2.265
		c0,1.833,0.892,3.46,2.265,4.473v1.622c0,0.041-0.023,0.078-0.059,0.096l-2.652,1.326c-1.122,0.561-1.819,1.689-1.819,2.943v2.107
		c-0.036-0.001-0.071-0.003-0.107-0.003h-2.265c-0.036,0-0.071,0.002-0.107,0.003v-2.107c0-1.254-0.697-2.382-1.819-2.943
		l-2.652-1.326c-0.037-0.018-0.059-0.055-0.059-0.096v-1.622c1.373-1.012,2.265-2.64,2.265-4.473v-2.265
		c0-2.439-1.984-4.423-4.423-4.423h-2.265c-2.439,0-4.423,1.984-4.423,4.423v2.265c0,1.833,0.892,3.46,2.265,4.473v1.622
		c0,0.041-0.023,0.078-0.059,0.096l-2.652,1.326c-1.122,0.561-1.819,1.689-1.819,2.943v2.107c-0.036-0.001-0.071-0.003-0.107-0.003
		h-2.265c-2.439,0-4.423,1.984-4.423,4.423v2.265c0,1.833,0.892,3.46,2.265,4.473v1.622c0,0.041-0.023,0.078-0.059,0.096
		l-2.652,1.326c-1.122,0.561-1.819,1.689-1.819,2.943v11.161c0,0.876,0.257,1.724,0.743,2.453l1.124,1.686
		c0.261,0.391,0.399,0.846,0.399,1.316v4.634c0,0.566,0.459,1.025,1.025,1.025s1.025-0.459,1.025-1.025v-4.634
		c0-0.876-0.257-1.724-0.743-2.453l-1.124-1.686c-0.261-0.391-0.398-0.846-0.398-1.316v-11.161c0-0.473,0.262-0.897,0.685-1.109
		l1.862-0.931l1.697,1.697c0.421,0.421,0.973,0.631,1.526,0.631c0.552,0,1.105-0.21,1.526-0.631l1.697-1.697l1.862,0.931
		c0.423,0.211,0.685,0.636,0.685,1.109v11.161c0,0.47-0.138,0.925-0.398,1.316l-1.124,1.686c-0.486,0.729-0.743,1.577-0.743,2.453
		v4.634c0,0.566,0.459,1.025,1.025,1.025s1.025-0.459,1.025-1.025v-4.634c0-0.47,0.138-0.925,0.398-1.316l1.124-1.686
		c0.486-0.729,0.743-1.577,0.743-2.453v-11.161c0-1.254-0.697-2.382-1.819-2.943l-2.652-1.326c-0.037-0.018-0.059-0.055-0.059-0.096
		v-1.622c1.373-1.012,2.265-2.64,2.265-4.473v-2.265c0-1.656-0.915-3.101-2.265-3.859v-2.669c0-0.473,0.262-0.897,0.685-1.109
		l1.862-0.931l1.697,1.697c0.421,0.421,0.973,0.631,1.526,0.631s1.105-0.21,1.526-0.631l1.697-1.697l1.862,0.931
		c0.423,0.211,0.685,0.636,0.685,1.109v2.669c-1.35,0.758-2.265,2.203-2.265,3.859v2.265c0,1.833,0.892,3.46,2.265,4.473v1.622
		c0,0.041-0.023,0.078-0.059,0.096l-2.652,1.326c-1.122,0.561-1.819,1.689-1.819,2.943v11.161c0,0.876,0.257,1.725,0.743,2.453
		l1.124,1.686c0.261,0.391,0.398,0.846,0.398,1.316v4.634c0,0.566,0.459,1.025,1.025,1.025s1.025-0.459,1.025-1.025v-4.634
		c0-0.876-0.257-1.724-0.743-2.453l-1.124-1.686c-0.261-0.391-0.398-0.846-0.398-1.316v-11.161c0-0.473,0.262-0.897,0.685-1.109
		l1.862-0.931l1.697,1.697c0.421,0.421,0.973,0.631,1.526,0.631c0.552,0,1.105-0.21,1.526-0.631l1.697-1.697l1.862,0.931
		c0.423,0.211,0.685,0.636,0.685,1.109v11.161c0,0.47-0.138,0.925-0.398,1.316l-1.124,1.686c-0.486,0.729-0.743,1.577-0.743,2.453
		v4.634c0,0.566,0.459,1.025,1.025,1.025s1.025-0.459,1.025-1.025v-4.634c0-0.47,0.138-0.925,0.398-1.316l1.124-1.686
		c0.486-0.729,0.743-1.577,0.743-2.453v-11.161c0-1.254-0.697-2.382-1.819-2.943l-2.652-1.326c-0.037-0.018-0.059-0.055-0.059-0.096
		v-1.622c1.373-1.012,2.265-2.64,2.265-4.473v-2.265c0-1.656-0.915-3.101-2.265-3.859v-2.669c0-0.473,0.262-0.897,0.685-1.109
		l1.862-0.931l1.697,1.697c0.421,0.421,0.973,0.631,1.526,0.631s1.105-0.21,1.526-0.631l1.697-1.697l1.862,0.931
		c0.423,0.211,0.685,0.636,0.685,1.109v2.669c-1.35,0.758-2.265,2.203-2.265,3.859v2.265c0,1.833,0.892,3.46,2.265,4.473v1.622
		c0,0.041-0.023,0.078-0.059,0.096l-2.652,1.326c-1.122,0.561-1.819,1.689-1.819,2.943v11.161c0,0.876,0.257,1.725,0.743,2.453
		l1.124,1.686c0.261,0.391,0.399,0.846,0.399,1.316v4.634c0,0.566,0.459,1.025,1.025,1.025s1.025-0.459,1.025-1.025v-4.634
		c0-0.876-0.257-1.724-0.743-2.453l-1.124-1.686c-0.261-0.391-0.398-0.846-0.398-1.316v-11.161c0-0.473,0.263-0.897,0.685-1.109
		l1.862-0.931l1.697,1.697c0.421,0.421,0.973,0.631,1.526,0.631c0.553,0,1.105-0.21,1.526-0.631l1.697-1.697l1.862,0.931
		c0.423,0.211,0.685,0.636,0.685,1.109v11.161c0,0.47-0.138,0.925-0.398,1.316l-1.124,1.686c-0.486,0.729-0.743,1.577-0.743,2.453
		v4.634c0,0.566,0.459,1.025,1.025,1.025c0.566,0,1.025-0.459,1.025-1.025v-4.634c0-0.47,0.138-0.925,0.398-1.316l1.124-1.686
		c0.486-0.729,0.743-1.577,0.743-2.453v-11.161c0-1.254-0.697-2.382-1.819-2.943l-2.652-1.326c-0.037-0.018-0.059-0.055-0.059-0.096
		v-1.622c1.373-1.012,2.265-2.64,2.265-4.473v-2.265c0-1.656-0.915-3.101-2.265-3.859v-2.669c0-0.473,0.263-0.897,0.685-1.109
		l1.862-0.931l1.697,1.697c0.421,0.421,0.973,0.631,1.526,0.631c0.552,0,1.105-0.21,1.526-0.631l1.697-1.697l1.862,0.931
		c0.423,0.211,0.685,0.636,0.685,1.109v2.669c-1.35,0.758-2.265,2.203-2.265,3.859v2.265c0,1.833,0.892,3.46,2.265,4.473v1.622
		c0,0.041-0.023,0.078-0.059,0.096l-2.652,1.326c-1.122,0.561-1.819,1.689-1.819,2.943v11.161c0,0.876,0.257,1.725,0.743,2.453
		l1.124,1.686c0.261,0.391,0.398,0.846,0.398,1.316v4.634c0,0.566,0.459,1.025,1.025,1.025s1.025-0.459,1.025-1.025v-4.634
		c0-0.876-0.257-1.724-0.743-2.453l-1.124-1.686c-0.261-0.391-0.398-0.846-0.398-1.316v-11.161c0-0.473,0.263-0.897,0.685-1.109
		l1.862-0.931l1.697,1.697c0.421,0.421,0.973,0.631,1.526,0.631c0.553,0,1.105-0.21,1.526-0.631l1.697-1.697l1.862,0.931
		c0.423,0.211,0.685,0.636,0.685,1.109v11.161c0,0.47-0.138,0.925-0.398,1.316l-1.124,1.686c-0.486,0.729-0.743,1.577-0.743,2.453
		v4.634c0,0.566,0.459,1.025,1.025,1.025s1.025-0.459,1.025-1.025v-4.634c0-0.47,0.138-0.925,0.398-1.316l1.124-1.686
		c0.486-0.729,0.743-1.577,0.743-2.453v-11.161C242,402.808,241.303,401.681,240.181,401.12z M181.06,399.158v0.54
		c0,0.399,0.108,0.778,0.303,1.105l-1.467,1.467c-0.042,0.042-0.11,0.042-0.151,0l-1.467-1.467c0.195-0.327,0.303-0.706,0.303-1.105
		v-0.54L181.06,399.158L181.06,399.158z M183.325,393.603c0,1.932-1.572,3.505-3.505,3.505s-3.505-1.572-3.505-3.505v-2.265
		c0-1.308,1.064-2.372,2.372-2.372h2.265c1.308,0,2.372,1.064,2.372,2.372L183.325,393.603L183.325,393.603z M185.376,372.086
		c0-1.308,1.064-2.372,2.372-2.372h2.265c1.308,0,2.372,1.064,2.372,2.372v2.265c0,1.932-1.572,3.504-3.505,3.504
		c-1.932,0-3.505-1.572-3.505-3.504L185.376,372.086L185.376,372.086z M188.956,383.017c-0.042,0.042-0.11,0.042-0.151,0
		l-1.467-1.467c0.195-0.327,0.303-0.706,0.303-1.105v-0.54h2.479v0.54c0,0.399,0.108,0.778,0.303,1.105L188.956,383.017z
		 M199.18,399.158v0.54c0,0.399,0.108,0.778,0.303,1.105l-1.467,1.467c-0.042,0.042-0.11,0.042-0.151,0l-1.467-1.467
		c0.195-0.327,0.303-0.706,0.303-1.105v-0.54H199.18z M201.445,393.603c0,1.932-1.572,3.505-3.505,3.505
		c-1.932,0-3.505-1.572-3.505-3.505v-2.265c0-1.308,1.064-2.372,2.372-2.372h2.265c1.308,0,2.372,1.064,2.372,2.372L201.445,393.603
		L201.445,393.603z M203.496,372.086c0-1.308,1.064-2.372,2.372-2.372h2.265c1.308,0,2.372,1.064,2.372,2.372v2.265
		c0,1.932-1.572,3.504-3.505,3.504c-1.932,0-3.505-1.572-3.505-3.504V372.086L203.496,372.086z M207.076,383.017
		c-0.042,0.042-0.11,0.042-0.152,0l-1.467-1.467c0.195-0.327,0.303-0.706,0.303-1.105v-0.54h2.479v0.54
		c0,0.399,0.108,0.778,0.303,1.105L207.076,383.017z M217.3,399.158v0.54c0,0.399,0.108,0.778,0.303,1.105l-1.467,1.467
		c-0.042,0.042-0.11,0.042-0.151,0l-1.467-1.467c0.195-0.327,0.303-0.706,0.303-1.105v-0.54L217.3,399.158L217.3,399.158z
		 M219.565,393.603c0,1.932-1.572,3.505-3.505,3.505c-1.932,0-3.505-1.572-3.505-3.505v-2.265c0-1.308,1.064-2.372,2.372-2.372
		h2.265c1.308,0,2.372,1.064,2.372,2.372V393.603L219.565,393.603z M221.616,372.086c0-1.308,1.064-2.372,2.372-2.372h2.265
		c1.308,0,2.372,1.064,2.372,2.372v2.265c0,1.932-1.572,3.504-3.505,3.504c-1.932,0-3.505-1.572-3.505-3.504L221.616,372.086
		L221.616,372.086z M225.196,383.017c-0.042,0.042-0.11,0.042-0.151,0l-1.467-1.467c0.195-0.327,0.303-0.706,0.303-1.105v-0.54
		h2.479v0.54c0,0.399,0.108,0.778,0.303,1.105L225.196,383.017z M230.676,391.338c0-1.308,1.064-2.372,2.372-2.372h2.265
		c1.308,0,2.372,1.064,2.372,2.372v2.265c0,1.932-1.572,3.504-3.505,3.504c-1.932,0-3.505-1.572-3.505-3.504L230.676,391.338
		L230.676,391.338z M234.256,402.269c-0.042,0.042-0.11,0.042-0.151,0l-1.467-1.467c0.195-0.327,0.303-0.706,0.303-1.105v-0.54
		h2.479v0.54c0,0.399,0.108,0.778,0.303,1.105L234.256,402.269z"/>
</g>
</svg>
