<?xml version="1.0" encoding="iso-8859-1"?>
<!-- Generator: Adobe Illustrator 21.1.0, SVG Export Plug-In . SVG Version: 6.00 Build 0)  -->
<svg version="1.1" id="Layer_1" xmlns="http://www.w3.org/2000/svg" xmlns:xlink="http://www.w3.org/1999/xlink" x="0px" y="0px"
	 viewBox="182.608 367 48.784 60" style="enable-background:new 182.608 367 48.784 60;" xml:space="preserve">
<g>
	<path style="fill:#2BA5F7;" d="M207.001,375.142c1.171,0,2.122,0.95,2.122,2.122c0,1.171-0.951,2.122-2.122,2.122
		c-1.172,0-2.122-0.951-2.122-2.122C204.879,376.092,205.829,375.142,207.001,375.142z"/>
	<path style="fill:#F95428;" d="M210.178,371.195c-0.864,0.711-1.971,1.139-3.178,1.139c-1.206,0-2.313-0.427-3.177-1.137
		l-0.001-0.001c0.834-1.264,1.919-2.348,3.18-3.185C208.262,368.847,209.345,369.931,210.178,371.195z"/>
	<path style="fill:#F2F2F2;" d="M210.178,371.195c1.17,1.77,1.85,3.89,1.85,6.17c0,3.906-1.998,7.344-5.027,9.353
		c-3.03-2.009-5.028-5.447-5.028-9.353c0-2.28,0.68-4.399,1.849-6.17l0.001,0.001c0.864,0.71,1.971,1.137,3.177,1.137
		C208.207,372.334,209.314,371.907,210.178,371.195z M209.123,377.264c0-1.172-0.951-2.122-2.122-2.122
		c-1.172,0-2.122,0.95-2.122,2.122c0,1.171,0.95,2.122,2.122,2.122C208.172,379.386,209.123,378.435,209.123,377.264z"/>
	<g>
		<path style="fill:#F95428;" d="M201.973,377.365c0,3.906,1.998,7.344,5.028,9.353c0,0-6.289-0.563-9.119,2.266
			C197.882,380.698,201.973,377.365,201.973,377.365z"/>
		<path style="fill:#F95428;" d="M212.028,377.365c0,0,4.091,3.333,4.091,11.62c-2.828-2.829-9.118-2.266-9.118-2.266
			C210.03,384.709,212.028,381.271,212.028,377.365z"/>
		<polygon style="fill:#F95428;" points="230.382,396.763 230.382,425.99 207.001,425.99 207.001,422.785 226.612,422.785 
			226.612,419.391 226.612,409.396 226.612,396.763 		"/>
		<polygon style="fill:#F95428;" points="207.001,422.785 207.001,425.99 183.619,425.99 183.619,396.763 187.39,396.763 
			187.39,416.372 187.39,419.391 187.39,422.785 		"/>
	</g>
	<g>
		<path style="fill:#CCCCCC;" d="M226.612,419.391v3.394h-19.611c0-1.876,1.52-3.394,3.394-3.394H226.612z"/>
		<path style="fill:#CCCCCC;" d="M203.607,419.391c1.874,0,3.394,1.518,3.394,3.394H187.39v-3.394H203.607z"/>
	</g>
	<g>
		<path style="fill:#F2F2F2;" d="M210.395,419.391c-1.874,0-3.394,1.518-3.394,3.394v-12.808l0.234-0.125
			c0.566,0.389,1.25,0.616,1.989,0.616c0.682,0,1.316-0.194,1.855-0.53c0.637,0.893,1.682,1.475,2.863,1.475
			c1.203,0,2.265-0.604,2.898-1.525c0.589,0.445,1.323,0.709,2.118,0.709c1.942,0,3.517-1.574,3.517-3.515
			c0-1.943-1.575-3.517-3.517-3.517c-0.234,0-0.464,0.023-0.684,0.067c-0.059-2.454-2.066-4.425-4.534-4.425
			c-1.238,0-2.361,0.497-3.178,1.303v-8.273h16.05v4.526v12.633v9.995H210.395L210.395,419.391z"/>
		<path style="fill:#F2F2F2;" d="M207.001,409.976v12.808c0-1.876-1.52-3.394-3.394-3.394H187.39v-3.018v-19.61v-4.526h16.05v8.273
			c-0.819-0.806-1.94-1.303-3.18-1.303c-2.467,0-4.473,1.971-4.533,4.425c-0.222-0.044-0.451-0.067-0.686-0.067
			c-1.942,0-3.515,1.574-3.515,3.517c0,1.942,1.574,3.515,3.515,3.515c0.796,0,1.529-0.264,2.118-0.709
			c0.635,0.922,1.696,1.525,2.898,1.525c1.182,0,2.226-0.582,2.863-1.475c0.539,0.335,1.175,0.53,1.857,0.53
			c0.843,0,1.617-0.296,2.223-0.792c0.075,0.062,0.154,0.121,0.234,0.177L207.001,409.976z"/>
	</g>
	<path style="fill:#2BA5F7;" d="M210.562,400.51c0.818-0.806,1.94-1.303,3.178-1.303c2.468,0,4.475,1.971,4.534,4.425
		c0.221-0.044,0.45-0.067,0.684-0.067c1.942,0,3.517,1.574,3.517,3.517c0,1.942-1.575,3.515-3.517,3.515
		c-0.795,0-1.529-0.264-2.118-0.709c-0.633,0.922-1.695,1.525-2.898,1.525c-1.182,0-2.226-0.582-2.863-1.475
		c-0.539,0.336-1.174,0.53-1.855,0.53c-0.738,0-1.423-0.226-1.989-0.616c-0.081-0.055-0.159-0.115-0.234-0.177
		c-0.606,0.496-1.38,0.792-2.223,0.792c-0.682,0-1.318-0.194-1.857-0.53c-0.637,0.893-1.682,1.475-2.863,1.475
		c-1.202,0-2.264-0.604-2.898-1.525c-0.589,0.445-1.322,0.709-2.118,0.709c-1.942,0-3.515-1.574-3.515-3.515
		c0-1.943,1.574-3.517,3.515-3.517c0.234,0,0.464,0.023,0.686,0.067c0.059-2.454,2.066-4.425,4.533-4.425
		c1.24,0,2.361,0.497,3.18,1.303v-8.273v-2.146h7.122v2.146V400.51L210.562,400.51z"/>
	<g>
		<path style="fill:#333333;" d="M197.495,389.918c0.125,0.052,0.256,0.077,0.386,0.077c0.263,0,0.521-0.103,0.715-0.296
			c2.458-2.458,8.257-1.98,8.314-1.975l0-0.002c0.03,0.003,0.06,0.006,0.09,0.006s0.06-0.004,0.09-0.006l0,0.002
			c0.015-0.001,1.493-0.129,3.297,0.07c1.596,0.177,3.763,0.65,5.017,1.905c0.193,0.193,0.452,0.296,0.715,0.296
			c0.13,0,0.261-0.025,0.386-0.077c0.378-0.156,0.624-0.525,0.624-0.934c0-7.291-3.03-10.988-4.1-12.066
			c-0.142-3.938-2.164-7.558-5.471-9.75c-0.338-0.224-0.778-0.224-1.117,0c-3.307,2.192-5.329,5.812-5.471,9.75
			c-1.07,1.078-4.1,4.775-4.1,12.066C196.871,389.394,197.117,389.762,197.495,389.918z M215.021,386.987
			c-1.683-0.849-3.681-1.17-5.274-1.278c1.528-1.633,2.578-3.652,3.034-5.844c0.152,0.239,0.308,0.501,0.464,0.792
			C213.945,381.967,214.757,384.055,215.021,386.987z M207.001,369.25c0.647,0.494,1.226,1.057,1.73,1.676
			c-0.536,0.258-1.128,0.397-1.73,0.397c-0.602,0-1.193-0.139-1.73-0.397C205.774,370.308,206.353,369.744,207.001,369.25z
			 M204.15,372.624c0.871,0.468,1.852,0.72,2.85,0.72c0.999,0,1.98-0.252,2.851-0.72c0.756,1.44,1.167,3.06,1.167,4.74
			c0,3.201-1.49,6.186-4.017,8.114c-2.528-1.928-4.017-4.913-4.017-8.114C202.983,375.684,203.394,374.064,204.15,372.624z
			 M200.757,380.658c0.156-0.291,0.312-0.554,0.464-0.792c0.456,2.192,1.506,4.211,3.034,5.844
			c-1.593,0.108-3.591,0.429-5.274,1.278C199.244,384.055,200.056,381.967,200.757,380.658z"/>
		<path style="fill:#333333;" d="M210.133,377.263c0-1.727-1.405-3.133-3.132-3.133s-3.132,1.405-3.132,3.133
			c0,1.727,1.405,3.132,3.132,3.132S210.133,378.991,210.133,377.263z M205.889,377.263c0-0.613,0.499-1.111,1.111-1.111
			s1.111,0.499,1.111,1.111c0,0.613-0.499,1.111-1.111,1.111S205.889,377.876,205.889,377.263z"/>
		<path style="fill:#333333;" d="M230.382,395.752h-2.76v-3.515c0-0.558-0.452-1.011-1.011-1.011h-15.039v-1.135
			c0-0.558-0.452-1.011-1.011-1.011s-1.011,0.452-1.011,1.011v10.418v3.459c0,0.558,0.452,1.01,1.011,1.01s1.011-0.452,1.011-1.01
			v-3.003c0.617-0.485,1.374-0.748,2.168-0.748c1.897,0,3.477,1.543,3.523,3.439c0.007,0.298,0.146,0.578,0.378,0.764
			c0.233,0.186,0.535,0.261,0.828,0.203c0.162-0.032,0.326-0.048,0.489-0.048c1.382,0,2.506,1.124,2.506,2.506
			c0,1.382-1.124,2.506-2.506,2.506c-0.55,0-1.071-0.175-1.509-0.505c-0.22-0.166-0.499-0.235-0.771-0.191
			c-0.272,0.044-0.515,0.198-0.671,0.425c-0.469,0.681-1.241,1.088-2.066,1.088c-0.807,0-1.57-0.393-2.04-1.053
			c-0.31-0.434-0.904-0.553-1.357-0.271c-0.396,0.247-0.853,0.377-1.322,0.377c-0.584,0-1.132-0.195-1.584-0.564
			c-0.372-0.304-0.907-0.304-1.279,0c-0.452,0.369-0.999,0.564-1.584,0.564c-0.468,0-0.925-0.13-1.322-0.377
			c-0.453-0.282-1.047-0.163-1.357,0.271c-0.471,0.659-1.233,1.053-2.04,1.053c-0.825,0-1.597-0.407-2.066-1.088
			c-0.156-0.227-0.399-0.381-0.671-0.425c-0.273-0.044-0.551,0.025-0.771,0.191c-0.437,0.331-0.959,0.505-1.509,0.505
			c-1.382,0-2.506-1.124-2.506-2.506s1.124-2.506,2.506-2.506c0.163,0,0.328,0.016,0.489,0.048c0.293,0.058,0.595-0.017,0.828-0.203
			c0.233-0.186,0.371-0.466,0.378-0.764c0.046-1.896,1.626-3.439,3.523-3.439c0.795,0,1.551,0.264,2.168,0.748v3.003
			c0,0.558,0.452,1.011,1.011,1.011c0.558,0,1.011-0.452,1.011-1.011v-3.459v-10.418c0-0.558-0.452-1.011-1.011-1.011
			c-0.558,0-1.011,0.452-1.011,1.011v1.135H187.39c-0.558,0-1.011,0.452-1.011,1.011v3.515h-2.76c-0.558,0-1.011,0.452-1.011,1.011
			v29.227c0,0.558,0.452,1.011,1.011,1.011h46.763c0.558,0,1.011-0.452,1.011-1.011v-29.227
			C231.393,396.204,230.94,395.752,230.382,395.752z M210.831,411.183c0.834,0.788,1.947,1.241,3.111,1.241
			c1.167,0,2.276-0.45,3.108-1.236c0.592,0.276,1.239,0.42,1.908,0.42c2.496,0,4.527-2.031,4.527-4.527
			c0-2.43-1.924-4.419-4.329-4.523c-0.55-2.483-2.79-4.362-5.416-4.362c-0.757,0-1.491,0.151-2.168,0.44v-5.388h14.029v25.132
			h-15.206c-0.878,0-1.696,0.259-2.383,0.704v-7.774c0.393,0.11,0.801,0.168,1.213,0.168
			C209.776,411.478,210.321,411.377,210.831,411.183z M225.601,420.401v1.373h-17.365c0.381-0.81,1.205-1.373,2.158-1.373H225.601z
			 M188.4,420.401h15.206c0.953,0,1.774,0.563,2.155,1.372H188.4V420.401z M202.429,393.248v5.388
			c-0.677-0.288-1.412-0.44-2.168-0.44c-2.626,0-4.866,1.879-5.416,4.362c-2.405,0.104-4.329,2.093-4.329,4.523
			c0,2.496,2.031,4.527,4.527,4.527c0.669,0,1.316-0.143,1.908-0.42c0.832,0.786,1.941,1.236,3.108,1.236
			c1.165,0,2.278-0.453,3.111-1.241c0.511,0.194,1.055,0.295,1.607,0.295c0.412,0,0.82-0.058,1.213-0.168v7.772
			c-0.688-0.444-1.506-0.702-2.383-0.702H188.4l0-25.132L202.429,393.248L202.429,393.248z M184.629,397.773h1.75l0,25.011
			c0,0.558,0.452,1.011,1.011,1.011h18.6v1.185h-21.361V397.773z M229.372,424.979h-21.361v-1.184h18.6
			c0.558,0,1.011-0.452,1.011-1.011v-25.012h1.75V424.979z"/>
		<path style="fill:#333333;" d="M205.99,394.268v6.242c0,0.558,0.452,1.011,1.011,1.011s1.011-0.452,1.011-1.011v-6.242
			c0-0.558-0.452-1.011-1.011-1.011S205.99,393.71,205.99,394.268z"/>
	</g>
</g>
</svg>
