<?xml version="1.0" encoding="iso-8859-1"?>
<!-- Generator: Adobe Illustrator 21.1.0, SVG Export Plug-In . SVG Version: 6.00 Build 0)  -->
<svg version="1.1" id="Layer_1" xmlns="http://www.w3.org/2000/svg" xmlns:xlink="http://www.w3.org/1999/xlink" x="0px" y="0px"
	 viewBox="147 337 120 120" style="enable-background:new 147 337 120 120;" xml:space="preserve">
<g>
	<path style="fill:#E9EAEA;" d="M197.323,337c-5.046,0-9.337,3.238-10.935,7.742h-10.355v6.341
		c-0.832,0.314-1.663,0.662-2.491,1.039l-4.488-4.488l-19.159,19.159l4.488,4.488c-0.379,0.83-0.728,1.661-1.041,2.493H147v27.097
		h6.341c0.314,0.832,0.662,1.663,1.039,2.491l-4.488,4.488l19.159,19.161l4.488-4.488c0.828,0.377,1.659,0.726,2.491,1.039v6.341
		h9.677v15.484c0,6.405,5.208,11.613,11.613,11.613h69.677v-3.871h-3.875c-2.067,0-4.012-0.805-5.475-2.268
		s-2.266-3.408-2.266-5.477c0.002-4.266,3.474-7.738,7.742-7.738H267v-1.935v-1.935V337H197.323z M178.579,420.359
		c-1.517-0.507-3.056-1.148-4.572-1.906l-1.246-0.623l-3.708,3.708l-13.686-13.686l3.708-3.708l-0.623-1.248
		c-0.761-1.515-1.401-3.054-1.906-4.572L156.103,397h-5.232v-19.355h5.232l0.441-1.324c0.507-1.517,1.148-3.056,1.906-4.572
		l0.623-1.246l-3.708-3.708l13.686-13.686l3.708,3.708l1.246-0.623c1.515-0.761,3.054-1.401,4.572-1.906l1.326-0.443v-5.232h5.806
		h3.871h9.677v5.232l1.324,0.441c1.517,0.507,3.056,1.148,4.572,1.906l1.248,0.623l3.708-3.708l13.686,13.686l-3.708,3.708
		l0.623,1.246c0.761,1.515,1.401,3.054,1.906,4.572l0.441,1.326h5.232V397h-5.232l-0.441,1.324
		c-0.507,1.517-1.148,3.056-1.906,4.572l-0.623,1.248l3.708,3.708l-13.686,13.686l-3.708-3.708l-1.248,0.623
		c-1.515,0.761-3.054,1.401-4.572,1.906l-1.324,0.441v5.232h-19.355v-5.232L178.579,420.359z M225.821,373.774
		c-0.314-0.832-0.662-1.663-1.039-2.491l4.488-4.488l-8.505-8.505h34.622v32.903h-23.226v-17.419H225.821z M254.468,453.129h-57.145
		c-4.27,0-7.742-3.472-7.742-7.742c0-4.27,3.472-7.742,7.742-7.742h57.153c-1.841,2.055-2.961,4.769-2.963,7.738
		C251.51,448.269,252.555,450.996,254.468,453.129z M197.323,433.774c-2.977,0-5.685,1.134-7.742,2.983v-6.854h13.548v-6.341
		c0.832-0.314,1.663-0.662,2.491-1.039l4.488,4.488l19.161-19.161l-4.488-4.488c0.377-0.828,0.726-1.659,1.039-2.491h6.341v-5.806
		h27.097v-40.645h-42.364l-6.786-6.786l-4.488,4.488c-0.828-0.377-1.659-0.724-2.491-1.039v-6.341h-12.472
		c1.343-2.303,3.813-3.871,6.666-3.871h65.806v92.903H197.323z"/>
	<path style="fill:#E9EAEA;" d="M182.514,409.441c1.639,0.525,3.358,0.861,5.131,1.008v3.97h3.871v-3.97
		c1.773-0.147,3.492-0.484,5.131-1.008l1.514,3.658l3.577-1.483l-1.519-3.67c1.558-0.807,3.015-1.779,4.345-2.905l2.81,2.81
		l2.737-2.737l-2.81-2.81c1.125-1.328,2.096-2.785,2.905-4.345l3.67,1.519l1.483-3.577l-3.656-1.514
		c0.525-1.639,0.861-3.358,1.008-5.131h3.968v-3.871h-3.97c-0.147-1.773-0.484-3.494-1.008-5.131l3.656-1.514l-1.483-3.577
		l-3.67,1.519c-0.807-1.558-1.779-3.016-2.905-4.345l2.81-2.81l-2.737-2.737l-2.81,2.81c-1.328-1.125-2.785-2.096-4.345-2.905
		l1.519-3.67l-3.577-1.483l-1.514,3.656c-1.639-0.525-3.358-0.861-5.131-1.008v-3.968h-3.871v3.97
		c-1.773,0.147-3.494,0.484-5.131,1.008l-1.514-3.656l-3.577,1.483l1.519,3.67c-1.558,0.807-3.015,1.779-4.345,2.905l-2.81-2.81
		l-2.737,2.737l2.81,2.81c-1.125,1.328-2.096,2.785-2.905,4.345l-3.67-1.519l-1.483,3.577l3.656,1.514
		c-0.525,1.639-0.861,3.358-1.008,5.131h-3.966v3.871h3.97c0.147,1.773,0.484,3.494,1.008,5.131l-3.656,1.514l1.483,3.577
		l3.67-1.519c0.807,1.558,1.779,3.015,2.905,4.345l-2.81,2.81l2.737,2.737l2.81-2.81c1.328,1.125,2.785,2.096,4.345,2.905
		l-1.519,3.67l3.577,1.483L182.514,409.441z M170.226,387.323c0-10.672,8.683-19.355,19.355-19.355s19.355,8.683,19.355,19.355
		c0,10.672-8.683,19.355-19.355,19.355S170.226,397.995,170.226,387.323z"/>
	<rect x="193.452" y="443.452" style="fill:#E9EAEA;" width="46.452" height="3.871"/>
	<rect x="243.774" y="443.452" style="fill:#E9EAEA;" width="3.871" height="3.871"/>
</g>
</svg>
