<?xml version="1.0" encoding="iso-8859-1"?>
<!-- Generator: Adobe Illustrator 21.1.0, SVG Export Plug-In . SVG Version: 6.00 Build 0)  -->
<svg version="1.1" id="Layer_1" xmlns="http://www.w3.org/2000/svg" xmlns:xlink="http://www.w3.org/1999/xlink" x="0px" y="0px"
	 viewBox="158.124 336.999 97.753 120" style="enable-background:new 158.124 336.999 97.753 120;" xml:space="preserve">
<g>
	<path style="fill:#E9EAEA;" d="M232.675,359.369c-7.024-6.926-16.328-10.664-26.201-10.525
		c-20.139,0.283-36.307,16.908-36.041,37.059c0.124,9.363,3.783,18.225,10.303,24.952c5.074,5.236,7.868,12.01,7.868,19.075v4.935
		c0,6.936,4.45,12.849,10.644,15.042v0.981c0,3.37,2.741,6.111,6.111,6.111h3.282c3.37,0,6.111-2.741,6.111-6.111v-0.981
		c6.193-2.193,10.643-8.106,10.643-15.042v-4.935c0-7.076,2.785-13.84,7.842-19.048c6.663-6.861,10.332-15.907,10.332-25.472
		C243.569,375.545,239.7,366.297,232.675,359.369z M192.916,434.866v-2.78h28.168v2.78c0,0.145-0.006,0.289-0.011,0.433h-28.146
		C192.921,435.155,192.916,435.011,192.916,434.866z M209.155,389.806c1.406-0.128,2.8-0.385,4.168-0.766v38.734h-4.168V389.806z
		 M203.216,382.873c1.195,0.477,2.474,0.726,3.784,0.726c1.309,0,2.588-0.25,3.783-0.726l1.356,2.023
		c-3.358,0.93-6.923,0.93-10.281,0L203.216,382.873z M205.714,379.147l1.286-1.918l1.286,1.918
		c-0.419,0.093-0.849,0.141-1.285,0.141C206.563,379.288,206.132,379.24,205.714,379.147z M200.676,389.04
		c1.367,0.381,2.762,0.637,4.168,0.766v37.969h-4.168V389.04z M210.44,450.889c0,0.992-0.807,1.799-1.799,1.799h-3.282
		c-0.992,0-1.799-0.807-1.799-1.799v-0.103c0.331,0.02,0.663,0.034,0.999,0.034h4.882c0.336,0,0.669-0.014,1-0.034L210.44,450.889
		L210.44,450.889z M209.441,446.509h-4.882c-4.73,0-8.808-2.837-10.628-6.898h26.139
		C218.249,443.671,214.171,446.509,209.441,446.509z M230.144,407.879c-5.329,5.487-8.473,12.484-8.985,19.896h-3.525v-41.77
		c0-0.427-0.127-0.845-0.365-1.201l-8.479-12.647c-0.4-0.597-1.072-0.955-1.79-0.955s-1.39,0.358-1.79,0.955l-8.479,12.647
		c-0.238,0.355-0.365,0.773-0.365,1.201v41.77h-3.525c-0.514-7.403-3.666-14.408-9.008-19.919
		c-5.751-5.934-8.978-13.751-9.088-22.009c-0.114-8.569,3.142-16.699,9.166-22.895c6.025-6.197,14.06-9.675,22.625-9.796
		c0.156-0.002,0.312-0.003,0.468-0.003c8.534,0,16.56,3.288,22.645,9.287c6.197,6.111,9.61,14.268,9.61,22.971
		C239.258,393.847,236.021,401.827,230.144,407.879z"/>
	<path style="fill:#E9EAEA;" d="M215.067,357.152c-1.145-0.327-2.338,0.335-2.665,1.48c-0.327,1.145,0.335,2.338,1.48,2.665
		c10.71,3.062,18.191,12.977,18.191,24.113c0,1.191,0.965,2.156,2.156,2.156s2.156-0.965,2.156-2.156
		C236.384,372.36,227.618,360.74,215.067,357.152z"/>
	<path style="fill:#E9EAEA;" d="M208.614,356.07c-0.675-0.037-1.359-0.051-2.039-0.041c-1.191,0.016-2.142,0.995-2.126,2.185
		c0.016,1.18,0.978,2.126,2.155,2.126c0.01,0,0.02,0,0.03,0c0.582-0.008,1.167,0.003,1.744,0.035c0.04,0.002,0.08,0.003,0.119,0.003
		c1.137,0,2.088-0.89,2.151-2.038C210.714,357.151,209.803,356.135,208.614,356.07z"/>
	<path style="fill:#E9EAEA;" d="M253.721,383.72h-3.764c-1.191,0-2.156,0.965-2.156,2.156s0.965,2.156,2.156,2.156h3.764
		c1.191,0,2.156-0.965,2.156-2.156S254.911,383.72,253.721,383.72z"/>
	<path style="fill:#E9EAEA;" d="M166.196,385.876c0-1.191-0.965-2.156-2.156-2.156h-3.761c-1.191,0-2.156,0.965-2.156,2.156
		s0.965,2.156,2.156,2.156h3.761C165.231,388.031,166.196,387.066,166.196,385.876z"/>
	<path style="fill:#E9EAEA;" d="M244.203,366.554c0.366,0,0.736-0.093,1.076-0.289l3.26-1.882c1.031-0.595,1.384-1.914,0.789-2.945
		c-0.595-1.031-1.914-1.384-2.945-0.789l-3.26,1.882c-1.031,0.595-1.384,1.914-0.789,2.945
		C242.733,366.167,243.458,366.554,244.203,366.554z"/>
	<path style="fill:#E9EAEA;" d="M168.718,405.489l-3.257,1.88c-1.031,0.595-1.384,1.914-0.789,2.945
		c0.399,0.692,1.124,1.078,1.869,1.078c0.366,0,0.736-0.093,1.076-0.289l3.257-1.88c1.031-0.595,1.384-1.914,0.789-2.945
		C171.067,405.246,169.749,404.893,168.718,405.489z"/>
	<path style="fill:#E9EAEA;" d="M227.4,350.542c0.339,0.196,0.71,0.289,1.076,0.289c0.745,0,1.47-0.387,1.869-1.078l1.882-3.26
		c0.595-1.031,0.242-2.349-0.789-2.945c-1.031-0.595-2.349-0.242-2.945,0.789l-1.882,3.26
		C226.016,348.628,226.369,349.946,227.4,350.542z"/>
	<path style="fill:#E9EAEA;" d="M207,345.075c1.191,0,2.156-0.965,2.156-2.156v-3.764c0-1.191-0.965-2.156-2.156-2.156
		s-2.156,0.965-2.156,2.156v3.764C204.844,344.11,205.809,345.075,207,345.075z"/>
	<path style="fill:#E9EAEA;" d="M183.655,349.753c0.399,0.692,1.124,1.078,1.869,1.078c0.366,0,0.737-0.093,1.076-0.289
		c1.031-0.595,1.384-1.914,0.789-2.945l-1.882-3.26c-0.595-1.031-1.914-1.384-2.945-0.789c-1.031,0.595-1.384,1.914-0.789,2.945
		L183.655,349.753z"/>
	<path style="fill:#E9EAEA;" d="M165.461,364.382l3.26,1.882c0.339,0.196,0.71,0.289,1.076,0.289c0.745,0,1.47-0.387,1.869-1.078
		c0.595-1.031,0.242-2.349-0.789-2.945l-3.26-1.882c-1.031-0.596-2.349-0.242-2.945,0.789
		C164.077,362.469,164.43,363.787,165.461,364.382z"/>
	<path style="fill:#E9EAEA;" d="M248.539,407.369l-3.257-1.88c-1.031-0.596-2.35-0.242-2.945,0.789
		c-0.595,1.031-0.242,2.349,0.789,2.945l3.257,1.88c0.339,0.196,0.71,0.289,1.076,0.289c0.745,0,1.47-0.387,1.869-1.078
		C249.923,409.283,249.57,407.964,248.539,407.369z"/>
</g>
</svg>
