<?xml version="1.0" encoding="iso-8859-1"?>
<!-- Generator: Adobe Illustrator 21.1.0, SVG Export Plug-In . SVG Version: 6.00 Build 0)  -->
<svg version="1.1" id="Layer_1" xmlns="http://www.w3.org/2000/svg" xmlns:xlink="http://www.w3.org/1999/xlink" x="0px" y="0px"
	 viewBox="147 337 120 120" style="enable-background:new 147 337 120 120;" xml:space="preserve">
<g>
	<path style="fill:#E9EAEA;" d="M178.964,350.138h20.896c1.046,0,1.895-0.848,1.895-1.895s-0.848-1.895-1.895-1.895h-20.896
		c-1.046,0-1.895,0.848-1.895,1.895S177.918,350.138,178.964,350.138z"/>
	<path style="fill:#E9EAEA;" d="M178.964,358.5h41.792c1.047,0,1.895-0.848,1.895-1.895c0-1.047-0.848-1.895-1.895-1.895h-41.792
		c-1.046,0-1.895,0.848-1.895,1.895C177.069,357.652,177.918,358.5,178.964,358.5z"/>
	<path style="fill:#E9EAEA;" d="M178.964,384.551h20.896c1.046,0,1.895-0.848,1.895-1.895s-0.848-1.895-1.895-1.895h-20.896
		c-1.046,0-1.895,0.848-1.895,1.895C177.069,383.703,177.918,384.551,178.964,384.551z"/>
	<path style="fill:#E9EAEA;" d="M178.964,392.914h41.332c1.047,0,1.895-0.848,1.895-1.895c0-1.047-0.848-1.895-1.895-1.895h-41.332
		c-1.046,0-1.895,0.848-1.895,1.895C177.069,392.065,177.918,392.914,178.964,392.914z"/>
	<path style="fill:#E9EAEA;" d="M178.964,418.965h20.896c1.046,0,1.895-0.848,1.895-1.895c0-1.047-0.848-1.895-1.895-1.895h-20.896
		c-1.046,0-1.895,0.848-1.895,1.895C177.069,418.116,177.918,418.965,178.964,418.965z"/>
	<path style="fill:#E9EAEA;" d="M220,423.537h-41.035c-1.046,0-1.895,0.848-1.895,1.895c0,1.046,0.848,1.895,1.895,1.895H220
		c1.047,0,1.895-0.848,1.895-1.895C221.894,424.386,221.046,423.537,220,423.537z"/>
	<path style="fill:#E9EAEA;" d="M258.018,431.879l-11.007-4.414v-2.417c3.032-1.649,5.332-4.476,6.291-7.86
		c3.679-0.019,6.666-3.017,6.666-6.7c0-2.214-1.079-4.179-2.74-5.4v-5.031c0-9.364-7.618-16.983-16.983-16.983h-1.257
		c-1.404,0-2.768,0.174-4.073,0.497v-10.263c0-1.047-0.848-1.895-1.895-1.895h-5.627c-1.047,0-1.895,0.848-1.895,1.895
		c0,1.047,0.848,1.895,1.895,1.895h3.733v9.808c-4.972,2.609-8.5,7.608-9.044,13.462h-71.293v-23.27h70.262
		c1.047,0,1.895-0.848,1.895-1.895c0-1.047-0.848-1.895-1.895-1.895h-72.157c-1.046,0-1.895,0.848-1.895,1.895v27.06
		c0,1.047,0.848,1.895,1.895,1.895h73.111v2.806c-0.313,0.227-0.605,0.481-0.873,0.758h-72.238c-1.046,0-1.895,0.848-1.895,1.895
		v27.06c0,1.047,0.848,1.895,1.895,1.895h65.904c-1.601,2.201-2.799,5.168-2.799,9.006v9.421c0,1.046,0.848,1.897,1.895,1.897h7.158
		c1.047,0,1.895-0.848,1.895-1.895c0-1.046-0.848-1.895-1.895-1.895h-5.263v-7.529c0-7.879,6.201-10.141,6.454-10.229
		c0.029-0.01,0.059-0.02,0.087-0.032l10.372-4.062c0.047,0.058,0.097,0.115,0.152,0.169l5.441,5.299
		c0.354,0.345,0.828,0.537,1.322,0.537c0.01,0,0.02,0,0.03,0c0.504-0.008,0.984-0.217,1.334-0.58l5.321-5.52l10.353,4.151
		c0.026,0.011,0.064,0.025,0.09,0.034c0.264,0.092,6.465,2.353,6.465,10.233v7.529h-15.584h-13.451h-2.805h-2.354h-1.903
		c-1.047,0-1.895,0.848-1.895,1.895c0,1.047,0.848,1.895,1.895,1.895h1.903h2.354h2.805h13.451h17.479
		c1.047,0,1.895-0.867,1.895-1.913v-9.405C267,437.201,261.158,432.96,258.018,431.879z M240.846,422.824h-2.398
		c-5.05,0-9.159-4.109-9.159-9.159v-7.615c3.307-0.285,10.193-1.422,15.101-5.966c1.004,1.983,2.75,4.373,5.614,5.545v8.035
		C250.004,418.715,245.895,422.824,240.846,422.824z M225.499,407.614v5.749c-1.396-0.214-2.47-1.419-2.47-2.874
		C223.028,409.033,224.102,407.828,225.499,407.614z M253.793,413.35v-5.722c1.355,0.249,2.386,1.436,2.386,2.861
		S255.148,413.101,253.793,413.35z M238.989,386.864h1.257c7.275,0,13.193,5.919,13.193,13.193v3.094
		c-0.003-0.004-0.005-0.007-0.008-0.01c-0.017-0.024-0.035-0.048-0.054-0.072c-0.018-0.022-0.037-0.044-0.056-0.065
		c-0.022-0.025-0.044-0.049-0.067-0.074c-0.018-0.018-0.037-0.036-0.056-0.054c-0.026-0.024-0.052-0.048-0.079-0.072
		c-0.019-0.016-0.039-0.031-0.058-0.046c-0.028-0.022-0.057-0.044-0.087-0.065c-0.021-0.015-0.044-0.029-0.066-0.042
		c-0.029-0.018-0.058-0.037-0.088-0.054c-0.026-0.015-0.054-0.028-0.081-0.042c-0.027-0.013-0.054-0.027-0.081-0.039
		c-0.033-0.015-0.067-0.027-0.101-0.04c-0.024-0.009-0.048-0.018-0.071-0.026c-0.038-0.013-0.078-0.023-0.116-0.033
		c-0.018-0.005-0.035-0.011-0.053-0.015c-4.123-0.938-5.414-6.269-5.425-6.316c-0.164-0.726-0.739-1.289-1.469-1.438
		c-0.729-0.15-1.479,0.142-1.915,0.746c-4.985,6.892-15.958,6.961-16.109,6.961c0,0-0.001,0-0.001,0c-0.003,0-0.005,0-0.007,0
		c-0.065,0-0.13,0.004-0.193,0.01c-0.02,0.002-0.039,0.006-0.059,0.009c-0.043,0.006-0.086,0.011-0.129,0.02
		c-0.027,0.006-0.053,0.014-0.08,0.02c-0.034,0.008-0.068,0.015-0.101,0.026c-0.031,0.01-0.06,0.022-0.09,0.033
		c-0.028,0.01-0.056,0.019-0.083,0.03c-0.035,0.015-0.068,0.032-0.101,0.048c-0.021,0.011-0.043,0.02-0.064,0.031
		c-0.034,0.018-0.066,0.039-0.099,0.06c-0.019,0.012-0.038,0.022-0.057,0.035c-0.031,0.021-0.059,0.044-0.089,0.066
		c-0.019,0.014-0.039,0.028-0.057,0.043c-0.027,0.022-0.051,0.046-0.077,0.069c-0.019,0.018-0.04,0.034-0.058,0.053
		c-0.023,0.023-0.045,0.048-0.067,0.073c-0.018,0.02-0.038,0.04-0.056,0.061c-0.02,0.024-0.037,0.05-0.056,0.075
		c-0.018,0.024-0.037,0.046-0.053,0.071c-0.01,0.015-0.019,0.031-0.029,0.047v-3.179
		C225.795,392.782,231.714,386.864,238.989,386.864z M220.988,431.877c-0.628,0.216-1.366,0.561-2.143,1.039
		c-0.104-0.018-0.21-0.029-0.319-0.029h-67.737v-23.27h68.508c-0.037,0.286-0.059,0.576-0.059,0.872
		c0,3.695,3.006,6.701,6.702,6.701c0.016,0,0.033-0.002,0.049-0.003c0.958,3.385,3.259,6.213,6.292,7.862v2.406L220.988,431.877z
		 M239.574,432.783l-3.503-3.412v-2.981c0.771,0.144,1.565,0.223,2.377,0.223h2.398c0.812,0,1.605-0.079,2.376-0.222v2.386
		c0,0.002,0,0.005,0,0.007v0.215L239.574,432.783z"/>
	<path style="fill:#E9EAEA;" d="M166.357,348.041c1.046,0,1.895-0.848,1.895-1.895c0-1.047-0.848-1.895-1.895-1.895H156.8
		c-1.046,0-1.895,0.848-1.895,1.895v12.558c0,1.047,0.848,1.895,1.895,1.895h13.174c1.046,0,1.895-0.848,1.895-1.895v-3.388
		c0-1.047-0.848-1.895-1.895-1.895s-1.895,0.848-1.895,1.895v1.493h-9.385v-8.768H166.357z"/>
	<path style="fill:#E9EAEA;" d="M173.678,344.767c-0.762-0.718-1.961-0.682-2.678,0.079l-6.294,6.678l-1.946-2.119
		c-0.708-0.771-1.906-0.822-2.677-0.115c-0.771,0.708-0.822,1.906-0.115,2.677l3.323,3.62c0.356,0.388,0.857,0.61,1.383,0.614
		c0.004,0,0.008,0,0.012,0c0.522,0,1.021-0.215,1.379-0.595l7.691-8.16C174.475,346.684,174.439,345.484,173.678,344.767z"/>
	<path style="fill:#E9EAEA;" d="M166.357,382.453c1.046,0,1.895-0.848,1.895-1.895c0-1.047-0.848-1.895-1.895-1.895H156.8
		c-1.046,0-1.895,0.848-1.895,1.895v12.558c0,1.047,0.848,1.895,1.895,1.895h13.174c1.046,0,1.895-0.848,1.895-1.895v-3.388
		c0-1.047-0.848-1.895-1.895-1.895s-1.895,0.848-1.895,1.895v1.493h-9.385v-8.769H166.357z"/>
	<path style="fill:#E9EAEA;" d="M173.678,379.18c-0.762-0.718-1.961-0.682-2.678,0.08l-6.294,6.678l-1.946-2.119
		c-0.708-0.772-1.906-0.822-2.677-0.115c-0.771,0.708-0.822,1.906-0.115,2.677l3.323,3.62c0.356,0.388,0.857,0.61,1.383,0.614
		c0.004,0,0.008,0,0.012,0c0.522,0,1.021-0.215,1.379-0.595l7.691-8.16C174.475,381.097,174.439,379.898,173.678,379.18z"/>
	<path style="fill:#E9EAEA;" d="M169.974,422.248c-1.046,0-1.895,0.848-1.895,1.895v1.493h-9.385v-8.769h7.662
		c1.046,0,1.895-0.848,1.895-1.895c0-1.047-0.848-1.895-1.895-1.895H156.8c-1.046,0-1.895,0.848-1.895,1.895v12.558
		c0,1.047,0.848,1.895,1.895,1.895h13.174c1.046,0,1.895-0.848,1.895-1.895v-3.388C171.869,423.096,171.021,422.248,169.974,422.248
		z"/>
	<path style="fill:#E9EAEA;" d="M170.999,413.673l-6.294,6.678l-1.946-2.119c-0.708-0.772-1.906-0.822-2.677-0.115
		c-0.771,0.708-0.822,1.906-0.115,2.677l3.323,3.62c0.356,0.388,0.857,0.61,1.383,0.614c0.004,0,0.008,0,0.012,0
		c0.522,0,1.021-0.215,1.379-0.595l7.691-8.161c0.718-0.761,0.682-1.961-0.079-2.678
		C172.916,412.876,171.717,412.911,170.999,413.673z"/>
	<path style="fill:#E9EAEA;" d="M148.895,367.85h84.126c1.047,0,1.895-0.848,1.895-1.895v-27.06c0-1.047-0.848-1.895-1.895-1.895
		h-5.627c-1.047,0-1.895,0.848-1.895,1.895c0,1.047,0.848,1.895,1.895,1.895h3.733v23.27h-80.337v-23.27h70.262
		c1.047,0,1.895-0.848,1.895-1.895c0-1.047-0.848-1.895-1.895-1.895h-72.157c-1.046,0-1.895,0.848-1.895,1.895v27.06
		C147,367.001,147.848,367.85,148.895,367.85z"/>
</g>
</svg>
