<?xml version="1.0" encoding="iso-8859-1"?>
<!-- Generator: Adobe Illustrator 21.1.0, SVG Export Plug-In . SVG Version: 6.00 Build 0)  -->
<svg version="1.1" id="Layer_1" xmlns="http://www.w3.org/2000/svg" xmlns:xlink="http://www.w3.org/1999/xlink" x="0px" y="0px"
	 viewBox="180.626 367 52.748 60" style="enable-background:new 180.626 367 52.748 60;" xml:space="preserve">
<g>
	<path style="fill:#68B9D8;" d="M215.581,411.988c-3.747,0.051-7.241,2.043-9.258,5.007c0.746,1.549,1.168,3.261,1.168,5.058v4.067
		h8.09h11.042v-3.456C226.623,416.837,221.408,412.068,215.581,411.988z"/>
	<path style="fill:#3695B2;" d="M215.581,411.988c-0.394,0.005-0.784,0.033-1.171,0.08c5.334,0.652,9.866,5.164,9.866,10.596v3.456
		h2.347v-3.456C226.623,416.837,221.408,412.068,215.581,411.988z"/>
	<path style="fill:#68B9D8;" d="M194.499,426.12h-12.993v-4.067c0-6.856,6.137-12.469,12.993-12.563
		c6.856,0.094,12.993,5.706,12.993,12.563v4.067H194.499z"/>
	<path style="fill:#3695B2;" d="M194.499,409.49c-0.394,0.005-0.785,0.03-1.173,0.071c6.367,0.673,11.82,6.029,11.82,12.492v4.067
		h2.347v-4.067C207.492,415.197,201.355,409.584,194.499,409.49z"/>
	<polygon style="fill:#F2464F;" points="194.499,423.623 191.278,420.675 193.007,413.168 194.499,413.168 195.99,413.168 
		197.72,420.675 	"/>
	<g>
		<polygon style="fill:#D3333C;" points="195.99,413.168 194.499,413.168 194.23,413.168 195.96,420.675 193.619,422.818 
			194.499,423.623 197.72,420.675 		"/>
		<path style="fill:#D3333C;" d="M195.99,413.168h-1.491h-1.491l-1.668-3.241c1.021-0.271,2.081-0.422,3.159-0.437
			c1.078,0.015,2.138,0.166,3.159,0.437L195.99,413.168z"/>
	</g>
	<path style="fill:#7F1B20;" d="M196.037,409.605l-1.807,3.563h0.269h1.491l1.668-3.241
		C197.127,409.787,196.586,409.679,196.037,409.605z"/>
	<path style="fill:#FFC89F;" d="M215.581,411.997L215.581,411.997c2.902,0,5.277-2.375,5.277-5.277v-4.541
		c0-2.902-2.375-5.277-5.277-5.277l0,0c-2.902,0-5.277,2.375-5.277,5.277v4.541C210.305,409.622,212.679,411.997,215.581,411.997z"
		/>
	<path style="fill:#F7B081;" d="M215.581,396.903L215.581,396.903c-0.403,0-0.796,0.047-1.173,0.134
		c2.342,0.537,4.103,2.644,4.103,5.143v4.541c0,2.499-1.761,4.605-4.103,5.143c0.378,0.087,0.77,0.134,1.173,0.134l0,0
		c2.902,0,5.277-2.375,5.277-5.277v-4.541C220.858,399.277,218.484,396.903,215.581,396.903z"/>
	<path style="fill:#FFC89F;" d="M194.499,409.501L194.499,409.501c3.415,0,6.209-2.794,6.209-6.209v-5.343
		c0-3.415-2.794-6.209-6.209-6.209l0,0c-3.415,0-6.209,2.794-6.209,6.209v5.343C188.289,406.707,191.084,409.501,194.499,409.501z"
		/>
	<path style="fill:#F7B081;" d="M194.499,391.739L194.499,391.739c-0.401,0-0.793,0.04-1.173,0.113
		c2.859,0.553,5.036,3.082,5.036,6.096v5.343c0,3.014-2.177,5.543-5.036,6.096c0.38,0.073,0.772,0.113,1.173,0.113l0,0
		c3.415,0,6.209-2.794,6.209-6.209v-5.343C200.708,394.533,197.914,391.739,194.499,391.739z"/>
	<path style="fill:#D3333C;" d="M216.849,415.113h-1.267h-1.267l-1.417-2.754c0.868-0.23,1.769-0.359,2.685-0.371
		c0.916,0.013,1.817,0.141,2.685,0.371L216.849,415.113z"/>
	<path style="fill:#7F1B20;" d="M216.65,412.056l-1.561,3.057h0.493h1.267l1.417-2.754
		C217.738,412.219,217.198,412.118,216.65,412.056z"/>
	<polygon style="fill:#F2464F;" points="215.581,423.998 212.844,421.493 214.314,415.113 215.581,415.113 216.849,415.113 
		218.318,421.493 	"/>
	<polygon style="fill:#D3333C;" points="216.849,415.113 215.581,415.113 215.089,415.113 216.558,421.493 214.701,423.193 
		215.581,423.998 218.318,421.493 	"/>
	<path style="fill:#EFE7E4;" d="M217.012,367.88c-8.55,0-15.482,5.618-15.482,12.549c0,2.757,1.097,5.307,2.957,7.378l0.002-0.002
		c0,0-0.208,2.343-2.168,4.431c-0.29,0.309-0.07,0.821,0.353,0.83c1.494,0.032,4.159-0.199,6.209-1.955l-0.042-0.024
		c2.372,1.197,5.171,1.891,8.171,1.891c8.55,0,15.482-5.618,15.482-12.549C232.494,373.499,225.563,367.88,217.012,367.88z"/>
	<path style="fill:#D8D1D0;" d="M217.012,367.88c-0.395,0-0.786,0.012-1.173,0.036c8.002,0.486,14.309,5.903,14.309,12.513
		c0,6.609-6.303,12.025-14.303,12.513c0.386,0.023,0.775,0.036,1.168,0.036c8.55,0,15.482-5.618,15.482-12.549
		C232.494,373.499,225.563,367.88,217.012,367.88z"/>
	<path style="fill:#F7CB4F;" d="M217.334,385.661h2.263c3.433-3.705,3.433-7.732,3.433-7.732c0-3.891-2.55-5.696-5.696-5.696
		s-5.696,1.805-5.696,5.696c0,0,0,4.027,3.433,7.732H217.334z"/>
	<path style="fill:#FFAE47;" d="M217.334,372.233c-0.402,0-0.795,0.03-1.173,0.09c2.583,0.407,4.523,2.213,4.523,5.606
		c0,0,0,4.027-3.433,7.732h0.084h2.263c3.433-3.705,3.433-7.732,3.433-7.732C223.03,374.038,220.48,372.233,217.334,372.233z"/>
	<path style="fill:#FF6137;" d="M218.381,388.471h-2.101c-0.669,0-1.212-0.543-1.212-1.212v-1.599h4.524v1.599
		C219.592,387.929,219.05,388.471,218.381,388.471z"/>
	<path d="M219.183,411.709c1.546-1.12,2.555-2.938,2.555-4.989v-4.541c0-3.395-2.762-6.157-6.157-6.157
		c-3.395,0-6.157,2.762-6.157,6.157v4.541c0,2.055,1.013,3.877,2.565,4.996c-2.126,0.701-4.067,1.978-5.543,3.681
		c-1.786-2.901-4.673-5.156-8.058-6.182c1.926-1.269,3.2-3.449,3.2-5.923v-5.343c0-3.909-3.18-7.089-7.089-7.089
		c-3.909,0-7.089,3.18-7.089,7.089v5.343c0,2.474,1.274,4.654,3.2,5.923c-5.697,1.727-9.984,6.935-9.984,12.838v4.067
		c0,0.486,0.394,0.88,0.88,0.88h5.317c0.486,0,0.88-0.394,0.88-0.88s-0.394-0.88-0.88-0.88h-4.437v-3.187
		c0-3.037,1.297-5.942,3.652-8.18c1.389-1.319,3.065-2.307,4.855-2.892l1.185,2.303l-1.657,7.193
		c-0.071,0.309,0.029,0.633,0.263,0.847l3.221,2.948c0.168,0.154,0.381,0.231,0.594,0.231s0.426-0.077,0.594-0.231l3.221-2.948
		c0.234-0.214,0.335-0.538,0.263-0.847l-1.657-7.193l1.185-2.303c1.79,0.585,3.466,1.573,4.855,2.892
		c1.08,1.026,1.937,2.193,2.549,3.449c0.007,0.018,0.013,0.037,0.022,0.054c0.4,0.831,0.69,1.689,0.868,2.565
		c0.003,0.014,0.006,0.028,0.008,0.042c0.015,0.076,0.029,0.152,0.043,0.229c0.005,0.026,0.009,0.052,0.014,0.078
		c0.011,0.065,0.021,0.13,0.031,0.195c0.005,0.035,0.011,0.07,0.015,0.105c0.008,0.057,0.015,0.115,0.022,0.173
		c0.005,0.041,0.01,0.081,0.015,0.122c0.006,0.054,0.011,0.108,0.016,0.162c0.004,0.043,0.009,0.087,0.012,0.13
		c0.004,0.054,0.008,0.109,0.012,0.164c0.003,0.043,0.006,0.085,0.009,0.128c0.003,0.061,0.006,0.122,0.008,0.183
		c0.001,0.036,0.003,0.072,0.004,0.109c0.003,0.097,0.004,0.195,0.004,0.293v3.187h-16.856c-0.486,0-0.88,0.394-0.88,0.88
		s0.394,0.88,0.88,0.88h17.736h4.222c0.486,0,0.88-0.394,0.88-0.88s-0.394-0.88-0.88-0.88h-3.342v-3.187
		c0-0.111-0.002-0.222-0.005-0.332c0-0.011-0.001-0.022-0.001-0.033c-0.046-1.579-0.392-3.121-1.03-4.595
		c1.29-1.713,3.103-2.996,5.115-3.677l0.934,1.814l-1.397,6.066c-0.071,0.309,0.029,0.633,0.263,0.847l2.737,2.505
		c0.168,0.154,0.381,0.231,0.594,0.231c0.213,0,0.426-0.077,0.594-0.231l2.737-2.505c0.234-0.214,0.335-0.538,0.263-0.847
		l-1.397-6.066l0.932-1.811c1.462,0.495,2.832,1.309,3.97,2.39c1.975,1.876,3.062,4.311,3.062,6.855v2.576h-11.096
		c-0.486,0-0.88,0.394-0.88,0.88s0.394,0.88,0.88,0.88h11.976c0.486,0,0.88-0.394,0.88-0.88v-3.456
		C227.503,417.679,223.949,413.27,219.183,411.709z M194.499,422.43l-2.248-2.058l1.457-6.325h1.582l1.457,6.325L194.499,422.43z
		 M192.647,410.545c0.04-0.007,0.08-0.014,0.12-0.021c0.015-0.002,0.029-0.004,0.044-0.007c0.142-0.023,0.284-0.042,0.427-0.06
		c0.077-0.009,0.153-0.018,0.23-0.026c0.049-0.005,0.097-0.01,0.146-0.015c0.125-0.011,0.249-0.02,0.374-0.027
		c0.035-0.002,0.07-0.004,0.105-0.005c0.076-0.004,0.153-0.006,0.229-0.008c0.059,0.001,0.117,0.004,0.177,0.004
		s0.118-0.003,0.177-0.004c0.076,0.002,0.153,0.004,0.229,0.008c0.035,0.002,0.07,0.003,0.105,0.005
		c0.125,0.007,0.249,0.016,0.374,0.027c0.049,0.004,0.097,0.01,0.146,0.015c0.077,0.008,0.153,0.017,0.23,0.026
		c0.142,0.017,0.285,0.037,0.426,0.06c0.015,0.002,0.029,0.004,0.044,0.007c0.04,0.007,0.08,0.014,0.12,0.021l-0.897,1.743h-1.909
		L192.647,410.545z M194.709,408.616c-0.066-0.002-0.132-0.004-0.198-0.005c0,0,0,0,0,0h0c-0.008,0-0.016,0-0.024,0l0,0c0,0,0,0,0,0
		c-0.066,0.001-0.132,0.003-0.198,0.005c-2.841-0.111-5.119-2.456-5.119-5.324v-2.707c4.761-0.367,6.524-3.63,6.524-3.63
		s1.157,3.049,4.134,3.583v2.753C199.828,406.16,197.551,408.505,194.709,408.616z M215.581,422.805l-1.764-1.615l1.197-5.197h1.134
		l1.197,5.197L215.581,422.805z M214.208,412.985c0.04-0.006,0.08-0.012,0.12-0.018c0.04-0.006,0.079-0.011,0.119-0.016
		c0.061-0.008,0.123-0.016,0.185-0.022c0.05-0.006,0.1-0.01,0.15-0.015c0.054-0.005,0.108-0.01,0.162-0.015
		c0.063-0.005,0.126-0.009,0.188-0.013c0.043-0.003,0.086-0.006,0.129-0.008c0.055-0.003,0.11-0.004,0.165-0.005
		c0.052,0.001,0.103,0.004,0.155,0.004c0.046,0,0.092-0.002,0.137-0.004c0.101,0.003,0.202,0.006,0.303,0.012
		c0.032,0.002,0.065,0.004,0.097,0.006c0.141,0.01,0.282,0.022,0.422,0.038c0.004,0,0.008,0.001,0.011,0.001
		c0.134,0.015,0.268,0.035,0.401,0.055l-0.642,1.247h-1.461L214.208,412.985z M215.761,411.112
		c-0.056-0.002-0.111-0.004-0.167-0.004l0,0c-0.008,0-0.016,0-0.024,0h0c-0.001,0-0.002,0-0.004,0
		c-0.052,0.001-0.103,0.003-0.154,0.004c-2.346-0.09-4.227-2.025-4.227-4.393v-2.311c3.947-0.361,5.412-3.074,5.412-3.074
		s0.949,2.501,3.381,3.019v2.366C219.978,409.084,218.102,411.018,215.761,411.112z"/>
	<path d="M217.012,367c-9.022,0-16.362,6.024-16.362,13.429c0,2.761,1.002,5.395,2.903,7.645c-0.14,0.669-0.583,2.184-1.874,3.56
		c-0.369,0.393-0.471,0.969-0.262,1.468c0.211,0.501,0.696,0.832,1.238,0.844c0.084,0.002,0.171,0.003,0.262,0.003
		c1.498,0,3.993-0.27,6.079-1.804c2.434,1.126,5.167,1.714,8.015,1.714c9.022,0,16.362-6.024,16.362-13.429
		C233.374,373.025,226.034,367,217.012,367z M217.012,392.099c-2.754,0-5.383-0.601-7.686-1.748
		c-0.031-0.018-0.063-0.034-0.096-0.048c-0.388-0.197-0.766-0.409-1.135-0.636c-0.414-0.255-0.956-0.128-1.211,0.286
		c-0.256,0.413-0.128,0.956,0.286,1.211c0.016,0.01,0.033,0.02,0.049,0.03c-1.263,0.69-2.638,0.92-3.688,0.979
		c1.62-2.089,1.825-4.192,1.833-4.289c0.024-0.268-0.077-0.524-0.259-0.704c-1.764-1.981-2.696-4.314-2.696-6.75
		c0-6.435,6.55-11.669,14.602-11.669c8.051,0,14.602,5.235,14.602,11.669C231.614,386.864,225.064,392.099,217.012,392.099z"/>
	<path d="M221.954,372.971c-1.164-1.058-2.761-1.618-4.62-1.618c-2.904,0-5.115,1.354-6.065,3.716
		c-0.181,0.451,0.037,0.964,0.488,1.145c0.451,0.181,0.963-0.037,1.145-0.488c0.915-2.273,3.169-2.613,4.432-2.613
		c1.448,0,4.816,0.469,4.816,4.813c0,0.036-0.059,3.479-2.862,6.756l0.541-4.447c0.031-0.25-0.048-0.501-0.215-0.69
		c-0.167-0.189-0.407-0.296-0.659-0.296h-3.244c-0.252,0-0.492,0.108-0.659,0.296c-0.167,0.189-0.245,0.44-0.215,0.69l0.541,4.447
		c-2.794-3.267-2.861-6.699-2.862-6.756c-0.001-0.485-0.395-0.878-0.88-0.878c-0.486,0-0.88,0.394-0.88,0.88
		c0,0.174,0.042,4.227,3.43,8.064v1.266c0,1.153,0.938,2.092,2.092,2.092h2.101c1.154,0,2.092-0.938,2.092-2.092v-1.258
		c3.395-3.84,3.438-7.898,3.438-8.073C223.91,375.849,223.234,374.135,221.954,372.971z M217.962,381.009l-0.459,3.772h-0.338
		l-0.459-3.772H217.962z M218.712,387.26c0,0.183-0.149,0.332-0.332,0.332h-2.101c-0.183,0-0.332-0.149-0.332-0.332v-0.719h2.334
		c0.001,0,0.001,0,0.002,0c0.001,0,0.002,0,0.002,0h0.426V387.26z"/>
</g>
</svg>
