<?xml version="1.0" encoding="iso-8859-1"?>
<!-- Generator: Adobe Illustrator 21.1.0, SVG Export Plug-In . SVG Version: 6.00 Build 0)  -->
<svg version="1.1" id="Layer_1" xmlns="http://www.w3.org/2000/svg" xmlns:xlink="http://www.w3.org/1999/xlink" x="0px" y="0px"
	 viewBox="182.806 394.843 48.388 60" style="enable-background:new 182.806 394.843 48.388 60;" xml:space="preserve">
<g>
	<g>
		<polygon style="fill:#FFF8EF;" points="218.571,397.304 218.571,417.185 208.052,419.815 208.052,399.934 		"/>
		<polygon style="fill:#FFF8EF;" points="205.948,399.934 205.948,419.815 195.429,417.185 195.429,397.304 		"/>
	</g>
	<g>
		<path style="fill:#EE5656;" d="M221.727,401.196v18.934h-6.206l4.313-1.052c0.421-0.105,0.842-0.526,0.842-1.052v-16.831H221.727z
			"/>
		<path style="fill:#EE5656;" d="M193.325,401.196v16.831c0,0.526,0.316,0.947,0.842,1.052l4.313,1.052h-6.206v-18.934H193.325z"/>
	</g>
	<path style="fill:#1D9AAE;" d="M223.831,416.343v4.839c0,0.526-0.526,1.052-1.052,1.052H207h-1.262h-14.516
		c-0.526,0-1.052-0.526-1.052-1.052v-4.839c-3.366,3.997-5.26,9.046-5.26,14.306c0,5.575,2.104,10.729,5.575,14.622
		c-0.105-0.736-0.21-1.367-0.21-1.999c0-1.788,1.473-2.735,2.735-3.576c0.526-0.316,0.947-0.631,1.262-0.947
		c0.316-0.316,0.631-0.736,0.947-1.262c0.842-1.262,1.788-2.735,3.471-2.735s2.63,1.578,3.366,2.84
		c0.316,0.526,0.631,1.052,0.947,1.367c1.367,1.367,1.788,2.314,1.788,4.313c0,0.526,0.105,1.052,0.21,1.578
		c0.21,1.367,0.526,2.945-0.631,4.102c-1.262,1.262-3.051,1.157-4.734,1.157c-0.736,0-1.578,0-2.419,0.105c-0.105,0-0.21,0-0.316,0
		c3.051,1.578,6.522,2.525,10.204,2.525c6.627,0,12.623-2.945,16.62-7.574c-0.316,0-0.736,0-1.052,0c-0.631,0-1.262,0-1.893-0.105
		c-0.526,0-1.157,0-1.578,0c-2.735,0-4.313-1.473-5.891-2.945l-0.316-0.21c-1.999-1.788-2.314-3.471-2.314-5.996
		c0-2.84,0.842-4.102,2.63-5.68c0.421-0.421,0.842-1.052,1.367-1.683c1.052-1.473,2.419-3.366,4.523-3.366
		c2.209,0,3.576,1.893,4.734,3.366c0.526,0.631,0.947,1.157,1.367,1.578c0.421,0.316,0.947,0.736,1.473,1.157
		c0.842,0.631,1.683,1.157,2.314,1.999c0.105-0.842,0.21-1.683,0.21-2.525C229.09,425.39,227.197,420.341,223.831,416.343z
		 M202.792,434.12c-0.947,0-1.999-0.421-3.051-0.947c-2.525-1.578-4.839-4.628-4.839-6.732c0-0.947,0.421-1.473,0.736-1.683
		c1.052-0.947,2.735-0.736,4.734-0.526c0.842,0.105,1.683,0.21,2.419,0.21c0.842,0,1.473-0.105,1.999-0.21
		c0.316-0.105,0.631-0.105,0.947-0.105c0.316,0,0.631,0.105,0.947,0.316c0.631,0.526,0.631,1.262,0.631,2.104
		C207.421,430.018,206.264,434.12,202.792,434.12z"/>
	<g>
		<path style="fill:#7AC943;" d="M196.902,438.749c0.526-0.842,1.157-1.788,1.683-1.788s1.052,0.947,1.578,1.788
			c0.421,0.631,0.736,1.262,1.262,1.788c0.947,0.947,1.157,1.367,1.157,2.84c0,0.736,0.105,1.367,0.316,1.999
			c0.21,1.157,0.316,1.893,0,2.209c-0.631,0.631-1.893,0.526-3.156,0.526c-0.947,0-1.893,0-2.735,0.105
			c-1.052,0.105-2.419,0.316-2.945-0.21c-0.842-0.842-1.578-3.051-1.578-4.628c0-0.631,0.842-1.157,1.788-1.788
			c0.526-0.316,1.157-0.736,1.578-1.157C196.06,439.906,196.481,439.275,196.902,438.749z"/>
		<path style="fill:#7AC943;" d="M205.317,426.442c0,2.209-0.631,5.575-2.525,5.575c-2.314,0-5.785-3.892-5.785-5.575
			c0-0.105,0-0.21,0-0.21c0.316-0.316,2.104-0.105,3.156,0c0.842,0.105,1.788,0.21,2.63,0.21c1.052,0,1.893-0.21,2.419-0.316l0,0
			C205.317,426.231,205.317,426.336,205.317,426.442z"/>
		<path style="fill:#7AC943;" d="M227.933,435.909c0,0.842-0.105,1.893-0.421,2.84c-0.526,1.262-1.052,2.419-1.788,3.576l0,0
			c-0.947,0.842-3.051,0.736-4.839,0.631c-0.631,0-1.157-0.105-1.683-0.105c-1.893,0-3.051-1.052-4.523-2.419l-0.316-0.105
			c-1.367-1.262-1.683-2.314-1.683-4.418c0-1.999,0.421-2.735,1.893-4.102c0.631-0.526,1.157-1.367,1.683-2.104
			c0.842-1.262,1.683-2.525,2.84-2.525c1.157,0,2.104,1.262,3.051,2.525c0.526,0.631,1.052,1.367,1.578,1.893
			c0.526,0.421,1.052,0.842,1.578,1.262C226.671,433.805,227.933,434.752,227.933,435.909z"/>
	</g>
	<g>
		<path style="fill:#42210B;" d="M205.317,426.442c0-0.105,0-0.21,0-0.21l0,0c-0.526,0.105-1.367,0.316-2.419,0.316
			c-0.842,0-1.788-0.105-2.63-0.21c-0.947-0.105-2.84-0.316-3.156,0c0,0,0,0,0,0.21c0,1.683,3.471,5.575,5.785,5.575
			C204.686,432.017,205.317,428.651,205.317,426.442z M206.79,424.338c0.631,0.526,0.631,1.262,0.631,2.104
			c0,3.577-1.262,7.679-4.628,7.679c-0.947,0-1.999-0.421-3.051-0.947c-2.525-1.578-4.839-4.628-4.839-6.732
			c0-0.842,0.421-1.473,0.736-1.683c1.052-0.947,2.735-0.736,4.734-0.526c0.842,0.105,1.683,0.21,2.419,0.21
			c0.842,0,1.473-0.105,1.999-0.21c0.316-0.105,0.631-0.105,0.947-0.105C206.158,424.022,206.474,424.127,206.79,424.338z"/>
		<path style="fill:#42210B;" d="M198.48,420.13l-4.313-1.052c-0.526-0.105-0.842-0.526-0.842-1.052v-16.831h-1.052v18.934H198.48z
			 M198.585,436.961c-0.631,0-1.157,0.947-1.683,1.788c-0.421,0.526-0.736,1.157-1.157,1.578s-1.052,0.842-1.578,1.157
			c-0.842,0.526-1.788,1.157-1.788,1.788c0,1.578,0.736,3.787,1.578,4.628c0.421,0.421,1.788,0.316,2.945,0.21
			c0.947-0.105,1.788-0.105,2.735-0.105c1.262,0,2.525,0.105,3.156-0.526c0.316-0.316,0.21-1.157,0-2.209
			c-0.105-0.631-0.316-1.367-0.316-1.999c0-1.473-0.21-1.893-1.157-2.84c-0.526-0.526-0.842-1.157-1.262-1.788
			C199.637,437.907,199.111,436.961,198.585,436.961z M220.675,401.196v16.831c0,0.526-0.316,0.947-0.842,1.052l-4.313,1.052h6.206
			v-18.934H220.675z M222.147,429.702c-0.947-1.262-1.893-2.525-3.051-2.525c-1.052,0-1.893,1.262-2.84,2.525
			c-0.526,0.736-1.052,1.473-1.683,2.104c-1.473,1.367-1.893,2.104-1.893,4.102c0,2.104,0.21,3.156,1.683,4.418l0.316,0.21
			c1.473,1.367,2.63,2.419,4.523,2.419c0.526,0,1.157,0,1.683,0.105c1.893,0.105,3.997,0.21,4.839-0.631l0,0
			c0.736-1.157,1.367-2.314,1.788-3.576c0.21-0.947,0.421-1.999,0.421-2.84c0-1.157-1.262-2.104-2.525-3.051
			c-0.526-0.421-1.157-0.842-1.578-1.262C223.199,431.07,222.673,430.439,222.147,429.702z M205.948,419.815v-19.881l-10.519-2.63
			v19.881L205.948,419.815z M208.052,419.815l10.519-2.63v-19.881l-10.519,2.63V419.815z M227.512,443.482
			c-4.313,6.837-11.887,11.361-20.512,11.361c-13.359,0-24.194-10.835-24.194-24.194c0-6.522,2.735-12.833,7.363-17.356v-13.149
			c0-0.631,0.526-1.052,1.052-1.052h2.104v-3.156c0-0.316,0.105-0.631,0.421-0.842c0.21-0.21,0.631-0.21,0.842-0.21L207,398.04
			l12.413-3.156c0.316-0.105,0.631,0,0.947,0.21c0.21,0.21,0.316,0.526,0.316,0.842v3.156h2.104c0.526,0,1.052,0.421,1.052,1.052
			v13.149c4.734,4.523,7.363,10.835,7.363,17.356c0,3.156-0.631,6.101-1.683,8.941C229.09,441.063,228.354,442.431,227.512,443.482z
			 M210.576,435.909c0-2.84,0.842-3.997,2.63-5.68c0.421-0.421,0.842-1.052,1.367-1.683c1.052-1.473,2.419-3.366,4.523-3.366
			c2.209,0,3.576,1.893,4.734,3.366c0.526,0.631,0.947,1.157,1.367,1.578c0.421,0.421,0.947,0.736,1.473,1.157
			c0.842,0.631,1.683,1.262,2.314,1.999c0.105-0.842,0.21-1.683,0.21-2.525c0-5.26-1.893-10.309-5.26-14.306v4.734
			c0,0.526-0.526,1.052-1.052,1.052H207h-1.262h-14.516c-0.526,0-1.052-0.526-1.052-1.052v-4.839
			c-3.366,3.997-5.26,9.046-5.26,14.306c0,5.575,2.104,10.729,5.575,14.622c-0.105-0.736-0.21-1.367-0.21-1.999
			c0-1.788,1.473-2.735,2.735-3.471c0.526-0.316,0.947-0.631,1.262-0.947c0.316-0.316,0.631-0.736,0.947-1.262
			c0.842-1.262,1.788-2.735,3.471-2.735s2.63,1.578,3.366,2.84c0.316,0.526,0.631,1.052,0.947,1.367
			c1.367,1.367,1.788,2.314,1.788,4.313c0,0.526,0.105,1.052,0.21,1.578c0.21,1.367,0.526,2.945-0.631,4.102
			c-1.262,1.262-3.051,1.157-4.734,1.157c-0.736,0-1.578,0-2.419,0.105c-0.105,0-0.21,0-0.316,0
			c3.051,1.578,6.522,2.525,10.204,2.525c6.627,0,12.623-2.945,16.62-7.574c-0.316,0-0.736,0-1.052,0c-0.631,0-1.262,0-1.893-0.105
			c-0.526,0-1.157,0-1.578,0c-2.735,0-4.313-1.473-5.891-2.945l-0.316-0.21C210.997,440.116,210.576,438.433,210.576,435.909z"/>
	</g>
	<path style="fill:#2FB4C2;" d="M228.88,433.174c0.105-0.842,0.21-1.683,0.21-2.525c0-5.26-1.893-10.309-5.26-14.306v4.839
		c0,0.526-0.526,1.052-1.052,1.052H207h-1.262h-14.516c-0.526,0-1.052-0.526-1.052-1.052v-4.839
		c-3.366,3.997-5.26,9.046-5.26,14.306c0,2.104,0.316,4.102,0.842,5.996c1.367,1.893,3.051,3.682,4.944,5.154
		c0.526-0.842,1.473-1.473,2.314-1.999c0.526-0.316,0.947-0.631,1.262-0.947c0.316-0.316,0.631-0.736,0.947-1.262
		c0.842-1.262,1.788-2.735,3.471-2.735s2.63,1.578,3.366,2.84c0.316,0.526,0.631,1.052,0.947,1.367
		c1.367,1.367,1.788,2.314,1.788,4.313c0,0.526,0.105,1.052,0.21,1.578c0.105,0.736,0.316,1.683,0.21,2.525
		c0.631,0,1.262,0.105,1.893,0.105c3.997,0,7.784-0.842,11.15-2.525c-2.209-0.316-3.576-1.578-4.944-2.84l-0.316-0.21
		c-1.999-1.788-2.314-3.471-2.314-5.996c0-2.84,0.842-4.102,2.63-5.68c0.421-0.421,0.842-1.052,1.367-1.683
		c1.052-1.473,2.419-3.366,4.523-3.366c2.209,0,3.576,1.893,4.734,3.366c0.526,0.631,0.947,1.157,1.367,1.578
		c0.421,0.316,0.947,0.736,1.473,1.157C227.407,431.806,228.249,432.332,228.88,433.174z M202.792,434.12
		c-0.947,0-1.999-0.421-3.051-0.947c-2.525-1.578-4.839-4.628-4.839-6.732c0-0.947,0.421-1.473,0.736-1.683
		c1.052-0.947,2.735-0.736,4.734-0.526c0.842,0.105,1.683,0.21,2.419,0.21c0.842,0,1.473-0.105,1.999-0.21
		c0.316-0.105,0.631-0.105,0.947-0.105c0.316,0,0.631,0.105,0.947,0.316c0.631,0.526,0.631,1.262,0.631,2.104
		C207.421,430.018,206.264,434.12,202.792,434.12z"/>
	<g>
		<path style="fill:#D9CDC1;" d="M195.429,397.304v19.881l4.628,1.157l4.418,1.052l-7.679-3.366c-0.21-0.105-0.316-0.21-0.316-0.421
			v-15.989c0-0.316,0.21-0.526,0.526-0.526l8.941,1.052v-0.21L195.429,397.304z"/>
		<path style="fill:#D9CDC1;" d="M218.571,397.304v19.881l-4.628,1.157l-4.418,1.052l7.679-3.366c0.21-0.105,0.316-0.21,0.316-0.421
			v-15.989c0-0.316-0.21-0.526-0.526-0.526l-8.941,1.052v-0.21L218.571,397.304z"/>
	</g>
</g>
</svg>
