<?xml version="1.0" encoding="iso-8859-1"?>
<!-- Generator: Adobe Illustrator 21.1.0, SVG Export Plug-In . SVG Version: 6.00 Build 0)  -->
<svg version="1.1" id="Layer_1" xmlns="http://www.w3.org/2000/svg" xmlns:xlink="http://www.w3.org/1999/xlink" x="0px" y="0px"
	 viewBox="177 367.004 60 59.995" style="enable-background:new 177 367.004 60 59.995;" xml:space="preserve">
<g>
	<path style="fill:#F7CB4F;" d="M201.932,370.966c-0.434-1.769-2.029-3.082-3.932-3.082s-3.498,1.313-3.932,3.082h-7.787v6.804
		h23.438v-6.804H201.932z"/>
	<path style="fill:#546F7A;" d="M206.677,421.51c0-6.547,4.939-12.093,11.142-13.739l0,0c0,0,0,0,0,0
		c0.1-0.027,0.201-0.051,0.301-0.075v-1.227c-2.229-1.183-3.757-3.529-3.757-6.216v-6.054c0-2.687,1.528-5.034,3.757-6.218v-15.007
		h-8.401v4.797h-23.438v-4.797h-8.401v49.159h28.797V421.51z"/>
	<g>
		<rect x="183.933" y="372.973" style="fill:#465A65;" width="2.348" height="4.797"/>
		<path style="fill:#465A65;" d="M218.12,387.98v-15.007h-2.348v15.007c-2.229,1.184-3.757,3.531-3.757,6.218v6.054
			c0,2.687,1.528,5.033,3.757,6.216v1.227c-0.101,0.024-0.201,0.049-0.301,0.075c0,0,0,0,0,0l0,0
			c-6.203,1.646-11.142,7.192-11.142,13.739v0.623h2.348v-0.623c0-6.547,4.939-12.093,11.142-13.739l0,0c0,0,0,0,0,0
			c0.1-0.027,0.201-0.051,0.301-0.075v-1.227c-2.229-1.183-3.757-3.529-3.757-6.216v-6.054
			C214.363,391.511,215.891,389.164,218.12,387.98z"/>
	</g>
	<path style="fill:#68B9D8;" d="M221.398,426.118h-14.721v-4.608c0-7.769,6.953-14.128,14.721-14.234
		c7.768,0.106,14.721,6.465,14.721,14.234v4.608H221.398z"/>
	<path style="fill:#3695B2;" d="M221.398,407.276c-0.394,0.005-0.785,0.028-1.174,0.065c7.281,0.691,13.548,6.795,13.548,14.17
		v4.608h2.348v-4.608C236.119,413.741,229.166,407.382,221.398,407.276z"/>
	<path style="fill:#FFC89F;" d="M221.398,407.288L221.398,407.288c3.869,0,7.035-3.166,7.035-7.035v-6.054
		c0-3.869-3.166-7.035-7.035-7.035l0,0c-3.869,0-7.035,3.166-7.035,7.035v6.054C214.363,404.122,217.529,407.288,221.398,407.288z"
		/>
	<path style="fill:#F7B081;" d="M221.398,387.163L221.398,387.163c-0.4,0-0.792,0.036-1.174,0.1
		c3.316,0.563,5.862,3.465,5.862,6.935v6.054c0,3.47-2.546,6.372-5.862,6.935c0.382,0.065,0.774,0.1,1.174,0.1l0,0
		c3.869,0,7.035-3.166,7.035-7.035v-6.054C228.434,390.329,225.268,387.163,221.398,387.163z"/>
	<path style="fill:#D3333C;" d="M223.088,411.442h-1.69h-1.69l-1.89-3.672c1.157-0.307,2.358-0.479,3.58-0.495
		c1.221,0.017,2.422,0.188,3.58,0.495L223.088,411.442z"/>
	<path style="fill:#7F1B20;" d="M222.689,407.352l-1.948,4.091h0.658h1.69l1.89-3.672
		C224.231,407.573,223.466,407.432,222.689,407.352z"/>
	<polygon style="fill:#F2464F;" points="221.398,423.288 217.749,419.948 219.708,411.442 221.398,411.442 223.088,411.442 
		225.047,419.948 	"/>
	<polygon style="fill:#D3333C;" points="223.088,411.442 221.398,411.442 220.74,411.442 222.7,419.948 220.224,422.214 
		221.398,423.288 225.047,419.948 	"/>
	<path style="fill:#EFE7E4;" d="M214.345,409.167V376.07h-4.626v1.7h-23.438v-1.7h-4.626v42.654h25.325
		C207.875,414.645,210.68,411.184,214.345,409.167z"/>
	<path style="fill:#D8D1D0;" d="M211.998,376.07v33.096c-3.665,2.017-6.47,5.479-7.365,9.558h2.348
		c0.895-4.079,3.7-7.541,7.365-9.558V376.07H211.998z"/>
	<path style="fill:#F7CB4F;" d="M209.719,398.547c0-0.002,0-0.004,0-0.006c0-6.922-5.612-12.534-12.534-12.534
		c-2.506,0-4.84,0.736-6.799,2.003l6.711,10.531L209.719,398.547z"/>
	<path style="fill:#F4B008;" d="M197.185,386.008c-0.394,0-0.783,0.02-1.167,0.056c6.368,0.595,11.353,5.954,11.353,12.478
		c0,0.002,0,0.003,0,0.005l2.348,0.001c0-0.002,0-0.004,0-0.006C209.719,391.62,204.108,386.008,197.185,386.008z"/>
	<path style="fill:#F2464F;" d="M197.097,398.542l-5.835-9.157c-2.998,1.943-4.982,5.318-4.982,9.157
		c0,3.508,1.657,6.629,4.23,8.624L197.097,398.542L197.097,398.542z"/>
	<path style="fill:#D3333C;" d="M189.257,406.026c0.388,0.411,0.807,0.793,1.255,1.139l6.586-8.624l-1.009-1.584L189.257,406.026z"
		/>
	<path style="fill:#FF6137;" d="M197.097,398.542l-5.474,7.168c1.536,1.194,3.466,1.905,5.562,1.905c5.01,0,9.071-4.06,9.073-9.069
		L197.097,398.542z"/>
	<path style="fill:#E04F32;" d="M197.097,398.542l-0.001,0.001l6.814,0.003c-0.002,4.614-3.449,8.42-7.908,8.992
		c0.387,0.05,0.782,0.077,1.183,0.077c5.01,0,9.071-4.06,9.073-9.069L197.097,398.542z"/>
	<path d="M225.527,407.003c2.27-1.393,3.787-3.898,3.787-6.751v-6.054c0-4.365-3.551-7.916-7.916-7.916
		c-0.836,0-1.641,0.131-2.398,0.372v-13.682c0-0.486-0.394-0.88-0.88-0.88h-7.521v-1.127c0-0.486-0.394-0.88-0.88-0.88h-7.148
		c-0.741-1.845-2.533-3.082-4.572-3.082s-3.83,1.237-4.572,3.082h-7.148c-0.486,0-0.88,0.394-0.88,0.88v1.127h-7.521
		c-0.486,0-0.88,0.394-0.88,0.88v49.159c0,0.486,0.394,0.88,0.88,0.88h27.917v3.105c0,0.486,0.394,0.88,0.88,0.88h6.566
		c0.486,0,0.88-0.394,0.88-0.88s-0.394-0.88-0.88-0.88h-5.686v-3.105v-0.623c0-0.164,0.004-0.328,0.011-0.491
		c0.001-0.032,0.002-0.065,0.004-0.097c0.007-0.152,0.018-0.304,0.031-0.455c0.004-0.043,0.008-0.086,0.012-0.128
		c0.014-0.141,0.029-0.282,0.048-0.423c0.006-0.047,0.013-0.094,0.02-0.14c0.016-0.112,0.034-0.223,0.053-0.334
		c0.01-0.057,0.019-0.113,0.03-0.169c0.021-0.111,0.044-0.222,0.068-0.332c0.002-0.009,0.005-0.018,0.007-0.027
		c0.178-0.813,0.438-1.604,0.772-2.364c0.008-0.017,0.015-0.034,0.023-0.051c0.062-0.141,0.128-0.28,0.195-0.418
		c0.05-0.101,0.099-0.202,0.152-0.301c0.017-0.033,0.034-0.066,0.052-0.099c0.431-0.806,0.953-1.581,1.565-2.315
		c0.234-0.28,0.479-0.551,0.734-0.813c0.013-0.013,0.025-0.026,0.038-0.039c0.248-0.253,0.505-0.496,0.771-0.73
		c0.011-0.01,0.023-0.02,0.034-0.03c0.129-0.112,0.26-0.223,0.392-0.33c0.019-0.016,0.039-0.031,0.058-0.047
		c0.132-0.106,0.265-0.211,0.4-0.312c0.012-0.009,0.023-0.017,0.035-0.026c0.115-0.086,0.232-0.169,0.35-0.252
		c0.044-0.031,0.087-0.062,0.132-0.092c0.111-0.076,0.222-0.15,0.335-0.222c0.068-0.044,0.136-0.087,0.205-0.129
		c0.052-0.032,0.104-0.064,0.156-0.095c0.152-0.092,0.305-0.182,0.461-0.268c0.01-0.006,0.02-0.011,0.029-0.016
		c0.844-0.467,1.731-0.849,2.643-1.14l1.408,2.735l-1.887,8.192c-0.071,0.309,0.029,0.633,0.264,0.847l3.649,3.34
		c0.168,0.154,0.381,0.231,0.594,0.231c0.213,0,0.426-0.077,0.594-0.231l3.649-3.34c0.234-0.214,0.335-0.538,0.264-0.847
		l-1.887-8.192l1.408-2.735c2.08,0.664,4.03,1.804,5.64,3.333c2.692,2.557,4.174,5.878,4.174,9.352v3.728h-19.062
		c-0.486,0-0.88,0.394-0.88,0.88s0.394,0.88,0.88,0.88h19.942c0.486,0,0.88-0.394,0.88-0.88v-4.608
		C237,414.788,232.056,408.868,225.527,407.003z M215.225,405.2c0.564,0.703,1.245,1.308,2.014,1.784v0.027
		c-0.691,0.199-1.363,0.443-2.014,0.729V405.2z M221.636,406.401c-0.075-0.002-0.15-0.005-0.226-0.006c-0.008,0-0.016,0-0.024,0
		c-0.076,0.001-0.151,0.004-0.226,0.006c-0.922-0.035-1.791-0.274-2.567-0.673c-0.02-0.013-0.039-0.026-0.061-0.038
		c-1.514-0.804-2.6-2.168-3.054-3.755c-0.004-0.014-0.008-0.027-0.012-0.041c-0.016-0.059-0.032-0.117-0.046-0.176
		c-0.005-0.02-0.009-0.041-0.014-0.061c-0.021-0.089-0.04-0.179-0.057-0.27c-0.008-0.043-0.016-0.087-0.023-0.131
		c-0.007-0.041-0.013-0.081-0.019-0.122c-0.01-0.072-0.02-0.144-0.028-0.217c-0.003-0.027-0.005-0.054-0.008-0.08
		c-0.007-0.075-0.013-0.151-0.017-0.227c-0.002-0.027-0.003-0.053-0.004-0.079c-0.004-0.092-0.007-0.185-0.007-0.278v-3.048
		c5.477-0.378,7.502-4.124,7.502-4.124s1.344,3.539,4.808,4.084v3.088C227.553,403.566,224.92,406.275,221.636,406.401z
		 M187.161,371.846h6.907c0.405,0,0.758-0.277,0.855-0.671c0.348-1.42,1.614-2.411,3.077-2.411c1.464,0,2.729,0.992,3.077,2.411
		c0.096,0.394,0.45,0.671,0.855,0.671h6.907v1.127v3.097v0.819h-21.678v-0.819v-3.097V371.846z M178.76,373.853h6.64v1.337h-3.746
		c-0.486,0-0.88,0.394-0.88,0.88v25.226c0,0.486,0.394,0.88,0.88,0.88c0.486,0,0.88-0.394,0.88-0.88v-24.346h2.865v0.819
		c0,0.486,0.394,0.88,0.88,0.88h23.438c0.486,0,0.88-0.394,0.88-0.88v-0.819h2.865v4.858c0,0.486,0.394,0.88,0.88,0.88
		c0.486,0,0.88-0.394,0.88-0.88v-5.739c0-0.486-0.394-0.88-0.88-0.88h-3.746v-1.337h6.64v13.613
		c-0.769,0.477-1.45,1.081-2.014,1.784v-4.507c0-0.486-0.394-0.88-0.88-0.88c-0.486,0-0.88,0.394-0.88,0.88v23.9
		c-0.984,0.583-1.9,1.265-2.733,2.031c-0.013,0.012-0.027,0.024-0.04,0.036c-0.002,0.002-0.003,0.003-0.005,0.004
		c-1.297,1.193-2.373,2.575-3.183,4.087c-0.03,0.055-0.058,0.111-0.087,0.166c-0.04,0.078-0.08,0.156-0.119,0.235
		c-0.427,0.853-0.765,1.735-1.011,2.641h-23.753v-13.613c0-0.486-0.394-0.88-0.88-0.88c-0.486,0-0.88,0.394-0.88,0.88v14.494
		c0,0.486,0.394,0.88,0.88,0.88h24.274c-0.029,0.208-0.052,0.417-0.071,0.627c-0.009,0.092-0.016,0.185-0.023,0.278
		c-0.005,0.066-0.01,0.132-0.014,0.199c-0.01,0.164-0.016,0.329-0.02,0.495c0,0.016-0.002,0.032-0.002,0.048H178.76V373.853z
		 M221.398,422.095l-2.676-2.449l1.687-7.323h1.978l1.687,7.323L221.398,422.095z M222.551,410.562h-2.306l-1.122-2.179
		c0.076-0.014,0.153-0.027,0.229-0.04c0.048-0.008,0.096-0.016,0.145-0.023c0.109-0.017,0.218-0.033,0.327-0.047
		c0.112-0.015,0.223-0.028,0.335-0.04c0.059-0.006,0.119-0.012,0.178-0.018c0.15-0.014,0.299-0.026,0.449-0.035
		c0.036-0.002,0.072-0.004,0.108-0.006c0.103-0.005,0.205-0.008,0.308-0.011c0.065,0.002,0.13,0.005,0.196,0.005
		s0.13-0.003,0.196-0.005c0.103,0.003,0.205,0.006,0.308,0.011c0.036,0.002,0.072,0.003,0.108,0.006
		c0.15,0.009,0.3,0.021,0.449,0.035c0.059,0.006,0.119,0.012,0.178,0.018c0.112,0.012,0.224,0.026,0.336,0.04
		c0.108,0.014,0.217,0.03,0.325,0.047c0.049,0.008,0.098,0.016,0.147,0.024c0.076,0.013,0.152,0.026,0.228,0.04L222.551,410.562z"/>
	<path d="M189.972,407.861c0.155,0.12,0.345,0.185,0.539,0.185c0.038,0,0.076-0.002,0.114-0.007c0.233-0.03,0.443-0.152,0.586-0.339
		l0.597-0.782c1.602,1.034,3.444,1.577,5.378,1.577c5.189,0,9.462-3.994,9.912-9.069l2.621,0.001c0,0,0,0,0,0
		c0.233,0,0.457-0.093,0.622-0.258c0.161-0.161,0.254-0.378,0.258-0.606c0-0.008,0-0.016,0-0.022c0-4.199-1.911-8.077-5.244-10.639
		c-0.386-0.296-0.938-0.224-1.235,0.161c-0.296,0.385-0.224,0.938,0.161,1.234c2.663,2.048,4.281,5.061,4.524,8.369l-2.548-0.001
		c0,0,0,0,0,0l-8.678-0.004l-5.576-8.75c0,0,0,0,0,0l-0.388-0.608c1.702-0.928,3.61-1.415,5.569-1.415
		c1.708,0,3.353,0.361,4.89,1.072c0.441,0.204,0.964,0.012,1.169-0.429c0.204-0.441,0.012-0.964-0.429-1.169
		c-1.77-0.82-3.664-1.235-5.63-1.235c-2.592,0-5.109,0.741-7.277,2.144c-0.406,0.263-0.524,0.804-0.264,1.212l0.424,0.665
		c-2.938,2.224-4.668,5.674-4.668,9.392C185.4,402.213,187.067,405.609,189.972,407.861z M205.331,399.426
		c-0.443,4.103-3.927,7.309-8.145,7.309c-1.544,0-3.016-0.42-4.305-1.22l4.653-6.092l6.601,0.003L205.331,399.426z M191.017,390.639
		l5.007,7.857l-5.101,6.679c0,0-0.001,0.001-0.001,0.001l-0.549,0.719c-2.052-1.895-3.212-4.529-3.212-7.354
		C187.161,395.427,188.587,392.534,191.017,390.639z"/>
</g>
</svg>
