<?xml version="1.0" encoding="iso-8859-1"?>
<!-- Generator: Adobe Illustrator 21.1.0, SVG Export Plug-In . SVG Version: 6.00 Build 0)  -->
<svg version="1.1" id="Layer_1" xmlns="http://www.w3.org/2000/svg" xmlns:xlink="http://www.w3.org/1999/xlink" x="0px" y="0px"
	 viewBox="177 367.001 60 59.999" style="enable-background:new 177 367.001 60 59.999;" xml:space="preserve">
<g>
	<path style="fill:#353535;" d="M236.076,381.956v-3.677l-3.008-0.427c-0.233-0.951-0.608-1.846-1.102-2.66l1.825-2.429l-2.6-2.6
		l-2.429,1.825c-0.815-0.495-1.709-0.87-2.66-1.102l-0.427-3.008h-3.677l-0.427,3.008c-0.951,0.232-1.846,0.608-2.66,1.102
		l-2.429-1.825l-2.6,2.6l1.825,2.429c-0.495,0.815-0.87,1.71-1.102,2.66l-3.008,0.427v3.677l3.008,0.427
		c0.233,0.951,0.608,1.846,1.102,2.66l-1.825,2.429l1.992,1.992c1.302-1.556,3.255-2.551,5.43-2.551c2.065,0,3.93,0.896,5.228,2.318
		c0.791-0.233,1.539-0.566,2.23-0.985l2.429,1.825l2.6-2.6l-1.825-2.429c0.495-0.815,0.87-1.71,1.102-2.66L236.076,381.956z
		 M223.837,385.383c-2.908,0-5.265-2.357-5.265-5.265c0-2.908,2.357-5.265,5.265-5.265c2.908,0,5.265,2.357,5.265,5.265
		C229.102,383.026,226.745,385.383,223.837,385.383z"/>
	<g>
		<path style="fill:#232323;" d="M216.231,380.118c0,2.908,2.357,5.265,5.265,5.265c0.403,0,0.794-0.047,1.171-0.132
			c-2.344-0.533-4.094-2.628-4.094-5.133s1.75-4.6,4.094-5.133c-0.377-0.086-0.768-0.132-1.171-0.132
			C218.588,374.853,216.231,377.21,216.231,380.118z"/>
		<path style="fill:#232323;" d="M236.076,381.956v-3.677l-3.008-0.427c-0.233-0.951-0.608-1.846-1.102-2.66l1.825-2.429l-2.6-2.6
			l-1.337,1.004l1.595,1.595l-1.825,2.429c0.495,0.815,0.87,1.71,1.102,2.66l3.008,0.427v3.677l-3.008,0.427
			c-0.232,0.951-0.608,1.846-1.102,2.66l1.825,2.429l-1.595,1.595l1.337,1.005l2.6-2.6l-1.825-2.429
			c0.495-0.815,0.87-1.71,1.102-2.66L236.076,381.956z"/>
	</g>
	<path style="fill:#546F7A;" d="M211.071,403.025l3.586-0.509c-0.279-0.758-0.432-1.576-0.432-2.427v-3.62l-3.154-0.448
		c-0.359-1.47-0.939-2.854-1.704-4.113l2.821-3.755l-4.019-4.019l-3.755,2.821c-1.259-0.765-2.643-1.344-4.113-1.704l-0.66-4.65
		h-5.684l-0.66,4.65c-1.47,0.359-2.854,0.939-4.113,1.704l-3.755-2.821l-4.019,4.019l2.821,3.755
		c-0.765,1.259-1.344,2.643-1.704,4.113l-4.65,0.66v5.684l4.65,0.66c0.36,1.47,0.939,2.854,1.704,4.113l-2.821,3.755l4.019,4.019
		l3.755-2.821c1.259,0.765,2.643,1.344,4.113,1.704l0.66,4.65h5.684l0.66-4.65c1.47-0.359,2.854-0.939,4.113-1.704l3.755,2.821
		l0.166-0.166c0.926-1.594,2.161-3.01,3.612-4.174l-2.58-3.434C210.131,405.879,210.711,404.495,211.071,403.025z M196.799,407.663
		c-4.495,0-8.14-3.644-8.14-8.14c0-4.495,3.644-8.14,8.14-8.14c4.495,0,8.14,3.644,8.14,8.14
		C204.939,404.018,201.295,407.663,196.799,407.663z"/>
	<g>
		<path style="fill:#465A65;" d="M195.629,407.578c-3.941-0.568-6.969-3.957-6.969-8.055c0-4.098,3.029-7.487,6.969-8.055
			c-0.382-0.055-0.773-0.085-1.171-0.085c-4.495,0-8.14,3.644-8.14,8.14c0,4.495,3.644,8.14,8.14,8.14
			C194.856,407.663,195.246,407.633,195.629,407.578z"/>
		<path style="fill:#465A65;" d="M211.071,403.025l3.586-0.509c-0.279-0.758-0.432-1.576-0.432-2.427v-3.62l-3.154-0.448
			c-0.359-1.47-0.939-2.854-1.704-4.113l2.821-3.755l-4.019-4.019l-1.337,1.004l3.015,3.015l-2.821,3.755
			c0.765,1.259,1.344,2.643,1.704,4.113l3.154,0.448v3.62c0,0.852,0.153,1.669,0.432,2.427l-3.586,0.509
			c-0.359,1.47-0.939,2.854-1.704,4.113l2.58,3.434c-1.142,0.916-2.15,1.989-2.979,3.181l1.542,1.158l0.166-0.166
			c0.926-1.594,2.161-3.01,3.612-4.174l-2.58-3.434C210.131,405.879,210.711,404.495,211.071,403.025z"/>
	</g>
	<path style="fill:#68B9D8;" d="M221.305,426.122h-14.817v-4.638c0-7.819,6.999-14.22,14.817-14.326
		c7.818,0.107,14.817,6.507,14.817,14.326v4.638H221.305z"/>
	<path style="fill:#3695B2;" d="M221.305,407.157c-0.373,0.005-0.744,0.025-1.112,0.058c7.358,0.663,13.705,6.822,13.705,14.268
		v4.638h2.224v-4.638C236.122,413.665,229.123,407.264,221.305,407.157z"/>
	<path style="fill:#FFC89F;" d="M221.305,407.169L221.305,407.169c3.895,0,7.081-3.186,7.081-7.081v-6.093
		c0-3.895-3.186-7.081-7.081-7.081l0,0c-3.895,0-7.081,3.186-7.081,7.081v6.093C214.224,403.983,217.411,407.169,221.305,407.169z"
		/>
	<path style="fill:#F7B081;" d="M221.305,386.914L221.305,386.914c-0.399,0-0.789,0.035-1.171,0.099
		c3.342,0.562,5.91,3.486,5.91,6.982v6.093c0,3.496-2.568,6.419-5.91,6.982c0.381,0.064,0.772,0.099,1.171,0.099l0,0
		c3.895,0,7.081-3.186,7.081-7.081v-6.093C228.386,390.101,225.2,386.914,221.305,386.914z"/>
	<path style="fill:#D3333C;" d="M223.006,411.351h-1.701h-1.701l-1.902-3.695c1.165-0.309,2.374-0.482,3.603-0.498
		c1.229,0.017,2.438,0.189,3.603,0.498L223.006,411.351z"/>
	<path style="fill:#7F1B20;" d="M222.505,407.225l-1.84,4.126h0.64h1.701l1.902-3.695
		C224.125,407.448,223.321,407.304,222.505,407.225z"/>
	<polygon style="fill:#F2464F;" points="221.305,423.274 217.632,419.912 219.604,411.351 221.305,411.351 223.006,411.351 
		224.978,419.912 	"/>
	<polygon style="fill:#D3333C;" points="223.006,411.351 221.305,411.351 220.665,411.351 222.637,419.912 220.135,422.203 
		221.305,423.274 224.978,419.912 	"/>
	<path d="M225.441,406.886c2.291-1.399,3.823-3.923,3.823-6.797v-6.093c0-1.606-0.48-3.101-1.301-4.353
		c0.248-0.107,0.493-0.221,0.731-0.348l1.969,1.479c0.157,0.118,0.343,0.176,0.527,0.176c0.226,0,0.451-0.087,0.621-0.257l2.6-2.6
		c0.309-0.309,0.344-0.799,0.081-1.148l-1.479-1.969c0.306-0.577,0.556-1.18,0.748-1.805l2.438-0.346
		c0.433-0.061,0.754-0.432,0.754-0.869v-3.676c0-0.437-0.322-0.808-0.755-0.869l-2.438-0.346c-0.192-0.624-0.442-1.228-0.748-1.805
		l1.479-1.969c0.263-0.35,0.228-0.839-0.081-1.148l-2.6-2.6c-0.309-0.309-0.799-0.344-1.148-0.081l-1.969,1.479
		c-0.577-0.306-1.181-0.556-1.805-0.748l-0.346-2.438c-0.061-0.433-0.432-0.755-0.869-0.755h-3.677
		c-0.437,0-0.808,0.322-0.869,0.755l-0.346,2.438c-0.624,0.192-1.228,0.442-1.805,0.748l-1.969-1.479
		c-0.349-0.263-0.839-0.228-1.148,0.081l-2.6,2.6c-0.309,0.309-0.344,0.799-0.081,1.148l1.479,1.969
		c-0.306,0.577-0.556,1.18-0.748,1.805l-2.438,0.346c-0.433,0.061-0.755,0.432-0.755,0.869v3.677c0,0.437,0.322,0.808,0.754,0.869
		l2.438,0.346c0.192,0.624,0.442,1.228,0.748,1.805l-1.479,1.969c-0.263,0.35-0.228,0.839,0.081,1.148l1.45,1.45
		c-0.861,1.272-1.365,2.804-1.365,4.452v1.462l-1.576-0.224c-0.325-1.137-0.778-2.23-1.352-3.263l2.472-3.289
		c0.263-0.35,0.228-0.839-0.081-1.148l-4.019-4.019c-0.309-0.309-0.799-0.344-1.148-0.081l-3.29,2.472
		c-1.033-0.574-2.126-1.027-3.263-1.352l-0.578-4.074c-0.061-0.433-0.432-0.755-0.869-0.755h-5.684
		c-0.437,0-0.808,0.322-0.869,0.755l-0.578,4.074c-1.137,0.325-2.23,0.778-3.263,1.352l-3.289-2.472
		c-0.35-0.263-0.839-0.228-1.148,0.081l-4.019,4.019c-0.309,0.309-0.344,0.799-0.081,1.148l2.472,3.29
		c-0.574,1.033-1.027,2.127-1.352,3.263l-4.074,0.578c-0.433,0.061-0.755,0.432-0.755,0.869v5.684c0,0.437,0.322,0.808,0.755,0.869
		l4.074,0.578c0.325,1.137,0.778,2.23,1.352,3.263l-2.472,3.289c-0.263,0.35-0.228,0.839,0.081,1.148l4.019,4.019
		c0.309,0.309,0.799,0.344,1.148,0.081l3.289-2.472c1.033,0.574,2.127,1.027,3.263,1.352l0.578,4.074
		c0.061,0.433,0.432,0.755,0.869,0.755h5.684c0.437,0,0.808-0.322,0.869-0.755l0.578-4.074c1.137-0.325,2.23-0.778,3.263-1.352
		l2.746,2.063c-0.951,1.929-1.488,4.06-1.488,6.279v4.638c0,0.485,0.393,0.878,0.878,0.878h6.654c0.485,0,0.878-0.393,0.878-0.878
		s-0.393-0.878-0.878-0.878h-5.776v-3.76c0-2.187,0.583-4.314,1.683-6.23c0.015-0.022,0.031-0.043,0.045-0.067
		c0.536-0.923,1.179-1.78,1.92-2.564c0.012-0.013,0.024-0.026,0.036-0.038c0.135-0.142,0.275-0.282,0.417-0.419
		c0.018-0.018,0.036-0.035,0.054-0.053c0.146-0.139,0.294-0.276,0.446-0.41c0.011-0.01,0.022-0.02,0.033-0.029
		c0.154-0.135,0.311-0.267,0.472-0.396c1.428-1.149,3.061-2.022,4.783-2.571l1.421,2.761l-1.9,8.248
		c-0.071,0.308,0.029,0.631,0.263,0.845l3.673,3.362c0.168,0.154,0.38,0.23,0.593,0.23c0.212,0,0.425-0.077,0.593-0.23l3.673-3.362
		c0.233-0.214,0.334-0.536,0.263-0.845l-1.9-8.248l1.421-2.761c2.097,0.669,4.063,1.817,5.686,3.359
		c2.711,2.575,4.203,5.92,4.203,9.419v3.76h-19.175c-0.485,0-0.878,0.393-0.878,0.878c0,0.485,0.393,0.878,0.878,0.878h20.054
		c0.485,0,0.878-0.393,0.878-0.878v-4.638C237,414.716,232.018,408.756,225.441,406.886z M212.114,409.333l-1.696-2.257
		c0.574-1.033,1.027-2.127,1.352-3.263l2.337-0.332c0.668,1.411,1.738,2.596,3.062,3.405
		C215.336,407.407,213.627,408.247,212.114,409.333z M221.545,406.285c-0.076-0.002-0.151-0.005-0.228-0.006
		c-0.008,0-0.016,0-0.024,0c-0.076,0.001-0.152,0.004-0.228,0.006c-2.554-0.098-4.717-1.746-5.572-4.029
		c-0.005-0.014-0.008-0.029-0.013-0.044c-0.094-0.255-0.17-0.515-0.229-0.778c0-0.001-0.001-0.003-0.001-0.004
		c-0.017-0.074-0.031-0.149-0.045-0.224c-0.005-0.025-0.009-0.051-0.014-0.076c-0.01-0.061-0.02-0.122-0.028-0.183
		c-0.006-0.042-0.011-0.084-0.016-0.126c-0.006-0.05-0.012-0.1-0.017-0.151c-0.005-0.057-0.009-0.115-0.013-0.173
		c-0.003-0.038-0.006-0.077-0.008-0.115c-0.005-0.098-0.007-0.196-0.007-0.295c0,0,0,0,0,0v-3.062
		c5.525-0.375,7.568-4.154,7.568-4.154s1.352,3.561,4.838,4.112v3.104C227.508,403.428,224.854,406.159,221.545,406.285z
		 M212.476,381.194v-2.152l2.253-0.32c0.355-0.05,0.644-0.312,0.73-0.661c0.208-0.852,0.545-1.664,1-2.413
		c0.186-0.307,0.167-0.696-0.049-0.983l-1.367-1.819l1.522-1.522l1.819,1.367c0.287,0.215,0.676,0.235,0.983,0.049
		c0.749-0.455,1.561-0.791,2.413-1c0.349-0.085,0.61-0.374,0.661-0.729l0.32-2.253h2.152l0.32,2.253
		c0.051,0.355,0.312,0.644,0.661,0.729c0.852,0.208,1.664,0.545,2.413,1c0.307,0.186,0.696,0.167,0.983-0.049l1.819-1.367
		l1.522,1.522l-1.367,1.819c-0.216,0.287-0.235,0.676-0.048,0.983c0.455,0.749,0.791,1.561,1,2.413
		c0.085,0.349,0.374,0.61,0.73,0.661l2.253,0.32v2.152l-2.253,0.32c-0.355,0.05-0.644,0.312-0.729,0.661
		c-0.208,0.852-0.545,1.664-1,2.413c-0.186,0.307-0.167,0.696,0.048,0.983l1.367,1.819l-1.522,1.522l-1.819-1.367
		c-0.156-0.117-0.341-0.176-0.528-0.176c-0.157,0-0.315,0.042-0.456,0.128c-0.482,0.293-0.993,0.537-1.526,0.73
		c-1.254-1.191-2.894-1.979-4.712-2.153c-0.024-0.002-0.049-0.003-0.073-0.006c-0.1-0.009-0.2-0.017-0.301-0.022
		c-0.129-0.006-0.259-0.01-0.389-0.01c-0.131,0-0.262,0.004-0.393,0.01c-0.063,0.003-0.126,0.009-0.189,0.014
		c-0.065,0.005-0.13,0.009-0.195,0.015c-0.084,0.008-0.166,0.019-0.249,0.03c-0.042,0.006-0.085,0.01-0.127,0.016
		c-0.096,0.014-0.192,0.031-0.287,0.048c-0.027,0.005-0.055,0.009-0.082,0.015c-0.106,0.021-0.21,0.044-0.314,0.068
		c-0.016,0.004-0.031,0.007-0.047,0.011c-0.113,0.028-0.225,0.058-0.336,0.09c-0.006,0.002-0.012,0.003-0.018,0.005
		c-1.217,0.357-2.313,0.997-3.213,1.845l-0.813-0.813l1.367-1.819c0.216-0.287,0.235-0.676,0.049-0.983
		c-0.455-0.749-0.791-1.561-1-2.413c-0.085-0.349-0.374-0.61-0.729-0.661L212.476,381.194z M207.969,413.664l-3.028-2.275
		c-0.287-0.216-0.676-0.235-0.983-0.049c-1.2,0.729-2.501,1.268-3.866,1.602c-0.349,0.085-0.61,0.374-0.661,0.729l-0.553,3.895
		h-4.16l-0.553-3.895c-0.05-0.355-0.312-0.644-0.661-0.729c-1.365-0.334-2.665-0.873-3.866-1.601
		c-0.307-0.186-0.696-0.167-0.983,0.049l-3.145,2.363l-2.942-2.942l2.363-3.145c0.216-0.287,0.235-0.676,0.048-0.983
		c-0.729-1.2-1.268-2.501-1.601-3.866c-0.085-0.349-0.374-0.61-0.729-0.661l-3.895-0.553v-4.16l3.895-0.553
		c0.355-0.05,0.644-0.312,0.729-0.661c0.334-1.365,0.873-2.665,1.601-3.866c0.186-0.307,0.167-0.696-0.048-0.983l-2.363-3.145
		l2.942-2.941l3.145,2.363c0.287,0.216,0.676,0.235,0.983,0.049c1.2-0.729,2.501-1.268,3.866-1.602
		c0.349-0.085,0.61-0.374,0.661-0.729l0.553-3.895h4.16l0.553,3.895c0.05,0.355,0.312,0.644,0.661,0.729
		c1.365,0.334,2.666,0.873,3.866,1.602c0.307,0.186,0.696,0.167,0.983-0.049l3.145-2.363l2.941,2.941l-2.363,3.145
		c-0.216,0.287-0.235,0.676-0.048,0.983c0.729,1.2,1.268,2.501,1.601,3.866c0.085,0.349,0.374,0.61,0.729,0.661l2.399,0.341v2.858v0
		c0,0.142,0.004,0.282,0.011,0.422c0.002,0.029,0.005,0.058,0.007,0.087c0.007,0.112,0.015,0.225,0.027,0.336
		c0.003,0.025,0.007,0.05,0.01,0.076c0.014,0.117,0.029,0.234,0.048,0.349c0.003,0.016,0.006,0.031,0.008,0.047
		c0.021,0.128,0.046,0.254,0.073,0.38c0,0.001,0,0.002,0.001,0.004l-2.584,0.367c-0.355,0.05-0.644,0.312-0.729,0.661
		c-0.334,1.365-0.872,2.665-1.602,3.866c-0.186,0.307-0.167,0.696,0.049,0.983l2.079,2.767c-0.647,0.579-1.245,1.206-1.787,1.876
		c-0.044,0.054-0.087,0.109-0.131,0.164c-0.043,0.054-0.085,0.109-0.128,0.164c-0.199,0.259-0.39,0.524-0.572,0.794
		c-0.003,0.005-0.007,0.01-0.01,0.015C208.067,413.518,208.017,413.59,207.969,413.664z M221.305,422.084l-2.702-2.473l1.7-7.381
		h2.004l1.7,7.381L221.305,422.084z M222.471,410.473h-2.33l-1.136-2.207c0.076-0.014,0.151-0.027,0.227-0.04
		c0.055-0.009,0.111-0.018,0.166-0.027c0.095-0.015,0.19-0.029,0.285-0.042c0.125-0.017,0.251-0.032,0.377-0.045
		c0.057-0.006,0.115-0.012,0.172-0.017c0.153-0.014,0.306-0.027,0.459-0.036c0.034-0.002,0.069-0.004,0.103-0.005
		c0.105-0.005,0.211-0.008,0.316-0.011c0.066,0.002,0.131,0.005,0.197,0.005s0.131-0.003,0.197-0.005
		c0.105,0.003,0.211,0.006,0.316,0.011c0.034,0.002,0.069,0.003,0.103,0.005c0.153,0.009,0.306,0.022,0.459,0.036
		c0.057,0.005,0.115,0.011,0.172,0.017c0.126,0.013,0.251,0.028,0.376,0.045c0.095,0.013,0.19,0.027,0.285,0.042
		c0.055,0.009,0.111,0.018,0.166,0.027c0.076,0.013,0.151,0.026,0.227,0.04L222.471,410.473z"/>
	<path d="M223.837,386.261c3.387,0,6.143-2.756,6.143-6.143c0-3.387-2.756-6.143-6.143-6.143c-0.485,0-0.878,0.393-0.878,0.878
		s0.393,0.878,0.878,0.878c2.419,0,4.387,1.968,4.387,4.387s-1.968,4.387-4.387,4.387c-2.419,0-4.387-1.968-4.387-4.387
		c0-1.564,0.843-3.022,2.2-3.804c0.42-0.242,0.564-0.779,0.322-1.199c-0.242-0.42-0.779-0.564-1.199-0.322
		c-1.899,1.095-3.079,3.135-3.079,5.325C217.694,383.505,220.449,386.261,223.837,386.261z"/>
	<path d="M196.799,390.505c-0.485,0-0.878,0.393-0.878,0.878s0.393,0.878,0.878,0.878c4.004,0,7.262,3.258,7.262,7.262
		c0,4.004-3.258,7.262-7.262,7.262s-7.262-3.258-7.262-7.262c0-3.049,1.926-5.794,4.791-6.831c0.456-0.165,0.692-0.668,0.527-1.124
		c-0.165-0.456-0.668-0.692-1.124-0.527c-3.559,1.287-5.95,4.696-5.95,8.482c0,4.972,4.045,9.018,9.018,9.018
		s9.018-4.045,9.018-9.018C205.817,394.551,201.771,390.505,196.799,390.505z"/>
</g>
</svg>
