<?xml version="1.0" encoding="iso-8859-1"?>
<!-- Generator: Adobe Illustrator 21.1.0, SVG Export Plug-In . SVG Version: 6.00 Build 0)  -->
<svg version="1.1" id="&#x421;&#x43B;&#x43E;&#x439;_1"
	 xmlns="http://www.w3.org/2000/svg" xmlns:xlink="http://www.w3.org/1999/xlink" x="0px" y="0px" viewBox="0 0 70 74.459"
	 style="enable-background:new 0 0 70 74.459;" xml:space="preserve">
<g>
	<g>
		<defs>
			<rect id="SVGID_1_" width="70" height="74.459"/>
		</defs>
		<clipPath id="SVGID_2_">
			<use xlink:href="#SVGID_1_"  style="overflow:visible;"/>
		</clipPath>
		<linearGradient id="SVGID_3_" gradientUnits="userSpaceOnUse" x1="34.8766" y1="0.4406" x2="34.8766" y2="73.7101">
			<stop  offset="0" style="stop-color:#F75550"/>
			<stop  offset="1" style="stop-color:#333333"/>
		</linearGradient>
		<path style="clip-path:url(#SVGID_2_);fill:url(#SVGID_3_);" d="M31.896,74.399c-13.221,0-23.977-10.756-23.977-23.977v-0.349
			H7.395C3.318,50.072,0,46.755,0,42.679v-3.385c0-4.077,3.316-7.395,7.395-7.395h0.523V21c0-4.178,1.934-8.149,5.201-10.737
			c-0.117-0.566-0.179-1.149-0.179-1.743c0-1.521,0.811-3.086,2.169-4.182c0.014-0.01,0.027-0.022,0.041-0.033l0.823-0.587
			c0.029-0.021,0.06-0.04,0.091-0.057c0.129-0.069,0.274-0.157,0.441-0.256c0.775-0.465,1.947-1.168,3.882-1.759
			c2.669-0.875,5.488-1.389,8.605-1.563C40.928-0.59,51.564,2.928,54.851,8.631c0.42,0.678,0.706,1.201,0.984,1.8
			c2.687,5.777,0.501,11.839,0.038,12.994v8.473h0.573c4.077,0,7.393,3.316,7.393,7.393v3.385c0,4.078-3.316,7.395-7.393,7.395
			h-0.573v0.348C55.873,63.642,45.118,74.399,31.896,74.399L31.896,74.399z M9.681,49.191v1.229c0,12.25,9.966,22.215,22.215,22.215
			c12.25,0,22.215-9.965,22.215-22.215v-7.467H52.55c-0.236,0-0.461-0.095-0.626-0.262c-0.165-0.169-0.256-0.394-0.255-0.63
			c0.002-0.103,0.107-10.25-0.678-13.393c-0.711-2.84-2.736-3.972-2.822-4.019c-0.21-0.115-0.367-0.311-0.43-0.542
			c-0.064-0.23-0.033-0.478,0.089-0.683c0.012-0.02,1.21-2.072,1.263-4.039c0.007-0.31-1.301-1.077-3.015-1.554
			c-1.865-0.387-3.289-0.361-3.325-0.361c-0.007,0-0.014,0-0.022,0H24.401c-2.651,0-4.943-0.454-6.808-1.353
			c-0.311-0.151-0.611-0.32-0.9-0.508c-0.823,0.952-1.993,2.575-1.99,3.797c0.005,1.962,1.241,3.984,1.253,4.005
			c0.129,0.207,0.165,0.458,0.101,0.693c-0.063,0.236-0.222,0.434-0.437,0.548c-0.082,0.045-2.108,1.179-2.817,4.017
			c-0.787,3.144-0.682,13.292-0.68,13.393c0.003,0.236-0.09,0.461-0.255,0.63c-0.166,0.167-0.391,0.262-0.627,0.262H9.681V49.191z
			 M55.922,48.31h0.525c3.107,0,5.631-2.527,5.631-5.631v-3.385c0-3.107-2.526-5.633-5.631-5.633h-0.525V48.31z M7.395,33.66
			c-3.107,0-5.633,2.526-5.633,5.631v3.385c0,3.106,2.526,5.633,5.633,5.633h0.523V33.66H7.395z M53.438,41.19h0.673V23.472
			c-0.767-1.675-1.951-2.881-3.271-3.752c-0.107,1.54-0.702,3.017-1.11,3.867c0.89,0.696,2.349,2.164,2.972,4.654
			C53.405,31.058,53.445,38.581,53.438,41.19L53.438,41.19z M9.681,41.19h0.675c-0.009-2.609,0.033-10.132,0.737-12.949
			c0.621-2.484,2.072-3.95,2.962-4.647c-0.447-0.908-1.11-2.528-1.113-4.184c-0.005-1.871,1.487-3.879,2.389-4.922
			c-0.678-0.692-1.234-1.506-1.639-2.406c-2.53,2.253-4.01,5.507-4.01,8.918V41.19z M42.886,15.677
			c1.196,0,8.305,0.226,11.894,5.397c0.124-0.475,0.249-1.027,0.353-1.638c-1.034-1.007-4.769-4.305-10.326-5.361
			c-3.886-0.738-8.474-0.451-12.913-0.176c-3.3,0.207-6.712,0.42-9.734,0.189c-2.929-0.222-4.96-0.988-6.351-1.842
			c0.638,0.971,1.523,1.768,2.588,2.273c1.62,0.768,3.637,1.158,5.999,1.158h18.329C42.749,15.679,42.804,15.677,42.886,15.677
			L42.886,15.677z M38.906,11.842c2.16,0,4.263,0.127,6.23,0.501c4.884,0.929,8.418,3.385,10.228,4.917
			c0.031-0.775,0.009-1.595-0.096-2.437c-2.456-2.459-6.813-4.174-12.627-4.965c-3.077-0.42-6.588,0.057-10.305,0.563
			c-3.745,0.509-7.617,1.036-11.103,0.578c-3.865-0.508-5.636-1.9-6.444-3.148c-0.055,0.223-0.084,0.449-0.084,0.667
			c0,0.083,0,0.167,0.004,0.248c0.287,0.554,1.915,3.132,7.588,3.564c2.902,0.22,6.101,0.02,9.49-0.191
			C34.152,11.992,36.561,11.842,38.906,11.842L38.906,11.842z M40.091,7.938c0.957,0,1.888,0.052,2.786,0.174
			c4.926,0.671,8.906,2.002,11.707,3.892c-0.104-0.277-0.219-0.553-0.346-0.828c-0.249-0.537-0.508-1.008-0.895-1.632
			c-0.007-0.012-0.014-0.024-0.021-0.036C50.401,4.44,40.217,1.219,29.09,1.84c-2.96,0.167-5.631,0.653-8.168,1.483
			c-0.01,0.005-0.024,0.009-0.034,0.011c-1.73,0.534-2.781,1.163-3.476,1.58c-0.171,0.103-0.32,0.193-0.456,0.268l-0.759,0.541
			c-0.104,0.084-0.201,0.172-0.296,0.265c0.112,0.693,0.845,2.644,5.561,3.263c3.251,0.429,7.004-0.082,10.634-0.576
			C34.774,8.311,37.517,7.938,40.091,7.938L40.091,7.938z M31.896,60.727c-2.461,0-4.464-2.003-4.464-4.464
			c0-2.463,2.003-4.464,4.464-4.464c2.462,0,4.466,2.002,4.466,4.464C36.362,58.723,34.359,60.727,31.896,60.727L31.896,60.727z
			 M31.896,53.56c-1.49,0-2.702,1.212-2.702,2.702c0,1.49,1.212,2.702,2.702,2.702c1.49,0,2.703-1.212,2.703-2.702
			C34.6,54.772,33.386,53.56,31.896,53.56L31.896,53.56z M40.412,40.016c-4.348,0-5.351-2.861-5.392-2.981
			c-0.153-0.463,0.096-0.962,0.558-1.115c0.463-0.155,0.96,0.095,1.115,0.557c0.022,0.059,0.695,1.776,3.719,1.776
			c3.105,0,4.041-1.804,4.078-1.881c0.217-0.432,0.742-0.615,1.175-0.404c0.434,0.21,0.622,0.725,0.417,1.16
			C46.027,37.247,44.685,40.016,40.412,40.016L40.412,40.016z M22.993,40.016c-4.346,0-5.351-2.861-5.391-2.981
			c-0.155-0.463,0.095-0.962,0.558-1.115c0.463-0.155,0.96,0.095,1.113,0.557c0.022,0.059,0.697,1.776,3.719,1.776
			c3.104,0,4.042-1.804,4.08-1.881c0.215-0.432,0.74-0.615,1.174-0.404c0.436,0.21,0.623,0.725,0.418,1.16
			C28.611,37.247,27.268,40.016,22.993,40.016L22.993,40.016z M44.003,32.417c-0.103,0-0.208-0.017-0.311-0.056l-6.865-2.588
			c-0.456-0.171-0.685-0.68-0.513-1.134c0.171-0.456,0.682-0.686,1.134-0.515l6.865,2.588c0.456,0.172,0.687,0.68,0.515,1.136
			C44.695,32.201,44.36,32.417,44.003,32.417L44.003,32.417z M19.174,32.417c-0.356,0-0.69-0.217-0.825-0.57
			c-0.17-0.456,0.059-0.964,0.515-1.136l6.865-2.588c0.455-0.172,0.964,0.059,1.136,0.515c0.17,0.455-0.059,0.964-0.515,1.134
			l-6.865,2.588C19.384,32.4,19.277,32.417,19.174,32.417L19.174,32.417z M65.845,24.243h-5.788c-0.356,0-0.678-0.215-0.814-0.544
			c-0.136-0.33-0.06-0.709,0.191-0.96l4.284-4.284h-3.576c-0.486,0-0.881-0.394-0.881-0.881c0-0.487,0.396-0.881,0.881-0.881h5.703
			c0.356,0,0.678,0.215,0.814,0.544c0.136,0.329,0.062,0.709-0.191,0.96l-4.283,4.284h3.66c0.487,0,0.881,0.394,0.881,0.881
			C66.726,23.848,66.332,24.243,65.845,24.243L65.845,24.243z M68.87,14.944h-8.813c-0.356,0-0.678-0.215-0.814-0.544
			c-0.136-0.33-0.06-0.709,0.191-0.96l7.309-7.311h-6.555c-0.487,0-0.881-0.394-0.881-0.881c0-0.485,0.394-0.881,0.881-0.881h8.683
			c0.356,0,0.678,0.215,0.814,0.544c0.138,0.33,0.062,0.709-0.191,0.962l-7.309,7.309h6.688c0.486,0,0.881,0.394,0.881,0.881
			C69.753,14.55,69.358,14.944,68.87,14.944L68.87,14.944z M68.87,14.944"/>
	</g>
</g>
</svg>
