<?xml version="1.0" encoding="iso-8859-1"?>
<!-- Generator: Adobe Illustrator 21.1.0, SVG Export Plug-In . SVG Version: 6.00 Build 0)  -->
<svg version="1.1" id="&#x421;&#x43B;&#x43E;&#x439;_1"
	 xmlns="http://www.w3.org/2000/svg" xmlns:xlink="http://www.w3.org/1999/xlink" x="0px" y="0px" viewBox="0 0 70 81.609"
	 style="enable-background:new 0 0 70 81.609;" xml:space="preserve">
<g>
	<g>
		<defs>
			<rect id="SVGID_1_" width="70" height="81.609"/>
		</defs>
		<clipPath id="SVGID_2_">
			<use xlink:href="#SVGID_1_"  style="overflow:visible;"/>
		</clipPath>
		<linearGradient id="SVGID_3_" gradientUnits="userSpaceOnUse" x1="34.985" y1="-3.320284e-04" x2="34.985" y2="81.5426">
			<stop  offset="0" style="stop-color:#F75550"/>
			<stop  offset="1" style="stop-color:#333333"/>
		</linearGradient>
		<path style="clip-path:url(#SVGID_2_);fill:url(#SVGID_3_);" d="M34.959,81.543c-14.491,0-26.28-11.789-26.28-26.279v-0.381H8.103
			C3.635,54.882,0,51.245,0,46.776v-3.71c0-4.469,3.635-8.105,8.103-8.105h0.576V23.017c0-4.58,2.118-8.932,5.698-11.769
			c-0.128-0.621-0.194-1.26-0.194-1.911c0-1.667,0.889-3.382,2.377-4.584c0.015-0.012,0.03-0.025,0.045-0.036l0.902-0.643
			c0.032-0.023,0.066-0.043,0.1-0.062c0.14-0.076,0.298-0.172,0.481-0.281c0.849-0.509,2.133-1.279,4.257-1.928
			c2.926-0.96,6.017-1.523,9.432-1.715c13.085-0.734,24.748,3.122,28.345,9.377c0.002,0.002,0.002,0.005,0.004,0.007
			c0.464,0.753,0.771,1.317,1.071,1.96c2.945,6.332,0.549,12.976,0.042,14.241v9.287h0.626c4.471,0,8.105,3.635,8.105,8.105v3.71
			c0,4.469-3.635,8.104-8.105,8.104h-0.626v0.383C61.238,69.753,49.449,81.543,34.959,81.543L34.959,81.543z M10.611,53.914v1.349
			c0,13.424,10.923,24.346,24.348,24.346c13.424,0,24.348-10.922,24.348-24.346v-8.187h-1.711c-0.258,0-0.505-0.103-0.686-0.286
			c-0.181-0.185-0.283-0.432-0.28-0.691c0.002-0.111,0.117-11.235-0.745-14.679c-0.777-3.113-2.997-4.354-3.091-4.405
			c-0.232-0.126-0.402-0.341-0.471-0.594c-0.07-0.253-0.036-0.524,0.098-0.751c0.011-0.021,1.326-2.269,1.383-4.425
			c0.01-0.339-1.424-1.181-3.303-1.701c-2.045-0.424-3.605-0.398-3.644-0.398c-0.007,0.001-0.015,0.001-0.025,0.001H26.744
			c-2.905,0-5.416-0.5-7.462-1.484c-0.341-0.166-0.672-0.351-0.987-0.556c-0.902,1.043-2.185,2.822-2.181,4.163
			c0.004,2.148,1.36,4.365,1.373,4.388c0.14,0.226,0.181,0.502,0.111,0.76c-0.071,0.258-0.245,0.476-0.481,0.6
			c-0.088,0.049-2.309,1.292-3.088,4.403c-0.861,3.446-0.745,14.568-0.743,14.679c0.003,0.258-0.099,0.508-0.279,0.691
			c-0.182,0.183-0.428,0.286-0.687,0.286h-1.711V53.914z M61.292,52.949h0.573c3.405,0,6.174-2.769,6.174-6.172v-3.71
			c0-3.405-2.769-6.174-6.174-6.174h-0.573V52.949z M8.103,36.892c-3.403,0-6.172,2.769-6.172,6.174v3.71
			c0,3.405,2.769,6.172,6.172,6.172h0.576V36.892H8.103z M58.568,45.145h0.739V25.727c-0.841-1.835-2.141-3.159-3.587-4.114
			c-0.115,1.69-0.77,3.309-1.215,4.238c0.975,0.762,2.573,2.371,3.256,5.101C58.532,34.042,58.577,42.287,58.568,45.145
			L58.568,45.145z M10.611,45.145h0.739c-0.01-2.858,0.036-11.103,0.807-14.192c0.681-2.722,2.271-4.329,3.246-5.093
			c-0.49-0.996-1.216-2.771-1.22-4.586c-0.006-2.05,1.63-4.252,2.618-5.395c-0.743-0.758-1.353-1.651-1.796-2.637
			c-2.773,2.469-4.395,6.036-4.395,9.775V45.145z M47.005,17.182c1.309,0,9.103,0.247,13.034,5.915
			c0.138-0.521,0.275-1.126,0.389-1.796c-1.134-1.103-5.229-4.715-11.32-5.874c-4.257-0.811-9.286-0.498-14.151-0.194
			c-3.616,0.226-7.357,0.458-10.669,0.208c-3.212-0.243-5.438-1.083-6.96-2.02c0.698,1.066,1.669,1.939,2.837,2.494
			c1.773,0.841,3.986,1.27,6.576,1.27h20.087C46.852,17.184,46.912,17.182,47.005,17.182L47.005,17.182z M42.642,12.98
			c2.365,0,4.672,0.14,6.828,0.551c5.351,1.016,9.224,3.71,11.208,5.389c0.034-0.851,0.01-1.75-0.104-2.671
			c-2.694-2.695-7.467-4.576-13.84-5.444c-3.374-0.46-7.223,0.064-11.295,0.617c-4.105,0.559-8.349,1.136-12.169,0.634
			c-4.236-0.556-6.178-2.083-7.062-3.45c-0.062,0.245-0.094,0.493-0.094,0.732c0,0.092,0.002,0.183,0.006,0.273
			c0.313,0.607,2.098,3.433,8.315,3.905c3.18,0.241,6.689,0.023,10.403-0.209C37.432,13.144,40.07,12.98,42.642,12.98L42.642,12.98z
			 M43.941,8.7c1.047,0,2.069,0.056,3.054,0.19c5.397,0.736,9.762,2.194,12.831,4.265c-0.113-0.304-0.24-0.606-0.38-0.907
			c-0.273-0.586-0.556-1.103-0.981-1.788c-0.007-0.011-0.015-0.024-0.023-0.038C55.24,4.867,44.075,1.336,31.884,2.018
			C28.64,2.2,25.71,2.731,22.932,3.644c-0.013,0.004-0.026,0.008-0.04,0.011c-1.896,0.583-3.048,1.273-3.812,1.732
			c-0.185,0.112-0.349,0.21-0.496,0.293l-0.832,0.592c-0.113,0.093-0.221,0.189-0.325,0.291c0.121,0.76,0.926,2.897,6.095,3.576
			c3.561,0.47,7.677-0.09,11.656-0.632C38.111,9.109,41.117,8.7,43.941,8.7L43.941,8.7z M33.729,70.197
			c-0.185,0-0.374-0.055-0.54-0.166l-1.522-1.026c-0.792-0.536-1.213-1.456-1.101-2.405c0.113-0.949,0.739-1.745,1.634-2.079
			c0.325-0.121,0.383-0.4,0.394-0.515c0.01-0.115,0-0.4-0.298-0.575l-0.568-0.336c-0.809-0.477-1.288-1.356-1.247-2.296
			c0.04-0.939,0.593-1.775,1.44-2.18l1.778-0.851c0.483-0.232,1.058-0.027,1.288,0.454c0.23,0.481,0.027,1.059-0.454,1.288
			l-1.779,0.849c-0.296,0.143-0.339,0.413-0.345,0.523c-0.004,0.11,0.015,0.381,0.3,0.549l0.568,0.336
			c0.851,0.5,1.326,1.425,1.24,2.409c-0.087,0.983-0.715,1.811-1.641,2.156c-0.313,0.115-0.377,0.385-0.39,0.496
			c-0.014,0.111-0.015,0.388,0.262,0.575l1.523,1.026c0.443,0.298,0.56,0.9,0.26,1.341C34.344,70.048,34.038,70.197,33.729,70.197
			L33.729,70.197z M44.371,48.963c-3.788,0-6.868-3.08-6.868-6.866c0-3.788,3.08-6.866,6.868-6.866c3.786,0,6.866,3.08,6.866,6.866
			C51.237,45.882,48.157,48.963,44.371,48.963L44.371,48.963z M44.371,37.16c-2.722,0-4.937,2.215-4.937,4.937
			c0,2.72,2.215,4.935,4.937,4.935c2.72,0,4.934-2.215,4.934-4.935C49.306,39.375,47.092,37.16,44.371,37.16L44.371,37.16z
			 M25.55,48.963c-3.786,0-6.866-3.08-6.866-6.866c0-3.788,3.08-6.866,6.866-6.866c3.788,0,6.868,3.08,6.868,6.866
			C32.418,45.882,29.338,48.963,25.55,48.963L25.55,48.963z M25.55,37.16c-2.72,0-4.935,2.215-4.935,4.937
			c0,2.72,2.215,4.935,4.935,4.935c2.722,0,4.937-2.215,4.937-4.935C30.486,39.375,28.272,37.16,25.55,37.16L25.55,37.16z
			 M45.529,40.84c-0.534,0-0.966-0.432-0.966-0.966v-0.096c0-0.534,0.432-0.966,0.966-0.966c0.534,0,0.966,0.432,0.966,0.966v0.096
			C46.495,40.408,46.064,40.84,45.529,40.84L45.529,40.84z M26.71,40.84c-0.534,0-0.966-0.432-0.966-0.966v-0.096
			c0-0.534,0.432-0.966,0.966-0.966c0.532,0,0.966,0.432,0.966,0.966v0.096C27.675,40.408,27.242,40.84,26.71,40.84L26.71,40.84z
			 M48.093,31.328c-0.298,0-0.591-0.138-0.779-0.396c-0.092-0.123-2.116-2.76-6.666-2.76c-0.534,0-0.966-0.432-0.966-0.966
			c0-0.534,0.432-0.966,0.966-0.966c5.587,0,8.122,3.409,8.226,3.554c0.315,0.432,0.217,1.036-0.215,1.349
			C48.489,31.267,48.291,31.328,48.093,31.328L48.093,31.328z M21.826,31.303c-0.198,0-0.396-0.06-0.568-0.184
			c-0.428-0.315-0.524-0.913-0.213-1.343c0.106-0.145,2.639-3.554,8.228-3.554c0.532,0,0.966,0.432,0.966,0.966
			c0,0.532-0.434,0.966-0.966,0.966c-4.561,0-6.583,2.646-6.668,2.76C22.417,31.169,22.124,31.303,21.826,31.303L21.826,31.303z
			 M21.826,31.303"/>
	</g>
</g>
</svg>
