<?xml version="1.0" encoding="iso-8859-1"?>
<!-- Generator: Adobe Illustrator 21.1.0, SVG Export Plug-In . SVG Version: 6.00 Build 0)  -->
<svg version="1.1" id="&#x421;&#x43B;&#x43E;&#x439;_1"
	 xmlns="http://www.w3.org/2000/svg" xmlns:xlink="http://www.w3.org/1999/xlink" x="0px" y="0px" viewBox="0 0 70 81.609"
	 style="enable-background:new 0 0 70 81.609;" xml:space="preserve">
<g>
	<g>
		<defs>
			<rect id="SVGID_1_" width="70" height="81.609"/>
		</defs>
		<clipPath id="SVGID_2_">
			<use xlink:href="#SVGID_1_"  style="overflow:visible;"/>
		</clipPath>
		<linearGradient id="SVGID_3_" gradientUnits="userSpaceOnUse" x1="34.985" y1="0.9658" x2="34.985" y2="81.1289">
			<stop  offset="0" style="stop-color:#F75550"/>
			<stop  offset="1" style="stop-color:#333333"/>
		</linearGradient>
		<path style="clip-path:url(#SVGID_2_);fill:url(#SVGID_3_);" d="M34.959,81.543c-14.491,0-26.28-11.789-26.28-26.28V54.88H8.103
			C3.635,54.88,0,51.245,0,46.776v-3.712c0-4.469,3.635-8.103,8.103-8.103h0.576V23.017c0-4.58,2.118-8.932,5.698-11.769
			c-0.128-0.621-0.194-1.26-0.194-1.911c0-1.667,0.889-3.382,2.377-4.584c0.015-0.013,0.03-0.024,0.045-0.036l0.902-0.643
			c0.032-0.023,0.066-0.043,0.1-0.062c0.14-0.075,0.298-0.171,0.481-0.281c0.849-0.509,2.133-1.281,4.257-1.928
			c2.926-0.96,6.015-1.522,9.432-1.715c13.082-0.734,24.74,3.12,28.343,9.373c0.458,0.743,0.772,1.315,1.077,1.971
			c2.945,6.331,0.549,12.976,0.042,14.242v9.286h0.626c4.471,0,8.105,3.635,8.105,8.103v3.712c0,4.469-3.635,8.103-8.105,8.103
			h-0.626v0.383C61.238,69.753,49.449,81.543,34.959,81.543L34.959,81.543z M10.611,53.914v1.349
			c0,13.425,10.923,24.348,24.348,24.348c13.424,0,24.348-10.924,24.348-24.348v-8.186h-1.711c-0.258,0-0.505-0.104-0.686-0.287
			c-0.181-0.185-0.283-0.432-0.28-0.691c0.002-0.111,0.117-11.234-0.745-14.679c-0.777-3.11-2.997-4.354-3.091-4.404
			c-0.23-0.127-0.402-0.341-0.471-0.594c-0.07-0.253-0.036-0.524,0.098-0.748c0.011-0.023,1.326-2.272,1.383-4.427
			c0.01-0.339-1.424-1.181-3.303-1.702c-2.047-0.424-3.603-0.396-3.644-0.398c-0.007,0-0.015,0-0.025,0H26.744
			c-2.907,0-5.416-0.498-7.462-1.482c-0.341-0.164-0.672-0.351-0.987-0.557c-0.902,1.043-2.185,2.822-2.181,4.163
			c0.004,2.133,1.36,4.367,1.375,4.389c0.138,0.226,0.179,0.502,0.107,0.759c-0.07,0.258-0.243,0.475-0.479,0.6
			c-0.088,0.049-2.309,1.292-3.088,4.404c-0.861,3.444-0.745,14.566-0.743,14.677c0.003,0.259-0.099,0.508-0.279,0.691
			c-0.182,0.183-0.428,0.287-0.687,0.287h-1.711V53.914z M61.292,52.948h0.573c3.405,0,6.174-2.769,6.174-6.172v-3.712
			c0-3.403-2.769-6.172-6.174-6.172h-0.573V52.948z M8.103,36.892c-3.403,0-6.172,2.769-6.172,6.172v3.712
			c0,3.403,2.769,6.172,6.172,6.172h0.576V36.892H8.103z M58.568,45.145h0.739V25.725c-0.841-1.834-2.141-3.158-3.587-4.112
			c-0.115,1.688-0.77,3.307-1.215,4.239c0.975,0.76,2.573,2.369,3.256,5.1C58.532,34.042,58.577,42.285,58.568,45.145L58.568,45.145
			z M10.611,45.145h0.739c-0.01-2.858,0.036-11.103,0.807-14.193c0.681-2.72,2.271-4.329,3.246-5.093
			c-0.49-0.996-1.216-2.771-1.22-4.586c-0.006-2.05,1.63-4.251,2.618-5.395c-0.743-0.758-1.353-1.651-1.796-2.637
			c-2.773,2.47-4.395,6.036-4.395,9.775V45.145z M47.005,17.182c1.311,0,9.103,0.247,13.034,5.915
			c0.138-0.521,0.275-1.126,0.389-1.796c-1.134-1.103-5.229-4.718-11.32-5.874c-4.257-0.811-9.286-0.496-14.151-0.195
			c-3.616,0.226-7.357,0.461-10.669,0.208c-3.211-0.243-5.438-1.081-6.96-2.018c0.698,1.066,1.669,1.937,2.837,2.492
			c1.773,0.843,3.986,1.269,6.576,1.269h20.087C46.854,17.184,46.912,17.182,47.005,17.182L47.005,17.182z M42.642,12.979
			c2.365,0,4.672,0.14,6.828,0.549c5.351,1.019,9.224,3.712,11.208,5.389c0.034-0.848,0.01-1.749-0.104-2.671
			c-2.694-2.696-7.467-4.574-13.84-5.442c-3.374-0.461-7.223,0.062-11.295,0.617c-4.107,0.558-8.351,1.135-12.169,0.634
			c-4.236-0.558-6.179-2.082-7.062-3.452c-0.062,0.247-0.094,0.492-0.094,0.734c0,0.093,0.002,0.181,0.006,0.274
			c0.313,0.607,2.098,3.431,8.315,3.905c3.18,0.241,6.689,0.023,10.403-0.21C37.432,13.143,40.07,12.979,42.642,12.979
			L42.642,12.979z M43.939,8.699c1.049,0,2.071,0.056,3.056,0.191c5.397,0.735,9.762,2.194,12.831,4.265
			c-0.113-0.304-0.24-0.606-0.38-0.907c-0.273-0.587-0.556-1.105-0.981-1.788c-0.009-0.014-0.017-0.028-0.025-0.043
			c-3.206-5.551-14.369-9.083-26.557-8.398c-3.244,0.181-6.172,0.713-8.952,1.626c-0.011,0.004-0.026,0.008-0.038,0.012
			c-1.898,0.583-3.048,1.273-3.812,1.732c-0.185,0.111-0.351,0.211-0.498,0.292l-0.832,0.594c-0.113,0.09-0.221,0.188-0.325,0.288
			c0.121,0.761,0.926,2.897,6.095,3.579c3.563,0.467,7.677-0.093,11.656-0.632C38.111,9.109,41.117,8.699,43.939,8.699L43.939,8.699
			z M23.107,62.94c-0.2,0-0.4-0.062-0.572-0.188c-1.607-1.185-2.407-3.145-2.088-5.114l0.036-0.217
			c0.087-0.526,0.585-0.883,1.107-0.798c0.528,0.087,0.885,0.583,0.8,1.109l-0.036,0.215c-0.034,0.213-0.049,0.426-0.043,0.637
			c8.205-4.023,20.055,0.396,20.568,0.592c0.498,0.189,0.749,0.747,0.558,1.245c-0.189,0.498-0.747,0.748-1.245,0.56
			c-0.119-0.045-11.82-4.404-19.261-0.547c0.204,0.287,0.455,0.543,0.749,0.76c0.43,0.317,0.521,0.922,0.204,1.351
			C23.696,62.804,23.403,62.94,23.107,62.94L23.107,62.94z M45.028,47.98c-3.245,0-5.884-2.639-5.884-5.884
			c0-3.244,2.639-5.885,5.884-5.885c3.245,0,5.885,2.641,5.885,5.885C50.913,45.341,48.272,47.98,45.028,47.98L45.028,47.98z
			 M45.028,38.143c-2.179,0-3.952,1.773-3.952,3.953c0,2.179,1.773,3.952,3.952,3.952c2.181,0,3.954-1.773,3.954-3.952
			C48.982,39.916,47.208,38.143,45.028,38.143L45.028,38.143z M26.299,47.98c-3.245,0-5.885-2.639-5.885-5.884
			c0-3.244,2.641-5.885,5.885-5.885c3.245,0,5.884,2.641,5.884,5.885C32.182,45.341,29.543,47.98,26.299,47.98L26.299,47.98z
			 M26.299,38.143c-2.181,0-3.954,1.773-3.954,3.953c0,2.179,1.773,3.952,3.954,3.952c2.179,0,3.952-1.773,3.952-3.952
			C30.251,39.916,28.478,38.143,26.299,38.143L26.299,38.143z M45.028,43.158c-0.534,0-0.966-0.432-0.966-0.966v-0.097
			c0-0.534,0.432-0.966,0.966-0.966c0.534,0,0.966,0.432,0.966,0.966v0.097C45.994,42.724,45.562,43.158,45.028,43.158
			L45.028,43.158z M26.299,43.158c-0.534,0-0.966-0.432-0.966-0.966v-0.097c0-0.534,0.432-0.966,0.966-0.966
			c0.534,0,0.966,0.432,0.966,0.966v0.097C27.265,42.724,26.832,43.158,26.299,43.158L26.299,43.158z M40.508,36.236
			c-0.347,0-0.683-0.187-0.855-0.513c-0.251-0.471-0.071-1.056,0.4-1.305l6.897-3.652c0.471-0.249,1.054-0.07,1.305,0.402
			c0.249,0.469,0.07,1.054-0.402,1.305l-6.895,3.652C40.814,36.199,40.659,36.236,40.508,36.236L40.508,36.236z M30.166,31.141
			c-0.13,0-0.26-0.027-0.387-0.081l-7.734-3.369c-0.488-0.213-0.713-0.783-0.5-1.271c0.213-0.49,0.783-0.713,1.271-0.5l7.736,3.369
			c0.488,0.213,0.711,0.783,0.498,1.271C30.892,30.924,30.537,31.141,30.166,31.141L30.166,31.141z M30.166,31.141"/>
	</g>
</g>
</svg>
