<?xml version="1.0" encoding="iso-8859-1"?>
<!-- Generator: Adobe Illustrator 21.1.0, SVG Export Plug-In . SVG Version: 6.00 Build 0)  -->
<svg version="1.1" id="&#x421;&#x43B;&#x43E;&#x439;_1"
	 xmlns="http://www.w3.org/2000/svg" xmlns:xlink="http://www.w3.org/1999/xlink" x="0px" y="0px" viewBox="0 0 70 81.609"
	 style="enable-background:new 0 0 70 81.609;" xml:space="preserve">
<g>
	<g>
		<defs>
			<rect id="SVGID_1_" width="70" height="81.609"/>
		</defs>
		<clipPath id="SVGID_2_">
			<use xlink:href="#SVGID_1_"  style="overflow:visible;"/>
		</clipPath>
		<linearGradient id="SVGID_3_" gradientUnits="userSpaceOnUse" x1="34.985" y1="0.9658" x2="34.985" y2="81.6217">
			<stop  offset="0" style="stop-color:#F75550"/>
			<stop  offset="1" style="stop-color:#333333"/>
		</linearGradient>
		<path style="clip-path:url(#SVGID_2_);fill:url(#SVGID_3_);" d="M34.959,81.543c-14.491,0-26.28-11.789-26.28-26.279v-0.381H8.103
			C3.635,54.882,0,51.245,0,46.776v-3.71c0-4.469,3.635-8.105,8.103-8.105h0.576V23.017c0-4.58,2.12-8.932,5.7-11.769
			c-0.13-0.621-0.196-1.26-0.196-1.911c0-1.667,0.889-3.382,2.377-4.584c0.015-0.012,0.03-0.025,0.045-0.036l0.902-0.643
			c0.032-0.023,0.066-0.043,0.1-0.062c0.141-0.076,0.3-0.172,0.481-0.281c0.851-0.509,2.133-1.279,4.257-1.928
			c2.928-0.96,6.017-1.523,9.432-1.715c13.093-0.734,24.748,3.122,28.345,9.377c0.002,0.002,0.002,0.005,0.004,0.007
			c0.466,0.755,0.773,1.319,1.073,1.96c2.943,6.332,0.547,12.976,0.04,14.241v9.287h0.628c4.469,0,8.103,3.635,8.103,8.105v3.71
			c0,4.469-3.635,8.104-8.103,8.104h-0.628v0.383C61.238,69.753,49.449,81.543,34.959,81.543L34.959,81.543z M10.611,53.914v1.349
			c0,13.424,10.923,24.346,24.348,24.346c13.426,0,24.348-10.922,24.348-24.346v-8.187h-1.711c-0.258,0-0.505-0.103-0.686-0.286
			c-0.181-0.185-0.281-0.432-0.28-0.691c0.002-0.111,0.117-11.235-0.743-14.679c-0.779-3.113-2.999-4.354-3.093-4.405
			c-0.23-0.126-0.402-0.341-0.471-0.594c-0.07-0.253-0.036-0.524,0.098-0.751c0.013-0.021,1.326-2.269,1.384-4.425
			c0.008-0.339-1.426-1.181-3.305-1.701c-2.045-0.424-3.603-0.398-3.644-0.398c-0.007,0.001-0.015,0.001-0.025,0.001H26.744
			c-2.905,0-5.416-0.5-7.46-1.484c-0.343-0.166-0.674-0.351-0.988-0.556c-0.902,1.043-2.185,2.822-2.181,4.163
			c0.004,2.133,1.36,4.367,1.375,4.388c0.138,0.228,0.179,0.504,0.107,0.76c-0.07,0.258-0.243,0.476-0.477,0.6
			c-0.09,0.049-2.311,1.292-3.09,4.403c-0.861,3.444-0.745,14.568-0.743,14.679c0.003,0.258-0.099,0.508-0.279,0.691
			c-0.182,0.183-0.428,0.286-0.687,0.286h-1.711V53.914z M61.292,52.949h0.575c3.403,0,6.172-2.769,6.172-6.172v-3.71
			c0-3.405-2.769-6.174-6.172-6.174h-0.575V52.949z M8.103,36.892c-3.403,0-6.172,2.769-6.172,6.174v3.71
			c0,3.405,2.769,6.172,6.172,6.172h0.576V36.892H8.103z M58.568,45.145h0.739V25.727c-0.841-1.835-2.139-3.159-3.587-4.114
			c-0.115,1.69-0.768,3.309-1.215,4.238c0.975,0.762,2.575,2.371,3.256,5.101C58.534,34.042,58.577,42.287,58.568,45.145
			L58.568,45.145z M10.611,45.145h0.739c-0.01-2.858,0.036-11.103,0.807-14.192c0.681-2.722,2.271-4.329,3.246-5.093
			c-0.49-0.996-1.216-2.771-1.22-4.586c-0.006-2.05,1.63-4.252,2.618-5.395c-0.743-0.758-1.353-1.651-1.796-2.637
			c-2.773,2.469-4.395,6.036-4.395,9.775V45.145z M47.005,17.182c1.309,0,9.103,0.247,13.036,5.915
			c0.136-0.521,0.273-1.126,0.387-1.796c-1.134-1.103-5.227-4.715-11.318-5.874c-4.259-0.811-9.288-0.496-14.153-0.194
			c-3.616,0.226-7.355,0.46-10.669,0.208c-3.211-0.243-5.438-1.083-6.96-2.02c0.698,1.066,1.669,1.939,2.837,2.494
			c1.773,0.841,3.986,1.27,6.576,1.27h20.089C46.854,17.184,46.914,17.182,47.005,17.182L47.005,17.182z M42.642,12.98
			c2.365,0,4.672,0.14,6.828,0.551c5.353,1.016,9.226,3.71,11.208,5.389c0.036-0.851,0.01-1.75-0.104-2.671
			c-2.694-2.695-7.467-4.576-13.84-5.444c-3.374-0.46-7.223,0.062-11.295,0.617c-4.105,0.559-8.351,1.136-12.169,0.634
			c-4.236-0.556-6.178-2.083-7.062-3.45c-0.062,0.245-0.094,0.493-0.094,0.732c0,0.092,0.002,0.183,0.006,0.273
			c0.313,0.607,2.098,3.433,8.315,3.905c3.18,0.241,6.689,0.023,10.403-0.209C37.432,13.144,40.072,12.98,42.642,12.98L42.642,12.98
			z M43.941,8.7c1.047,0,2.069,0.056,3.054,0.19c5.397,0.736,9.762,2.194,12.831,4.265c-0.113-0.304-0.24-0.606-0.38-0.907
			c-0.271-0.585-0.554-1.101-0.981-1.788c-0.007-0.011-0.015-0.024-0.023-0.038c-3.201-5.555-14.371-9.086-26.559-8.403
			C28.64,2.2,25.712,2.731,22.932,3.644c-0.013,0.004-0.028,0.008-0.043,0.011c-1.893,0.585-3.044,1.275-3.806,1.732
			c-0.185,0.112-0.351,0.21-0.498,0.293l-0.832,0.592c-0.113,0.093-0.221,0.191-0.325,0.291c0.123,0.76,0.928,2.897,6.095,3.576
			c3.563,0.47,7.677-0.09,11.656-0.632C38.111,9.109,41.119,8.7,43.941,8.7L43.941,8.7z M44.218,68.135H25.701
			c-0.534,0-0.966-0.432-0.966-0.966c0-1.843,0.49-3.575,1.349-5.07c0.013-0.028,0.03-0.055,0.047-0.083
			c1.777-3.03,5.068-5.07,8.828-5.07c3.763,0,7.057,2.043,8.832,5.078c0.015,0.022,0.028,0.045,0.042,0.07
			c0.858,1.498,1.35,3.231,1.35,5.078C45.184,67.703,44.751,68.135,44.218,68.135L44.218,68.135z M26.723,66.204h16.473
			c-0.111-0.957-0.387-1.865-0.798-2.696H27.521C27.11,64.338,26.834,65.245,26.723,66.204L26.723,66.204z M28.843,61.576h12.233
			c-1.518-1.658-3.699-2.699-6.117-2.699C32.541,58.877,30.36,59.918,28.843,61.576L28.843,61.576z M16.396,60.561
			c-1.992,0-3.614-1.62-3.614-3.612c0-0.622,0.164-1.236,0.471-1.779l2.266-4.876c0.158-0.341,0.5-0.558,0.877-0.558
			c0.375,0,0.717,0.217,0.875,0.558l2.265,4.876c0.31,0.543,0.472,1.157,0.472,1.779C20.008,58.941,18.388,60.561,16.396,60.561
			L16.396,60.561z M16.396,52.994l-1.409,3.03c-0.013,0.026-0.027,0.055-0.042,0.081c-0.153,0.26-0.232,0.545-0.232,0.845
			c0,0.926,0.754,1.68,1.682,1.68c0.926,0,1.681-0.754,1.681-1.68c0-0.3-0.078-0.585-0.23-0.845
			c-0.015-0.027-0.03-0.055-0.043-0.081L16.396,52.994z M43.981,50.508h-0.025c-3.785-0.015-6.855-3.107-6.842-6.893
			c0.008-1.833,0.728-3.556,2.03-4.848c1.296-1.286,3.013-1.994,4.837-1.994h0.027c1.835,0.008,3.556,0.728,4.848,2.03
			c1.292,1.301,2.001,3.029,1.994,4.863C50.834,47.444,47.756,50.508,43.981,50.508L43.981,50.508z M43.981,38.705
			c-2.712,0-4.923,2.202-4.935,4.918c-0.009,2.72,2.196,4.942,4.918,4.954h0.019c2.712,0,4.925-2.201,4.935-4.918
			c0.005-1.316-0.504-2.558-1.432-3.493c-0.93-0.937-2.167-1.454-3.484-1.46H43.981z M25.401,50.508h-0.027
			c-3.786-0.015-6.855-3.107-6.84-6.893c0.007-1.833,0.728-3.556,2.03-4.848c1.296-1.286,3.012-1.994,4.837-1.994h0.026
			c1.834,0.008,3.556,0.728,4.848,2.03c1.292,1.301,2,3.029,1.994,4.863C32.254,47.444,29.175,50.508,25.401,50.508L25.401,50.508z
			 M25.401,38.705c-1.311,0-2.545,0.509-3.477,1.434c-0.935,0.928-1.452,2.166-1.458,3.484c-0.01,2.72,2.196,4.942,4.915,4.954
			c2.739,0.015,4.944-2.196,4.955-4.918c0.004-1.316-0.506-2.558-1.434-3.493c-0.928-0.937-2.165-1.454-3.484-1.46H25.401z
			 M43.981,44.703h-0.004c-0.534-0.002-0.964-0.436-0.962-0.969v-0.097c0.004-0.532,0.436-0.962,0.966-0.962h0.006
			c0.532,0.002,0.964,0.436,0.96,0.97v0.096C44.945,44.273,44.513,44.703,43.981,44.703L43.981,44.703z M25.401,44.703h-0.004
			c-0.534-0.002-0.964-0.436-0.962-0.969v-0.097c0.001-0.532,0.434-0.962,0.966-0.962h0.003c0.534,0.002,0.964,0.436,0.962,0.97
			v0.096C26.365,44.273,25.933,44.703,25.401,44.703L25.401,44.703z M48.057,33.987c-0.095,0-0.191-0.015-0.287-0.045l-7.679-2.388
			c-0.509-0.158-0.794-0.7-0.635-1.209c0.158-0.509,0.7-0.794,1.209-0.635l7.679,2.39c0.509,0.158,0.794,0.7,0.636,1.209
			C48.851,33.721,48.468,33.987,48.057,33.987L48.057,33.987z M21.676,33.867c-0.423,0-0.811-0.281-0.93-0.707
			c-0.143-0.515,0.158-1.047,0.672-1.19l7.75-2.148c0.513-0.141,1.045,0.158,1.188,0.674c0.143,0.515-0.158,1.047-0.673,1.188
			l-7.749,2.148C21.847,33.856,21.76,33.867,21.676,33.867L21.676,33.867z M21.676,33.867"/>
	</g>
</g>
</svg>
