<?xml version="1.0" encoding="iso-8859-1"?>
<!-- Generator: Adobe Illustrator 21.1.0, SVG Export Plug-In . SVG Version: 6.00 Build 0)  -->
<svg version="1.1" id="&#x421;&#x43B;&#x43E;&#x439;_1"
	 xmlns="http://www.w3.org/2000/svg" xmlns:xlink="http://www.w3.org/1999/xlink" x="0px" y="0px" viewBox="0 0 51.5 51.5"
	 style="enable-background:new 0 0 51.5 51.5;" xml:space="preserve">
<g>
	<path style="fill:#FFFFFF;stroke:#000000;stroke-width:1.5;stroke-miterlimit:10;" d="M50.163,25.75
		c0,13.482-10.931,24.413-24.413,24.413S1.337,39.232,1.337,25.75S12.268,1.337,25.75,1.337S50.163,12.268,50.163,25.75
		L50.163,25.75z M50.163,25.75"/>
	<path style="fill:#D8E5EA;stroke:#000000;stroke-width:1.5;stroke-miterlimit:10;" d="M25.75,1.337
		c13.484,0,24.413,10.931,24.413,24.413S39.234,50.163,25.75,50.163"/>
	<path style="fill:#33363A;stroke:#000000;stroke-width:1.5;stroke-miterlimit:10;" d="M25.75,50.75c-13.786,0-25-11.214-25-25
		s11.214-25,25-25c13.786,0,25,11.214,25,25S39.536,50.75,25.75,50.75L25.75,50.75z M25.75,1.924
		c-13.138,0-23.826,10.688-23.826,23.826S12.612,49.576,25.75,49.576S49.576,38.888,49.576,25.75S38.888,1.924,25.75,1.924
		L25.75,1.924z M25.75,1.924"/>
	<path style="fill:#33363A;stroke:#000000;stroke-width:1.5;stroke-miterlimit:10;" d="M23.872,44.399
		c-0.021,0-0.04-0.002-0.061-0.004c-1.302-0.134-2.591-0.405-3.834-0.807c-0.307-0.099-0.478-0.43-0.378-0.74
		c0.101-0.308,0.434-0.476,0.74-0.377c1.165,0.375,2.373,0.629,3.593,0.755c0.321,0.032,0.556,0.321,0.524,0.644
		C24.425,44.174,24.168,44.399,23.872,44.399L23.872,44.399z M27.664,44.396c-0.299,0-0.553-0.224-0.586-0.526
		c-0.032-0.324,0.201-0.612,0.524-0.647c1.22-0.128,2.427-0.384,3.589-0.763c0.309-0.1,0.64,0.069,0.742,0.376
		c0.099,0.31-0.069,0.641-0.376,0.74c-1.241,0.405-2.53,0.679-3.832,0.815C27.705,44.396,27.683,44.396,27.664,44.396L27.664,44.396
		z M16.69,42.077c-0.1,0-0.201-0.026-0.293-0.078c-1.13-0.652-2.197-1.427-3.171-2.3c-0.241-0.218-0.26-0.589-0.044-0.83
		c0.216-0.241,0.589-0.262,0.83-0.044c0.912,0.819,1.912,1.545,2.972,2.155c0.281,0.163,0.377,0.522,0.216,0.803
		C17.091,41.971,16.892,42.077,16.69,42.077L16.69,42.077z M34.839,42.06c-0.203,0-0.4-0.105-0.509-0.294
		c-0.163-0.282-0.067-0.641,0.214-0.803c1.059-0.612,2.058-1.338,2.968-2.161c0.241-0.218,0.612-0.197,0.83,0.042
		c0.216,0.241,0.197,0.614-0.044,0.83c-0.971,0.876-2.037,1.652-3.165,2.306C35.042,42.034,34.941,42.06,34.839,42.06L34.839,42.06z
		 M11.077,37.033c-0.182,0-0.362-0.084-0.476-0.241c-0.771-1.057-1.432-2.195-1.966-3.386c-0.132-0.297,0-0.643,0.297-0.776
		c0.296-0.132,0.644,0,0.776,0.296c0.499,1.115,1.119,2.184,1.842,3.174c0.193,0.262,0.134,0.63-0.128,0.82
		C11.318,36.996,11.195,37.033,11.077,37.033L11.077,37.033z M40.444,37.006c-0.12,0-0.241-0.036-0.346-0.113
		c-0.262-0.191-0.319-0.559-0.128-0.82c0.721-0.993,1.339-2.062,1.838-3.178c0.132-0.297,0.478-0.43,0.774-0.299
		c0.297,0.132,0.43,0.48,0.299,0.776c-0.532,1.192-1.192,2.333-1.96,3.391C40.806,36.922,40.626,37.006,40.444,37.006L40.444,37.006
		z M7.992,30.146c-0.272,0-0.515-0.189-0.574-0.465c-0.272-1.274-0.411-2.583-0.413-3.895c0-0.323,0.262-0.587,0.587-0.587
		c0.325,0,0.587,0.262,0.587,0.585c0.002,1.232,0.134,2.46,0.388,3.653c0.067,0.316-0.136,0.629-0.453,0.696
		C8.074,30.143,8.032,30.146,7.992,30.146L7.992,30.146z M43.515,30.112c-0.04,0-0.08-0.004-0.122-0.013
		c-0.317-0.067-0.52-0.379-0.453-0.696c0.252-1.194,0.38-2.421,0.38-3.653v-0.069c-0.002-0.325,0.258-0.589,0.582-0.593
		c0.336-0.017,0.591,0.258,0.592,0.584v0.084c0,1.306-0.136,2.618-0.405,3.89C44.032,29.923,43.787,30.112,43.515,30.112
		L43.515,30.112z M7.979,22.6c-0.04,0-0.08-0.004-0.12-0.013c-0.32-0.067-0.522-0.377-0.455-0.694
		c0.268-1.279,0.671-2.536,1.201-3.729c0.132-0.297,0.478-0.43,0.774-0.301c0.296,0.132,0.43,0.478,0.3,0.774
		c-0.497,1.121-0.876,2.297-1.126,3.494C8.495,22.41,8.25,22.6,7.979,22.6L7.979,22.6z M43.498,22.492
		c-0.269,0-0.514-0.188-0.574-0.463c-0.258-1.197-0.644-2.371-1.147-3.486c-0.132-0.296,0-0.644,0.294-0.778
		c0.297-0.132,0.645,0,0.778,0.295c0.536,1.191,0.949,2.444,1.224,3.721c0.069,0.318-0.134,0.63-0.451,0.698
		C43.582,22.488,43.54,22.492,43.498,22.492L43.498,22.492z M11.033,15.699c-0.118,0-0.239-0.037-0.344-0.111
		c-0.262-0.191-0.321-0.559-0.13-0.82c0.765-1.057,1.645-2.039,2.614-2.916c0.241-0.218,0.612-0.199,0.83,0.04
		c0.218,0.241,0.199,0.612-0.042,0.83c-0.908,0.822-1.733,1.742-2.451,2.734C11.394,15.615,11.214,15.699,11.033,15.699
		L11.033,15.699z M40.402,15.611c-0.18,0-0.357-0.082-0.472-0.239c-0.725-0.989-1.555-1.903-2.469-2.72
		c-0.241-0.216-0.262-0.589-0.046-0.83c0.216-0.241,0.587-0.262,0.83-0.046c0.973,0.872,1.859,1.847,2.631,2.899
		c0.191,0.262,0.136,0.631-0.126,0.822C40.645,15.575,40.523,15.611,40.402,15.611L40.402,15.611z M16.628,10.633
		c-0.201,0-0.398-0.103-0.507-0.291c-0.164-0.281-0.069-0.64,0.212-0.803c1.13-0.66,2.333-1.199,3.572-1.607
		C20.214,7.833,20.547,8,20.648,8.31c0.101,0.308-0.067,0.638-0.375,0.74c-1.163,0.382-2.289,0.887-3.349,1.505
		C16.831,10.608,16.73,10.633,16.628,10.633L16.628,10.633z M34.776,10.58c-0.097,0-0.199-0.025-0.291-0.079
		c-1.065-0.61-2.193-1.109-3.358-1.484c-0.31-0.099-0.48-0.43-0.381-0.738c0.1-0.31,0.432-0.478,0.74-0.38
		c1.243,0.399,2.448,0.931,3.584,1.583c0.282,0.163,0.377,0.52,0.216,0.801C35.178,10.475,34.981,10.58,34.776,10.58L34.776,10.58z
		 M23.797,8.283c-0.296,0-0.551-0.224-0.583-0.526c-0.035-0.321,0.199-0.612,0.522-0.646c1.293-0.138,2.622-0.141,3.915-0.012
		c0.323,0.033,0.559,0.321,0.526,0.645c-0.032,0.321-0.319,0.554-0.644,0.526c-1.213-0.124-2.459-0.12-3.672,0.009
		C23.839,8.283,23.818,8.283,23.797,8.283L23.797,8.283z M23.797,8.283"/>
	<path style="fill:#33363A;stroke:#000000;stroke-width:1.5;stroke-miterlimit:10;" d="M23.897,39.332
		c-0.026,0-0.055-0.002-0.082-0.006c-1.296-0.184-2.556-0.551-3.746-1.094c-0.295-0.134-0.424-0.484-0.291-0.778
		c0.134-0.295,0.484-0.426,0.778-0.291c1.086,0.495,2.237,0.832,3.423,1c0.321,0.044,0.545,0.342,0.499,0.664
		C24.436,39.119,24.186,39.332,23.897,39.332L23.897,39.332z M27.63,39.328c-0.289,0-0.539-0.212-0.581-0.505
		c-0.046-0.321,0.176-0.618,0.497-0.665c1.184-0.168,2.335-0.507,3.422-1.004c0.294-0.136,0.642-0.006,0.778,0.289
		c0.136,0.294,0.006,0.642-0.288,0.778c-1.19,0.545-2.448,0.915-3.745,1.102C27.685,39.326,27.657,39.328,27.63,39.328L27.63,39.328
		z M17.169,36.268c-0.136,0-0.274-0.046-0.382-0.143c-0.991-0.855-1.851-1.845-2.561-2.943c-0.176-0.271-0.097-0.634,0.174-0.811
		c0.272-0.176,0.637-0.099,0.813,0.174c0.648,1.004,1.436,1.908,2.341,2.693c0.247,0.212,0.274,0.583,0.061,0.828
		C17.498,36.199,17.334,36.268,17.169,36.268L17.169,36.268z M34.35,36.251c-0.164,0-0.327-0.069-0.444-0.203
		c-0.212-0.245-0.188-0.616,0.057-0.828c0.904-0.784,1.69-1.691,2.337-2.696c0.176-0.274,0.539-0.35,0.813-0.176
		c0.272,0.176,0.352,0.539,0.176,0.813c-0.708,1.098-1.566,2.09-2.555,2.947C34.623,36.205,34.485,36.251,34.35,36.251L34.35,36.251
		z M13.161,30.059c-0.255,0-0.488-0.166-0.564-0.423c-0.367-1.247-0.557-2.545-0.558-3.859c0-0.323,0.262-0.587,0.587-0.587
		c0.325,0,0.587,0.262,0.589,0.586c0.002,1.201,0.172,2.388,0.511,3.53c0.092,0.311-0.086,0.636-0.398,0.73
		C13.272,30.051,13.217,30.059,13.161,30.059L13.161,30.059z M38.347,30.034c-0.055,0-0.111-0.008-0.164-0.025
		c-0.312-0.09-0.492-0.417-0.399-0.728c0.334-1.142,0.503-2.329,0.503-3.53v-0.054c0-0.323,0.264-0.587,0.589-0.587
		c0.323,0,0.587,0.264,0.587,0.587v0.048c0,1.319-0.186,2.618-0.551,3.867C38.836,29.867,38.601,30.034,38.347,30.034L38.347,30.034
		z M13.148,22.668c-0.055,0-0.109-0.008-0.164-0.025c-0.311-0.09-0.492-0.415-0.399-0.727c0.363-1.255,0.906-2.45,1.614-3.553
		c0.174-0.274,0.537-0.352,0.811-0.178c0.274,0.176,0.354,0.539,0.178,0.811c-0.646,1.009-1.142,2.102-1.474,3.247
		C13.637,22.499,13.402,22.668,13.148,22.668L13.148,22.668z M38.331,22.591c-0.255,0-0.488-0.164-0.564-0.419
		c-0.338-1.144-0.841-2.233-1.494-3.237c-0.178-0.274-0.099-0.637,0.172-0.813c0.272-0.176,0.637-0.099,0.813,0.172
		c0.713,1.1,1.264,2.291,1.635,3.542c0.094,0.311-0.084,0.638-0.396,0.73C38.442,22.583,38.387,22.591,38.331,22.591L38.331,22.591z
		 M17.131,16.441c-0.164,0-0.327-0.069-0.444-0.201c-0.212-0.245-0.187-0.616,0.057-0.83c0.987-0.861,2.088-1.574,3.274-2.121
		c0.295-0.136,0.645-0.006,0.78,0.289c0.136,0.294,0.006,0.644-0.289,0.78c-1.082,0.497-2.09,1.151-2.993,1.937
		C17.406,16.393,17.269,16.441,17.131,16.441L17.131,16.441z M34.31,16.389c-0.136,0-0.272-0.048-0.382-0.143
		c-0.909-0.78-1.92-1.427-3.006-1.92c-0.295-0.134-0.426-0.482-0.293-0.778c0.134-0.295,0.482-0.426,0.778-0.293
		c1.188,0.539,2.295,1.247,3.287,2.102c0.245,0.212,0.274,0.584,0.061,0.828C34.639,16.32,34.474,16.389,34.31,16.389L34.31,16.389z
		 M23.843,13.351c-0.287,0-0.538-0.211-0.58-0.503c-0.047-0.321,0.174-0.619,0.495-0.665c1.283-0.187,2.616-0.191,3.899-0.011
		c0.321,0.044,0.545,0.34,0.501,0.661c-0.044,0.321-0.34,0.545-0.663,0.501c-1.172-0.163-2.394-0.159-3.566,0.011
		C23.901,13.349,23.872,13.351,23.843,13.351L23.843,13.351z M23.843,13.351"/>
	<path style="fill:#D60909;stroke:#000000;stroke-width:1.5;stroke-miterlimit:10;" d="M29.49,21.52L12.609,10.971
		c-0.47-0.294-1.078-0.224-1.471,0.166c-0.39,0.392-0.461,1-0.166,1.471L21.52,29.49c0.218,0.348,0.598,0.559,1.008,0.559h6.334
		c0.327,0,0.625-0.134,0.84-0.348c0.216-0.214,0.348-0.513,0.348-0.84v-6.333C30.049,22.117,29.839,21.738,29.49,21.52L29.49,21.52z
		 M29.49,21.52"/>
	<path style="fill:#FF1A1A;stroke:#000000;stroke-width:1.5;stroke-miterlimit:10;" d="M10.971,12.607L21.52,29.49
		c0.218,0.348,0.598,0.559,1.008,0.559l6.334-0.002c0.327,0,0.625-0.132,0.84-0.346L11.138,11.138
		C10.748,11.528,10.677,12.138,10.971,12.607L10.971,12.607z M10.971,12.607"/>
	<path style="fill:#AAC8D1;stroke:#000000;stroke-width:1.5;stroke-miterlimit:10;" d="M21.782,29.793
		c0.067,0.07,0.143,0.134,0.228,0.187l16.884,10.549c0.469,0.295,1.077,0.224,1.469-0.166c0.39-0.392,0.461-1,0.166-1.47
		L29.98,22.01c-0.053-0.084-0.117-0.161-0.188-0.228L21.782,29.793z M21.782,29.793"/>
	<path style="fill:#D8E5EA;stroke:#000000;stroke-width:1.5;stroke-miterlimit:10;" d="M25.786,25.788l14.576,14.574
		c0.39-0.392,0.461-1,0.166-1.469L29.98,22.01c-0.053-0.084-0.117-0.161-0.188-0.228L25.786,25.788z M25.786,25.788"/>
	<path style="fill:#33363A;stroke:#000000;stroke-width:1.5;stroke-miterlimit:10;" d="M41.027,38.582l-10.55-16.884
		c-0.002-0.003-0.006-0.007-0.01-0.011c0.027-0.178-0.019-0.361-0.155-0.499c-0.136-0.136-0.322-0.182-0.497-0.155
		c-0.006-0.004-0.008-0.008-0.013-0.009l-16.884-10.55c-0.705-0.44-1.606-0.337-2.195,0.25c-0.589,0.587-0.69,1.492-0.251,2.196
		l10.549,16.884c0.004,0.006,0.008,0.008,0.012,0.013c-0.025,0.176,0.019,0.36,0.155,0.497c0.115,0.115,0.266,0.172,0.417,0.172
		c0.026,0,0.053-0.014,0.082-0.017c0.003,0.003,0.007,0.007,0.011,0.011l16.884,10.548c0.293,0.182,0.618,0.272,0.943,0.272
		c0.457,0,0.909-0.178,1.255-0.522C41.366,40.19,41.467,39.286,41.027,38.582L41.027,38.582z M11.469,12.295
		c-0.149-0.237-0.113-0.543,0.084-0.742c0.199-0.197,0.505-0.234,0.744-0.084l16.557,10.346l-7.039,7.039L11.469,12.295z
		 M39.947,39.945c-0.199,0.199-0.505,0.235-0.744,0.086L22.646,29.686l7.039-7.039l10.346,16.557
		C40.18,39.443,40.146,39.749,39.947,39.945L39.947,39.945z M39.947,39.945"/>
	<path style="fill:#FFFFFF;stroke:#000000;stroke-width:1.5;stroke-miterlimit:10;" d="M29.207,25.75
		c0,1.91-1.547,3.457-3.458,3.457c-1.91,0-3.459-1.547-3.459-3.457c0-1.911,1.549-3.46,3.459-3.46
		C27.66,22.291,29.207,23.84,29.207,25.75L29.207,25.75z M29.207,25.75"/>
	<path style="fill:#D8E5EA;stroke:#000000;stroke-width:1.5;stroke-miterlimit:10;" d="M22.292,25.75c0-1.909,1.547-3.46,3.457-3.46
		c1.909,0,3.458,1.551,3.458,3.46"/>
	<path style="fill:#33363A;stroke:#000000;stroke-width:1.5;stroke-miterlimit:10;" d="M25.75,29.795
		c-2.229,0-4.044-1.815-4.044-4.045c0-2.232,1.815-4.047,4.044-4.047c2.23,0,4.045,1.815,4.045,4.047
		C29.794,27.98,27.98,29.795,25.75,29.795L25.75,29.795z M25.75,22.88c-1.583,0-2.87,1.287-2.87,2.87c0,1.583,1.289,2.87,2.87,2.87
		c1.582,0,2.871-1.289,2.871-2.87C28.621,24.167,27.332,22.88,25.75,22.88L25.75,22.88z M25.75,22.88"/>
</g>
</svg>
