<?xml version="1.0" encoding="iso-8859-1"?>
<!-- Generator: Adobe Illustrator 21.1.0, SVG Export Plug-In . SVG Version: 6.00 Build 0)  -->
<svg version="1.1" id="Layer_1" xmlns="http://www.w3.org/2000/svg" xmlns:xlink="http://www.w3.org/1999/xlink" x="0px" y="0px"
	 viewBox="181.997 371.998 50 50.004" style="enable-background:new 181.997 371.998 50 50.004;" xml:space="preserve">
<g>
	<polygon style="fill:#1E2280;" points="212.102,394.794 213.277,395.978 194.036,414.685 188.728,409.386 189.211,408.911 
		216.227,382.419 220.352,386.544 	"/>
	<polygon style="fill:#2B339B;" points="210.377,392.111 211.552,393.286 192.303,412.002 189.211,408.911 216.227,382.419 
		218.152,384.344 	"/>
	<path style="fill:#24067F;" d="M231.168,376.528c0.006,0.996-0.391,1.951-1.1,2.65l-3.233,3.242l0,0c-0.65-0.646-1.7-0.646-2.35,0
		l-4.125,4.167l-4.167-4.167l0.608-0.6l7.841-7.816c1.289-1.295,3.297-1.539,4.858-0.592c0.242,0.152,0.462,0.334,0.658,0.542
		C230.813,374.651,231.174,375.572,231.168,376.528z"/>
	<path style="fill:#4B1DA1;" d="M229.502,373.67c0.005,0.995-0.392,1.951-1.1,2.65l-3.233,3.183l0,0
		c-0.648-0.635-1.685-0.635-2.333,0l-4.167,4.167l-1.833-1.85l7.808-7.816c1.289-1.295,3.297-1.539,4.858-0.592
		C229.507,373.497,229.507,373.584,229.502,373.67z"/>
	<path style="fill:#AFAFAF;" d="M226.827,384.786l-12.366,12.366l-2.358-2.358l12.4-12.383c0.649-0.641,1.692-0.641,2.342,0l0,0
		c0.652,0.651,0.652,1.706,0.002,2.357C226.839,384.774,226.833,384.78,226.827,384.786z"/>
	<polygon style="fill:#969392;" points="194.036,414.685 182.836,421.169 188.728,409.386 192.011,412.66 	"/>
	<polygon style="fill:#AFAFAF;" points="192.011,412.66 185.086,416.669 188.728,409.386 	"/>
	<path style="fill:#F6981E;" d="M214.502,372.836h-21.608c-1.851,0-3.36,1.483-3.392,3.333v32.499l6.758-6.667l20-19.583l0.6-0.592
		l3.333-3.333L214.502,372.836z M214.502,397.153l-1.183-1.175l-6.242,6.025l-13.041,12.683l-4.042,2.317
		c0.217,0.354,0.499,0.662,0.833,0.908c0.595,0.477,1.337,0.737,2.1,0.733h28.124c1.85-0.032,3.333-1.541,3.333-3.392l0.117-19.083
		v-9.058L214.502,397.153z"/>
	<path style="fill:#FDB50D;" d="M211.169,376.17h-21.666v32.499l6.758-6.667l20-19.583l0.6-0.592L211.169,376.17z M211.169,400.486
		l-1.183-1.175l-6.242,6.025l-12.95,12.6c0.595,0.477,1.337,0.737,2.1,0.733h28.158v-0.058l0.117-19.108v-9.058L211.169,400.486z"/>
	<g>
		<path style="fill:#F6981E;" d="M220.16,378.495l-3.917,3.908c-1.082-0.588-1.752-1.726-1.742-2.958v-6.608L220.16,378.495z"/>
		<path style="fill:#F6981E;" d="M216.827,380.995l-3.917,3.908c-1.082-0.588-1.752-1.726-1.742-2.958v-6.608L216.827,380.995z"/>
	</g>
	<polygon style="fill:#0F7BE4;" points="189.503,408.627 189.503,410.161 188.728,409.386 	"/>
	<path d="M206.169,392.836h-12.5c-0.46,0-0.833-0.373-0.833-0.833s0.373-0.833,0.833-0.833h12.5c0.46,0,0.833,0.373,0.833,0.833
		S206.629,392.836,206.169,392.836z"/>
	<path d="M219.502,402.836h-12.425c-0.46,0-0.833-0.373-0.833-0.833s0.373-0.833,0.833-0.833h12.425c0.46,0,0.833,0.373,0.833,0.833
		S219.962,402.836,219.502,402.836z"/>
	<path d="M196.261,402.836h-2.592c-0.46,0-0.833-0.373-0.833-0.833s0.373-0.833,0.833-0.833h2.592c0.46,0,0.833,0.373,0.833,0.833
		S196.721,402.836,196.261,402.836z"/>
	<path d="M202.836,396.169h-9.166c-0.46,0-0.833-0.373-0.833-0.833s0.373-0.833,0.833-0.833h9.166c0.46,0,0.833,0.373,0.833,0.833
		S203.296,396.169,202.836,396.169z"/>
	<path d="M199.502,399.502h-5.833c-0.46,0-0.833-0.373-0.833-0.833s0.373-0.833,0.833-0.833h5.833c0.46,0,0.833,0.373,0.833,0.833
		S199.962,399.502,199.502,399.502z"/>
	<path d="M220.994,419.502h-28.099c-1.482,0-2.855-0.778-3.617-2.05c-0.236-0.395-0.107-0.907,0.287-1.142
		c0.004-0.003,0.008-0.005,0.013-0.008l3.95-2.292l19.166-18.633c0.324-0.318,0.842-0.318,1.167,0l0.592,0.592l9.458-9.45
		c0.324-0.327,0.852-0.329,1.178-0.005c0.159,0.158,0.247,0.372,0.247,0.597v9.058l-0.117,19.116
		C225.214,417.615,223.324,419.502,220.994,419.502z M191.269,417.252c0.468,0.386,1.059,0.592,1.667,0.583h28.058
		c1.413,0,2.558-1.145,2.558-2.558l0.117-19.108v-7.05l-8.616,8.625c-0.325,0.323-0.85,0.323-1.175,0l-0.6-0.6l-18.658,18.141
		c-0.05,0.048-0.106,0.091-0.167,0.125L191.269,417.252z M189.503,409.502c-0.46,0-0.833-0.373-0.833-0.833v-32.441
		c0.005-2.332,1.893-4.22,4.225-4.225h21.608c0.222-0.002,0.434,0.086,0.592,0.242l5.658,5.658c0.327,0.324,0.329,0.852,0.005,1.178
		c-0.002,0.002-0.003,0.003-0.005,0.005l-3.917,3.908l-26.749,26.224C189.938,409.388,189.728,409.491,189.503,409.502z
		 M192.894,373.67c-1.413,0-2.558,1.145-2.558,2.558v30.416l25.308-24.816l3.333-3.333l-4.817-4.825H192.894z"/>
	<path d="M216.244,383.236c-0.14,0.001-0.277-0.033-0.4-0.1c-1.344-0.742-2.177-2.157-2.175-3.692v-6.608
		c-0.003-0.46,0.368-0.836,0.828-0.838c0.224-0.002,0.439,0.087,0.597,0.247l5.658,5.658c0.327,0.324,0.329,0.852,0.005,1.178
		c-0.002,0.002-0.003,0.003-0.005,0.005l-3.917,3.908C216.678,383.15,216.465,383.237,216.244,383.236z M215.335,374.845v4.6
		c0.003,0.714,0.305,1.394,0.833,1.875l2.825-2.825L215.335,374.845z"/>
	<path d="M194.036,415.519c-0.222,0.002-0.434-0.086-0.592-0.242l-4.533-4.525c-0.156-0.158-0.243-0.37-0.242-0.592v-1.492
		c0.001-0.222,0.091-0.436,0.25-0.592l26.724-26.249c0.325-0.323,0.85-0.323,1.175,0l4.167,4.167c0.323,0.325,0.323,0.85,0,1.175
		l-7.667,7.667l0.592,0.592c0.327,0.324,0.329,0.852,0.005,1.178c-0.002,0.002-0.003,0.003-0.005,0.005l-19.291,18.675
		C194.463,415.436,194.253,415.52,194.036,415.519z M190.336,409.819l3.708,3.7l18.05-17.55l-0.583-0.583
		c-0.323-0.325-0.323-0.85,0-1.175l7.658-7.658l-2.95-2.95l-25.883,25.374L190.336,409.819L190.336,409.819z"/>
	<path d="M189.503,410.994c-0.222,0.002-0.434-0.086-0.592-0.242l-0.775-0.775c-0.327-0.324-0.329-0.852-0.005-1.178
		c0.002-0.002,0.003-0.003,0.005-0.005l0.775-0.758c0.323-0.328,0.851-0.331,1.178-0.008c0.171,0.168,0.26,0.402,0.247,0.641v1.533
		c0,0.46-0.373,0.833-0.833,0.833V410.994z"/>
	<path d="M220.335,387.378c-0.222,0.002-0.434-0.086-0.592-0.242l-4.167-4.167c-0.323-0.325-0.323-0.85,0-1.175l8.416-8.416
		c0.952-0.914,2.231-1.409,3.55-1.375c1.212,0.004,2.37,0.501,3.208,1.375c1.698,1.807,1.654,4.637-0.1,6.392l-3.233,3.233
		c-0.157,0.156-0.37,0.243-0.592,0.242l0,0c-0.222,0.002-0.434-0.086-0.592-0.242c-0.324-0.327-0.852-0.329-1.178-0.005
		c-0.002,0.002-0.003,0.003-0.005,0.005l-4.117,4.167c-0.158,0.156-0.37,0.243-0.592,0.242L220.335,387.378z M217.402,382.419
		l2.933,2.917l3.533-3.542c0.75-0.746,1.887-0.939,2.842-0.483l2.792-2.725c0.542-0.547,0.842-1.288,0.833-2.058l0,0
		c-0.003-0.758-0.302-1.485-0.833-2.025c-0.534-0.54-1.265-0.841-2.025-0.833c-0.856-0.017-1.681,0.317-2.283,0.925L217.402,382.419
		z"/>
	<path d="M214.502,397.986c-0.218-0.001-0.428-0.087-0.583-0.242l-2.358-2.358c-0.323-0.325-0.323-0.85,0-1.175l12.325-12.391
		c1.03-0.92,2.61-0.831,3.53,0.199c0.842,0.943,0.847,2.368,0.012,3.317l-12.375,12.408
		C214.905,397.89,214.71,397.977,214.502,397.986z M213.319,394.794l1.183,1.183l11.733-11.783c0.329-0.322,0.335-0.849,0.013-1.178
		c-0.004-0.004-0.009-0.009-0.013-0.013c-0.325-0.323-0.85-0.323-1.175,0L213.319,394.794z"/>
	<path d="M182.836,422.002c-0.46,0.003-0.836-0.367-0.839-0.827c-0.001-0.132,0.03-0.262,0.089-0.381l5.9-11.783
		c0.207-0.412,0.707-0.577,1.118-0.372c0.079,0.04,0.152,0.092,0.215,0.155l5.308,5.3c0.324,0.327,0.322,0.854-0.005,1.178
		c-0.051,0.05-0.108,0.094-0.17,0.13l-11.2,6.492C183.126,421.965,182.982,422.003,182.836,422.002z M188.953,410.794l-4.167,8.266
		l7.891-4.558L188.953,410.794z"/>
	
		<rect x="214.808" y="391.955" transform="matrix(0.7071 -0.7071 0.7071 0.7071 -215.1729 267.7704)" width="1.667" height="3.333"/>
</g>
</svg>
