<?xml version="1.0" encoding="utf-8"?>
<!-- Generator: Adobe Illustrator 21.1.0, SVG Export Plug-In . SVG Version: 6.00 Build 0)  -->
<svg version="1.1" id="Слой_1" xmlns="http://www.w3.org/2000/svg" xmlns:xlink="http://www.w3.org/1999/xlink" x="0px" y="0px"
	 viewBox="0 0 23 23" style="enable-background:new 0 0 23 23;" xml:space="preserve">
<g>
	<path d="M11.5,10c1.5,0,2.7-1.2,2.7-2.7c0-1.5-1.2-2.7-2.7-2.7S8.8,5.8,8.8,7.3C8.8,8.8,10,10,11.5,10L11.5,10z M11.5,5.4
		c1.1,0,1.9,0.9,1.9,1.9c0,1.1-0.9,1.9-1.9,1.9c-1.1,0-1.9-0.9-1.9-1.9C9.6,6.2,10.4,5.4,11.5,5.4L11.5,5.4z M11.5,5.4"/>
	<path d="M11.4,21l5.9-8.5c2.2-2.9,1.9-7.8-0.7-10.3C15.2,0.8,13.4,0,11.4,0c-2,0-3.8,0.8-5.2,2.2C3.7,4.7,3.3,9.6,5.5,12.5L11.4,21
		z M6.8,2.7C8,1.5,9.7,0.8,11.4,0.8c1.8,0,3.4,0.7,4.7,1.9c2.3,2.3,2.6,6.7,0.6,9.4l-5.3,7.6L6.2,12C4.2,9.4,4.5,5,6.8,2.7L6.8,2.7z
		 M6.8,2.7"/>
	<path d="M16.1,16.5c-0.2,0-0.4,0.1-0.4,0.3c0,0.2,0.1,0.4,0.3,0.4c4,0.5,6.2,1.8,6.2,2.5c0,1-4.1,2.5-10.7,2.5
		c-6.7,0-10.7-1.5-10.7-2.5c0-0.7,2.1-2,6.2-2.5c0.2,0,0.4-0.2,0.3-0.4c0-0.2-0.2-0.4-0.4-0.3C2.8,17,0,18.3,0,19.7
		C0,21.4,3.9,23,11.5,23S23,21.4,23,19.7C23,18.3,20.2,17,16.1,16.5L16.1,16.5z M16.1,16.5"/>
</g>
</svg>
