<?xml version="1.0" encoding="iso-8859-1"?>
<!-- Generator: Adobe Illustrator 21.1.0, SVG Export Plug-In . SVG Version: 6.00 Build 0)  -->
<svg version="1.1" id="Layer_1" xmlns="http://www.w3.org/2000/svg" xmlns:xlink="http://www.w3.org/1999/xlink" x="0px" y="0px"
	 viewBox="172 369.673 70 54.657" style="enable-background:new 172 369.673 70 54.657;" xml:space="preserve">
<g>
	<path style="fill:#E2E7F2;" d="M186.177,414.536h52.606c1.211,0,2.192-0.981,2.192-2.192V372.89c0-1.211-0.981-2.192-2.192-2.192
		h-52.606c-1.211,0-2.192,0.981-2.192,2.192v39.454C183.985,413.555,184.966,414.536,186.177,414.536z"/>
	<rect x="227.824" y="377.274" style="fill:#B4E66E;" width="4.383" height="26.303"/>
	<rect x="219.056" y="386.041" style="fill:#DAE169;" width="4.383" height="17.536"/>
	<rect x="201.52" y="390.425" style="fill:#FF9670;" width="4.383" height="13.151"/>
	<rect x="210.288" y="381.657" style="fill:#FFDC64;" width="4.383" height="21.919"/>
	<path style="fill:#5A4146;" d="M177.546,392.069v0.865c0,1.06,0.171,2.113,0.506,3.119l1.96,5.879h3.699V388.37h-2.466
		C179.202,388.37,177.546,390.026,177.546,392.069z"/>
	<path style="fill:#694B4B;" d="M194.428,394.63l-2.086,7.302l-9.864-8.631c-1.362,0-2.466-1.104-2.466-2.466l0,0
		c0-2.043,1.656-3.699,3.699-3.699h11.096v4.783C194.808,392.837,194.68,393.749,194.428,394.63z"/>
	<rect x="182.231" y="405.769" style="fill:#E6AF78;" width="7.891" height="6.917"/>
	<path style="fill:#D29B6E;" d="M182.231,409.28c1.22,0.496,2.55,0.775,3.945,0.775c1.396,0,2.726-0.279,3.945-0.775v-3.512h-7.891
		V409.28z"/>
	<path style="fill:#FF507D;" d="M196.467,411.868l-6.345-1.813l-3.945,2.618l-3.945-2.618l-6.344,1.813
		c-1.694,0.484-2.862,2.032-2.862,3.794v7.642h26.303v-7.642C199.328,413.9,198.16,412.352,196.467,411.868z"/>
	<path style="fill:#F0C087;" d="M186.177,406.864L186.177,406.864c-4.086,0-7.398-3.312-7.398-7.398v-1.444
		c0-0.654,0.26-1.281,0.722-1.744l2.236-2.236c0.473-0.473,1.121-0.746,1.79-0.725c3.941,0.124,7.43,0.969,9.337,2.831
		c0.467,0.456,0.711,1.094,0.711,1.746v1.571C193.574,403.552,190.262,406.864,186.177,406.864z"/>
	<path style="fill:#E6AF78;" d="M182.478,399.193c0-1.422,1.192-2.462,2.614-2.462c2.181,0,6.565,0.27,8.448,1.665
		c-0.074-0.52-0.298-1.876-0.676-2.246c-1.907-1.863-5.396-2.707-9.337-2.831l0,0l0,0c-0.669-0.021-1.316,0.251-1.79,0.725
		l-2.958,2.958v2.466c0,3.374,2.26,6.214,5.348,7.104c-1.028-1.268-1.649-2.877-1.649-4.638L182.478,399.193z"/>
	<g>
		<path style="fill:#D23C69;" d="M178.286,419.58c0-1.046-0.416-2.05-1.156-2.79l-3.385-3.385c-0.453,0.647-0.72,1.425-0.72,2.256
			v7.642h5.261L178.286,419.58L178.286,419.58z"/>
		<path style="fill:#D23C69;" d="M194.068,419.58c0-1.046,0.416-2.05,1.156-2.79l3.385-3.385c0.453,0.647,0.72,1.425,0.72,2.256
			v7.642h-5.261V419.58z"/>
	</g>
	<path d="M182.818,394.809v-0.232c2.197-0.314,3.935-0.056,5.05,0.237c1.348,0.355,2.107,0.837,2.128,0.851
		c0.174,0.115,0.37,0.169,0.563,0.169c0.331,0,0.657-0.16,0.854-0.457c0.314-0.471,0.187-1.108-0.284-1.422
		c-0.148-0.099-3.708-2.414-9.537-1.248c-0.479,0.096-0.824,0.517-0.824,1.005v1.096c0,0.566,0.459,1.025,1.025,1.025
		C182.359,395.834,182.818,395.375,182.818,394.809z"/>
	<path d="M197.555,411.68l-5.212-1.954c-0.453-0.17-0.757-0.609-0.757-1.092v-2.629c0.223-0.178,0.439-0.368,0.647-0.569
		c1.703-1.653,2.641-3.869,2.641-6.242v-1.95l0.293-0.587c0.525-1.05,0.802-2.225,0.802-3.399v-6.119
		c0-0.566-0.459-1.025-1.025-1.025h-11.42c-3.938,0-7.141,3.203-7.141,7.145c0,1.174,0.278,2.35,0.803,3.399l0.293,0.587v1.628
		c0,2.82,1.29,5.371,3.288,7.034v2.728c0,0.484-0.304,0.923-0.757,1.092l-5.212,1.954c-1.674,0.628-2.799,2.251-2.799,4.039v7.585
		c0,0.566,0.459,1.025,1.025,1.025s1.025-0.459,1.025-1.025v-7.585c0-0.938,0.59-1.789,1.468-2.118l5.212-1.954
		c0.282-0.106,0.542-0.251,0.777-0.425l3.643,2.733v9.351c0,0.566,0.459,1.025,1.025,1.025c0.566,0,1.025-0.459,1.025-1.025v-9.351
		l3.643-2.733c0.235,0.174,0.495,0.32,0.777,0.426l5.212,1.954c0.878,0.329,1.468,1.181,1.468,2.118v7.585
		c0,0.566,0.459,1.025,1.025,1.025c0.566,0,1.025-0.459,1.025-1.025v-7.585C200.354,413.931,199.229,412.308,197.555,411.68z
		 M179.531,398.871v-1.87c0-0.159-0.037-0.316-0.108-0.459l-0.402-0.803c-0.383-0.767-0.586-1.625-0.586-2.486
		c0-2.807,2.283-5.09,5.09-5.09h10.394v5.094c0,0.857-0.202,1.716-0.586,2.482l-0.402,0.803c-0.071,0.142-0.108,0.299-0.108,0.459
		v2.192c0,1.813-0.717,3.507-2.018,4.77c-1.301,1.262-3.015,1.928-4.834,1.873C182.42,405.729,179.531,402.605,179.531,398.871z
		 M185.91,407.886c0.09,0.003,0.18,0.004,0.27,0.004c1.171,0,2.306-0.231,3.355-0.671v1.414c0,0.312,0.047,0.616,0.134,0.906
		l-3.492,2.619l-3.492-2.619c0.086-0.29,0.134-0.595,0.134-0.906v-1.453C183.776,407.603,184.819,407.853,185.91,407.886z"/>
	<path d="M178.505,416.799c-0.566,0-1.025,0.459-1.025,1.025v5.48c0,0.566,0.459,1.025,1.025,1.025c0.566,0,1.025-0.459,1.025-1.025
		v-5.48C179.531,417.258,179.072,416.799,178.505,416.799z"/>
	<path d="M193.849,416.799c-0.566,0-1.025,0.459-1.025,1.025v5.48c0,0.566,0.459,1.025,1.025,1.025c0.566,0,1.025-0.459,1.025-1.025
		v-5.48C194.874,417.258,194.415,416.799,193.849,416.799z"/>
	<path d="M238.783,369.673h-52.606c-1.774,0-3.217,1.443-3.217,3.217v9.863c0,0.566,0.459,1.025,1.025,1.025
		c0.566,0,1.025-0.459,1.025-1.025v-9.863c0-0.643,0.523-1.166,1.166-1.166h52.606c0.643,0,1.166,0.523,1.166,1.166v39.454
		c0,0.643-0.523,1.167-1.166,1.167h-35.071c-0.566,0-1.025,0.459-1.025,1.025s0.459,1.025,1.025,1.025h35.071
		c1.774,0,3.217-1.443,3.217-3.217V372.89C242,371.116,240.557,369.673,238.783,369.673z"/>
	<path d="M234.399,404.602c0.566,0,1.025-0.459,1.025-1.025s-0.459-1.025-1.025-1.025h-1.166v-25.278
		c0-0.566-0.459-1.025-1.025-1.025h-4.384c-0.566,0-1.025,0.459-1.025,1.025v25.278h-2.333v-16.51c0-0.566-0.459-1.025-1.025-1.025
		h-4.384c-0.566,0-1.025,0.459-1.025,1.025v16.51h-2.333v-20.894c0-0.566-0.459-1.025-1.025-1.025h-4.384
		c-0.566,0-1.025,0.459-1.025,1.025v20.894h-2.333v-12.126c0-0.566-0.459-1.025-1.025-1.025h-4.384
		c-0.566,0-1.025,0.459-1.025,1.025v12.126h-3.358c-0.566,0-1.025,0.459-1.025,1.025s0.459,1.025,1.025,1.025L234.399,404.602
		L234.399,404.602z M228.849,378.299h2.333v24.252h-2.333V378.299z M220.081,387.067h2.333v15.484h-2.333V387.067z M211.313,382.683
		h2.333v19.868h-2.333V382.683z M202.546,402.551v-11.101h2.333v11.101H202.546z"/>
	<path d="M228.919,406.935c-0.566,0-1.025,0.459-1.025,1.025s0.459,1.025,1.025,1.025h2.192c0.566,0,1.025-0.459,1.025-1.025
		s-0.459-1.025-1.025-1.025H228.919z"/>
	<path d="M211.384,406.935c-0.566,0-1.025,0.459-1.025,1.025s0.459,1.025,1.025,1.025h2.192c0.566,0,1.025-0.459,1.025-1.025
		s-0.459-1.025-1.025-1.025H211.384z"/>
	<path d="M220.151,406.935c-0.566,0-1.025,0.459-1.025,1.025s0.459,1.025,1.025,1.025h2.192c0.566,0,1.025-0.459,1.025-1.025
		s-0.459-1.025-1.025-1.025H220.151z"/>
	<path d="M205.834,407.96c0-0.566-0.459-1.025-1.025-1.025h-2.192c-0.566,0-1.025,0.459-1.025,1.025s0.459,1.025,1.025,1.025h2.192
		C205.374,408.986,205.834,408.527,205.834,407.96z"/>
</g>
</svg>
