<?xml version="1.0" encoding="iso-8859-1"?>
<!-- Generator: Adobe Illustrator 21.1.0, SVG Export Plug-In . SVG Version: 6.00 Build 0)  -->
<svg version="1.1" id="Layer_1" xmlns="http://www.w3.org/2000/svg" xmlns:xlink="http://www.w3.org/1999/xlink" x="0px" y="0px"
	 viewBox="184.5 374.512 45 44.977" style="enable-background:new 184.5 374.512 45 44.977;" xml:space="preserve">
<g>
	<path style="fill:#FF9356;" d="M192.249,375.519l-6.698,6.653l36.309,36.309l6.676-6.676L192.249,375.519z M193.063,382.885
		c-0.394,0.393-1.032,0.393-1.425,0c-0.394-0.394-0.394-1.032,0-1.425c0.394-0.394,1.032-0.394,1.425,0
		C193.456,381.853,193.456,382.491,193.063,382.885z M221.148,412.395c-0.394-0.394-0.394-1.032,0-1.425
		c0.394-0.394,1.032-0.394,1.425,0c0.394,0.394,0.394,1.032,0,1.425C222.179,412.789,221.541,412.789,221.148,412.395z"/>
	<polygon style="fill:#174461;" points="190.613,415.77 185.629,418.403 188.262,413.42 190.863,413.169 	"/>
	<polygon style="fill:#FFEBB4;" points="192.018,406.313 188.262,413.42 190.613,415.77 197.719,412.014 	"/>
	<path style="fill:#FF755C;" d="M227.267,376.765c1.572,1.572,1.572,4.129,0,5.701l-2.887,2.887l-4.971-0.696l-0.729-5.005
		l2.887-2.887C223.138,375.193,225.695,375.193,227.267,376.765z"/>
	<path style="fill:#FFB14E;" d="M220.817,388.916l-23.098,23.097l-4.676-1.025l24.923-27.774
		C217.967,383.215,220.816,388.915,220.817,388.916z"/>
	<polygon style="fill:#FFCE47;" points="219.392,384.64 193.043,410.989 192.018,406.313 215.117,383.216 	"/>
	<path style="fill:#174461;" d="M218.679,379.652l-3.562,3.563l5.7,5.7c0.001,0.001,3.563-3.562,3.563-3.562L218.679,379.652z"/>
	<g>
		<path style="fill:#01121C;" d="M197.967,396.057c0.197,0.197,0.455,0.295,0.713,0.295c0.258,0,0.516-0.098,0.713-0.295
			c0.394-0.394,0.394-1.032,0-1.425l-1.876-1.875l2.687-2.687c0.394-0.394,0.394-1.032,0-1.425c-0.394-0.394-1.032-0.394-1.425,0
			l-2.687,2.687l-2.36-2.36l2.687-2.687c0.394-0.394,0.394-1.032,0-1.425c-0.394-0.394-1.032-0.394-1.425,0l-2.687,2.687
			l-5.371-5.371l5.268-5.233l12.439,12.439c0.394,0.394,1.032,0.394,1.425,0c0.394-0.393,0.394-1.032,0-1.425l-13.149-13.149
			c-0.393-0.393-1.029-0.394-1.423-0.002l-6.698,6.653c-0.19,0.189-0.297,0.445-0.298,0.713s0.106,0.525,0.295,0.714
			L197.967,396.057z"/>
		<path style="fill:#01121C;" d="M229.205,411.093l-13.161-13.161c-0.394-0.394-1.032-0.394-1.425,0
			c-0.394,0.394-0.394,1.032,0,1.425l12.448,12.448l-5.25,5.25l-5.374-5.374l2.687-2.687c0.394-0.394,0.394-1.032,0-1.425
			c-0.394-0.393-1.032-0.393-1.425,0l-2.687,2.687l-2.36-2.36l2.687-2.687c0.394-0.394,0.394-1.032,0-1.425
			c-0.394-0.394-1.032-0.394-1.425,0l-2.687,2.687l-1.864-1.864c-0.394-0.393-1.032-0.393-1.425,0c-0.394,0.394-0.394,1.032,0,1.425
			l13.161,13.161c0.197,0.197,0.455,0.295,0.713,0.295c0.258,0,0.516-0.098,0.713-0.295l6.676-6.676
			C229.598,412.125,229.598,411.487,229.205,411.093z"/>
		<path style="fill:#01121C;" d="M192.307,380.157c-0.538,0-1.045,0.21-1.425,0.59c-0.381,0.381-0.59,0.887-0.59,1.425
			c0,0.538,0.21,1.045,0.59,1.425c0.381,0.381,0.887,0.59,1.425,0.59s1.045-0.21,1.425-0.59c0.786-0.786,0.786-2.064,0-2.85l0,0
			C193.351,380.366,192.845,380.157,192.307,380.157z"/>
		<path style="fill:#01121C;" d="M223.242,413.108c0.786-0.786,0.786-2.064,0-2.85c-0.786-0.786-2.064-0.786-2.85,0
			c-0.786,0.786-0.786,2.064,0,2.85c0.393,0.393,0.909,0.589,1.425,0.589C222.333,413.697,222.849,413.501,223.242,413.108z"/>
		<path style="fill:#01121C;" d="M221.491,389.635C221.492,389.634,221.492,389.634,221.491,389.635
			C221.492,389.634,221.492,389.634,221.491,389.635l3.562-3.562c0,0,0.001-0.001,0.001-0.001s0.001-0.001,0.001-0.001l2.886-2.886
			c1.965-1.965,1.965-5.161,0-7.126c-1.965-1.964-5.161-1.965-7.126,0l-2.886,2.886c0,0-0.001,0.001-0.001,0.001
			c0,0-0.001,0.001-0.001,0.001l-3.562,3.562c0,0,0,0,0,0c0,0,0,0,0,0l-23.098,23.098c-0.002,0.002-0.003,0.004-0.005,0.006
			c-0.031,0.031-0.059,0.065-0.086,0.1c-0.006,0.008-0.011,0.015-0.016,0.023c-0.023,0.033-0.044,0.066-0.064,0.101
			c-0.002,0.004-0.005,0.007-0.007,0.011l-3.754,7.103c-0.002,0.004-0.004,0.007-0.006,0.011l-2.629,4.976
			c-0.207,0.391-0.134,0.871,0.178,1.184c0.194,0.194,0.452,0.295,0.713,0.295c0.16,0,0.322-0.038,0.471-0.117l4.976-2.63
			c0.003-0.002,0.006-0.003,0.01-0.005l7.103-3.754c0.002-0.001,0.004-0.002,0.006-0.003c0.039-0.021,0.076-0.044,0.112-0.07
			c0.006-0.005,0.012-0.009,0.019-0.014c0.035-0.026,0.068-0.055,0.1-0.086c0.002-0.002,0.004-0.004,0.006-0.006L221.491,389.635z
			 M190.762,414.536l-1.298-1.298l2.122-4.015l0.436,1.987c0.001,0.005,0.003,0.01,0.004,0.015c0.009,0.037,0.02,0.074,0.033,0.111
			c0.003,0.007,0.005,0.014,0.007,0.021c0.016,0.04,0.034,0.08,0.055,0.119c0.003,0.006,0.007,0.011,0.01,0.017
			c0.018,0.032,0.038,0.062,0.06,0.092c0.006,0.009,0.012,0.017,0.019,0.025c0.026,0.033,0.053,0.066,0.084,0.097
			c0.031,0.031,0.063,0.058,0.097,0.084c0.008,0.006,0.017,0.012,0.025,0.019c0.03,0.022,0.061,0.042,0.093,0.06
			c0.006,0.003,0.011,0.007,0.017,0.01c0.039,0.021,0.078,0.039,0.119,0.055c0.007,0.003,0.013,0.005,0.02,0.007
			c0.037,0.013,0.074,0.024,0.112,0.033c0.005,0.001,0.01,0.003,0.015,0.004l1.987,0.436L190.762,414.536z M195.021,410.405
			l3.704-3.705c0.394-0.394,0.394-1.032,0-1.425c-0.394-0.394-1.032-0.394-1.425,0l-3.704,3.704l-0.513-2.338l21.996-21.996
			l1.425,1.425l-16.773,16.773c-0.394,0.394-0.394,1.032,0,1.425c0.197,0.197,0.455,0.295,0.713,0.295
			c0.258,0,0.516-0.098,0.713-0.295l16.773-16.773l1.425,1.425l-21.996,21.996L195.021,410.405z M218.642,381.083l4.275,4.275
			l-2.138,2.138l-4.275-4.275L218.642,381.083z M222.241,377.484c1.179-1.179,3.097-1.179,4.275,0c1.179,1.179,1.179,3.097,0,4.275
			l-2.174,2.174l-4.275-4.275L222.241,377.484z M188.478,415.103l0.419,0.419l-0.888,0.469L188.478,415.103z"/>
	</g>
</g>
</svg>
