<?xml version="1.0" encoding="iso-8859-1"?>
<!-- Generator: Adobe Illustrator 21.1.0, SVG Export Plug-In . SVG Version: 6.00 Build 0)  -->
<svg version="1.1" id="Layer_1" xmlns="http://www.w3.org/2000/svg" xmlns:xlink="http://www.w3.org/1999/xlink" x="0px" y="0px"
	 viewBox="184.501 378.473 45 37.052" style="enable-background:new 184.501 378.473 45 37.052;" xml:space="preserve">
<g>
	<g>
		<path style="fill:#E0B394;" d="M209.407,393.885c-0.998-0.044-1.793-0.868-1.793-1.877c0-1.037,0.841-1.878,1.878-1.878
			c0.093,0,0.185,0.006,0.275,0.02"/>
		<path style="fill:#E0B394;" d="M226.38,393.885c0.998-0.044,1.794-0.868,1.794-1.877c0-1.037-0.841-1.878-1.879-1.878
			c-0.093,0-0.186,0.007-0.275,0.02"/>
	</g>
	<path style="fill:#FC8A5E;" d="M222.638,400.928c2.526,0.492,4.434,2.718,4.434,5.388v8.498h-18.356v-8.498
		c0-2.67,1.907-4.897,4.434-5.388H222.638z"/>
	<path style="fill:#EA7653;" d="M215.484,400.928h-2.335c-2.526,0.492-4.434,2.718-4.434,5.388v8.498h2.335v-8.498
		C211.051,403.646,212.958,401.42,215.484,400.928z"/>
	<path style="fill:#E0B394;" d="M223.012,401.015c0.001,0.011,0.001,0.022,0.001,0.033c0,2.827-2.292,5.119-5.119,5.119
		c-2.827,0-5.119-2.292-5.119-5.119c0-0.011,0-0.022,0.001-0.033"/>
	<path style="fill:#F7CBA4;" d="M215.176,402.401L211.872,400c-1.746-1.269-2.691-3.367-2.484-5.516l0.573-5.932
		c0.395-4.085,3.828-7.203,7.932-7.203l0,0c4.104,0,7.538,3.117,7.932,7.203l0.573,5.932c0.208,2.149-0.737,4.247-2.484,5.516
		l-3.305,2.401C218.991,403.578,216.797,403.578,215.176,402.401z"/>
	<path style="fill:#E0B394;" d="M211.445,395.653c-0.056,0.94,0.25,1.864,0.856,2.584l3.454,4.244
		c0.18,0.215,0.385,0.395,0.606,0.539c-0.415-0.145-0.815-0.353-1.184-0.621L211.872,400c-1.746-1.269-2.691-3.367-2.483-5.516
		l0.572-5.932c0.391-4.046,3.761-7.142,7.813-7.201c-2.496,0.06-5.322,2.413-5.469,4.918L211.445,395.653z"/>
	<path style="fill:#666666;" d="M228.797,388.607c0,0-3.554-4.24-8.131-2.389c-2.283,0.923-3.864,0.852-5.046,0.335
		c-0.027-0.013-0.054-0.025-0.081-0.038c-0.026-0.011-0.051-0.023-0.076-0.035c-0.24-0.116-0.463-0.251-0.671-0.399
		c-0.002,0.007-0.006,0.015-0.009,0.022c-0.902,2.315-4.834,2.579-4.834,2.579s-1.762-2.812-0.796-4.986
		c0.766-1.724,2.797-3.548,6.254-4.23c0.903-0.179,1.904-0.279,3.005-0.279C223.724,379.188,228.797,382.73,228.797,388.607z"/>
	<path style="fill:#4D4D4D;" d="M215.406,379.466c0,0-4.123,4.322-0.624,6.636c-0.902,2.315-4.834,2.579-4.834,2.579
		s-1.762-2.812-0.796-4.986C209.918,381.973,211.949,380.148,215.406,379.466z"/>
	<g>
		<rect x="223.515" y="410.87" style="fill:#F7CBA4;" width="3.557" height="3.945"/>
		<rect x="208.716" y="410.87" style="fill:#F7CBA4;" width="3.556" height="3.945"/>
	</g>
	<g>
		<rect x="208.716" y="410.87" style="fill:#E0B394;" width="2.335" height="3.945"/>
		<path style="fill:#E0B394;" d="M186.916,395.275c-0.944-0.042-1.695-0.82-1.695-1.774c0-0.98,0.794-1.775,1.775-1.775
			c0.088,0,0.175,0.006,0.26,0.019"/>
		<path style="fill:#E0B394;" d="M204.482,395.275c0.944-0.042,1.696-0.82,1.696-1.774c0-0.98-0.795-1.775-1.776-1.775
			c-0.088,0-0.176,0.007-0.26,0.019"/>
	</g>
	<path style="fill:#F4AAB6;" d="M200.184,402.83c2.388,0.465,4.191,2.569,4.191,5.093v6.891h-17.351v-6.891
		c0-2.524,1.803-4.628,4.191-5.093H200.184z"/>
	<path style="fill:#E28B9C;" d="M193.422,402.83h-2.207c-2.388,0.465-4.191,2.569-4.191,5.093v6.891h2.207v-6.891
		C189.231,405.4,191.034,403.295,193.422,402.83z"/>
	<path style="fill:#E0B394;" d="M200.538,402.913c0.001,0.011,0.001,0.021,0.001,0.031c0,2.672-2.167,4.838-4.838,4.838
		c-2.673,0-4.838-2.167-4.838-4.838c0-0.011,0-0.021,0.001-0.031"/>
	<path style="fill:#F7CBA4;" d="M192.912,403.905l-3.246-2.358c-1.877-1.364-2.878-3.629-2.623-5.935l0.418-3.778
		c0.464-4.2,4.013-7.378,8.239-7.378l0,0c4.225,0,7.774,3.178,8.239,7.378l0.418,3.778c0.255,2.306-0.746,4.571-2.623,5.935
		l-3.246,2.358C196.825,405.113,194.574,405.113,192.912,403.905z"/>
	<path style="fill:#E0B394;" d="M195.7,384.456L195.7,384.456c-4.225,0-7.774,3.178-8.239,7.378l-0.418,3.778
		c-0.255,2.306,0.746,4.571,2.623,5.935l3.246,2.358c0.83,0.603,1.808,0.905,2.785,0.906c-0.746-0.001-1.492-0.302-2.126-0.906
		l-2.479-2.358c-1.433-1.364-2.198-3.629-2.003-5.935l0.319-3.778C189.763,387.634,192.473,384.456,195.7,384.456L195.7,384.456"/>
	<g>
		<path style="fill:#F4D8A6;" d="M200.499,385.986c-0.502,0.854-1.398,2.133-2.77,3.246c-2.131,1.728-5.408,3.054-10.131,1.762
			c0.811-3.778,4.163-6.539,8.102-6.539C197.479,384.456,199.139,385.02,200.499,385.986z"/>
		<path style="fill:#F4D8A6;" d="M203.978,392.199c-4.223,0.428-6.21-2.899-6.249-2.966c1.372-1.113,2.269-2.393,2.77-3.246
			c0.254,0.181,0.498,0.376,0.73,0.584c1.474,1.32,2.477,3.164,2.709,5.264L203.978,392.199z"/>
	</g>
	<g>
		<path style="fill:#D2B4EF;" d="M200.772,388.486l1.332,3.003c0.41,0.924,1.666,1.058,2.262,0.241l1.543-2.117
			c0.596-0.817,0.083-1.972-0.922-2.08l-3.266-0.348l-2.253-1.643l-1.332-3.003c-0.41-0.924-1.666-1.058-2.262-0.241l-1.543,2.117
			c-0.595,0.817-0.083,1.972,0.922,2.079l3.266,0.348"/>
		<circle style="fill:#D2B4EF;" cx="200.12" cy="387.014" r="1.61"/>
	</g>
	<path d="M225.052,380.407c-0.329-0.216-0.771-0.125-0.987,0.204c-0.216,0.329-0.125,0.771,0.204,0.987
		c1.937,1.272,3.188,3.091,3.629,5.23c-0.323-0.244-0.694-0.496-1.108-0.731c-2.107-1.195-4.321-1.382-6.401-0.541
		c-2.919,1.181-4.363,0.533-5.195-0.058c-0.232-0.164-0.457-0.357-0.69-0.59c-0.278-0.278-0.729-0.278-1.008,0
		c-0.278,0.278-0.278,0.729,0,1.007c0.127,0.127,0.252,0.243,0.379,0.353c-0.75,1.044-2.506,1.505-3.542,1.653
		c-0.394-0.771-1.152-2.56-0.54-3.937c1.34-3.015,5.474-4.085,8.608-4.085c1.487,0,2.977,0.3,4.308,0.867
		c0.362,0.154,0.781-0.014,0.935-0.376c0.154-0.362-0.014-0.78-0.376-0.935c-1.506-0.642-3.189-0.981-4.867-0.981
		c-5.69,0-8.85,2.547-9.91,4.932c-0.951,2.14,0.295,4.68,0.716,5.435l-0.058,0.597c-1.272,0.164-2.258,1.253-2.258,2.569
		c0,1.145,0.738,2.118,1.774,2.46c-0.211,2.371,0.85,4.708,2.778,6.109l0.151,0.11c-2.151,0.995-3.601,3.174-3.601,5.631v8.498
		c0,0.393,0.319,0.712,0.712,0.712h18.356c0.394,0,0.712-0.319,0.712-0.712v-8.498c0-1.221-0.354-2.402-1.025-3.417
		c-0.217-0.328-0.659-0.418-0.987-0.201c-0.328,0.217-0.418,0.659-0.201,0.987c0.516,0.781,0.789,1.691,0.789,2.631v3.841h-2.132
		v-2.669c0-0.393-0.319-0.712-0.712-0.712c-0.394,0-0.712,0.319-0.712,0.712v6.614h-9.818v-6.614c0-0.393-0.319-0.712-0.712-0.712
		c-0.394,0-0.712,0.319-0.712,0.712v2.669h-2.132v-3.841c0-1.871,1.091-3.532,2.715-4.311c0.106,0.639,0.317,1.258,0.627,1.826
		c0.129,0.237,0.374,0.372,0.626,0.372c0.115,0,0.232-0.028,0.34-0.087c0.346-0.188,0.473-0.621,0.285-0.966
		c-0.171-0.313-0.301-0.647-0.391-0.993l1.127,0.819c0.938,0.682,2.037,1.023,3.136,1.023c1.099,0,2.198-0.341,3.136-1.023
		l1.129-0.82c-0.493,1.895-2.218,3.298-4.265,3.298c-1.009,0-1.959-0.332-2.746-0.96c-0.308-0.245-0.756-0.195-1.001,0.113
		c-0.245,0.308-0.195,0.756,0.113,1.001c1.027,0.819,2.318,1.271,3.634,1.271c2.889,0,5.293-2.112,5.751-4.873
		c0.21,0.101,0.413,0.217,0.609,0.35c0.122,0.083,0.261,0.122,0.398,0.122c0.229,0,0.453-0.11,0.591-0.313
		c0.22-0.326,0.135-0.769-0.191-0.989c-0.278-0.188-0.568-0.351-0.869-0.49l0.151-0.109c1.928-1.401,2.989-3.738,2.778-6.109
		c1.035-0.342,1.773-1.315,1.773-2.459c0-1.315-0.986-2.404-2.258-2.568l-0.08-0.826c-0.038-0.392-0.386-0.678-0.778-0.641
		c-0.392,0.038-0.678,0.386-0.641,0.778l0.56,5.803c0.183,1.889-0.658,3.755-2.193,4.871l-3.305,2.401
		c-1.375,0.999-3.222,0.999-4.597,0l-3.305-2.401c-1.535-1.116-2.376-2.982-2.193-4.871l0.505-5.231
		c1.091-0.165,3.361-0.686,4.459-2.247c1.604,0.815,3.534,0.749,5.87-0.197c1.673-0.677,3.398-0.53,5.126,0.438
		c1.343,0.752,2.185,1.739,2.193,1.748c0.138,0.165,0.339,0.255,0.546,0.255c0.081,0,0.164-0.014,0.243-0.043
		c0.282-0.102,0.469-0.37,0.469-0.669C229.501,385.203,227.921,382.292,225.052,380.407z M224.22,411.581h2.132v2.52h-2.132V411.581
		z M211.552,411.581v2.52h-2.132v-2.52H211.552z M227.453,392.006c0,0.394-0.194,0.742-0.493,0.953l-0.195-2.015
		C227.17,391.127,227.453,391.534,227.453,392.006z M208.318,392.006c0-0.472,0.283-0.879,0.688-1.062l-0.195,2.016
		C208.512,392.748,208.318,392.4,208.318,392.006z"/>
	<path d="M213.589,393.383v0.966c0,0.393,0.319,0.712,0.712,0.712c0.394,0,0.712-0.319,0.712-0.712v-0.966
		c0-0.393-0.319-0.712-0.712-0.712C213.908,392.671,213.589,392.99,213.589,393.383z"/>
	<path d="M222.85,391.761c0.182,0,0.365-0.07,0.504-0.209c0.278-0.278,0.278-0.729,0-1.008c-0.503-0.503-1.173-0.781-1.884-0.781
		c-0.712,0-1.381,0.277-1.884,0.781c-0.278,0.278-0.278,0.729,0,1.008c0.278,0.278,0.729,0.278,1.007,0
		c0.234-0.234,0.546-0.363,0.877-0.363c0.331,0,0.643,0.129,0.877,0.363C222.486,391.692,222.668,391.761,222.85,391.761z"/>
	<path d="M215.682,391.761c0.182,0,0.365-0.07,0.504-0.209c0.278-0.278,0.278-0.729,0-1.008c-0.503-0.503-1.173-0.781-1.884-0.781
		c-0.712,0-1.381,0.277-1.884,0.781c-0.278,0.278-0.278,0.729,0,1.007c0.278,0.278,0.729,0.278,1.007,0
		c0.234-0.234,0.546-0.363,0.877-0.363c0.331,0,0.643,0.129,0.877,0.363C215.318,391.692,215.5,391.761,215.682,391.761z"/>
	<path d="M220.757,393.383v0.966c0,0.393,0.319,0.712,0.712,0.712c0.394,0,0.712-0.319,0.712-0.712v-0.966
		c0-0.393-0.319-0.712-0.712-0.712C221.076,392.671,220.757,392.99,220.757,393.383z"/>
	<path d="M217.886,400.036c0.749,0,1.499-0.285,2.069-0.856c0.278-0.278,0.278-0.729,0-1.007c-0.278-0.278-0.729-0.278-1.008,0
		c-0.585,0.585-1.538,0.585-2.123,0c-0.278-0.278-0.729-0.278-1.008,0c-0.278,0.278-0.278,0.729,0,1.007
		C216.387,399.751,217.136,400.036,217.886,400.036z"/>
	<path d="M218.49,396.592c0.394,0,0.712-0.319,0.712-0.712v-2.415c0-0.393-0.319-0.712-0.712-0.712
		c-0.394,0-0.712,0.319-0.712,0.712v1.703h-0.495c-0.394,0-0.712,0.319-0.712,0.712s0.319,0.712,0.712,0.712H218.49z"/>
	<path d="M199.079,394.197c-0.683,0-1.326,0.266-1.809,0.749c-0.278,0.278-0.278,0.729,0,1.007c0.278,0.278,0.729,0.278,1.007,0
		c0.214-0.214,0.499-0.332,0.801-0.332s0.587,0.118,0.801,0.332c0.139,0.139,0.321,0.209,0.504,0.209s0.365-0.07,0.504-0.209
		c0.278-0.278,0.278-0.729,0-1.007C200.405,394.463,199.762,394.197,199.079,394.197z"/>
	<path d="M194.112,395.954c0.278-0.278,0.278-0.729,0-1.007c-0.483-0.483-1.125-0.749-1.809-0.749c-0.683,0-1.326,0.266-1.809,0.749
		c-0.278,0.278-0.278,0.729,0,1.007c0.278,0.278,0.729,0.278,1.007,0c0.214-0.214,0.499-0.332,0.801-0.332s0.587,0.118,0.801,0.332
		c0.139,0.139,0.321,0.209,0.504,0.209S193.973,396.093,194.112,395.954z"/>
	<path d="M196.668,399.62c-0.538,0.538-1.414,0.538-1.952,0c-0.278-0.278-0.729-0.278-1.007,0c-0.278,0.278-0.278,0.729,0,1.007
		c0.53,0.53,1.234,0.822,1.984,0.822c0.749,0,1.454-0.292,1.984-0.822c0.278-0.278,0.278-0.729,0-1.007
		C197.397,399.342,196.946,399.342,196.668,399.62z"/>
	<path d="M195.21,397.937h0.964c0.393,0,0.712-0.319,0.712-0.712c0-0.393-0.319-0.712-0.712-0.712h-0.964
		c-0.393,0-0.712,0.319-0.712,0.712C194.497,397.618,194.816,397.937,195.21,397.937z"/>
	<path d="M205.552,391.299l0.924-1.268c0.431-0.592,0.512-1.345,0.215-2.014c-0.297-0.67-0.909-1.116-1.637-1.193
		c-0.39-0.042-0.742,0.242-0.784,0.633c-0.042,0.391,0.242,0.742,0.633,0.784c0.311,0.033,0.443,0.259,0.486,0.354
		s0.121,0.345-0.064,0.598l-1.543,2.117c-0.184,0.253-0.445,0.254-0.549,0.244c-0.104-0.011-0.359-0.068-0.486-0.354l-1.089-2.455
		c0.243-0.218,0.44-0.486,0.575-0.788l0.726,0.077c0.026,0.003,0.051,0.004,0.076,0.004c0.36,0,0.669-0.271,0.707-0.637
		c0.042-0.391-0.242-0.742-0.633-0.784l-0.725-0.077c-0.219-1.054-1.155-1.849-2.274-1.849c-0.083,0-0.164,0.004-0.244,0.013
		l-1.089-2.454c-0.297-0.669-0.909-1.115-1.637-1.193c-0.728-0.078-1.42,0.229-1.852,0.821l-1.543,2.117
		c-0.431,0.592-0.512,1.345-0.215,2.014c0.297,0.669,0.909,1.116,1.637,1.193l2.668,0.284c0.038,0.184,0.099,0.361,0.178,0.527
		c-1.809,1.773-4.875,3.51-9.552,2.462c0.659-2.098,2.211-3.838,4.28-4.713c0.362-0.153,0.532-0.571,0.379-0.934
		c-0.153-0.362-0.571-0.532-0.934-0.379c-2.769,1.171-4.758,3.646-5.329,6.565c-1.312,0.068-2.358,1.156-2.358,2.484
		c0,1.134,0.753,2.092,1.797,2.391c-0.145,2.43,0.961,4.791,2.942,6.231l0.563,0.409c-2.087,0.931-3.499,3.026-3.499,5.392v1.545
		c0,0.393,0.319,0.712,0.712,0.712s0.712-0.319,0.712-0.712v-1.545c0-1.735,1.001-3.279,2.498-4.018
		c0.457,2.603,2.733,4.588,5.466,4.588c2.236,0,4.243-1.331,5.114-3.39c0.153-0.362-0.016-0.78-0.379-0.934
		c-0.362-0.153-0.78,0.016-0.934,0.379c-0.648,1.531-2.14,2.52-3.802,2.52c-1.947,0-3.582-1.355-4.013-3.175l0.807,0.586
		c0.959,0.697,2.082,1.045,3.206,1.045s2.247-0.348,3.206-1.045l1.271-0.924c2.027,0.457,3.486,2.272,3.486,4.366v6.179h-1.937
		v-5.071c0-0.393-0.319-0.712-0.712-0.712s-0.712,0.319-0.712,0.712v5.071h-9.203v-5.071c0-0.393-0.319-0.712-0.712-0.712
		s-0.712,0.319-0.712,0.712v5.071h-1.937v-2.029c0-0.393-0.319-0.712-0.712-0.712c-0.393,0-0.712,0.319-0.712,0.712v2.741
		c0,0.393,0.319,0.712,0.712,0.712h17.351c0.393,0,0.712-0.319,0.712-0.712v-6.891c0-2.365-1.412-4.461-3.499-5.392l0.563-0.409
		c1.982-1.44,3.087-3.801,2.942-6.231c1.043-0.299,1.796-1.257,1.796-2.391C206.882,392.546,206.342,391.716,205.552,391.299z
		 M186.451,394.417c-0.315-0.185-0.525-0.527-0.525-0.918c0-0.473,0.31-0.874,0.738-1.012L186.451,394.417z M200.111,386.115
		c0.495,0,0.898,0.403,0.898,0.898c0,0.495-0.403,0.898-0.898,0.898s-0.898-0.403-0.898-0.898
		C199.214,386.517,199.616,386.115,200.111,386.115z M197.99,386.069l-2.67-0.284c-0.311-0.033-0.443-0.259-0.486-0.354
		c-0.042-0.095-0.121-0.344,0.064-0.598l1.543-2.117c0.184-0.253,0.446-0.255,0.549-0.244c0.104,0.011,0.359,0.068,0.486,0.354
		l1.089,2.455C198.322,385.499,198.125,385.767,197.99,386.069z M201.306,400.968l-3.246,2.358c-1.417,1.029-3.32,1.029-4.737,0
		l-3.246-2.358c-1.666-1.21-2.56-3.233-2.334-5.28l0.418-3.778c0.002-0.014,0.004-0.028,0.005-0.041
		c1.097,0.246,2.117,0.357,3.063,0.357c2.685,0,4.774-0.877,6.342-1.988c0.411,0.501,1.097,1.201,2.078,1.765
		c0.37,0.213,0.844,0.061,1.014-0.331c0.145-0.334,0.013-0.722-0.303-0.904c-0.793-0.457-1.351-1.028-1.678-1.424
		c0.108-0.098,0.212-0.196,0.312-0.295c0.332,0.183,0.712,0.287,1.117,0.287c0.083,0,0.164-0.005,0.245-0.013l1.088,2.454
		c0.297,0.669,0.909,1.115,1.637,1.193c0.075,0.008,0.149,0.012,0.222,0.012c0.012,0,0.025-0.001,0.037-0.001l0.299,2.709
		C203.866,397.735,202.972,399.758,201.306,400.968z M204.933,394.417l-0.213-1.929c0.427,0.138,0.737,0.539,0.737,1.011
		C205.457,393.89,205.248,394.232,204.933,394.417z"/>
</g>
</svg>
