<?xml version="1.0" encoding="iso-8859-1"?>
<!-- Generator: Adobe Illustrator 21.1.0, SVG Export Plug-In . SVG Version: 6.00 Build 0)  -->
<svg version="1.1" id="Layer_1" xmlns="http://www.w3.org/2000/svg" xmlns:xlink="http://www.w3.org/1999/xlink" x="0px" y="0px"
	 viewBox="184.501 375.461 45 43.077" style="enable-background:new 184.501 375.461 45 43.077;" xml:space="preserve">
<g>
	<path style="fill:#F89890;" d="M186.375,399.636v2.872c0,0,24.784,0,26.37,0c1.586,0,2.872-1.286,2.872-2.872l-14.621-0.957
		L186.375,399.636z"/>
	<path style="fill:#FFC5BF;" d="M212.745,396.764c-1.586,0-26.37,0-26.37,0v2.872h29.243
		C215.617,398.05,214.331,396.764,212.745,396.764z"/>
	<circle style="fill:#F89890;" cx="217.054" cy="399.636" r="1.436"/>
	<polygon style="fill:#4D2564;" points="195.99,379.53 195.99,383.36 215.139,392.477 218.011,391.977 218.011,379.53 	"/>
	<polygon style="fill:#9E52B6;" points="195.99,383.36 195.99,391.977 207,393.892 215.139,392.477 215.139,383.36 	"/>
	<polygon style="fill:#4D2564;" points="225.91,377.137 223.995,378.812 225.91,380.488 228.782,380.488 228.782,377.137 	"/>
	<rect x="185.219" y="377.137" style="fill:#763C8D;" width="40.691" height="3.351"/>
	<circle cx="202.453" cy="385.514" r="0.718"/>
	<circle cx="199.58" cy="388.386" r="0.718"/>
	<polygon style="fill:#4D2564;" points="193.83,412.079 190.959,414.95 185.219,412.079 	"/>
	<polygon style="fill:#763C8D;" points="190.959,409.209 193.83,411.362 190.959,413.514 185.219,412.079 	"/>
	<polygon style="fill:#FFC5BF;" points="199.57,413.514 196.7,417.82 190.959,414.95 190.959,413.514 	"/>
	<polygon style="fill:#FFD8D4;" points="196.7,406.339 202.77,412.079 196.7,414.95 190.959,413.514 190.959,409.209 	"/>
	<polygon style="fill:#8A9D29;" points="221.13,413.036 218.259,417.82 196.7,417.82 196.7,414.95 	"/>
	<path style="fill:#D6BAED;" d="M220.173,412.079l1.914,5.741h3.826c1.579,0,2.87-1.292,2.87-2.87v-2.87H220.173z"/>
	<polygon style="fill:#C4CE94;" points="196.7,406.339 196.7,412.079 199.571,413.801 221.13,413.801 218.259,406.339 	"/>
	<rect x="196.7" y="412.079" style="fill:#A7B65F;" width="22.514" height="2.87"/>
	<path style="fill:#E4D1F3;" d="M228.782,409.209v2.87c0,1.579-1.292,2.87-2.87,2.87h-5.739l1.914-8.611h3.826
		C227.491,406.339,228.782,407.63,228.782,409.209z"/>
	<rect x="218.259" y="414.95" style="fill:#EAEAEA;" width="3.827" height="2.87"/>
	<rect x="218.259" y="406.338" style="fill:#FFFFFF;" width="3.827" height="8.611"/>
	<path d="M212.745,401.791h-26.37c-0.397,0-0.718,0.322-0.718,0.718s0.321,0.718,0.718,0.718h26.37c1.328,0,2.49-0.726,3.111-1.801
		c0.343,0.23,0.755,0.365,1.198,0.365c0.936,0,1.734-0.6,2.031-1.436h1.081c3.564,0,6.463-2.899,6.463-6.463
		c0-0.397-0.321-0.718-0.718-0.718s-0.718,0.322-0.718,0.718c0,2.772-2.255,5.027-5.027,5.027h-1.081
		c-0.296-0.836-1.095-1.436-2.031-1.436c-0.443,0-0.855,0.135-1.198,0.365c-0.621-1.075-1.782-1.801-3.111-1.801h-26.37
		c-0.397,0-0.718,0.322-0.718,0.718s0.321,0.718,0.718,0.718h26.37c0.936,0,1.734,0.6,2.031,1.436h-28.401
		c-0.397,0-0.718,0.322-0.718,0.718c0,0.397,0.321,0.718,0.718,0.718h28.401C214.479,401.19,213.681,401.791,212.745,401.791z
		 M217.054,398.918c0.396,0,0.718,0.322,0.718,0.718s-0.322,0.718-0.718,0.718s-0.718-0.322-0.718-0.718
		S216.658,398.918,217.054,398.918z"/>
	<path d="M185.219,381.206h32.074v10.167L207,393.163l-10.293-1.79v-8.013c0-0.397-0.321-0.718-0.718-0.718
		s-0.718,0.322-0.718,0.718v8.617c0,0.349,0.251,0.648,0.595,0.707l11.011,1.915c0.041,0.007,0.082,0.011,0.123,0.011
		s0.082-0.004,0.123-0.011l11.011-1.915c0.344-0.06,0.595-0.358,0.595-0.707v-10.771h6.463v9.814c0,0.397,0.321,0.718,0.718,0.718
		s0.718-0.322,0.718-0.718v-9.814h2.154c0.397,0,0.718-0.322,0.718-0.718v-3.351c0-0.397-0.321-0.718-0.718-0.718h-2.154v-0.239
		c0-0.397-0.321-0.718-0.718-0.718s-0.718,0.322-0.718,0.718v0.239h-39.973c-0.397,0-0.718,0.322-0.718,0.718v3.351
		C184.501,380.884,184.822,381.206,185.219,381.206z M228.064,377.855v1.915h-1.436v-1.915H228.064z M185.937,377.855h39.255v1.915
		h-39.255V377.855z"/>
	<path d="M225.912,405.62H196.7c-0.027,0-0.053,0.002-0.079,0.005c-0.007,0.001-0.013,0.002-0.019,0.003
		c-0.02,0.003-0.04,0.006-0.059,0.01c-0.007,0.002-0.014,0.004-0.022,0.006c-0.019,0.005-0.037,0.01-0.055,0.016
		c-0.007,0.002-0.014,0.005-0.022,0.008c-0.018,0.007-0.036,0.014-0.053,0.023c-0.004,0.002-0.009,0.003-0.013,0.005l-11.481,5.741
		c-0.243,0.122-0.397,0.37-0.397,0.642s0.154,0.521,0.397,0.642l11.481,5.741c0.004,0.002,0.009,0.003,0.013,0.005
		c0.017,0.008,0.035,0.016,0.053,0.023c0.007,0.003,0.014,0.005,0.022,0.008c0.018,0.006,0.036,0.012,0.055,0.016
		c0.007,0.002,0.014,0.004,0.022,0.006c0.019,0.004,0.039,0.008,0.059,0.01c0.007,0.001,0.013,0.002,0.019,0.003
		c0.026,0.003,0.052,0.005,0.079,0.005h29.212c1.979,0,3.588-1.61,3.588-3.588v-5.741C229.5,407.23,227.891,405.62,225.912,405.62z
		 M195.982,416.658l-4.304-2.152v-4.853l4.304-2.152V416.658z M197.418,407.057h20.123v4.304H199.57
		c-0.397,0-0.718,0.322-0.718,0.718s0.321,0.718,0.718,0.718h17.971v2.152c0,0.397,0.321,0.718,0.718,0.718
		c0.397,0,0.718-0.322,0.718-0.718v-7.893h2.391v10.045h-23.95V407.057z M190.241,410.371v3.417l-3.417-1.708L190.241,410.371z
		 M228.064,414.95c0,1.187-0.965,2.152-2.152,2.152h-3.108v-10.045h3.108c1.187,0,2.152,0.965,2.152,2.152V414.95L228.064,414.95z"
		/>
</g>
</svg>
