<?xml version="1.0" encoding="iso-8859-1"?>
<!-- Generator: Adobe Illustrator 21.1.0, SVG Export Plug-In . SVG Version: 6.00 Build 0)  -->
<svg version="1.1" id="Layer_1" xmlns="http://www.w3.org/2000/svg" xmlns:xlink="http://www.w3.org/1999/xlink" x="0px" y="0px"
	 viewBox="171.999 364.929 70 64.143" style="enable-background:new 171.999 364.929 70 64.143;" xml:space="preserve">
<g>
	<path style="fill:#D59F63;" d="M224.572,370.641L224.572,370.641L224.572,370.641L224.572,370.641L224.572,370.641
		c7.117,0,12.887,5.77,12.887,12.887l0,0c0,8.201,1.172,16.402,1.172,16.402s-5.858,3.515-14.059,4.686
		c-8.201-1.172-14.059-4.686-14.059-4.686s1.172-8.201,1.172-16.402l0,0C211.685,376.41,217.455,370.641,224.572,370.641
		L224.572,370.641L224.572,370.641L224.572,370.641L224.572,370.641z"/>
	<path style="fill:#CD915A;" d="M219.886,382.356v-3.515c0-3.983,2.84-7.299,6.604-8.043c-0.627-0.094-1.264-0.158-1.918-0.158h0
		c-7.117,0-12.887,5.77-12.887,12.887c0,8.201-1.172,16.402-1.172,16.402s5.858,3.515,14.059,4.686v-17.573L219.886,382.356z"/>
	<path style="fill:#FAD7A5;" d="M238.764,408.418l-8.033-3.213c-0.89-0.356-1.473-1.217-1.473-2.175v-4.271h-9.372v4.271
		c0,0.958-0.583,1.82-1.473,2.175l-8.033,3.213c-1.334,0.534-2.209,1.826-2.209,3.263v4.65c0,0.647,0.524,1.172,1.172,1.172l0,0
		v10.544h30.46v-10.544l0,0c0.647,0,1.172,0,1.172,0v-5.821C240.974,410.244,240.099,408.952,238.764,408.418z"/>
	<g>
		<path style="fill:#F0C891;" d="M224.572,404.615c1.691,0,3.305-0.314,4.806-0.861c-0.075-0.231-0.12-0.474-0.12-0.725v-4.271
			h-9.372v4.271c0,0.252-0.045,0.494-0.12,0.725C221.267,404.302,222.881,404.615,224.572,404.615z"/>
		<path style="fill:#F0C891;" d="M209.342,416.331v3.515h1.172c0.647,0,1.172,0.524,1.172,1.172v7.029h3.515v-11.716H209.342z"/>
	</g>
	<path style="fill:#FFE1B4;" d="M224.572,401.101L224.572,401.101c-5.823,0-9.372-4.721-9.372-10.544v-4.686
		c3.371,0,3.751-2.424,4.357-3.785c0.183-0.411,0.693-0.544,1.052-0.273c4.963,3.745,14.507,0.943,14.507,8.745l0,0
		C235.116,396.38,230.395,401.101,224.572,401.101z"/>
	<path style="fill:#FAD098;" d="M219.886,390.557v-8.797c-0.137,0.069-0.26,0.17-0.329,0.325c-0.606,1.361-0.987,3.785-4.357,3.785
		v4.313c0,4.843,1.948,9.265,6.619,10.543c2.013,0.551,3.935,0.458,5.682-0.047C223.104,399.41,219.886,395.363,219.886,390.557z"/>
	<path style="fill:none;stroke:#464646;stroke-width:16;stroke-linecap:round;stroke-linejoin:round;stroke-miterlimit:10;" d="
		M211.685,383.528"/>
	<path style="fill:#FF507D;" d="M238.764,408.418l-4.997-1.999c-0.841,4.313-4.636,7.569-9.195,7.569s-8.354-3.256-9.195-7.569
		l-4.997,1.999c-1.334,0.534-2.209,1.826-2.209,3.263v16.365h26.945v-10.544h5.858v-5.821
		C240.974,410.244,240.099,408.952,238.764,408.418z"/>
	<g>
		<path style="fill:#D23C69;" d="M235.116,415.159l5.325-5.325c0.337,0.544,0.533,1.178,0.533,1.847v5.821h-5.858L235.116,415.159
			L235.116,415.159z"/>
		<path style="fill:#D23C69;" d="M233.767,406.419c-0.841,4.313-4.636,7.569-9.195,7.569s-8.354-3.256-9.195-7.569l-3.295,1.318
			c1.398,5.606,6.452,9.765,12.49,9.765c6.039,0,11.093-4.159,12.49-9.765L233.767,406.419z"/>
	</g>
	<rect x="174.196" y="415.159" style="fill:#B48764;" width="7.029" height="12.887"/>
	<path style="fill:#00AAF0;" d="M205.58,400.394l-10.297-2.808h-9.372l-10.297,2.808c-1.529,0.417-2.59,1.806-2.59,3.391v11.374
		h7.029v12.887h28.117v-24.261C208.17,402.2,207.109,400.811,205.58,400.394z"/>
	<path style="fill:#0096DC;" d="M201.013,399.149l-5.729-1.563h-9.372l-5.729,1.563c0.757,5.08,5.125,8.981,10.415,8.981
		S200.256,404.229,201.013,399.149z"/>
	<path style="fill:#B48764;" d="M184.739,393.486v4.1c0,3.235,2.623,5.858,5.858,5.858c3.235,0,5.858-2.623,5.858-5.858v-4.1
		H184.739z"/>
	<path style="fill:#966D50;" d="M184.739,397.467c1.785,0.82,3.764,1.29,5.858,1.29c2.093,0,4.073-0.47,5.858-1.29v-3.981h-11.715
		V397.467z"/>
	<path style="fill:#C39772;" d="M201.141,380.013v-7.029h-21.088v7.029c-1.294,0-2.343,1.049-2.343,2.343s1.049,2.343,2.343,2.343
		c0,5.823,4.721,10.544,10.544,10.544c5.823,0,10.544-4.721,10.544-10.544c1.294,0,2.343-1.049,2.343-2.343
		C203.484,381.062,202.435,380.013,201.141,380.013z"/>
	<path style="fill:#B48764;" d="M185.911,384.699v-11.716h-5.858v7.029c-1.294,0-2.343,1.049-2.343,2.343s1.049,2.343,2.343,2.343
		c0,5.823,4.721,10.544,10.544,10.544c1.017,0,1.998-0.152,2.929-0.421C189.129,393.552,185.911,389.505,185.911,384.699z"/>
	<path style="fill:#64463C;" d="M199.72,380.505c0.395-0.304,0.884-0.492,1.421-0.492c0.429,0,0.826,0.124,1.172,0.325v-7.354
		c0-1.753-0.974-3.263-2.399-4.066c-0.266-1.677-1.707-2.963-3.459-2.963h-9.372c-4.529,0-8.201,3.672-8.201,8.201v6.183
		c0.346-0.201,0.743-0.325,1.172-0.325c0.151,0,0.298,0.015,0.44,0.043c1.141,0.225,2.283-0.406,2.569-1.533l0,0l0.288-1.152
		c0.127-0.509,0.574-0.873,1.099-0.887c2.441-0.066,9.363-0.42,13.178-2.328l0.682,4.093
		C198.465,379.188,198.994,379.978,199.72,380.505z"/>
	<path style="fill:#553732;" d="M185.911,372.984c0-3.882,3.147-7.029,7.029-7.029h-5.858c-4.529,0-8.201,3.672-8.201,8.201v6.183
		c0.346-0.201,0.743-0.325,1.172-0.325c0.365,0,0.707,0.086,1.014,0.239c0.756,0.377,1.578-0.063,1.783-0.882l0.5-2
		c0.127-0.509,0.574-0.872,1.099-0.887c0.385-0.01,0.885-0.029,1.462-0.058L185.911,372.984L185.911,372.984z"/>
	<path style="fill:#0096DC;" d="M173.024,403.785v11.374h7.029v-3.848c0-1.303-0.434-2.568-1.234-3.596l-4.882-6.277
		C173.37,402.068,173.024,402.892,173.024,403.785z"/>
	<path style="fill:#E6AF78;" d="M216.311,421.388l-3.825-1.275c-0.478-0.159-0.801-0.607-0.801-1.111v-2.67h-7.029v2.67
		c0,0.504-0.323,0.952-0.801,1.111l-3.825,1.275c-1.435,0.478-2.403,1.822-2.403,3.334v3.324h21.088v-3.324
		C218.714,423.209,217.746,421.866,216.311,421.388z"/>
	<path style="fill:#D29B6E;" d="M208.17,421.017c1.565,0,3.056-0.313,4.421-0.87l-0.105-0.035c-0.479-0.159-0.801-0.607-0.801-1.111
		v-2.67h-7.029v2.67c0,0.504-0.323,0.952-0.801,1.111l-0.105,0.035C205.114,420.704,206.605,421.017,208.17,421.017z"/>
	<path style="fill:#64463C;" d="M208.17,391.729L208.17,391.729c-5.823,0-10.544,4.721-10.544,10.544v3.515h21.088v-3.515
		C218.714,396.449,213.994,391.729,208.17,391.729z"/>
	<path style="fill:#553732;" d="M211.685,392.341c-1.101-0.39-2.28-0.613-3.515-0.613c-5.823,0-10.544,4.721-10.544,10.544v3.515
		h7.029v-3.515C204.656,397.683,207.593,393.79,211.685,392.341z"/>
	<path style="fill:#F0C087;" d="M217.495,403.444h-0.081c-1.223,0-2.214-0.991-2.214-2.214l0,0c0-0.629-0.623-1.067-1.215-0.857
		c-8.661,3.071-14.015,3.071-14.015,3.071h-1.123c-1.172,0-2.204,0.842-2.367,2.003c-0.204,1.445,0.913,2.684,2.319,2.684h1.172
		v1.049c0,4.406,3.428,8.121,7.83,8.315c4.698,0.207,8.572-3.54,8.572-8.193v-1.172h1.172c1.406,0,2.523-1.238,2.319-2.684
		C219.698,404.286,218.667,403.444,217.495,403.444z"/>
	<polygon style="fill:#FFDC64;" points="215.2,389.385 208.17,392.398 201.141,389.385 201.141,396.415 208.17,393.402 
		215.2,396.415 	"/>
	<path style="fill:#E6AF78;" d="M204.656,409.302v-6.347c-2.77,0.483-4.686,0.49-4.686,0.49h-1.172
		c-1.294,0-2.343,1.049-2.343,2.343c0,1.294,1.049,2.343,2.343,2.343h1.172v0.828c0,4.49,3.46,8.406,7.949,8.541
		c0.905,0.027,1.776-0.096,2.595-0.34C207.127,416.15,204.656,413.016,204.656,409.302z"/>
	<path style="fill:#FFDC64;" d="M216.311,421.388l-1.911-0.637c-1.173,2.246-3.521,3.781-6.23,3.781s-5.057-1.535-6.23-3.781
		l-1.911,0.637c-1.435,0.478-2.403,1.822-2.403,3.334v3.324h21.088v-3.324C218.714,423.209,217.746,421.866,216.311,421.388z"/>
	<path d="M190.597,390.411c1.196,0,2.34-0.565,3.139-1.551c0.357-0.44,0.289-1.086-0.151-1.442c-0.44-0.357-1.085-0.289-1.442,0.151
		c-0.414,0.511-0.963,0.792-1.547,0.792c-0.583,0-1.132-0.281-1.547-0.792c-0.357-0.44-1.003-0.507-1.442-0.151
		c-0.44,0.357-0.507,1.002-0.151,1.442C188.257,389.845,189.401,390.411,190.597,390.411z"/>
	<path d="M185.911,384.553c0.566,0,1.025-0.459,1.025-1.025v-1.172c0-0.566-0.459-1.025-1.025-1.025
		c-0.566,0-1.025,0.459-1.025,1.025v1.172C184.886,384.094,185.345,384.553,185.911,384.553z"/>
	<path d="M195.283,384.553c0.566,0,1.025-0.459,1.025-1.025v-1.172c0-0.566-0.459-1.025-1.025-1.025
		c-0.566,0-1.025,0.459-1.025,1.025v1.172C194.258,384.094,194.717,384.553,195.283,384.553z"/>
	<path d="M224.572,396.268c1.196,0,2.34-0.565,3.139-1.551c0.357-0.44,0.289-1.086-0.15-1.442c-0.44-0.357-1.086-0.289-1.442,0.151
		c-0.414,0.511-0.964,0.792-1.547,0.792c-0.583,0-1.132-0.281-1.547-0.792c-0.357-0.44-1.002-0.507-1.442-0.151
		c-0.44,0.357-0.507,1.002-0.15,1.442C222.232,395.703,223.376,396.268,224.572,396.268z"/>
	<path d="M219.886,390.411c0.566,0,1.025-0.459,1.025-1.025v-1.172c0-0.566-0.459-1.025-1.025-1.025
		c-0.566,0-1.025,0.459-1.025,1.025v1.172C218.86,389.952,219.319,390.411,219.886,390.411z"/>
	<path d="M229.258,390.411c0.566,0,1.025-0.459,1.025-1.025v-1.172c0-0.566-0.459-1.025-1.025-1.025
		c-0.566,0-1.025,0.459-1.025,1.025v1.172C228.233,389.952,228.692,390.411,229.258,390.411z"/>
	<path d="M239.145,407.466l-8.033-3.213c-0.043-0.017-0.084-0.04-0.124-0.061c5.548-1.262,8.176-3.374,8.293-3.469
		c0.277-0.227,0.416-0.583,0.365-0.938c-0.012-0.081-1.161-8.222-1.161-16.257c0-7.671-6.241-13.912-13.912-13.912
		c-7.671,0-13.912,6.241-13.912,13.912c0,2.102-0.095,4.673-0.251,7.107l-2.239,1.119l-6.571-3.285
		c-0.019-0.009-0.039-0.016-0.058-0.024c0.313-0.911,0.517-1.872,0.592-2.868c1.374-0.425,2.376-1.707,2.376-3.219
		c0-1.018-0.455-1.932-1.172-2.55v-6.822c0-1.885-0.952-3.648-2.514-4.708c-0.529-1.966-2.296-3.347-4.369-3.347h-9.372
		c-5.087,0-9.226,4.139-9.226,9.226v5.651c-0.717,0.618-1.172,1.532-1.172,2.55c0,1.512,1.001,2.795,2.376,3.219
		c0.259,3.442,2.033,6.467,4.653,8.414v2.834l-8.48,2.544c-1.935,0.581-3.235,2.328-3.235,4.348v11.444
		c0,0.566,0.459,1.025,1.025,1.025h0.146v11.862c0,0.566,0.459,1.025,1.025,1.025c0.566,0,1.025-0.459,1.025-1.025v-11.862h3.807
		v11.862c0,0.566,0.459,1.025,1.025,1.025c0.566,0,1.025-0.459,1.025-1.025v-17.681c0-0.899-0.264-1.77-0.762-2.518l-1.753-2.629
		c-0.314-0.471-0.951-0.598-1.422-0.285c-0.471,0.314-0.599,0.951-0.284,1.422l1.753,2.629c0.273,0.41,0.418,0.888,0.418,1.381
		v3.768h-4.832h-0.146v-10.418c0-1.108,0.713-2.066,1.774-2.384l3.52-1.056c1.226,5.133,5.881,8.88,11.254,8.88
		c1.93,0,3.804-0.476,5.483-1.382c0.613,0.837,1.603,1.382,2.718,1.382h0.146v0.146c0,3.438,1.891,6.44,4.686,8.027v1.673
		c0,0.063-0.04,0.119-0.1,0.139l-3.825,1.275c-1.857,0.619-3.104,2.35-3.104,4.307v3.324c0,0.566,0.459,1.025,1.025,1.025
		c0.566,0,1.025-0.459,1.025-1.025v-3.324c0-1.073,0.684-2.022,1.702-2.361l1.125-0.375c1.488,2.219,3.991,3.572,6.692,3.572
		c2.704,0,5.204-1.352,6.692-3.572l1.125,0.375c1.018,0.339,1.702,1.288,1.702,2.361v3.324c0,0.566,0.459,1.025,1.025,1.025
		c0.566,0,1.025-0.459,1.025-1.025v-3.324c0-1.957-1.248-3.688-3.104-4.307l-3.825-1.275c-0.06-0.02-0.1-0.076-0.1-0.139v-1.672
		c2.093-1.188,3.677-3.17,4.341-5.535c1.938,2.028,4.644,3.219,7.52,3.219c4.541,0,8.525-2.935,9.897-7.209l3.914,1.566
		c0.951,0.38,1.565,1.287,1.565,2.311v4.796h-0.146h-3.661v-1.318c0-0.566-0.459-1.025-1.025-1.025
		c-0.566,0-1.025,0.459-1.025,1.025v12.887c0,0.566,0.459,1.025,1.025,1.025c0.566,0,1.025-0.459,1.025-1.025v-9.519h2.635v9.519
		c0,0.566,0.459,1.025,1.025,1.025c0.566,0,1.025-0.459,1.025-1.025v-9.519h0.146c0.272,0,0.533-0.108,0.725-0.3
		c0.192-0.192,0.3-0.453,0.3-0.725v-5.821C241.999,409.814,240.879,408.159,239.145,407.466z M212.71,383.528
		c0-6.541,5.321-11.862,11.862-11.862s11.862,5.321,11.862,11.862c0,6.886,0.829,13.846,1.099,15.925
		c-0.919,0.601-3.272,1.925-7.249,2.795v-1.632c0.545-0.309,1.066-0.661,1.556-1.057c2.018-1.631,3.444-3.915,4.014-6.432
		c0.19-0.839,0.287-1.703,0.287-2.57c0-5.796-4.191-6.628-8.245-7.432c-2.579-0.512-5.246-1.042-7.37-2.741
		c-0.308-0.246-0.729-0.294-1.085-0.123c-0.355,0.171-0.581,0.53-0.581,0.924c0,0.027-0.045,2.725-3.909,3.691
		c-0.549,0.137-0.883,0.694-0.746,1.244c0.137,0.549,0.694,0.883,1.243,0.746c3.235-0.809,4.554-2.623,5.093-3.987
		c2.224,1.318,4.715,1.812,6.956,2.257c4.333,0.86,6.593,1.492,6.593,5.421c0,0.715-0.079,1.427-0.236,2.116
		c-0.47,2.069-1.643,3.948-3.304,5.29c-1.709,1.381-3.776,2.112-5.979,2.112c-2.008,0-3.918-0.616-5.54-1.779
		c-0.594-1.621-1.548-3.105-2.807-4.327v-4.584c0-0.355-0.184-0.686-0.486-0.872c-0.302-0.187-0.68-0.204-0.998-0.045l-2.214,1.107
		C212.649,387.44,212.71,385.41,212.71,383.528z M214.174,391.044v3.711l-3.711-1.855L214.174,391.044z M202.166,391.044
		l3.711,1.856l-3.711,1.855V391.044z M200.116,393.969c-1.148,1.115-2.043,2.447-2.643,3.902c0.004-0.095,0.007-0.19,0.007-0.285
		v-3.597c1.02-0.758,1.912-1.678,2.635-2.725V393.969z M181.079,384.699c0-0.566-0.459-1.025-1.025-1.025
		c-0.727,0-1.318-0.591-1.318-1.318s0.591-1.318,1.318-1.318h2.343c0.441,0,0.833-0.282,0.973-0.701l0.941-2.824
		c2.356-0.053,9.661-0.384,13.775-2.441c0.507-0.253,0.712-0.869,0.459-1.376c-0.253-0.507-0.869-0.712-1.376-0.459
		c-4.413,2.207-13.509,2.235-13.6,2.235c-0.441,0-0.833,0.282-0.973,0.701l-0.938,2.813h-1.604c-0.049,0-0.098,0.002-0.146,0.004
		v-4.836c0-3.957,3.219-7.175,7.175-7.175h9.372c1.224,0,2.253,0.883,2.446,2.098c0.049,0.309,0.237,0.579,0.509,0.732
		c1.158,0.653,1.877,1.869,1.877,3.173v6.008c-0.049-0.002-0.097-0.004-0.146-0.004h-1.172c-0.566,0-1.025,0.459-1.025,1.025
		s0.459,1.025,1.025,1.025h1.172c0.727,0,1.318,0.591,1.318,1.318c0,0.727-0.591,1.318-1.318,1.318
		c-0.566,0-1.025,0.459-1.025,1.025c0,5.249-4.27,9.519-9.519,9.519C185.349,394.218,181.079,389.948,181.079,384.699z
		 M190.597,396.268c1.724,0,3.361-0.38,4.832-1.059v2.377c0,2.665-2.168,4.832-4.832,4.832c-2.66,0-4.825-2.161-4.832-4.819
		c0-0.005,0-0.01,0-0.015v-2.375C187.236,395.889,188.873,396.268,190.597,396.268z M181.312,399.685l2.533-0.76
		c0.625,3.157,3.414,5.544,6.751,5.544c2.65,0,4.953-1.506,6.103-3.707c-0.066,0.498-0.1,1.002-0.1,1.51v0.974
		c-0.734,0.634-1.172,1.562-1.172,2.541c-1.46,0.863-3.12,1.318-4.832,1.318C186.137,407.105,182.278,403.966,181.312,399.685z
		 M212.162,421.085l0.654,0.218c-1.129,1.379-2.825,2.203-4.646,2.203c-1.819,0-3.516-0.824-4.645-2.203l0.654-0.218
		c0.899-0.299,1.502-1.137,1.502-2.084v-0.817c0.792,0.222,1.627,0.344,2.489,0.344s1.697-0.122,2.489-0.344v0.817
		C210.66,419.948,211.263,420.786,212.162,421.085z M208.17,416.477c-3.957,0-7.175-3.219-7.175-7.175v-1.172
		c0-0.566-0.459-1.025-1.025-1.025h-1.172c-0.727,0-1.318-0.591-1.318-1.318c0-0.468,0.247-0.891,0.662-1.132
		c0.093-0.054,0.173-0.122,0.243-0.199c2.535-0.073,10.751-0.55,16.152-3.636c0.492-0.281,0.663-0.907,0.382-1.399
		c-0.281-0.492-0.908-0.663-1.399-0.382c-4.731,2.703-12.164,3.244-14.867,3.353v-0.119c0-1.907,0.577-3.754,1.624-5.311
		c0.082,0.13,0.191,0.242,0.326,0.326c0.165,0.102,0.352,0.153,0.539,0.153c0.157,0,0.314-0.036,0.459-0.108l6.571-3.285
		l6.571,3.285c0.145,0.072,0.302,0.108,0.459,0.108c0.188,0,0.374-0.051,0.539-0.153c0.135-0.083,0.244-0.196,0.326-0.326
		c1.046,1.557,1.624,3.404,1.624,5.311v1.497c0,0.365,0.194,0.703,0.51,0.886c0.415,0.241,0.662,0.664,0.662,1.132
		c0,0.727-0.591,1.318-1.318,1.318h-1.172c-0.566,0-1.025,0.459-1.025,1.025v1.02c0,0.009,0,0.018,0,0.027v0.125
		C215.346,413.258,212.127,416.477,208.17,416.477z M224.572,412.962c-2.839,0-5.473-1.445-7.006-3.807
		c1.847-0.013,3.345-1.518,3.345-3.368c0-0.979-0.437-1.907-1.172-2.541v-0.974c0-0.413-0.022-0.823-0.066-1.23
		c1.52,0.713,3.18,1.083,4.898,1.083c1.25,0,2.487-0.207,3.661-0.599v1.502c0,1.385,0.831,2.613,2.117,3.128l2.211,0.884
		C231.502,410.545,228.265,412.962,224.572,412.962z"/>
	<path d="M211.159,410.848c-0.44-0.357-1.086-0.289-1.442,0.151c-0.414,0.511-0.964,0.792-1.547,0.792
		c-0.583,0-1.132-0.281-1.547-0.792c-0.357-0.44-1.003-0.507-1.442-0.151c-0.44,0.357-0.507,1.002-0.151,1.442
		c0.8,0.986,1.944,1.551,3.139,1.551c1.196,0,2.34-0.565,3.139-1.551C211.666,411.851,211.599,411.205,211.159,410.848z"/>
	<circle cx="204.674" cy="406.963" r="1.025"/>
	<circle cx="211.647" cy="406.963" r="1.025"/>
</g>
</svg>
