<?xml version="1.0" encoding="iso-8859-1"?>
<!-- Generator: Adobe Illustrator 21.1.0, SVG Export Plug-In . SVG Version: 6.00 Build 0)  -->
<svg version="1.1" id="Layer_1" xmlns="http://www.w3.org/2000/svg" xmlns:xlink="http://www.w3.org/1999/xlink" x="0px" y="0px"
	 viewBox="184.5 395.453 45 42.779" style="enable-background:new 184.5 395.453 45 42.779;" xml:space="preserve">
<g>
	<g>
		<rect x="206.25" y="435.233" style="fill:#FF9900;" width="1.5" height="1.5"/>
		<polygon style="fill:#FF9900;" points="207.75,431.483 207.75,433.733 206.25,433.733 206.25,426.983 207.75,426.983 
			207.75,429.983 		"/>
	</g>
	<path style="fill:#FF6600;" d="M199.5,417.983c0-4.125,3.375-7.5,7.5-7.5s7.5,3.375,7.5,7.5s-3.375,7.5-7.5,7.5
		S199.5,422.108,199.5,417.983z M200.25,417.983c0,3.75,3,6.75,6.75,6.75s6.75-3,6.75-6.75s-3-6.75-6.75-6.75
		S200.25,414.233,200.25,417.983z"/>
	<g>
		<path style="fill:#E4C6A1;" d="M197.175,429.983H186v-30h2.25v27.75c0,0.375,0.225,0.675,0.6,0.75L197.175,429.983z"/>
		<path style="fill:#E4C6A1;" d="M228,399.983v30h-11.175l8.325-1.5c0.375-0.075,0.6-0.375,0.6-0.75v-27.75H228z"/>
	</g>
	<g>
		<path style="fill:#FFF8EF;" d="M206.25,399.908v9.075c-4.575,0.375-8.25,4.275-8.25,9c0,4.2,2.85,7.725,6.75,8.7v3.15l-15-2.7v-30
			L206.25,399.908z"/>
		<path style="fill:#FFF8EF;" d="M224.25,397.133v30l-15,2.7v-3.15c3.9-0.975,6.75-4.5,6.75-8.7c0-4.725-3.6-8.55-8.25-9v-9.075
			L224.25,397.133z"/>
	</g>
	<circle style="fill:#D9CDC1;" cx="207" cy="417.983" r="5.25"/>
	<path style="fill:#FFF8EF;" d="M212.25,417.983c0-0.525-0.075-1.05-0.225-1.575c-0.975-1.275-2.55-2.175-4.275-2.175
		c-2.925,0-5.25,2.325-5.25,5.25c0,0.525,0.075,1.05,0.225,1.575c0.975,1.35,2.475,2.175,4.275,2.175
		C209.925,423.233,212.25,420.908,212.25,417.983z"/>
	<g>
		<path style="fill:#42210B;" d="M212.25,417.983c0-2.925-2.325-5.25-5.25-5.25s-5.25,2.325-5.25,5.25c0,2.925,2.325,5.25,5.25,5.25
			S212.25,420.908,212.25,417.983z M207,424.733c-3.75,0-6.75-3-6.75-6.75s3-6.75,6.75-6.75s6.75,3,6.75,6.75
			S210.75,424.733,207,424.733z"/>
		<path style="fill:#42210B;" d="M224.25,427.133v-30l-16.5,2.775v9.075c4.65,0.375,8.25,4.275,8.25,9c0,4.2-2.85,7.725-6.75,8.7
			v3.15L224.25,427.133z M228,429.983v-30h-2.25v27.75c0,0.375-0.225,0.675-0.6,0.75l-8.325,1.5H228z M206.25,436.733h1.5v-1.5h-1.5
			V436.733z M207.75,426.983h-1.5v6.75h1.5v-2.25v-1.5V426.983z M197.175,429.983l-8.325-1.5c-0.375-0.075-0.6-0.375-0.6-0.75
			v-27.75H186v30H197.175z M189.15,395.483l17.85,3l17.85-3c0.225-0.075,0.45,0,0.6,0.15c0.225,0.15,0.3,0.375,0.3,0.6v2.25h3
			c0.375,0,0.75,0.3,0.75,0.75v31.5c0,0.375-0.375,0.75-0.75,0.75h-19.5v6c0,0.375-0.375,0.75-0.75,0.75h-3
			c-0.375,0-0.75-0.375-0.75-0.75v-6h-19.5c-0.375,0-0.75-0.375-0.75-0.75v-31.5c0-0.45,0.375-0.75,0.75-0.75h3v-2.25
			c0-0.225,0.075-0.45,0.225-0.6C188.7,395.558,188.925,395.483,189.15,395.483z M207,410.483c-4.125,0-7.5,3.375-7.5,7.5
			s3.375,7.5,7.5,7.5s7.5-3.375,7.5-7.5S211.125,410.483,207,410.483z M204.75,426.683c-3.9-0.975-6.75-4.5-6.75-8.7
			c0-4.725,3.675-8.55,8.25-9v-9.075l-16.5-2.775v30l15,2.7V426.683z"/>
	</g>
	<g>
		<path style="fill:#D9CDC1;" d="M206.25,399.983l-12.225-1.2c-1.5-0.15-2.775,0.975-2.775,2.475v22.425
			c0,1.05,0.675,2.025,1.725,2.4l11.775,3.9l-15-3v-30L206.25,399.983z"/>
		<path style="fill:#D9CDC1;" d="M207.75,399.983l12.225-1.2c1.5-0.15,2.775,0.975,2.775,2.475v22.425c0,1.05-0.675,2.025-1.725,2.4
			l-11.775,3.9l15-3v-30L207.75,399.983z"/>
	</g>
</g>
</svg>
