<?xml version="1.0" encoding="iso-8859-1"?>
<!-- Generator: Adobe Illustrator 21.1.0, SVG Export Plug-In . SVG Version: 6.00 Build 0)  -->
<svg version="1.1" id="&#x421;&#x43B;&#x43E;&#x439;_1"
	 xmlns="http://www.w3.org/2000/svg" xmlns:xlink="http://www.w3.org/1999/xlink" x="0px" y="0px" viewBox="0 0 40 40"
	 style="enable-background:new 0 0 40 40;" xml:space="preserve">
<g>
	<path style="fill:#FFFFFF;" d="M20,17.334c2.575,0,4.668-2.093,4.668-4.668c0-2.572-2.093-4.664-4.668-4.664
		s-4.668,2.092-4.668,4.664C15.332,15.241,17.425,17.334,20,17.334L20,17.334z M20,9.333c1.839,0,3.333,1.498,3.333,3.333
		c0,1.839-1.494,3.333-3.333,3.333c-1.839,0-3.333-1.494-3.333-3.333C16.667,10.83,18.161,9.333,20,9.333L20,9.333z M20,9.333"/>
	<path style="fill:#FFFFFF;" d="M19.882,36.504l10.228-14.773c3.834-5.114,3.281-13.519-1.188-17.985
		C26.507,1.332,23.298,0,19.882,0c-3.414,0-6.627,1.332-9.039,3.743c-4.47,4.469-5.027,12.874-1.205,17.969L19.882,36.504z
		 M11.784,4.688c2.164-2.162,5.039-3.352,8.098-3.352c3.057,0,5.934,1.191,8.096,3.352c4.033,4.033,4.532,11.624,1.048,16.267
		l-9.144,13.209l-9.16-13.229C7.256,16.312,7.751,8.721,11.784,4.688L11.784,4.688z M11.784,4.688"/>
	<path style="fill:#FFFFFF;" d="M28.079,28.672c-0.368-0.045-0.7,0.218-0.742,0.582c-0.042,0.368,0.218,0.697,0.586,0.743
		c7.008,0.823,10.742,3.047,10.742,4.336c0,1.81-7.099,4.333-18.665,4.333c-11.566,0-18.665-2.522-18.665-4.333
		c0-1.289,3.733-3.512,10.742-4.336c0.368-0.046,0.628-0.378,0.586-0.743c-0.045-0.364-0.374-0.627-0.742-0.582
		C4.902,29.498,0,31.826,0,34.333C0,37.148,6.868,40,20,40s20-2.852,20-5.668C40,31.826,35.098,29.498,28.079,28.672L28.079,28.672z
		 M28.079,28.672"/>
</g>
</svg>
