<?xml version="1.0" encoding="iso-8859-1"?>
<!-- Generator: Adobe Illustrator 21.1.0, SVG Export Plug-In . SVG Version: 6.00 Build 0)  -->
<svg version="1.1" id="Layer_1" xmlns="http://www.w3.org/2000/svg" xmlns:xlink="http://www.w3.org/1999/xlink" x="0px" y="0px"
	 viewBox="172 366.126 70 61.748" style="enable-background:new 172 366.126 70 61.748;" xml:space="preserve">
<g>
	<path style="fill:#00C3FF;" d="M238.337,412.099h-37.769c-1.268,0-2.295-1.028-2.295-2.295v-33.421
		c0-1.268,1.028-2.295,2.295-2.295h37.769c1.268,0,2.295,1.028,2.295,2.295v33.421C240.632,411.072,239.605,412.099,238.337,412.099
		z"/>
	<g>
		<path style="fill:#FFD41D;" d="M184.346,385.046L184.346,385.046h-0.332l-0.004,0.008c-5.908,0.173-10.644,4.868-10.644,10.639
			v10.182c0,2.567,2.146,4.648,4.794,4.648h0.696v15.982h11.156v-30.459v-5.264h15.307c3.169,0,5.737-2.569,5.737-5.737
			L184.346,385.046L184.346,385.046z"/>
		<circle style="fill:#FFD41D;" cx="184.014" cy="379.932" r="5.113"/>
		<line style="fill:none;" x1="184.434" y1="409.77" x2="184.434" y2="426.507"/>
	</g>
	<path style="fill:#F2427F;" d="M219.453,367.493L219.453,367.493c-3.642,0-6.595,2.952-6.595,6.594l0,0h13.189l0,0
		C226.047,370.446,223.095,367.493,219.453,367.493z"/>
	<circle cx="234.428" cy="388.224" r="1.367"/>
	<circle cx="198.273" cy="396.162" r="1.367"/>
	<path d="M237.927,372.72h-10.632c-0.65-3.74-3.918-6.594-7.842-6.594c-3.924,0-7.191,2.854-7.842,6.594h-10.632
		c-2.246,0-4.073,1.827-4.073,4.073v6.885h-7.609c0.753-1.059,1.198-2.351,1.198-3.746c0-3.573-2.907-6.481-6.48-6.481
		c-3.574,0-6.481,2.907-6.481,6.481c0,1.844,0.775,3.509,2.016,4.69c-4.432,1.825-7.55,6.1-7.55,11.07v10.183
		c0,3.096,2.407,5.652,5.49,5.979v13.284h-3.42c-0.755,0-1.367,0.612-1.367,1.367c0,0.755,0.612,1.367,1.367,1.367h37.651
		c0.003,0,0.007,0,0.01,0c0.003,0,0.007,0,0.01,0h16.336c0.003,0,0.007,0,0.01,0s0.007,0,0.01,0h11.247
		c0.755,0,1.367-0.612,1.367-1.367c0-0.755-0.612-1.367-1.367-1.367h-10.273l-3.918-11.673h12.775c2.246,0,4.073-1.827,4.073-4.073
		v-32.6C242,374.548,240.173,372.72,237.927,372.72z M219.453,368.86c2.409,0,4.443,1.639,5.046,3.86h-10.092
		C215.01,370.499,217.044,368.86,219.453,368.86z M184.014,376.186c2.066,0,3.746,1.681,3.746,3.746
		c0,2.066-1.681,3.746-3.746,3.746c-2.066,0-3.746-1.681-3.746-3.746C180.268,377.867,181.948,376.186,184.014,376.186z
		 M178.856,394.68c-0.755,0-1.367,0.612-1.367,1.367v13.046c-1.569-0.3-2.755-1.628-2.755-3.218v-10.183
		c0-5.117,4.312-9.28,9.612-9.28h25.125c-0.575,1.742-2.219,3.003-4.151,3.003h-15.307c-0.755,0-1.367,0.612-1.367,1.367v34.356
		h-2.844v-15.37c0-0.755-0.612-1.367-1.367-1.367c-0.755,0-1.367,0.612-1.367,1.367v15.37h-2.844v-29.092
		C180.224,395.292,179.611,394.68,178.856,394.68z M226.185,425.139h-12.554l3.918-11.673h4.719L226.185,425.139z M239.265,409.393
		c0,0.738-0.601,1.339-1.339,1.339c0,0-21.335,0-21.338,0h-15.609c-0.738,0-1.339-0.601-1.339-1.339v-7.999
		c0-0.755-0.612-1.367-1.367-1.367c-0.755,0-1.367,0.612-1.367,1.367v7.999c0,2.246,1.827,4.073,4.073,4.073h13.685l-3.918,11.673
		H191.38v-32.989h13.94c3.917,0,7.105-3.187,7.105-7.104c0-0.755-0.612-1.367-1.367-1.367H199.64v-6.885
		c0-0.738,0.601-1.339,1.339-1.339h36.947c0.738,0,1.339,0.601,1.339,1.339V409.393z"/>
	<path d="M229.284,391.434l-5.856,5.856l-2.136-2.136c-0.534-0.534-1.399-0.534-1.934,0l-7.549,7.549l-2.108-2.108
		c-0.256-0.256-0.604-0.4-0.967-0.4s-0.71,0.144-0.967,0.4l-3.922,3.922c-0.534,0.534-0.534,1.4,0,1.934
		c0.267,0.267,0.617,0.4,0.967,0.4c0.35,0,0.7-0.134,0.967-0.4l2.955-2.955l2.108,2.108c0.534,0.534,1.399,0.534,1.934,0
		l7.549-7.549l2.136,2.136c0.534,0.534,1.399,0.534,1.934,0l6.823-6.823c0.534-0.534,0.534-1.4,0-1.934
		C230.684,390.9,229.818,390.9,229.284,391.434z"/>
</g>
</svg>
