<?xml version="1.0" encoding="iso-8859-1"?>
<!-- Generator: Adobe Illustrator 21.1.0, SVG Export Plug-In . SVG Version: 6.00 Build 0)  -->
<svg version="1.1" id="Layer_1" xmlns="http://www.w3.org/2000/svg" xmlns:xlink="http://www.w3.org/1999/xlink" x="0px" y="0px"
	 viewBox="188.525 374.5 36.949 45" style="enable-background:new 188.525 374.5 36.949 45;" xml:space="preserve">
<g>
	<polyline style="fill:#EFE7E4;" points="222.492,409.399 222.492,412.247 215.914,418.826 189.177,418.826 189.177,375.147 
		222.492,375.147 222.492,403.595 	"/>
	<polygon style="fill:#D8D1D0;" points="220.651,375.161 220.651,403.609 220.651,409.413 220.651,412.261 214.073,418.839 
		215.834,418.839 222.412,412.261 222.412,409.413 222.412,403.609 222.412,375.161 	"/>
	<path style="fill:#353535;" d="M224.094,408.682L224.094,408.682c-0.962,0.962-2.522,0.962-3.484,0l-6.136-6.136l3.484-3.484
		l6.136,6.136C225.056,406.159,225.056,407.719,224.094,408.682z"/>
	<path style="fill:#262626;" d="M221.842,407.449l-6.136-6.136l-1.233,1.233l6.136,6.136c0.962,0.962,2.522,0.962,3.484,0l0,0
		c0.217-0.217,0.385-0.465,0.504-0.729C223.691,408.361,222.588,408.194,221.842,407.449z"/>
	<circle style="fill:#F7CB4F;" cx="205.314" cy="389.898" r="12.261"/>
	<path style="fill:#FFAE47;" d="M213.984,381.228c-2.562-2.562-5.976-3.753-9.33-3.573c2.914,0.156,5.783,1.347,8.009,3.573
		c4.788,4.788,4.788,12.552,0,17.34c-2.226,2.226-5.095,3.417-8.009,3.573c3.354,0.18,6.768-1.011,9.33-3.573
		C218.772,393.78,218.772,386.017,213.984,381.228z"/>
	<circle style="fill:#EFE7E4;" cx="205.296" cy="389.838" r="9.532"/>
	<path style="fill:#D8D1D0;" d="M205.296,380.306c-0.297,0-0.591,0.014-0.881,0.041c4.852,0.444,8.651,4.524,8.651,9.491
		s-3.8,9.047-8.651,9.491c0.29,0.027,0.584,0.041,0.881,0.041c5.264,0,9.532-4.268,9.532-9.532
		C214.828,384.573,210.56,380.306,205.296,380.306z"/>
	<path style="fill:#FFC89F;" d="M205.296,392.526L205.296,392.526c1.701,0,3.092-1.391,3.092-3.092v-2.661
		c0-1.701-1.391-3.092-3.092-3.092l0,0c-1.701,0-3.092,1.391-3.092,3.092v2.661C202.203,391.134,203.595,392.526,205.296,392.526z"
		/>
	<path style="fill:#F7B081;" d="M205.296,383.68L205.296,383.68c-0.306,0-0.601,0.046-0.881,0.129
		c1.275,0.382,2.211,1.568,2.211,2.963v2.661c0,1.395-0.936,2.581-2.211,2.963c0.279,0.084,0.575,0.129,0.881,0.129
		c1.701,0,3.092-1.391,3.092-3.092v-2.661C208.388,385.072,206.996,383.68,205.296,383.68z"/>
	<path style="fill:#F7CB4F;" d="M213.981,398.568c-0.392,0.392-0.805,0.751-1.233,1.079l2.313,2.313l2.313-2.313l-2.312-2.313
		C214.732,397.764,214.373,398.176,213.981,398.568z"/>
	<path style="fill:#FFAE47;" d="M213.745,398.796c-0.321,0.304-0.654,0.589-0.998,0.852l2.313,2.313l0.925-0.925L213.745,398.796z"
		/>
	<polygon style="fill:#B2AEAD;" points="215.914,418.826 215.914,412.247 222.492,412.247 	"/>
	<path style="fill:#68B9D8;" d="M205.296,399.37c2.372,0,4.541-0.867,6.209-2.3c-0.808-2.593-3.386-4.511-6.209-4.55
		c-2.823,0.039-5.401,1.956-6.209,4.55C200.754,398.503,202.924,399.37,205.296,399.37z"/>
	<path style="fill:#3695B2;" d="M209.743,397.07c0.123,0.382,0.208,0.733,0.261,1.057c0.535-0.304,1.037-0.659,1.501-1.057
		c-0.808-2.593-3.386-4.511-6.209-4.549c-0.297,0.004-0.591,0.03-0.881,0.074C206.88,392.971,209.02,394.749,209.743,397.07z"/>
	<path style="fill:#D3333C;" d="M206.038,394.352h-0.743h-0.743l-0.831-1.614c0.509-0.135,1.036-0.21,1.573-0.218
		c0.537,0.007,1.065,0.083,1.573,0.218L206.038,394.352z"/>
	<path style="fill:#F2464F;" d="M205.296,394.352h-0.743l-0.861,3.738l1.395,1.277c0.069,0.001,0.139,0.003,0.209,0.003
		s0.139-0.001,0.209-0.003l1.395-1.277l-0.861-3.738H205.296L205.296,394.352z"/>
	<path d="M224.561,404.73l-1.4-1.4v-7.098c0-0.365-0.296-0.661-0.661-0.661s-0.661,0.296-0.661,0.661v5.777l-3.414-3.414
		c-0.258-0.258-0.676-0.258-0.934,0l-0.119,0.119l-1.443-1.443c1.498-2.148,2.306-4.698,2.306-7.372
		c0-3.451-1.344-6.696-3.785-9.137c-5.038-5.038-13.236-5.038-18.274,0c-2.441,2.441-3.785,5.686-3.785,9.137
		c0,3.451,1.344,6.696,3.785,9.137c2.519,2.519,5.828,3.779,9.137,3.779c2.581,0,5.161-0.766,7.367-2.298l1.445,1.445l-0.119,0.119
		c-0.258,0.258-0.258,0.676,0,0.934l6.136,6.136c0.479,0.479,1.075,0.768,1.697,0.871v1.567h-5.926
		c-0.365,0-0.661,0.296-0.661,0.661v5.932h-25.407V402.58c0-0.365-0.296-0.66-0.661-0.66s-0.661,0.296-0.661,0.66v16.26
		c0,0.365,0.296,0.661,0.661,0.661h26.736c0.175,0,0.343-0.07,0.467-0.193l6.578-6.578c0.124-0.124,0.193-0.292,0.193-0.467v-2.305
		c0.513-0.137,0.998-0.405,1.4-0.807C225.779,407.93,225.779,405.948,224.561,404.73z M216.574,417.231v-4.323h4.323
		L216.574,417.231z M205.314,401.494c-2.97,0-5.942-1.131-8.203-3.392c-2.191-2.191-3.398-5.104-3.398-8.203
		c0-3.099,1.207-6.012,3.398-8.203c2.262-2.262,5.232-3.392,8.203-3.392c2.971,0,5.941,1.131,8.203,3.392
		c2.191,2.191,3.398,5.104,3.398,8.203c0,2.559-0.824,4.991-2.344,6.995c-0.012,0.013-0.024,0.026-0.035,0.041
		c-0.315,0.411-0.658,0.804-1.022,1.168c-0.364,0.364-0.757,0.708-1.167,1.022c-0.006,0.005-0.012,0.011-0.018,0.016
		C210.263,400.708,207.789,401.494,205.314,401.494z M213.734,399.7c0.245-0.211,0.484-0.433,0.717-0.665
		c0.231-0.231,0.451-0.469,0.662-0.713l1.325,1.325l-1.379,1.379L213.734,399.7z M223.627,408.214c-0.703,0.703-1.847,0.703-2.55,0
		l-5.669-5.668l2.55-2.55l4.029,4.029c0.029,0.035,0.061,0.068,0.096,0.096l1.543,1.543
		C224.33,406.367,224.33,407.511,223.627,408.214z"/>
	<path d="M197.074,409.575h16.48c0.365,0,0.661-0.296,0.661-0.66s-0.296-0.661-0.661-0.661h-16.48c-0.365,0-0.661,0.296-0.661,0.661
		S196.709,409.575,197.074,409.575z"/>
	<path d="M197.074,406.466h16.48c0.365,0,0.661-0.296,0.661-0.661s-0.296-0.661-0.661-0.661h-16.48
		c-0.365,0-0.661,0.296-0.661,0.661C196.413,406.171,196.709,406.466,197.074,406.466z"/>
	<path d="M197.074,412.684h11.363c0.365,0,0.661-0.296,0.661-0.661s-0.296-0.661-0.661-0.661h-11.363
		c-0.365,0-0.661,0.296-0.661,0.661S196.709,412.684,197.074,412.684z"/>
	<path d="M212.135,396.873c-0.434-1.392-1.353-2.659-2.588-3.568c-0.568-0.418-1.193-0.751-1.848-0.993
		c0.824-0.689,1.349-1.724,1.349-2.879v-2.661c0-2.069-1.683-3.753-3.753-3.753s-3.753,1.683-3.753,3.753v2.661
		c0,1.155,0.525,2.19,1.349,2.879c-0.654,0.241-1.279,0.575-1.848,0.993c-0.964,0.71-1.734,1.638-2.233,2.673
		c-1.519-1.594-2.453-3.75-2.453-6.121c0-2.354,0.912-4.572,2.568-6.245c0.257-0.259,0.255-0.677-0.005-0.934
		c-0.259-0.257-0.677-0.255-0.934,0.005c-1.903,1.922-2.951,4.47-2.951,7.174c0,5.623,4.575,10.198,10.198,10.198
		c1.476,0,2.909-0.314,4.227-0.915c0.89-0.398,1.724-0.925,2.474-1.57C212.135,397.399,212.214,397.125,212.135,396.873z
		 M202.864,389.433v-1.373c2.202-0.263,3.024-1.784,3.024-1.784s0.519,1.368,1.839,1.734v1.424c0,1.307-1.037,2.377-2.332,2.429
		c-0.03-0.001-0.06-0.002-0.09-0.003c0,0,0,0,0,0h0c-0.006,0-0.012,0-0.018,0l0,0c0,0,0,0,0,0c-0.03,0-0.06,0.002-0.09,0.003
		C203.901,391.81,202.864,390.741,202.864,389.433z M205.877,393.221l-0.242,0.47h-0.68l-0.242-0.47
		c0.02-0.002,0.041-0.005,0.061-0.007c0.057-0.006,0.115-0.011,0.173-0.016c0.029-0.002,0.058-0.005,0.088-0.007
		c0.061-0.004,0.122-0.006,0.182-0.007c0.026,0.001,0.052,0.002,0.078,0.002s0.052-0.001,0.078-0.002
		c0.061,0.002,0.121,0.004,0.182,0.007c0.029,0.002,0.059,0.004,0.088,0.007c0.057,0.004,0.115,0.01,0.172,0.016
		C205.836,393.216,205.857,393.218,205.877,393.221z M203.132,398.441c-1.182-0.297-2.296-0.836-3.267-1.588
		c0.621-1.529,1.948-2.745,3.525-3.317l0.465,0.903l-0.807,3.503C203.008,398.115,203.04,398.294,203.132,398.441z M205.295,398.663
		l-0.874-0.8l0.657-2.851h0.434l0.657,2.851L205.295,398.663z M210.446,397.061c-0.038,0.017-0.076,0.038-0.112,0.063
		c-0.412,0.29-0.845,0.541-1.294,0.754c-0.508,0.237-1.037,0.426-1.581,0.563c0.092-0.147,0.124-0.326,0.084-0.499l-0.807-3.503
		l0.465-0.903c1.577,0.572,2.904,1.788,3.525,3.317C210.634,396.924,210.54,396.993,210.446,397.061z"/>
	<path d="M200.579,382.297c1.396-0.862,3.006-1.317,4.656-1.317c4.895,0,8.877,3.982,8.877,8.877c0,1.833-0.554,3.592-1.602,5.088
		c-0.209,0.299-0.137,0.711,0.162,0.92c0.115,0.081,0.248,0.12,0.378,0.12c0.208,0,0.413-0.098,0.541-0.282
		c1.204-1.719,1.841-3.74,1.841-5.846c0-5.623-4.575-10.198-10.198-10.198c-1.895,0-3.745,0.524-5.349,1.514
		c-0.31,0.192-0.407,0.599-0.215,0.909C199.861,382.392,200.268,382.489,200.579,382.297z"/>
	<path d="M189.186,401.039c0.365,0,0.661-0.296,0.661-0.661v-24.557h31.994v18.209c0,0.365,0.296,0.661,0.661,0.661
		s0.661-0.296,0.661-0.661v-18.869c0-0.365-0.296-0.661-0.661-0.661h-33.315c-0.365,0-0.661,0.296-0.661,0.661v25.218
		C188.525,400.743,188.821,401.039,189.186,401.039z"/>
</g>
</svg>
