<?xml version="1.0" encoding="iso-8859-1"?>
<!-- Generator: Adobe Illustrator 21.1.0, SVG Export Plug-In . SVG Version: 6.00 Build 0)  -->
<svg version="1.1" id="&#x421;&#x43B;&#x43E;&#x439;_1"
	 xmlns="http://www.w3.org/2000/svg" xmlns:xlink="http://www.w3.org/1999/xlink" x="0px" y="0px" viewBox="0 0 39.993 45"
	 style="enable-background:new 0 0 39.993 45;" xml:space="preserve">
<g>
	<g>
		<defs>
			<rect id="SVGID_1_" width="39.993" height="45"/>
		</defs>
		<clipPath id="SVGID_2_">
			<use xlink:href="#SVGID_1_"  style="overflow:visible;"/>
		</clipPath>
		<path style="clip-path:url(#SVGID_2_);fill:#333333;" d="M36.038,22.3c2.182,0.399,3.842,2.313,3.842,4.609
			c0,2.378-1.781,4.347-4.079,4.646c-0.561,3.243-2.102,6.229-4.477,8.604c-3.04,3.041-7.082,4.715-11.382,4.715H19.94
			c-4.306,0-8.352-1.701-11.397-4.789c-2.332-2.366-3.857-5.322-4.437-8.526C1.796,31.272,0,29.297,0,26.909
			C0,24.614,1.659,22.7,3.842,22.3v-8.415c-0.196,0.115-0.381,0.253-0.549,0.418c-0.497,0.479-1.222,0.554-1.805,0.185
			c-0.583-0.369-0.827-1.055-0.607-1.709l0.412-1.218c0.224-0.662,0.552-1.277,0.968-1.823c0.468-4.388,3.502-7.476,8.793-8.936
			c4.042-1.116,8.334-0.973,12.41,0.411l5.306,1.801c1.611-0.568,3.393-0.352,4.829,0.6c1.528,1.014,2.44,2.715,2.44,4.548V22.3z
			 M38.19,26.909c0-1.358-0.909-2.509-2.151-2.874v4.741c0,0.34-0.012,0.68-0.033,1.017C37.264,29.438,38.19,28.281,38.19,26.909
			L38.19,26.909z M34.348,28.776v-7.85c-3.558-0.419-6.327-3.452-6.327-7.12v-2.293c-2.379,2.5-5.472,4.197-8.917,4.853
			c-4.244,0.808-8.573-0.047-12.19-2.408c-0.428-0.279-0.903-0.433-1.382-0.469v15.128c0,3.874,1.497,7.525,4.215,10.282
			c2.724,2.764,6.344,4.286,10.194,4.286h0.001c3.848,0,7.466-1.499,10.186-4.22C32.85,36.242,34.348,32.624,34.348,28.776
			L34.348,28.776z M34.348,19.222V8.163c0-1.285-0.614-2.429-1.685-3.14c-0.913-0.607-1.99-0.782-3.022-0.509l0.071,9.292
			C29.712,16.54,31.725,18.814,34.348,19.222L34.348,19.222z M28.017,8.888l-0.067-4.367l-5.03-1.707
			c-3.755-1.275-7.703-1.407-11.417-0.382c-3.74,1.032-6.118,2.877-7.101,5.495C4.549,7.851,4.697,7.778,4.85,7.712
			c1.678-0.718,3.587-0.689,5.24,0.081c1.886,0.879,4.167,0.403,5.544-1.155l0.21-0.237c0.308-0.349,0.843-0.381,1.192-0.073
			c0.35,0.31,0.383,0.844,0.073,1.193L16.9,7.76c-1.871,2.114-4.965,2.758-7.523,1.567c-1.219-0.567-2.626-0.589-3.862-0.06
			c-1.236,0.528-2.191,1.562-2.621,2.836L2.73,12.589c1.518-1.039,3.52-1.083,5.107-0.047c3.249,2.12,7.138,2.888,10.95,2.163
			C22.51,13.995,25.777,11.934,28.017,8.888L28.017,8.888z M3.884,29.795c-0.027-0.39-0.042-0.783-0.042-1.18v-4.58
			C2.6,24.4,1.69,25.551,1.69,26.909C1.69,28.284,2.621,29.443,3.884,29.795L3.884,29.795z M3.884,29.795"/>
	</g>
	<path style="fill:#FFEBFA;" d="M36.038,24.035c1.242,0.365,2.151,1.516,2.151,2.874c0,1.372-0.925,2.529-2.184,2.884
		c0.021-0.337,0.033-0.677,0.033-1.017V24.035z M36.038,24.035"/>
	<path style="fill:#F9E6D9;" d="M34.348,20.926v7.85c0,3.848-1.498,7.466-4.22,10.187c-2.72,2.721-6.338,4.22-10.186,4.22H19.94
		c-3.849,0-7.469-1.522-10.194-4.286c-2.718-2.757-4.215-6.409-4.215-10.282V13.487c0.479,0.036,0.954,0.19,1.382,0.469
		c3.617,2.361,7.946,3.216,12.19,2.408c3.445-0.656,6.539-2.352,8.917-4.853v2.293C28.021,17.474,30.79,20.507,34.348,20.926
		L34.348,20.926z M30.977,26.45c0.331-0.33,0.331-0.865,0-1.195c-1.262-1.261-3.313-1.261-4.574,0c-0.331,0.33-0.331,0.865,0,1.195
		c0.33,0.331,0.865,0.331,1.195,0c0.602-0.602,1.582-0.602,2.184,0c0.165,0.166,0.382,0.249,0.598,0.249
		C30.596,26.699,30.812,26.617,30.977,26.45L30.977,26.45z M29.881,34.787c0.33-0.33,0.33-0.865,0-1.195
		c-0.33-0.33-0.866-0.33-1.195,0c-4.822,4.822-12.668,4.822-17.49,0c-0.331-0.33-0.866-0.33-1.196,0c-0.33,0.33-0.33,0.865,0,1.195
		c2.741,2.741,6.342,4.111,9.941,4.111C23.541,38.899,27.14,37.529,29.881,34.787L29.881,34.787z M13.478,26.45
		c0.33-0.33,0.33-0.865,0-1.195c-0.611-0.611-1.424-0.947-2.288-0.947c-0.864,0-1.676,0.337-2.286,0.947
		c-0.33,0.33-0.33,0.865,0,1.195c0.331,0.331,0.865,0.331,1.195,0c0.292-0.291,0.68-0.452,1.092-0.452
		c0.413,0,0.801,0.16,1.093,0.452c0.166,0.166,0.381,0.249,0.598,0.249C13.096,26.699,13.313,26.617,13.478,26.45L13.478,26.45z
		 M13.478,26.45"/>
	<path style="fill:#CE8628;" d="M34.348,8.163v11.059c-2.623-0.408-4.636-2.682-4.636-5.417l-0.071-9.292
		c1.032-0.273,2.109-0.097,3.022,0.509C33.734,5.734,34.348,6.878,34.348,8.163L34.348,8.163z M34.348,8.163"/>
	<path style="fill:#333333;" d="M30.977,25.256c0.331,0.33,0.331,0.865,0,1.195c-0.165,0.166-0.382,0.249-0.597,0.249
		c-0.216,0-0.433-0.083-0.598-0.249c-0.602-0.602-1.583-0.602-2.184,0c-0.33,0.331-0.865,0.331-1.195,0
		c-0.331-0.33-0.331-0.865,0-1.195C27.664,23.995,29.716,23.995,30.977,25.256L30.977,25.256z M30.977,25.256"/>
	<path style="fill:#333333;" d="M29.881,33.593c0.33,0.33,0.33,0.865,0,1.195c-2.74,2.741-6.34,4.111-9.94,4.111
		c-3.6,0-7.2-1.37-9.941-4.111c-0.33-0.33-0.33-0.865,0-1.195c0.331-0.33,0.865-0.33,1.196,0c4.822,4.822,12.668,4.822,17.49,0
		C29.015,33.263,29.551,33.263,29.881,33.593L29.881,33.593z M29.881,33.593"/>
	<path style="fill:#CE8628;" d="M27.951,4.521l0.067,4.367c-2.241,3.046-5.508,5.107-9.23,5.817
		c-3.812,0.726-7.701-0.042-10.95-2.163c-1.588-1.036-3.589-0.992-5.107,0.047l0.165-0.486c0.43-1.273,1.384-2.308,2.621-2.836
		c1.236-0.529,2.643-0.507,3.862,0.06c2.558,1.191,5.652,0.547,7.523-1.567l0.209-0.238c0.31-0.348,0.277-0.883-0.073-1.193
		c-0.35-0.308-0.884-0.276-1.192,0.073l-0.21,0.237c-1.377,1.558-3.658,2.034-5.544,1.155c-1.653-0.77-3.562-0.8-5.24-0.081
		C4.697,7.778,4.549,7.851,4.403,7.927c0.983-2.619,3.36-4.463,7.101-5.495c3.714-1.025,7.662-0.893,11.417,0.382L27.951,4.521z
		 M27.951,4.521"/>
	<path style="fill:#333333;" d="M13.478,25.256c0.33,0.33,0.33,0.865,0,1.195c-0.165,0.166-0.381,0.249-0.598,0.249
		c-0.217,0-0.432-0.083-0.598-0.249c-0.291-0.291-0.679-0.452-1.093-0.452c-0.412,0-0.799,0.16-1.092,0.452
		c-0.33,0.331-0.864,0.331-1.195,0c-0.33-0.33-0.33-0.865,0-1.195c0.61-0.611,1.422-0.947,2.286-0.947
		C12.054,24.308,12.866,24.645,13.478,25.256L13.478,25.256z M13.478,25.256"/>
	<path style="fill:#FFEBFA;" d="M3.842,28.615c0,0.396,0.014,0.789,0.042,1.18c-1.263-0.352-2.194-1.511-2.194-2.886
		c0-1.358,0.909-2.509,2.152-2.874V28.615z M3.842,28.615"/>
</g>
</svg>
