<?xml version="1.0" encoding="iso-8859-1"?>
<!-- Generator: Adobe Illustrator 21.1.0, SVG Export Plug-In . SVG Version: 6.00 Build 0)  -->
<svg version="1.1" id="Layer_1" xmlns="http://www.w3.org/2000/svg" xmlns:xlink="http://www.w3.org/1999/xlink" x="0px" y="0px"
	 viewBox="181.999 372 50 50" style="enable-background:new 181.999 372 50 50;" xml:space="preserve">
<g>
	<path style="fill:#C7CFE2;" d="M217.959,375.864h-18.788c-1.297,0-2.348,1.051-2.348,2.348v12.525c0,1.297,1.051,2.348,2.348,2.348
		h6.263l6.294,4.196c0.285,0.19,0.659-0.052,0.603-0.39l-0.634-3.806h6.263c1.297,0,2.348-1.051,2.348-2.348v-12.525
		C220.307,376.915,219.256,375.864,217.959,375.864z"/>
	<path style="fill:#5A4146;" d="M199.858,409.178c-0.818-2.166-1.466-5.891-1.606-7.829c-0.266-3.69-3.047-6.698-6.806-6.698
		c-3.759,0-6.539,3.008-6.806,6.698c-0.14,1.939-0.789,5.663-1.606,7.829c-0.18,0.478,0.028,1.004,0.498,1.217
		c0.876,0.397,2.744,1.175,4.997,1.478h5.834c2.242-0.304,4.123-1.082,4.997-1.478C199.83,410.183,200.038,409.656,199.858,409.178z
		"/>
	<path style="fill:#694B4B;" d="M199.36,410.396c0.47-0.213,0.678-0.74,0.498-1.217c-0.818-2.166-1.466-5.891-1.606-7.829
		c-0.266-3.69-3.047-6.697-6.806-6.697c-0.009,0-0.019,0-0.028,0c-2.884,0.012-3.903,3.945-1.421,5.413
		c0.149,0.088,0.245,0.131,0.245,0.131l2.175,11.679h1.946C196.605,411.57,198.487,410.792,199.36,410.396z"/>
	<path style="fill:#E6AF78;" d="M198.367,413.795l-3.096-1.548c-0.648-0.324-1.058-0.987-1.058-1.712l0-2.871h-5.741v2.871
		c0,0.725-0.409,1.387-1.058,1.712l-3.096,1.548c-0.972,0.486-1.587,1.48-1.587,2.567v4.906h17.222v-4.906
		C199.954,415.275,199.339,414.281,198.367,413.795z"/>
	<path style="fill:#D29B6E;" d="M191.342,411.491c1.03,0,2.017-0.212,2.922-0.59c-0.024-0.121-0.051-0.241-0.051-0.366l0-2.87
		h-5.741v2.871c0,0.126-0.028,0.247-0.052,0.368C189.326,411.279,190.312,411.491,191.342,411.491z"/>
	<path style="fill:#FF507D;" d="M198.367,413.795l-2.206-1.103c-1.023,1.579-2.797,2.627-4.818,2.627
		c-2.022,0-3.796-1.048-4.819-2.627l-2.206,1.103c-0.972,0.486-1.587,1.48-1.587,2.567v4.906h17.222v-4.906
		C199.954,415.275,199.339,414.281,198.367,413.795z"/>
	<path style="fill:#F0C087;" d="M191.342,409.578L191.342,409.578c-2.919,0-5.329-2.178-5.693-4.998
		c-0.053-0.409,0.144-0.809,0.511-0.995c0.441-0.222,1.081-0.597,1.694-1.144c0.683-0.609,1.083-1.251,1.309-1.723
		c0.195-0.406,0.642-0.636,1.079-0.524c3.369,0.859,5.662,2.612,6.494,3.327c0.223,0.192,0.352,0.475,0.329,0.769
		C196.834,407.25,194.36,409.578,191.342,409.578z"/>
	<path style="fill:#E6AF78;" d="M196.737,403.522c-0.832-0.716-3.126-2.468-6.494-3.327c-0.436-0.111-0.884,0.118-1.079,0.524
		c-0.171,0.357-0.454,0.812-0.874,1.276c0,0.001,0,0.002-0.001,0.003c-0.13,0.148-0.269,0.296-0.434,0.443
		c-0.613,0.547-1.253,0.921-1.694,1.144c-0.368,0.186-0.564,0.586-0.511,0.995c0.327,2.532,2.309,4.533,4.823,4.917
		c-1.146-0.779-2-1.836-2-3.746v-1.364c0.217-0.16,0.436-0.32,0.656-0.517c0.532-0.475,0.996-1.023,1.368-1.614
		c4.76,1.007,6.293,3.33,6.293,3.33c0.135-0.415,0.24-0.843,0.276-1.293C197.089,403.998,196.96,403.714,196.737,403.522z"/>
	<g>
		<path style="fill:#D23C69;" d="M199.37,414.637c0.369,0.489,0.583,1.089,0.583,1.725v4.906h-3.131v-3.395
			c0-0.41,0.161-0.804,0.449-1.097L199.37,414.637z"/>
		<path style="fill:#D23C69;" d="M183.315,414.637c-0.369,0.489-0.583,1.089-0.583,1.725v4.906h3.131v-3.395
			c0-0.41-0.161-0.804-0.449-1.097L183.315,414.637z"/>
	</g>
	<path style="fill:#5A4146;" d="M215.708,398.957v0.618c0,0.757,0.122,1.51,0.362,2.228l1.4,4.199h2.642v-9.688h-1.761
		C216.891,396.315,215.708,397.498,215.708,398.957z"/>
	<path style="fill:#694B4B;" d="M227.767,400.787l-1.49,5.216l-7.045-6.165c-0.973,0-1.761-0.789-1.761-1.761l0,0
		c0-1.459,1.183-2.642,2.642-2.642h7.926v3.417C228.038,399.506,227.946,400.157,227.767,400.787z"/>
	<rect x="219.055" y="408.742" style="fill:#E6AF78;" width="5.636" height="4.941"/>
	<path style="fill:#D29B6E;" d="M219.055,411.251c0.871,0.354,1.821,0.553,2.818,0.553s1.947-0.199,2.818-0.553v-2.508h-5.636
		V411.251z"/>
	<path style="fill:#00AAF0;" d="M229.223,413.099l-4.532-1.295l-2.818,1.87l-2.818-1.87l-4.532,1.295
		c-1.21,0.346-2.044,1.451-2.044,2.71v5.459h18.788v-5.459C231.267,414.55,230.433,413.445,229.223,413.099z"/>
	<path style="fill:#F0C087;" d="M221.873,409.525L221.873,409.525c-2.918,0-5.284-2.366-5.284-5.284v-1.032
		c0-0.467,0.186-0.915,0.516-1.246l1.597-1.597c0.338-0.338,0.801-0.533,1.279-0.518c2.815,0.089,5.307,0.692,6.669,2.022
		c0.333,0.326,0.508,0.781,0.508,1.247v1.122C227.157,407.16,224.791,409.525,221.873,409.525z"/>
	<path style="fill:#E6AF78;" d="M219.231,404.045c0-1.016,0.851-1.759,1.867-1.759c1.558,0,4.689,0.193,6.035,1.189
		c-0.053-0.372-0.213-1.34-0.483-1.604c-1.362-1.33-3.854-1.934-6.669-2.022l0,0l0,0c-0.478-0.015-0.94,0.18-1.278,0.518
		l-2.113,2.113v1.761c0,2.41,1.615,4.439,3.82,5.074c-0.734-0.906-1.178-2.055-1.178-3.313L219.231,404.045L219.231,404.045z"/>
	<g>
		<path style="fill:#0096DC;" d="M216.236,418.608c0-0.747-0.297-1.464-0.825-1.993l-2.418-2.418
			c-0.323,0.462-0.514,1.018-0.514,1.612v5.459h3.758L216.236,418.608L216.236,418.608z"/>
		<path style="fill:#0096DC;" d="M227.509,418.608c0-0.747,0.297-1.464,0.825-1.993l2.418-2.418
			c0.323,0.462,0.514,1.018,0.514,1.612v5.459h-3.758L227.509,418.608L227.509,418.608z"/>
	</g>
	<path style="fill:#E2E7F2;" d="M214.827,372.732h-21.919c-1.297,0-2.348,1.051-2.348,2.348v12.525c0,1.297,1.051,2.348,2.348,2.348
		h8.611l-1.304,5.217c-0.089,0.355,0.314,0.627,0.61,0.412l7.74-5.629h6.263c1.297,0,2.348-1.051,2.348-2.348v-12.525
		C217.176,373.784,216.124,372.732,214.827,372.732z"/>
	<path d="M198.983,413.701l-2.917-1.458c1.951-0.556,3.178-1.277,3.79-1.706c0.588-0.412,0.809-1.159,0.536-1.816
		c-0.579-1.396-1.26-4.054-1.272-6.949c-0.017-4.023-3.111-7.458-7.045-7.819c-0.487-0.045-0.98-0.045-1.467,0
		c-3.934,0.361-7.028,3.796-7.045,7.819c-0.012,2.895-0.693,5.552-1.272,6.949c-0.273,0.657-0.052,1.404,0.536,1.816
		c0.612,0.429,1.839,1.15,3.79,1.706l-2.917,1.458c-1.05,0.525-1.703,1.581-1.703,2.756v4.811c0,0.404,0.328,0.732,0.732,0.732
		s0.732-0.328,0.732-0.732v-4.811c0-0.616,0.342-1.17,0.893-1.446l2.312-1.156c0.97,1.635,2.749,2.665,4.673,2.665
		c1.941,0,3.706-1.026,4.674-2.665l2.312,1.156c0.551,0.276,0.893,0.829,0.893,1.446v4.811c0,0.404,0.328,0.732,0.732,0.732
		c0.405,0,0.732-0.328,0.732-0.732v-4.811C200.686,415.282,200.034,414.226,198.983,413.701z M183.646,409.282
		c0.63-1.519,1.371-4.396,1.384-7.504c0.014-3.277,2.523-6.074,5.714-6.367c0.398-0.037,0.8-0.037,1.199,0
		c3.19,0.293,5.7,3.09,5.714,6.367c0.013,3.108,0.753,5.985,1.384,7.504c0.011,0.026-0.01,0.046-0.024,0.055
		c-0.646,0.453-2.092,1.281-4.562,1.793c-0.02-0.072-0.031-0.147-0.031-0.224v-1.469c0.953-0.545,1.763-1.34,2.324-2.326
		c1.027-1.808,0.656-4.141-0.883-5.549c-1.079-0.987-3.011-2.163-6.087-2.163c-0.194,0-0.38,0.077-0.518,0.215l-1.566,1.566
		c-0.286,0.286-0.286,0.75,0,1.036c0.286,0.286,0.75,0.286,1.036,0l1.347-1.347c1.957,0.055,3.571,0.651,4.799,1.775
		c1.039,0.95,1.291,2.525,0.598,3.744c-0.843,1.484-2.426,2.406-4.131,2.406c-2.618,0-4.747-2.13-4.747-4.747
		c0-0.405-0.328-0.732-0.732-0.732s-0.732,0.328-0.732,0.732c0,2.305,1.262,4.319,3.131,5.391v1.47c0,0.077-0.011,0.152-0.031,0.224
		c-2.47-0.512-3.915-1.34-4.561-1.793C183.656,409.328,183.635,409.308,183.646,409.282z M191.343,415.055
		c-1.37,0-2.638-0.716-3.357-1.858l0.471-0.235c0.784-0.392,1.27-1.179,1.27-2.055v-0.863c0.516,0.139,1.057,0.215,1.616,0.215
		c0.553,0,1.095-0.074,1.616-0.215v0.863c0,0.876,0.487,1.664,1.27,2.055l0.473,0.236
		C193.984,414.343,192.725,415.055,191.343,415.055z"/>
	<path d="M185.863,417.404c-0.405,0-0.732,0.328-0.732,0.732v3.131c0,0.404,0.328,0.732,0.732,0.732
		c0.405,0,0.732-0.328,0.732-0.732v-3.131C186.595,417.732,186.267,417.404,185.863,417.404z"/>
	<path d="M196.822,417.404c-0.405,0-0.732,0.328-0.732,0.732v3.131c0,0.404,0.328,0.732,0.732,0.732s0.732-0.328,0.732-0.732v-3.131
		C197.555,417.732,197.227,417.404,196.822,417.404z"/>
	<path d="M219.474,400.914v-0.166c1.569-0.224,2.81-0.04,3.607,0.169c0.96,0.253,1.502,0.596,1.52,0.608
		c0.124,0.082,0.264,0.121,0.403,0.121c0.237,0,0.469-0.115,0.61-0.326c0.224-0.337,0.133-0.791-0.203-1.016
		c-0.106-0.071-2.649-1.724-6.813-0.892c-0.342,0.068-0.589,0.369-0.589,0.718v0.783c0,0.404,0.328,0.732,0.732,0.732
		C219.146,401.647,219.474,401.319,219.474,400.914z"/>
	<path d="M230,412.965l-3.723-1.396c-0.323-0.121-0.541-0.435-0.541-0.78v-1.878c0.159-0.127,0.314-0.263,0.462-0.407
		c1.216-1.18,1.886-2.764,1.886-4.459v-1.393l0.21-0.419c0.375-0.75,0.573-1.589,0.573-2.428v-4.371
		c0-0.404-0.328-0.732-0.732-0.732h-8.157c-2.813,0-5.101,2.288-5.101,5.103c0,0.838,0.198,1.678,0.573,2.428l0.21,0.419v1.163
		c0,2.015,0.922,3.836,2.349,5.025v1.948c0,0.345-0.217,0.659-0.541,0.78l-3.723,1.396c-1.196,0.448-1.999,1.608-1.999,2.885v5.418
		c0,0.404,0.328,0.732,0.732,0.732c0.405,0,0.732-0.328,0.732-0.732v-5.418c0-0.67,0.421-1.278,1.049-1.513l3.723-1.396
		c0.201-0.076,0.387-0.179,0.555-0.304l2.603,1.952v6.679c0,0.404,0.328,0.732,0.732,0.732s0.732-0.328,0.732-0.732v-6.679
		l2.602-1.952c0.168,0.125,0.354,0.228,0.555,0.304l3.723,1.396c0.627,0.235,1.049,0.843,1.049,1.513v5.418
		c0,0.404,0.328,0.732,0.732,0.732c0.405,0,0.732-0.328,0.732-0.732v-5.418C231.999,414.573,231.196,413.413,230,412.965z
		 M217.125,403.816v-1.336c0-0.114-0.026-0.226-0.077-0.328l-0.287-0.574c-0.274-0.548-0.418-1.161-0.418-1.776
		c0-2.005,1.631-3.636,3.636-3.636h7.425v3.639c0,0.612-0.145,1.225-0.419,1.773l-0.287,0.574c-0.051,0.102-0.077,0.214-0.077,0.328
		v1.566c0,1.295-0.512,2.505-1.442,3.407c-0.929,0.902-2.154,1.377-3.452,1.338C219.189,408.715,217.125,406.483,217.125,403.816z
		 M221.682,410.255c0.064,0.002,0.129,0.003,0.193,0.003c0.836,0,1.647-0.165,2.397-0.479v1.01c0,0.223,0.034,0.44,0.095,0.647
		l-2.494,1.871l-2.494-1.871c0.062-0.207,0.095-0.425,0.095-0.647v-1.038C220.158,410.053,220.903,410.231,221.682,410.255z"/>
	<path d="M216.393,416.621c-0.405,0-0.732,0.328-0.732,0.732v3.914c0,0.404,0.328,0.732,0.732,0.732
		c0.405,0,0.732-0.328,0.732-0.732v-3.914C217.125,416.949,216.798,416.621,216.393,416.621z"/>
	<path d="M227.353,416.621c-0.405,0-0.732,0.328-0.732,0.732v3.914c0,0.404,0.328,0.732,0.732,0.732
		c0.405,0,0.732-0.328,0.732-0.732v-3.914C228.085,416.949,227.757,416.621,227.353,416.621z"/>
	<path d="M212.555,397.9c0.376-0.243,0.572-0.686,0.498-1.128l-0.492-2.953h5.398c1.699,0,3.081-1.382,3.081-3.081v-12.525
		c0-1.699-1.382-3.081-3.081-3.081h-0.05v-0.05c0-1.699-1.382-3.081-3.081-3.081h-21.919c-1.699,0-3.081,1.382-3.081,3.081v12.525
		c0,1.699,1.382,3.081,3.081,3.081h3.182v0.05c0,1.699,1.382,3.081,3.081,3.081h0.628l-0.294,1.176
		c-0.116,0.464,0.065,0.937,0.462,1.204c0.193,0.13,0.411,0.195,0.629,0.195c0.231,0,0.462-0.073,0.661-0.217l3.242-2.358h0.714
		l6.109,4.073c0.189,0.126,0.406,0.189,0.623,0.189C212.156,398.08,212.369,398.02,212.555,397.9z M199.171,392.353
		c-0.891,0-1.616-0.725-1.616-1.616v-0.05h3.026l-0.417,1.666L199.171,392.353L199.171,392.353z M201.153,394.439l1.077-4.307
		c0.055-0.219,0.006-0.451-0.133-0.628c-0.139-0.178-0.352-0.282-0.577-0.282h-8.611c-0.891,0-1.616-0.725-1.616-1.616v-12.525
		c0-0.891,0.725-1.616,1.616-1.616h21.919c0.891,0,1.616,0.725,1.616,1.616v12.525c0,0.891-0.725,1.616-1.616,1.616h-6.263
		c-0.155,0-0.306,0.049-0.431,0.14L201.153,394.439z M210.974,393.206l0.505,3.029l-5.377-3.584l2.701-1.964h6.024
		c1.699,0,3.081-1.382,3.081-3.081v-11.01h0.05c0.891,0,1.616,0.725,1.616,1.616v12.525c0,0.891-0.725,1.616-1.616,1.616h-6.263
		c-0.215,0-0.42,0.095-0.559,0.259C210.998,392.777,210.938,392.994,210.974,393.206z"/>
	<path d="M196.039,378.162h2.348c0.405,0,0.732-0.328,0.732-0.732c0-0.404-0.328-0.732-0.732-0.732h-2.348
		c-0.405,0-0.732,0.328-0.732,0.732C195.307,377.834,195.635,378.162,196.039,378.162z"/>
	<path d="M201.519,378.162h10.177c0.405,0,0.732-0.328,0.732-0.732c0-0.404-0.328-0.732-0.732-0.732h-10.177
		c-0.405,0-0.732,0.328-0.732,0.732C200.787,377.834,201.115,378.162,201.519,378.162z"/>
	<path d="M196.039,382.076h15.657c0.405,0,0.732-0.328,0.732-0.732c0-0.405-0.328-0.732-0.732-0.732h-15.657
		c-0.405,0-0.732,0.328-0.732,0.732C195.307,381.748,195.635,382.076,196.039,382.076z"/>
	<path d="M206.216,384.525h-10.177c-0.405,0-0.732,0.328-0.732,0.732c0,0.405,0.328,0.732,0.732,0.732h10.177
		c0.405,0,0.732-0.328,0.732-0.732C206.948,384.853,206.621,384.525,206.216,384.525z"/>
	<path d="M211.696,384.525h-2.348c-0.405,0-0.732,0.328-0.732,0.732c0,0.405,0.328,0.732,0.732,0.732h2.348
		c0.405,0,0.732-0.328,0.732-0.732C212.428,384.853,212.101,384.525,211.696,384.525z"/>
</g>
</svg>
