<?xml version="1.0" encoding="iso-8859-1"?>
<!-- Generator: Adobe Illustrator 21.1.0, SVG Export Plug-In . SVG Version: 6.00 Build 0)  -->
<svg version="1.1" id="&#x421;&#x43B;&#x43E;&#x439;_1"
	 xmlns="http://www.w3.org/2000/svg" xmlns:xlink="http://www.w3.org/1999/xlink" x="0px" y="0px" viewBox="0 0 70 81.036"
	 style="enable-background:new 0 0 70 81.036;" xml:space="preserve">
<g>
	<g>
		<path style="fill:#FFDB2B;" d="M6.73,40.383v28.27c0,2.965,2.426,5.383,5.383,5.383h45.774c2.956,0,5.383-2.418,5.383-5.383
			v-28.27H6.73z M6.73,40.383"/>
		<path style="fill:#D0E8F9;" d="M53.844,51.156c0,2.97-2.411,5.383-5.383,5.383c-2.971,0-5.383-2.413-5.383-5.383
			c0-2.978,2.411-5.391,5.383-5.391C51.432,45.765,53.844,48.178,53.844,51.156L53.844,51.156z M53.844,51.156"/>
		<path style="fill:#556080;" d="M48.461,57.887c-3.713,0-6.73-3.024-6.73-6.73c0-3.713,3.017-6.73,6.73-6.73
			c3.714,0,6.73,3.017,6.73,6.73C55.191,54.863,52.174,57.887,48.461,57.887L48.461,57.887z M48.461,47.113
			c-2.228,0-4.035,1.814-4.035,4.043c0,2.221,1.807,4.035,4.035,4.035c2.228,0,4.035-1.814,4.035-4.035
			C52.496,48.927,50.689,47.113,48.461,47.113L48.461,47.113z M48.461,47.113"/>
		<path style="fill:#FFFFFF;" d="M28.27,51.156c0,2.97-2.413,5.383-5.383,5.383c-2.978,0-5.383-2.413-5.383-5.383
			c0-2.978,2.404-5.391,5.383-5.391C25.857,45.765,28.27,48.178,28.27,51.156L28.27,51.156z M28.27,51.156"/>
		<g>
			<defs>
				<rect id="SVGID_1_" x="1.348" y="0.675" width="67.035" height="80.362"/>
			</defs>
			<clipPath id="SVGID_2_">
				<use xlink:href="#SVGID_1_"  style="overflow:visible;"/>
			</clipPath>
			<path style="clip-path:url(#SVGID_2_);fill:#556080;" d="M63.27,63.27c-6.343,0-10.774-4.982-10.774-12.113
				c0-0.75,0.606-1.348,1.348-1.348c0.744,0,1.348,0.597,1.348,1.348c0,4.686,2.497,9.418,8.078,9.418
				c0.742,0,1.348,0.606,1.348,1.348C64.617,62.664,64.012,63.27,63.27,63.27L63.27,63.27z M63.27,63.27"/>
			<path style="clip-path:url(#SVGID_2_);fill:#2C3E50;" d="M65.957,40.383H4.043c-1.486,0-2.696-1.21-2.696-2.687v-1.243
				c0-1.486,1.21-2.694,2.696-2.694h61.913c1.486,0,2.695,1.208,2.695,2.694v1.243C68.652,39.173,67.442,40.383,65.957,40.383
				L65.957,40.383z M65.957,40.383"/>
		</g>
		<path style="fill:#556080;" d="M63.27,33.652H6.73l1.348-2.687c4.726-10.86,4.154-19.094-1.348-29.617H63.27
			c0,0-6.074,18.758-1.348,29.617L63.27,33.652z M63.27,33.652"/>
		<path style="fill:#556080;" d="M17.504,61.902c0.604,1.466,2.208,2.544,4.028,2.157c1.307-0.278,2.827-0.895,4.469-2.137
			c5.036-3.806,8.953,1.649,8.953,1.649s3.917-5.455,8.958-1.649c1.637,1.242,3.162,1.859,4.462,2.137
			c1.735,0.367,3.34-0.744,4.01-2.103c-4.607,11.173-17.43,5.028-17.43,5.028s-12.823,6.152-17.425-5.028L17.504,61.902z
			 M17.504,61.902"/>
		<path style="fill:#FEC722;" d="M50.741,79.418H19.259c-0.974,0-1.755-0.781-1.755-1.755v-3.628h34.992v3.628
			C52.496,78.637,51.715,79.418,50.741,79.418L50.741,79.418z M50.741,79.418"/>
		<path style="fill:#556080;" d="M24.235,51.156c0,0.742-0.606,1.339-1.348,1.339c-0.744,0-1.348-0.597-1.348-1.339
			c0-0.75,0.604-1.348,1.348-1.348C23.629,49.809,24.235,50.406,24.235,51.156L24.235,51.156z M24.235,51.156"/>
		<path style="fill:#8697CB;" d="M11.24,16.156c0.045,0.893,0.027,1.787-0.02,2.687h48.94c0.034-0.9,0.093-1.8,0.172-2.687H11.24z
			 M11.24,16.156"/>
		<path style="fill:#8697CB;" d="M10.944,21.539c-0.138,0.887-0.328,1.782-0.552,2.696h49.9c-0.086-0.888-0.138-1.789-0.157-2.696
			H10.944z M10.944,21.539"/>
	</g>
	<g>
		<path d="M22.887,57.878c3.707,0,6.73-3.017,6.73-6.73c0-3.707-3.024-6.73-6.73-6.73c-3.714,0-6.73,3.024-6.73,6.73
			C16.156,54.862,19.173,57.878,22.887,57.878L22.887,57.878z M22.887,47.113c2.221,0,4.035,1.814,4.035,4.035
			c0,2.229-1.814,4.043-4.035,4.043c-2.229,0-4.043-1.814-4.043-4.043C18.844,48.927,20.657,47.113,22.887,47.113L22.887,47.113z
			 M22.887,47.113"/>
		<path d="M65.957,32.41H64.15l-0.993-1.992c-4.469-10.254,1.328-28.473,1.386-28.657c0.138-0.414,0.066-0.862-0.19-1.21
			C64.104,0.204,63.695,0,63.27,0H6.73C6.258,0,5.823,0.244,5.58,0.651c-0.242,0.4-0.256,0.9-0.039,1.314
			c5.442,10.424,5.797,18.134,1.334,28.394L5.85,32.41H4.035C1.814,32.41,0,34.218,0,36.445v1.242c0,2.229,1.814,4.043,4.035,4.043
			h1.348v26.922c0,3.707,3.024,6.73,6.73,6.73h4.043v2.28c0,1.71,1.386,3.103,3.101,3.103h31.483c1.709,0,3.103-1.393,3.103-3.103
			v-2.28h4.035c3.714,0,6.73-3.024,6.73-6.73V41.73h1.348c2.228,0,4.043-1.814,4.043-4.043v-1.242
			C70,34.224,68.184,32.41,65.957,32.41L65.957,32.41z M8.906,2.696h52.555c-0.729,2.608-1.997,7.782-2.484,13.461H12.586
			C12.389,11.812,11.181,7.467,8.906,2.696L8.906,2.696z M58.792,21.539H12.298c0.138-0.9,0.236-1.802,0.283-2.696h46.238
			C58.787,19.744,58.774,20.639,58.792,21.539L58.792,21.539z M9.313,31.497c1.099-2.531,1.927-4.93,2.478-7.271h47.165
			c0.256,2.603,0.789,5.115,1.762,7.336l0.369,0.742H8.906L9.313,31.497z M51.148,77.663c0,0.224-0.183,0.407-0.407,0.407H19.257
			c-0.229,0-0.414-0.183-0.414-0.407v-2.28h32.304V77.663z M61.922,60.463c-4.634-0.703-6.73-5.023-6.73-9.315
			c0-3.707-3.024-6.73-6.73-6.73c-3.714,0-6.73,3.024-6.73,6.73c0,3.714,3.017,6.73,6.73,6.73c1.866,0,3.555-0.762,4.779-1.997
			c1.36,4.075,4.528,6.816,8.682,7.303v5.468c0,2.228-1.814,4.035-4.043,4.035H12.113c-2.228,0-4.035-1.807-4.035-4.035V41.73
			h53.844V60.463z M52.496,51.148c0,2.229-1.807,4.043-4.035,4.043s-4.043-1.814-4.043-4.043c0-2.221,1.816-4.035,4.043-4.035
			S52.496,48.927,52.496,51.148L52.496,51.148z M67.304,37.687c0,0.744-0.604,1.348-1.348,1.348H4.035
			c-0.742,0-1.339-0.604-1.339-1.348v-1.242c0-0.742,0.597-1.341,1.339-1.341h61.922c0.744,0,1.348,0.599,1.348,1.341V37.687z
			 M67.304,37.687"/>
		<path d="M16.347,62.618c1.38,3.259,3.549,5.475,6.455,6.592c1.531,0.584,3.115,0.808,4.627,0.808c3.332,0,6.303-1.065,7.525-1.563
			c1.775,0.729,7.25,2.642,12.153,0.755c2.951-1.131,5.14-3.399,6.52-6.744c0.276-0.67-0.027-1.445-0.69-1.742
			c-0.665-0.303-1.445-0.013-1.768,0.638c-0.407,0.841-1.445,1.61-2.517,1.38c-1.307-0.276-2.635-0.914-3.931-1.893
			c-1.728-1.307-3.549-1.827-5.41-1.551c-1.906,0.289-3.417,1.386-4.358,2.282c-0.946-0.895-2.452-1.992-4.356-2.282
			c-1.861-0.283-3.681,0.244-5.41,1.551c-1.302,0.979-2.623,1.617-3.931,1.893c-1.158,0.244-2.103-0.459-2.485-1.294
			c-0.013-0.034-0.025-0.067-0.039-0.099l-0.027-0.045c-0.025-0.047-0.052-0.093-0.079-0.138c-0.362-0.554-1.07-0.769-1.689-0.493
			c-0.656,0.301-0.959,1.07-0.683,1.742C16.288,62.48,16.313,62.553,16.347,62.618L16.347,62.618z M21.815,65.378
			c1.696-0.36,3.379-1.163,4.996-2.384c1.143-0.862,2.241-1.203,3.365-1.033c2.142,0.316,3.673,2.379,3.687,2.393
			c0.249,0.355,0.658,0.565,1.09,0.565c0.434,0,0.841-0.21,1.099-0.565c0.013-0.02,1.538-2.07,3.666-2.393
			c1.131-0.163,2.236,0.172,3.385,1.033c1.61,1.222,3.293,2.024,4.996,2.384c0.079,0.014,0.158,0.027,0.237,0.04
			c-0.651,0.538-1.381,0.966-2.176,1.275c-4.74,1.821-10.57-0.9-10.622-0.927c-0.368-0.172-0.801-0.172-1.163,0
			c-0.059,0.032-5.844,2.761-10.609,0.927c-0.803-0.31-1.531-0.73-2.189-1.275C21.657,65.412,21.736,65.391,21.815,65.378
			L21.815,65.378z M21.815,65.378"/>
		<path d="M24.226,51.148c0,0.75-0.597,1.348-1.339,1.348c-0.75,0-1.348-0.597-1.348-1.348c0-0.742,0.597-1.339,1.348-1.339
			C23.629,49.809,24.226,50.406,24.226,51.148L24.226,51.148z M24.226,51.148"/>
	</g>
</g>
</svg>
