<?xml version="1.0" encoding="iso-8859-1"?>
<!-- Generator: Adobe Illustrator 21.1.0, SVG Export Plug-In . SVG Version: 6.00 Build 0)  -->
<svg version="1.1" id="&#x421;&#x43B;&#x43E;&#x439;_1"
	 xmlns="http://www.w3.org/2000/svg" xmlns:xlink="http://www.w3.org/1999/xlink" x="0px" y="0px" viewBox="0 0 70 79.777"
	 style="enable-background:new 0 0 70 79.777;" xml:space="preserve">
<g>
	<g>
		<path style="fill:#FFDB2B;" d="M48.035,22.488C33.912,20.311,28.482,27.7,28.482,27.7c-10.101-0.981-14.341-3.907-14.341-3.907
			c-2.183,2.539-4.685,3.85-6.518,4.525v38.489c0,2.871,2.35,5.212,5.213,5.212h44.32c2.869,0,5.219-2.341,5.219-5.212V25.09
			C51.835,31.283,48.035,22.488,48.035,22.488L48.035,22.488z M48.035,22.488"/>
		<path style="fill:#8697CB;" d="M54.84,47.253c0,4.321-3.502,7.823-7.823,7.823c-4.321,0-7.823-3.502-7.823-7.823
			c0-4.321,3.502-7.823,7.823-7.823C51.338,39.43,54.84,42.932,54.84,47.253L54.84,47.253z M54.84,47.253"/>
		<path style="fill:#556080;" d="M47.017,56.381c-5.028,0-9.126-4.1-9.126-9.128c0-5.028,4.098-9.128,9.126-9.128
			c5.028,0,9.128,4.1,9.128,9.128C56.145,52.282,52.045,56.381,47.017,56.381L47.017,56.381z M47.017,40.736
			c-3.596,0-6.518,2.922-6.518,6.518c0,3.596,2.922,6.518,6.518,6.518c3.596,0,6.518-2.922,6.518-6.518
			C53.535,43.657,50.613,40.736,47.017,40.736L47.017,40.736z M47.017,40.736"/>
		<path style="fill:#8697CB;" d="M31.373,47.253c0,4.321-3.502,7.823-7.816,7.823c-4.323,0-7.823-3.502-7.823-7.823
			c0-4.321,3.5-7.823,7.823-7.823C27.871,39.43,31.373,42.932,31.373,47.253L31.373,47.253z M31.373,47.253"/>
		<path style="fill:#556080;" d="M23.557,56.381c-5.035,0-9.128-4.1-9.128-9.128c0-5.028,4.093-9.128,9.128-9.128
			c5.028,0,9.12,4.1,9.12,9.128C32.676,52.282,28.585,56.381,23.557,56.381L23.557,56.381z M23.557,40.736
			c-3.596,0-6.518,2.922-6.518,6.518c0,3.596,2.922,6.518,6.518,6.518c3.59,0,6.518-2.922,6.518-6.518
			C30.074,43.657,27.146,40.736,23.557,40.736L23.557,40.736z M23.557,40.736"/>
		<g>
			<defs>
				<rect id="SVGID_1_" x="1.33" y="0.978" width="66.48" height="77.821"/>
			</defs>
			<clipPath id="SVGID_2_">
				<use xlink:href="#SVGID_1_"  style="overflow:visible;"/>
			</clipPath>
			<path style="clip-path:url(#SVGID_2_);fill:#FEC722;" d="M50.245,77.231H19.757c-0.943,0-1.699-0.756-1.699-1.698v-3.515h33.886
				v3.515C51.943,76.475,51.187,77.231,50.245,77.231L50.245,77.231z M50.245,77.231"/>
			<path style="clip-path:url(#SVGID_2_);fill:#5E5F62;" d="M67.589,25.09c-0.808-5.848-3.373-9.75-5.83-11.774
				c-1.191-0.981-1.871-2.413-2.26-3.909c-1.043-4.047-4.875-6.205-8.859-6.472c-2.534-0.173-4.748,0.631-7.282,1.643
				c-0.795,0.318-1.763-0.013-2.069-0.815c-1.553-4.137-10.469-2.019-17.267,4.888c-0.324,0.331-0.891,0.158-0.955-0.3
				c-0.23-1.603-0.344-4.494,1.502-5.416c0,0-5.742-3.234-10.668,1.075c-1.502,1.312-2.483,3.119-2.985,5.055
				c-0.121,0.458-0.243,0.953-0.35,1.437c-0.306,1.349-2.03,1.809-2.915,0.751c-0.019-0.024-0.039-0.044-0.05-0.07
				c-0.834-1.012-2.433-0.852-2.948,0.35C1.89,17.95-2.4,32.334,7.624,44.643V28.318c1.833-0.675,4.334-1.986,6.518-4.525
				c0,0,4.24,2.926,14.341,3.907c0,0,5.429-7.389,19.553-5.213c0,0,3.8,8.796,14.34,2.602v19.553
				C62.376,44.643,69.352,37.847,67.589,25.09L67.589,25.09z M67.589,25.09"/>
		</g>
		<path style="fill:#556080;" d="M31.366,49.264c-0.72,0-1.292-0.636-1.292-1.362c0-1.884,2.188-3.259,5.213-3.259
			c3.016,0,5.212,1.375,5.212,3.259c0,0.727-0.578,1.305-1.305,1.305c-0.719,0-1.299-0.579-1.299-1.305
			c-0.108-0.114-1.036-0.648-2.609-0.648s-2.501,0.534-2.628,0.758C32.659,48.736,32.085,49.264,31.366,49.264L31.366,49.264z
			 M31.366,49.264"/>
		<path style="fill:#F18D46;" d="M41.805,38.125c-0.274,0-0.547-0.082-0.784-0.261c-0.572-0.425-0.692-1.247-0.261-1.82l2.35-3.132
			h-3.916c-0.489,0-0.942-0.274-1.165-0.719c-0.222-0.44-0.171-0.968,0.122-1.362l3.914-5.213c0.433-0.58,1.248-0.694,1.82-0.261
			c0.58,0.425,0.694,1.246,0.261,1.82l-2.341,3.132h3.907c0.497,0,0.948,0.274,1.165,0.719c0.223,0.44,0.178,0.968-0.121,1.362
			l-3.909,5.212C42.587,37.948,42.199,38.125,41.805,38.125L41.805,38.125z M41.805,38.125"/>
		<path style="fill:#F18D46;" d="M44.408,64.196h-18.25c-0.719,0-1.304-0.578-1.304-1.297c0-0.727,0.585-1.305,1.304-1.305h18.25
			c0.725,0,1.304,0.578,1.304,1.305C45.712,63.618,45.133,64.196,44.408,64.196L44.408,64.196z M44.408,64.196"/>
	</g>
	<g>
		<g>
			<defs>
				<rect id="SVGID_3_" width="70" height="79.777"/>
			</defs>
			<clipPath id="SVGID_4_">
				<use xlink:href="#SVGID_3_"  style="overflow:visible;"/>
			</clipPath>
			<path style="clip-path:url(#SVGID_4_);" d="M46.953,37.804c-4.302,0-7.911,2.998-8.866,7.015
				c-0.808-0.313-1.783-0.497-2.865-0.497c-1.082,0-2.056,0.184-2.865,0.497c-0.955-4.017-4.562-7.015-8.866-7.015
				c-5.035,0-9.128,4.093-9.128,9.121c0,5.035,4.093,9.126,9.128,9.126c4.735,0,8.638-3.627,9.076-8.255
				c0.007-0.037,0.026-0.07,0.026-0.108c0.121-0.223,1.056-0.764,2.628-0.764c1.566,0,2.501,0.541,2.61,0.655
				c0,0.077,0.024,0.147,0.037,0.217c0.446,4.628,4.347,8.255,9.082,8.255c5.028,0,9.128-4.092,9.128-9.126
				C56.081,41.897,51.982,37.804,46.953,37.804L46.953,37.804z M23.493,53.443c-3.596,0-6.518-2.922-6.518-6.518
				c0-3.59,2.922-6.518,6.518-6.518c3.59,0,6.518,2.928,6.518,6.518C30.011,50.522,27.083,53.443,23.493,53.443L23.493,53.443z
				 M46.953,53.443c-3.596,0-6.518-2.922-6.518-6.518c0-3.59,2.922-6.518,6.518-6.518s6.518,2.928,6.518,6.518
				C53.471,50.522,50.55,53.443,46.953,53.443L46.953,53.443z M46.953,53.443"/>
			<path style="clip-path:url(#SVGID_4_);" d="M68.817,24.591c-0.732-5.322-3.029-9.91-6.288-12.604
				c-0.841-0.693-1.458-1.781-1.827-3.233c-1.082-4.181-5.015-7.103-10.031-7.446c-2.794-0.191-5.214,0.675-7.862,1.737
				c-0.088,0.039-0.197,0.033-0.355-0.07c-0.547-1.439-1.776-2.431-3.469-2.788c-3.933-0.833-9.956,1.706-14.798,6.11
				c0.007-1.159,0.248-2.195,0.903-2.521l2.203-1.1l-2.144-1.204C22.882,0.2,17.42-1.181,12.978,2.702
				c-1.61,1.413-2.781,3.386-3.386,5.709C9.47,8.882,9.343,9.392,9.229,9.894c-0.044,0.217-0.223,0.28-0.3,0.3
				c-0.139,0.031-0.254,0-0.388-0.16c-0.694-0.846-1.75-1.266-2.825-1.113c-1.038,0.14-1.91,0.808-2.324,1.77
				c-2.565,5.957-7.365,21.106,2.865,34.078v21.71c0,3.596,2.928,6.518,6.518,6.518h3.914v2.208c0,1.662,1.349,3.005,3.005,3.005
				h30.488c1.654,0,3.005-1.343,3.005-3.005v-2.208H57.1c3.596,0,6.518-2.922,6.518-6.518v-21.64
				C65.144,43.119,70.429,36.22,68.817,24.591L68.817,24.591z M5.786,11.727c0.018-0.051,0.083-0.197,0.292-0.228
				c0.077-0.007,0.28-0.013,0.427,0.165l0.083,0.103c0.725,0.859,1.859,1.229,2.959,0.961c1.121-0.267,1.98-1.141,2.229-2.26
				c0.108-0.471,0.228-0.955,0.344-1.401c0.471-1.814,1.361-3.334,2.578-4.398c2.736-2.392,5.76-2.081,7.56-1.559
				c-0.648,1.235-0.846,2.972-0.547,5.099c0.103,0.701,0.58,1.279,1.255,1.502c0.675,0.223,1.419,0.044,1.921-0.464
				C29.851,4.204,35.58,2.13,38.445,2.741c1.229,0.254,1.483,0.935,1.566,1.159c0.254,0.681,0.776,1.229,1.463,1.527
				c0.725,0.318,1.566,0.337,2.304,0.039c2.431-0.974,4.474-1.713,6.715-1.554c3.081,0.21,6.721,1.763,7.683,5.499
				c0.517,1.993,1.419,3.539,2.692,4.59c1.312,1.082,4.45,4.302,5.366,10.948c1.007,7.243-0.909,12.405-2.615,15.396V22.491
				l-1.967,1.152c-3.202,1.884-6.003,2.464-8.325,1.713c-0.363-0.116-0.694-0.256-1.007-0.427c-2.182-1.152-3.143-3.265-3.15-3.291
				h-0.006l-0.28-0.655l-0.714-0.108c-12.506-1.929-18.592,3.303-20.298,5.136c-9.076-0.987-13.016-3.596-13.047-3.616l-0.968-0.674
				l-0.764,0.891c-0.508,0.591-1.038,1.108-1.566,1.566c-1.59,1.362-3.208,2.144-4.417,2.591l-0.852,0.318v13.118
				C-0.127,29.53,3.081,17.997,5.786,11.727L5.786,11.727z M50.582,75.211c0,0.217-0.178,0.394-0.401,0.394H19.693
				c-0.223,0-0.401-0.178-0.401-0.394v-2.208h31.283v2.208H50.582z M61.007,66.479c0,2.157-1.757,3.914-3.907,3.914H12.775
				c-2.151,0-3.909-1.757-3.909-3.914V28.875c1.605-0.694,3.609-1.853,5.468-3.762c1.84,0.955,6.27,2.814,13.958,3.559l0.738,0.077
				l0.44-0.6c0.051-0.07,4.958-6.511,17.656-4.792c0.675,1.159,2.341,3.482,5.359,4.468c2.545,0.834,5.403,0.528,8.522-0.903V66.479
				z M61.007,66.479"/>
		</g>
	</g>
</g>
</svg>
