<?xml version="1.0" encoding="iso-8859-1"?>
<!-- Generator: Adobe Illustrator 21.1.0, SVG Export Plug-In . SVG Version: 6.00 Build 0)  -->
<svg version="1.1" id="Layer_1" xmlns="http://www.w3.org/2000/svg" xmlns:xlink="http://www.w3.org/1999/xlink" x="0px" y="0px"
	 viewBox="182 372.001 50 49.999" style="enable-background:new 182 372.001 50 49.999;" xml:space="preserve">
<g>
	<rect x="195.516" y="379.278" style="fill:#FFFFFF;" width="29.702" height="41.979"/>
	<path style="fill:#FFC853;" d="M185.663,384.267l16.389,8.825l2.461,3.487h-4.339l-16.389-8.825
		c-0.963-0.518-1.323-1.719-0.805-2.682l0,0C183.499,384.109,184.7,383.749,185.663,384.267z"/>
	<g>
		<polygon style="fill:#E0E0E0;" points="225.218,421.258 217.099,421.258 225.218,413.139 		"/>
		<polygon style="fill:#E0E0E0;" points="225.218,411.159 225.218,413.238 217.198,421.258 215.119,421.258 215.119,411.159 		"/>
	</g>
	<polygon style="fill:#FFFFFF;" points="217.099,413.139 217.099,421.258 225.218,413.139 	"/>
	<rect x="225.218" y="379.278" style="fill:#E0E0E0;" width="2.97" height="41.979"/>
	<path d="M203.684,388.931h-4.455v-4.455h4.455V388.931z M200.713,387.446h1.485v-1.485h-1.485V387.446z"/>
	<path d="M203.684,404.195h-4.455v-4.455h4.455V404.195z M200.713,402.71h1.485v-1.485h-1.485V402.71z"/>
	<path d="M203.684,411.901h-4.455v-4.455h4.455V411.901z M200.713,410.416h1.485v-1.485h-1.485V410.416z"/>
	<path style="fill:#A0815C;" d="M185.663,384.267c-0.963-0.518-2.164-0.158-2.682,0.805l0,0c-0.518,0.963-0.158,2.164,0.805,2.682
		l1.831,0.986l1.878-3.487L185.663,384.267z"/>
	<path style="fill:#966EC5;" d="M231.257,376.011c0-1.804-1.463-3.267-3.267-3.267s-3.267,1.463-3.267,3.267
		s1.463,3.267,3.267,3.267c0.067,0,0.132-0.003,0.198-0.007v22.184h3.069C231.257,401.456,231.257,376.111,231.257,376.011z"/>
	<g>
		<polygon style="fill:#E0E0E0;" points="222.347,413.139 217.099,418.386 217.099,421.258 225.218,413.139 		"/>
		<rect x="195.516" y="379.278" style="fill:#E0E0E0;" width="29.702" height="1.98"/>
	</g>
	<g>
		<polygon style="fill:#898890;" points="225.218,413.238 225.218,415.939 219.899,421.258 217.198,421.258 		"/>
		<rect x="225.218" y="379.278" style="fill:#898890;" width="2.97" height="1.98"/>
	</g>
	<path style="fill:#966EC5;" d="M224.723,376.011L224.723,376.011c0-1.804,1.463-3.267,3.267-3.267h-32.475
		c-1.804,0-3.267,1.463-3.267,3.267l0,0c0,1.804,1.463,3.267,3.267,3.267h32.277c0,0,0-0.004,0-0.007
		C226.08,379.169,224.723,377.749,224.723,376.011z"/>
	<path style="fill:#715599;" d="M228.188,378.353c-0.61-0.594-0.99-1.423-0.99-2.342l0,0c0-1.366,0.839-2.536,2.03-3.024
		c-0.382-0.156-0.799-0.243-1.238-0.243c-1.804,0-3.267,1.463-3.267,3.267s1.463,3.267,3.267,3.267c0.067,0,0.132-0.003,0.198-0.007
		V378.353z"/>
	<polygon style="fill:#A0815C;" points="202.052,393.092 200.174,396.579 204.513,396.579 	"/>
	<path style="fill:#FFFFFF;" d="M204.723,375.862h-1.386v-1.485h1.386V375.862z M201.852,375.862h-6.238v-1.485h6.238V375.862z"/>
	<rect x="206.11" y="385.862" width="15.643" height="1.485"/>
	<rect x="206.11" y="393.584" width="15.643" height="1.485"/>
	<rect x="206.11" y="401.225" width="15.643" height="1.485"/>
	<path d="M203.684,384.476h-4.455v4.455h4.455V384.476z M202.199,387.446h-1.485v-1.485h1.485V387.446z"/>
	<path d="M203.684,399.74h-4.455v4.455h4.455V399.74z M202.199,402.71h-1.485v-1.485h1.485V402.71z"/>
	<rect x="206.11" y="409.03" width="15.643" height="1.485"/>
	<path d="M199.228,411.901h4.455v-4.455h-4.455V411.901z M200.713,408.931h1.485v1.485h-1.485V408.931z"/>
	<path d="M205.945,397.322l-3.388-4.8l-16.542-8.907c-1.322-0.712-2.976-0.216-3.688,1.106c-0.345,0.64-0.42,1.377-0.211,2.073
		c0.209,0.697,0.677,1.27,1.317,1.615l16.554,8.913H205.945z M199.611,395.432l-12.989-6.994l1.173-2.179l12.989,6.994
		L199.611,395.432z M203.08,395.836h-2l0.865-1.607L203.08,395.836z M183.539,386.367c-0.095-0.317-0.061-0.651,0.096-0.942
		c0.324-0.601,1.076-0.827,1.676-0.503l1.177,0.634l-1.173,2.179l-1.177-0.634C183.846,386.944,183.634,386.683,183.539,386.367z"/>
	<path d="M232,376.011c0-2.211-1.799-4.01-4.01-4.01h-32.475c-2.211,0-4.01,1.799-4.01,4.01c0,1.957,1.41,3.59,3.267,3.94v6.654
		h1.485v-6.584h28.217v32.376h-8.119v8.119h-20.099V396.32h-1.485V422h29.702h1.485h2.97v-19.802H232V376.011z M195.516,378.535
		c-1.392,0-2.525-1.133-2.525-2.525s1.133-2.525,2.525-2.525h29.362c-0.028,0.035-0.055,0.07-0.082,0.106
		c-0.006,0.008-0.013,0.016-0.019,0.024c-0.036,0.048-0.071,0.097-0.105,0.147c-0.01,0.015-0.02,0.031-0.03,0.047
		c-0.023,0.035-0.046,0.07-0.068,0.106c-0.012,0.02-0.024,0.04-0.036,0.06c-0.019,0.032-0.038,0.065-0.056,0.098
		c-0.012,0.021-0.023,0.043-0.035,0.065c-0.017,0.033-0.034,0.066-0.051,0.099c-0.011,0.022-0.021,0.044-0.032,0.066
		c-0.016,0.035-0.032,0.07-0.048,0.105c-0.009,0.021-0.019,0.042-0.027,0.063c-0.017,0.041-0.033,0.082-0.049,0.123
		c-0.006,0.016-0.013,0.032-0.019,0.048c-0.021,0.058-0.041,0.116-0.059,0.174c-0.004,0.013-0.008,0.027-0.012,0.04
		c-0.014,0.046-0.027,0.092-0.039,0.138c-0.006,0.022-0.011,0.044-0.016,0.065c-0.01,0.039-0.019,0.078-0.027,0.117
		c-0.005,0.024-0.01,0.048-0.014,0.072c-0.007,0.038-0.014,0.076-0.02,0.114c-0.004,0.025-0.008,0.05-0.011,0.074
		c-0.006,0.039-0.01,0.078-0.015,0.117c-0.003,0.024-0.006,0.048-0.008,0.073c-0.004,0.043-0.007,0.086-0.01,0.129
		c-0.001,0.021-0.003,0.042-0.004,0.063c-0.003,0.064-0.005,0.129-0.005,0.193c0,0.061,0.001,0.122,0.004,0.183
		c0.001,0.022,0.003,0.044,0.004,0.066c0.002,0.038,0.005,0.077,0.008,0.115c0.002,0.027,0.006,0.053,0.009,0.079
		c0.004,0.033,0.007,0.066,0.012,0.099c0.004,0.029,0.009,0.057,0.013,0.086c0.005,0.03,0.009,0.06,0.015,0.09
		c0.005,0.03,0.012,0.06,0.018,0.089c0.006,0.028,0.011,0.056,0.018,0.084c0.007,0.03,0.015,0.061,0.022,0.091
		c0.007,0.027,0.013,0.053,0.021,0.079c0.008,0.031,0.017,0.061,0.026,0.091c0.008,0.026,0.015,0.051,0.024,0.077
		c0.01,0.03,0.02,0.06,0.031,0.09c0.009,0.025,0.018,0.05,0.027,0.075c0.011,0.03,0.022,0.059,0.034,0.088
		c0.01,0.025,0.02,0.049,0.031,0.074c0.012,0.029,0.024,0.057,0.037,0.085c0.011,0.025,0.023,0.049,0.034,0.074
		c0.013,0.027,0.026,0.054,0.04,0.081c0.013,0.025,0.026,0.05,0.039,0.075c0.013,0.025,0.027,0.051,0.041,0.076
		c0.015,0.026,0.03,0.053,0.045,0.079c0.014,0.023,0.027,0.046,0.041,0.069c0.017,0.028,0.035,0.056,0.054,0.084
		c0.013,0.02,0.026,0.04,0.039,0.06c0.021,0.031,0.043,0.062,0.065,0.093c0.011,0.015,0.022,0.031,0.033,0.046
		c0.028,0.038,0.057,0.076,0.087,0.113c0.006,0.007,0.011,0.015,0.017,0.022c0.003,0.004,0.006,0.007,0.008,0.011L195.516,378.535
		L195.516,378.535z M223.425,413.881l-5.583,5.583v-5.583H223.425z M218.892,420.515l5.583-5.583v5.583H218.892z M227.446,420.515
		h-1.485v-40.494h1.485v22.178V420.515z M230.515,400.713h-1.584v-21.435v-0.795l-0.787,0.048c-0.051,0.003-0.102,0.005-0.153,0.005
		c-0.039,0-0.077-0.001-0.115-0.003l-0.038-0.002c-0.208-0.012-0.408-0.05-0.599-0.109c-0.236-0.074-0.457-0.181-0.658-0.317
		c-0.001,0-0.001-0.001-0.002-0.001c-0.033-0.022-0.065-0.045-0.096-0.068c-0.002-0.001-0.004-0.003-0.006-0.004
		c-0.03-0.023-0.06-0.046-0.089-0.07c-0.003-0.003-0.006-0.005-0.009-0.008c-0.027-0.023-0.054-0.046-0.081-0.07
		c-0.004-0.004-0.009-0.008-0.013-0.012c-0.025-0.023-0.049-0.046-0.073-0.069c-0.006-0.006-0.011-0.011-0.017-0.017
		c-0.022-0.022-0.044-0.045-0.065-0.068c-0.007-0.007-0.013-0.015-0.02-0.022c-0.02-0.022-0.039-0.044-0.058-0.067
		c-0.007-0.009-0.015-0.018-0.022-0.027c-0.017-0.021-0.034-0.043-0.051-0.065c-0.008-0.011-0.016-0.021-0.024-0.032
		c-0.015-0.021-0.03-0.042-0.045-0.063c-0.009-0.012-0.017-0.025-0.025-0.038c-0.013-0.02-0.026-0.04-0.039-0.061
		c-0.009-0.014-0.017-0.028-0.026-0.042c-0.012-0.02-0.023-0.039-0.034-0.059c-0.009-0.016-0.017-0.031-0.026-0.047
		c-0.01-0.019-0.02-0.038-0.029-0.057c-0.009-0.017-0.017-0.034-0.025-0.051c-0.009-0.019-0.017-0.037-0.025-0.056
		c-0.008-0.018-0.016-0.037-0.024-0.055c-0.008-0.018-0.015-0.037-0.022-0.055c-0.008-0.019-0.015-0.039-0.022-0.058
		c-0.007-0.018-0.012-0.037-0.019-0.055c-0.007-0.02-0.013-0.04-0.02-0.06c-0.006-0.018-0.011-0.037-0.016-0.056
		c-0.006-0.021-0.012-0.041-0.017-0.062c-0.005-0.019-0.009-0.038-0.013-0.057c-0.005-0.021-0.01-0.041-0.014-0.062
		c-0.004-0.02-0.007-0.041-0.011-0.061c-0.004-0.02-0.007-0.04-0.01-0.06c-0.003-0.022-0.006-0.045-0.009-0.067
		c-0.002-0.019-0.005-0.037-0.007-0.056c-0.003-0.026-0.004-0.053-0.006-0.08c-0.001-0.015-0.003-0.03-0.003-0.046
		c-0.002-0.042-0.003-0.084-0.003-0.127c0-1.392,1.133-2.525,2.525-2.525c1.392,0,2.525,1.133,2.525,2.525L230.515,400.713
		L230.515,400.713z"/>
</g>
</svg>
