<?xml version="1.0" encoding="iso-8859-1"?>
<!-- Generator: Adobe Illustrator 21.1.0, SVG Export Plug-In . SVG Version: 6.00 Build 0)  -->
<svg version="1.1" id="&#x421;&#x43B;&#x43E;&#x439;_1"
	 xmlns="http://www.w3.org/2000/svg" xmlns:xlink="http://www.w3.org/1999/xlink" x="0px" y="0px" viewBox="0 0 50 32.639"
	 style="enable-background:new 0 0 50 32.639;" xml:space="preserve">
<g>
	<g>
		<defs>
			<rect id="SVGID_1_" width="50" height="32.639"/>
		</defs>
		<clipPath id="SVGID_2_">
			<use xlink:href="#SVGID_1_"  style="overflow:visible;"/>
		</clipPath>
		<path style="clip-path:url(#SVGID_2_);fill:#FFFFFF;" d="M48.953,7.308c-1.883-2.246-3.86-4.405-5.927-6.483
			c-0.89-0.892-2.062-0.45-2.58,0.374c-5.167,4.343-10.283,9.302-15.454,13.64C20.047,9.917,14.448,5.176,9.321,0.456
			C8.746-0.076,8.067-0.095,7.514,0.157C6.988,0.198,6.502,0.518,6.149,0.976C4.481,3.135,2.721,5.224,0.89,7.245
			c-0.835,0.51-1.297,1.699-0.407,2.602c7.105,7.226,15.112,13.552,21.482,21.481c0.176,0.22,0.366,0.366,0.564,0.456
			c0.597,0.456,1.46,0.57,2.165-0.084c7.986-7.394,16.444-14.269,24.259-21.851c0.529-0.515,0.594-1.128,0.394-1.651
			C49.308,7.894,49.189,7.59,48.953,7.308L48.953,7.308z M23.644,28.149C17.751,21.045,10.59,15.185,4.05,8.702
			c1.397-1.584,2.745-3.209,4.053-4.867c5.032,4.503,10.428,9.147,15.158,13.976c0.247,0.253,0.518,0.391,0.79,0.456
			c0.594,0.404,1.424,0.499,2.124-0.085c5.249-4.383,10.431-9.399,15.658-13.807c1.283,1.332,2.52,2.704,3.73,4.099
			C38.463,15.261,30.889,21.525,23.644,28.149L23.644,28.149z M23.644,28.149"/>
	</g>
</g>
</svg>
