<?xml version="1.0" encoding="iso-8859-1"?>
<!-- Generator: Adobe Illustrator 21.1.0, SVG Export Plug-In . SVG Version: 6.00 Build 0)  -->
<svg version="1.1" id="&#x421;&#x43B;&#x43E;&#x439;_1"
	 xmlns="http://www.w3.org/2000/svg" xmlns:xlink="http://www.w3.org/1999/xlink" x="0px" y="0px" viewBox="0 0 30 30"
	 style="enable-background:new 0 0 30 30;" xml:space="preserve">
<g>
	<path style="fill:#FFFFFF;" d="M15,13.001c1.931,0,3.501-1.57,3.501-3.501c0-1.929-1.57-3.498-3.501-3.498
		s-3.501,1.569-3.501,3.498C11.499,11.431,13.069,13.001,15,13.001L15,13.001z M15,6.999c1.379,0,2.5,1.123,2.5,2.5
		c0,1.379-1.121,2.5-2.5,2.5c-1.379,0-2.5-1.121-2.5-2.5C12.5,8.123,13.621,6.999,15,6.999L15,6.999z M15,6.999"/>
	<path style="fill:#FFFFFF;" d="M14.912,27.378l7.671-11.079c2.876-3.836,2.461-10.139-0.891-13.489C19.881,0.999,17.473,0,14.912,0
		c-2.561,0-4.971,0.999-6.779,2.808c-3.352,3.352-3.77,9.656-0.904,13.477L14.912,27.378z M8.838,3.516
		c1.623-1.621,3.779-2.514,6.074-2.514c2.292,0,4.451,0.893,6.072,2.514c3.025,3.025,3.399,8.718,0.786,12.2l-6.858,9.907
		l-6.87-9.922C5.442,12.234,5.813,6.541,8.838,3.516L8.838,3.516z M8.838,3.516"/>
	<path style="fill:#FFFFFF;" d="M21.059,21.504c-0.276-0.034-0.525,0.164-0.556,0.437c-0.032,0.276,0.163,0.522,0.439,0.557
		c5.256,0.617,8.056,2.285,8.056,3.252c0,1.358-5.324,3.249-13.999,3.249c-8.674,0-13.999-1.892-13.999-3.249
		c0-0.967,2.8-2.634,8.056-3.252c0.276-0.034,0.471-0.283,0.439-0.557c-0.034-0.273-0.281-0.471-0.556-0.437
		C3.677,22.124,0,23.869,0,25.749C0,27.861,5.151,30,15,30s15-2.139,15-4.251C30,23.869,26.323,22.124,21.059,21.504L21.059,21.504z
		 M21.059,21.504"/>
</g>
</svg>
