<?xml version="1.0" encoding="iso-8859-1"?>
<!-- Generator: Adobe Illustrator 21.1.0, SVG Export Plug-In . SVG Version: 6.00 Build 0)  -->
<svg version="1.1" id="Layer_1" xmlns="http://www.w3.org/2000/svg" xmlns:xlink="http://www.w3.org/1999/xlink" x="0px" y="0px"
	 viewBox="171.999 363.125 70 67.75" style="enable-background:new 171.999 363.125 70 67.75;" xml:space="preserve">
<g>
	<polygon style="fill:#213847;" points="223.156,406.733 219.868,410.02 217.815,412.072 212.6,406.733 217.877,401.396 
		219.906,403.448 	"/>
	<path style="fill:#324A5E;" d="M223.156,406.733l-3.288,3.288l-0.713-0.73c-1.387-1.42-1.38-3.689,0.016-5.1l0.734-0.743
		L223.156,406.733z"/>
	<polygon style="fill:#D1AB0D;" points="240.604,421.328 235.362,426.57 232.346,429.587 216.026,413.075 224.189,404.822 
		228.057,408.712 	"/>
	<path style="fill:#F8CE19;" d="M240.604,421.328l-5.242,5.242l-7.308-7.393c-2.866-2.901-2.865-7.568,0.003-10.466l2.452,2.465
		L240.604,421.328z"/>
	<path style="fill:#F9D84E;" d="M238.875,419.457l-0.026,0.026c-1.286,1.286-3.372,1.288-4.66,0.003l-3.666-3.656
		c-1.286-1.282-1.293-3.363-0.015-4.654l0,0L238.875,419.457z"/>
	<path style="fill:#D1AB0D;" d="M222.639,387.635c0,13.028-10.562,23.59-23.59,23.59c-4.926,0-9.501-1.511-13.285-4.094
		c-6.221-4.248-10.305-11.395-10.305-19.496c0-13.028,10.562-23.59,23.59-23.59c7.098,0,13.462,3.134,17.786,8.094
		C220.45,376.285,222.639,381.704,222.639,387.635z"/>
	<path style="fill:#F8CE19;" d="M222.639,387.635c0,13.028-10.562,23.59-23.59,23.59c-4.926,0-9.501-1.511-13.285-4.094
		c-3.615-4.145-5.804-9.565-5.804-15.496c0-13.028,10.562-23.59,23.59-23.59c4.927,0,9.502,1.511,13.285,4.094
		C220.45,376.285,222.639,381.704,222.639,387.635z"/>
	<circle style="fill:#F9D84E;" cx="201.022" cy="388.75" r="17.642"/>
	<path style="fill:#AEB9CC;" d="M215.576,387.635c0,9.128-7.399,16.527-16.527,16.527c-5.831,0-10.956-3.02-13.898-7.58
		c-1.664-2.58-2.629-5.65-2.629-8.948c0-9.128,7.399-16.527,16.527-16.527c4.015,0,7.695,1.431,10.559,3.813
		C213.255,377.953,215.576,382.522,215.576,387.635z"/>
	<path style="fill:#C8D0E2;" d="M212.24,383.872c0,9.128-7.399,16.527-16.527,16.527c-4.016,0-7.698-1.432-10.562-3.817
		c-1.664-2.58-2.629-5.65-2.629-8.948c0-9.128,7.399-16.527,16.527-16.527c4.015,0,7.695,1.431,10.559,3.813
		C211.274,377.5,212.24,380.574,212.24,383.872z"/>
	<path style="fill:#C62E1E;" d="M210.19,393.329c0,1.551-1.257,2.81-2.81,2.81c-1.177,0-2.184-0.723-2.601-1.749
		c-0.135-0.327-0.209-0.685-0.209-1.061c0-1.552,1.257-2.811,2.81-2.811c0.219,0,0.434,0.026,0.638,0.074
		C209.262,390.88,210.19,391.996,210.19,393.329z"/>
	<path style="fill:#EF4C35;" d="M208.227,391.654c0,1.552-1.259,2.81-2.811,2.81c-0.219,0-0.432-0.026-0.637-0.074
		c-0.135-0.327-0.209-0.685-0.209-1.061c0-1.552,1.257-2.811,2.81-2.811c0.219,0,0.434,0.026,0.638,0.074
		C208.153,390.919,208.227,391.279,208.227,391.654z"/>
	<path style="fill:#579E2E;" d="M229.714,374.122c0,1.551-1.257,2.81-2.81,2.81c-1.177,0-2.184-0.723-2.601-1.749
		c-0.135-0.327-0.209-0.685-0.209-1.061c0-1.552,1.257-2.811,2.81-2.811c0.219,0,0.434,0.026,0.638,0.074
		C228.786,371.673,229.714,372.789,229.714,374.122z"/>
	<path style="fill:#75BF4D;" d="M227.751,372.447c0,1.552-1.259,2.81-2.811,2.81c-0.219,0-0.432-0.026-0.637-0.074
		c-0.135-0.327-0.209-0.685-0.209-1.061c0-1.552,1.257-2.811,2.81-2.811c0.219,0,0.434,0.026,0.638,0.074
		C227.677,371.712,227.751,372.072,227.751,372.447z"/>
	<path style="fill:#C62E1E;" d="M178.269,406.392c0,1.551-1.257,2.81-2.81,2.81c-1.177,0-2.184-0.723-2.601-1.749
		c-0.135-0.327-0.209-0.685-0.209-1.061c0-1.552,1.257-2.811,2.81-2.811c0.219,0,0.434,0.026,0.638,0.074
		C177.342,403.943,178.269,405.06,178.269,406.392z"/>
	<path style="fill:#EF4C35;" d="M176.306,404.718c0,1.552-1.259,2.81-2.811,2.81c-0.219,0-0.432-0.026-0.637-0.074
		c-0.135-0.327-0.209-0.685-0.209-1.061c0-1.552,1.257-2.811,2.81-2.811c0.219,0,0.434,0.026,0.638,0.074
		C176.232,403.983,176.306,404.342,176.306,404.718z"/>
	<path style="fill:#579E2E;" d="M195.722,388.838c0,1.551-1.257,2.81-2.81,2.81c-1.177,0-2.184-0.723-2.601-1.749
		c-0.135-0.327-0.209-0.685-0.209-1.061c0-1.552,1.257-2.811,2.81-2.811c0.219,0,0.434,0.026,0.638,0.074
		C194.795,386.389,195.722,387.505,195.722,388.838z"/>
	<path style="fill:#75BF4D;" d="M193.76,387.163c0,1.552-1.259,2.81-2.811,2.81c-0.219,0-0.432-0.026-0.637-0.074
		c-0.135-0.327-0.209-0.685-0.209-1.061c0-1.552,1.257-2.811,2.81-2.811c0.219,0,0.434,0.026,0.638,0.074
		C193.686,386.428,193.76,386.788,193.76,387.163z"/>
	<path d="M211.583,375.097c-3.349-3.349-7.802-5.194-12.538-5.194c-4.736,0-9.189,1.844-12.538,5.194
		c-6.914,6.914-6.914,18.163,0,25.077c3.349,3.349,7.802,5.194,12.538,5.194c4.736,0,9.189-1.844,12.538-5.194
		c3.349-3.349,5.193-7.802,5.193-12.538C216.777,382.899,214.932,378.446,211.583,375.097z M199.045,403.348
		c-4.197,0-8.143-1.634-11.11-4.602c-0.589-0.589-1.122-1.215-1.598-1.869l4.589-4.757c0.5,0.263,1.068,0.413,1.67,0.413
		c1.246,0,2.346-0.637,2.992-1.602l8.09,2.538c0,0.023-0.002,0.047-0.002,0.07c0,1.984,1.614,3.599,3.599,3.599
		c1.984,0,3.599-1.614,3.599-3.599c0-0.611-0.154-1.187-0.424-1.692l4.308-4.212c0,4.197-1.634,8.142-4.602,11.11
		C207.188,401.713,203.242,403.348,199.045,403.348z M210.155,376.525c2.342,2.342,3.853,5.294,4.386,8.497l-5.504,5.383
		c-0.521-0.294-1.122-0.463-1.762-0.463c-1.246,0-2.346,0.637-2.992,1.602l-8.09-2.538c0-0.023,0.002-0.047,0.002-0.07
		c0-1.984-1.614-3.599-3.599-3.599c-1.984,0-3.599,1.614-3.599,3.599c0,0.649,0.173,1.257,0.475,1.783l-4.245,4.4
		c-3.221-5.955-2.32-13.567,2.706-18.593c2.968-2.968,6.914-4.602,11.11-4.602C203.242,371.923,207.188,373.557,210.155,376.525z
		 M208.854,393.54c0,0.871-0.708,1.579-1.579,1.579s-1.579-0.708-1.579-1.579c0-0.871,0.708-1.579,1.579-1.579
		S208.854,392.67,208.854,393.54z M194.175,388.934c0,0.871-0.708,1.579-1.579,1.579c-0.871,0-1.579-0.708-1.579-1.579
		c0-0.871,0.708-1.579,1.579-1.579C193.467,387.355,194.175,388.064,194.175,388.934z"/>
	<path d="M202.886,376.669l0.664-1.907c-4.618-1.609-9.771-0.623-13.447,2.573l1.325,1.524
		C194.559,376.137,198.95,375.297,202.886,376.669z"/>
	<path d="M207.933,377.288c-0.56-0.482-1.163-0.92-1.791-1.303l-1.051,1.725c0.534,0.326,1.047,0.699,1.525,1.109L207.933,377.288z"
		/>
	<path d="M194.707,398.416l-0.751,1.875c1.627,0.652,3.347,0.981,5.079,0.981c0.948,0,1.9-0.099,2.842-0.298l-0.417-1.976
		C199.189,399.477,196.854,399.276,194.707,398.416z"/>
	<path d="M224.34,403.859l-1.466,1.466l-3.638-3.888c4.305-6.293,5.342-14.166,3.108-21.22l2.886-2.822
		c0.508,0.274,1.088,0.43,1.705,0.43c1.984,0,3.599-1.614,3.599-3.599c0-0.588-0.142-1.142-0.393-1.633l6.196-6.058v3.131h2.019
		v-6.541h-6.541v2.019h3.054l-6.114,5.979c-0.534-0.315-1.156-0.496-1.82-0.496c-1.984,0-3.599,1.614-3.599,3.599
		c0,0.635,0.166,1.232,0.456,1.75l-2.212,2.163c-1.191-2.836-2.937-5.491-5.242-7.797c-9.536-9.536-25.051-9.535-34.587,0
		c-8.494,8.494-9.422,21.734-2.783,31.265l-1.7,1.762c-0.5-0.263-1.068-0.413-1.67-0.413c-1.984,0-3.598,1.614-3.598,3.598
		c0,1.984,1.614,3.599,3.599,3.599s3.599-1.614,3.599-3.599c0-0.649-0.173-1.257-0.475-1.783l1.486-1.54
		c0.484,0.584,0.998,1.151,1.544,1.698c4.768,4.768,11.031,7.152,17.294,7.152c4.808,0,9.615-1.407,13.746-4.216l3.646,3.897
		l-1.516,1.516l17.659,17.597l9.42-9.419L224.34,403.859z M225.356,374.225c0-0.871,0.708-1.579,1.579-1.579
		c0.871,0,1.579,0.708,1.579,1.579c0,0.871-0.708,1.579-1.579,1.579S225.356,375.096,225.356,374.225z M177.177,406.554
		c0,0.871-0.708,1.579-1.579,1.579s-1.579-0.708-1.579-1.579s0.708-1.579,1.579-1.579S177.177,405.684,177.177,406.554z
		 M183.179,403.501c-8.748-8.748-8.748-22.983,0-31.731c4.374-4.374,10.12-6.561,15.865-6.561s11.491,2.187,15.866,6.561
		c8.748,8.748,8.748,22.983,0,31.731C206.162,412.249,191.927,412.249,183.179,403.501z M214.423,406.653
		c0.661-0.535,1.301-1.109,1.915-1.724c0.594-0.594,1.151-1.211,1.67-1.848l3.436,3.673l-3.579,3.579L214.423,406.653z
		 M232.578,428.022l-14.798-14.747l6.563-6.563l14.798,14.747L232.578,428.022z"/>
	<polygon points="221.452,412.533 222.88,413.961 224.342,412.499 229.915,418.073 231.343,416.645 224.342,409.644 	"/>
	<rect x="232.1" y="418.777" transform="matrix(0.7071 -0.7071 0.7071 0.7071 -228.5922 287.8002)" width="2.019" height="2.116"/>
	<rect x="182.941" y="413.115" width="2.019" height="2.2"/>
	<rect x="182.941" y="425.447" width="2.019" height="2.2"/>
	<rect x="199.573" y="417.358" width="2.019" height="2.2"/>
	<rect x="228.514" y="399.195" width="2.019" height="2.2"/>
	<rect x="230.806" y="381.672" width="2.019" height="2.2"/>
	<rect x="237.498" y="390.951" width="2.019" height="2.2"/>
</g>
</svg>
