<?xml version="1.0" encoding="iso-8859-1"?>
<!-- Generator: Adobe Illustrator 21.1.0, SVG Export Plug-In . SVG Version: 6.00 Build 0)  -->
<svg version="1.1" id="Layer_1" xmlns="http://www.w3.org/2000/svg" xmlns:xlink="http://www.w3.org/1999/xlink" x="0px" y="0px"
	 viewBox="183.508 362.001 46.982 70" style="enable-background:new 183.508 362.001 46.982 70;" xml:space="preserve">
<g>
	<g>
		<path style="fill:#F4C49D;" d="M190.894,382.826c-2.935,0-5.314,2.379-5.314,5.314l0,0c0,2.935,2.379,5.314,5.314,5.314h2.439
			v-10.628H190.894z"/>
		<path style="fill:#F4C49D;" d="M223.105,382.826c2.935,0,5.314,2.379,5.314,5.314l0,0c0,2.935-2.379,5.314-5.314,5.314h-2.439
			v-10.628H223.105z"/>
		<rect x="202.42" y="400.554" style="fill:#F4C49D;" width="9.159" height="8.93"/>
	</g>
	<path style="opacity:0.15;fill:#333333;enable-background:new    ;" d="M202.419,406.772c1.469,0.355,3.003,0.545,4.58,0.545
		s3.11-0.19,4.58-0.545v-6.826h-9.16L202.419,406.772L202.419,406.772z"/>
	<path style="fill:#FCCDA2;" d="M206.999,363.276L206.999,363.276c-9.152,0-16.572,7.42-16.572,16.572v8.598
		c0,9.152,7.42,16.572,16.572,16.572l0,0c9.152,0,16.572-7.42,16.572-16.572v-8.598
		C223.571,370.696,216.152,363.276,206.999,363.276z"/>
	<path style="fill:#293133;" d="M215.924,409.483h-17.849c-6.901,0-12.495,5.594-12.495,12.495v8.933h42.839v-8.933
		C228.419,415.077,222.824,409.483,215.924,409.483z"/>
	<path style="fill:#FFF9F2;" d="M207,424.848c0,0,7.289-10.229,10.844-15.218c-0.626-0.096-1.267-0.147-1.919-0.147h-17.849
		c-0.652,0-1.293,0.05-1.919,0.147L207,424.848z"/>
	<polygon style="fill:#FF99AA;" points="208.071,409.483 209.772,411.808 208.071,414.781 205.928,414.781 204.226,411.808 
		205.928,409.483 	"/>
	<polygon style="fill:#FF8095;" points="209.579,421.227 208.071,414.781 205.928,414.781 204.419,421.227 207,424.848 	"/>
	<path style="fill:#B06D4F;" d="M206.999,363.276L206.999,363.276c-7.907,0-14.519,5.538-16.173,12.946
		c0.561,1.034,1.656,1.737,2.915,1.737c1.831,0,3.314-1.484,3.314-3.314c0,1.831,1.484,3.314,3.314,3.314
		c1.83,0,3.314-1.484,3.314-3.314c0,1.831,1.484,3.314,3.314,3.314s3.314-1.484,3.314-3.314c0,1.831,1.484,3.314,3.314,3.314
		s3.314-1.484,3.314-3.314c0,1.831,1.484,3.314,3.314,3.314c1.259,0,2.355-0.702,2.915-1.737
		C221.518,368.814,214.906,363.276,206.999,363.276z"/>
	<path style="fill:#1F2326;" d="M187.848,378.622c-0.602,0-1.09-0.488-1.09-1.09v-12.019c0-0.602,0.488-1.09,1.09-1.09
		s1.09,0.488,1.09,1.09v12.019C188.938,378.134,188.45,378.622,187.848,378.622z"/>
	<g>
		<path style="fill:#293133;" d="M184.598,363.09v4.149h14.631v5.286c4.867-0.996,7.77,1.862,7.77,1.862s2.903-2.858,7.77-1.862
			v-5.286h14.632v-4.149H184.598z"/>
		<circle style="fill:#293133;" cx="187.848" cy="377.533" r="3.232"/>
	</g>
	<path style="opacity:0.1;fill:#333333;enable-background:new    ;" d="M193.47,388.499v-8.598c0-0.643,0.038-1.277,0.109-1.9
		c0.004,0,0.008,0,0.012,0l0.277-1.722c0.001-0.005,0.002-0.009,0.003-0.014c0.144-0.644,0.326-1.274,0.543-1.888
		c0.001-0.004,0.003-0.007,0.004-0.011c2.115-5.972,7.557-10.37,14.098-10.967c-0.503-0.046-1.011-0.07-1.526-0.07l0,0
		c-6.83,0-12.691,4.133-15.227,10.034h-0.005c-0.031,0.073-0.061,0.146-0.091,0.22c-0.002,0.006-0.005,0.011-0.007,0.017
		c-0.087,0.212-0.17,0.426-0.249,0.643c-0.001,0.002-0.001,0.003-0.002,0.005c-0.159,0.438-0.3,0.885-0.422,1.339
		c0,0,0,0.001,0,0.001c-0.06,0.224-0.116,0.451-0.167,0.679c-0.001,0.003-0.002,0.006-0.002,0.009c0,0,0,0,0,0
		c-0.261,1.167-0.399,2.38-0.399,3.626v8.598c0,9.152,7.42,16.572,16.572,16.572l0,0c0.515,0,1.023-0.025,1.526-0.071
		C200.079,404.23,193.47,397.137,193.47,388.499z"/>
	<g>
		<circle style="fill:#26150C;" cx="199.23" cy="385.85" r="2.145"/>
		<circle style="fill:#26150C;" cx="214.769" cy="385.85" r="2.145"/>
		<path style="fill:#26150C;" d="M211.891,393.326c-1.022,0.732-2.897,1.187-4.891,1.187c-1.995,0-3.87-0.455-4.892-1.188
			c-0.489-0.351-1.17-0.239-1.521,0.251c-0.351,0.489-0.238,1.17,0.251,1.521c1.394,0.999,3.698,1.596,6.162,1.596
			c2.463,0,4.766-0.596,6.161-1.595c0.489-0.35,0.602-1.031,0.251-1.521C213.061,393.088,212.38,392.975,211.891,393.326z"/>
		<path style="fill:#26150C;" d="M229.401,362.001h-44.802c-0.602,0-1.09,0.488-1.09,1.09v4.149c0,0.602,0.488,1.09,1.09,1.09h2.16
			v5.02c-1.857,0.484-3.232,2.176-3.232,4.183c0,2.383,1.939,4.322,4.322,4.322c0.523,0,1.025-0.093,1.489-0.264v0.341
			c-2.786,0.704-4.847,3.259-4.847,6.209c0,3.37,2.617,6.138,5.925,6.384c1.836,4.993,5.865,8.934,10.914,10.65v3.219h-3.255
			c-0.157,0-0.314,0.004-0.47,0.009c-0.035,0.001-0.07,0.002-0.105,0.004c-0.316,0.013-0.63,0.037-0.94,0.072
			c-0.034,0.004-0.068,0.008-0.102,0.012c-0.153,0.018-0.305,0.038-0.456,0.061c-0.004,0.001-0.008,0.001-0.012,0.002
			c-0.002,0-0.005,0.001-0.007,0.001c-6.501,1.009-11.493,6.644-11.493,13.424v8.933c0,0.602,0.488,1.09,1.09,1.09h42.839
			c0.602,0,1.09-0.488,1.09-1.09v-8.933c0-6.779-4.99-12.413-11.49-13.423c-0.003-0.001-0.006-0.002-0.009-0.002
			c-0.005-0.001-0.011-0.001-0.016-0.002c-0.149-0.023-0.299-0.042-0.45-0.06c-0.035-0.004-0.071-0.008-0.106-0.012
			c-0.31-0.035-0.623-0.059-0.939-0.072c-0.035-0.001-0.07-0.003-0.105-0.004c-0.156-0.005-0.313-0.009-0.47-0.009h-3.255v-3.219
			c5.049-1.716,9.078-5.657,10.914-10.65c3.308-0.246,5.925-3.014,5.925-6.384c0-2.949-2.062-5.504-4.847-6.209v-2.084
			c0-1.291-0.141-2.581-0.419-3.834c-0.001-0.003-0.002-0.006-0.003-0.01c-0.001-0.006-0.002-0.013-0.003-0.019
			c-0.629-2.817-1.972-5.46-3.859-7.655h9.024c0.602,0,1.09-0.488,1.09-1.09v-4.149
			C230.491,362.488,230.003,362.001,229.401,362.001z M224.289,392.057c0.345-1.656,0.372-3.305,0.372-4.988
			c0-0.636,0-1.273,0-1.909c0-0.07,0.054-0.923,0-0.944c1.563,0.627,2.668,2.17,2.668,3.924c0,1.929-1.3,3.56-3.069,4.064
			C224.27,392.155,224.279,392.106,224.289,392.057z M186.669,388.14c0-1.754,1.104-3.297,2.668-3.924
			c0,2.66-0.167,5.368,0.402,7.988C187.969,391.7,186.669,390.069,186.669,388.14z M189.973,377.734
			c-0.112,1.04-0.994,1.941-2.125,1.941c-1.181,0-2.142-0.961-2.142-2.142s0.961-2.142,2.142-2.142c0.885,0,1.647,0.54,1.973,1.307
			c0.007,0.016,0.012,0.033,0.019,0.05C189.969,377.075,190.008,377.411,189.973,377.734z M190.334,374
			c-0.417-0.294-0.888-0.518-1.396-0.65v-5.02h4.683C192.185,370.001,191.064,371.931,190.334,374z M198.54,373.37
			c0.032,0.026,0.065,0.05,0.099,0.072c0.17,0.11,0.367,0.169,0.567,0.174c0.08,0.002,0.161-0.006,0.241-0.022
			c1.252-0.256,2.548-0.254,3.791,0.05c-0.116-0.028-0.37,0.293-0.426,0.372c-0.117,0.164-0.195,0.357-0.223,0.557
			c-0.058,0.414-0.059,0.761-0.271,1.145c-0.388,0.703-1.145,1.152-1.949,1.152c-1.227,0-2.225-0.998-2.225-2.225
			c0-0.602-0.488-1.09-1.09-1.09c-0.602,0-1.09,0.488-1.09,1.09c0,1.889-2.418,2.919-3.774,1.596
			c-0.065-0.064-0.126-0.131-0.183-0.202c-0.005-0.006-0.009-0.012-0.014-0.018c0.75-2.941,2.39-5.645,4.665-7.691h1.48v4.196
			C198.14,372.853,198.287,373.163,198.54,373.37z M202.419,410.573h1.36l-0.433,0.591c-0.254,0.347-0.28,0.812-0.066,1.185
			l1.488,2.601l-0.861,3.681l-5.742-8.058L202.419,410.573L202.419,410.573z M207.439,413.691h-0.879l-1.036-1.81l0.957-1.308h1.037
			l0.957,1.308L207.439,413.691z M208.405,420.996l-1.406,1.974l-1.237-1.737l-0.169-0.238l1.199-5.125h0.414L208.405,420.996z
			 M208.071,408.393h-2.143h-2.418v-2.631c0,0.198,2.901,0.337,3.182,0.341c1.273,0.022,2.55-0.091,3.798-0.341v2.631H208.071z
			 M218.326,410.83c5.138,1.107,9.002,5.684,9.002,11.148v7.843h-40.659v-7.843c0-5.465,3.864-10.042,9.003-11.148l8.073,11.33
			l2.366,3.321c0.051,0.072,0.11,0.136,0.175,0.193c0.196,0.169,0.448,0.265,0.712,0.265l0,0c0.032,0,0.063-0.003,0.095-0.006
			c0.012-0.001,0.024-0.001,0.036-0.002c0.026-0.003,0.05-0.009,0.076-0.014c0.017-0.003,0.035-0.005,0.052-0.009
			c0.011-0.003,0.021-0.007,0.032-0.01c0.238-0.066,0.45-0.211,0.597-0.416L218.326,410.83z M215.833,410.573l-5.742,8.059
			l-0.861-3.682l1.488-2.601c0.214-0.373,0.188-0.838-0.066-1.185l-0.433-0.591h1.36L215.833,410.573L215.833,410.573z
			 M222.215,378.59c0.07-0.034,0.138-0.071,0.206-0.109c0.04,0.454,0.06,0.911,0.06,1.367v3c0,1.74,0,3.481,0,5.221
			c0.001,3.487-0.993,6.854-3.095,9.654c-1.832,2.44-4.378,4.317-7.257,5.331c-3.857,1.358-8.233,1.111-11.918-0.697
			c-1.516-0.744-2.911-1.735-4.109-2.925c-2.117-2.1-3.606-4.8-4.235-7.716c-0.511-2.368-0.349-4.851-0.349-7.261
			c0-0.536,0-1.072,0-1.607v-3c0-0.01,0-0.02,0-0.03c0.217-0.347,0.381-0.729,0.497-1.121c-0.033,0.111,1.32,0.332,1.445,0.341
			c0.463,0.031,0.93-0.012,1.379-0.128c0.856-0.22,1.636-0.704,2.218-1.369c0.808,0.923,1.994,1.507,3.314,1.507
			c1.32,0,2.507-0.584,3.314-1.507c0.808,0.923,1.994,1.507,3.314,1.507c1.319,0,2.505-0.583,3.313-1.505
			c0.065,0.074,0.132,0.145,0.202,0.215c0.832,0.832,1.938,1.29,3.114,1.29c1.32,0,2.507-0.584,3.314-1.507
			c-0.068,0.077,0.932,0.807,1.03,0.867c0.408,0.248,0.856,0.43,1.323,0.534C220.27,379.161,221.319,379.033,222.215,378.59z
			 M204.654,374.146c0.012,0.006,0.024,0.011,0.035,0.016c0.029,0.014,0.057,0.027,0.085,0.041c0.324,0.159,0.621,0.292,0.904,0.525
			c0.282,0.233,0.55,0.499,0.895,0.639c0.183,0.074,0.384,0.107,0.58,0.082c0.407-0.053,0.72-0.341,1.018-0.599
			c0.326-0.282,0.644-0.445,1.024-0.633c0.033-0.016,0.067-0.033,0.102-0.049c0.016-0.007,0.031-0.015,0.047-0.022
			c-0.004,0.008-0.007,0.017-0.011,0.025c-0.011,0.024-0.022,0.048-0.032,0.073c-0.006,0.014-0.01,0.027-0.015,0.041
			c-0.008,0.024-0.016,0.048-0.023,0.073c-0.004,0.014-0.008,0.029-0.011,0.043c-0.006,0.026-0.011,0.053-0.015,0.081
			c-0.002,0.013-0.005,0.026-0.006,0.039c-0.005,0.041-0.007,0.082-0.007,0.123c0,1.227-0.998,2.225-2.225,2.225
			s-2.225-0.998-2.225-2.225c0-0.042-0.003-0.083-0.007-0.123c-0.001-0.013-0.004-0.026-0.006-0.039
			c-0.004-0.027-0.009-0.054-0.015-0.081c-0.003-0.015-0.007-0.029-0.011-0.043c-0.007-0.025-0.014-0.049-0.023-0.073
			c-0.005-0.014-0.01-0.028-0.015-0.042c-0.01-0.025-0.021-0.049-0.032-0.072C204.661,374.163,204.658,374.155,204.654,374.146z
			 M222.003,376.02c-0.005,0.006-0.009,0.012-0.014,0.018c-1.228,1.523-3.782,0.754-3.949-1.203
			c-0.005-0.063-0.008-0.127-0.008-0.191c0-0.602-0.488-1.09-1.09-1.09c-0.602,0-1.09,0.488-1.09,1.09
			c0,1.227-0.998,2.225-2.225,2.225c-0.594,0-1.153-0.231-1.573-0.651c-0.364-0.364-0.595-0.85-0.642-1.363
			c-0.046-0.505-0.141-0.973-0.655-1.209c1.242-0.309,2.541-0.309,3.792-0.053c0.321,0.066,0.654-0.016,0.908-0.223
			c0.254-0.207,0.401-0.517,0.401-0.844v-4.196h1.48C219.613,370.375,221.253,373.079,222.003,376.02z M228.311,366.15h-10.563
			h-2.98c-0.602,0-1.09,0.488-1.09,1.09v4.027c-0.317-0.028-0.632-0.042-0.944-0.042c-2.748,0-4.725,1.064-5.736,1.772
			c-1.011-0.708-2.988-1.772-5.736-1.772c-0.312,0-0.627,0.014-0.944,0.042v-4.027c0-0.602-0.488-1.09-1.09-1.09h-2.98h-10.562
			v-1.97h42.623V366.15z"/>
	</g>
</g>
</svg>
