<?xml version="1.0" encoding="iso-8859-1"?>
<!-- Generator: Adobe Illustrator 21.1.0, SVG Export Plug-In . SVG Version: 6.00 Build 0)  -->
<svg version="1.1" id="Layer_1" xmlns="http://www.w3.org/2000/svg" xmlns:xlink="http://www.w3.org/1999/xlink" x="0px" y="0px"
	 viewBox="172 362.518 70 68.964" style="enable-background:new 172 362.518 70 68.964;" xml:space="preserve">
<g>
	<rect x="183.042" y="392.453" style="fill:#F77935;" width="16.647" height="10.004"/>
	<rect x="195.143" y="392.453" style="fill:#D9510D;" width="4.547" height="10.004"/>
	<rect x="193.359" y="363.655" style="fill:#FFDB56;" width="27.283" height="12.126"/>
	<rect x="216.095" y="363.655" style="fill:#FBA806;" width="4.547" height="12.126"/>
	<rect x="213.606" y="392.453" style="fill:#F77935;" width="16.647" height="10.004"/>
	<rect x="225.857" y="392.453" style="fill:#D9510D;" width="4.396" height="10.004"/>
	<rect x="224.216" y="420.342" style="fill:#3FC8F2;" width="16.647" height="10.004"/>
	<rect x="236.32" y="420.342" style="fill:#0DAACE;" width="4.547" height="10.004"/>
	<rect x="198.325" y="420.342" style="fill:#3FC8F2;" width="16.647" height="10.004"/>
	<rect x="210.424" y="420.342" style="fill:#0DAACE;" width="4.547" height="10.004"/>
	<rect x="173.137" y="420.342" style="fill:#3FC8F2;" width="16.647" height="10.004"/>
	<rect x="185.237" y="420.342" style="fill:#0DAACE;" width="4.547" height="10.004"/>
	<path d="M240.863,419.205h-7.187v-8.033c0-0.628-0.509-1.137-1.137-1.137h-9.473v-6.442h7.187c0.628,0,1.137-0.509,1.137-1.137
		v-10.004c0-0.628-0.509-1.137-1.137-1.137h-7.187v-6.745c0-0.628-0.509-1.137-1.137-1.137h-13.793v-6.517h3.417
		c0.628,0,1.137-0.509,1.137-1.137c0-0.628-0.509-1.137-1.137-1.137h-17.059v-9.852h25.009v9.852h-3.266
		c-0.628,0-1.137,0.509-1.137,1.137c0,0.628,0.509,1.137,1.137,1.137h4.402c0.628,0,1.137-0.509,1.137-1.137v-12.126
		c0-0.628-0.509-1.137-1.137-1.137h-27.283c-0.628,0-1.137,0.509-1.137,1.137v12.126c0,0.628,0.509,1.137,1.137,1.137h12.505v6.517
		h-14.497c-0.628,0-1.137,0.509-1.137,1.137v6.745h-7.187c-0.628,0-1.137,0.509-1.137,1.137v10.004c0,0.628,0.509,1.137,1.137,1.137
		h7.187v6.442h-8.768c-0.628,0-1.137,0.509-1.137,1.137v8.033h-7.187c-0.628,0-1.137,0.509-1.137,1.137v10.004
		c0,0.628,0.509,1.137,1.137,1.137h16.648c0.628,0,1.137-0.509,1.137-1.137v-10.004c0-0.628-0.509-1.137-1.137-1.137h-7.187v-6.896
		h22.914v6.896h-7.187c-0.628,0-1.137,0.509-1.137,1.137v10.004c0,0.628,0.509,1.137,1.137,1.137H207
		c0.628,0,1.137-0.509,1.137-1.137c0-0.628-0.509-1.137-1.137-1.137h-7.539v-7.73h14.374v7.73h-2.15
		c-0.628,0-1.137,0.509-1.137,1.137c0,0.628,0.509,1.137,1.137,1.137h3.287c0.628,0,1.137-0.509,1.137-1.137v-10.004
		c0-0.628-0.509-1.137-1.137-1.137h-7.187v-6.896h23.618v6.896h-7.187c-0.628,0-1.137,0.509-1.137,1.137v10.004
		c0,0.628,0.509,1.137,1.137,1.137h16.648c0.628,0,1.137-0.509,1.137-1.137v-10.004C242,419.714,241.491,419.205,240.863,419.205z
		 M188.647,429.209h-14.374v-7.73h14.374V429.209z M229.117,401.32h-14.374v-7.73h14.374L229.117,401.32L229.117,401.32z
		 M192.503,403.593h0.587c0.628,0,1.137-0.509,1.137-1.137s-0.509-1.137-1.137-1.137h-8.911v-7.73h14.374v7.73h-0.778
		c-0.628,0-1.137,0.509-1.137,1.137s0.509,1.137,1.137,1.137h1.915c0.628,0,1.137-0.509,1.137-1.137v-10.004
		c0-0.628-0.509-1.137-1.137-1.137h-7.187v-5.608h28.29v5.608h-7.187c-0.628,0-1.137,0.509-1.137,1.137v10.004
		c0,0.628,0.509,1.137,1.137,1.137h7.187v6.442h-28.29V403.593z M239.726,429.209h-14.374v-7.73h14.374V429.209L239.726,429.209z"/>
</g>
</svg>
