<?xml version="1.0" encoding="utf-8"?>
<!-- Generator: Adobe Illustrator 21.1.0, SVG Export Plug-In . SVG Version: 6.00 Build 0)  -->
<svg version="1.1" id="Слой_1" xmlns="http://www.w3.org/2000/svg" xmlns:xlink="http://www.w3.org/1999/xlink" x="0px" y="0px"
	 viewBox="0 0 70 70.2" enable-background="new 0 0 70 70.2" xml:space="preserve">
<g>
	<g>
		<g>
			<defs>
				<rect id="SVGID_1_" x="0" width="70" height="70.2"/>
			</defs>
			<clipPath id="SVGID_2_">
				<use xlink:href="#SVGID_1_"  overflow="visible"/>
			</clipPath>
			<path clip-path="url(#SVGID_2_)" fill="#EA1409" d="M35,30.4c1.5,0,2.7-0.6,3.5-1c0.7,0.4,2,1,3.5,1c2.2,0,4.6-1.2,5.6-2.9
				c0.1-0.2,2.5-3.9,2.5-10c0-4.5-3.7-8.2-8.2-8.2c-1.3,0-2.5,0.5-3.5,1c-1-0.5-2.2-1-3.5-1c-4.5,0-8.2,3.7-8.2,8.2
				c0,6.9,2.1,9.6,2.6,10.1C30.5,29,32.6,30.4,35,30.4L35,30.4z M35,11.7c1,0,2.1,0.5,2.9,1c0.4,0.2,0.8,0.2,1.2,0
				c0.8-0.5,1.9-1,2.9-1c3.2,0,5.8,2.6,5.8,5.8c0,5.4-2.1,8.6-2.1,8.7C45.1,27.1,43.5,28,42,28c-1.5,0-2.8-0.9-2.8-0.9
				c-0.2-0.2-0.5-0.2-0.7-0.2c-0.2,0-0.5,0.1-0.7,0.2c0,0-1.3,0.9-2.8,0.9c-1.5,0-3-1-3.7-1.9c0,0-0.1-0.1-0.1-0.1c0,0-2-2.2-2-8.5
				C29.1,14.3,31.8,11.7,35,11.7L35,11.7z"/>
		</g>
		<g>
			<defs>
				<rect id="SVGID_3_" x="0" width="70" height="70.2"/>
			</defs>
			<clipPath id="SVGID_4_">
				<use xlink:href="#SVGID_3_"  overflow="visible"/>
			</clipPath>
			<path clip-path="url(#SVGID_4_)" fill="#EA1409" d="M37.5,7.7c0.2,0.4,0.6,0.6,1,0.6c0.2,0,0.4-0.1,0.6-0.2
				c0.6-0.3,0.7-1,0.4-1.6L36,0.6c-0.3-0.6-1-0.7-1.6-0.4c-0.6,0.3-0.7,1-0.4,1.6L37.5,7.7z"/>
		</g>
	</g>
	<path fill="#EA1409" d="M41.1,7.5c0.1,0,0.8,0.3,1.8,0.3h0c1.4,0,2.6-0.5,3.5-1.4c2.1-2.1,1.1-5.2,1.1-5.3
		c-0.1-0.3-0.4-0.6-0.7-0.7c-0.1,0-0.8-0.3-1.8-0.3c-1.4,0-2.6,0.5-3.5,1.4c-2.1,2.1-1.1,5.2-1.1,5.3C40.5,7.1,40.8,7.4,41.1,7.5
		L41.1,7.5z M43.1,3.1c0.5-0.5,1.1-0.7,1.9-0.7c0.2,0,0.3,0,0.5,0c0.1,0.6,0,1.6-0.7,2.3c-0.5,0.5-1.1,0.7-1.9,0.7
		c-0.2,0-0.3,0-0.5,0C42.4,4.8,42.4,3.8,43.1,3.1L43.1,3.1z"/>
	<path fill="#353535" d="M66.4,32.7h-56c-1.9,0-3.5,1.6-3.5,3.5v4.7C7,41.5,7.5,42,8.2,42c0.6,0,1.2-0.5,1.2-1.2v-4.7
		c0-0.6,0.5-1.2,1.2-1.2H14v5.8c0,0.6,0.5,1.2,1.2,1.2c0.6,0,1.2-0.5,1.2-1.2V35h30.3v5.8c0,0.6,0.5,1.2,1.2,1.2
		c0.6,0,1.2-0.5,1.2-1.2V35h11.7v5.8c0,0.6,0.5,1.2,1.2,1.2c0.6,0,1.2-0.5,1.2-1.2V35h3.5c0.6,0,1.2,0.5,1.2,1.2v8.2h-3.5
		c-0.6,0-1.2,0.5-1.2,1.2V56h-1.2c-0.6,0-1.2,0.5-1.2,1.2c0,0.6,0.5,1.2,1.2,1.2h3.5v8.2c0,0.6-0.5,1.2-1.2,1.2H28v-5.8
		c0-0.6-0.5-1.2-1.2-1.2c-0.6,0-1.2,0.5-1.2,1.2v5.8h-2.3v-5.8c0-0.6-0.5-1.2-1.2-1.2c-0.6,0-1.2,0.5-1.2,1.2v5.8h-2.3v-5.8
		c0-0.6-0.5-1.2-1.2-1.2c-0.6,0-1.2,0.5-1.2,1.2v5.8H5.8c-0.6,0-1.2-0.5-1.2-1.2v-4.7c0-0.6-0.5-1.2-1.2-1.2c-0.6,0-1.2,0.5-1.2,1.2
		v4.7c0,1.9,1.6,3.5,3.5,3.5h58.3c1.9,0,3.5-1.6,3.5-3.5v-8.2c0-1.5-1.2-2.3-2.3-2.3v-9.3h2.3c1.1,0,2.3-0.8,2.3-2.3v-8.2
		C69.9,34.3,68.4,32.7,66.4,32.7L66.4,32.7z"/>
	<path fill="#353535" d="M45.5,58.3c0.6,0,1.2-0.5,1.2-1.2c0-0.6-0.5-1.2-1.2-1.2H32.6v-9.3H49v17.5c0,0.4,0.2,0.8,0.6,1
		c0.4,0.2,0.8,0.2,1.2-0.1l2.9-1.9l2.9,1.9c0.2,0.1,0.4,0.2,0.6,0.2c0.2,0,0.4,0,0.5-0.1c0.4-0.2,0.6-0.6,0.6-1V46.7h1.2
		c0.6,0,1.2-0.5,1.2-1.2c0-0.6-0.5-1.2-1.2-1.2h-56c-2,0-3.5,1.5-3.5,3.5v7c0,1.9,1.6,3.5,3.5,3.5L45.5,58.3L45.5,58.3z M51.3,46.7
		H56V62l-1.7-1.1c-0.4-0.3-0.9-0.3-1.3,0L51.3,62V46.7z M14,46.7h16.3V56H14L14,46.7L14,46.7z M2.3,54.8v-7c0-0.7,0.5-1.2,1.2-1.2
		h8.2V56H3.5C2.8,56,2.3,55.5,2.3,54.8L2.3,54.8z"/>
	<path fill="#353535" d="M24.5,49c-0.6,0-1.2,0.5-1.2,1.2v2.3c0,0.6,0.5,1.2,1.2,1.2c0.6,0,1.2-0.5,1.2-1.2v-2.3
		C25.6,49.5,25.1,49,24.5,49L24.5,49z"/>
	<path fill="#353535" d="M19.8,49c-0.6,0-1.2,0.5-1.2,1.2v2.3c0,0.6,0.5,1.2,1.2,1.2c0.6,0,1.2-0.5,1.2-1.2v-2.3
		C21,49.5,20.5,49,19.8,49L19.8,49z"/>
</g>
</svg>
