<?xml version="1.0" encoding="utf-8"?>
<!-- Generator: Adobe Illustrator 21.1.0, SVG Export Plug-In . SVG Version: 6.00 Build 0)  -->
<svg version="1.1" id="Слой_1" xmlns="http://www.w3.org/2000/svg" xmlns:xlink="http://www.w3.org/1999/xlink" x="0px" y="0px"
	 viewBox="0 0 70 71.3" enable-background="new 0 0 70 71.3" xml:space="preserve">
<g>
	<g>
		<g>
			<defs>
				<rect id="SVGID_1_" width="70" height="71.3"/>
			</defs>
			<clipPath id="SVGID_2_">
				<use xlink:href="#SVGID_1_"  overflow="visible"/>
			</clipPath>
			<path clip-path="url(#SVGID_2_)" fill="#353535" d="M10.8,20.3c0,3.6,2.9,6.5,6.5,6.5c3.6,0,6.5-2.9,6.5-6.5
				c0-3.6-2.9-6.5-6.5-6.5C13.7,13.8,10.8,16.7,10.8,20.3L10.8,20.3z M21.6,20.3c0,2.4-1.9,4.3-4.3,4.3c-2.4,0-4.3-1.9-4.3-4.3
				c0-2.4,1.9-4.3,4.3-4.3C19.7,16,21.6,17.9,21.6,20.3L21.6,20.3z"/>
		</g>
		<g>
			<defs>
				<rect id="SVGID_3_" width="70" height="71.3"/>
			</defs>
			<clipPath id="SVGID_4_">
				<use xlink:href="#SVGID_3_"  overflow="visible"/>
			</clipPath>
			<path clip-path="url(#SVGID_4_)" fill="#353535" d="M33.2,31.9l7.6-7.6c0.4-0.4,0.4-1.1,0-1.5l-3.2-3.2c-0.4-0.4-1-0.4-1.5-0.1
				l-7.4,6.4L21.4,29H8.6c-0.3,0-0.6,0.1-0.8,0.4L0.3,38C0,38.3-0.1,38.7,0.1,39l3.2,9.7c0.1,0.3,0.3,0.5,0.6,0.7
				c0.3,0.1,0.6,0.1,0.9,0l4.3-2.2c0.4-0.2,0.6-0.6,0.6-0.9v18.3c0,3,2.4,5.4,5.4,5.4h8.6c0.6,0,1.1-0.5,1.1-1.1V36.1l8-4
				C33,32,33.1,32,33.2,31.9L33.2,31.9z M9.7,46.2c0-0.1,0-0.3-0.1-0.4L7.7,41l2-2.5V46.2z M23.3,34.5c-0.4,0.2-0.6,0.6-0.6,1v32.4
				h-4.3V50.6c0-0.6-0.5-1.1-1.1-1.1c-0.6,0-1.1,0.5-1.1,1.1v17.3h-1.1c-1.8,0-3.2-1.5-3.2-3.2V35.4c0-0.5-0.3-0.9-0.7-1
				c-0.4-0.1-0.9,0-1.2,0.3l-4.3,5.4c-0.2,0.3-0.3,0.7-0.2,1.1l1.8,4.5L5,46.9l-2.7-7.9l6.8-7.8h12.5c0.1,0,0.3,0,0.4-0.1l7.6-3.2
				c0.1,0,0.2-0.1,0.3-0.2l6.8-5.8l1.8,1.8l-6.7,6.7L23.3,34.5z"/>
		</g>
	</g>
	<path fill="#353535" d="M15.1,35.4h1.1v8.6h2.2v-8.6h1.1v-2.2h-4.3V35.4z"/>
	<path fill="#353535" d="M69.1,54.9c0-3.6-2.9-6.5-6.5-6.5c-2.3,0-4.2,1.2-5.4,2.9c-1.2-1.8-3.1-2.9-5.4-2.9c-2.3,0-4.2,1.2-5.4,2.9
		c-1.2-1.8-3.1-2.9-5.4-2.9c-3.6,0-6.5,2.9-6.5,6.5c0,2.3,1.2,4.2,2.9,5.4c-1.7,1.2-2.9,3.1-2.9,5.4V70h2.2v-4.3
		c0-2.4,1.9-4.3,4.3-4.3c2.4,0,4.3,1.9,4.3,4.3V70h2.2v-4.3c0-2.4,1.9-4.3,4.3-4.3c2.4,0,4.3,1.9,4.3,4.3V70h2.2v-4.3
		c0-2.4,1.9-4.3,4.3-4.3c2.4,0,4.3,1.9,4.3,4.3V70h2.2v-4.3c0-2.3-1.2-4.2-2.9-5.4C68,59.1,69.1,57.1,69.1,54.9L69.1,54.9z
		 M51.8,50.6c2.4,0,4.3,1.9,4.3,4.3s-1.9,4.3-4.3,4.3c-2.4,0-4.3-1.9-4.3-4.3S49.5,50.6,51.8,50.6L51.8,50.6z M36.7,54.9
		c0-2.4,1.9-4.3,4.3-4.3c2.4,0,4.3,1.9,4.3,4.3s-1.9,4.3-4.3,4.3C38.7,59.2,36.7,57.3,36.7,54.9L36.7,54.9z M46.4,62.1
		c-0.5-0.7-1.1-1.3-1.8-1.8c0.7-0.5,1.3-1.1,1.8-1.8c0.5,0.7,1.1,1.3,1.8,1.8C47.6,60.8,46.9,61.4,46.4,62.1L46.4,62.1z M57.3,62.1
		c-0.5-0.7-1.1-1.3-1.8-1.8c0.7-0.5,1.3-1.1,1.8-1.8c0.5,0.7,1.1,1.3,1.8,1.8C58.4,60.8,57.7,61.4,57.3,62.1L57.3,62.1z M62.7,59.2
		c-2.4,0-4.3-1.9-4.3-4.3s1.9-4.3,4.3-4.3c2.4,0,4.3,1.9,4.3,4.3C67,57.3,65,59.2,62.7,59.2L62.7,59.2z"/>
	<path fill="#353535" d="M68.1,0.9h-40c-0.6,0-1.1,0.5-1.1,1.1v20.5h2.2V3H67v29.2c0,1.8-1.5,3.2-3.2,3.2H30.2v2.2h33.5
		c3,0,5.4-2.4,5.4-5.4V1.9C69.1,1.3,68.6,0.9,68.1,0.9L68.1,0.9z"/>
	<path fill="#EC0A00" d="M45.4,6.3H34.6c-0.6,0-1.1,0.5-1.1,1.1v4.3c0,0.6,0.5,1.1,1.1,1.1h10.8c0.6,0,1.1-0.5,1.1-1.1v-1.1h3.2v1.1
		c0,0.6,0.5,1.1,1.1,1.1h4.3V16h-4.3c-0.6,0-1.1,0.5-1.1,1.1v4.3c0,0.6,0.5,1.1,1.1,1.1h4.3v3.2h-4.3c-0.6,0-1.1,0.5-1.1,1.1v4.3
		c0,0.6,0.5,1.1,1.1,1.1h10.8c0.6,0,1.1-0.5,1.1-1.1v-4.3c0-0.6-0.5-1.1-1.1-1.1h-4.3v-3.2h4.3c0.6,0,1.1-0.5,1.1-1.1v-4.3
		c0-0.6-0.5-1.1-1.1-1.1h-4.3v-3.2h4.3c0.6,0,1.1-0.5,1.1-1.1V7.3c0-0.6-0.5-1.1-1.1-1.1H50.8c-0.6,0-1.1,0.5-1.1,1.1v1.1h-3.2V7.3
		C46.4,6.8,46,6.3,45.4,6.3L45.4,6.3z M44.3,10.6h-8.6V8.4h8.6V10.6z M60.5,30h-8.6v-2.2h8.6V30z M60.5,20.3h-8.6v-2.2h8.6V20.3z
		 M51.8,8.4h8.6v2.2h-8.6V8.4z"/>
	<rect x="34.6" y="14.9" fill="#EC0A00" width="11.9" height="2.2"/>
	<rect x="42.1" y="19.2" fill="#EC0A00" width="4.3" height="2.2"/>
	<rect x="43.2" y="23.6" fill="#EC0A00" width="3.2" height="2.2"/>
	<rect x="40" y="27.9" fill="#EC0A00" width="6.5" height="2.2"/>
	<path fill="#EC0A00" d="M4.3,11.7h0.5l2.9,3.9C8,15.8,8.3,16,8.6,16c0.1,0,0.2,0,0.3-0.1c0.4-0.1,0.7-0.6,0.7-1v-3.2h6.5
		c1.8,0,3.2-1.5,3.2-3.2V4.1c0-1.8-1.5-3.2-3.2-3.2H4.3c-1.8,0-3.2,1.5-3.2,3.2v4.3C1.1,10.2,2.5,11.7,4.3,11.7L4.3,11.7z M3.2,4.1
		C3.2,3.5,3.7,3,4.3,3h11.9c0.6,0,1.1,0.5,1.1,1.1v4.3c0,0.6-0.5,1.1-1.1,1.1H8.6C8,9.5,7.6,10,7.6,10.6v1.1L6.3,9.9
		C6.1,9.7,5.7,9.5,5.4,9.5H4.3C3.7,9.5,3.2,9,3.2,8.4L3.2,4.1L3.2,4.1z"/>
	<rect x="5.4" y="5.2" fill="#EC0A00" width="9.7" height="2.2"/>
</g>
</svg>
