<?xml version="1.0" encoding="utf-8"?>
<!-- Generator: Adobe Illustrator 21.1.0, SVG Export Plug-In . SVG Version: 6.00 Build 0)  -->
<svg version="1.1" id="Слой_1" xmlns="http://www.w3.org/2000/svg" xmlns:xlink="http://www.w3.org/1999/xlink" x="0px" y="0px"
	 viewBox="0 0 51.3 70" enable-background="new 0 0 51.3 70" xml:space="preserve">
<g>
	<g>
		<g>
			<defs>
				<rect id="SVGID_1_" width="51.3" height="70"/>
			</defs>
			<clipPath id="SVGID_2_">
				<use xlink:href="#SVGID_1_"  overflow="visible"/>
			</clipPath>
			<path clip-path="url(#SVGID_2_)" fill="#E9170B" d="M50,9.4h-2.5L51,4.2c0.4-0.5,0.2-1.3-0.3-1.6c-0.5-0.4-1.3-0.2-1.6,0.3
				l-4.7,7c-0.2,0.4-0.3,0.8-0.1,1.2c0.2,0.4,0.6,0.6,1,0.6h2.5l-3.4,5.2c-0.4,0.5-0.2,1.3,0.3,1.6c0.2,0.1,0.4,0.2,0.6,0.2
				c0.4,0,0.7-0.2,1-0.5l4.7-7c0.2-0.4,0.3-0.8,0.1-1.2C50.8,9.6,50.4,9.4,50,9.4L50,9.4z"/>
		</g>
		<g>
			<defs>
				<rect id="SVGID_3_" width="51.3" height="70"/>
			</defs>
			<clipPath id="SVGID_4_">
				<use xlink:href="#SVGID_3_"  overflow="visible"/>
			</clipPath>
			<path clip-path="url(#SVGID_4_)" fill="#353535" d="M8.1,37.3L8.1,37.3c0.6,0,1.2-0.5,1.2-1.2c0-0.5,0.2-12.3,10.9-16.2
				c0.6-0.2,0.9-0.9,0.7-1.5c-0.2-0.6-0.9-0.9-1.5-0.7C7.1,22.2,7,36,7,36.1C7,36.7,7.5,37.3,8.1,37.3L8.1,37.3z"/>
		</g>
		<g>
			<defs>
				<rect id="SVGID_5_" width="51.3" height="70"/>
			</defs>
			<clipPath id="SVGID_6_">
				<use xlink:href="#SVGID_5_"  overflow="visible"/>
			</clipPath>
			<path clip-path="url(#SVGID_6_)" fill="#E9170B" d="M19.8,16.3h5.7l-1,8c-0.1,0.5,0.2,1,0.7,1.2c0.1,0.1,0.3,0.1,0.4,0.1
				c0.4,0,0.7-0.2,0.9-0.5l10.5-14c0.3-0.4,0.3-0.8,0.1-1.2c-0.2-0.4-0.6-0.6-1-0.6h-5.7l1-8c0.1-0.5-0.2-1-0.7-1.2
				c-0.5-0.2-1,0-1.4,0.4l-10.5,14c-0.3,0.4-0.3,0.8-0.1,1.2C18.9,16.1,19.3,16.3,19.8,16.3L19.8,16.3z M28.5,5.4l-0.6,5
				c0,0.3,0.1,0.7,0.3,0.9c0.2,0.3,0.5,0.4,0.9,0.4h4.7l-6.4,8.6l0.6-5c0-0.3-0.1-0.7-0.3-0.9S27.1,14,26.8,14h-4.7L28.5,5.4z"/>
		</g>
		<g>
			<defs>
				<rect id="SVGID_7_" width="51.3" height="70"/>
			</defs>
			<clipPath id="SVGID_8_">
				<use xlink:href="#SVGID_7_"  overflow="visible"/>
			</clipPath>
			<path clip-path="url(#SVGID_8_)" fill="#E9170B" d="M10.6,13.4c0.2,0.4,0.6,0.6,1,0.6c0.2,0,0.4-0.1,0.6-0.2
				c0.5-0.3,0.7-1,0.4-1.6L9.1,6.4c-0.2-0.3-0.6-0.6-1-0.6c-0.4,0-0.8,0.2-1,0.5l-1.4,2L2.1,2.9C1.8,2.4,1.1,2.2,0.5,2.6
				C0,2.9-0.2,3.7,0.2,4.2l4.7,7c0.4,0.6,1.5,0.6,1.9,0l1.3-2L10.6,13.4z"/>
		</g>
	</g>
	<path fill="#353535" d="M46.5,39.8v-6c0-4.8-2.7-14-12.8-14c-0.6,0-1.2,0.5-1.2,1.2c0,0.6,0.5,1.2,1.2,1.2
		c10.3,0,10.5,11.2,10.5,11.6v7c0,0.6,0.5,1.2,1.2,1.2c0.6,0,1.2,0.5,1.2,1.2v4.7c0,0.6-0.5,1.2-1.2,1.2c-0.5,0-0.9,0.3-1.1,0.8
		c0,0.1-3.5,9.2-5.7,12.6l-0.2,0.3c-1.4,2.1-3.3,5-10.5,5s-9.1-2.9-10.5-5l-0.2-0.3c-2.2-3.3-5.7-12.5-5.7-12.6
		c-0.2-0.5-0.6-0.8-1.1-0.8c-0.6,0-1.2-0.5-1.2-1.2v-4.7c0-0.3,0.1-0.6,0.3-0.8c0.5,1,1.4,2,3.2,2c0.4,0,0.8-0.2,1-0.6
		c1.1-2.1,2.1-6,2.4-8.7c3.7-0.1,14.3-0.5,19-3.5c1.1,4.1,4.5,7.6,4.7,7.8c0.5,0.5,1.2,0.5,1.6,0c0.5-0.5,0.5-1.2,0-1.6
		c0,0-4.3-4.4-4.3-8.5c0-0.5-0.3-1-0.9-1.1c-0.5-0.1-1,0.1-1.3,0.5c-1.7,2.8-12.7,4.1-19.9,4.1c-0.6,0-1.2,0.5-1.2,1.2
		c0,1.9-0.9,5.7-1.8,8c-0.4-0.2-0.5-0.6-0.5-1c0-0.6-0.5-1.2-1.2-1.2c-1.9,0-3.5,1.6-3.5,3.5v4.7c0,1.6,1.1,3,2.6,3.4
		c0.8,2.2,3.7,9.3,5.7,12.4l0.2,0.3c1.5,2.3,4,6.1,12.4,6.1c8.4,0,10.9-3.8,12.4-6.1l0.2-0.3c2-3.1,4.8-10.2,5.7-12.4
		c1.5-0.4,2.6-1.8,2.6-3.4v-4.7C48.8,41.6,47.9,40.3,46.5,39.8L46.5,39.8z"/>
	<path fill="#353535" d="M33.7,47.7c0.6,0,1.2-0.5,1.2-1.2h1.2c0.6,0,1.2-0.5,1.2-1.2c0-0.6-0.5-1.2-1.2-1.2h-4.7
		c-0.6,0-1.2,0.5-1.2,1.2c0,0.6,0.5,1.2,1.2,1.2h1.2C32.6,47.2,33.1,47.7,33.7,47.7L33.7,47.7z"/>
	<path fill="#353535" d="M25.6,45.4c0-0.6-0.5-1.2-1.2-1.2h-4.7c-0.6,0-1.2,0.5-1.2,1.2c0,0.6,0.5,1.2,1.2,1.2h1.2
		c0,0.6,0.5,1.2,1.2,1.2s1.2-0.5,1.2-1.2h1.2C25.1,46.6,25.6,46.1,25.6,45.4L25.6,45.4z"/>
	<path fill="#353535" d="M27.9,60.5c2.7,0,4.2-1.4,4.3-1.5c0.4-0.4,0.4-1.2,0-1.6c-0.4-0.5-1.2-0.5-1.6,0c0,0-0.9,0.8-2.7,0.8
		c-1.7,0-2.6-0.8-2.7-0.8c-0.5-0.4-1.2-0.4-1.6,0c-0.5,0.5-0.5,1.2,0,1.6C23.8,59.2,25.2,60.5,27.9,60.5L27.9,60.5z"/>
</g>
</svg>
