<?xml version="1.0" encoding="utf-8"?>
<!-- Generator: Adobe Illustrator 21.1.0, SVG Export Plug-In . SVG Version: 6.00 Build 0)  -->
<svg version="1.1" id="Слой_1" xmlns="http://www.w3.org/2000/svg" xmlns:xlink="http://www.w3.org/1999/xlink" x="0px" y="0px"
	 viewBox="0 0 70 67.7" enable-background="new 0 0 70 67.7" xml:space="preserve">
<g>
	<g>
		<g>
			<defs>
				<rect id="SVGID_1_" y="0" width="70" height="67.6"/>
			</defs>
			<clipPath id="SVGID_2_">
				<use xlink:href="#SVGID_1_"  overflow="visible"/>
			</clipPath>
			<path clip-path="url(#SVGID_2_)" fill="#353535" d="M46,67.6c-4.4,0-8.7-0.4-12.9-1.3c-0.8-0.2-1.4-0.8-1.4-1.7V50.2L24.4,48
				c-0.7-0.2-1.2-0.9-1.2-1.6c0-0.7,0.5-1.4,1.2-1.6l21.1-6.3c0.3-0.1,0.6-0.1,1,0l21.1,6.3c0.1,0,0.3,0.1,0.4,0.2
				c0.5,0.3,0.8,0.8,0.8,1.5c0,0,0,0,0,0.1v7.5l0.9,2.1c0.4,0.9,0,1.8-0.9,2.2c-0.6,0.2-1.2,0.1-1.7-0.2c-0.5,0.3-1.1,0.4-1.7,0.2
				c-0.9-0.4-1.3-1.3-0.9-2.2l0.9-2.1v-5.3l-18.9,5.7c-0.3,0.1-0.6,0.1-1,0l-10.4-3.1v12c3.5,0.6,7.2,0.9,10.9,0.9
				c3.7,0,7.3-0.3,10.9-0.9v-8c0-0.9,0.8-1.7,1.7-1.7c0.9,0,1.7,0.8,1.7,1.7v9.4c0,0.8-0.6,1.5-1.4,1.6C54.7,67.2,50.4,67.6,46,67.6
				L46,67.6z M34,47.4L46,51l15.2-4.5L46,41.9l-15.2,4.5L34,47.4C33.9,47.4,33.9,47.4,34,47.4L34,47.4z M26,62.1H6.1
				C2.7,62.1,0,59.3,0,56V34.5c0-0.9,0.8-1.7,1.7-1.7h2c0.9,0,1.7,0.8,1.7,1.7s-0.8,1.7-1.7,1.7H3.4V56c0,1.5,1.2,2.7,2.7,2.7h1.1
				V8.5c0-0.9,0.8-1.7,1.7-1.7h5.8C15.6,2.9,19.1,0,23.3,0c4.2,0,7.7,2.9,8.5,6.8h20.4c0.9,0,1.7,0.8,1.7,1.7v25.7
				c0,0.9-0.8,1.7-1.7,1.7c-0.9,0-1.7-0.8-1.7-1.7v-24H31.9c-0.7,4.1-4.3,7.3-8.6,7.3c-1.1,0-2.2-0.2-3.2-0.6v4.9l2.3-1.1
				c0.4-0.2,1-0.2,1.4,0l2.6,1.2V20c0-0.9,0.8-1.7,1.7-1.7c0.9,0,1.7,0.8,1.7,1.7v4.4c0,0.6-0.3,1.1-0.8,1.4
				c-0.5,0.3-1.1,0.4-1.6,0.1l-4.3-1.9l-4,1.9c-0.5,0.2-1.1,0.2-1.6-0.1c-0.5-0.3-0.8-0.8-0.8-1.4v-9.9c-1.1-1.2-1.8-2.7-2.1-4.4h-4
				v48.5H26c0.9,0,1.7,0.8,1.7,1.7S26.9,62.1,26,62.1L26,62.1z M17.9,8.6c0,0,0,0.1,0,0.1c0,3,2.4,5.4,5.4,5.4c3,0,5.4-2.4,5.4-5.4
				c0,0,0-0.1,0-0.1c0,0,0,0,0-0.1c-0.1-2.9-2.5-5.2-5.4-5.2C20.4,3.4,18,5.7,17.9,8.6C17.9,8.6,17.9,8.6,17.9,8.6L17.9,8.6z"/>
		</g>
	</g>
</g>
<path fill="#E8180C" d="M26.7,39.5H22c-0.9,0-1.7-0.8-1.7-1.7s0.8-1.7,1.7-1.7h4.7c0.9,0,1.7,0.8,1.7,1.7
	C28.4,38.7,27.6,39.5,26.7,39.5L26.7,39.5z"/>
<path fill="#E8180C" d="M39.3,33H22c-0.9,0-1.7-0.8-1.7-1.7c0-0.9,0.8-1.7,1.7-1.7h17.3c0.9,0,1.7,0.8,1.7,1.7
	C40.9,32.3,40.2,33,39.3,33L39.3,33z"/>
<path fill="#E8180C" d="M44.4,24.8h-5.1c-0.9,0-1.7-0.8-1.7-1.7s0.8-1.7,1.7-1.7h5.1c0.9,0,1.7,0.8,1.7,1.7
	C46.1,24.1,45.3,24.8,44.4,24.8L44.4,24.8z"/>
<path fill="#E8180C" d="M44.3,18.7h-5.1c-0.9,0-1.7-0.8-1.7-1.7c0-0.9,0.8-1.7,1.7-1.7h5.1c0.9,0,1.7,0.8,1.7,1.7
	C46,18,45.2,18.7,44.3,18.7L44.3,18.7z"/>
</svg>
