<?xml version="1.0" encoding="iso-8859-1"?>
<!-- Generator: Adobe Illustrator 21.1.0, SVG Export Plug-In . SVG Version: 6.00 Build 0)  -->
<svg version="1.1" id="Layer_1" xmlns="http://www.w3.org/2000/svg" xmlns:xlink="http://www.w3.org/1999/xlink" x="0px" y="0px"
	 viewBox="184.649 362 44.702 70" style="enable-background:new 184.649 362 44.702 70;" xml:space="preserve">
<rect x="196.78" y="363.367" style="fill:#FFC636;" width="20.439" height="10.589"/>
<path style="fill:#1A5A99;" d="M227.983,377.792c0-2.118-1.717-3.836-3.835-3.836h-34.296c-2.118,0-3.835,1.717-3.835,3.836v11.415
	h41.967V377.792z"/>
<path style="fill:#40C4E2;" d="M186.017,389.207v37.59c0,2.118,1.717,3.835,3.835,3.835h34.296c2.118,0,3.835-1.717,3.835-3.835
	v-37.59H186.017z"/>
<polygon style="fill:#FEE187;" points="220.421,407.516 211.474,407.516 211.474,394.02 193.579,411.914 202.526,411.914 
	202.526,425.411 "/>
<path d="M202.526,426.778c-0.176,0-0.354-0.034-0.523-0.104c-0.511-0.212-0.844-0.71-0.844-1.263v-12.129h-7.58
	c-0.553,0-1.051-0.333-1.263-0.844c-0.212-0.511-0.094-1.099,0.296-1.49l17.894-17.894c0.391-0.391,0.979-0.508,1.49-0.296
	c0.511,0.212,0.844,0.71,0.844,1.263v12.129h7.58c0.553,0,1.052,0.333,1.263,0.844c0.212,0.511,0.094,1.099-0.296,1.49
	l-17.894,17.894C203.232,426.639,202.882,426.778,202.526,426.778z M196.88,410.547h5.646c0.755,0,1.367,0.612,1.367,1.367v10.196
	l13.226-13.226h-5.646c-0.755,0-1.367-0.612-1.367-1.367v-10.196L196.88,410.547z"/>
<path d="M222.386,383.574c-0.089,0-0.179-0.008-0.267-0.026c-0.087-0.018-0.174-0.044-0.257-0.078
	c-0.082-0.034-0.161-0.077-0.235-0.126c-0.075-0.049-0.145-0.107-0.208-0.17c-0.063-0.063-0.12-0.134-0.17-0.208
	c-0.051-0.075-0.092-0.155-0.126-0.237s-0.062-0.168-0.078-0.256c-0.018-0.089-0.027-0.178-0.027-0.267
	c0-0.09,0.009-0.179,0.027-0.268c0.016-0.087,0.044-0.174,0.078-0.256s0.075-0.163,0.126-0.237c0.049-0.074,0.107-0.145,0.17-0.208
	c0.063-0.063,0.133-0.12,0.208-0.17c0.074-0.049,0.153-0.092,0.235-0.126c0.083-0.034,0.17-0.06,0.257-0.078
	c0.175-0.036,0.357-0.036,0.533,0c0.088,0.018,0.174,0.044,0.256,0.078c0.083,0.034,0.163,0.077,0.237,0.126
	c0.075,0.049,0.145,0.107,0.208,0.17c0.063,0.063,0.12,0.134,0.17,0.208c0.049,0.075,0.092,0.154,0.126,0.237
	s0.062,0.168,0.078,0.256c0.018,0.089,0.027,0.178,0.027,0.268c0,0.089-0.01,0.178-0.027,0.267
	c-0.016,0.087-0.044,0.174-0.078,0.256s-0.077,0.161-0.126,0.237c-0.049,0.074-0.107,0.145-0.17,0.208
	c-0.063,0.063-0.133,0.12-0.208,0.17c-0.074,0.049-0.153,0.092-0.237,0.126c-0.082,0.034-0.168,0.06-0.256,0.078
	C222.565,383.566,222.475,383.574,222.386,383.574z"/>
<path d="M224.148,372.589h-5.561v-9.222c0-0.755-0.612-1.367-1.367-1.367H196.78c-0.755,0-1.367,0.612-1.367,1.367v9.222h-5.561
	c-2.869,0-5.203,2.334-5.203,5.203v11.415v37.59c0,2.869,2.334,5.203,5.203,5.203h34.296c2.869,0,5.203-2.334,5.203-5.203v-37.59
	v-11.415C229.351,374.923,227.017,372.589,224.148,372.589z M198.147,364.734h17.705v7.855h-17.705V364.734z M189.852,375.324h6.928
	h20.439h6.928c1.361,0,2.468,1.107,2.468,2.468v10.048h-39.233v-4.265h29.637c0.755,0,1.367-0.612,1.367-1.367
	s-0.612-1.367-1.367-1.367h-29.637v-3.049C187.384,376.431,188.491,375.324,189.852,375.324z M226.616,426.797
	c0,1.361-1.107,2.468-2.468,2.468h-34.296c-1.361,0-2.468-1.107-2.468-2.468v-36.223h39.233V426.797z"/>
</svg>
