<?xml version="1.0" encoding="iso-8859-1"?>
<!-- Generator: Adobe Illustrator 21.1.0, SVG Export Plug-In . SVG Version: 6.00 Build 0)  -->
<svg version="1.1" id="Layer_1" xmlns="http://www.w3.org/2000/svg" xmlns:xlink="http://www.w3.org/1999/xlink" x="0px" y="0px"
	 viewBox="182 372 50 50" style="enable-background:new 182 372 50 50;" xml:space="preserve">
<g>
	<g>
		<path style="fill:#FF5252;" d="M205.88,383.835c-0.693-0.692-1.65-1.12-2.706-1.12c-2.113,0-3.827,1.713-3.827,3.827v1.276
			c-2.113,0-3.827,1.713-3.827,3.827v2.119l0.004-0.001c-0.237,0.15-0.462,0.327-0.669,0.533c-1.494,1.494-1.494,3.917,0,5.412
			c0.206,0.206,0.431,0.383,0.667,0.532l-0.002,0v2.119c0,2.113,1.713,3.827,3.827,3.827v1.275c0,2.113,1.713,3.827,3.827,3.827
			c2.113,0,3.827-1.713,3.827-3.827v-20.918C207,385.485,206.571,384.528,205.88,383.835z"/>
		<path style="fill:#FF5252;" d="M219.145,394.294c-0.206-0.206-0.431-0.383-0.667-0.532l0.002,0v-2.119
			c0-2.113-1.713-3.827-3.827-3.827v-1.276c0-2.113-1.713-3.827-3.827-3.827c-2.113,0-3.827,1.713-3.827,3.827v20.918
			c0,1.056,0.429,2.013,1.12,2.706c0.693,0.692,1.65,1.12,2.706,1.12c2.113,0,3.827-1.713,3.827-3.827v-1.276
			c2.113,0,3.827-1.713,3.827-3.827v-2.119l-0.004,0.001c0.237-0.15,0.462-0.327,0.669-0.533
			C220.639,398.211,220.639,395.788,219.145,394.294z"/>
		<rect x="205.469" y="372.765" style="fill:#FF5252;" width="3.061" height="3.061"/>
		<rect x="205.469" y="418.173" style="fill:#FF5252;" width="3.061" height="3.061"/>
		<rect x="228.173" y="395.469" style="fill:#FF5252;" width="3.061" height="3.061"/>
		<rect x="182.765" y="395.469" style="fill:#FF5252;" width="3.061" height="3.061"/>
	</g>
	<path d="M219.245,393.366v-1.723c0-2.271-1.658-4.161-3.827-4.527v-0.575c0-2.532-2.06-4.592-4.592-4.592
		c-1.594,0-3.001,0.817-3.825,2.054c-0.168-0.253-0.362-0.491-0.582-0.71c-0.868-0.867-2.021-1.344-3.247-1.344
		c-2.532,0-4.592,2.06-4.592,4.592v0.575c-2.169,0.366-3.827,2.256-3.827,4.527v1.724c-0.153,0.118-0.301,0.246-0.441,0.387
		c-1.79,1.79-1.79,4.704,0,6.494c0.14,0.14,0.288,0.268,0.441,0.387v1.723c0,2.271,1.658,4.161,3.827,4.527v0.575
		c0,2.532,2.06,4.592,4.592,4.592c1.594,0,3.001-0.817,3.825-2.054c0.168,0.253,0.362,0.491,0.582,0.71
		c0.868,0.867,2.021,1.344,3.247,1.344c2.532,0,4.592-2.06,4.592-4.592v-0.575c2.169-0.366,3.827-2.256,3.827-4.527v-1.724
		c0.153-0.118,0.301-0.246,0.441-0.387c1.79-1.79,1.79-4.704,0-6.494C219.546,393.612,219.398,393.484,219.245,393.366z
		 M203.173,410.52c-1.688,0-3.061-1.373-3.061-3.061v-0.575c2.169-0.366,3.827-2.256,3.827-4.527h-1.531
		c0,1.688-1.373,3.061-3.061,3.061s-3.061-1.373-3.061-3.061v-0.947c0.416,0.119,0.846,0.18,1.275,0.18
		c1.176,0,2.352-0.448,3.247-1.343l-1.082-1.082c-1.194,1.193-3.136,1.194-4.329,0c-1.194-1.193-1.193-3.136,0-4.329
		c1.194-1.194,3.136-1.193,4.329,0l1.082-1.082c-1.222-1.222-2.968-1.609-4.522-1.163v-0.948c0-1.688,1.373-3.061,3.061-3.061
		c0.817,0,1.586,0.318,2.165,0.896c0.578,0.579,0.897,1.348,0.897,2.165h1.531c0-1.226-0.477-2.379-1.345-3.248
		c-0.684-0.684-1.547-1.124-2.482-1.28v-0.575c0-1.688,1.373-3.061,3.061-3.061c0.817,0,1.586,0.318,2.165,0.896
		c0.578,0.579,0.897,1.348,0.897,2.165v20.918C206.235,409.147,204.861,410.52,203.173,410.52z M218.604,399.164
		c-1.193,1.194-3.135,1.194-4.329,0l-1.082,1.082c0.895,0.895,2.071,1.343,3.247,1.343c0.43,0,0.859-0.06,1.275-0.18v0.948
		c0,1.688-1.373,3.061-3.061,3.061c-0.817,0-1.586-0.318-2.165-0.896c-0.578-0.579-0.897-1.348-0.897-2.165h-1.531
		c0,1.226,0.477,2.379,1.345,3.248c0.684,0.684,1.547,1.124,2.482,1.28v0.575c0,1.688-1.373,3.061-3.061,3.061
		c-0.817,0-1.586-0.318-2.165-0.896c-0.578-0.579-0.897-1.348-0.897-2.165v-20.918c0-1.688,1.373-3.061,3.061-3.061
		c1.688,0,3.061,1.373,3.061,3.061v0.575c-2.169,0.366-3.827,2.256-3.827,4.527h1.531c0-1.688,1.373-3.061,3.061-3.061
		s3.061,1.373,3.061,3.061v0.947c-1.554-0.447-3.3-0.06-4.522,1.163l1.082,1.082c1.194-1.194,3.136-1.193,4.329,0
		C219.797,396.029,219.797,397.971,218.604,399.164z"/>
	<rect x="189.015" y="391.643" width="1.531" height="1.531"/>
	<rect x="189.015" y="394.704" width="1.531" height="1.531"/>
	<rect x="189.015" y="397.765" width="1.531" height="1.531"/>
	<rect x="189.015" y="400.827" width="1.531" height="1.531"/>
	<rect x="223.454" y="391.643" width="1.531" height="1.531"/>
	<rect x="223.454" y="394.704" width="1.531" height="1.531"/>
	<rect x="223.454" y="397.765" width="1.531" height="1.531"/>
	<rect x="223.454" y="400.827" width="1.531" height="1.531"/>
	<path d="M197.001,383.403c1.266,0,2.296-1.03,2.296-2.296c0-1.266-1.03-2.296-2.296-2.296c-1.266,0-2.296,1.03-2.296,2.296
		C194.705,382.373,195.734,383.403,197.001,383.403z M197.001,380.342c0.422,0,0.765,0.343,0.765,0.765
		c0,0.422-0.343,0.765-0.765,0.765c-0.422,0-0.765-0.343-0.765-0.765C196.235,380.685,196.578,380.342,197.001,380.342z"/>
	<polygon points="194.376,405.812 192.846,405.812 192.846,407.212 191.446,407.212 191.446,408.742 192.846,408.742 
		192.846,410.142 194.376,410.142 194.376,408.742 195.776,408.742 195.776,407.212 194.376,407.212 	"/>
	<polygon points="219.009,409.469 218.02,410.458 217.031,409.469 215.948,410.551 216.938,411.541 215.948,412.53 217.031,413.613 
		218.02,412.623 219.009,413.613 220.092,412.53 219.102,411.541 220.092,410.551 	"/>
	<path d="M230.469,376.46c0.891-0.316,1.531-1.167,1.531-2.164c0-1.266-1.03-2.296-2.296-2.296c-1.266,0-2.296,1.03-2.296,2.296
		c0,0.998,0.64,1.848,1.531,2.164v12.198c-1.168-3.071-2.979-5.888-5.343-8.253c-3.853-3.852-8.907-6.236-14.299-6.761V372h-4.592
		v1.643c-5.393,0.525-10.447,2.909-14.299,6.761c-2.365,2.365-4.176,5.183-5.344,8.253V376.46c0.891-0.316,1.531-1.167,1.531-2.164
		c0-1.266-1.03-2.296-2.296-2.296S182,373.03,182,374.296c0,0.998,0.64,1.848,1.531,2.164v18.244H182v4.592h1.531v18.244
		c-0.891,0.316-1.531,1.167-1.531,2.164c0,1.266,1.03,2.296,2.296,2.296s2.296-1.03,2.296-2.296c0-0.998-0.64-1.848-1.531-2.164
		v-12.198c1.168,3.07,2.979,5.888,5.344,8.253c3.852,3.852,8.907,6.236,14.299,6.761V422h4.592v-1.644
		c5.393-0.525,10.447-2.908,14.299-6.76c2.364-2.364,4.175-5.182,5.343-8.252v12.196c-0.891,0.316-1.531,1.167-1.531,2.164
		c0,1.266,1.03,2.296,2.296,2.296c1.266,0,2.296-1.03,2.296-2.296c0-0.998-0.64-1.848-1.531-2.164v-18.244H232v-4.592h-1.531V376.46
		z M229.704,373.531c0.422,0,0.765,0.343,0.765,0.765c0,0.422-0.343,0.765-0.765,0.765c-0.422,0-0.765-0.343-0.765-0.765
		C228.939,373.874,229.282,373.531,229.704,373.531z M206.235,373.531h1.531v1.531h-1.531V373.531z M184.296,373.531
		c0.422,0,0.765,0.343,0.765,0.765c0,0.422-0.343,0.765-0.765,0.765s-0.765-0.343-0.765-0.765
		C183.531,373.874,183.874,373.531,184.296,373.531z M183.531,396.235h1.531v1.531h-1.531V396.235z M184.296,420.469
		c-0.422,0-0.765-0.343-0.765-0.765c0-0.422,0.343-0.765,0.765-0.765s0.765,0.343,0.765,0.765
		C185.061,420.126,184.718,420.469,184.296,420.469z M207.765,420.469h-1.531v-1.531h1.531V420.469z M222.513,412.513
		c-3.566,3.566-8.233,5.785-13.217,6.305v-1.409h-4.592v1.41c-4.984-0.52-9.651-2.74-13.217-6.305
		c-3.566-3.566-5.785-8.233-6.305-13.217h1.409v-4.592h-1.409c0.519-4.984,2.739-9.651,6.305-13.217
		c3.566-3.566,8.233-5.786,13.217-6.305v1.41h4.592v-1.41c4.984,0.52,9.651,2.74,13.217,6.305c3.566,3.566,5.785,8.233,6.305,13.217
		h-1.409v4.592h1.41C228.299,404.28,226.079,408.947,222.513,412.513z M229.704,420.469c-0.422,0-0.765-0.343-0.765-0.765
		c0-0.422,0.343-0.765,0.765-0.765c0.422,0,0.765,0.343,0.765,0.765C230.469,420.126,230.126,420.469,229.704,420.469z
		 M230.469,397.765h-1.531v-1.531h1.531V397.765z"/>
</g>
</svg>
