<?xml version="1.0" encoding="iso-8859-1"?>
<!-- Generator: Adobe Illustrator 21.1.0, SVG Export Plug-In . SVG Version: 6.00 Build 0)  -->
<svg version="1.1" id="&#x421;&#x43B;&#x43E;&#x439;_1"
	 xmlns="http://www.w3.org/2000/svg" xmlns:xlink="http://www.w3.org/1999/xlink" x="0px" y="0px" viewBox="0 0 35 35"
	 style="enable-background:new 0 0 35 35;" xml:space="preserve">
<g>
	<path d="M34.374,2.333h-4.376V0.584C29.998,0.262,29.72,0,29.376,0h-4.376c-0.345,0-0.626,0.262-0.626,0.584v1.749H10.626V0.584
		C10.626,0.262,10.345,0,10.001,0H5.624C5.28,0,4.998,0.262,4.998,0.584v1.749H0.626C0.28,2.333,0,2.595,0,2.917v31.499
		C0,34.738,0.28,35,0.626,35h33.748C34.719,35,35,34.738,35,34.416V2.917C35,2.595,34.719,2.333,34.374,2.333L34.374,2.333z
		 M25.625,1.168h3.125v3.497h-3.125V1.168z M6.25,1.168h3.125v3.497H6.25V1.168z M1.252,3.501h3.747v1.749
		c0,0.322,0.281,0.584,0.626,0.584h4.376c0.345,0,0.626-0.262,0.626-0.584V3.501h13.747v1.749c0,0.322,0.281,0.584,0.626,0.584
		h4.376c0.345,0,0.622-0.262,0.622-0.584V3.501h3.751V8.75H1.252V3.501z M1.252,33.832V9.918h32.497v23.914H1.252z M1.252,33.832"/>
	<path d="M22.5,13.415H5.624v16.92h23.752v-16.92H22.5z M18.124,14.583H22.5v4.085h-4.376V14.583z M22.5,23.917h-4.376v-4.085H22.5
		V23.917z M12.5,19.833h4.376v4.085H12.5V19.833z M12.5,14.583h4.376v4.085H12.5V14.583z M6.876,14.583h4.373v4.085H6.876V14.583z
		 M6.876,19.833h4.373v4.085H6.876V19.833z M11.248,29.167H6.876v-4.085h4.373V29.167z M16.876,29.167H12.5v-4.085h4.376V29.167z
		 M22.5,29.167h-4.376v-4.085H22.5V29.167z M28.124,29.167h-4.376v-4.085h4.376V29.167z M28.124,23.917h-4.376v-4.085h4.376V23.917z
		 M28.124,14.583v4.085h-4.376v-4.085H28.124z M28.124,14.583"/>
</g>
</svg>
