<?xml version="1.0" encoding="iso-8859-1"?>
<!-- Generator: Adobe Illustrator 21.1.0, SVG Export Plug-In . SVG Version: 6.00 Build 0)  -->
<svg version="1.1" id="&#x421;&#x43B;&#x43E;&#x439;_1"
	 xmlns="http://www.w3.org/2000/svg" xmlns:xlink="http://www.w3.org/1999/xlink" x="0px" y="0px" viewBox="0 0 70 70"
	 style="enable-background:new 0 0 70 70;" xml:space="preserve">
<g>
	<path style="fill:#FFFFFF;" d="M68.571,11.429v55.714c0,0.785-0.643,1.429-1.429,1.429H2.857c-0.785,0-1.429-0.643-1.429-1.429
		V11.429H68.571z M68.571,11.429"/>
	<path style="fill:#FFD248;" d="M68.571,2.857v8.571H1.429V2.857c0-0.785,0.643-1.429,1.429-1.429h64.286
		C67.928,1.429,68.571,2.072,68.571,2.857L68.571,2.857z M68.571,2.857"/>
	<path style="fill:#231F20;" d="M67.143,0H2.857C1.281,0,0,1.281,0,2.857v64.286C0,68.719,1.281,70,2.857,70h64.286
		C68.719,70,70,68.719,70,67.143V2.857C70,1.281,68.719,0,67.143,0L67.143,0z M67.143,2.857V10H2.857V2.857H67.143z M2.857,67.143
		V12.857h64.286v54.286H2.857z M2.857,67.143"/>
	<rect x="5.714" y="5" style="fill:#231F20;" width="5" height="2.857"/>
	<rect x="12.857" y="5" style="fill:#231F20;" width="5" height="2.857"/>
	<rect x="59.286" y="5" style="fill:#231F20;" width="5" height="2.857"/>
	<rect x="45" y="17.857" style="fill:#231F20;" width="3.571" height="2.857"/>
	<rect x="38.571" y="17.857" style="fill:#231F20;" width="3.571" height="2.857"/>
	<rect x="21.429" y="17.857" style="fill:#231F20;" width="14.285" height="2.857"/>
	<rect x="13.571" y="29.286" style="fill:#231F20;" width="42.857" height="2.857"/>
	<rect x="13.571" y="23.571" style="fill:#231F20;" width="42.857" height="2.857"/>
	<path style="fill:#231F20;" d="M9.286,47.143c-0.366,0-0.731-0.139-1.01-0.419l-2.857-2.857l2.02-2.02l1.847,1.847l5.419-5.419
		l2.02,2.02l-6.429,6.429C10.017,47.003,9.651,47.143,9.286,47.143L9.286,47.143z M9.286,47.143"/>
	<rect x="19.286" y="38.571" style="fill:#231F20;" width="8.571" height="2.857"/>
	<rect x="19.286" y="42.857" style="fill:#231F20;" width="13.571" height="2.857"/>
	<path style="fill:#231F20;" d="M40,47.143c-0.366,0-0.731-0.139-1.01-0.419l-2.857-2.857l2.02-2.02L40,43.694l5.419-5.419
		l2.02,2.02l-6.429,6.429C40.731,47.003,40.366,47.143,40,47.143L40,47.143z M40,47.143"/>
	<rect x="50" y="38.571" style="fill:#231F20;" width="8.571" height="2.857"/>
	<rect x="50" y="42.857" style="fill:#231F20;" width="13.571" height="2.857"/>
	<path style="fill:#231F20;" d="M9.286,62.857c-0.366,0-0.731-0.139-1.01-0.419l-2.857-2.857l2.02-2.02l1.847,1.847l5.419-5.419
		l2.02,2.02l-6.429,6.429C10.017,62.718,9.651,62.857,9.286,62.857L9.286,62.857z M9.286,62.857"/>
	<rect x="19.286" y="54.286" style="fill:#231F20;" width="8.571" height="2.857"/>
	<rect x="19.286" y="58.571" style="fill:#231F20;" width="13.571" height="2.857"/>
	<path style="fill:#231F20;" d="M40,62.857c-0.366,0-0.731-0.139-1.01-0.419l-2.857-2.857l2.02-2.02L40,59.409l5.419-5.419
		l2.02,2.02l-6.429,6.429C40.731,62.718,40.366,62.857,40,62.857L40,62.857z M40,62.857"/>
	<rect x="50" y="54.286" style="fill:#231F20;" width="8.571" height="2.857"/>
	<rect x="50" y="58.571" style="fill:#231F20;" width="13.571" height="2.857"/>
	<rect x="30" y="38.571" style="fill:#231F20;" width="2.857" height="2.857"/>
	<rect x="30" y="54.286" style="fill:#231F20;" width="2.857" height="2.857"/>
	<rect x="60.714" y="54.286" style="fill:#231F20;" width="2.857" height="2.857"/>
	<rect x="60.714" y="38.571" style="fill:#231F20;" width="2.857" height="2.857"/>
</g>
</svg>
