<?xml version="1.0" encoding="iso-8859-1"?>
<!-- Generator: Adobe Illustrator 21.1.0, SVG Export Plug-In . SVG Version: 6.00 Build 0)  -->
<svg version="1.1" id="Layer_1" xmlns="http://www.w3.org/2000/svg" xmlns:xlink="http://www.w3.org/1999/xlink" x="0px" y="0px"
	 viewBox="173.564 362 66.87 70" style="enable-background:new 173.564 362 66.87 70;" xml:space="preserve">
<g>
	<ellipse style="fill:#FFCF70;" cx="207" cy="405.74" rx="19.44" ry="7.735"/>
	<path style="fill:#0BBBDA;" d="M197.975,400.473c-2.267,0-4.106-1.828-4.106-4.084v-11.374c0-4.701,3.831-7.443,8.556-7.443h9.147
		c4.726,0,8.556,2.742,8.556,7.443v11.374c0,2.256-1.838,4.084-4.106,4.084H197.975z"/>
	<polygon style="fill:#ECF0F1;" points="214.404,395.901 214.404,405.805 199.594,405.805 199.594,395.918 206.998,400.397 	"/>
	<polygon style="fill:#0BBBDA;" points="214.404,388.947 214.404,395.901 206.998,400.397 199.594,395.918 199.594,388.947 	"/>
	<path style="fill:#FFBAA8;" d="M207.496,377.573h-0.992c-3.141,0-5.076-2.546-5.076-5.687v-2.672c0-3.141,1.936-5.687,5.076-5.687
		h0.992c3.141,0,5.076,2.546,5.076,5.687v2.672C212.572,375.026,210.637,377.573,207.496,377.573z"/>
	<polygon style="fill:#ECF0F1;" points="211.875,377.573 207,386.758 202.124,377.573 	"/>
	<ellipse style="fill:#0BBBDA;" cx="207" cy="426.198" rx="8.092" ry="4.275"/>
	<ellipse style="fill:#FFBAA8;" cx="230.816" cy="426.198" rx="8.092" ry="4.275"/>
	<ellipse style="fill:#ECF0F1;" cx="183.183" cy="426.198" rx="8.092" ry="4.275"/>
	<g>
		<circle style="fill:#231F20;" cx="207" cy="391.339" r="1.527"/>
		<path style="fill:#231F20;" d="M230.816,420.397c-0.523,0-1.033,0.023-1.529,0.067l-9.11-7.427c4.573-1.556,7.79-4.014,7.79-7.296
			c0-3.053-2.783-5.391-6.851-6.955c0.346-0.727,0.541-1.539,0.541-2.396v-11.374c0-4.863-3.517-8.373-8.709-8.898
			c0.733-1.166,1.152-2.612,1.152-4.231v-2.672c0-4.18-2.777-7.214-6.603-7.214h-0.992c-3.826,0-6.603,3.034-6.603,7.214v2.672
			c0,1.62,0.418,3.066,1.152,4.231c-5.192,0.526-8.709,4.036-8.709,8.898v11.374c0,0.857,0.195,1.669,0.541,2.396
			c-4.068,1.564-6.851,3.902-6.851,6.955c0,3.282,3.216,5.74,7.789,7.296l-9.11,7.427c-0.496-0.044-1.006-0.067-1.529-0.067
			c-5.483,0-9.618,2.494-9.618,5.802c0,3.307,4.135,5.802,9.618,5.802c5.483,0,9.618-2.494,9.618-5.802
			c0-2.102-1.671-3.874-4.296-4.887l8.937-7.286c2.533,0.545,5.284,0.866,8.031,0.953v5.486c-4.706,0.416-8.092,2.742-8.092,5.735
			c0,3.307,4.135,5.802,9.618,5.802c5.483,0,9.618-2.494,9.618-5.802c0-2.993-3.385-5.319-8.092-5.735v-5.486
			c2.747-0.087,5.498-0.408,8.031-0.953l8.937,7.286c-2.625,1.014-4.296,2.786-4.296,4.887c0,3.307,4.135,5.802,9.618,5.802
			s9.618-2.494,9.618-5.802C240.434,422.891,236.3,420.397,230.816,420.397z M189.748,426.198c0,1.12-2.557,2.748-6.565,2.748
			s-6.565-1.628-6.565-2.748c0-1.12,2.557-2.748,6.565-2.748S189.748,425.078,189.748,426.198z M209.336,379.099L207,383.502
			l-2.337-4.402H209.336z M202.954,369.214c0-2.071,1.098-4.16,3.55-4.16h0.992c2.452,0,3.55,2.089,3.55,4.16v2.672
			c0,2.071-1.098,4.16-3.55,4.16h-0.992c-2.452,0-3.55-2.089-3.55-4.16V369.214z M195.396,385.015c0-3.625,2.778-5.473,5.848-5.844
			l4.407,8.303c0.265,0.499,0.784,0.811,1.349,0.811c0.565,0,1.084-0.312,1.349-0.811l4.407-8.303
			c3.07,0.371,5.848,2.219,5.848,5.844v11.374c0,1.41-1.157,2.557-2.579,2.557c-0.031,0-0.062,0.003-0.093,0.005v-3.051v-6.954
			c0-0.843-0.684-1.527-1.527-1.527c-0.843,0-1.527,0.684-1.527,1.527v6.095l0,0l-5.881,3.57l-5.875-3.555v-6.11
			c0-0.843-0.684-1.527-1.527-1.527s-1.527,0.684-1.527,1.527v6.971v3.034c-0.031-0.002-0.061-0.005-0.092-0.005
			c-1.422,0-2.579-1.147-2.579-2.557V385.015L195.396,385.015z M201.121,398.626l5.086,3.077c0.487,0.294,1.097,0.294,1.583-0.001
			l5.087-3.088v5.664h-11.756L201.121,398.626L201.121,398.626z M189.086,405.74c0-1.459,2.161-3.242,6.027-4.522
			c0.839,0.496,1.818,0.781,2.862,0.781c0.031,0,0.062-0.003,0.092-0.005v3.809c0,0.843,0.684,1.527,1.527,1.527h14.809
			c0.843,0,1.527-0.684,1.527-1.527v-3.809c0.031,0.002,0.062,0.005,0.093,0.005c1.045,0,2.023-0.286,2.862-0.781
			c3.866,1.28,6.027,3.063,6.027,4.522c0,2.593-6.815,6.209-17.914,6.209C195.901,411.949,189.086,408.333,189.086,405.74z
			 M213.564,426.198c0,1.12-2.557,2.748-6.565,2.748c-4.007,0-6.565-1.628-6.565-2.748c0-1.12,2.557-2.748,6.565-2.748
			C211.007,423.45,213.564,425.078,213.564,426.198z M230.816,428.947c-4.007,0-6.565-1.628-6.565-2.748
			c0-1.12,2.557-2.748,6.565-2.748s6.565,1.628,6.565,2.748C237.381,427.319,234.824,428.947,230.816,428.947z"/>
	</g>
</g>
</svg>
