<?xml version="1.0" encoding="iso-8859-1"?>
<!-- Generator: Adobe Illustrator 21.1.0, SVG Export Plug-In . SVG Version: 6.00 Build 0)  -->
<svg version="1.1" id="Layer_1" xmlns="http://www.w3.org/2000/svg" xmlns:xlink="http://www.w3.org/1999/xlink" x="0px" y="0px"
	 viewBox="182 372 50 50" style="enable-background:new 182 372 50 50;" xml:space="preserve">
<g>
	<path style="fill:#5D7EAC;" d="M231.211,392.047v2.539c0,0.889-0.628,1.655-1.5,1.83l-4.653,0.931
		c-0.324,1.158-0.783,2.258-1.361,3.284l2.632,3.949c0.493,0.74,0.396,1.726-0.233,2.355l-1.795,1.795
		c-0.629,0.629-1.614,0.727-2.355,0.233l-3.949-2.632c-1.026,0.578-2.126,1.037-3.284,1.361l-0.389,1.942h-7.282l-0.389-1.942
		c-1.158-0.324-2.258-0.783-3.284-1.361l-3.949,2.632c-0.74,0.493-1.726,0.396-2.355-0.233l-1.795-1.795
		c-0.629-0.629-0.727-1.614-0.233-2.355l2.632-3.949c-0.578-1.026-1.037-2.126-1.361-3.284l-4.653-0.931
		c-0.872-0.174-1.5-0.94-1.5-1.83v-2.539c0-0.889,0.628-1.655,1.5-1.83l4.653-0.931c0.324-1.158,0.783-2.258,1.361-3.284
		l-2.632-3.949c-0.493-0.74-0.396-1.726,0.233-2.355l1.795-1.795c0.629-0.629,1.614-0.727,2.355-0.233l3.949,2.632
		c1.026-0.578,2.126-1.037,3.284-1.361l0.931-4.653c0.174-0.872,0.94-1.5,1.83-1.5h2.539c0.889,0,1.655,0.628,1.83,1.5l0.931,4.653
		c1.158,0.324,2.258,0.783,3.284,1.361l3.949-2.632c0.74-0.493,1.726-0.396,2.355,0.233l1.795,1.795
		c0.629,0.629,0.727,1.614,0.233,2.355l-2.632,3.949c0.578,1.026,1.037,2.126,1.361,3.284l4.653,0.931
		C230.583,390.391,231.211,391.157,231.211,392.047z"/>
	<path style="fill:#809DED;" d="M212.209,403.085c-2.752,0.43-5.416-0.321-7.477-1.875h-2.995v-3.158h0.265
		c-0.531-0.973-0.907-2.053-1.088-3.212c-0.842-5.396,2.849-10.452,8.245-11.294c5.396-0.842,10.452,2.849,11.294,8.245
		C221.296,397.186,217.605,402.243,212.209,403.085z"/>
	<path style="fill:#CEDEEC;" d="M216.294,392.44c0.484,3.098-1.636,6.002-4.734,6.486c-3.098,0.484-6.002-1.636-6.486-4.734
		c-0.484-3.098,1.636-6.002,4.734-6.486S215.811,389.342,216.294,392.44z"/>
	<path style="fill:#809DED;" d="M213.908,392.813c0.278,1.781-0.94,3.449-2.721,3.727c-1.781,0.278-3.449-0.94-3.727-2.721
		s0.94-3.449,2.721-3.727C211.961,389.814,213.63,391.032,213.908,392.813z"/>
	<path style="fill:#5D7EAC;" d="M211.187,396.54c-0.62,0.097-1.227,0.012-1.766-0.215c1.352-0.567,2.197-1.998,1.961-3.512
		c-0.181-1.16-0.953-2.081-1.961-2.505c0.239-0.1,0.493-0.174,0.76-0.215c1.781-0.278,3.449,0.94,3.727,2.721
		C214.186,394.593,212.968,396.262,211.187,396.54z"/>
	<path style="fill:#F5D472;" d="M213.316,405.421c1.163,0,2.105,0.943,2.105,2.105v1.053c0,1.163-0.943,2.105-2.105,2.105
		c1.163,0,2.105,0.943,2.105,2.105v1.053c0,1.163-0.943,2.105-2.105,2.105c1.163,0,2.105,0.943,2.105,2.105v1.053
		c0,1.163-0.943,2.105-2.105,2.105h-14.301c-0.95,0-1.861-0.376-2.535-1.046c-0.678-0.675-1.591-1.059-2.548-1.059h-4.827v-15.789
		h4.798c0.906,0,1.711-0.58,1.997-1.439l0.294-0.882c0.882-2.646,1.332-5.416,1.332-8.205l0,0c0-1.163,0.943-2.105,2.105-2.105l0,0
		c1.744,0,3.158,1.414,3.158,3.158l0,6.316h10.527c1.163,0,2.105,0.943,2.105,2.105v1.053
		C215.421,404.479,214.479,405.421,213.316,405.421z"/>
	<path style="fill:#D9B166;" d="M202.789,393.842l0,6.316h-1.053c-1.163,0-2.105-0.943-2.105-2.105l0-4.21
		c0-1.093-0.555-2.056-1.399-2.623c0.372-0.332,0.861-0.535,1.399-0.535l0,0C201.376,390.684,202.79,392.098,202.789,393.842z
		 M215.421,403.316v-1.053c0-1.163-0.943-2.105-2.105-2.105h-1.579c0.872,0,1.579,0.707,1.579,1.579s-0.707,1.579-1.579,1.579
		h-0.526h-3.684h-1.579c-0.581,0-1.053,0.471-1.053,1.053c0,0.581,0.471,1.053,1.053,1.053h1.579h3.684h0.526
		c0.872,0,1.579,0.707,1.579,1.579s-0.707,1.579-1.579,1.579h-0.526h-3.684h-1.579c-0.581,0-1.053,0.471-1.053,1.053
		c0,0.581,0.471,1.053,1.053,1.053h1.579h3.684h0.526c0.872,0,1.579,0.707,1.579,1.579s-0.707,1.579-1.579,1.579h-0.526h-3.684
		h-1.579c-0.581,0-1.053,0.471-1.053,1.053c0,0.581,0.471,1.053,1.053,1.053h1.579h3.684h0.526c0.872,0,1.579,0.707,1.579,1.579
		c0,0.872-0.707,1.579-1.579,1.579h-0.526h-3.684h-1.579c-0.581,0-1.053,0.471-1.053,1.053s0.471,1.053,1.053,1.053h4.211h2.105
		h1.053c1.163,0,2.105-0.943,2.105-2.105v-1.053c0-1.163-0.943-2.105-2.105-2.105c1.163,0,2.105-0.943,2.105-2.105v-1.053
		c0-1.163-0.943-2.105-2.105-2.105c1.163,0,2.105-0.943,2.105-2.105v-1.053c0-1.163-0.943-2.105-2.105-2.105
		C214.479,405.421,215.421,404.479,215.421,403.316z M189.105,419.105h4.211v-15.789h-4.211V419.105z"/>
	<path style="fill:#809DED;" d="M191.211,402.263v17.895c0,0.581-0.471,1.053-1.053,1.053h-6.316c-0.581,0-1.053-0.471-1.053-1.053
		v-17.895c0-0.581,0.471-1.053,1.053-1.053h6.316C190.739,401.211,191.211,401.682,191.211,402.263z"/>
	<path style="fill:#5D7EAC;" d="M191.211,402.263v17.895c0,0.581-0.471,1.053-1.053,1.053H187c0.581,0,1.053-0.471,1.053-1.053
		v-17.895c0-0.581-0.471-1.053-1.053-1.053h3.158C190.739,401.211,191.211,401.682,191.211,402.263z"/>
	<path d="M216.211,402.263v1.053c0,0.829-0.35,1.577-0.91,2.105c0.56,0.528,0.91,1.277,0.91,2.105v1.053
		c0,0.829-0.35,1.577-0.91,2.105c0.56,0.528,0.91,1.277,0.91,2.105v1.053c0,0.829-0.35,1.577-0.91,2.105
		c0.56,0.528,0.91,1.277,0.91,2.105v1.053c0,1.596-1.299,2.895-2.895,2.895h-14.301c-1.167,0-2.265-0.453-3.092-1.276
		c-0.537-0.535-1.244-0.829-1.991-0.829H192v0.263c0,1.016-0.826,1.842-1.842,1.842h-6.316c-1.016,0-1.842-0.826-1.842-1.842
		v-17.895c0-1.016,0.826-1.842,1.842-1.842h6.316c1.016,0,1.842,0.826,1.842,1.842v0.263h1.903c0.567,0,1.069-0.362,1.248-0.9
		l0.294-0.882c0.857-2.57,1.291-5.246,1.291-7.955c0-1.596,1.299-2.895,2.895-2.895c1.054,0,2.046,0.411,2.791,1.156
		c0.746,0.746,1.156,1.737,1.156,2.791v8.421c0,0.436-0.353,0.789-0.789,0.789S202,402.699,202,402.263v-8.421
		c0-0.633-0.246-1.227-0.694-1.675c-0.447-0.447-1.042-0.694-1.675-0.694c-0.726,0-1.316,0.59-1.316,1.316
		c0,2.879-0.462,5.724-1.372,8.455l-0.294,0.882c-0.395,1.184-1.498,1.979-2.746,1.979H192v2.368c0,0.436-0.353,0.789-0.789,0.789
		s-0.789-0.353-0.789-0.789v-4.211c0-0.145-0.118-0.263-0.263-0.263h-6.316c-0.145,0-0.263,0.118-0.263,0.263v17.895
		c0,0.145,0.118,0.263,0.263,0.263h2.368v-10.789c0-0.436,0.353-0.789,0.789-0.789s0.789,0.353,0.789,0.789v10.789h2.368
		c0.145,0,0.263-0.118,0.263-0.263v-10.526c0-0.436,0.353-0.789,0.789-0.789s0.789,0.353,0.789,0.789v8.684h1.932
		c1.167,0,2.269,0.458,3.105,1.289c0.529,0.526,1.232,0.816,1.978,0.816h14.301c0.726,0,1.316-0.59,1.316-1.316v-1.053
		c0-0.726-0.59-1.316-1.316-1.316h-7.368c-0.436,0-0.789-0.353-0.789-0.789c0-0.436,0.353-0.789,0.789-0.789h7.368
		c0.726,0,1.316-0.59,1.316-1.316v-1.053c0-0.726-0.59-1.316-1.316-1.316h-7.368c-0.436,0-0.789-0.353-0.789-0.789
		c0-0.436,0.353-0.789,0.789-0.789h7.368c0.726,0,1.316-0.59,1.316-1.316v-1.053c0-0.726-0.59-1.316-1.316-1.316h-7.368
		c-0.436,0-0.789-0.353-0.789-0.789s0.353-0.789,0.789-0.789h7.368c0.726,0,1.316-0.59,1.316-1.316v-1.053
		c0-0.726-0.59-1.316-1.316-1.316h-7.368c-0.436,0-0.789-0.353-0.789-0.789s0.353-0.789,0.789-0.789h7.368
		C214.912,399.368,216.211,400.667,216.211,402.263z M206.68,393.941c-0.345-2.208,1.171-4.284,3.379-4.629l0,0
		c2.207-0.345,4.284,1.171,4.629,3.379c0.345,2.208-1.171,4.284-3.379,4.629c-0.211,0.033-0.42,0.049-0.627,0.049
		C208.721,397.369,206.992,395.938,206.68,393.941z M208.24,393.697c0.21,1.347,1.478,2.273,2.825,2.062
		c1.347-0.21,2.273-1.478,2.062-2.825c-0.21-1.347-1.478-2.272-2.825-2.062l0,0C208.955,391.082,208.03,392.35,208.24,393.697z
		 M217.268,385.896c0.263-0.348,0.193-0.843-0.155-1.106c-2.328-1.755-5.196-2.475-8.075-2.024c-3.304,0.516-6.12,2.496-7.726,5.434
		c-0.209,0.383-0.069,0.862,0.314,1.071c0.12,0.066,0.25,0.097,0.378,0.097c0.279,0,0.55-0.149,0.693-0.411
		c1.369-2.504,3.769-4.192,6.584-4.631c2.454-0.383,4.898,0.23,6.881,1.725C216.511,386.314,217.006,386.245,217.268,385.896z
		 M229.865,389.443l-4.186-0.837c-0.277-0.883-0.633-1.742-1.061-2.561l2.368-3.553c0.7-1.05,0.56-2.459-0.332-3.351l-1.795-1.795
		c-0.892-0.892-2.301-1.032-3.351-0.332l-3.553,2.368c-0.82-0.428-1.678-0.784-2.561-1.061l-0.837-4.186
		c-0.247-1.237-1.342-2.135-2.604-2.135h-2.539c-1.261,0-2.357,0.898-2.604,2.135l-0.837,4.186
		c-0.883,0.277-1.742,0.633-2.561,1.061l-3.553-2.368c-1.05-0.7-2.459-0.56-3.351,0.332l-1.795,1.795
		c-0.892,0.892-1.031,2.301-0.332,3.351l2.368,3.553c-0.428,0.82-0.784,1.678-1.061,2.561l-4.186,0.837
		c-1.237,0.247-2.135,1.343-2.135,2.604v2.538c0,1.261,0.898,2.357,2.135,2.604l2.71,0.542c0.428,0.085,0.843-0.192,0.929-0.619
		c0.085-0.428-0.192-0.843-0.619-0.929l-2.71-0.542c-0.501-0.1-0.865-0.544-0.865-1.056v-2.538c0-0.511,0.364-0.955,0.865-1.056
		l4.653-0.931c0.291-0.058,0.525-0.275,0.605-0.561c0.303-1.084,0.737-2.13,1.288-3.109c0.146-0.259,0.134-0.578-0.031-0.825
		l-2.632-3.949c-0.284-0.425-0.227-0.997,0.135-1.358l1.795-1.795c0.362-0.362,0.933-0.418,1.358-0.134l3.949,2.632
		c0.247,0.165,0.566,0.177,0.825,0.031c0.979-0.552,2.025-0.985,3.109-1.288c0.286-0.08,0.503-0.314,0.561-0.605l0.931-4.653
		c0.1-0.501,0.544-0.865,1.056-0.865h2.539c0.511,0,0.955,0.364,1.056,0.865l0.931,4.653c0.058,0.291,0.275,0.525,0.561,0.605
		c1.084,0.303,2.13,0.737,3.109,1.288c0.259,0.146,0.578,0.134,0.825-0.031l3.949-2.632c0.425-0.284,0.997-0.227,1.358,0.135
		l1.795,1.795c0.362,0.362,0.418,0.933,0.135,1.358l-2.632,3.949c-0.165,0.247-0.177,0.566-0.031,0.825
		c0.552,0.979,0.985,2.025,1.288,3.109c0.08,0.286,0.314,0.503,0.605,0.561l4.653,0.931c0.501,0.1,0.865,0.544,0.865,1.056v2.538
		c0,0.511-0.364,0.955-0.865,1.056l-4.653,0.931c-0.291,0.058-0.525,0.275-0.605,0.561c-0.303,1.084-0.737,2.13-1.288,3.109
		c-0.146,0.259-0.134,0.578,0.031,0.825l2.632,3.949c0.284,0.425,0.227,0.997-0.135,1.358l-1.795,1.795
		c-0.362,0.362-0.933,0.418-1.358,0.134l-3.949-2.632c-0.363-0.242-0.853-0.144-1.095,0.219c-0.242,0.363-0.144,0.853,0.219,1.095
		l3.949,2.632c0.447,0.298,0.96,0.444,1.47,0.444c0.687,0,1.369-0.264,1.88-0.776l1.795-1.795c0.892-0.892,1.031-2.301,0.332-3.351
		l-2.368-3.553c0.428-0.82,0.784-1.678,1.061-2.561l4.186-0.837c1.237-0.247,2.135-1.343,2.135-2.604v-2.538
		C232,390.785,231.102,389.69,229.865,389.443z M217.823,400.947c0.208,0,0.415-0.082,0.57-0.244c2.322-2.427,3.358-5.72,2.84-9.035
		c-0.263-1.684-0.899-3.234-1.892-4.606c-0.255-0.353-0.749-0.433-1.102-0.177c-0.353,0.256-0.433,0.749-0.177,1.102
		c0.845,1.168,1.387,2.489,1.611,3.924c0.441,2.825-0.441,5.631-2.421,7.699c-0.301,0.315-0.291,0.815,0.025,1.116
		C217.43,400.875,217.627,400.947,217.823,400.947z"/>
</g>
</svg>
