<?xml version="1.0" encoding="iso-8859-1"?>
<!-- Generator: Adobe Illustrator 21.1.0, SVG Export Plug-In . SVG Version: 6.00 Build 0)  -->
<svg version="1.1" id="Layer_1" xmlns="http://www.w3.org/2000/svg" xmlns:xlink="http://www.w3.org/1999/xlink" x="0px" y="0px"
	 viewBox="182 375.09 50 43.82" style="enable-background:new 182 375.09 50 43.82;" xml:space="preserve">
<g>
	<path style="fill:#E4EAF8;" d="M225.028,387.708h-41.391c-0.466,0-0.845-0.378-0.845-0.845v-10.137
		c0-0.466,0.378-0.845,0.845-0.845h41.391c0.466,0,0.845,0.378,0.845,0.845v10.137C225.873,387.33,225.495,387.708,225.028,387.708z
		"/>
	<path style="fill:#FF5050;" d="M193.773,387.708h-10.137c-0.466,0-0.845-0.378-0.845-0.845v-10.137
		c0-0.466,0.378-0.845,0.845-0.845h10.137V387.708z"/>
	<path style="fill:#E4EAF8;" d="M225.028,402.913h-41.391c-0.466,0-0.845-0.378-0.845-0.845v-10.137
		c0-0.466,0.378-0.845,0.845-0.845h41.391c0.466,0,0.845,0.378,0.845,0.845v10.137C225.873,402.535,225.495,402.913,225.028,402.913
		z"/>
	<path style="fill:#FFDC64;" d="M193.773,402.913h-10.137c-0.466,0-0.845-0.378-0.845-0.845v-10.137
		c0-0.466,0.378-0.845,0.845-0.845h10.137V402.913z"/>
	<path style="fill:#E4EAF8;" d="M225.028,418.118h-41.391c-0.466,0-0.845-0.378-0.845-0.845v-10.137
		c0-0.466,0.378-0.845,0.845-0.845h41.391c0.466,0,0.845,0.378,0.845,0.845v10.137C225.873,417.74,225.495,418.118,225.028,418.118z
		"/>
	<path style="fill:#7DF5A5;" d="M193.773,418.118h-10.137c-0.466,0-0.845-0.378-0.845-0.845v-10.137
		c0-0.466,0.378-0.845,0.845-0.845h10.137V418.118z"/>
	<g>
		<path style="fill:#D5DCED;" d="M225.028,406.292h-5.068v4.7c0,0.931,0.511,1.787,1.33,2.23c0.377,0.204,0.791,0.305,1.204,0.305
			c0.485,0,0.969-0.139,1.389-0.415l0.139-0.091l1.771,4.277c0.015,0.037,0.036,0.069,0.053,0.105
			c0.007-0.043,0.026-0.083,0.026-0.128v-10.137C225.873,406.67,225.495,406.292,225.028,406.292z"/>
		<path style="fill:#D5DCED;" d="M225.873,398.484l-1.587-1.587c-0.485-0.485-1.133-0.742-1.792-0.742
			c-0.326,0-0.656,0.063-0.969,0.193c-0.947,0.392-1.564,1.316-1.564,2.341v4.224h5.068c0.466,0,0.845-0.378,0.845-0.845V398.484z"
			/>
	</g>
	<polygon style="fill:#464655;" points="222.494,398.689 222.494,410.992 225.193,409.223 228.135,416.327 230.977,415.15 
		228.034,408.046 231.208,407.404 	"/>
	<path d="M183.637,388.5h41.391c0.902,0,1.637-0.734,1.637-1.637v-10.137c0-0.902-0.734-1.637-1.637-1.637h-41.391
		c-0.902,0-1.637,0.734-1.637,1.637v10.137C182,387.766,182.734,388.5,183.637,388.5z M225.081,376.727v10.137
		c0,0.029-0.024,0.053-0.053,0.053h-30.463v-10.242h30.463C225.057,376.674,225.081,376.698,225.081,376.727z M183.584,376.727
		c0-0.029,0.024-0.053,0.053-0.053h9.345v10.242h-9.345c-0.029,0-0.053-0.024-0.053-0.053V376.727z"/>
	<path d="M197.152,380.897h14.36c0.437,0,0.792-0.355,0.792-0.792s-0.355-0.792-0.792-0.792h-14.36
		c-0.437,0-0.792,0.355-0.792,0.792S196.715,380.897,197.152,380.897z"/>
	<path d="M203.963,383.484c0,0.437,0.355,0.792,0.792,0.792h16.895c0.437,0,0.792-0.355,0.792-0.792
		c0-0.437-0.355-0.792-0.792-0.792h-16.895C204.317,382.693,203.963,383.047,203.963,383.484z"/>
	<path d="M201.376,382.693h-4.224c-0.437,0-0.792,0.355-0.792,0.792c0,0.437,0.355,0.792,0.792,0.792h4.224
		c0.437,0,0.792-0.355,0.792-0.792C202.168,383.047,201.813,382.693,201.376,382.693z"/>
	<path d="M186.171,381.32c0.437,0,0.792-0.355,0.792-0.792c0-0.728,0.592-1.32,1.32-1.32s1.32,0.592,1.32,1.32
		s-0.592,1.32-1.32,1.32c-0.437,0-0.792,0.355-0.792,0.792s0.355,0.792,0.792,0.792c1.601,0,2.904-1.303,2.904-2.904
		s-1.303-2.904-2.904-2.904s-2.904,1.303-2.904,2.904C185.379,380.965,185.734,381.32,186.171,381.32z"/>
	<path d="M188.291,384.382h-0.008c-0.437,0-0.788,0.355-0.788,0.792c0,0.437,0.359,0.792,0.796,0.792
		c0.437,0,0.792-0.355,0.792-0.792C189.083,384.737,188.729,384.382,188.291,384.382z"/>
	<path d="M197.152,396.102h14.36c0.437,0,0.792-0.355,0.792-0.792s-0.355-0.792-0.792-0.792h-14.36
		c-0.437,0-0.792,0.355-0.792,0.792S196.715,396.102,197.152,396.102z"/>
	<path d="M219.115,397.898h-14.36c-0.437,0-0.792,0.355-0.792,0.792c0,0.437,0.355,0.792,0.792,0.792h14.36
		c0.437,0,0.792-0.355,0.792-0.792C219.907,398.252,219.552,397.898,219.115,397.898z"/>
	<path d="M201.376,397.898h-4.224c-0.437,0-0.792,0.355-0.792,0.792c0,0.437,0.355,0.792,0.792,0.792h4.224
		c0.437,0,0.792-0.355,0.792-0.792C202.168,398.252,201.813,397.898,201.376,397.898z"/>
	<path d="M188.283,392.829c-1.601,0-2.904,1.303-2.904,2.904c0,0.437,0.355,0.792,0.792,0.792c0.437,0,0.792-0.355,0.792-0.792
		c0-0.728,0.592-1.32,1.32-1.32s1.32,0.592,1.32,1.32s-0.592,1.32-1.32,1.32c-0.437,0-0.792,0.355-0.792,0.792
		c0,0.437,0.355,0.792,0.792,0.792c1.601,0,2.904-1.303,2.904-2.904S189.884,392.829,188.283,392.829z"/>
	<path d="M188.291,399.587h-0.008c-0.437,0-0.788,0.355-0.788,0.792s0.359,0.792,0.796,0.792c0.437,0,0.792-0.355,0.792-0.792
		S188.729,399.587,188.291,399.587z"/>
	<path d="M197.152,411.307h14.36c0.437,0,0.792-0.355,0.792-0.792c0-0.437-0.355-0.792-0.792-0.792h-14.36
		c-0.437,0-0.792,0.355-0.792,0.792C196.36,410.953,196.715,411.307,197.152,411.307z"/>
	<path d="M219.96,413.103h-15.205c-0.437,0-0.792,0.355-0.792,0.792s0.355,0.792,0.792,0.792h15.205
		c0.437,0,0.792-0.355,0.792-0.792S220.397,413.103,219.96,413.103z"/>
	<path d="M201.376,413.103h-4.224c-0.437,0-0.792,0.355-0.792,0.792s0.355,0.792,0.792,0.792h4.224c0.437,0,0.792-0.355,0.792-0.792
		S201.813,413.103,201.376,413.103z"/>
	<path d="M188.283,408.034c-1.601,0-2.904,1.303-2.904,2.904c0,0.437,0.355,0.792,0.792,0.792c0.437,0,0.792-0.355,0.792-0.792
		c0-0.728,0.592-1.32,1.32-1.32s1.32,0.592,1.32,1.32c0,0.728-0.592,1.32-1.32,1.32c-0.437,0-0.792,0.355-0.792,0.792
		s0.355,0.792,0.792,0.792c1.601,0,2.904-1.303,2.904-2.904C191.186,409.337,189.884,408.034,188.283,408.034z"/>
	<path d="M188.291,414.792h-0.008c-0.437,0-0.788,0.355-0.788,0.792s0.359,0.792,0.796,0.792c0.437,0,0.792-0.355,0.792-0.792
		S188.729,414.792,188.291,414.792z"/>
	<path d="M231.966,407.632c0.084-0.279,0.008-0.582-0.198-0.789l-5.103-5.103v-9.809c0-0.902-0.734-1.637-1.637-1.637h-41.391
		c-0.902,0-1.637,0.734-1.637,1.637v10.137c0,0.902,0.734,1.637,1.637,1.637h38.065v1.795h-38.065c-0.902,0-1.637,0.734-1.637,1.637
		v10.137c0,0.902,0.734,1.637,1.637,1.637h41.391c0.902,0,1.637-0.734,1.637-1.637v-2.427l0.739,1.783
		c0.08,0.194,0.235,0.348,0.429,0.429c0.097,0.04,0.2,0.06,0.303,0.06s0.206-0.02,0.303-0.06l2.842-1.177
		c0.404-0.167,0.596-0.631,0.429-1.035l-2.574-6.215l2.231-0.452C231.651,408.122,231.882,407.912,231.966,407.632z
		 M183.584,402.068v-10.137c0-0.029,0.024-0.053,0.053-0.053h9.345v10.242h-9.345C183.608,402.121,183.584,402.097,183.584,402.068z
		 M194.565,402.121v-10.242h30.463c0.029,0,0.053,0.024,0.053,0.053v8.225l-2.027-2.027c-0.226-0.227-0.567-0.294-0.863-0.172
		c-0.296,0.123-0.489,0.411-0.489,0.732v3.432H194.565z M183.584,417.273v-10.137c0-0.029,0.024-0.053,0.053-0.053h9.345v10.242
		h-9.345C183.608,417.326,183.584,417.302,183.584,417.273z M225.081,417.273c0,0.029-0.024,0.053-0.053,0.053h-30.463v-10.242
		h27.137v3.908c0,0.291,0.16,0.558,0.415,0.697s0.567,0.125,0.811-0.034l1.899-1.245l0.254,0.613V417.273z M227.877,407.27
		c-0.232,0.047-0.431,0.195-0.542,0.404c-0.111,0.209-0.123,0.457-0.033,0.675l2.639,6.372l-1.378,0.571l-2.639-6.372
		c-0.09-0.218-0.273-0.384-0.498-0.454c-0.076-0.024-0.155-0.035-0.233-0.035c-0.153,0-0.304,0.044-0.434,0.13l-1.473,0.965v-8.925
		l6.319,6.319L227.877,407.27z"/>
</g>
</svg>
