<?xml version="1.0" encoding="iso-8859-1"?>
<!-- Generator: Adobe Illustrator 21.1.0, SVG Export Plug-In . SVG Version: 6.00 Build 0)  -->
<svg version="1.1" id="Layer_1" xmlns="http://www.w3.org/2000/svg" xmlns:xlink="http://www.w3.org/1999/xlink" x="0px" y="0px"
	 viewBox="182 372 50 50" style="enable-background:new 182 372 50 50;" xml:space="preserve">
<g>
	<path style="fill:#FEDC3D;" d="M231.202,394.819v4.362c0,3.466-0.974,6.703-2.665,9.454h-7.973v-13.816l-11.702-18.085h4.255
		C223.105,376.734,231.202,384.831,231.202,394.819z"/>
	<path style="fill:#FFE777;" d="M226.947,394.819v4.362c0,2.496-0.505,4.873-1.42,7.037l-5.732,1.359l-1.571-7.226v-5.532
		c0-2.816-2.29-5.106-5.106-5.106h-17.34v3.936l-10.314-8.284l-2.665-2.142l12.979-10.426v3.936h13.085
		C218.85,376.734,226.947,384.831,226.947,394.819z"/>
	<polygon style="fill:#FE834D;" points="231.202,410.776 218.223,421.202 223.011,410.776 218.223,400.351 	"/>
	<path style="fill:#FEA680;" d="M218.223,400.351l8.723,10.426l-8.723,10.426v-3.936h-17.34c-9.988,0-18.085-8.097-18.085-18.085
		v-4.362c0-3.466,0.974-6.703,2.665-9.454l10.314,8.284v5.532c0,2.816,2.29,5.106,5.106,5.106h17.34V400.351z"/>
	<circle cx="213.694" cy="381.122" r="0.798"/>
	<circle cx="216.885" cy="383.25" r="0.798"/>
	<circle cx="197.115" cy="412.878" r="0.798"/>
	<path d="M229.244,405.42c-0.159,0.411,0.045,0.873,0.456,1.032c0.095,0.037,0.192,0.054,0.288,0.054c0.32,0,0.622-0.194,0.744-0.51
		c0.841-2.172,1.267-4.466,1.267-6.815v-4.362c0-10.412-8.471-18.883-18.883-18.883h-16.543v-3.138c0-0.307-0.176-0.587-0.453-0.719
		c-0.277-0.133-0.605-0.095-0.845,0.097l-12.979,10.426c-0.189,0.151-0.298,0.38-0.298,0.622s0.11,0.471,0.298,0.622l2.128,1.709
		c-1.589,2.818-2.426,6.006-2.426,9.264v4.362c0,10.412,8.471,18.883,18.883,18.883h16.543v3.138c0,0.307,0.176,0.587,0.453,0.719
		c0.11,0.053,0.228,0.078,0.345,0.078c0.178,0,0.355-0.06,0.5-0.176l12.979-10.426c0.189-0.151,0.298-0.38,0.298-0.622
		s-0.11-0.471-0.298-0.622l-12.979-10.426c-0.239-0.192-0.568-0.23-0.845-0.097c-0.277,0.133-0.453,0.412-0.453,0.719v3.138h-16.543
		c-2.376,0-4.309-1.933-4.309-4.309v-1.438c0-0.441-0.357-0.798-0.798-0.798s-0.798,0.357-0.798,0.798v1.438
		c0,3.256,2.649,5.904,5.904,5.904h17.34c0.441,0,0.798-0.357,0.798-0.798v-2.272l10.907,8.761l-10.907,8.761v-2.272
		c0-0.441-0.357-0.798-0.798-0.798h-17.34c-9.532,0-17.287-7.755-17.287-17.287v-4.362c0-2.895,0.723-5.727,2.094-8.249l9.587,7.701
		c0.239,0.192,0.568,0.23,0.845,0.097c0.277-0.133,0.453-0.412,0.453-0.719v-3.138h16.543c2.376,0,4.309,1.933,4.309,4.309v1.438
		c0,0.441,0.357,0.798,0.798,0.798c0.441,0,0.798-0.357,0.798-0.798v-1.438c0-3.256-2.649-5.904-5.904-5.904h-17.34
		c-0.441,0-0.798,0.357-0.798,0.798v2.272l-10.907-8.761l10.907-8.761v2.272c0,0.441,0.357,0.798,0.798,0.798h17.34
		c9.532,0,17.287,7.755,17.287,17.287v4.362C230.404,401.333,230.014,403.432,229.244,405.42z"/>
</g>
</svg>
