<?xml version="1.0" encoding="iso-8859-1"?>
<!-- Generator: Adobe Illustrator 21.1.0, SVG Export Plug-In . SVG Version: 6.00 Build 0)  -->
<svg version="1.1" id="Layer_1" xmlns="http://www.w3.org/2000/svg" xmlns:xlink="http://www.w3.org/1999/xlink" x="0px" y="0px"
	 viewBox="182 374.728 50 44.544" style="enable-background:new 182 374.728 50 44.544;" xml:space="preserve">
<g>
	<path style="fill:#FFDB6F;" d="M229.695,402.043v6.057c0,0.394-0.32,0.713-0.713,0.713h-43.963c-0.393,0-0.713-0.319-0.713-0.713
		v-6.057H229.695z M208.209,405.721c0.023-0.095,0.035-0.193,0.035-0.293c0-0.687-0.557-1.244-1.244-1.244
		c-0.628,0-1.148,0.466-1.232,1.072c-0.023,0.095-0.035,0.192-0.035,0.293c0,0.687,0.557,1.244,1.244,1.244
		C207.605,406.793,208.125,406.327,208.209,405.721z"/>
	<path style="fill:#F27258;" d="M229.695,377.747v21.991h-45.39v-21.991c0-0.393,0.32-0.713,0.713-0.713h43.963
		C229.374,377.033,229.695,377.354,229.695,377.747z M221.382,390.026c0.753-0.966,0.753-2.314,0-3.28
		c-0.353-0.452-1.004-0.533-1.456-0.181c-0.053,0.042-0.1,0.086-0.142,0.135l-0.76-0.809c0.051-0.039,0.098-0.083,0.142-0.133
		c0.38-0.429,0.34-1.085-0.089-1.464c-0.171-0.152-0.348-0.303-0.528-0.451c-3.245-2.66-7.347-4.125-11.55-4.125
		c-5.657,0-10.899,2.561-14.382,7.027c-0.753,0.966-0.753,2.314,0,3.28c3.483,4.466,8.725,7.027,14.382,7.027
		C212.657,397.053,217.899,394.492,221.382,390.026z"/>
	<g>
		<path style="fill:#E4F5F4;" d="M219.025,385.89l0.76,0.809c-0.323,0.367-0.35,0.923-0.039,1.322c0.168,0.214,0.168,0.514,0,0.728
			c-1.541,1.977-3.473,3.533-5.643,4.595c0.984-1.406,1.565-3.117,1.565-4.96c0-1.835-0.575-3.537-1.551-4.939
			c1.108,0.542,2.157,1.213,3.119,2.001c0.159,0.13,0.316,0.265,0.468,0.399C218.082,386.183,218.639,386.19,219.025,385.89z"/>
		<path style="fill:#E4F5F4;" d="M212.867,416.967h-11.734c0.785-1.01,1.255-2.276,1.255-3.651v-2.197h9.223v2.197
			C211.612,414.69,212.082,415.957,212.867,416.967z"/>
	</g>
	<path style="fill:#31CCC9;" d="M207,381.793c3.635,0,6.593,2.958,6.593,6.593s-2.958,6.593-6.593,6.593s-6.593-2.958-6.593-6.593
		S203.365,381.793,207,381.793z M210.46,388.385c0-1.908-1.553-3.46-3.46-3.46s-3.46,1.553-3.46,3.46s1.553,3.46,3.46,3.46
		S210.46,390.293,210.46,388.385z"/>
	<path style="fill:#E4F5F4;" d="M207,387c0.764,0,1.385,0.621,1.385,1.385c0,0.764-0.621,1.385-1.385,1.385
		s-1.385-0.621-1.385-1.385C205.615,387.621,206.236,387,207,387z"/>
	<g>
		<path style="fill:#201F2E;" d="M228.981,374.728h-43.963c-1.664,0-3.019,1.354-3.019,3.019v23.143v7.21
			c0,1.664,1.354,3.019,3.019,3.019h15.065v2.197c0,2.014-1.638,3.651-3.651,3.651h-3.321c-0.636,0-1.153,0.515-1.153,1.153
			c0,0.636,0.516,1.153,1.153,1.153h27.778c0.636,0,1.153-0.516,1.153-1.153c0-0.637-0.516-1.153-1.153-1.153h-3.321
			c-2.014,0-3.651-1.638-3.651-3.651v-2.197h15.065c1.664,0,3.019-1.354,3.019-3.019v-7.21v-23.143
			C232,376.083,230.646,374.728,228.981,374.728z M229.695,408.1c0,0.394-0.32,0.713-0.713,0.713h-43.963
			c-0.393,0-0.713-0.319-0.713-0.713v-6.057h45.39V408.1z M201.133,416.967c0.785-1.01,1.255-2.276,1.255-3.651v-2.197h9.223v2.197
			c0,1.375,0.47,2.642,1.255,3.651H201.133z M184.305,377.747c0-0.393,0.32-0.713,0.713-0.713h43.963
			c0.393,0,0.713,0.32,0.713,0.713v21.991h-45.39V377.747z"/>
		<path style="fill:#201F2E;" d="M219.926,386.564c-0.053,0.042-0.1,0.086-0.142,0.135c-0.323,0.367-0.35,0.923-0.039,1.322
			c0.168,0.214,0.168,0.514,0,0.728c-1.541,1.977-3.473,3.533-5.643,4.595c0.984-1.406,1.565-3.117,1.565-4.96
			c0-1.835-0.575-3.537-1.551-4.939c1.108,0.542,2.157,1.213,3.119,2.001c0.159,0.13,0.316,0.265,0.468,0.399
			c0.379,0.337,0.936,0.343,1.322,0.044c0.051-0.039,0.098-0.083,0.142-0.133c0.38-0.429,0.34-1.085-0.089-1.464
			c-0.171-0.152-0.348-0.303-0.528-0.451c-3.245-2.66-7.347-4.125-11.55-4.125c-5.657,0-10.899,2.561-14.382,7.027
			c-0.753,0.966-0.753,2.314,0,3.28c3.483,4.466,8.725,7.027,14.382,7.027c5.657,0,10.899-2.561,14.382-7.027
			c0.753-0.966,0.753-2.314,0-3.28C221.03,386.293,220.378,386.213,219.926,386.564z M194.255,388.021
			c1.541-1.978,3.473-3.533,5.643-4.595c-0.984,1.406-1.565,3.117-1.565,4.96s0.581,3.553,1.565,4.96
			c-2.17-1.063-4.102-2.619-5.643-4.595C194.086,388.535,194.086,388.236,194.255,388.021z M200.407,388.385
			c0-3.635,2.958-6.593,6.593-6.593s6.593,2.958,6.593,6.593s-2.958,6.593-6.593,6.593S200.407,392.021,200.407,388.385z"/>
		<path style="fill:#201F2E;" d="M210.46,388.385c0-1.908-1.553-3.46-3.46-3.46s-3.46,1.553-3.46,3.46s1.553,3.46,3.46,3.46
			S210.46,390.293,210.46,388.385z M205.615,388.385c0-0.764,0.621-1.385,1.385-1.385s1.385,0.621,1.385,1.385
			c0,0.764-0.621,1.385-1.385,1.385S205.615,389.15,205.615,388.385z"/>
		<path style="fill:#201F2E;" d="M207,406.672c0.587,0,1.078-0.406,1.209-0.951c0.023-0.095,0.035-0.193,0.035-0.293
			c0-0.687-0.557-1.244-1.244-1.244c-0.628,0-1.148,0.466-1.232,1.072c-0.007,0.055-0.012,0.113-0.012,0.172
			C205.756,406.115,206.313,406.672,207,406.672z"/>
	</g>
	<path style="fill:#E4F5F4;" d="M199.898,383.426c-0.984,1.406-1.565,3.117-1.565,4.96s0.581,3.553,1.565,4.96
		c-2.17-1.063-4.102-2.619-5.643-4.595c-0.168-0.214-0.168-0.514,0-0.728C195.796,386.043,197.727,384.488,199.898,383.426z"/>
</g>
</svg>
