<?xml version="1.0" encoding="iso-8859-1"?>
<!-- Generator: Adobe Illustrator 21.1.0, SVG Export Plug-In . SVG Version: 6.00 Build 0)  -->
<svg version="1.1" id="Layer_1" xmlns="http://www.w3.org/2000/svg" xmlns:xlink="http://www.w3.org/1999/xlink" x="0px" y="0px"
	 viewBox="182 374.128 50 45.745" style="enable-background:new 182 374.128 50 45.745;" xml:space="preserve">
<g>
	<polygon style="fill:#DCDCDC;" points="228.011,419.074 231.202,419.074 231.202,381.309 225.883,378.117 	"/>
	<polygon style="fill:#EEEEEE;" points="182.798,381.309 182.798,419.074 228.011,419.074 228.011,378.117 	"/>
	<polygon style="fill:#FE5F1A;" points="228.011,374.926 225.883,378.117 228.011,381.309 231.202,381.309 231.202,374.926 	"/>
	<polygon style="fill:#FE834D;" points="223.223,374.926 220.032,378.117 223.223,381.309 228.011,381.309 228.011,374.926 	"/>
	<polygon style="fill:#969696;" points="220.032,374.926 216.84,378.117 220.032,381.309 223.223,381.309 223.223,374.926 	"/>
	<rect x="182.798" y="374.926" style="fill:#B9B9B9;" width="37.234" height="6.383"/>
	<polygon style="fill:#D5F6F5;" points="224.819,384.5 222.691,405.572 224.819,415.883 228.011,415.883 228.011,384.5 	"/>
	<rect x="185.989" y="384.5" style="fill:#FFFFFF;" width="38.83" height="31.383"/>
	<polygon style="fill:#FEDC3D;" points="207,389.713 207,400.191 215.908,410.67 219.1,410.67 	"/>
	<polygon style="fill:#FFE777;" points="194.9,410.67 215.908,410.67 207,389.713 	"/>
	<path d="M231.202,374.128h-48.404c-0.441,0-0.798,0.357-0.798,0.798v44.149c0,0.441,0.357,0.798,0.798,0.798h48.404
		c0.441,0,0.798-0.357,0.798-0.798v-44.149C232,374.485,231.643,374.128,231.202,374.128z M230.404,380.511h-6.383v-4.787h6.383
		V380.511z M222.426,375.723v4.787h-38.83v-4.787H222.426z M183.596,418.277v-36.17h46.809v36.17H183.596z"/>
	<path d="M228.011,383.702h-42.021c-0.441,0-0.798,0.357-0.798,0.798v25c0,0.441,0.357,0.798,0.798,0.798
		c0.441,0,0.798-0.357,0.798-0.798v-24.202h40.426v29.787h-40.426v-2.394c0-0.441-0.357-0.798-0.798-0.798
		c-0.441,0-0.798,0.357-0.798,0.798v3.191c0,0.441,0.357,0.798,0.798,0.798h42.021c0.441,0,0.798-0.357,0.798-0.798V384.5
		C228.809,384.059,228.451,383.702,228.011,383.702z"/>
	<circle cx="227.213" cy="378.117" r="0.798"/>
	<path d="M200.551,400.882c-0.382-0.22-0.87-0.09-1.09,0.292l-5.252,9.097c-0.143,0.247-0.143,0.551,0,0.798
		c0.143,0.247,0.406,0.399,0.691,0.399h24.2c0.285,0,0.548-0.152,0.691-0.399c0.143-0.247,0.143-0.551,0-0.798l-12.1-20.957
		c-0.143-0.247-0.406-0.399-0.691-0.399s-0.548,0.152-0.691,0.399l-5.252,9.097c-0.22,0.382-0.09,0.87,0.292,1.09
		c0.382,0.22,0.869,0.09,1.09-0.292l4.561-7.9l10.718,18.564h-21.436l4.561-7.9C201.064,401.591,200.933,401.103,200.551,400.882z"
		/>
	<path d="M206.202,407.479c0,0.441,0.357,0.798,0.798,0.798s0.798-0.357,0.798-0.798v-1.064c0-0.441-0.357-0.798-0.798-0.798
		s-0.798,0.357-0.798,0.798V407.479z"/>
	<path d="M207,404.021c0.441,0,0.798-0.357,0.798-0.798v-7.128c0-0.441-0.357-0.798-0.798-0.798s-0.798,0.357-0.798,0.798v7.128
		C206.202,403.664,206.559,404.021,207,404.021z"/>
</g>
</svg>
