<?xml version="1.0" encoding="iso-8859-1"?>
<!-- Generator: Adobe Illustrator 21.1.0, SVG Export Plug-In . SVG Version: 6.00 Build 0)  -->
<svg version="1.1" id="Layer_1" xmlns="http://www.w3.org/2000/svg" xmlns:xlink="http://www.w3.org/1999/xlink" x="0px" y="0px"
	 viewBox="177 179.093 60 43.814" style="enable-background:new 177 179.093 60 43.814;" xml:space="preserve">
<g>
	<path style="fill:#353535;" d="M181.119,195.557l-1.391,0.595c-1.1,0.47-1.611,1.748-1.141,2.847
		c0.352,0.822,1.155,1.316,1.997,1.316c0.284,0,0.573-0.056,0.85-0.175l1.971-0.843c0.097,0.124,0.228,0.224,0.386,0.283
		l9.084,3.382c0.913,0.34,1.864,0.509,2.814,0.509c1.077,0,2.153-0.218,3.168-0.652l8.573-3.667
		c0.917,0.843,2.124,1.318,3.371,1.318c0.65,0,1.311-0.129,1.946-0.4l1.701-0.728l0,0l0,0l2.773-1.186
		c0.45-0.192,0.658-0.713,0.466-1.162l-0.806-1.884l18.197-7.784c1.606-0.687,2.354-2.553,1.667-4.159l-0.06-0.14
		c-0.687-1.606-2.553-2.354-4.159-1.667c-0.337,0.144-0.724,0.044-0.965-0.248c-1.553-1.891-4.211-2.539-6.462-1.576l-1.737,0.743
		l0,0h0l-26.437,11.309l-5.132-3.455c-0.249-0.168-0.567-0.198-0.843-0.08l-3.821,1.635c-0.647,0.277-1.398-0.024-1.675-0.671
		c-0.588-1.375-1.745-2.414-3.175-2.851l-4.134-1.265c-0.33-0.101-0.688-0.001-0.918,0.255c-0.23,0.256-0.291,0.623-0.155,0.94
		L181.119,195.557z M180.737,198.512c-0.199,0.085-0.438-0.011-0.523-0.209c-0.085-0.198,0.011-0.438,0.209-0.523l2.205-0.943l0,0
		l0,0l8.031-3.436c0.049-0.021,0.101-0.031,0.152-0.031c0.155,0,0.306,0.091,0.37,0.24c0.085,0.198-0.011,0.438-0.209,0.523l0,0
		l-3.029,1.296l0,0L180.737,198.512z M198.161,201.191c-1.491,0.638-3.148,0.677-4.668,0.111l-7.901-2.942l6.078-2.6l0,0
		c0,0,0,0,0.001,0l8.122-3.475c-0.388,0.588-0.485,1.354-0.187,2.05c0.352,0.822,1.155,1.316,1.997,1.316
		c0.284,0,0.573-0.056,0.85-0.175l3.641-1.558c-0.394,1.162-0.349,2.408,0.134,3.539c0.034,0.08,0.073,0.157,0.111,0.235
		L198.161,201.191z M201.757,193.849c-0.198,0.085-0.438-0.011-0.523-0.209c-0.085-0.198,0.011-0.438,0.209-0.523l14.318-6.125
		c0.054-0.023,0.106-0.032,0.153-0.032c0.064,0,0.118,0.016,0.151,0.029c0.058,0.023,0.163,0.081,0.218,0.211
		c0.085,0.198-0.011,0.438-0.209,0.523L201.757,193.849z M212.05,198.442c-1.334,0.571-2.845,0.159-3.723-0.909
		c-0.004-0.004-0.007-0.009-0.011-0.013c-0.183-0.225-0.339-0.478-0.459-0.758c-0.334-0.78-0.342-1.648-0.024-2.442
		c0.319-0.795,0.924-1.416,1.704-1.75l0.887-0.379l2.512,5.873L212.05,198.442z M214.566,197.366l-2.512-5.873l1.145-0.49
		l2.512,5.873L214.566,197.366z M235.056,183.722l0.06,0.14c0.146,0.341,0.149,0.72,0.01,1.069c-0.14,0.348-0.404,0.62-0.745,0.766
		l-18.197,7.784l-1.402-3.278l1.989-0.851c1.1-0.47,1.611-1.748,1.141-2.847c-0.227-0.531-0.649-0.943-1.188-1.159
		c-0.138-0.055-0.28-0.096-0.423-0.122l6.942-2.97l1.46,3.413c0.092,0.216,0.267,0.386,0.485,0.474
		c0.106,0.042,0.218,0.064,0.329,0.064c0.119,0,0.237-0.024,0.348-0.071l7.356-3.146
		C233.93,182.684,234.753,183.014,235.056,183.722z M225.795,181.163c1.532-0.656,3.341-0.215,4.397,1.072
		c0.025,0.031,0.052,0.059,0.079,0.088l-4.287,1.834l-1.112-2.599L225.795,181.163z M181.761,187.858
		c0.93,0.284,1.682,0.96,2.065,1.854c0.661,1.544,2.455,2.264,3.999,1.603l3.378-1.445l3.782,2.546l-2.052,0.878
		c-0.029-0.128-0.068-0.256-0.121-0.381c-0.47-1.1-1.748-1.612-2.847-1.141l-7.217,3.087l-3.298-7.709L181.761,187.858z"/>
	<path style="fill:#E9170B;" d="M235.924,217.379h-3.952v-9.08h1.824c0.457,0,0.839-0.347,0.882-0.802l0.495-5.251
		c0-0.001,0-0.001,0-0.002l0.001-0.006c0.001-0.01,0.001-0.021,0.001-0.031c0.001-0.017,0.003-0.035,0.003-0.052v-2.957
		c0-0.489-0.396-0.885-0.885-0.885h-3.836v-2.591c0-0.489-0.396-0.885-0.885-0.885c-0.489,0-0.885,0.396-0.885,0.885v2.591h-3.836
		c-0.489,0-0.885,0.396-0.885,0.885v2.957c0,0.018,0.002,0.035,0.003,0.052c0.001,0.01,0,0.021,0.001,0.031l0.001,0.006
		c0,0.001,0,0.001,0,0.002l0.495,5.251c0.043,0.455,0.425,0.802,0.882,0.802h1.824v9.08h-49.283c-0.489,0-0.885,0.396-0.885,0.885
		v3.757c0,0.489,0.396,0.885,0.885,0.885h58.039c0.489,0,0.885-0.396,0.885-0.885v-3.757
		C236.81,217.775,236.413,217.379,235.924,217.379z M225.734,200.083h7.673v1.186h-7.673V200.083z M225.821,203.039h7.498
		l-0.329,3.489h-1.903h-3.033h-1.903L225.821,203.039z M228.939,208.299h1.262v9.08h-1.262V208.299z M235.039,221.136h-56.268
		v-1.986h49.283h3.033h3.952V221.136z"/>
</g>
</svg>
