<?xml version="1.0" encoding="iso-8859-1"?>
<!-- Generator: Adobe Illustrator 21.1.0, SVG Export Plug-In . SVG Version: 6.00 Build 0)  -->
<svg version="1.1" id="Layer_1" xmlns="http://www.w3.org/2000/svg" xmlns:xlink="http://www.w3.org/1999/xlink" x="0px" y="0px"
	 viewBox="191.343 367 31.314 60" style="enable-background:new 191.343 367 31.314 60;" xml:space="preserve">
<g>
	<path style="fill:#353535;" d="M221.698,405.676c0.53,0,0.959-0.429,0.959-0.959v-16.086c0-0.529-0.429-0.959-0.959-0.959h-1.946
		v-5.531c0-0.529-0.429-0.959-0.959-0.959h-2.555v-4.535c0-0.529-0.429-0.959-0.959-0.959h-2.525l-4.932-8.224
		C207.649,367.177,207.337,367,207,367c-0.337,0-0.649,0.177-0.822,0.466l-4.932,8.224h-2.525c-0.53,0-0.959,0.429-0.959,0.959
		v4.535h-2.555c-0.53,0-0.959,0.429-0.959,0.959v5.531h-1.946c-0.53,0-0.959,0.429-0.959,0.959v29.397
		c0,0.529,0.429,0.959,0.959,0.959h2.327v7.055c0,0.529,0.429,0.959,0.959,0.959s0.959-0.429,0.959-0.959v-7.055h2.21v7.055
		c0,0.529,0.429,0.959,0.959,0.959c0.53,0,0.959-0.429,0.959-0.959v-7.055h2.816v1.963c0,0.529,0.429,0.959,0.959,0.959
		s0.959-0.429,0.959-0.959v-1.963h3.187v7.055c0,0.529,0.429,0.959,0.959,0.959s0.959-0.429,0.959-0.959v-7.055h2.816v7.055
		c0,0.529,0.429,0.959,0.959,0.959s0.959-0.429,0.959-0.959v-7.055h2.21v7.055c0,0.529,0.429,0.959,0.959,0.959
		s0.959-0.429,0.959-0.959v-7.055h2.327c0.53,0,0.959-0.429,0.959-0.959v-10.243c0-0.529-0.429-0.959-0.959-0.959
		c-0.53,0-0.959,0.429-0.959,0.959v9.284h-27.48v-27.48h27.48v15.128C220.74,405.247,221.169,405.676,221.698,405.676z M207,369.822
		l3.519,5.867h-7.037L207,369.822z M196.165,387.673V383.1h13.502c0.53,0,0.959-0.429,0.959-0.959c0-0.529-0.429-0.959-0.959-0.959
		h-9.989v-3.577h14.642v3.577h-1.713c-0.53,0-0.959,0.429-0.959,0.959c0,0.529,0.429,0.959,0.959,0.959h5.227v4.572L196.165,387.673
		L196.165,387.673z"/>
	<path style="fill:#E9170B;" d="M218.678,403.33c0-6.44-5.239-11.679-11.678-11.679c-3.14,0-6.086,1.228-8.296,3.459
		c-0.373,0.376-0.37,0.983,0.006,1.356c0.376,0.373,0.983,0.37,1.356-0.006c1.847-1.865,4.31-2.891,6.934-2.891
		c5.382,0,9.761,4.379,9.761,9.761s-4.379,9.761-9.761,9.761c-5.382,0-9.761-4.379-9.761-9.761c0-1.714,0.45-3.399,1.301-4.873
		c0.265-0.458,0.108-1.045-0.351-1.309c-0.458-0.265-1.045-0.108-1.309,0.351c-1.019,1.765-1.558,3.782-1.558,5.832
		c0,6.44,5.239,11.678,11.678,11.678S218.678,409.769,218.678,403.33z"/>
	<path style="fill:#353535;" d="M204.448,423.059c-0.53,0-0.959,0.429-0.959,0.959v2.024c0,0.529,0.429,0.959,0.959,0.959
		s0.959-0.429,0.959-0.959v-2.024C205.406,423.488,204.977,423.059,204.448,423.059z"/>
	<path style="fill:#E9170B;" d="M207,404.288c0.53,0,0.959-0.429,0.959-0.959v-6.92c0-0.529-0.429-0.959-0.959-0.959
		c-0.53,0-0.959,0.429-0.959,0.959v5.961h-1.997c-0.53,0-0.959,0.429-0.959,0.959s0.429,0.959,0.959,0.959H207z"/>
	<path style="fill:#353535;" d="M217.592,390.366c-1.321,0-2.396,1.075-2.396,2.396c0,1.321,1.075,2.396,2.396,2.396
		c1.321,0,2.396-1.075,2.396-2.396C219.989,391.441,218.914,390.366,217.592,390.366z M217.592,393.242
		c-0.264,0-0.479-0.215-0.479-0.479s0.215-0.479,0.479-0.479c0.264,0,0.479,0.215,0.479,0.479S217.857,393.242,217.592,393.242z"/>
	<path style="fill:#353535;" d="M217.592,416.293c1.321,0,2.396-1.075,2.396-2.396c0-1.321-1.075-2.396-2.396-2.396
		c-1.321,0-2.396,1.075-2.396,2.396C215.196,415.218,216.271,416.293,217.592,416.293z M217.592,413.418
		c0.264,0,0.479,0.215,0.479,0.479s-0.215,0.479-0.479,0.479c-0.264,0-0.479-0.215-0.479-0.479S217.328,413.418,217.592,413.418z"/>
	<path style="fill:#353535;" d="M196.408,395.159c1.321,0,2.396-1.075,2.396-2.396c0-1.321-1.075-2.396-2.396-2.396
		c-1.321,0-2.396,1.075-2.396,2.396C194.011,394.084,195.086,395.159,196.408,395.159z M196.408,392.283
		c0.264,0,0.479,0.215,0.479,0.479s-0.215,0.479-0.479,0.479c-0.264,0-0.479-0.215-0.479-0.479S196.143,392.283,196.408,392.283z"/>
	<path style="fill:#353535;" d="M196.408,416.293c1.321,0,2.396-1.075,2.396-2.396c0-1.321-1.075-2.396-2.396-2.396
		c-1.321,0-2.396,1.075-2.396,2.396C194.011,415.218,195.086,416.293,196.408,416.293z M196.408,413.418
		c0.264,0,0.479,0.215,0.479,0.479s-0.215,0.479-0.479,0.479c-0.264,0-0.479-0.215-0.479-0.479S196.143,413.418,196.408,413.418z"/>
</g>
</svg>
