<?xml version="1.0" encoding="iso-8859-1"?>
<!-- Generator: Adobe Illustrator 21.1.0, SVG Export Plug-In . SVG Version: 6.00 Build 0)  -->
<svg version="1.1" id="Layer_1" xmlns="http://www.w3.org/2000/svg" xmlns:xlink="http://www.w3.org/1999/xlink" x="0px" y="0px"
	 viewBox="150.806 306.796 60 57.142" style="enable-background:new 150.806 306.796 60 57.142;" xml:space="preserve">
<g>
	<g>
		<path style="fill:#353535;" d="M191.317,323.037c0.212,0.212,0.489,0.317,0.766,0.317c0.277,0,0.555-0.106,0.766-0.317
			l11.235-11.235c0.423-0.423,0.423-1.109,0-1.533c-0.423-0.423-1.109-0.423-1.532,0l-11.235,11.235
			C190.894,321.927,190.894,322.613,191.317,323.037z"/>
		<path style="fill:#353535;" d="M194.373,326.044c0.212,0.212,0.489,0.317,0.766,0.317s0.555-0.106,0.766-0.317l11.235-11.235
			c0.423-0.423,0.423-1.109,0-1.532c-0.423-0.423-1.109-0.423-1.532,0l-11.235,11.235
			C193.95,324.935,193.95,325.621,194.373,326.044z"/>
		<path style="fill:#353535;" d="M210.489,316.769c-0.423-0.423-1.109-0.423-1.532,0l-13.947,13.947
			c-1.718,1.718-4.346,2.169-6.538,1.122c-0.436-0.208-0.957-0.103-1.277,0.258l-4.739,5.339c-0.002,0.002-0.004,0.004-0.006,0.006
			c-0.002,0.002-0.003,0.004-0.005,0.007l-20.483,23.077c-0.005,0.006-0.01,0.012-0.015,0.018c-0.067,0.079-0.131,0.149-0.196,0.214
			c-1.352,1.352-3.553,1.352-4.905,0c-0.655-0.655-1.016-1.526-1.016-2.452s0.361-1.797,1.017-2.454
			c0.063-0.063,0.132-0.127,0.213-0.195c0.006-0.005,0.012-0.01,0.018-0.015l12.805-11.366c0.448-0.397,0.488-1.082,0.091-1.53
			c-0.397-0.448-1.082-0.489-1.53-0.091l-12.797,11.358c-0.122,0.104-0.232,0.205-0.334,0.307c-1.064,1.064-1.651,2.48-1.651,3.985
			c0,1.505,0.586,2.921,1.651,3.985c1.099,1.099,2.542,1.648,3.985,1.648c1.443,0,2.886-0.549,3.984-1.647
			c0.104-0.104,0.205-0.213,0.308-0.335l15.313-17.252c0.389-0.55,0.84-1.064,1.353-1.541c0.132-0.142,0.267-0.278,0.404-0.411
			l-0.013-0.014l2.704-3.046l0.011,0.01c0.394-0.56,0.85-1.083,1.372-1.568c0.019-0.021,0.039-0.04,0.058-0.061l-0.003-0.003
			l3.514-3.959c1.112,0.394,2.282,0.526,3.424,0.412c0.184-0.03,0.37-0.056,0.557-0.075c1.578-0.271,3.074-1.016,4.258-2.199
			l13.947-13.947C210.912,317.878,210.912,317.192,210.489,316.769z"/>
		<path style="fill:#353535;" d="M200.833,307.113c-0.423-0.423-1.109-0.423-1.533,0l-13.947,13.948
			c-2.169,2.169-2.872,5.39-1.863,8.238l-4.292,3.81l-0.02-0.018c-0.258,0.273-0.526,0.528-0.804,0.765
			c-0.419,0.437-0.865,0.83-1.339,1.173l-1.608,1.428c-0.077,0.076-0.156,0.152-0.236,0.226c-0.49,0.528-1.019,0.989-1.586,1.385
			c0.418,0.471,0.708,0.798,0.722,0.813c0.214,0.241,0.512,0.364,0.811,0.364c0.256,0,0.513-0.09,0.719-0.273l9.649-8.564
			c0.361-0.321,0.467-0.842,0.258-1.277c-1.047-2.192-0.596-4.819,1.122-6.537l13.947-13.947
			C201.256,308.222,201.256,307.536,200.833,307.113z"/>
	</g>
	<g>
		<path style="fill:#E9170B;" d="M203.429,354.195c-0.104-0.104-0.213-0.205-0.334-0.308l-17.877-15.867
			c-0.036,0.016-0.073,0.031-0.11,0.046c-0.088,0.074-0.178,0.145-0.274,0.208c-0.03,0.029-0.059,0.058-0.091,0.086
			c-0.177,0.203-0.384,0.381-0.612,0.525c-0.038,0.045-0.076,0.091-0.117,0.134c-0.113,0.171-0.245,0.33-0.394,0.472
			c0.001,0.013,0.002,0.026,0.003,0.039c0.002,0.039,0.002,0.078,0.002,0.116l0.071-0.08l17.969,15.949
			c0.006,0.005,0.012,0.01,0.018,0.015c0.079,0.067,0.149,0.131,0.214,0.196c1.352,1.352,1.352,3.553,0,4.905
			c-1.352,1.352-3.553,1.352-4.906-0.001c-0.064-0.064-0.128-0.134-0.195-0.213c-0.005-0.006-0.01-0.012-0.015-0.018l-15.762-17.758
			c-0.132,0.124-0.275,0.235-0.428,0.332c-0.081,0.115-0.17,0.225-0.269,0.327c-0.23,0.35-0.546,0.647-0.91,0.86
			c0.032,0.041,0.066,0.081,0.096,0.124l0.036-0.04l15.609,17.586c0.103,0.121,0.204,0.231,0.307,0.334
			c1.099,1.099,2.542,1.648,3.985,1.648c1.443,0,2.886-0.549,3.985-1.648C205.625,359.967,205.625,356.392,203.429,354.195z"/>
		<path style="fill:#E9170B;" d="M179.542,332.983l-4.125-3.661c2.133-4.197,1.354-9.293-2.03-12.678
			c-3.361-3.361-7.254-5.726-10.962-6.66c-3.871-0.974-7.19-0.324-9.346,1.832c-2.156,2.156-2.807,5.475-1.832,9.346
			c0.934,3.708,3.299,7.601,6.66,10.962c3.384,3.384,8.48,4.163,12.678,2.03c0,0,2.256,2.541,3.414,3.847
			c0.119-0.144,0.255-0.275,0.402-0.393c0.223-0.327,0.522-0.605,0.863-0.81c0.118-0.115,0.246-0.219,0.383-0.311
			c0.045-0.06,0.091-0.118,0.142-0.173l-0.218,0.194l-3.945-4.444c-0.349-0.394-0.931-0.48-1.379-0.203
			c-3.474,2.142-7.919,1.621-10.808-1.269c-3.088-3.088-5.252-6.625-6.091-9.959c-0.781-3.102-0.332-5.689,1.263-7.284
			c1.595-1.595,4.182-2.044,7.284-1.263c3.334,0.839,6.871,3.002,9.959,6.091c2.889,2.889,3.411,7.334,1.268,10.808
			c-0.276,0.448-0.191,1.03,0.203,1.379l4.583,4.068l-0.114,0.101c0.046-0.028,0.092-0.054,0.139-0.08
			c0.096-0.084,0.198-0.162,0.305-0.231c0.112-0.119,0.232-0.231,0.363-0.329c0.195-0.259,0.438-0.483,0.711-0.66
			c0.073-0.052,0.148-0.101,0.225-0.146c0.004-0.038,0.008-0.076,0.015-0.114L179.542,332.983z"/>
	</g>
</g>
</svg>
