<?xml version="1.0" encoding="iso-8859-1"?>
<!-- Generator: Adobe Illustrator 21.1.0, SVG Export Plug-In . SVG Version: 6.00 Build 0)  -->
<svg version="1.1" id="&#x421;&#x43B;&#x43E;&#x439;_1"
	 xmlns="http://www.w3.org/2000/svg" xmlns:xlink="http://www.w3.org/1999/xlink" x="0px" y="0px" viewBox="0 0 60 60.141"
	 style="enable-background:new 0 0 60 60.141;" xml:space="preserve">
<g>
	<path style="fill:#E9170B;" d="M15.975,27.618c0,0.535,0.209,1.036,0.587,1.413l0.706,0.706c0.945,0.944,2.197,1.463,3.532,1.463
		c1.335,0,2.589-0.52,3.534-1.463l4.977-4.977c1.971,1.647,4.432,2.543,7.03,2.543h0.005c2.937-0.002,5.701-1.148,7.78-3.228
		c0.391-0.391,0.391-1.024,0-1.413c-0.391-0.391-1.022-0.391-1.413,0c-1.703,1.703-3.965,2.642-6.368,2.643h-0.003
		c-2.401,0-4.658-0.935-6.356-2.633c-0.391-0.39-1.023-0.39-1.413,0l-5.654,5.652c-1.131,1.132-3.106,1.132-4.238,0l-0.707-0.706
		l12.011-12.012c1.12-1.12,2.185-1.12,3.532-1.12c1.443,0,3.241,0,4.946-1.706l2.826-2.827c0.391-0.391,0.391-1.023,0-1.413
		c-0.39-0.391-1.022-0.391-1.413,0l-2.826,2.827c-1.121,1.12-2.185,1.12-3.534,1.12c-1.443,0-3.24,0-4.945,1.706l-12.011,12.01
		C16.184,26.582,15.975,27.084,15.975,27.618L15.975,27.618z M15.975,27.618"/>
	<path style="fill:#353535;" d="M8.993,11.043c1.102,0,1.998-0.896,1.998-1.998c0-1.102-0.896-1.998-1.998-1.998
		c-1.102,0-1.998,0.896-1.998,1.998C6.995,10.147,7.891,11.043,8.993,11.043L8.993,11.043z M8.993,11.043"/>
	<path style="fill:#353535;" d="M18.681,14.194l2.826,2.826c0.196,0.195,0.452,0.293,0.706,0.293c0.256,0,0.512-0.097,0.707-0.293
		c0.391-0.39,0.391-1.022,0-1.413l-2.826-2.826c-0.389-0.391-1.022-0.391-1.413,0C18.291,13.171,18.291,13.803,18.681,14.194
		L18.681,14.194z M18.681,14.194"/>
	<path style="fill:#E9170B;" d="M50.96,7.047c1.101,0,1.999-0.897,1.999-1.999c0-1.102-0.898-1.998-1.999-1.998
		c-1.101,0-1.998,0.897-1.998,1.998C48.962,6.15,49.859,7.047,50.96,7.047L50.96,7.047z M50.96,7.047"/>
	<g>
		<defs>
			<rect id="SVGID_1_" x="0" width="60" height="60.141"/>
		</defs>
		<clipPath id="SVGID_2_">
			<use xlink:href="#SVGID_1_"  style="overflow:visible;"/>
		</clipPath>
		<path style="clip-path:url(#SVGID_2_);fill:#E9170B;" d="M53.252,21.328c-1.624,1.624-2.181,4.268-2.72,6.826
			c-0.478,2.27-0.972,4.62-2.176,5.823l-1.414,1.413c-0.39,0.391-0.39,1.024,0,1.413c0.196,0.196,0.452,0.293,0.707,0.293
			c0.255,0,0.511-0.097,0.707-0.293l1.413-1.413c1.623-1.623,2.18-4.266,2.718-6.824c0.478-2.272,0.974-4.621,2.177-5.825
			c0.391-0.39,0.391-1.022,0-1.413C54.274,20.937,53.642,20.937,53.252,21.328L53.252,21.328z M53.252,21.328"/>
		<path style="clip-path:url(#SVGID_2_);fill:#E9170B;" d="M59.661,21.328L43.381,5.048l3.29-3.29c0.391-0.391,0.391-1.022,0-1.413
			c-0.391-0.391-1.022-0.391-1.413,0l-3.997,3.997c-0.391,0.391-0.391,1.022,0,1.413l16.987,16.987
			c0.195,0.195,0.451,0.293,0.706,0.293c0.256,0,0.512-0.098,0.707-0.293C60.051,22.35,60.051,21.719,59.661,21.328L59.661,21.328z
			 M59.661,21.328"/>
		<path style="clip-path:url(#SVGID_2_);fill:#353535;" d="M37.051,29.737c-0.391-0.389-1.022-0.389-1.413,0
			c-0.391,0.391-0.391,1.023,0,1.414l10.598,10.598c0.779,0.779,0.779,2.047,0,2.827c-0.778,0.778-2.046,0.778-2.827,0
			L32.812,33.977c-0.391-0.391-1.023-0.391-1.413,0c-0.391,0.391-0.391,1.023,0,1.413l13.424,13.424c0.78,0.779,0.78,2.047,0,2.826
			c-0.779,0.778-2.046,0.78-2.827,0.001L29.279,38.923c-0.391-0.391-1.023-0.391-1.413,0c-0.391,0.39-0.391,1.022,0,1.413
			l11.304,11.304c0.779,0.779,0.779,2.047,0,2.827c-0.755,0.755-2.07,0.755-2.826-0.001l-1.414-1.413H34.93l-9.184-9.184
			c-0.391-0.391-1.023-0.391-1.413,0c-0.391,0.39-0.391,1.022,0,1.413l9.185,9.185c0.377,0.377,0.585,0.879,0.585,1.414
			c0,0.534-0.208,1.035-0.585,1.413c-0.778,0.777-2.046,0.779-2.826-0.001l-16.996-16.98c-2.591-2.591-3.153-5.857-3.65-8.74
			c-0.417-2.425-0.813-4.715-2.345-6.248c-0.391-0.391-1.022-0.391-1.413,0c-0.391,0.391-0.391,1.022,0,1.413
			c1.085,1.084,1.411,2.98,1.789,5.175c0.519,3.018,1.167,6.774,4.206,9.814l16.995,16.981c0.779,0.778,1.802,1.169,2.826,1.169
			c1.023-0.001,2.047-0.391,2.826-1.169c0.568-0.568,0.944-1.277,1.096-2.049c1.465,0.707,3.372,0.408,4.556-0.778
			c0.569-0.568,0.945-1.278,1.096-2.049c1.486,0.713,3.326,0.452,4.557-0.778c1.559-1.558,1.559-4.093,0-5.652l-0.379-0.38
			c0.656-0.175,1.278-0.52,1.792-1.033c1.558-1.559,1.558-4.095,0-5.653L37.051,29.737z M37.051,29.737"/>
		<path style="clip-path:url(#SVGID_2_);fill:#353535;" d="M18.693,8.338l-5.995-5.995c-0.391-0.391-1.022-0.391-1.413,0
			c-0.391,0.391-0.391,1.022,0,1.413l5.289,5.289L0.293,25.325c-0.391,0.391-0.391,1.022,0,1.413
			C0.488,26.933,0.744,27.031,1,27.031c0.256,0,0.512-0.098,0.707-0.293L18.693,9.751C19.084,9.36,19.084,8.729,18.693,8.338
			L18.693,8.338z M18.693,8.338"/>
	</g>
	<path style="fill:#E9170B;" d="M24.576,57.821c-0.556,0.292-1.507,0.327-2.363-0.528c-0.857-0.857-0.849-1.853-0.571-2.287
		c0.276-0.429,0.184-0.997-0.215-1.318c-0.397-0.321-0.971-0.29-1.333,0.072c-0.78,0.779-2.049,0.778-2.827,0
		c-0.778-0.779-0.778-2.047,0-2.827c0.196-0.195,0.293-0.451,0.293-0.707c0-0.256-0.097-0.511-0.293-0.706
		c-0.389-0.39-1.022-0.39-1.413,0l-0.706,0.706c-0.779,0.779-2.047,0.779-2.826,0c-0.778-0.779-0.778-2.048,0-2.826l0.707-0.707
		c0.356-0.355,0.392-0.918,0.086-1.316c-0.305-0.398-0.86-0.506-1.293-0.256c-0.544,0.314-1.5,0.277-2.325-0.547
		c-0.877-0.878-0.873-1.85-0.591-2.26c0.314-0.453,0.199-1.076-0.254-1.39c-0.455-0.315-1.076-0.2-1.39,0.255
		c-0.808,1.171-0.787,3.198,0.822,4.807c0.633,0.632,1.323,1.01,2.002,1.191c-0.227,0.508-0.348,1.062-0.348,1.635
		c0,1.067,0.416,2.072,1.171,2.826c1.025,1.026,2.475,1.377,3.791,1.052c0.078,0.905,0.463,1.79,1.154,2.481
		c0.994,0.993,2.383,1.353,3.665,1.081c0.124,0.827,0.524,1.694,1.282,2.452C21.725,59.631,22.804,60,23.789,60
		c0.632,0,1.226-0.153,1.715-0.409c0.489-0.256,0.678-0.859,0.421-1.349C25.668,57.755,25.063,57.565,24.576,57.821L24.576,57.821z
		 M24.576,57.821"/>
</g>
</svg>
