<?xml version="1.0" encoding="iso-8859-1"?>
<!-- Generator: Adobe Illustrator 21.1.0, SVG Export Plug-In . SVG Version: 6.00 Build 0)  -->
<svg version="1.1" id="Layer_1" xmlns="http://www.w3.org/2000/svg" xmlns:xlink="http://www.w3.org/1999/xlink" x="0px" y="0px"
	 viewBox="177 367.358 60 59.925" style="enable-background:new 177 367.358 60 59.925;" xml:space="preserve">
<g transform="translate(1 1)">
	<path style="fill:#353535;" d="M217,426.283h-22c-0.6,0-1-0.4-1-1v-42c0-0.6,0.4-1,1-1h22c0.6,0,1,0.4,1,1v42
		C218,425.883,217.6,426.283,217,426.283z M196,424.283h20v-40h-20V424.283z"/>
	<path style="fill:#353535;" d="M195,426.283h-14c-0.6,0-1-0.4-1-1v-24c0-0.6,0.4-1,1-1h14c0.6,0,1,0.4,1,1v24
		C196,425.883,195.6,426.283,195,426.283z M182,424.283h12v-22h-12V424.283z"/>
	<path style="fill:#353535;" d="M231,426.283h-14c-0.6,0-1-0.4-1-1v-24c0-0.6,0.4-1,1-1h14c0.6,0,1,0.4,1,1v24
		C232,425.883,231.6,426.283,231,426.283z M218,424.283h12v-22h-12V424.283z"/>
	<path style="fill:#E9170B;" d="M190,380.283c-0.2,0-0.4-0.1-0.6-0.2l-3.4-2.5l-3.4,2.5c-0.3,0.2-0.8,0.3-1.1,0
		c-0.4-0.2-0.5-0.6-0.4-1l0.9-4.4l-3.6-2.6c-0.3-0.3-0.5-0.7-0.3-1.1c0.1-0.4,0.5-0.7,0.9-0.7h4.4l1.7-3.4c0.3-0.7,1.5-0.7,1.8,0
		l1.7,3.4h4.4c0.4,0,0.8,0.3,0.9,0.7c0.1,0.4,0,0.9-0.3,1.1l-3.5,2.6l0.9,4.4c0.1,0.4-0.1,0.8-0.4,1
		C190.4,380.183,190.2,380.283,190,380.283z M186,375.283c0.2,0,0.4,0.1,0.6,0.2l1.9,1.4l-0.5-2.4c-0.1-0.4,0.1-0.8,0.4-1l1.6-1.2
		h-2c-0.4,0-0.7-0.2-0.9-0.6l-1.1-2.2l-1.1,2.2c-0.2,0.4-0.5,0.6-0.9,0.6h-2l1.6,1.2c0.3,0.2,0.5,0.6,0.4,1l-0.5,2.4l1.9-1.4
		C185.6,375.383,185.8,375.283,186,375.283z"/>
	<path style="fill:#E9170B;" d="M210,380.283c-0.2,0-0.4-0.1-0.6-0.2l-3.4-2.5l-3.4,2.5c-0.3,0.2-0.8,0.3-1.1,0
		c-0.4-0.2-0.5-0.6-0.4-1l0.9-4.4l-3.5-2.6c-0.3-0.3-0.5-0.7-0.3-1.1c0-0.4,0.4-0.7,0.8-0.7h4.4l1.7-3.4c0.3-0.7,1.4-0.7,1.8,0
		l1.7,3.4h4.4c0.4,0,0.8,0.3,0.9,0.7c0.1,0.4,0,0.9-0.3,1.1l-3.5,2.6l0.9,4.4c0.1,0.4-0.1,0.8-0.4,1
		C210.4,380.183,210.2,380.283,210,380.283z M206,375.283c0.2,0,0.4,0.1,0.6,0.2l1.9,1.4l-0.5-2.4c-0.1-0.4,0.1-0.8,0.4-1l1.6-1.2
		h-2c-0.4,0-0.7-0.2-0.9-0.6l-1.1-2.2l-1.1,2.2c-0.2,0.4-0.5,0.6-0.9,0.6h-2l1.6,1.2c0.3,0.2,0.5,0.6,0.4,1l-0.5,2.4l1.9-1.4
		C205.6,375.383,205.8,375.283,206,375.283z"/>
	<path style="fill:#E9170B;" d="M230,380.283c-0.2,0-0.4-0.1-0.6-0.2l-3.4-2.5l-3.4,2.5c-0.3,0.2-0.8,0.3-1.1,0
		c-0.4-0.2-0.5-0.6-0.4-1l0.9-4.4l-3.5-2.6c-0.3-0.3-0.5-0.7-0.3-1.1c0-0.4,0.4-0.7,0.8-0.7h4.4l1.7-3.4c0.3-0.7,1.4-0.7,1.8,0
		l1.7,3.4h4.4c0.4,0,0.8,0.3,0.9,0.7c0.1,0.4,0,0.9-0.3,1.1l-3.5,2.6l0.9,4.4c0.1,0.4-0.1,0.8-0.4,1
		C230.4,380.183,230.2,380.283,230,380.283z M226,375.283c0.2,0,0.4,0.1,0.6,0.2l1.9,1.4l-0.5-2.4c-0.1-0.4,0.1-0.8,0.4-1l1.6-1.2
		h-2c-0.4,0-0.7-0.2-0.9-0.6l-1.1-2.2l-1.1,2.2c-0.2,0.4-0.5,0.6-0.9,0.6h-2l1.6,1.2c0.3,0.2,0.5,0.6,0.4,1l-0.5,2.4l1.9-1.4
		C225.6,375.383,225.8,375.283,226,375.283z"/>
	<path style="fill:#353535;" d="M209,426.283h-6c-0.6,0-1-0.4-1-1v-10c0-0.6,0.4-1,1-1h6c0.6,0,1,0.4,1,1v10
		C210,425.883,209.6,426.283,209,426.283z M204,424.283h4v-8h-4V424.283z"/>
	<path style="fill:#353535;" d="M190,412.283h-4c-0.6,0-1-0.4-1-1v-6c0-0.6,0.4-1,1-1h4c0.6,0,1,0.4,1,1v6
		C191,411.883,190.6,412.283,190,412.283z M187,410.283h2v-4h-2V410.283z"/>
	<path style="fill:#353535;" d="M190,422.283h-4c-0.6,0-1-0.4-1-1v-6c0-0.6,0.4-1,1-1h4c0.6,0,1,0.4,1,1v6
		C191,421.883,190.6,422.283,190,422.283z M187,420.283h2v-4h-2V420.283z"/>
	<path style="fill:#353535;" d="M226,412.283h-4c-0.6,0-1-0.4-1-1v-6c0-0.6,0.4-1,1-1h4c0.6,0,1,0.4,1,1v6
		C227,411.883,226.6,412.283,226,412.283z M223,410.283h2v-4h-2V410.283z"/>
	<path style="fill:#353535;" d="M226,422.283h-4c-0.6,0-1-0.4-1-1v-6c0-0.6,0.4-1,1-1h4c0.6,0,1,0.4,1,1v6
		C227,421.883,226.6,422.283,226,422.283z M223,420.283h2v-4h-2V420.283z"/>
	<path style="fill:#353535;" d="M203,396.283h-4c-0.6,0-1-0.4-1-1v-8c0-0.6,0.4-1,1-1h4c0.6,0,1,0.4,1,1v8
		C204,395.883,203.6,396.283,203,396.283z M200,394.283h2v-6h-2V394.283z"/>
	<path style="fill:#353535;" d="M213,396.283h-4c-0.6,0-1-0.4-1-1v-8c0-0.6,0.4-1,1-1h4c0.6,0,1,0.4,1,1v8
		C214,395.883,213.6,396.283,213,396.283z M210,394.283h2v-6h-2V394.283z"/>
	<path style="fill:#353535;" d="M213,408.283h-4c-0.6,0-1-0.4-1-1v-8c0-0.6,0.4-1,1-1h4c0.6,0,1,0.4,1,1v8
		C214,407.883,213.6,408.283,213,408.283z M210,406.283h2v-6h-2V406.283z"/>
	<path style="fill:#353535;" d="M203,408.283h-4c-0.6,0-1-0.4-1-1v-8c0-0.6,0.4-1,1-1h4c0.6,0,1,0.4,1,1v8
		C204,407.883,203.6,408.283,203,408.283z M200,406.283h2v-6h-2V406.283z"/>
	<path style="fill:#353535;" d="M181,426.283h-4c-0.6,0-1-0.4-1-1c0-0.6,0.4-1,1-1h4c0.6,0,1,0.4,1,1
		C182,425.883,181.6,426.283,181,426.283z"/>
	<path style="fill:#353535;" d="M235,426.283h-4c-0.6,0-1-0.4-1-1c0-0.6,0.4-1,1-1h4c0.6,0,1,0.4,1,1
		C236,425.883,235.6,426.283,235,426.283z"/>
</g>
</svg>
