<?xml version="1.0" encoding="iso-8859-1"?>
<!-- Generator: Adobe Illustrator 21.1.0, SVG Export Plug-In . SVG Version: 6.00 Build 0)  -->
<svg version="1.1" id="&#x421;&#x43B;&#x43E;&#x439;_1"
	 xmlns="http://www.w3.org/2000/svg" xmlns:xlink="http://www.w3.org/1999/xlink" x="0px" y="0px" viewBox="0 0 60 60"
	 style="enable-background:new 0 0 60 60;" xml:space="preserve">
<g>
	<path style="fill:#353535;" d="M53.483,0H6.516C2.923,0,0,2.923,0,6.516v46.967C0,57.077,2.923,60,6.516,60h46.967
		C57.077,60,60,57.077,60,53.483V6.516C60,2.923,57.077,0,53.483,0L53.483,0z M1.761,15.851H14.09v13.268H1.761V15.851z
		 M15.851,15.851h13.268v13.268H15.851V15.851z M15.851,14.09V1.761h13.268V14.09H15.851z M6.516,1.761h7.574V14.09H1.761V6.516
		C1.761,3.895,3.895,1.761,6.516,1.761L6.516,1.761z M1.761,53.483V45.91h10.392c0.486,0,0.881-0.395,0.881-0.881
		c0-0.486-0.395-0.881-0.881-0.881H1.761V30.88H14.09v11.331c0,0.486,0.395,0.881,0.881,0.881s0.881-0.395,0.881-0.881V30.88h13.268
		v7.574c0,0.486,0.395,0.881,0.881,0.881c0.487,0,0.881-0.394,0.881-0.881V30.88h8.513c0.487,0,0.881-0.394,0.881-0.881
		c0-0.486-0.394-0.881-0.881-0.881H30.88V15.851h0.998c0.486,0,0.881-0.394,0.881-0.881c0-0.486-0.394-0.881-0.881-0.881H30.88
		V1.761h13.269V1.82c0,0.487,0.394,0.881,0.881,0.881c0.486,0,0.881-0.394,0.881-0.881V1.761h7.573c2.622,0,4.756,2.133,4.756,4.755
		v7.574H58.18c-0.486,0-0.881,0.395-0.881,0.881c0,0.486,0.395,0.881,0.881,0.881h0.059v13.268h-7.574
		c-0.486,0-0.881,0.395-0.881,0.881c0,0.487,0.395,0.881,0.881,0.881h7.574v13.269H45.91v-3.816c0-0.486-0.395-0.881-0.881-0.881
		c-0.487,0-0.881,0.394-0.881,0.881v3.816H32.818c-0.487,0-0.881,0.394-0.881,0.881c0,0.486,0.394,0.881,0.881,0.881h11.331v12.329
		H30.88V46.908c0-0.487-0.394-0.881-0.881-0.881c-0.486,0-0.881,0.394-0.881,0.881v11.331H15.851v-7.574
		c0-0.486-0.395-0.881-0.881-0.881s-0.881,0.395-0.881,0.881v7.574H6.516C3.895,58.239,1.761,56.105,1.761,53.483L1.761,53.483z
		 M53.483,58.239H45.91V45.91h12.329v7.573C58.239,56.105,56.105,58.239,53.483,58.239L53.483,58.239z M53.483,58.239"/>
	<path style="fill:#E9170B;" d="M44.531,30.726c0.15,0.103,0.325,0.155,0.499,0.155c0.177,0,0.353-0.053,0.505-0.159
		c0.099-0.07,2.464-1.738,4.856-4.488c3.214-3.696,4.913-7.591,4.913-11.263c0-5.665-4.609-10.274-10.274-10.274
		c-5.665,0-10.274,4.609-10.274,10.274c0,3.721,1.699,7.631,4.914,11.309C42.064,29.017,44.431,30.657,44.531,30.726L44.531,30.726z
		 M36.517,14.971c0-4.694,3.819-8.513,8.513-8.513c4.694,0,8.513,3.819,8.513,8.513c0,6.794-6.622,12.451-8.517,13.931
		C43.126,27.443,36.517,21.869,36.517,14.971L36.517,14.971z M36.517,14.971"/>
	<path style="fill:#E9170B;" d="M50.607,14.971c0-0.777-0.157-1.528-0.466-2.235c-0.195-0.446-0.714-0.649-1.16-0.454
		c-0.445,0.195-0.649,0.714-0.454,1.16c0.211,0.483,0.318,0.997,0.318,1.529c0,2.104-1.712,3.816-3.816,3.816
		c-2.104,0-3.816-1.712-3.816-3.816c0-2.104,1.712-3.816,3.816-3.816c0.531,0,1.046,0.107,1.527,0.318
		c0.445,0.195,0.965-0.008,1.16-0.454c0.195-0.445-0.008-0.965-0.453-1.16c-0.706-0.309-1.458-0.466-2.234-0.466
		c-3.075,0-5.577,2.502-5.577,5.577c0,3.075,2.502,5.577,5.577,5.577C48.105,20.548,50.607,18.046,50.607,14.971L50.607,14.971z
		 M50.607,14.971"/>
	<path style="fill:#E9170B;" d="M5.775,50.864c-0.204,0-0.404,0.072-0.561,0.202c-0.065,0.054-0.123,0.103-0.178,0.15
		c-0.005,0.004-0.009,0.007-0.013,0.011H5.021c-0.576,0.495-1.082,1.016-1.504,1.544c-0.448,0.561-0.814,1.153-1.09,1.757
		c-0.019,0.04-0.034,0.082-0.047,0.124c-0.022,0.038-0.042,0.076-0.059,0.118c0,0-0.001,0-0.001,0.001
		c-0.186,0.448,0.027,0.965,0.475,1.151c0.108,0.045,0.222,0.068,0.338,0.068c0.357,0,0.676-0.214,0.814-0.543v-0.001
		c0.013-0.031,0.025-0.063,0.033-0.095c0.017-0.029,0.034-0.059,0.048-0.091c0.427-0.936,1.147-1.843,2.14-2.696
		c0.061-0.053,0.116-0.1,0.168-0.142c0.373-0.31,0.425-0.865,0.116-1.24C6.285,50.98,6.038,50.864,5.775,50.864L5.775,50.864z
		 M5.775,50.864"/>
	<path style="fill:#E9170B;" d="M16.638,47.43c0.093,0,0.185-0.014,0.272-0.044h0.001c0.038-0.011,0.074-0.027,0.109-0.044
		c0.037-0.007,0.075-0.016,0.112-0.028c1.089-0.353,2.296-0.722,3.688-1.128c0.071-0.021,0.141-0.041,0.212-0.062l0.014-0.004
		c0.466-0.136,0.735-0.625,0.6-1.092c-0.109-0.373-0.457-0.635-0.846-0.635c-0.083,0-0.165,0.011-0.247,0.035l-0.001,0.001
		c-0.061,0.018-0.121,0.036-0.181,0.053l-0.045,0.012c-1.406,0.411-2.629,0.786-3.738,1.145c-0.037,0.011-0.075,0.027-0.11,0.044
		c-0.039,0.007-0.077,0.017-0.115,0.029c-0.462,0.151-0.715,0.649-0.564,1.11C15.921,47.186,16.257,47.43,16.638,47.43L16.638,47.43
		z M16.638,47.43"/>
	<path style="fill:#E9170B;" d="M32.452,42.811c0.089,0,0.178-0.014,0.264-0.041h0.001c0.038-0.011,0.074-0.026,0.109-0.042
		c0.039-0.007,0.077-0.017,0.115-0.028c1.403-0.445,2.618-0.865,3.718-1.283c0.075-0.028,0.149-0.056,0.224-0.085
		c0.218-0.085,0.392-0.251,0.487-0.465c0.095-0.215,0.101-0.455,0.016-0.674c-0.13-0.337-0.46-0.564-0.822-0.564
		c-0.108,0-0.215,0.02-0.317,0.06L36.221,39.7c-0.063,0.023-0.125,0.048-0.188,0.072c-1.066,0.405-2.251,0.814-3.623,1.249
		c-0.037,0.011-0.073,0.026-0.108,0.042c-0.038,0.006-0.076,0.015-0.113,0.027c-0.224,0.07-0.408,0.224-0.517,0.433
		c-0.109,0.208-0.131,0.447-0.059,0.672C31.727,42.563,32.065,42.811,32.452,42.811L32.452,42.811z M32.452,42.811"/>
	<path style="fill:#E9170B;" d="M24.538,45.098c0.08,0,0.16-0.011,0.237-0.033c0.037-0.01,0.075-0.023,0.111-0.038
		c0.039-0.006,0.078-0.014,0.115-0.025l0.378-0.105c1.104-0.307,2.243-0.624,3.347-0.94c0.006-0.001,0.013-0.002,0.019-0.005
		c0.075-0.021,0.151-0.044,0.226-0.065c0.227-0.065,0.413-0.214,0.527-0.419c0.115-0.205,0.142-0.444,0.077-0.67
		c-0.108-0.376-0.456-0.638-0.846-0.638c-0.083,0-0.163,0.011-0.243,0.034h-0.001l-0.093,0.027
		c-0.044,0.011-0.087,0.025-0.132,0.038c-1.059,0.302-2.158,0.608-3.22,0.904l-0.513,0.143c-0.038,0.011-0.075,0.023-0.111,0.039
		c-0.039,0.005-0.079,0.013-0.116,0.023c-0.001,0-0.001,0.001-0.001,0.001c-0.226,0.064-0.414,0.21-0.529,0.416
		c-0.115,0.204-0.144,0.441-0.081,0.668C23.796,44.832,24.144,45.098,24.538,45.098L24.538,45.098z M24.538,45.098"/>
	<path style="fill:#E9170B;" d="M40.105,39.805c0.143,0,0.287-0.035,0.413-0.103c0.037-0.019,0.071-0.04,0.104-0.065
		c0.038-0.014,0.076-0.032,0.111-0.05c1.416-0.775,2.507-1.57,3.333-2.428c0.065-0.068,0.123-0.13,0.178-0.192
		c0.326-0.361,0.298-0.918-0.063-1.244c-0.162-0.147-0.371-0.227-0.59-0.227c-0.248,0-0.486,0.105-0.653,0.29
		c-0.046,0.05-0.094,0.102-0.142,0.152c-0.69,0.719-1.668,1.425-2.907,2.102c-0.033,0.019-0.065,0.039-0.095,0.061
		c-0.036,0.013-0.071,0.028-0.103,0.045c-0.429,0.228-0.592,0.762-0.363,1.192C39.48,39.627,39.778,39.805,40.105,39.805
		L40.105,39.805z M40.105,39.805"/>
	<path style="fill:#E9170B;" d="M45.029,32.054c-0.485,0-0.879,0.395-0.881,0.88v0.001c0,0.486,0.394,0.881,0.881,0.881
		c0.486,0,0.881-0.394,0.881-0.881v-0.001C45.909,32.45,45.514,32.054,45.029,32.054L45.029,32.054z M45.029,32.054"/>
	<path style="fill:#E9170B;" d="M13.801,47.529c-0.132-0.342-0.455-0.561-0.82-0.561c-0.109,0-0.217,0.02-0.319,0.06
		c-0.075,0.03-0.15,0.059-0.224,0.087c-1.363,0.539-2.547,1.071-3.62,1.628c-0.036,0.018-0.07,0.039-0.103,0.063
		c-0.037,0.013-0.075,0.03-0.111,0.049c-0.429,0.226-0.593,0.761-0.366,1.191c0.154,0.289,0.452,0.468,0.78,0.468
		c0.141,0,0.284-0.035,0.41-0.103c0.034-0.018,0.067-0.038,0.098-0.06c0.036-0.013,0.07-0.028,0.105-0.046
		c1.003-0.52,2.165-1.042,3.455-1.552l0.059-0.022c0.053-0.021,0.105-0.041,0.156-0.061C13.752,48.493,13.977,47.981,13.801,47.529
		L13.801,47.529z M13.801,47.529"/>
</g>
</svg>
