<?xml version="1.0" encoding="iso-8859-1"?>
<!-- Generator: Adobe Illustrator 21.1.0, SVG Export Plug-In . SVG Version: 6.00 Build 0)  -->
<svg version="1.1" id="&#x421;&#x43B;&#x43E;&#x439;_1"
	 xmlns="http://www.w3.org/2000/svg" xmlns:xlink="http://www.w3.org/1999/xlink" x="0px" y="0px" viewBox="0 0 46.668 50"
	 style="enable-background:new 0 0 46.668 50;" xml:space="preserve">
<g>
	<path d="M45.833,3.332h-5.835V0.834c0-0.46-0.37-0.834-0.829-0.834h-5.835c-0.459,0-0.834,0.374-0.834,0.834v2.498h-18.33V0.834
		c0-0.46-0.375-0.834-0.834-0.834H7.499C7.04,0,6.665,0.374,6.665,0.834v2.498h-5.83C0.374,3.332,0,3.707,0,4.167v44.999
		C0,49.626,0.374,50,0.834,50h44.999c0.459,0,0.834-0.374,0.834-0.834V4.167C46.668,3.707,46.293,3.332,45.833,3.332L45.833,3.332z
		 M34.168,1.669h4.167v4.996h-4.167V1.669z M8.333,1.669H12.5v4.996H8.333V1.669z M1.669,5.001h4.996v2.498
		c0,0.46,0.375,0.834,0.834,0.834h5.835c0.459,0,0.834-0.374,0.834-0.834V5.001h18.33v2.498c0,0.46,0.375,0.834,0.834,0.834h5.835
		c0.459,0,0.829-0.374,0.829-0.834V5.001h5.001V12.5H1.669V5.001z M1.669,48.331V14.169h43.33v34.162H1.669z M1.669,48.331"/>
	<path d="M30.001,19.165H7.499v24.171h31.67V19.165H30.001z M24.166,20.833h5.835v5.835h-5.835V20.833z M30.001,34.168h-5.835
		v-5.835h5.835V34.168z M16.667,28.332h5.835v5.835h-5.835V28.332z M16.667,20.833h5.835v5.835h-5.835V20.833z M9.168,20.833h5.83
		v5.835h-5.83V20.833z M9.168,28.332h5.83v5.835h-5.83V28.332z M14.998,41.667h-5.83v-5.835h5.83V41.667z M22.502,41.667h-5.835
		v-5.835h5.835V41.667z M30.001,41.667h-5.835v-5.835h5.835V41.667z M37.5,41.667h-5.835v-5.835H37.5V41.667z M37.5,34.168h-5.835
		v-5.835H37.5V34.168z M37.5,20.833v5.835h-5.835v-5.835H37.5z M37.5,20.833"/>
</g>
</svg>
