<?xml version="1.0" encoding="iso-8859-1"?>
<!-- Generator: Adobe Illustrator 21.1.0, SVG Export Plug-In . SVG Version: 6.00 Build 0)  -->
<svg version="1.1" id="&#x421;&#x43B;&#x43E;&#x439;_1"
	 xmlns="http://www.w3.org/2000/svg" xmlns:xlink="http://www.w3.org/1999/xlink" x="0px" y="0px" viewBox="0 0 20 19.391"
	 style="enable-background:new 0 0 20 19.391;" xml:space="preserve">
<path style="fill:#F75550;" d="M6.57,18.157c0,0,0.145,0.217,0.38,0.417c0.237,0.199,1.087,0.833,1.831,0.817
	c0.742-0.019,1.033-0.762,1.469-1.832c0.434-1.069,2.872-7.414,6.024-11.901C19.429,1.171,20,1.362,20,0.791
	c0-0.572-0.191-0.816-0.925-0.789c-0.734,0.028-0.706-0.19-2.8,1.197c-2.093,1.386-5.872,5.221-8.128,10.224
	c0,0-0.354,0.938-0.529,0.707c-0.177-0.231-1.946-1.631-4.282-1.889c-2.339-0.259-3.292,0.829-3.331,1.292
	c-0.018,0.203,0,0.434,0.882,0.801c0,0,1.782,0.83,3.318,2.42C5.74,16.344,6.229,17.454,6.57,18.157z"/>
<g>
</g>
<g>
</g>
<g>
</g>
<g>
</g>
<g>
</g>
<g>
</g>
</svg>
