<?xml version="1.0" encoding="iso-8859-1"?>
<!-- Generator: Adobe Illustrator 21.1.0, SVG Export Plug-In . SVG Version: 6.00 Build 0)  -->
<svg version="1.1" id="&#x421;&#x43B;&#x43E;&#x439;_1"
	 xmlns="http://www.w3.org/2000/svg" xmlns:xlink="http://www.w3.org/1999/xlink" x="0px" y="0px" viewBox="0 0 58.909 60"
	 style="enable-background:new 0 0 58.909 60;" xml:space="preserve">
<g>
	<g>
		<defs>
			<rect id="SVGID_1_" x="0" width="58.909" height="60"/>
		</defs>
		<clipPath id="SVGID_2_">
			<use xlink:href="#SVGID_1_"  style="overflow:visible;"/>
		</clipPath>
		<linearGradient id="SVGID_3_" gradientUnits="userSpaceOnUse" x1="14.5468" y1="0.1894" x2="14.5468" y2="58.9033">
			<stop  offset="0" style="stop-color:#E91B24"/>
			<stop  offset="1" style="stop-color:#333333"/>
		</linearGradient>
		<path style="clip-path:url(#SVGID_2_);fill:url(#SVGID_3_);" d="M9.091,17.089c0,3.01,2.445,5.456,5.456,5.456
			c3.005,0,5.456-2.445,5.456-5.456c0-3.005-2.451-5.45-5.456-5.45C11.537,11.639,9.091,14.084,9.091,17.089L9.091,17.089z
			 M18.182,17.089c0,2.007-1.63,3.641-3.635,3.641c-2.007,0-3.635-1.634-3.635-3.641c0-2.001,1.628-3.635,3.635-3.635
			C16.552,13.453,18.182,15.088,18.182,17.089L18.182,17.089z M18.182,17.089"/>
		<linearGradient id="SVGID_4_" gradientUnits="userSpaceOnUse" x1="17.2721" y1="0.1894" x2="17.2721" y2="58.9033">
			<stop  offset="0" style="stop-color:#E91B24"/>
			<stop  offset="1" style="stop-color:#333333"/>
		</linearGradient>
		<path style="clip-path:url(#SVGID_2_);fill:url(#SVGID_4_);" d="M27.916,26.824l6.361-6.361c0.356-0.355,0.356-0.932,0-1.287
			l-2.725-2.725c-0.338-0.337-0.875-0.359-1.234-0.049l-6.259,5.362l-6.064,2.601H7.271c-0.261,0-0.51,0.11-0.683,0.31l-6.361,7.272
			c-0.213,0.243-0.284,0.581-0.177,0.888l2.725,8.181c0.085,0.249,0.272,0.453,0.516,0.55c0.243,0.102,0.515,0.094,0.755-0.026
			l3.635-1.816c0.31-0.155,0.501-0.466,0.501-0.799v15.439c0,2.508,2.042,4.545,4.545,4.545h7.276c0.501,0,0.905-0.403,0.905-0.91
			V30.38l6.769-3.388C27.766,26.952,27.846,26.894,27.916,26.824L27.916,26.824z M8.181,38.893c0-0.111-0.022-0.217-0.061-0.324
			l-1.625-4.053l1.686-2.108V38.893z M19.593,29.003c-0.306,0.156-0.501,0.47-0.501,0.817v27.273h-3.635V42.547
			c0-0.502-0.409-0.91-0.91-0.91c-0.502,0-0.91,0.408-0.91,0.91v14.547h-0.91c-1.505,0-2.725-1.226-2.725-2.731V29.82
			c0-0.386-0.244-0.733-0.608-0.861c-0.365-0.125-0.773-0.009-1.013,0.293l-3.635,4.545c-0.205,0.252-0.258,0.599-0.138,0.905
			l1.509,3.769l-1.949,0.972l-2.233-6.689l5.749-6.575h10.498c0.124,0,0.244-0.022,0.359-0.07l6.361-2.73
			c0.084-0.036,0.165-0.085,0.235-0.142l5.726-4.906l1.488,1.488l-5.616,5.615L19.593,29.003z M19.593,29.003"/>
	</g>
	<linearGradient id="SVGID_5_" gradientUnits="userSpaceOnUse" x1="14.5439" y1="0.1894" x2="14.5439" y2="58.9033">
		<stop  offset="0" style="stop-color:#E91B24"/>
		<stop  offset="1" style="stop-color:#333333"/>
	</linearGradient>
	<path style="fill:url(#SVGID_5_);" d="M12.726,29.82h0.91v7.27h1.82v-7.27h0.905V28h-3.635V29.82z M12.726,29.82"/>
	<linearGradient id="SVGID_6_" gradientUnits="userSpaceOnUse" x1="43.6371" y1="0.1894" x2="43.6371" y2="58.9033">
		<stop  offset="0" style="stop-color:#E91B24"/>
		<stop  offset="1" style="stop-color:#333333"/>
	</linearGradient>
	<path style="fill:url(#SVGID_6_);" d="M58.181,46.182c0-3.009-2.445-5.456-5.456-5.456c-1.895,0-3.564,0.977-4.545,2.447
		c-0.976-1.474-2.645-2.447-4.545-2.447c-1.895,0-3.564,0.977-4.545,2.447c-0.976-1.474-2.645-2.447-4.545-2.447
		c-3.005,0-5.45,2.447-5.45,5.456c0,1.895,0.972,3.569,2.441,4.545c-1.469,0.976-2.441,2.65-2.441,4.545v3.635h1.815v-3.635
		c0-2.007,1.634-3.635,3.635-3.635c2.007,0,3.641,1.628,3.641,3.635v3.635h1.815v-3.635c0-2.007,1.634-3.635,3.635-3.635
		c2.007,0,3.641,1.628,3.641,3.635v3.635h1.815v-3.635c0-2.007,1.634-3.635,3.635-3.635c2.007,0,3.641,1.628,3.641,3.635v3.635
		h1.815v-3.635c0-1.895-0.972-3.569-2.445-4.545C57.209,49.751,58.181,48.077,58.181,46.182L58.181,46.182z M43.634,42.547
		c2.007,0,3.641,1.628,3.641,3.635c0,2.007-1.634,3.635-3.641,3.635c-2.001,0-3.635-1.628-3.635-3.635
		C39.999,44.175,41.633,42.547,43.634,42.547L43.634,42.547z M30.908,46.182c0-2.007,1.634-3.635,3.635-3.635
		c2.007,0,3.641,1.628,3.641,3.635c0,2.007-1.634,3.635-3.641,3.635C32.542,49.817,30.908,48.189,30.908,46.182L30.908,46.182z
		 M39.089,52.264c-0.403-0.609-0.927-1.133-1.535-1.536c0.608-0.403,1.132-0.927,1.535-1.536c0.405,0.609,0.928,1.133,1.536,1.536
		C40.017,51.131,39.493,51.655,39.089,52.264L39.089,52.264z M48.18,52.264c-0.403-0.609-0.927-1.133-1.535-1.536
		c0.608-0.403,1.132-0.927,1.535-1.536c0.405,0.609,0.928,1.133,1.536,1.536C49.108,51.131,48.584,51.655,48.18,52.264L48.18,52.264
		z M52.725,49.817c-2.001,0-3.635-1.628-3.635-3.635c0-2.007,1.634-3.635,3.635-3.635c2.007,0,3.641,1.628,3.641,3.635
		C56.366,48.189,54.732,49.817,52.725,49.817L52.725,49.817z M52.725,49.817"/>
	<linearGradient id="SVGID_7_" gradientUnits="userSpaceOnUse" x1="40.4541" y1="0.1894" x2="40.4541" y2="58.9033">
		<stop  offset="0" style="stop-color:#E91B24"/>
		<stop  offset="1" style="stop-color:#333333"/>
	</linearGradient>
	<path style="fill:url(#SVGID_7_);" d="M57.271,0.727H23.638c-0.502,0-0.91,0.408-0.91,0.91v17.272h1.82V2.548h31.818V27.09
		c0,1.505-1.226,2.731-2.731,2.731H25.452v1.815h28.183c2.508,0,4.545-2.037,4.545-4.545V1.638
		C58.181,1.135,57.773,0.727,57.271,0.727L57.271,0.727z M57.271,0.727"/>
	<linearGradient id="SVGID_8_" gradientUnits="userSpaceOnUse" x1="40.4541" y1="0.1894" x2="40.4541" y2="58.9033">
		<stop  offset="0" style="stop-color:#E91B24"/>
		<stop  offset="1" style="stop-color:#333333"/>
	</linearGradient>
	<path style="fill:url(#SVGID_8_);" d="M38.184,5.273h-9.091c-0.502,0-0.91,0.408-0.91,0.91v3.635c0,0.501,0.408,0.91,0.91,0.91
		h9.091c0.501,0,0.905-0.409,0.905-0.91v-0.91h2.731v0.91c0,0.501,0.408,0.91,0.91,0.91h3.635v2.725H42.73
		c-0.502,0-0.91,0.409-0.91,0.91v3.635c0,0.502,0.408,0.91,0.91,0.91h3.635v2.725H42.73c-0.502,0-0.91,0.409-0.91,0.91v3.635
		c0,0.507,0.408,0.91,0.91,0.91h9.091c0.501,0,0.905-0.403,0.905-0.91v-3.635c0-0.501-0.403-0.91-0.905-0.91H48.18v-2.725h3.641
		c0.501,0,0.905-0.408,0.905-0.91v-3.635c0-0.501-0.403-0.91-0.905-0.91H48.18v-2.725h3.641c0.501,0,0.905-0.409,0.905-0.91V6.183
		c0-0.502-0.403-0.91-0.905-0.91H42.73c-0.502,0-0.91,0.408-0.91,0.91v0.91h-2.731v-0.91C39.089,5.681,38.685,5.273,38.184,5.273
		L38.184,5.273z M37.274,8.908h-7.276V7.093h7.276V8.908z M50.91,25.275h-7.276v-1.82h7.276V25.275z M50.91,17.089h-7.276v-1.815
		h7.276V17.089z M43.634,7.093h7.276v1.815h-7.276V7.093z M43.634,7.093"/>
	<linearGradient id="SVGID_9_" gradientUnits="userSpaceOnUse" x1="34.0916" y1="0.1894" x2="34.0916" y2="58.9033">
		<stop  offset="0" style="stop-color:#E91B24"/>
		<stop  offset="1" style="stop-color:#333333"/>
	</linearGradient>
	<rect x="29.093" y="12.543" style="fill:url(#SVGID_9_);" width="9.997" height="1.82"/>
	<linearGradient id="SVGID_10_" gradientUnits="userSpaceOnUse" x1="37.2712" y1="0.1894" x2="37.2712" y2="58.9033">
		<stop  offset="0" style="stop-color:#E91B24"/>
		<stop  offset="1" style="stop-color:#333333"/>
	</linearGradient>
	<rect x="35.454" y="16.184" style="fill:url(#SVGID_10_);" width="3.635" height="1.816"/>
	<linearGradient id="SVGID_11_" gradientUnits="userSpaceOnUse" x1="37.7263" y1="0.1894" x2="37.7263" y2="58.9033">
		<stop  offset="0" style="stop-color:#E91B24"/>
		<stop  offset="1" style="stop-color:#333333"/>
	</linearGradient>
	<rect x="36.364" y="19.819" style="fill:url(#SVGID_11_);" width="2.725" height="1.816"/>
	<linearGradient id="SVGID_12_" gradientUnits="userSpaceOnUse" x1="36.3644" y1="0.1894" x2="36.3644" y2="58.9033">
		<stop  offset="0" style="stop-color:#E91B24"/>
		<stop  offset="1" style="stop-color:#333333"/>
	</linearGradient>
	<rect x="33.639" y="23.455" style="fill:url(#SVGID_12_);" width="5.451" height="1.82"/>
	<linearGradient id="SVGID_13_" gradientUnits="userSpaceOnUse" x1="8.636" y1="0.1894" x2="8.636" y2="58.9033">
		<stop  offset="0" style="stop-color:#E91B24"/>
		<stop  offset="1" style="stop-color:#333333"/>
	</linearGradient>
	<path style="fill:url(#SVGID_13_);" d="M3.635,9.818h0.458l2.455,3.272c0.173,0.235,0.443,0.364,0.723,0.364
		c0.098,0,0.195-0.014,0.289-0.044c0.373-0.124,0.622-0.47,0.622-0.866V9.818h5.456c1.505,0,2.725-1.225,2.725-2.725V3.452
		c0-1.5-1.22-2.725-2.725-2.725H3.635c-1.505,0-2.725,1.225-2.725,2.725v3.641C0.91,8.593,2.131,9.818,3.635,9.818L3.635,9.818z
		 M2.725,3.452c0-0.501,0.409-0.905,0.91-0.905h10.001c0.501,0,0.91,0.403,0.91,0.905v3.641c0,0.501-0.409,0.905-0.91,0.905H7.271
		c-0.501,0-0.905,0.409-0.905,0.91v0.91L5.274,8.363C5.1,8.136,4.83,7.998,4.546,7.998h-0.91c-0.501,0-0.91-0.403-0.91-0.905V3.452z
		 M2.725,3.452"/>
	<linearGradient id="SVGID_14_" gradientUnits="userSpaceOnUse" x1="8.6359" y1="0.1894" x2="8.6359" y2="58.9033">
		<stop  offset="0" style="stop-color:#E91B24"/>
		<stop  offset="1" style="stop-color:#333333"/>
	</linearGradient>
	<rect x="4.546" y="4.363" style="fill:url(#SVGID_14_);" width="8.181" height="1.82"/>
</g>
</svg>
