<?xml version="1.0" encoding="iso-8859-1"?>
<!-- Generator: Adobe Illustrator 21.1.0, SVG Export Plug-In . SVG Version: 6.00 Build 0)  -->
<svg version="1.1" id="Layer_1" xmlns="http://www.w3.org/2000/svg" xmlns:xlink="http://www.w3.org/1999/xlink" x="0px" y="0px"
	 viewBox="181.416 367.001 51.168 60" style="enable-background:new 181.416 367.001 51.168 60;" xml:space="preserve">
<g>
	<linearGradient id="SVGID_1_" gradientUnits="userSpaceOnUse" x1="207" y1="367.3521" x2="207" y2="426.7264">
		<stop  offset="0" style="stop-color:#EB1B24"/>
		<stop  offset="1" style="stop-color:#333333"/>
	</linearGradient>
	<path style="fill:url(#SVGID_1_);" d="M231.656,377.361c-8.255-2.262-16.559-5.784-24.014-10.185c-0.396-0.234-0.887-0.234-1.283,0
		c-7.67,4.528-15.525,7.859-24.014,10.185c-0.548,0.15-0.929,0.649-0.929,1.217v12.896c0,13.28,6.126,22.07,11.266,27.106
		c5.533,5.422,11.978,8.42,14.319,8.42c2.34,0,8.785-2.998,14.318-8.42c5.139-5.036,11.266-13.826,11.266-27.106v-12.896
		C232.584,378.01,232.204,377.511,231.656,377.361z M230.06,391.474c0,12.403-5.714,20.606-10.508,25.303
		c-5.441,5.331-11.259,7.699-12.552,7.699s-7.111-2.367-12.552-7.699c-4.794-4.697-10.508-12.9-10.508-25.303v-11.938
		c8.119-2.305,15.679-5.522,23.061-9.811c7.197,4.176,15.135,7.552,23.059,9.811V391.474z"/>
	<linearGradient id="SVGID_2_" gradientUnits="userSpaceOnUse" x1="191.1573" y1="367.3521" x2="191.1573" y2="426.7264">
		<stop  offset="0" style="stop-color:#EB1B24"/>
		<stop  offset="1" style="stop-color:#333333"/>
	</linearGradient>
	<path style="fill:url(#SVGID_2_);" d="M195.813,379.395c-0.255-0.649-0.988-0.967-1.637-0.712
		c-2.255,0.888-4.569,1.706-6.878,2.431c-0.526,0.165-0.884,0.653-0.884,1.204v4.874c0,0.697,0.565,1.262,1.262,1.262
		c0.697,0,1.262-0.565,1.262-1.262v-3.952c2.072-0.67,4.141-1.412,6.164-2.209C195.75,380.777,196.069,380.044,195.813,379.395z"/>
	<linearGradient id="SVGID_3_" gradientUnits="userSpaceOnUse" x1="198.2194" y1="367.3521" x2="198.2194" y2="426.7264">
		<stop  offset="0" style="stop-color:#EB1B24"/>
		<stop  offset="1" style="stop-color:#333333"/>
	</linearGradient>
	<path style="fill:url(#SVGID_3_);" d="M198.211,379.635c0.169,0,0.341-0.034,0.506-0.106l0.023-0.01
		c0.639-0.28,0.926-1.023,0.646-1.661c-0.28-0.639-1.028-0.927-1.665-0.648l-0.02,0.009c-0.639,0.279-0.927,1.022-0.648,1.66
		C197.259,379.353,197.724,379.635,198.211,379.635z"/>
	<linearGradient id="SVGID_4_" gradientUnits="userSpaceOnUse" x1="217.578" y1="367.3521" x2="217.578" y2="426.7264">
		<stop  offset="0" style="stop-color:#EB1B24"/>
		<stop  offset="1" style="stop-color:#333333"/>
	</linearGradient>
	<path style="fill:url(#SVGID_4_);" d="M222.038,407.698c-0.583-0.381-1.365-0.217-1.747,0.366c-1.04,1.592-2.26,3.116-3.627,4.53
		c-1.124,1.163-2.342,2.246-3.62,3.221c-0.554,0.423-0.661,1.215-0.238,1.769c0.249,0.326,0.624,0.497,1.005,0.497
		c0.267,0,0.536-0.084,0.764-0.259c1.379-1.051,2.692-2.22,3.904-3.474c1.478-1.529,2.799-3.179,3.926-4.904
		C222.785,408.861,222.621,408.079,222.038,407.698z"/>
	<linearGradient id="SVGID_5_" gradientUnits="userSpaceOnUse" x1="210.711" y1="367.3521" x2="210.711" y2="426.7264">
		<stop  offset="0" style="stop-color:#EB1B24"/>
		<stop  offset="1" style="stop-color:#333333"/>
	</linearGradient>
	<path style="fill:url(#SVGID_5_);" d="M210.112,417.795l-0.072,0.043c-0.603,0.349-0.809,1.121-0.46,1.725
		c0.234,0.404,0.658,0.63,1.093,0.63c0.214,0,0.432-0.055,0.631-0.17l0.084-0.049c0.602-0.352,0.804-1.125,0.451-1.727
		C211.487,417.644,210.713,417.443,210.112,417.795z"/>
	<linearGradient id="SVGID_6_" gradientUnits="userSpaceOnUse" x1="207.0004" y1="367.3521" x2="207.0004" y2="426.7264">
		<stop  offset="0" style="stop-color:#EB1B24"/>
		<stop  offset="1" style="stop-color:#333333"/>
	</linearGradient>
	<path style="fill:url(#SVGID_6_);" d="M198.397,394.425c-0.775-0.775-1.806-1.202-2.902-1.202s-2.127,0.427-2.902,1.202
		c-1.6,1.6-1.6,4.204,0,5.804l7.453,7.452c0.775,0.775,1.806,1.202,2.902,1.202s2.127-0.427,2.902-1.202l15.558-15.558
		c1.6-1.601,1.6-4.204,0-5.804c-0.775-0.775-1.806-1.202-2.902-1.202c-1.096,0-2.127,0.427-2.902,1.202l-12.656,12.656
		L198.397,394.425z M217.388,388.104c0.298-0.298,0.695-0.462,1.117-0.462c0.422,0,0.819,0.164,1.117,0.462
		c0.616,0.616,0.616,1.618,0,2.234l-15.558,15.558c-0.298,0.298-0.695,0.462-1.117,0.462c-0.422,0-0.819-0.164-1.117-0.462
		l-7.452-7.452c-0.616-0.616-0.616-1.619,0-2.234c0.298-0.298,0.695-0.463,1.117-0.463c0.422,0,0.819,0.164,1.117,0.462l5.443,5.443
		c0.237,0.237,0.558,0.37,0.892,0.37c0.335,0,0.656-0.133,0.892-0.37L217.388,388.104z"/>
</g>
</svg>
