<?xml version="1.0" encoding="iso-8859-1"?>
<!-- Generator: Adobe Illustrator 21.1.0, SVG Export Plug-In . SVG Version: 6.00 Build 0)  -->
<svg version="1.1" id="Layer_1" xmlns="http://www.w3.org/2000/svg" xmlns:xlink="http://www.w3.org/1999/xlink" x="0px" y="0px"
	 viewBox="177.001 368.151 60 57.696" style="enable-background:new 177.001 368.151 60 57.696;" xml:space="preserve">
<g>
	<linearGradient id="SVGID_1_" gradientUnits="userSpaceOnUse" x1="207.2807" y1="368.2886" x2="207.2807" y2="426.0649">
		<stop  offset="0" style="stop-color:#ED1C24"/>
		<stop  offset="1" style="stop-color:#333333"/>
	</linearGradient>
	<path style="fill:url(#SVGID_1_);" d="M207.281,391.522c2.696,0,4.89-2.194,4.89-4.89c0-2.696-2.194-4.89-4.89-4.89
		c-2.696,0-4.89,2.194-4.89,4.89C202.391,389.328,204.584,391.522,207.281,391.522z M207.281,383.641c1.649,0,2.99,1.341,2.99,2.99
		c0,1.649-1.341,2.99-2.99,2.99c-1.649,0-2.99-1.341-2.99-2.99C204.29,384.983,205.632,383.641,207.281,383.641z"/>
	<linearGradient id="SVGID_2_" gradientUnits="userSpaceOnUse" x1="207.2807" y1="368.2886" x2="207.2807" y2="426.0649">
		<stop  offset="0" style="stop-color:#ED1C24"/>
		<stop  offset="1" style="stop-color:#333333"/>
	</linearGradient>
	<path style="fill:url(#SVGID_2_);" d="M225.766,410.354c0.525,0,0.95-0.425,0.95-0.95V395.38c0-0.253-0.101-0.495-0.28-0.674
		l-9.128-9.071v-2.003c0-3.267-0.924-6.443-2.672-9.186c-1.701-2.668-4.1-4.812-6.938-6.199c-0.263-0.129-0.571-0.129-0.834,0
		c-2.838,1.387-5.237,3.531-6.938,6.199c-1.748,2.742-2.672,5.919-2.672,9.186v2.003l-9.128,9.071
		c-0.179,0.178-0.28,0.421-0.28,0.674v14.024c0,0.525,0.425,0.95,0.95,0.95h8.458v0.037c0,1.849,1.505,3.354,3.354,3.354h1.41
		c-0.56,1.172-0.852,2.452-0.852,3.775c0,3.687,2.327,7.01,5.791,8.269c0.105,0.038,0.215,0.057,0.325,0.057
		c0.11,0,0.22-0.019,0.325-0.057c3.464-1.26,5.791-4.583,5.791-8.269c0-1.323-0.292-2.604-0.852-3.775h1.41
		c1.849,0,3.354-1.505,3.354-3.354v-0.037H225.766z M199.153,383.633c0-5.705,3.102-10.822,8.127-13.466
		c5.025,2.644,8.128,7.762,8.128,13.466v14.015c0,0.525,0.425,0.95,0.95,0.95c0.525,0,0.95-0.425,0.95-0.95v-9.334l7.508,7.461
		v12.679h-7.508v-1.721v-5.856c0-0.525-0.425-0.95-0.95-0.95c-0.525,0-0.95,0.425-0.95,0.95v4.906h-7.178v-2.523
		c0-0.525-0.425-0.95-0.95-0.95c-0.525,0-0.95,0.425-0.95,0.95v2.523h-7.178v-19.752V383.633L199.153,383.633z M189.745,408.454
		v-12.679l7.508-7.461v18.419v1.721L189.745,408.454L189.745,408.454z M199.153,410.392v-0.987v-1.721h7.178v4.163h-5.723
		C199.806,411.846,199.153,411.193,199.153,410.392z M207.281,423.877c-2.535-1.071-4.216-3.583-4.216-6.357
		c0-1.335,0.378-2.614,1.098-3.728h2.168v1.755c0,0.525,0.425,0.95,0.95,0.95c0.525,0,0.95-0.425,0.95-0.95v-1.755h2.168
		c0.719,1.113,1.098,2.393,1.098,3.728C211.496,420.295,209.816,422.806,207.281,423.877z M215.408,410.392
		c0,0.802-0.652,1.454-1.454,1.454h-5.723v-4.163h7.178L215.408,410.392L215.408,410.392z"/>
	<linearGradient id="SVGID_3_" gradientUnits="userSpaceOnUse" x1="227.369" y1="368.2886" x2="227.369" y2="426.0649">
		<stop  offset="0" style="stop-color:#ED1C24"/>
		<stop  offset="1" style="stop-color:#333333"/>
	</linearGradient>
	<path style="fill:url(#SVGID_3_);" d="M228.979,415.295c-1.066,0-2.119,0.213-3.094,0.62c-0.532-1.69-2.114-2.919-3.978-2.919
		c-2.299,0-4.169,1.87-4.169,4.169c0,0.525,0.425,0.95,0.95,0.95s0.95-0.425,0.95-0.95c0-1.251,1.018-2.27,2.269-2.27
		s2.27,1.018,2.27,2.27c0,0.536-0.19,1.057-0.536,1.465c-0.339,0.4-0.289,1,0.111,1.339c0.178,0.151,0.396,0.225,0.613,0.225
		c0.27,0,0.538-0.114,0.726-0.336c0.46-0.543,0.769-1.195,0.906-1.886c0.907-0.507,1.936-0.776,2.982-0.776
		c3.376,0,6.122,2.746,6.122,6.122c0,0.525,0.425,0.95,0.95,0.95c0.525,0,0.95-0.425,0.95-0.95
		C237,418.894,233.402,415.295,228.979,415.295z"/>
	<linearGradient id="SVGID_4_" gradientUnits="userSpaceOnUse" x1="188.4958" y1="368.2886" x2="188.4958" y2="426.0649">
		<stop  offset="0" style="stop-color:#ED1C24"/>
		<stop  offset="1" style="stop-color:#333333"/>
	</linearGradient>
	<path style="fill:url(#SVGID_4_);" d="M195.191,419.313c-0.381,0-0.75,0.046-1.106,0.13c0.136-0.232,0.173-0.52,0.077-0.794
		c-0.736-2.103-2.731-3.517-4.962-3.517c-1.646,0-3.197,0.776-4.189,2.083c-0.527-0.139-1.077-0.213-1.64-0.213
		c-3.514,0-6.372,2.858-6.372,6.372c0,0.525,0.425,0.95,0.95,0.95s0.95-0.425,0.95-0.95c0-2.466,2.006-4.472,4.473-4.472
		c1.547,0,2.964,0.783,3.789,2.095c0.279,0.444,0.866,0.578,1.31,0.298c0.444-0.279,0.578-0.866,0.298-1.31
		c-0.508-0.807-1.173-1.473-1.943-1.969c0.625-0.623,1.478-0.984,2.374-0.984c1.425,0,2.699,0.902,3.169,2.245
		c0.101,0.288,0.326,0.495,0.595,0.586c-1.528,0.804-2.573,2.407-2.573,4.25c0,0.525,0.425,0.95,0.95,0.95s0.95-0.425,0.95-0.95
		c0-1.599,1.301-2.9,2.9-2.9c1.599,0,2.9,1.301,2.9,2.9c0,0.525,0.425,0.95,0.95,0.95s0.95-0.425,0.95-0.95
		C199.991,421.466,197.838,419.313,195.191,419.313z"/>
</g>
</svg>
