<?xml version="1.0" encoding="iso-8859-1"?>
<!-- Generator: Adobe Illustrator 21.1.0, SVG Export Plug-In . SVG Version: 6.00 Build 0)  -->
<svg version="1.1" id="Layer_1" xmlns="http://www.w3.org/2000/svg" xmlns:xlink="http://www.w3.org/1999/xlink" x="0px" y="0px"
	 viewBox="182 372 50 50" style="enable-background:new 182 372 50 50;" xml:space="preserve">
<g>
	<path style="fill:#353535;" d="M224.678,379.323c-4.722-4.722-11-7.322-17.678-7.322c-6.066,0-11.916,2.201-16.473,6.196
		c-0.331,0.29-0.364,0.795-0.074,1.126c0.291,0.331,0.795,0.364,1.126,0.074c4.266-3.74,9.743-5.8,15.421-5.8
		c12.905,0,23.404,10.499,23.404,23.404S219.905,420.405,207,420.405c-4.449,0-8.779-1.254-12.519-3.628
		c-0.202-0.128-0.452-0.159-0.68-0.083l-9.742,3.247l3.247-9.741c0.076-0.228,0.045-0.477-0.083-0.68
		c-2.373-3.741-3.628-8.07-3.628-12.52c0-5.678,2.06-11.155,5.8-15.421c0.29-0.331,0.257-0.835-0.074-1.126
		c-0.331-0.291-0.836-0.257-1.126,0.074C184.201,385.085,182,390.935,182,397c0,4.625,1.269,9.129,3.674,13.051l-3.633,10.899
		c-0.096,0.287-0.021,0.603,0.193,0.816c0.152,0.152,0.356,0.234,0.564,0.234c0.084,0,0.17-0.013,0.252-0.041l10.899-3.633
		c3.922,2.405,8.425,3.674,13.05,3.674c6.678,0,12.956-2.6,17.678-7.322c4.722-4.722,7.322-11,7.322-17.678
		S229.4,384.045,224.678,379.323z"/>
	<g transform="translate(1 1)">
		<path style="fill:#353535;" d="M211.625,388.774h-11.25c-0.211,0-0.422-0.07-0.563-0.281c-0.141-0.211-0.141-0.422-0.141-0.633
			l1.336-4.5c0.07-0.492,0.563-0.914,1.195-0.914h7.594c0.563,0,1.055,0.422,1.195,0.984l1.336,4.43c0.07,0.211,0,0.422-0.141,0.633
			C212.047,388.704,211.836,388.774,211.625,388.774z M201.289,387.368h9.352l-1.055-3.516h-7.242L201.289,387.368z
			 M209.656,383.782L209.656,383.782L209.656,383.782z M202.414,383.711L202.414,383.711L202.414,383.711z"/>
		<path style="fill:#353535;" d="M215.844,411.977h-19.688c-0.422,0-0.703-0.281-0.703-0.703v-19.688
			c0-0.422,0.281-0.703,0.703-0.703h19.687c0.422,0,0.703,0.281,0.703,0.703v19.687
			C216.547,411.696,216.266,411.977,215.844,411.977z M196.859,410.571h18.281V392.29h-18.281V410.571z"/>
		<path style="fill:#353535;" d="M206,409.868c-4.641,0-8.438-3.797-8.438-8.438s3.797-8.438,8.438-8.438s8.438,3.797,8.438,8.438
			S210.641,409.868,206,409.868z M206,394.399c-3.867,0-7.031,3.164-7.031,7.031s3.164,7.031,7.031,7.031s7.031-3.164,7.031-7.031
			S209.867,394.399,206,394.399z"/>
		<path style="fill:#353535;" d="M208.812,406.352c-0.211,0-0.352-0.07-0.492-0.211l-2.812-2.812
			c-0.141-0.141-0.211-0.281-0.211-0.492v-4.922c0-0.422,0.281-0.703,0.703-0.703s0.703,0.281,0.703,0.703v4.641l2.602,2.602
			c0.281,0.281,0.281,0.703,0,0.984C209.164,406.282,209.023,406.352,208.812,406.352z"/>
		<path style="fill:#353535;" d="M206,395.805c-0.422,0-0.703-0.281-0.703-0.703v-1.406c0-0.422,0.281-0.703,0.703-0.703
			s0.703,0.281,0.703,0.703v1.406C206.703,395.524,206.422,395.805,206,395.805z"/>
		<path style="fill:#353535;" d="M206,409.868c-0.422,0-0.703-0.281-0.703-0.703v-1.406c0-0.422,0.281-0.703,0.703-0.703
			s0.703,0.281,0.703,0.703v1.406C206.703,409.586,206.422,409.868,206,409.868z"/>
		<path style="fill:#353535;" d="M213.734,402.133h-1.406c-0.422,0-0.703-0.281-0.703-0.703s0.281-0.703,0.703-0.703h1.406
			c0.422,0,0.703,0.281,0.703,0.703S214.156,402.133,213.734,402.133z"/>
		<path style="fill:#353535;" d="M199.672,402.133h-1.406c-0.422,0-0.703-0.281-0.703-0.703s0.281-0.703,0.703-0.703h1.406
			c0.422,0,0.703,0.281,0.703,0.703S200.094,402.133,199.672,402.133z"/>
		<path style="fill:#353535;" d="M210.219,383.852h-8.438c-0.352,0-0.633-0.211-0.703-0.563s0.07-0.633,0.422-0.773
			c2.391-1.125,3.586-5.555,3.797-7.172c0.07-0.352,0.352-0.633,0.703-0.633l0,0c0.352,0,0.633,0.281,0.703,0.633
			c0,0.07,0.914,5.836,3.797,7.172c0.281,0.141,0.492,0.492,0.422,0.773C210.852,383.641,210.57,383.852,210.219,383.852z
			 M203.82,382.446h4.359c-1.055-1.195-1.758-2.742-2.18-4.078C205.578,379.704,204.875,381.25,203.82,382.446z"/>
		<path style="fill:#353535;" d="M203.188,388.774c-0.422,0-0.703-0.281-0.703-0.703v-2.109c0-0.422,0.281-0.703,0.703-0.703
			s0.703,0.281,0.703,0.703v2.109C203.891,388.493,203.609,388.774,203.188,388.774z"/>
		<path style="fill:#353535;" d="M206,388.774c-0.422,0-0.703-0.281-0.703-0.703v-2.109c0-0.422,0.281-0.703,0.703-0.703
			s0.703,0.281,0.703,0.703v2.109C206.703,388.493,206.422,388.774,206,388.774z"/>
		<path style="fill:#353535;" d="M204.594,392.29c-0.422,0-0.703-0.281-0.703-0.703v-1.406c0-0.422,0.281-0.703,0.703-0.703
			s0.703,0.281,0.703,0.703v1.406C205.297,392.008,205.016,392.29,204.594,392.29z"/>
		<path style="fill:#353535;" d="M207.406,392.29c-0.422,0-0.703-0.281-0.703-0.703v-1.406c0-0.422,0.281-0.703,0.703-0.703
			s0.703,0.281,0.703,0.703v1.406C208.109,392.008,207.828,392.29,207.406,392.29z"/>
		<path style="fill:#353535;" d="M208.812,388.774c-0.422,0-0.703-0.281-0.703-0.703v-2.109c0-0.422,0.281-0.703,0.703-0.703
			s0.703,0.281,0.703,0.703v2.109C209.516,388.493,209.234,388.774,208.812,388.774z"/>
		<path style="fill:#353535;" d="M201.781,416.477c-0.422,0-0.703-0.281-0.703-0.703v-1.688c0-0.422,0.281-0.703,0.703-0.703
			s0.703,0.281,0.703,0.703v1.688C202.484,416.125,202.203,416.477,201.781,416.477z"/>
		<path style="fill:#353535;" d="M203.891,416.758c-0.422,0-0.703-0.281-0.703-0.703v-1.969c0-0.422,0.281-0.703,0.703-0.703
			s0.703,0.281,0.703,0.703v1.969C204.594,416.477,204.313,416.758,203.891,416.758z"/>
		<path style="fill:#353535;" d="M206,416.899c-0.422,0-0.703-0.281-0.703-0.703v-2.109c0-0.422,0.281-0.703,0.703-0.703
			s0.703,0.281,0.703,0.703v2.109C206.703,416.618,206.422,416.899,206,416.899z"/>
		<path style="fill:#353535;" d="M208.109,416.758c-0.422,0-0.703-0.281-0.703-0.703v-1.969c0-0.422,0.281-0.703,0.703-0.703
			s0.703,0.281,0.703,0.703v1.969C208.812,416.477,208.531,416.758,208.109,416.758z"/>
		<path style="fill:#353535;" d="M210.219,416.477c-0.422,0-0.703-0.281-0.703-0.703v-1.688c0-0.422,0.281-0.703,0.703-0.703
			s0.703,0.281,0.703,0.703v1.688C210.922,416.125,210.641,416.477,210.219,416.477z"/>
		<path style="fill:#353535;" d="M211.625,392.29h-11.25c-0.422,0-0.703-0.281-0.703-0.703v-3.516c0-0.422,0.281-0.703,0.703-0.703
			h11.25c0.422,0,0.703,0.281,0.703,0.703v3.516C212.328,392.008,212.047,392.29,211.625,392.29z M201.078,390.883h9.844v-2.109
			h-9.844V390.883z"/>
		<path style="fill:#353535;" d="M206,416.899c-11.602,0-21.094-9.492-21.094-21.094s9.492-21.094,21.094-21.094
			s21.094,9.492,21.094,21.094S217.602,416.899,206,416.899z M206,376.118c-10.828,0-19.687,8.859-19.687,19.687
			s8.859,19.687,19.687,19.687s19.687-8.859,19.687-19.687S216.828,376.118,206,376.118z"/>
		<path style="fill:#353535;" d="M194.258,389.547h-6.891c-0.211,0-0.492,0-0.703-0.07l-0.773-0.211l0.281-0.773
			c1.266-3.375,3.445-6.469,6.258-8.859l0.352-0.281l0.422,0.211c0.773,0.352,1.477,0.984,1.898,1.758
			c0.352,0.703,0.563,1.406,0.492,2.109c0.563,0.211,1.125,0.633,1.477,1.195c0.492,0.773,0.633,1.617,0.422,2.531
			C197.141,388.563,195.805,389.547,194.258,389.547z M187.859,388.141h6.398c0.914,0,1.688-0.563,1.828-1.336
			c0.141-0.492,0-0.984-0.211-1.406c-0.281-0.422-0.703-0.703-1.195-0.773l-0.773-0.141l0.211-0.773
			c0.141-0.633,0.07-1.195-0.211-1.828c-0.211-0.352-0.492-0.703-0.844-0.914C190.742,383.008,188.984,385.399,187.859,388.141z"/>
		<path style="fill:#353535;" d="M206,416.899c-2.25,0-4.43-0.352-6.539-1.055l-0.492-0.141v-5.133h14.063v5.133l-0.492,0.141
			C210.43,416.547,208.25,416.899,206,416.899z M200.375,414.649c3.656,1.055,7.594,1.055,11.25,0v-2.672h-11.25V414.649z"/>
	</g>
</g>
</svg>
