<?xml version="1.0" encoding="iso-8859-1"?>
<!-- Generator: Adobe Illustrator 21.1.0, SVG Export Plug-In . SVG Version: 6.00 Build 0)  -->
<svg version="1.1" id="Layer_1" xmlns="http://www.w3.org/2000/svg" xmlns:xlink="http://www.w3.org/1999/xlink" x="0px" y="0px"
	 viewBox="182 378.681 50 36.639" style="enable-background:new 182 378.681 50 36.639;" xml:space="preserve">
<g>
	<path style="fill:#353535;" d="M229.547,378.681h-45.094c-1.353,0-2.453,1.1-2.453,2.453v31.733c0,1.353,1.1,2.453,2.453,2.453
		h9.221c0.432,0,0.783-0.35,0.783-0.783s-0.35-0.783-0.783-0.783h-9.221c-0.489,0-0.887-0.398-0.887-0.887v-31.733
		c0-0.489,0.398-0.887,0.887-0.887h45.094c0.489,0,0.887,0.398,0.887,0.887v31.733c0,0.489-0.398,0.887-0.887,0.887h-32.504
		c-0.432,0-0.783,0.35-0.783,0.783s0.35,0.783,0.783,0.783h32.504c1.353,0,2.453-1.1,2.453-2.453v-31.733
		C232,379.781,230.9,378.681,229.547,378.681z"/>
	<path style="fill:#353535;" d="M216.986,382.856h-29.193c-0.892,0-1.618,0.726-1.618,1.618v25.052c0,0.892,0.726,1.618,1.618,1.618
		h38.413c0.892,0,1.618-0.726,1.618-1.618v-25.052c0-0.892-0.726-1.618-1.618-1.618h-5.846c-0.432,0-0.783,0.35-0.783,0.783
		s0.35,0.783,0.783,0.783h5.846c0.029,0,0.052,0.023,0.052,0.052v25.052c0,0.029-0.023,0.052-0.052,0.052h-38.413
		c-0.029,0-0.052-0.023-0.052-0.052v-25.052c0-0.029,0.023-0.052,0.052-0.052h29.193c0.432,0,0.783-0.35,0.783-0.783
		S217.419,382.856,216.986,382.856z"/>
	<path style="fill:#353535;" d="M191.512,405.743c0.28,0.201,0.659,0.195,0.933-0.015l1.458-1.117l0.471,1.775
		c0.088,0.333,0.385,0.57,0.729,0.582c0.009,0,0.018,0.001,0.027,0.001c0.334,0,0.632-0.212,0.741-0.53l1.943-5.695l1.943,5.695
		c0.108,0.318,0.407,0.53,0.741,0.53c0.009,0,0.018,0,0.027-0.001c0.345-0.012,0.641-0.248,0.729-0.582l0.471-1.775l1.458,1.117
		c0.275,0.211,0.668,0.213,0.945,0.005c0.268-0.201,0.38-0.562,0.272-0.879l-2.143-6.281c1.341-1.214,2.185-2.967,2.185-4.914
		c0-3.655-2.973-6.628-6.628-6.628s-6.628,2.973-6.628,6.628c0,1.947,0.844,3.7,2.185,4.914l-2.143,6.281
		C191.116,405.181,191.232,405.542,191.512,405.743z M202.084,402.913c-0.109-0.084-0.218-0.17-0.329-0.252
		c-0.226-0.168-0.516-0.218-0.78-0.111c-0.404,0.164-0.472,0.562-0.571,0.935l-1.146-3.358c0.588-0.131,1.147-0.34,1.665-0.616
		L202.084,402.913z M192.752,393.66c0-2.792,2.271-5.063,5.063-5.063c2.792,0,5.063,2.271,5.063,5.063s-2.271,5.063-5.063,5.063
		C195.023,398.722,192.752,396.451,192.752,393.66z M196.37,400.128l-1.146,3.358c-0.099-0.373-0.167-0.771-0.571-0.935
		c-0.264-0.108-0.554-0.057-0.78,0.111c-0.111,0.082-0.219,0.168-0.329,0.252l1.161-3.401
		C195.223,399.788,195.782,399.996,196.37,400.128z"/>
	<path style="fill:#353535;" d="M197.814,397.783c2.273,0,4.123-1.85,4.123-4.123s-1.85-4.123-4.123-4.123s-4.123,1.85-4.123,4.123
		S195.541,397.783,197.814,397.783z M197.814,391.102c1.41,0,2.557,1.147,2.557,2.557s-1.147,2.557-2.557,2.557
		s-2.557-1.147-2.557-2.557S196.404,391.102,197.814,391.102z"/>
	<path style="fill:#353535;" d="M222.031,394.547h-1.67c-0.432,0-0.783,0.35-0.783,0.783s0.35,0.783,0.783,0.783h1.67
		c0.432,0,0.783-0.35,0.783-0.783S222.464,394.547,222.031,394.547z"/>
	<path style="fill:#353535;" d="M208.67,401.123h2.505c0.432,0,0.783-0.35,0.783-0.783s-0.35-0.783-0.783-0.783h-2.505
		c-0.432,0-0.783,0.35-0.783,0.783S208.238,401.123,208.67,401.123z"/>
	<path style="fill:#353535;" d="M217.856,396.113c0.432,0,0.783-0.35,0.783-0.783s-0.35-0.783-0.783-0.783h-2.505
		c-0.432,0-0.783,0.35-0.783,0.783s0.35,0.783,0.783,0.783H217.856z"/>
	<path style="fill:#353535;" d="M208.67,396.113h4.175c0.432,0,0.783-0.35,0.783-0.783s-0.35-0.783-0.783-0.783h-4.175
		c-0.432,0-0.783,0.35-0.783,0.783S208.238,396.113,208.67,396.113z"/>
	<path style="fill:#353535;" d="M222.031,399.557h-8.351c-0.432,0-0.783,0.35-0.783,0.783s0.35,0.783,0.783,0.783h8.351
		c0.432,0,0.783-0.35,0.783-0.783S222.464,399.557,222.031,399.557z"/>
	<path style="fill:#353535;" d="M220.779,387.031h-10.856c-1.122,0-2.035,0.913-2.035,2.035c0,1.122,0.913,2.035,2.035,2.035h10.856
		c1.122,0,2.035-0.913,2.035-2.035C222.814,387.944,221.901,387.031,220.779,387.031z M220.779,389.537h-10.856
		c-0.259,0-0.47-0.211-0.47-0.47s0.211-0.47,0.47-0.47h10.856c0.259,0,0.47,0.211,0.47,0.47S221.038,389.537,220.779,389.537z"/>
	<path style="fill:#353535;" d="M208.67,406.134h6.681c0.432,0,0.783-0.35,0.783-0.783s-0.35-0.783-0.783-0.783h-6.681
		c-0.432,0-0.783,0.35-0.783,0.783S208.238,406.134,208.67,406.134z"/>
	<path style="fill:#353535;" d="M222.031,404.568h-4.175c-0.432,0-0.783,0.35-0.783,0.783s0.35,0.783,0.783,0.783h4.175
		c0.432,0,0.783-0.35,0.783-0.783S222.464,404.568,222.031,404.568z"/>
</g>
</svg>
