<?xml version="1.0" encoding="iso-8859-1"?>
<!-- Generator: Adobe Illustrator 21.1.0, SVG Export Plug-In . SVG Version: 6.00 Build 0)  -->
<svg version="1.1" id="&#x421;&#x43B;&#x43E;&#x439;_1"
	 xmlns="http://www.w3.org/2000/svg" xmlns:xlink="http://www.w3.org/1999/xlink" x="0px" y="0px" viewBox="0 0 50 47.772"
	 style="enable-background:new 0 0 50 47.772;" xml:space="preserve">
<g>
	<path style="fill:#353535;" d="M49.18,47.772h-3.206c-0.452,0-0.819-0.367-0.819-0.819V9.42c0-0.054,0.005-0.107,0.016-0.159
		l1.601-8.117c0.076-0.383,0.414-0.661,0.805-0.661c0.391,0,0.729,0.276,0.805,0.661l1.603,8.117C49.996,9.313,50,9.366,50,9.42
		v37.533C50,47.405,49.633,47.772,49.18,47.772L49.18,47.772z M46.796,46.132h1.565V9.5l-0.783-3.964L46.796,9.5V46.132z
		 M37.4,47.772H6.366c-1.962,0-3.573-1.54-3.683-3.475H0.819C0.367,44.297,0,43.929,0,43.476c0-0.452,0.367-0.819,0.819-0.819h1.858
		v-2.715H0.819C0.367,39.942,0,39.575,0,39.123c0-0.452,0.367-0.819,0.819-0.819h1.858V35.59H0.819C0.367,35.59,0,35.223,0,34.769
		c0-0.452,0.367-0.82,0.819-0.82h1.858v-2.713H0.819C0.367,31.237,0,30.868,0,30.416c0-0.453,0.367-0.82,0.819-0.82h1.858v-2.713
		H0.819C0.367,26.883,0,26.516,0,26.062c0-0.452,0.367-0.819,0.819-0.819h1.858V22.53H0.819C0.367,22.53,0,22.163,0,21.709
		c0-0.452,0.367-0.819,0.819-0.819h1.858v-2.713H0.819C0.367,18.176,0,17.809,0,17.355c0-0.452,0.367-0.819,0.819-0.819h1.858
		v-2.713H0.819C0.367,13.823,0,13.456,0,13.003c0-0.454,0.367-0.821,0.819-0.821h1.858V9.469H0.819C0.367,9.469,0,9.102,0,8.65
		c0-0.453,0.367-0.821,0.819-0.821h1.858V5.116H0.819C0.367,5.116,0,4.749,0,4.296c0-0.452,0.367-0.819,0.819-0.819h1.863
		C2.793,1.54,4.404,0,6.366,0H37.4c2.034,0,3.689,1.655,3.689,3.69v40.392C41.089,46.118,39.434,47.772,37.4,47.772L37.4,47.772z
		 M4.328,44.297c0.107,1.03,0.98,1.835,2.038,1.835h31.032c1.131,0,2.05-0.92,2.05-2.05V3.69c0-1.131-0.919-2.05-2.05-2.05H6.366
		c-1.058,0-1.931,0.806-2.038,1.836h1.006c0.453,0,0.82,0.367,0.82,0.819c0,0.454-0.367,0.821-0.82,0.821H4.316V7.83h1.018
		c0.453,0,0.82,0.367,0.82,0.82c0,0.452-0.367,0.821-0.82,0.821H4.316v2.713h1.018c0.453,0,0.82,0.367,0.82,0.82
		c0,0.454-0.367,0.821-0.82,0.821H4.316v2.713h1.018c0.453,0,0.82,0.367,0.82,0.819c0,0.452-0.367,0.819-0.82,0.819H4.316v2.713
		h1.018c0.453,0,0.82,0.368,0.82,0.821c0,0.452-0.367,0.82-0.82,0.82H4.316v2.714h1.018c0.453,0,0.82,0.367,0.82,0.819
		c0,0.453-0.367,0.82-0.82,0.82H4.316v2.713h1.018c0.453,0,0.82,0.367,0.82,0.821c0,0.452-0.367,0.819-0.82,0.819H4.316v2.713h1.018
		c0.453,0,0.82,0.367,0.82,0.821c0,0.452-0.367,0.819-0.82,0.819H4.316v2.713h1.018c0.453,0,0.82,0.367,0.82,0.821
		c0,0.452-0.367,0.819-0.82,0.819H4.316v2.713h1.018c0.453,0,0.82,0.367,0.82,0.821c0,0.452-0.367,0.82-0.82,0.82H4.328z
		 M9.741,36.36c-0.218,0-0.427-0.087-0.582-0.242L7.65,34.6c-0.319-0.322-0.318-0.841,0.004-1.16c0.32-0.319,0.841-0.317,1.16,0.004
		l0.872,0.877l2.537-3.076c0.288-0.348,0.805-0.398,1.154-0.111c0.348,0.288,0.399,0.805,0.111,1.154l-3.114,3.774
		c-0.147,0.179-0.363,0.287-0.594,0.298C9.767,36.36,9.753,36.36,9.741,36.36L9.741,36.36z M35.598,34.475H17.756
		c-0.452,0-0.82-0.367-0.82-0.821c0-0.452,0.367-0.819,0.82-0.819h17.842c0.453,0,0.82,0.367,0.82,0.819
		C36.418,34.107,36.051,34.475,35.598,34.475L35.598,34.475z M9.741,27.583c-0.218,0-0.427-0.087-0.582-0.243L7.65,25.821
		c-0.319-0.321-0.318-0.841,0.004-1.16c0.32-0.319,0.839-0.318,1.16,0.004l0.872,0.877l2.537-3.075
		c0.287-0.35,0.805-0.399,1.154-0.111c0.348,0.288,0.398,0.805,0.11,1.154l-3.113,3.773c-0.148,0.179-0.363,0.287-0.595,0.298
		C9.767,27.581,9.753,27.583,9.741,27.583L9.741,27.583z M35.598,25.695H17.756c-0.452,0-0.82-0.367-0.82-0.821
		c0-0.452,0.367-0.82,0.82-0.82h17.842c0.453,0,0.82,0.367,0.82,0.82C36.418,25.328,36.051,25.695,35.598,25.695L35.598,25.695z
		 M9.741,18.803c-0.218,0-0.427-0.087-0.582-0.242l-1.509-1.52c-0.319-0.32-0.318-0.839,0.004-1.159
		c0.32-0.319,0.839-0.317,1.16,0.003l0.872,0.877l2.537-3.075c0.287-0.35,0.805-0.399,1.154-0.111
		c0.348,0.288,0.398,0.805,0.11,1.154l-3.113,3.774c-0.148,0.178-0.363,0.286-0.595,0.296C9.767,18.803,9.753,18.803,9.741,18.803
		L9.741,18.803z M35.598,16.916H17.756c-0.452,0-0.82-0.367-0.82-0.821c0-0.453,0.367-0.82,0.82-0.82h17.842
		c0.453,0,0.82,0.367,0.82,0.82C36.418,16.549,36.051,16.916,35.598,16.916L35.598,16.916z M9.741,10.024
		c-0.218,0-0.427-0.087-0.582-0.242L7.65,8.264c-0.319-0.322-0.318-0.841,0.004-1.16c0.32-0.319,0.839-0.318,1.16,0.003l0.872,0.877
		l2.537-3.075c0.287-0.348,0.805-0.398,1.154-0.111c0.348,0.288,0.398,0.805,0.11,1.154l-3.113,3.774
		c-0.148,0.179-0.363,0.287-0.595,0.298C9.767,10.024,9.753,10.024,9.741,10.024L9.741,10.024z M35.598,8.137H17.756
		c-0.452,0-0.82-0.367-0.82-0.82s0.367-0.819,0.82-0.819h17.842c0.453,0,0.82,0.367,0.82,0.819S36.051,8.137,35.598,8.137
		L35.598,8.137z M35.598,8.137"/>
</g>
</svg>
