<?xml version="1.0" encoding="iso-8859-1"?>
<!-- Generator: Adobe Illustrator 21.1.0, SVG Export Plug-In . SVG Version: 6.00 Build 0)  -->
<svg version="1.1" id="Layer_1" xmlns="http://www.w3.org/2000/svg" xmlns:xlink="http://www.w3.org/1999/xlink" x="0px" y="0px"
	 viewBox="174.032 361.999 65.937 70" style="enable-background:new 174.032 361.999 65.937 70;" xml:space="preserve">
<g>
	<path style="fill:#E41C0C;" d="M204.399,379.916c0.464,0.231,0.956,0.397,1.464,0.497v4.395h2.274v-4.395
		c0.508-0.1,0.999-0.266,1.463-0.496c1.077,0.552,4.627,2.726,5.532,7.8l2.239-0.399c-0.906-5.081-4.014-7.751-5.852-8.918
		c0.868-1.043,1.36-2.362,1.36-3.751v-9.073l-0.12-0.24c-0.068-0.136-1.715-3.337-5.758-3.337s-5.689,3.201-5.758,3.337l-0.12,0.24
		v9.073c0,1.395,0.481,2.709,1.36,3.751c-1.838,1.167-4.946,3.837-5.852,8.918l2.239,0.399
		C199.777,382.62,203.309,380.468,204.399,379.916z M207,378.254c-0.715,0-1.404-0.209-1.986-0.6
		c-0.196-0.134-0.388-0.294-0.563-0.468c-0.681-0.67-1.056-1.571-1.056-2.536v-1.959l3.052-1.308
		c0.591,0.723,1.777,1.473,4.156,1.654v1.614c0,1.202-0.601,2.322-1.611,2.999C208.404,378.044,207.715,378.254,207,378.254z
		 M203.396,366.157c0.351-0.529,1.46-1.884,3.604-1.884c2.149,0,3.258,1.361,3.604,1.883v4.599c-1.77-0.164-2.376-0.695-2.467-0.93
		v-1.64l-4.741,2.032V366.157z"/>
	<rect x="205.646" y="386.381" style="fill:#E41C0C;" width="2.709" height="2.274"/>
	<path style="fill:#353535;" d="M226.415,419.039c0.869-1.043,1.362-2.364,1.362-3.753v-9.073l-0.12-0.24
		c-0.068-0.136-1.715-3.337-5.758-3.337c-1.096,0-2.145,0.251-3.117,0.747l-0.017,0.009c-1.775,0.944-2.544,2.421-2.625,2.586
		l-0.118,0.238v9.07c0,1.396,0.482,2.71,1.361,3.752c-0.826,0.526-1.909,1.358-2.934,2.577c-1.025-1.219-2.108-2.051-2.934-2.577
		c0.869-1.043,1.361-2.363,1.361-3.752v-9.073l-0.12-0.24c-0.068-0.136-1.715-3.337-5.758-3.337s-5.689,3.201-5.758,3.337
		l-0.12,0.24v9.073c0,1.395,0.482,2.71,1.361,3.752c-0.826,0.526-1.909,1.358-2.934,2.577c-1.025-1.219-2.107-2.051-2.934-2.577
		c0.869-1.043,1.361-2.363,1.361-3.752v-9.073l-0.12-0.24c-0.068-0.136-1.715-3.337-5.758-3.337c-4.042,0-5.69,3.201-5.758,3.337
		l-0.12,0.24v9.073c0,1.396,0.482,2.711,1.362,3.753c-0.685,0.437-1.546,1.082-2.403,1.982c-1.688,1.772-3.7,4.918-3.7,9.842v1.137
		h51.037v-1.137c0-4.924-2.012-8.07-3.7-9.842C227.962,420.121,227.1,419.475,226.415,419.039z M218.296,412.359h5.636v-2.274
		h-5.636v-3.292c0.211-0.315,0.708-0.951,1.528-1.39c0.656-0.333,1.335-0.495,2.076-0.495c2.149,0,3.258,1.361,3.604,1.883v5.785
		v2.709c0,1.202-0.602,2.322-1.611,2.998c-0.589,0.396-1.278,0.606-1.993,0.606c-0.715,0-1.404-0.209-1.986-0.601
		c-0.196-0.134-0.388-0.294-0.562-0.468c-0.681-0.67-1.056-1.571-1.056-2.536L218.296,412.359L218.296,412.359z M203.396,412.359
		h5.636v-2.274h-5.636v-3.293c0.351-0.529,1.46-1.884,3.604-1.884c2.149,0,3.258,1.361,3.604,1.883v5.785v2.709
		c0,1.202-0.601,2.322-1.611,2.998c-0.589,0.396-1.278,0.606-1.993,0.606s-1.404-0.209-1.986-0.601
		c-0.196-0.134-0.388-0.294-0.563-0.468c-0.681-0.67-1.056-1.571-1.056-2.536V412.359z M188.496,412.359h5.636v-2.274h-5.636v-3.295
		c0.344-0.521,1.448-1.881,3.604-1.881c2.149,0,3.258,1.361,3.604,1.883v5.785v2.709c0,1.202-0.602,2.322-1.611,2.998
		c-0.589,0.396-1.278,0.606-1.993,0.606s-1.404-0.209-1.986-0.601c-0.196-0.134-0.388-0.294-0.562-0.468
		c-0.681-0.67-1.056-1.571-1.056-2.536V412.359z M189.499,420.552c0.804,0.4,1.69,0.611,2.601,0.611
		c0.911,0,1.795-0.211,2.598-0.609c0.649,0.335,2.188,1.257,3.498,3.011c-1.033,1.816-1.631,3.88-1.777,6.161h-12.621
		C184.253,423.634,188.31,421.152,189.499,420.552z M198.699,429.726c0.158-2.109,0.762-3.984,1.806-5.587
		c1.38-2.131,3.181-3.215,3.898-3.585c0.803,0.399,1.687,0.609,2.597,0.609c0.911,0,1.797-0.211,2.6-0.611
		c0.712,0.363,2.5,1.432,3.897,3.589c1.042,1.6,1.646,3.475,1.804,5.584L198.699,429.726L198.699,429.726z M217.582,429.726
		c-0.147-2.281-0.744-4.346-1.777-6.161c1.31-1.754,2.848-2.676,3.498-3.011c0.803,0.399,1.687,0.609,2.597,0.609
		c0.912,0,1.798-0.212,2.601-0.611c1.189,0.6,5.246,3.082,5.702,9.174H217.582z"/>
	<polygon style="fill:#E41C0C;" points="220.328,401.063 220.328,398.136 223.037,398.136 223.037,389.09 190.963,389.09 
		190.963,398.136 193.672,398.136 193.672,401.063 195.946,401.063 195.946,398.136 201.582,398.136 201.582,395.863 
		193.237,395.863 193.237,391.364 220.763,391.364 220.763,395.863 212.418,395.863 212.418,398.136 218.054,398.136 
		218.054,401.063 	"/>
	<path style="fill:#353535;" d="M217.377,362.677v15.819h4.064v5.788l8.268-5.788h10.26v-15.819H217.377z M237.695,376.222h-8.703
		l-5.277,3.694v-3.694h-4.064V364.95h18.044V376.222z"/>
	<rect x="222.577" y="367.418" style="fill:#353535;" width="12.19" height="2.274"/>
	<rect x="222.577" y="371.481" style="fill:#353535;" width="12.19" height="2.274"/>
	<path style="fill:#353535;" d="M192.56,384.283v-5.788h4.064v-15.819h-22.592v15.819h10.26L192.56,384.283z M176.305,364.95h18.044
		v11.272h-4.064v3.694l-5.277-3.694h-8.703V364.95z"/>
	<rect x="179.232" y="367.418" style="fill:#353535;" width="12.19" height="2.274"/>
	<rect x="179.232" y="371.481" style="fill:#353535;" width="12.19" height="2.274"/>
	<rect x="203.613" y="395.862" style="fill:#E41C0C;" width="6.773" height="2.274"/>
</g>
</svg>
