<?xml version="1.0" encoding="iso-8859-1"?>
<!-- Generator: Adobe Illustrator 21.1.0, SVG Export Plug-In . SVG Version: 6.00 Build 0)  -->
<svg version="1.1" id="&#x421;&#x43B;&#x43E;&#x439;_1"
	 xmlns="http://www.w3.org/2000/svg" xmlns:xlink="http://www.w3.org/1999/xlink" x="0px" y="0px" viewBox="0 0 49.99 50.01"
	 style="enable-background:new 0 0 49.99 50.01;" xml:space="preserve">
<g>
	<path d="M42.147,29.664h-1.561c-0.431,0-0.781,0.35-0.781,0.781c0,0.431,0.35,0.78,0.781,0.78h1.561c0.431,0,0.78-0.35,0.78-0.78
		C42.927,30.014,42.578,29.664,42.147,29.664L42.147,29.664z M42.147,29.664"/>
	<path style="fill:#353535;" d="M32.781,37.471h-15.61c-1.291,0-2.341,1.051-2.341,2.342c0,1.292,1.05,2.342,2.341,2.342h15.61
		c1.291,0,2.341-1.051,2.341-2.342C35.122,38.521,34.072,37.471,32.781,37.471L32.781,37.471z M32.781,40.593h-15.61
		c-0.431,0-0.781-0.35-0.781-0.781c0-0.43,0.35-0.78,0.781-0.78h15.61c0.43,0,0.78,0.35,0.78,0.78
		C33.561,40.243,33.211,40.593,32.781,40.593L32.781,40.593z M32.781,40.593"/>
	<g>
		<defs>
			<rect id="SVGID_1_" width="49.99" height="50.01"/>
		</defs>
		<clipPath id="SVGID_2_">
			<use xlink:href="#SVGID_1_"  style="overflow:visible;"/>
		</clipPath>
		<path style="clip-path:url(#SVGID_2_);fill:#353535;" d="M8.585,24.981c0.431,0,0.781-0.35,0.781-0.781v-13.27h31.22V24.2
			c0,0.431,0.349,0.781,0.78,0.781c0.431,0,0.781-0.35,0.781-0.781v-13.27c0-0.861-0.7-1.561-1.561-1.561V7.806
			c0-0.861-0.7-1.561-1.561-1.561V4.684c0-0.86-0.7-1.561-1.561-1.561V1.561C37.463,0.7,36.763,0,35.902,0H14.049
			c-0.861,0-1.561,0.7-1.561,1.561v1.561c-0.86,0-1.56,0.7-1.56,1.561v1.561c-0.861,0-1.561,0.7-1.561,1.561v1.561
			c-0.861,0-1.561,0.7-1.561,1.561V24.2C7.805,24.631,8.155,24.981,8.585,24.981L8.585,24.981z M14.049,1.561h21.854v1.561H14.049
			V1.561z M12.488,4.684h24.976v1.561H12.488V4.684z M10.927,7.806h28.097v1.561H10.927V7.806z M10.927,7.806"/>
		<path style="clip-path:url(#SVGID_2_);fill:#353535;" d="M49.94,28.663c-0.017-0.186-0.057-0.366-0.116-0.537l-3.009-13.684
			c-0.191-1.133-1.158-1.952-2.309-1.952h-0.019c-0.431,0-0.781,0.35-0.781,0.781c0,0.431,0.35,0.78,0.781,0.78h0.019
			c0.386,0,0.711,0.277,0.771,0.659c0.002,0.015,0.005,0.031,0.009,0.046l2.595,11.802c-0.089-0.01-0.18-0.016-0.272-0.016H2.341
			c-0.092,0-0.182,0.006-0.272,0.016l2.595-11.802c0.003-0.015,0.006-0.03,0.009-0.046c0.06-0.382,0.385-0.659,0.771-0.659h0.019
			c0.431,0,0.78-0.349,0.78-0.78c0-0.431-0.349-0.781-0.78-0.781H5.445c-1.151,0-2.118,0.819-2.309,1.952L0.127,28.126
			c-0.059,0.171-0.099,0.351-0.116,0.537c-0.009,0.054-0.012,0.107-0.01,0.159c0,0.02-0.001,0.041-0.001,0.061v18.735
			c0,1.292,1.05,2.342,2.341,2.342H47.61c1.291,0,2.342-1.051,2.342-2.342V28.884c0-0.02-0.001-0.041-0.002-0.061
			C49.952,28.77,49.949,28.717,49.94,28.663L49.94,28.663z M48.39,47.619c0,0.431-0.35,0.781-0.781,0.781H2.341
			c-0.43,0-0.78-0.35-0.78-0.781V32.006c0-0.43,0.35-0.78,0.78-0.78h35.122c0.431,0,0.78-0.35,0.78-0.78
			c0-0.431-0.349-0.781-0.78-0.781H2.341c-0.273,0-0.536,0.048-0.78,0.134v-0.915c0-0.006,0-0.011,0.001-0.017l0.065-0.297
			c0.121-0.274,0.395-0.467,0.714-0.467H47.61c0.319,0,0.593,0.193,0.714,0.467l0.065,0.297c0,0.006,0.001,0.011,0.001,0.017v0.915
			c-0.244-0.087-0.507-0.134-0.78-0.134h-2.341c-0.431,0-0.781,0.35-0.781,0.781c0,0.431,0.35,0.78,0.781,0.78h2.341
			c0.43,0,0.78,0.35,0.78,0.78V47.619z M48.39,47.619"/>
	</g>
	<path style="fill:#353535;" d="M22.634,18.736c0.431,0,0.78-0.35,0.78-0.781c0-0.431-0.35-0.78-0.78-0.78H16.39
		c-0.431,0-0.78,0.349-0.78,0.78c0,0.431,0.35,0.781,0.78,0.781H22.634z M22.634,18.736"/>
	<path style="fill:#353535;" d="M28.097,14.832c0-0.431-0.349-0.781-0.78-0.781H16.39c-0.431,0-0.78,0.35-0.78,0.781
		c0,0.431,0.35,0.78,0.78,0.78h10.927C27.748,15.613,28.097,15.263,28.097,14.832L28.097,14.832z M28.097,14.832"/>
	<path style="fill:#353535;" d="M12.488,15.613h0.781c0.431,0,0.78-0.35,0.78-0.78c0-0.431-0.349-0.781-0.78-0.781h-0.781
		c-0.431,0-0.78,0.35-0.78,0.781C11.707,15.263,12.057,15.613,12.488,15.613L12.488,15.613z M12.488,15.613"/>
	<path style="fill:#353535;" d="M12.488,18.736h0.781c0.431,0,0.78-0.35,0.78-0.781c0-0.431-0.349-0.78-0.78-0.78h-0.781
		c-0.431,0-0.78,0.349-0.78,0.78C11.707,18.386,12.057,18.736,12.488,18.736L12.488,18.736z M12.488,18.736"/>
	<path style="fill:#353535;" d="M12.488,23.419c-0.431,0-0.78,0.35-0.78,0.78c0,0.431,0.35,0.781,0.78,0.781h7.025
		c0.431,0,0.78-0.35,0.78-0.781c0-0.431-0.349-0.78-0.78-0.78H12.488z M12.488,23.419"/>
	<path style="fill:#353535;" d="M25.756,21.077c0-0.431-0.349-0.781-0.78-0.781H12.488c-0.431,0-0.78,0.35-0.78,0.781
		c0,0.431,0.35,0.78,0.78,0.78h12.488C25.407,21.858,25.756,21.509,25.756,21.077L25.756,21.077z M25.756,21.077"/>
	<path style="fill:#353535;" d="M37.463,20.296h-3.902c-0.431,0-0.78,0.35-0.78,0.781c0,0.431,0.349,0.78,0.78,0.78h3.902
		c0.431,0,0.781-0.349,0.781-0.78C38.244,20.646,37.894,20.296,37.463,20.296L37.463,20.296z M37.463,20.296"/>
	<path style="fill:#353535;" d="M28.097,24.981h9.366c0.431,0,0.781-0.35,0.781-0.781c0-0.431-0.35-0.78-0.781-0.78h-9.366
		c-0.431,0-0.78,0.35-0.78,0.78C27.317,24.631,27.667,24.981,28.097,24.981L28.097,24.981z M28.097,24.981"/>
</g>
</svg>
