<?xml version="1.0" encoding="iso-8859-1"?>
<!-- Generator: Adobe Illustrator 21.1.0, SVG Export Plug-In . SVG Version: 6.00 Build 0)  -->
<svg version="1.1" id="&#x421;&#x43B;&#x43E;&#x439;_1"
	 xmlns="http://www.w3.org/2000/svg" xmlns:xlink="http://www.w3.org/1999/xlink" x="0px" y="0px" viewBox="0 0 70 67.871"
	 style="enable-background:new 0 0 70 67.871;" xml:space="preserve">
<g>
	<g>
		<g>
			<defs>
				<rect id="SVGID_1_" x="0.088" y="0.307" width="69.912" height="67.565"/>
			</defs>
			<clipPath id="SVGID_2_">
				<use xlink:href="#SVGID_1_"  style="overflow:visible;"/>
			</clipPath>
			<path style="clip-path:url(#SVGID_2_);fill:#353535;" d="M69.661,56.289l-0.876-2.106v-7.465c0-0.018,0.001-0.035,0.001-0.053
				c0-0.607-0.327-1.156-0.835-1.453c-0.126-0.073-0.262-0.131-0.407-0.17l-21.046-6.286c-0.314-0.094-0.649-0.094-0.963,0
				l-21.086,6.298c-0.712,0.212-1.2,0.868-1.2,1.612c0,0.744,0.488,1.399,1.2,1.612l7.366,2.199v14.432
				c0,0.801,0.564,1.491,1.348,1.649c4.141,0.838,8.465,1.262,12.854,1.262c4.388,0,8.713-0.424,12.854-1.262
				c0.785-0.158,1.35-0.848,1.35-1.648v-9.408c0-0.929-0.754-1.682-1.683-1.682c-0.929,0-1.682,0.753-1.682,1.682v8.014
				c-3.509,0.623-7.148,0.94-10.838,0.94c-3.69,0-7.329-0.316-10.838-0.94V51.483l10.356,3.093c0.314,0.095,0.649,0.095,0.963,0
				l18.921-5.651v5.259l-0.876,2.105c-0.356,0.858,0.05,1.842,0.908,2.2c0.568,0.236,1.19,0.138,1.651-0.203
				c0.461,0.341,1.083,0.439,1.651,0.203C69.61,58.132,70.017,57.148,69.661,56.289z M46.017,51.207l-11.998-3.583
				c-0.027-0.009-0.053-0.018-0.081-0.025l-3.127-0.935l15.207-4.541l15.207,4.541L46.017,51.207z"/>
			<path style="clip-path:url(#SVGID_2_);fill:#353535;" d="M26.064,58.936H10.689V10.491h2.737c-0.115-0.563-0.19-1.14-0.217-1.727
				c-0.025-0.556,0.009-1.103,0.09-1.637H9.007c-0.929,0-1.683,0.753-1.683,1.682v50.128H6.179c-1.503,0-2.726-1.223-2.726-2.726
				V36.396h0.318c0.929,0,1.683-0.754,1.683-1.682c0-0.929-0.754-1.683-1.683-1.683H1.77c-0.928,0-1.682,0.754-1.682,1.683v21.497
				c0,3.358,2.733,6.091,6.091,6.091h19.886c0.929,0,1.683-0.754,1.683-1.683C27.747,59.689,26.994,58.936,26.064,58.936z"/>
			<path style="clip-path:url(#SVGID_2_);fill:#353535;" d="M52.182,7.126h-19.23c0.105,0.534,0.173,1.081,0.198,1.637
				c0.026,0.587-0.013,1.164-0.105,1.727h17.454v24.003c0,0.929,0.754,1.683,1.683,1.683c0.93,0,1.682-0.754,1.682-1.683V8.808
				C53.865,7.879,53.112,7.126,52.182,7.126z"/>
		</g>
	</g>
	<g>
		<defs>
			<rect id="SVGID_3_" width="69.912" height="67.565"/>
		</defs>
		<clipPath id="SVGID_4_">
			<use xlink:href="#SVGID_3_"  style="overflow:visible;"/>
		</clipPath>
		<path style="clip-path:url(#SVGID_4_);fill:#E41C0C;" d="M40.825,31.247c0-0.928-0.754-1.682-1.682-1.682H21.872
			c-0.928,0-1.682,0.754-1.682,1.682c0,0.929,0.754,1.683,1.682,1.683h17.271C40.071,32.93,40.825,32.177,40.825,31.247z"/>
		<path style="clip-path:url(#SVGID_4_);fill:#E41C0C;" d="M21.872,36.01c-0.928,0-1.682,0.754-1.682,1.682
			c0,0.929,0.754,1.683,1.682,1.683h4.726c0.929,0,1.683-0.754,1.683-1.683c0-0.929-0.754-1.682-1.683-1.682H21.872z"/>
		<path style="clip-path:url(#SVGID_4_);fill:#E41C0C;" d="M28.064,18.284c-0.928,0-1.682,0.754-1.682,1.683v1.832l-2.614-1.155
			c-0.446-0.197-0.955-0.191-1.396,0.016l-2.285,1.073v-4.859c0.978,0.379,2.039,0.586,3.148,0.586c4.252,0,7.803-3.057,8.574-7.089
			c0.009-0.276,0.046-0.546,0.11-0.809c0.006-0.04,0.009-0.081,0.016-0.12c-0.007-0.073-0.018-0.145-0.021-0.219
			c-0.003-0.067,0.003-0.133,0.003-0.199c-0.022-0.158-0.04-0.318-0.047-0.48c-0.008-0.178-0.001-0.354,0.015-0.527
			c-0.017-0.137-0.031-0.275-0.037-0.415c-0.003-0.072,0.002-0.143,0.003-0.215c-0.035-0.187-0.065-0.375-0.078-0.568h-0.017
			c-0.873-3.899-4.363-6.822-8.521-6.822c-4.159,0-7.648,2.923-8.522,6.822h-0.003c-0.014,0.312-0.033,0.622-0.057,0.931
			c-0.004,0.406-0.017,0.809-0.037,1.211c0.005,0.194,0.011,0.388,0.012,0.58c0.024,0.179,0.048,0.358,0.072,0.536
			c0.007,0.179,0.009,0.358,0.012,0.536c0.329,1.485,1.031,2.83,2.009,3.927v9.843c0,0.576,0.295,1.111,0.781,1.42
			c0.487,0.309,1.097,0.347,1.618,0.103l3.989-1.873l4.275,1.889c0.521,0.231,1.122,0.182,1.599-0.128
			c0.477-0.311,0.764-0.841,0.764-1.41v-4.416C29.747,19.037,28.994,18.284,28.064,18.284z M17.869,8.73c0-0.044,0-0.087,0.001-0.13
			c0.002-0.029,0.003-0.056,0.003-0.085c0.114-2.859,2.476-5.151,5.363-5.151c2.889,0,5.253,2.295,5.363,5.158
			c0,0.024,0.001,0.048,0.002,0.072c0.001,0.046,0.002,0.091,0.002,0.138c0,2.959-2.408,5.367-5.367,5.367
			C20.276,14.097,17.869,11.688,17.869,8.73z"/>
		<path style="clip-path:url(#SVGID_4_);fill:#E41C0C;" d="M39.095,18.647h5.086c0.929,0,1.683-0.754,1.683-1.682
			c0-0.929-0.754-1.683-1.683-1.683h-5.086c-0.929,0-1.683,0.754-1.683,1.683C37.412,17.893,38.166,18.647,39.095,18.647z"/>
		<path style="clip-path:url(#SVGID_4_);fill:#E41C0C;" d="M45.969,23.048c0-0.928-0.753-1.682-1.682-1.682H39.2
			c-0.929,0-1.682,0.754-1.682,1.682c0,0.93,0.754,1.683,1.682,1.683h5.086C45.216,24.731,45.969,23.977,45.969,23.048z"/>
	</g>
</g>
</svg>
