<?xml version="1.0" encoding="iso-8859-1"?>
<!-- Generator: Adobe Illustrator 21.1.0, SVG Export Plug-In . SVG Version: 6.00 Build 0)  -->
<svg version="1.1" id="&#x421;&#x43B;&#x43E;&#x439;_1"
	 xmlns="http://www.w3.org/2000/svg" xmlns:xlink="http://www.w3.org/1999/xlink" x="0px" y="0px" viewBox="0 0 50 50"
	 style="enable-background:new 0 0 50 50;" xml:space="preserve">
<g>
	<path style="fill:#353535;" d="M49.527,2.407l-5.471-2.343c-0.24-0.103-0.515-0.08-0.736,0.065
		c-0.217,0.145-0.351,0.389-0.351,0.652v22.656H28.909v-5.471c0-2.151-1.816-3.906-3.968-3.906h-4.627v-2.342h3.845
		c2.151,0,3.968-1.751,3.968-3.906v-7.03C28.127,0.351,27.714,0,27.284,0h-3.125c-0.431,0-0.721,0.351-0.721,0.782V7.03H19.62
		c0.4-0.782,0.633-1.487,0.633-2.342C20.252,2.102,18.151,0,15.565,0c-2.587,0-4.689,2.102-4.689,4.689
		c0,1.011,0.324,1.945,0.873,2.712l-4.357,4.353c-0.736,0.736-1.145,1.717-1.145,2.762c0,1.042,0.408,2.025,1.145,2.762l2.869,2.869
		c0.148,0.145,0.347,0.229,0.553,0.229c0.21,0,0.438-0.084,0.584-0.229l1.103-1.072v11.395c0,0.432,0.286,0.782,0.721,0.782h0.08
		c-0.496,0.782-0.801,1.461-0.801,2.342c0,0.886,0.305,1.564,0.801,2.347h-3.148c-2.151,0-3.906,1.751-3.906,3.906
		c0,0.881,0.306,1.56,0.806,2.342H3.906C1.751,42.187,0,43.942,0,46.094C0,48.249,1.751,50,3.906,50H25.78
		c0.298,0,0.568-0.168,0.698-0.431c0.134-0.264,0.107-0.58-0.072-0.816c-1.099-1.465-1.152-3.441-0.194-5.001h5.821
		c0.294,0,0.564-0.168,0.698-0.432c0.133-0.267,0.103-0.583-0.076-0.82c-1.096-1.465-1.152-3.437-0.195-5.001h5.821
		c0.298,0,0.568-0.164,0.698-0.431c0.134-0.264,0.106-0.58-0.072-0.816c-1.099-1.465-1.156-3.437-0.198-5.001h5.825
		c0.293,0,0.564-0.168,0.697-0.431c0.13-0.268,0.104-0.584-0.076-0.82c-1.171-1.564-1.171-3.746,0-5.311
		c0.18-0.236,0.206-0.557,0.076-0.82c-0.133-0.263-0.404-0.431-0.697-0.431V5.985l4.993-2.144C49.813,3.72,50,3.437,50,3.124
		S49.813,2.529,49.527,2.407L49.527,2.407z M15.565,1.564c1.724,0,3.124,1.399,3.124,3.124c0,1.724-1.4,3.124-3.124,3.124
		c-1.725,0-3.125-1.4-3.125-3.124C12.44,2.964,13.84,1.564,15.565,1.564L15.565,1.564z M12.501,15.427l-0.912-0.912l0.912-0.911
		V15.427z M12.669,11.166l-2.797,2.796c-0.148,0.148-0.228,0.347-0.228,0.553c0,0.206,0.08,0.404,0.228,0.554l2.183,2.182
		l-1.24,1.236l-2.316-2.315c-0.442-0.443-0.687-1.03-0.687-1.656c0-0.625,0.244-1.213,0.687-1.659l4.353-4.353
		c0.767,0.546,1.701,0.874,2.713,0.874c0.953,0,1.842,0,2.586-0.782h6.008c0.432,0,0.844-0.352,0.844-0.782V1.564h1.56v6.248
		c0,1.293-1.11,2.342-2.403,2.342h-4.688c-0.432,0-0.722,0.352-0.722,0.782v3.906c0,0.432,0.29,0.782,0.722,0.782h5.47
		c1.289,0,2.403,1.053,2.403,2.342v5.471h-2.342v-4.689c0-0.431-0.412-0.782-0.844-0.782h-7.03c-0.435,0-0.721,0.352-0.721,0.782
		v10.937h-2.347V11.719c0-0.316-0.217-0.599-0.511-0.721C13.256,10.876,12.89,10.945,12.669,11.166L12.669,11.166z M19.551,29.686
		h-1.584V19.532h5.471v3.906h-0.782c-2.151,0-3.906,1.751-3.906,3.906C18.749,28.225,19.055,28.909,19.551,29.686L19.551,29.686z
		 M3.906,48.44c-1.293,0-2.342-1.054-2.342-2.347s1.049-2.342,2.342-2.342h20.531c-0.209,0.782-0.343,0.782-0.415,1.56H5.471v1.564
		h18.555c0.068,0.782,0.202,0.782,0.415,1.564H3.906z M25.78,42.187H10.154c-1.289,0-2.342-1.049-2.342-2.342
		s1.053-2.347,2.342-2.347H30.69c-0.214,0.782-0.348,0.782-0.416,1.565H17.967v1.564h12.307c0.068,0.777,0.202,0.777,0.416,1.56
		H25.78z M36.522,34.375c0.073,0.782,0.206,0.782,0.416,1.564H16.408c-1.293,0-2.347-1.053-2.347-2.347
		c0-1.289,1.054-2.342,2.347-2.342h20.531c-0.21,0.782-0.347,0.782-0.416,1.565h-6.836v1.56H36.522z M42.775,28.127
		c0.068,0.782,0.202,0.782,0.416,1.56H22.656c-1.293,0-2.342-1.049-2.342-2.342c0-1.293,1.049-2.342,2.342-2.342h20.536
		c-0.214,0.777-0.348,0.777-0.416,1.56H30.468v1.565H42.775z M44.534,4.284V1.965l2.7,1.159L44.534,4.284z M44.534,4.284"/>
	<rect x="3.124" y="5.471" style="fill:#353535;" width="1.565" height="1.561"/>
	<rect x="6.248" y="5.471" style="fill:#353535;" width="1.565" height="1.561"/>
	<rect y="5.471" style="fill:#353535;" width="1.564" height="1.561"/>
	<path style="fill:#353535;" d="M40.032,4.711c-1.644-0.412-2.926-1.689-3.338-3.338c-0.084-0.347-0.396-0.591-0.755-0.591
		s-0.672,0.244-0.76,0.591c-0.411,1.648-1.689,2.926-3.338,3.338c-0.347,0.088-0.591,0.4-0.591,0.76
		c0,0.358,0.244,0.671,0.591,0.755c1.648,0.412,2.927,1.693,3.338,3.338c0.088,0.351,0.401,0.591,0.76,0.591s0.671-0.24,0.755-0.591
		c0.412-1.645,1.694-2.926,3.342-3.338c0.348-0.084,0.592-0.396,0.592-0.755C40.628,5.111,40.384,4.799,40.032,4.711L40.032,4.711z
		 M35.939,7.404c-0.492-0.782-1.152-1.445-1.939-1.934c0.786-0.492,1.446-1.152,1.939-1.938c0.492,0.786,1.151,1.446,1.934,1.938
		C37.091,5.959,36.431,6.622,35.939,7.404L35.939,7.404z M35.939,7.404"/>
	<rect x="18.749" y="32.815" style="fill:#353535;" width="9.377" height="1.561"/>
	<rect x="14.843" y="39.063" style="fill:#353535;" width="1.565" height="1.565"/>
	<rect x="11.719" y="39.063" style="fill:#353535;" width="1.564" height="1.565"/>
	<rect x="27.344" y="26.562" style="fill:#353535;" width="1.565" height="1.565"/>
	<rect x="24.22" y="26.562" style="fill:#353535;" width="1.561" height="1.565"/>
</g>
</svg>
