<?xml version="1.0" encoding="iso-8859-1"?>
<!-- Generator: Adobe Illustrator 21.1.0, SVG Export Plug-In . SVG Version: 6.00 Build 0)  -->
<svg version="1.1" id="&#x421;&#x43B;&#x43E;&#x439;_1"
	 xmlns="http://www.w3.org/2000/svg" xmlns:xlink="http://www.w3.org/1999/xlink" x="0px" y="0px" viewBox="0 0 70 64.642"
	 style="enable-background:new 0 0 70 64.642;" xml:space="preserve">
<g>
	<path style="fill:#E31D0C;" d="M35.007,22.408c4.311,0,7.817-3.506,7.817-7.817c0-4.311-3.506-7.817-7.817-7.817
		s-7.817,3.506-7.817,7.817C27.19,18.902,30.696,22.408,35.007,22.408L35.007,22.408z M35.007,8.962
		c3.103,0,5.629,2.526,5.629,5.629c0,3.103-2.526,5.629-5.629,5.629s-5.629-2.526-5.629-5.629
		C29.378,11.488,31.904,8.962,35.007,8.962L35.007,8.962z M35.007,8.962"/>
	<path style="fill:#E31D0C;" d="M41.836,23.513l-0.71-0.01l-6.119,13.264l-6.119-13.264l-0.71,0.009
		c-2.729,0.036-7.894,1.641-7.894,7.454v8.817H49.73v-8.817C49.73,25.154,44.566,23.549,41.836,23.513L41.836,23.513z
		 M22.472,37.595v-6.629c0-0.504,0.147-4.764,5.038-5.227l5.469,11.856H22.472z M47.542,37.595H37.035l5.468-11.855
		c4.892,0.465,5.039,4.722,5.039,5.226V37.595z M47.542,37.595"/>
	<g>
		<defs>
			<rect id="SVGID_1_" width="70" height="64.642"/>
		</defs>
		<clipPath id="SVGID_2_">
			<use xlink:href="#SVGID_1_"  style="overflow:visible;"/>
		</clipPath>
		<path style="clip-path:url(#SVGID_2_);fill:#E31D0C;" d="M30.894,23.759l4.114,9.105l4.114-9.105H30.894z M30.894,23.759"/>
		<path style="clip-path:url(#SVGID_2_);fill:#353535;" d="M67.536,0.062H2.478C1.112,0.062,0,1.173,0,2.538v48.394
			c0,1.365,1.112,2.476,2.478,2.476h22.962L24.369,60.9h-4.991v3.57h31.256V60.9h-4.989l-1.072-7.491h22.962
			c1.367,0,2.479-1.111,2.479-2.476V2.538C70.014,1.173,68.902,0.062,67.536,0.062L67.536,0.062z M26.579,60.9l1.072-7.491h14.713
			l1.072,7.491H26.579z M67.826,50.933c0,0.156-0.133,0.288-0.29,0.288H2.478c-0.157,0-0.29-0.133-0.29-0.288v-4.437h65.638V50.933z
			 M67.826,44.307H2.188V2.538c0-0.156,0.134-0.289,0.291-0.289h65.057c0.157,0,0.29,0.133,0.29,0.289V44.307z M67.826,44.307"/>
	</g>
</g>
</svg>
