<?xml version="1.0" encoding="iso-8859-1"?>
<!-- Generator: Adobe Illustrator 21.1.0, SVG Export Plug-In . SVG Version: 6.00 Build 0)  -->
<svg version="1.1" id="&#x421;&#x43B;&#x43E;&#x439;_1"
	 xmlns="http://www.w3.org/2000/svg" xmlns:xlink="http://www.w3.org/1999/xlink" x="0px" y="0px" viewBox="0 0 61.155 70"
	 style="enable-background:new 0 0 61.155 70;" xml:space="preserve">
<g>
	<path d="M13.961,33.658c-0.825-0.825-1.922-1.279-3.089-1.279c-0.76,0-1.489,0.193-2.134,0.556V18.389
		c0-0.739-0.185-1.436-0.511-2.046c0.196-0.059,0.401-0.089,0.61-0.089c1.177,0,2.135,0.958,2.135,2.135v10.74
		c0,0.617,0.5,1.117,1.117,1.117c0.617,0,1.117-0.5,1.117-1.117v-10.74c0-2.409-1.96-4.369-4.369-4.369
		c-0.796,0-1.565,0.215-2.236,0.616c-0.654-0.39-1.417-0.616-2.233-0.616C1.96,14.02,0,15.98,0,18.39l0.018,20.5
		c0.001,0.936,0.347,2.257,0.806,3.072c0.007,0.014,0.015,0.027,0.023,0.04l12.867,20.837c0.268,0.487,0.508,1.414,0.508,1.96v4.085
		c0,0.617,0.5,1.117,1.117,1.117c0.617,0,1.117-0.5,1.117-1.117v-4.085c0-0.935-0.346-2.257-0.804-3.073
		c-0.008-0.013-0.015-0.026-0.023-0.039L2.761,40.85c-0.267-0.487-0.508-1.415-0.509-1.961L2.234,18.389
		c0-1.177,0.958-2.135,2.135-2.135c1.177,0,2.134,0.958,2.134,2.135v18.358c0,0.026,0.002,0.052,0.004,0.078
		c0.02,1.092,0.444,2.179,1.276,3.011l10.005,10.005c0.436,0.436,1.144,0.436,1.579,0c0.436-0.436,0.436-1.144,0-1.58L9.363,38.257
		c-0.404-0.404-0.625-0.94-0.625-1.51c0-0.57,0.222-1.106,0.625-1.509c0.832-0.833,2.186-0.833,3.019,0l12.311,12.311
		c1.374,1.374,2.535,4.177,2.535,6.12v15.214c0,0.617,0.5,1.117,1.117,1.117c0.617,0,1.117-0.5,1.117-1.117V53.669
		c0-2.529-1.401-5.912-3.19-7.7L13.961,33.658z M13.961,33.658"/>
	<path d="M56.787,14.021c-0.815,0-1.579,0.225-2.233,0.615c-0.67-0.4-1.438-0.615-2.236-0.615c-2.408,0-4.368,1.96-4.368,4.368
		v10.74c0,0.617,0.5,1.117,1.117,1.117c0.617,0,1.117-0.5,1.117-1.117v-10.74c0-1.177,0.958-2.134,2.134-2.134
		c0.209,0,0.414,0.031,0.61,0.089c-0.325,0.611-0.51,1.307-0.51,2.046v14.546c-0.645-0.362-1.375-0.556-2.135-0.556
		c-1.167,0-2.264,0.454-3.089,1.28L34.884,45.97c-1.789,1.788-3.19,5.17-3.19,7.699v15.214c0,0.617,0.5,1.117,1.117,1.117
		c0.617,0,1.117-0.5,1.117-1.117V53.669c0-1.943,1.161-4.746,2.535-6.12l12.311-12.311c0.832-0.832,2.186-0.832,3.019,0
		c0.403,0.404,0.625,0.94,0.625,1.51c0,0.57-0.222,1.106-0.625,1.51L41.788,48.262c-0.436,0.436-0.436,1.144,0,1.58
		c0.436,0.435,1.144,0.435,1.579,0l10.005-10.005c0.832-0.832,1.257-1.919,1.275-3.011c0.002-0.026,0.004-0.052,0.004-0.078V18.389
		c0-1.177,0.957-2.135,2.134-2.135c1.177,0,2.134,0.958,2.134,2.134l-0.018,20.501c0,0.547-0.241,1.474-0.509,1.961L45.527,61.686
		c-0.008,0.013-0.016,0.026-0.023,0.039c-0.459,0.816-0.805,2.137-0.805,3.073v4.085c0,0.617,0.5,1.117,1.117,1.117
		c0.617,0,1.117-0.5,1.117-1.117v-4.085c0-0.546,0.241-1.473,0.508-1.96l12.867-20.837c0.009-0.013,0.016-0.026,0.024-0.039
		c0.458-0.816,0.804-2.136,0.805-3.072l0.018-20.501C61.155,15.98,59.196,14.021,56.787,14.021L56.787,14.021z M56.787,14.021"/>
	<path style="fill:#D94D50;" d="M16.355,27.926c1.27,0,2.642-0.475,4.094-0.977c1.632-0.566,3.32-1.15,5.021-1.15
		c0.886,0,1.667,0.189,2.319,0.563c0.535,0.307,1.217,0.121,1.524-0.414c0.307-0.535,0.121-1.218-0.414-1.524
		c-0.995-0.57-2.148-0.859-3.429-0.859c-2.076,0-4.029,0.676-5.752,1.272c-0.796,0.276-1.563,0.542-2.246,0.702V4.255
		c0.946-0.168,1.941-0.513,2.977-0.871c1.632-0.565,3.32-1.15,5.021-1.15c2.785,0,3.773,1.919,3.991,2.444v16.853
		c0,0.617,0.5,1.117,1.117,1.117c0.617,0,1.117-0.5,1.117-1.117V4.678c0.216-0.522,1.201-2.443,3.991-2.443
		c1.701,0,3.389,0.585,5.021,1.15c1.036,0.359,2.03,0.703,2.977,0.871v21.284c-0.683-0.16-1.451-0.425-2.246-0.701
		c-1.723-0.597-3.675-1.273-5.752-1.273c-1.281,0-2.434,0.289-3.429,0.859c-0.535,0.306-0.721,0.989-0.415,1.524
		c0.307,0.535,0.99,0.72,1.525,0.414c0.652-0.373,1.433-0.563,2.319-0.563c1.701,0,3.389,0.585,5.021,1.15
		c1.452,0.502,2.824,0.977,4.094,0.977c0.617,0,1.117-0.5,1.117-1.117V3.245c0-0.618-0.5-1.117-1.117-1.117
		c-0.894,0-2.094-0.416-3.363-0.855C39.715,0.676,37.763,0,35.686,0c-2.47,0-4.121,1.103-5.108,2.275C29.591,1.103,27.941,0,25.47,0
		c-2.076,0-4.029,0.676-5.752,1.273c-1.27,0.439-2.469,0.855-3.363,0.855c-0.617,0-1.117,0.499-1.117,1.117v23.564
		C15.238,27.427,15.738,27.926,16.355,27.926L16.355,27.926z M16.355,27.926"/>
	<path style="fill:#D94D50;" d="M35.686,30.227c1.701,0,3.389,0.585,5.021,1.15c1.452,0.502,2.824,0.978,4.094,0.978
		c0.617,0,1.117-0.5,1.117-1.117c0-0.617-0.5-1.117-1.117-1.117c-0.894,0-2.094-0.415-3.363-0.855
		c-1.723-0.596-3.675-1.273-5.752-1.273c-2.191,0-3.645,0.847-4.546,1.681h-1.124c-0.901-0.835-2.355-1.681-4.546-1.681
		c-2.076,0-4.029,0.676-5.752,1.273c-1.27,0.44-2.469,0.855-3.363,0.855c-0.617,0-1.117,0.5-1.117,1.117
		c0,0.617,0.5,1.117,1.117,1.117c1.27,0,2.642-0.475,4.094-0.978c1.632-0.565,3.32-1.15,5.021-1.15c1.364,0,2.459,0.444,3.257,1.318
		c0.211,0.231,0.511,0.364,0.825,0.364h2.052c0.313,0,0.613-0.132,0.825-0.364C33.227,30.671,34.323,30.227,35.686,30.227
		L35.686,30.227z M35.686,30.227"/>
</g>
</svg>
