<?xml version="1.0" encoding="iso-8859-1"?>
<!-- Generator: Adobe Illustrator 21.1.0, SVG Export Plug-In . SVG Version: 6.00 Build 0)  -->
<svg version="1.1" id="Capa_1" xmlns="http://www.w3.org/2000/svg" xmlns:xlink="http://www.w3.org/1999/xlink" x="0px" y="0px"
	 viewBox="174.74 362 64.521 70" style="enable-background:new 174.74 362 64.521 70;" xml:space="preserve">
<g>
	<path d="M230.614,370.646c-5.576-5.576-12.989-8.646-20.874-8.646c-7.885,0-15.298,3.071-20.874,8.646
		c-5.518,5.518-8.583,12.836-8.645,20.63l-5.372,10.744c-0.24,0.48-0.07,1.064,0.39,1.34l4.981,2.988v15.857
		c0,0.567,0.46,1.027,1.027,1.027h9.932v7.74c0,0.567,0.46,1.027,1.027,1.027s1.027-0.46,1.027-1.027v-8.767
		c0-0.567-0.46-1.027-1.027-1.027h-9.932v-15.411c0-0.361-0.189-0.695-0.499-0.881l-4.664-2.798l5.054-10.108
		c0.071-0.143,0.108-0.3,0.108-0.459c0-15.145,12.321-27.466,27.466-27.466c15.145,0,27.466,12.321,27.466,27.466
		c0,8.51-3.851,16.402-10.564,21.65c-0.249,0.195-0.395,0.493-0.395,0.809v16.992c0,0.567,0.46,1.027,1.027,1.027
		s1.027-0.46,1.027-1.027v-16.497c6.972-5.639,10.959-13.976,10.959-22.955C239.261,383.635,236.19,376.222,230.614,370.646z"/>
	<path d="M224.194,399.072c0.294,0.034,0.593,0.052,0.889,0.052c4.192,0,7.603-3.411,7.603-7.603c0-2.34-1.061-4.499-2.841-5.925
		c-0.006-0.005-0.012-0.011-0.018-0.016c-0.092-0.074-0.186-0.145-0.282-0.214c-0.004-0.003-0.007-0.005-0.01-0.008
		c0.631-1.125,0.96-2.385,0.96-3.7c0-4.192-3.411-7.603-7.603-7.603c-1.308,0-2.579,0.335-3.702,0.961
		c-0.971-3.102-3.887-5.345-7.257-5.345c-2.541,0-4.912,1.291-6.311,3.365c-1.423-0.77-3.01-1.173-4.648-1.173
		c-4.999,0-9.154,3.746-9.727,8.64c-3.39,1.627-5.547,5.025-5.547,8.826c0,5.401,4.394,9.795,9.795,9.795
		c1.933,0,3.788-0.558,5.391-1.619l4.566,0.481c0.565,0.059,1.07-0.35,1.129-0.914c0.059-0.564-0.35-1.07-0.914-1.129l-2.703-0.285
		c0.417-0.492,0.789-1.021,1.1-1.582c0.275-0.496,0.096-1.122-0.4-1.397c-0.496-0.275-1.122-0.096-1.397,0.4
		c-0.545,0.983-1.315,1.852-2.227,2.515c-0.009,0.006-0.018,0.011-0.026,0.017c-1.323,0.954-2.886,1.459-4.519,1.459
		c-4.268,0-7.74-3.472-7.74-7.74c0-2.658,1.335-5.065,3.499-6.476c0.16,1.303,0.579,2.565,1.237,3.702
		c0.302,0.523,1.013,0.671,1.5,0.312c0.416-0.306,0.537-0.894,0.279-1.341c-0.677-1.17-1.035-2.508-1.035-3.869
		c0-0.071,0.007-0.341,0.011-0.408c0.213-4.112,3.608-7.332,7.729-7.332c1.591,0,3.121,0.481,4.424,1.391
		c0.514,0.359,1.249,0.163,1.517-0.403c0.914-1.932,2.883-3.18,5.018-3.18c2.731,0,5.051,2.017,5.475,4.67
		c-1.338,1.399-2.119,3.281-2.119,5.262c0,1.504,0.438,2.958,1.268,4.205c0.334,0.503,1.053,0.606,1.516,0.218
		c0.396-0.332,0.481-0.926,0.195-1.356c-0.605-0.909-0.924-1.97-0.924-3.067c0-1.596,0.695-3.105,1.865-4.148
		c1.008-0.896,2.334-1.4,3.683-1.4c3.059,0,5.548,2.489,5.548,5.548c0,0.973-0.248,1.905-0.721,2.734
		c-0.839-0.31-1.732-0.474-2.635-0.474c-0.567,0-1.027,0.46-1.027,1.027c0,0.567,0.46,1.027,1.027,1.027
		c1.146,0,2.267,0.356,3.203,1.018c1.463,1.032,2.345,2.706,2.345,4.53c0,3.059-2.489,5.548-5.548,5.548
		c-0.561,0-1.125-0.086-1.66-0.254c-2.251-0.707-3.888-2.813-3.888-5.294c0-0.567-0.46-1.027-1.027-1.027s-1.027,0.46-1.027,1.027
		c0,3.062,1.821,5.705,4.435,6.909l1.995,7.98l-1.717,1.145l-4.959-9.918c-0.157-0.314-0.463-0.526-0.811-0.562l-5.92-0.623
		c-0.564-0.059-1.07,0.35-1.129,0.914s0.35,1.07,0.914,1.129l5.361,0.564l5.228,10.455c0.272,0.544,0.982,0.734,1.489,0.395
		l3.288-2.192c0.361-0.241,0.532-0.683,0.427-1.104L224.194,399.072z"/>
	<path style="fill:#D94D50;" d="M199.082,388.052l3.1,3.1c0.396,0.396,1.057,0.396,1.453,0l2.71-2.71l2.655,2.655
		c0.396,0.396,1.057,0.396,1.453,0l3.1-3.1c0.401-0.401,0.401-1.052,0-1.453l-2.655-2.655l2.6-2.6c0.401-0.401,0.401-1.052,0-1.453
		l-3.1-3.1c-0.401-0.401-1.052-0.401-1.453,0l-2.6,2.6l-2.655-2.655c-0.401-0.401-1.052-0.401-1.453,0l-3.1,3.1
		c-0.401,0.401-0.401,1.052,0,1.453l2.655,2.655l-2.71,2.71C198.681,387,198.681,387.65,199.082,388.052z M209.672,378.915
		l1.647,1.647l-1.874,1.874l-1.647-1.647L209.672,378.915z M202.963,378.86l8.41,8.41l-1.647,1.647l-8.41-8.41L202.963,378.86z
		 M203.245,385.341l1.647,1.647l-1.984,1.984l-1.647-1.647L203.245,385.341z"/>
</g>
</svg>
