<?xml version="1.0" encoding="iso-8859-1"?>
<!-- Generator: Adobe Illustrator 21.1.0, SVG Export Plug-In . SVG Version: 6.00 Build 0)  -->
<svg version="1.1" id="Layer_1" xmlns="http://www.w3.org/2000/svg" xmlns:xlink="http://www.w3.org/1999/xlink" x="0px" y="0px"
	 viewBox="22.001 219.104 370 355.792" style="enable-background:new 22.001 219.104 370 355.792;" xml:space="preserve">
<g>
	<path style="fill:#FFFFFF;" d="M208.728,363.219c16.628,0,30.155-13.527,30.155-30.155c0-16.627-13.528-30.154-30.155-30.154
		c-16.628,0-30.155,13.527-30.155,30.154C178.572,349.692,192.1,363.219,208.728,363.219z M208.728,314.625
		c10.168,0,18.44,8.272,18.44,18.439c0,10.168-8.272,18.44-18.44,18.44s-18.44-8.272-18.44-18.44
		C190.287,322.897,198.56,314.625,208.728,314.625z"/>
	<path style="fill:#FFFFFF;" d="M322.721,479.353c3.236,0,5.858-2.623,5.858-5.858v-86.482c0-1.56-0.622-3.055-1.728-4.155
		l-56.287-55.937v-12.349c0-20.146-5.698-39.734-16.478-56.646c-10.488-16.454-25.283-29.673-42.786-38.227
		c-1.623-0.794-3.52-0.794-5.144,0c-17.502,8.554-32.297,21.773-42.784,38.227c-10.78,16.912-16.478,36.5-16.478,56.646v12.349
		l-56.289,55.937c-1.107,1.1-1.728,2.595-1.728,4.155v86.482c0,3.235,2.623,5.858,5.858,5.858h52.159v0.231
		c0,11.404,9.278,20.683,20.683,20.683h8.695c-3.455,7.225-5.255,15.119-5.255,23.281c0,22.734,14.351,43.228,35.709,50.995
		c0.647,0.235,1.324,0.353,2.002,0.353c0.677,0,1.355-0.117,2.002-0.353c21.359-7.768,35.71-28.261,35.71-50.995
		c0-8.161-1.799-16.056-5.255-23.281h8.696c11.405,0,20.683-9.278,20.683-20.683v-0.231H322.721z M158.608,314.572
		c0-35.178,19.13-66.737,50.119-83.043c30.99,16.306,50.12,47.865,50.12,83.043v86.424c0,3.235,2.622,5.858,5.858,5.858
		c3.236,0,5.858-2.623,5.858-5.858v-57.558l46.3,46.012v78.188h-46.3v-10.615v-36.111c0-3.235-2.622-5.858-5.858-5.858
		c-3.236,0-5.858,2.623-5.858,5.858v30.254h-44.263v-15.557c0-3.235-2.622-5.858-5.858-5.858c-3.235,0-5.858,2.623-5.858,5.858
		v15.557h-44.262V329.359L158.608,314.572L158.608,314.572z M100.591,467.638V389.45l46.302-46.012v113.585v10.615L100.591,467.638
		L100.591,467.638z M158.608,479.584v-6.089V462.88h44.262v25.672h-35.294C162.631,488.552,158.608,484.529,158.608,479.584z
		 M208.728,562.747c-15.634-6.605-25.997-22.093-25.997-39.199c0-8.23,2.331-16.12,6.769-22.987h13.37v10.822
		c0,3.235,2.623,5.858,5.858,5.858c3.236,0,5.858-2.623,5.858-5.858v-10.822h13.371c4.437,6.866,6.768,14.756,6.768,22.987
		C234.724,540.654,224.363,556.142,208.728,562.747z M258.848,479.584c0,4.945-4.023,8.967-8.967,8.967h-35.294V462.88h44.263
		L258.848,479.584L258.848,479.584z"/>
	<path style="fill:#FFFFFF;" d="M342.532,509.821c-6.573,0-13.067,1.312-19.082,3.823c-3.283-10.423-13.036-18.002-24.529-18.002
		c-14.176,0-25.71,11.534-25.71,25.711c0,3.235,2.622,5.857,5.858,5.857s5.858-2.623,5.858-5.857
		c0-7.717,6.278-13.996,13.995-13.996s13.996,6.278,13.996,13.996c0,3.307-1.174,6.515-3.304,9.034
		c-2.09,2.47-1.782,6.165,0.687,8.255c1.1,0.931,2.444,1.386,3.781,1.386c1.664,0,3.315-0.704,4.474-2.074
		c2.837-3.351,4.745-7.366,5.586-11.631c5.594-3.126,11.939-4.788,18.392-4.788c20.817,0,37.753,16.936,37.753,37.753
		c0,3.235,2.622,5.858,5.858,5.858c3.236,0,5.858-2.623,5.858-5.858C392,532.013,369.808,509.821,342.532,509.821z"/>
	<path style="fill:#FFFFFF;" d="M134.178,534.6c-2.347,0-4.627,0.283-6.817,0.801c0.837-1.432,1.068-3.206,0.477-4.894
		c-4.542-12.971-16.838-21.687-30.6-21.687c-10.148,0-19.716,4.787-25.83,12.843c-3.251-0.858-6.643-1.311-10.112-1.311
		c-21.667,0-39.295,17.627-39.295,39.295c0,3.235,2.623,5.858,5.858,5.858s5.858-2.623,5.858-5.858
		c0-15.208,12.373-27.58,27.58-27.58c9.542,0,18.277,4.829,23.366,12.918c1.722,2.737,5.338,3.562,8.077,1.839
		c2.738-1.723,3.561-5.339,1.838-8.077c-3.131-4.977-7.234-9.081-11.979-12.145c3.853-3.844,9.112-6.067,14.639-6.067
		c8.79,0,16.644,5.563,19.542,13.843c0.622,1.774,2.013,3.055,3.667,3.611c-9.422,4.957-15.865,14.841-15.865,26.206
		c0,3.235,2.623,5.857,5.858,5.857s5.858-2.623,5.858-5.857c0-9.859,8.022-17.88,17.881-17.88c9.86,0,17.882,8.022,17.882,17.88
		c0,3.235,2.623,5.857,5.858,5.857c3.235,0,5.858-2.623,5.858-5.857C163.774,547.876,150.497,534.6,134.178,534.6z"/>
</g>
</svg>
