<?xml version="1.0" encoding="iso-8859-1"?>
<!-- Generator: Adobe Illustrator 21.1.0, SVG Export Plug-In . SVG Version: 6.00 Build 0)  -->
<svg version="1.1" id="&#x421;&#x43B;&#x43E;&#x439;_1"
	 xmlns="http://www.w3.org/2000/svg" xmlns:xlink="http://www.w3.org/1999/xlink" x="0px" y="0px" viewBox="0 0 35 35"
	 style="enable-background:new 0 0 35 35;" xml:space="preserve">
<g>
	<path style="fill:#DA4D51;" d="M34.777,10.028l-9.806-9.806C24.829,0.08,24.635,0,24.434,0H10.566c-0.202,0-0.395,0.08-0.538,0.223
		l-9.806,9.806C0.08,10.171,0,10.365,0,10.566v13.867c0,0.42,0.341,0.761,0.761,0.761s0.761-0.341,0.761-0.761V10.881l9.36-9.36
		h13.237l9.36,9.36v13.237l-9.36,9.36H10.881l-4.68-4.68c-0.297-0.297-0.778-0.297-1.076,0c-0.297,0.297-0.297,0.779,0,1.076
		l4.903,4.903C10.171,34.92,10.364,35,10.566,35h13.867c0.202,0,0.395-0.08,0.538-0.223l9.806-9.806
		C34.92,24.829,35,24.635,35,24.434V10.566C35,10.365,34.92,10.171,34.777,10.028L34.777,10.028z M34.777,10.028"/>
	<path d="M23.369,18.971c0.42,0,0.761-0.341,0.761-0.761v-7.772c0-1.382-1.125-2.507-2.507-2.507h-0.035
		c-0.363,0-0.707,0.078-1.018,0.217c-0.195-1.19-1.23-2.1-2.473-2.1h-0.035c-1.223,0-2.279,0.875-2.601,2.115
		c-0.32-0.149-0.677-0.233-1.052-0.233h-0.036c-1.382,0-2.506,1.125-2.506,2.507v0.088c-0.303-0.13-0.635-0.202-0.985-0.202h-0.035
		c-1.382,0-2.507,1.124-2.507,2.506v10.657c0,3.013,2.452,5.464,5.464,5.464h2.9c2.295,0,4.57-0.759,6.409-2.141l5.237-3.989
		c0.554-0.345,0.945-0.881,1.105-1.515c0.164-0.649,0.065-1.323-0.279-1.899l-0.018-0.029c-0.708-1.187-2.251-1.576-3.437-0.867
		c-0.016,0.01-0.032,0.02-0.047,0.031l-2.448,1.718c-0.99-0.242-3.596-0.595-5.699,1.629c-0.289,0.305-0.275,0.786,0.03,1.075
		c0.147,0.139,0.335,0.208,0.523,0.208c0.202,0,0.403-0.08,0.553-0.238c1.895-2.003,4.365-1.167,4.48-1.127
		c0.26,0.094,0.536,0.037,0.736-0.125l2.675-1.877c0.463-0.261,1.055-0.107,1.33,0.354l0.017,0.029
		c0.135,0.226,0.174,0.491,0.109,0.746c-0.064,0.255-0.224,0.47-0.45,0.605c-0.025,0.014-0.049,0.03-0.071,0.048l-5.264,4.009
		c-1.573,1.182-3.523,1.833-5.491,1.833h-2.899c-2.174,0-3.943-1.769-3.943-3.943V12.83c0-0.543,0.442-0.985,0.985-0.985h0.036
		c0.543,0,0.985,0.442,0.985,0.985v8.481c0,0.42,0.341,0.761,0.761,0.761c0.42,0,0.761-0.34,0.761-0.761V10.438
		c0-0.543,0.442-0.985,0.985-0.985h0.035c0.543,0,0.985,0.442,0.985,0.985v8.481c0,0.42,0.34,0.761,0.761,0.761
		c0.42,0,0.761-0.341,0.761-0.761V8.625c0.125-0.606,0.61-1.055,1.147-1.055h0.035c0.543,0,0.985,0.442,0.985,0.985v10.364
		c0,0.42,0.34,0.761,0.761,0.761c0.42,0,0.761-0.341,0.761-0.761v-8.481c0-0.543,0.442-0.985,0.985-0.985h0.036
		c0.543,0,0.985,0.442,0.985,0.985v7.772C22.609,18.63,22.949,18.971,23.369,18.971L23.369,18.971z M23.369,18.971"/>
</g>
</svg>
