<?xml version="1.0" encoding="iso-8859-1"?>
<!-- Generator: Adobe Illustrator 21.1.0, SVG Export Plug-In . SVG Version: 6.00 Build 0)  -->
<svg version="1.1" id="&#x421;&#x43B;&#x43E;&#x439;_1"
	 xmlns="http://www.w3.org/2000/svg" xmlns:xlink="http://www.w3.org/1999/xlink" x="0px" y="0px" viewBox="0 0 70 70"
	 style="enable-background:new 0 0 70 70;" xml:space="preserve">
<g>
	<path style="fill:#D94D50;" d="M16.332,32.664h37.336C62.675,32.664,70,25.339,70,16.332C70,7.325,62.675,0,53.668,0H16.332
		C7.325,0,0,7.325,0,16.332C0,25.339,7.325,32.664,16.332,32.664L16.332,32.664z M16.332,2.336h37.336
		c7.719,0,13.996,6.277,13.996,13.996c0,7.719-6.277,14.003-13.996,14.003H16.332c-7.719,0-13.996-6.284-13.996-14.003
		C2.336,8.613,8.613,2.336,16.332,2.336L16.332,2.336z M16.332,2.336"/>
	<path d="M59.968,38.601c-0.012-0.006-0.023-0.006-0.034-0.012c-1.932-0.809-4.051-1.253-6.266-1.253H16.332
		c-2.215,0-4.334,0.443-6.266,1.253c-0.01,0.006-0.022,0.006-0.034,0.012C4.147,41.072,0,46.894,0,53.668
		C0,62.675,7.325,70,16.332,70h37.336c2.215,0,4.334-0.451,6.266-1.253c0.01-0.006,0.022-0.012,0.034-0.012
		C65.852,66.264,70,60.441,70,53.668C70,46.894,65.852,41.072,59.968,38.601L59.968,38.601z M66.366,47.806
		c0.825,1.784,1.298,3.765,1.298,5.863c0,2.09-0.473,4.073-1.298,5.861c-0.582,0.068-1.031,0.541-1.031,1.14
		c0,0.182,0.051,0.353,0.131,0.506c-0.49,0.77-1.054,1.482-1.681,2.136c-0.204-0.188-0.478-0.314-0.786-0.314
		c-0.643,0-1.168,0.525-1.168,1.168c0,0.257,0.104,0.478,0.239,0.672c-2.341,1.766-5.246,2.825-8.401,2.825
		c0-0.643-0.525-1.161-1.168-1.161s-1.168,0.518-1.168,1.161h-4.665c0-0.643-0.524-1.161-1.168-1.161
		c-0.643,0-1.168,0.518-1.168,1.161h-4.665c0-0.643-0.524-1.161-1.168-1.161c-0.643,0-1.161,0.518-1.161,1.161h-4.673
		c0-0.643-0.518-1.161-1.161-1.161c-0.645,0-1.168,0.518-1.168,1.161H25.67c0-0.643-0.525-1.161-1.168-1.161
		c-0.645,0-1.168,0.518-1.168,1.161h-4.665c0-0.643-0.525-1.161-1.168-1.161c-0.643,0-1.168,0.518-1.168,1.161
		c-3.156,0-6.061-1.059-8.401-2.825c0.136-0.194,0.239-0.416,0.239-0.672c0-0.643-0.525-1.168-1.168-1.168
		c-0.308,0-0.582,0.125-0.786,0.314c-2.399-2.513-3.879-5.908-3.879-9.644c0-2.097,0.473-4.079,1.298-5.863
		c0.582-0.068,1.031-0.541,1.031-1.139c0-0.188-0.051-0.353-0.131-0.508c0.49-0.769,1.054-1.486,1.681-2.141
		c0.204,0.192,0.478,0.312,0.786,0.312c0.643,0,1.168-0.518,1.168-1.161c0-0.257-0.104-0.48-0.239-0.672
		c2.341-1.766,5.246-2.832,8.401-2.832c0,0.645,0.525,1.168,1.168,1.168c0.643,0,1.168-0.524,1.168-1.168h4.665
		c0,0.645,0.524,1.168,1.168,1.168c0.643,0,1.168-0.524,1.168-1.168h4.665c0,0.645,0.524,1.168,1.168,1.168
		c0.643,0,1.161-0.524,1.161-1.168h4.673c0,0.645,0.518,1.168,1.161,1.168c0.645,0,1.168-0.524,1.168-1.168h4.665
		c0,0.645,0.525,1.168,1.168,1.168c0.645,0,1.168-0.524,1.168-1.168h4.665c0,0.645,0.525,1.168,1.168,1.168s1.168-0.524,1.168-1.168
		c3.156,0,6.061,1.066,8.401,2.832c-0.136,0.192-0.239,0.416-0.239,0.672c0,0.643,0.525,1.161,1.168,1.161
		c0.308,0,0.582-0.12,0.786-0.312c0.627,0.655,1.186,1.372,1.676,2.141c-0.074,0.155-0.125,0.319-0.125,0.508
		C65.335,47.265,65.784,47.737,66.366,47.806L66.366,47.806z M66.366,47.806"/>
	<path style="fill:#D94D50;" d="M53.668,27.999c6.431,0,11.667-5.235,11.667-11.667S60.099,4.665,53.668,4.665
		S42.001,9.901,42.001,16.332S47.237,27.999,53.668,27.999L53.668,27.999z M53.668,7.001c5.144,0,9.33,4.187,9.33,9.33
		c0,5.149-4.187,9.338-9.33,9.338c-5.149,0-9.338-4.188-9.338-9.338C44.33,11.188,48.519,7.001,53.668,7.001L53.668,7.001z
		 M53.668,7.001"/>
	<path d="M13.091,64.867c0.21,0.274,0.529,0.468,0.911,0.468c0.198,0,0.375-0.063,0.541-0.155c0.586,0.092,1.178,0.155,1.788,0.155
		c1.282,0,2.513-0.217,3.669-0.598c0.2,0.347,0.564,0.598,0.996,0.598c0.645,0,1.168-0.525,1.168-1.168
		c0-0.131-0.034-0.251-0.074-0.37c2.291-1.299,4.091-3.356,5.076-5.822c0.21,0.222,0.502,0.359,0.831,0.359
		c0.645,0,1.168-0.524,1.168-1.168c0-0.643-0.524-1.168-1.168-1.168c-0.085,0-0.165,0.035-0.245,0.053
		c0.16-0.77,0.245-1.568,0.245-2.381c0-0.821-0.085-1.613-0.245-2.387c0.08,0.023,0.16,0.051,0.245,0.051
		c0.645,0,1.168-0.524,1.168-1.168c0-0.643-0.524-1.161-1.168-1.161c-0.33,0-0.621,0.136-0.831,0.353
		c-0.388-0.957-0.894-1.852-1.504-2.666c0-0.006,0.006-0.018,0.006-0.023c0-0.58-0.433-1.037-0.986-1.127
		c-0.764-0.786-1.635-1.458-2.593-2.005c0.041-0.12,0.074-0.235,0.074-0.365c0-0.645-0.524-1.168-1.168-1.168
		c-0.432,0-0.796,0.245-0.996,0.598c-1.156-0.382-2.387-0.598-3.669-0.598c-0.61,0-1.202,0.063-1.788,0.147
		c-0.166-0.085-0.343-0.147-0.541-0.147c-0.382,0-0.701,0.188-0.911,0.467c-4.859,1.413-8.426,5.89-8.426,11.2
		C4.665,58.972,8.232,63.455,13.091,64.867L13.091,64.867z M16.332,44.33c5.149,0,9.338,4.188,9.338,9.338
		c0,5.144-4.188,9.33-9.338,9.33c-5.144,0-9.33-4.187-9.33-9.33C7.001,48.519,11.188,44.33,16.332,44.33L16.332,44.33z
		 M16.332,44.33"/>
	<path d="M29.167,43.17c0,0.643-0.524,1.161-1.168,1.161c-0.643,0-1.168-0.518-1.168-1.161c0-0.65,0.525-1.168,1.168-1.168
		C28.643,42.001,29.167,42.519,29.167,43.17L29.167,43.17z M29.167,43.17"/>
	<path d="M36.168,43.17c0,0.643-0.525,1.161-1.168,1.161s-1.168-0.518-1.168-1.161c0-0.65,0.525-1.168,1.168-1.168
		S36.168,42.519,36.168,43.17L36.168,43.17z M36.168,43.17"/>
	<path d="M43.17,43.17c0,0.643-0.525,1.161-1.168,1.161c-0.645,0-1.168-0.518-1.168-1.161c0-0.65,0.524-1.168,1.168-1.168
		C42.645,42.001,43.17,42.519,43.17,43.17L43.17,43.17z M43.17,43.17"/>
	<path d="M50.164,43.17c0,0.643-0.518,1.161-1.161,1.161c-0.65,0-1.168-0.518-1.168-1.161c0-0.65,0.518-1.168,1.168-1.168
		C49.646,42.001,50.164,42.519,50.164,43.17L50.164,43.17z M50.164,43.17"/>
	<path d="M57.165,43.17c0,0.643-0.518,1.161-1.168,1.161c-0.643,0-1.161-0.518-1.161-1.161c0-0.65,0.518-1.168,1.161-1.168
		C56.647,42.001,57.165,42.519,57.165,43.17L57.165,43.17z M57.165,43.17"/>
	<path d="M4.665,53.668c0,0.643-0.518,1.168-1.168,1.168c-0.643,0-1.161-0.525-1.161-1.168c0-0.645,0.518-1.168,1.161-1.168
		C4.147,52.5,4.665,53.024,4.665,53.668L4.665,53.668z M4.665,53.668"/>
	<path d="M32.664,46.667c0,0.643-0.518,1.168-1.161,1.168c-0.65,0-1.168-0.525-1.168-1.168c0-0.643,0.518-1.168,1.168-1.168
		C32.146,45.499,32.664,46.024,32.664,46.667L32.664,46.667z M32.664,46.667"/>
	<path d="M39.665,46.667c0,0.643-0.518,1.168-1.168,1.168c-0.643,0-1.161-0.525-1.161-1.168c0-0.643,0.518-1.168,1.161-1.168
		C39.147,45.499,39.665,46.024,39.665,46.667L39.665,46.667z M39.665,46.667"/>
	<path d="M32.664,53.668c0,0.643-0.518,1.168-1.161,1.168c-0.65,0-1.168-0.525-1.168-1.168c0-0.645,0.518-1.168,1.168-1.168
		C32.146,52.5,32.664,53.024,32.664,53.668L32.664,53.668z M32.664,53.668"/>
	<path d="M39.665,53.668c0,0.643-0.518,1.168-1.168,1.168c-0.643,0-1.161-0.525-1.161-1.168c0-0.645,0.518-1.168,1.161-1.168
		C39.147,52.5,39.665,53.024,39.665,53.668L39.665,53.668z M39.665,53.668"/>
	<path d="M36.168,50.164c0,0.65-0.525,1.168-1.168,1.168s-1.168-0.518-1.168-1.168c0-0.643,0.525-1.161,1.168-1.161
		S36.168,49.521,36.168,50.164L36.168,50.164z M36.168,50.164"/>
	<path d="M43.17,50.164c0,0.65-0.525,1.168-1.168,1.168c-0.645,0-1.168-0.518-1.168-1.168c0-0.643,0.524-1.161,1.168-1.161
		C42.645,49.003,43.17,49.521,43.17,50.164L43.17,50.164z M43.17,50.164"/>
	<path d="M36.168,57.165c0,0.645-0.525,1.168-1.168,1.168s-1.168-0.524-1.168-1.168c0-0.643,0.525-1.168,1.168-1.168
		S36.168,56.522,36.168,57.165L36.168,57.165z M36.168,57.165"/>
	<path d="M43.17,57.165c0,0.645-0.525,1.168-1.168,1.168c-0.645,0-1.168-0.524-1.168-1.168c0-0.643,0.524-1.168,1.168-1.168
		C42.645,55.997,43.17,56.522,43.17,57.165L43.17,57.165z M43.17,57.165"/>
	<path d="M46.667,46.667c0,0.643-0.524,1.168-1.168,1.168c-0.643,0-1.168-0.525-1.168-1.168c0-0.643,0.525-1.168,1.168-1.168
		C46.143,45.499,46.667,46.024,46.667,46.667L46.667,46.667z M46.667,46.667"/>
	<path d="M53.668,46.667c0,0.643-0.525,1.168-1.168,1.168s-1.168-0.525-1.168-1.168c0-0.643,0.525-1.168,1.168-1.168
		S53.668,46.024,53.668,46.667L53.668,46.667z M53.668,46.667"/>
	<path d="M46.667,53.668c0,0.643-0.524,1.168-1.168,1.168c-0.643,0-1.168-0.525-1.168-1.168c0-0.645,0.525-1.168,1.168-1.168
		C46.143,52.5,46.667,53.024,46.667,53.668L46.667,53.668z M46.667,53.668"/>
	<path d="M53.668,53.668c0,0.643-0.525,1.168-1.168,1.168s-1.168-0.525-1.168-1.168c0-0.645,0.525-1.168,1.168-1.168
		S53.668,53.024,53.668,53.668L53.668,53.668z M53.668,53.668"/>
	<path d="M50.164,50.164c0,0.65-0.518,1.168-1.161,1.168c-0.65,0-1.168-0.518-1.168-1.168c0-0.643,0.518-1.161,1.168-1.161
		C49.646,49.003,50.164,49.521,50.164,50.164L50.164,50.164z M50.164,50.164"/>
	<path d="M57.165,50.164c0,0.65-0.518,1.168-1.168,1.168c-0.643,0-1.161-0.518-1.161-1.168c0-0.643,0.518-1.161,1.161-1.161
		C56.647,49.003,57.165,49.521,57.165,50.164L57.165,50.164z M57.165,50.164"/>
	<path d="M50.164,57.165c0,0.645-0.518,1.168-1.161,1.168c-0.65,0-1.168-0.524-1.168-1.168c0-0.643,0.518-1.168,1.168-1.168
		C49.646,55.997,50.164,56.522,50.164,57.165L50.164,57.165z M50.164,57.165"/>
	<path d="M57.165,57.165c0,0.645-0.518,1.168-1.168,1.168c-0.643,0-1.161-0.524-1.161-1.168c0-0.643,0.518-1.168,1.161-1.168
		C56.647,55.997,57.165,56.522,57.165,57.165L57.165,57.165z M57.165,57.165"/>
	<path d="M60.67,46.667c0,0.643-0.525,1.168-1.168,1.168c-0.645,0-1.168-0.525-1.168-1.168c0-0.643,0.524-1.168,1.168-1.168
		C60.145,45.499,60.67,46.024,60.67,46.667L60.67,46.667z M60.67,46.667"/>
	<path d="M60.67,53.668c0,0.643-0.525,1.168-1.168,1.168c-0.645,0-1.168-0.525-1.168-1.168c0-0.645,0.524-1.168,1.168-1.168
		C60.145,52.5,60.67,53.024,60.67,53.668L60.67,53.668z M60.67,53.668"/>
	<path d="M67.664,53.668c0,0.643-0.518,1.168-1.161,1.168c-0.65,0-1.168-0.525-1.168-1.168c0-0.645,0.518-1.168,1.168-1.168
		C67.146,52.5,67.664,53.024,67.664,53.668L67.664,53.668z M67.664,53.668"/>
	<path d="M32.664,60.67c0,0.643-0.518,1.161-1.161,1.161c-0.65,0-1.168-0.518-1.168-1.161c0-0.65,0.518-1.168,1.168-1.168
		C32.146,59.501,32.664,60.019,32.664,60.67L32.664,60.67z M32.664,60.67"/>
	<path d="M39.665,60.67c0,0.643-0.518,1.161-1.168,1.161c-0.643,0-1.161-0.518-1.161-1.161c0-0.65,0.518-1.168,1.161-1.168
		C39.147,59.501,39.665,60.019,39.665,60.67L39.665,60.67z M39.665,60.67"/>
	<path d="M46.667,60.67c0,0.643-0.524,1.161-1.168,1.161c-0.643,0-1.168-0.518-1.168-1.161c0-0.65,0.525-1.168,1.168-1.168
		C46.143,59.501,46.667,60.019,46.667,60.67L46.667,60.67z M46.667,60.67"/>
	<path d="M53.668,60.67c0,0.643-0.525,1.161-1.168,1.161s-1.168-0.518-1.168-1.161c0-0.65,0.525-1.168,1.168-1.168
		S53.668,60.019,53.668,60.67L53.668,60.67z M53.668,60.67"/>
	<path d="M60.67,60.67c0,0.643-0.525,1.161-1.168,1.161c-0.645,0-1.168-0.518-1.168-1.161c0-0.65,0.524-1.168,1.168-1.168
		C60.145,59.501,60.67,60.019,60.67,60.67L60.67,60.67z M60.67,60.67"/>
	<path d="M64.167,50.164c0,0.65-0.524,1.168-1.168,1.168c-0.643,0-1.168-0.518-1.168-1.168c0-0.643,0.525-1.161,1.168-1.161
		C63.643,49.003,64.167,49.521,64.167,50.164L64.167,50.164z M64.167,50.164"/>
	<path d="M64.167,57.165c0,0.645-0.524,1.168-1.168,1.168c-0.643,0-1.168-0.524-1.168-1.168c0-0.643,0.525-1.168,1.168-1.168
		C63.643,55.997,64.167,56.522,64.167,57.165L64.167,57.165z M64.167,57.165"/>
	<path d="M29.167,64.167c0,0.643-0.524,1.168-1.168,1.168c-0.643,0-1.168-0.525-1.168-1.168c0-0.643,0.525-1.168,1.168-1.168
		C28.643,62.999,29.167,63.524,29.167,64.167L29.167,64.167z M29.167,64.167"/>
	<path d="M36.168,64.167c0,0.643-0.525,1.168-1.168,1.168s-1.168-0.525-1.168-1.168c0-0.643,0.525-1.168,1.168-1.168
		S36.168,63.524,36.168,64.167L36.168,64.167z M36.168,64.167"/>
	<path d="M43.17,64.167c0,0.643-0.525,1.168-1.168,1.168c-0.645,0-1.168-0.525-1.168-1.168c0-0.643,0.524-1.168,1.168-1.168
		C42.645,62.999,43.17,63.524,43.17,64.167L43.17,64.167z M43.17,64.167"/>
	<path d="M50.164,64.167c0,0.643-0.518,1.168-1.161,1.168c-0.65,0-1.168-0.525-1.168-1.168c0-0.643,0.518-1.168,1.168-1.168
		C49.646,62.999,50.164,63.524,50.164,64.167L50.164,64.167z M50.164,64.167"/>
	<path d="M57.165,64.167c0,0.643-0.518,1.168-1.168,1.168c-0.643,0-1.161-0.525-1.161-1.168c0-0.643,0.518-1.168,1.161-1.168
		C56.647,62.999,57.165,63.524,57.165,64.167L57.165,64.167z M57.165,64.167"/>
</g>
</svg>
