<?xml version="1.0" encoding="iso-8859-1"?>
<!-- Generator: Adobe Illustrator 21.1.0, SVG Export Plug-In . SVG Version: 6.00 Build 0)  -->
<svg version="1.1" id="Capa_1" xmlns="http://www.w3.org/2000/svg" xmlns:xlink="http://www.w3.org/1999/xlink" x="0px" y="0px"
	 viewBox="182 372.806 50 48.387" style="enable-background:new 182 372.806 50 48.387;" xml:space="preserve">
<g>
	<rect x="201.355" y="376.032" style="fill:#A6A6A6;" width="11.29" height="1.613"/>
	<rect x="201.355" y="379.258" style="fill:#A6A6A6;" width="11.29" height="1.613"/>
	<rect x="201.355" y="382.484" style="fill:#A6A6A6;" width="11.29" height="1.613"/>
	<rect x="201.355" y="385.71" style="fill:#A6A6A6;" width="11.29" height="1.613"/>
	<path style="fill:#A6A6A6;" d="M227.161,409.968v-3.29c0-0.446-0.36-0.806-0.806-0.806h-18.548v-3.226h4.839
		c0.306,0,0.585-0.173,0.722-0.446l3.226-6.452c0.125-0.25,0.112-0.547-0.035-0.785c-0.148-0.238-0.406-0.382-0.686-0.382h-8.065
		v-4.032h7.258c0.446,0,0.806-0.361,0.806-0.806v-8.871h2.419v2.419c0,0.446,0.36,0.806,0.806,0.806h9.677
		c0.446,0,0.806-0.36,0.806-0.806v-6.452c0-0.446-0.36-0.806-0.806-0.806h-9.677c-0.446,0-0.806,0.361-0.806,0.806v2.419h-2.419
		v-5.645c0-0.446-0.36-0.806-0.806-0.806h-16.129c-0.446,0-0.806,0.36-0.806,0.806v4.505l-1.849-1.849l-1.14,1.14l1.849,1.849
		h-7.731v1.613h7.731l-1.849,1.849l1.14,1.14l1.849-1.849v7.731c0,0.446,0.36,0.806,0.806,0.806h7.258v4.032h-4.839
		c-0.306,0-0.585,0.173-0.722,0.446l-3.226,6.452c-0.125,0.25-0.112,0.547,0.035,0.785c0.148,0.238,0.406,0.382,0.686,0.382h8.065
		v3.226h-18.548c-0.446,0-0.806,0.36-0.806,0.806v3.29c-2.731,0.394-4.839,2.743-4.839,5.581c0,3.112,2.533,5.645,5.645,5.645
		c3.112,0,5.645-2.533,5.645-5.645c0-2.838-2.108-5.187-4.839-5.581v-2.484h11.29v2.484c-2.731,0.394-4.839,2.743-4.839,5.581
		c0,3.112,2.533,5.645,5.645,5.645s5.645-2.533,5.645-5.645c0-2.838-2.108-5.187-4.839-5.581v-2.484h11.29v2.484
		c-2.731,0.394-4.839,2.743-4.839,5.581c0,3.112,2.533,5.645,5.645,5.645c3.112,0,5.645-2.533,5.645-5.645
		c0-2.838-2.108-5.187-4.839-5.581v-2.484h11.29v2.484c-2.731,0.394-4.839,2.743-4.839,5.581c0,3.112,2.533,5.645,5.645,5.645
		c3.112,0,5.645-2.533,5.645-5.645C232,412.71,229.892,410.361,227.161,409.968z M219.903,377.645h8.065v4.839h-8.065V377.645z
		 M199.742,374.419h14.516v14.516h-14.516V374.419z M201.853,396.194h12.713l-2.419,4.839h-12.713L201.853,396.194z
		 M191.677,415.548c0,2.223-1.809,4.032-4.032,4.032s-4.032-1.809-4.032-4.032s1.809-4.032,4.032-4.032
		S191.677,413.325,191.677,415.548z M204.581,415.548c0,2.223-1.809,4.032-4.032,4.032s-4.032-1.809-4.032-4.032
		s1.809-4.032,4.032-4.032S204.581,413.325,204.581,415.548z M217.484,415.548c0,2.223-1.809,4.032-4.032,4.032
		s-4.032-1.809-4.032-4.032s1.809-4.032,4.032-4.032S217.484,413.325,217.484,415.548z M226.355,419.581
		c-2.223,0-4.032-1.809-4.032-4.032s1.809-4.032,4.032-4.032s4.032,1.809,4.032,4.032S228.578,419.581,226.355,419.581z"/>
	<rect x="223.129" y="385.71" style="fill:#A6A6A6;" width="1.613" height="1.613"/>
	<rect x="223.129" y="388.935" style="fill:#A6A6A6;" width="1.613" height="1.613"/>
	<rect x="223.129" y="392.161" style="fill:#A6A6A6;" width="1.613" height="1.613"/>
	<rect x="223.129" y="395.387" style="fill:#A6A6A6;" width="1.613" height="1.613"/>
	<rect x="223.129" y="398.613" style="fill:#A6A6A6;" width="1.613" height="1.613"/>
	<rect x="219.903" y="398.613" style="fill:#A6A6A6;" width="1.613" height="1.613"/>
	<rect x="216.677" y="398.613" style="fill:#A6A6A6;" width="1.613" height="1.613"/>
	<rect x="186.032" y="379.258" style="fill:#A6A6A6;" width="1.613" height="1.613"/>
	<rect x="182.806" y="379.258" style="fill:#A6A6A6;" width="1.613" height="1.613"/>
	<rect x="202.968" y="397.806" style="fill:#A6A6A6;" width="8.065" height="1.613"/>
</g>
</svg>
