<?xml version="1.0" encoding="iso-8859-1"?>
<!-- Generator: Adobe Illustrator 21.1.0, SVG Export Plug-In . SVG Version: 6.00 Build 0)  -->
<svg version="1.1" id="Layer_1" xmlns="http://www.w3.org/2000/svg" xmlns:xlink="http://www.w3.org/1999/xlink" x="0px" y="0px"
	 viewBox="177 369.054 60 64.286" style="enable-background:new 177 369.054 60 64.286;" xml:space="preserve">
<g transform="translate(1 1)">
	<path style="fill:#A6A6A6;" d="M223.143,384.125h-19.286c-1.179,0-2.143-0.964-2.143-2.143v-7.5c0-1.179,0.964-2.143,2.143-2.143
		h3.214v-1.071c0-1.821,1.393-3.214,3.214-3.214h6.429c1.821,0,3.214,1.393,3.214,3.214v1.071h3.214
		c1.179,0,2.143,0.964,2.143,2.143v7.5C225.286,383.161,224.321,384.125,223.143,384.125z M203.857,374.482v7.5h19.286v-7.5h-4.286
		c-0.643,0-1.071-0.429-1.071-1.071v-2.143c0-0.643-0.429-1.071-1.071-1.071h-6.429c-0.643,0-1.071,0.429-1.071,1.071v2.143
		c0,0.643-0.429,1.071-1.071,1.071H203.857z"/>
	<path style="fill:#A6A6A6;" d="M234.929,432.34h-42.857c-0.643,0-1.071-0.429-1.071-1.071v-54.643c0-0.643,0.429-1.071,1.071-1.071
		h10.714c0.643,0,1.071,0.429,1.071,1.071v5.357h19.286v-5.357c0-0.643,0.429-1.071,1.071-1.071h10.714
		c0.643,0,1.071,0.429,1.071,1.071v54.643C236,431.911,235.571,432.34,234.929,432.34z M193.143,430.197h40.714v-52.5h-8.571v4.286
		c0,1.179-0.964,2.143-2.143,2.143h-19.286c-1.179,0-2.143-0.964-2.143-2.143v-4.286h-8.571V430.197z"/>
	<path style="fill:#A6A6A6;" d="M221,426.982c-0.107,0-0.321,0-0.429-0.107c-0.429-0.107-0.643-0.536-0.643-0.964v-8.571
		c0-0.643,0.429-1.071,1.071-1.071h8.571c0.429,0,0.857,0.214,0.964,0.643c0.214,0.429,0.107,0.857-0.214,1.179l-8.571,8.571
		C221.536,426.875,221.321,426.982,221,426.982z M222.071,418.411v4.929l4.929-4.929H222.071z"/>
	<path style="fill:#A6A6A6;" d="M221,426.982h-23.571c-0.643,0-1.071-0.429-1.071-1.071v-45c0-0.643,0.429-1.071,1.071-1.071h5.357
		c0.643,0,1.071,0.429,1.071,1.071v1.071h19.286v-1.071c0-0.643,0.429-1.071,1.071-1.071h5.357c0.643,0,1.071,0.429,1.071,1.071
		v36.429c0,0.643-0.429,1.071-1.071,1.071h-7.5v7.5C222.071,426.554,221.643,426.982,221,426.982z M198.5,424.84h21.429v-7.5
		c0-0.643,0.429-1.071,1.071-1.071h7.5v-34.286h-3.214c0,1.179-0.964,2.143-2.143,2.143h-19.286c-1.179,0-2.143-0.964-2.143-2.143
		H198.5V424.84z"/>
	<path style="fill:#A6A6A6;" d="M209.214,395.911h-6.429c-0.643,0-1.071-0.429-1.071-1.071v-6.429c0-0.643,0.429-1.071,1.071-1.071
		h6.429c0.643,0,1.071,0.429,1.071,1.071v6.429C210.286,395.482,209.857,395.911,209.214,395.911z M203.857,393.768h4.286v-4.286
		h-4.286V393.768z"/>
	<path style="fill:#A6A6A6;" d="M209.214,407.697h-6.429c-0.643,0-1.071-0.429-1.071-1.071v-6.429c0-0.643,0.429-1.071,1.071-1.071
		h6.429c0.643,0,1.071,0.429,1.071,1.071v6.429C210.286,407.268,209.857,407.697,209.214,407.697z M203.857,405.554h4.286v-4.286
		h-4.286V405.554z"/>
	<path style="fill:#A6A6A6;" d="M209.214,419.482h-6.429c-0.643,0-1.071-0.429-1.071-1.071v-6.429c0-0.643,0.429-1.071,1.071-1.071
		h6.429c0.643,0,1.071,0.429,1.071,1.071v6.429C210.286,419.054,209.857,419.482,209.214,419.482z M203.857,417.34h4.286v-4.286
		h-4.286V417.34z"/>
	<path style="fill:#A6A6A6;" d="M224.214,389.482h-9.643c-0.643,0-1.071-0.429-1.071-1.071s0.429-1.071,1.071-1.071h9.643
		c0.643,0,1.071,0.429,1.071,1.071S224.857,389.482,224.214,389.482z"/>
	<path style="fill:#A6A6A6;" d="M221,394.84h-6.429c-0.643,0-1.071-0.429-1.071-1.071s0.429-1.071,1.071-1.071H221
		c0.643,0,1.071,0.429,1.071,1.071S221.643,394.84,221,394.84z"/>
	<path style="fill:#A6A6A6;" d="M224.214,401.268h-9.643c-0.643,0-1.071-0.429-1.071-1.071s0.429-1.071,1.071-1.071h9.643
		c0.643,0,1.071,0.429,1.071,1.071S224.857,401.268,224.214,401.268z"/>
	<path style="fill:#A6A6A6;" d="M221,406.625h-6.429c-0.643,0-1.071-0.429-1.071-1.071s0.429-1.071,1.071-1.071H221
		c0.643,0,1.071,0.429,1.071,1.071S221.643,406.625,221,406.625z"/>
	<path style="fill:#A6A6A6;" d="M224.214,414.125h-9.643c-0.643,0-1.071-0.429-1.071-1.071s0.429-1.071,1.071-1.071h9.643
		c0.643,0,1.071,0.429,1.071,1.071S224.857,414.125,224.214,414.125z"/>
	<path style="fill:#A6A6A6;" d="M216.714,419.482h-2.143c-0.643,0-1.071-0.429-1.071-1.071s0.429-1.071,1.071-1.071h2.143
		c0.643,0,1.071,0.429,1.071,1.071S217.357,419.482,216.714,419.482z"/>
	<path style="fill:#A6A6A6;" d="M181.357,432.34c-0.429,0-0.75-0.214-0.964-0.643l-4.286-8.571c-0.107-0.214-0.107-0.536,0-0.75
		c0.107-0.214,0.321-0.536,0.536-0.643c3-1.5,6.536-1.5,9.536,0c0.214,0.107,0.429,0.321,0.536,0.643
		c0.107,0.321,0.107,0.536-0.107,0.857l-4.286,8.571C182.107,432.125,181.786,432.34,181.357,432.34z M178.571,423.232l2.786,5.679
		l2.786-5.679C182.321,422.59,180.393,422.59,178.571,423.232z"/>
	<path style="fill:#A6A6A6;" d="M185.643,380.911h-8.571c-0.643,0-1.071-0.429-1.071-1.071v-4.286c0-0.643,0.429-1.071,1.071-1.071
		h8.571c0.643,0,1.071,0.429,1.071,1.071v4.286C186.714,380.482,186.286,380.911,185.643,380.911z M178.143,378.768h6.429v-2.143
		h-6.429V378.768z"/>
	<path style="fill:#A6A6A6;" d="M181.357,422.697c-0.643,0-1.071-0.429-1.071-1.071V379.84c0-0.643,0.429-1.071,1.071-1.071
		c0.643,0,1.071,0.429,1.071,1.071v41.786C182.429,422.268,182,422.697,181.357,422.697z"/>
	<path style="fill:#A6A6A6;" d="M185.643,423.768c-0.214,0-0.321,0-0.429-0.107c-2.357-1.179-5.25-1.179-7.607,0
		c-0.321,0.214-0.75,0.107-1.071,0c-0.321-0.214-0.536-0.643-0.536-0.964V372.34c0-2.357,1.929-4.286,4.286-4.286h2.143
		c2.357,0,4.286,1.929,4.286,4.286v50.357c0,0.321-0.214,0.75-0.536,0.964C186.071,423.768,185.857,423.768,185.643,423.768z
		 M181.357,420.661c1.071,0,2.143,0.214,3.214,0.536V372.34c0-1.179-0.964-2.143-2.143-2.143h-2.143
		c-1.179,0-2.143,0.964-2.143,2.143v48.75C179.214,420.768,180.286,420.661,181.357,420.661z"/>
</g>
</svg>
