<?xml version="1.0" encoding="iso-8859-1"?>
<!-- Generator: Adobe Illustrator 21.1.0, SVG Export Plug-In . SVG Version: 6.00 Build 0)  -->
<svg version="1.1" id="Layer_1" xmlns="http://www.w3.org/2000/svg" xmlns:xlink="http://www.w3.org/1999/xlink" x="0px" y="0px"
	 viewBox="177.001 367.474 60 59.053" style="enable-background:new 177.001 367.474 60 59.053;" xml:space="preserve">
<g>
	<path style="fill:#F4D853;" d="M220.082,426.4l1.263-9.837H231c2.79,0,5.053-2.262,5.053-5.053V391.93c0,0-2.758,0.571-5.034,1.253
		c-2.234,0.67-4.145,2.065-4.145,4.397v12.02h-8.703c-1.395,0-2.526,1.131-2.526,2.526v14.4"/>
	<path d="M216.593,426.526h-1.895v-14.4c0-1.915,1.558-3.474,3.474-3.474h7.755V397.58c0-2.453,1.757-4.387,4.82-5.305
		c2.289-0.686,5-1.249,5.114-1.273l1.139-0.236v20.744c0,3.308-2.692,6-6,6h-8.822l-1.157,9.01l-1.879-0.241l1.369-10.663H231
		c2.264,0,4.105-1.842,4.105-4.105v-18.403c-1.001,0.228-2.498,0.588-3.815,0.982c-1.296,0.388-3.47,1.358-3.47,3.49v12.967h-9.65
		c-0.871,0-1.579,0.708-1.579,1.579L216.593,426.526L216.593,426.526z"/>
	<path style="fill:#F4D8AA;" d="M231.506,377.153h-0.001c-2.511,0-4.547,2.036-4.547,4.547l0,0l-2.147,4.927h2.147v3.158h4.295
		c2.651,0,4.8-2.149,4.8-4.8V381.7C236.053,379.189,234.017,377.153,231.506,377.153z"/>
	<path d="M231.253,390.732h-5.242v-3.158h-2.646l2.65-6.08c0.109-2.934,2.53-5.288,5.49-5.288h0.001
		c3.029,0,5.494,2.465,5.494,5.494v3.285C237,388.154,234.422,390.732,231.253,390.732z M227.906,388.837h3.347
		c2.124,0,3.853-1.728,3.853-3.853V381.7c0-1.985-1.615-3.599-3.599-3.599h-0.001c-1.985,0-3.599,1.615-3.599,3.599v0.197
		l-1.648,3.782h1.648V388.837z"/>
	
		<rect x="231.567" y="379.359" transform="matrix(0.7071 -0.7071 0.7071 0.7071 -200.8152 275.8012)" style="fill:#FFFFFF;" width="1.895" height="1.895"/>
	<path style="fill:#3D6DEB;" d="M193.919,426.4l-1.263-9.837h-9.655c-2.79,0-5.053-2.262-5.053-5.053V391.93
		c0,0,2.758,0.571,5.034,1.253c2.234,0.67,4.145,2.065,4.145,4.397v12.02h8.703c1.395,0,2.526,1.131,2.526,2.526v14.4"/>
	<path d="M199.303,426.526h-1.895v-14.4c0-0.871-0.708-1.579-1.579-1.579h-9.65V397.58c0-2.132-2.174-3.101-3.47-3.49
		c-1.318-0.395-2.814-0.755-3.815-0.982v18.403c0,2.264,1.842,4.105,4.105,4.105h10.489l1.369,10.663l-1.879,0.241l-1.157-9.01
		h-8.822c-3.308,0-6-2.692-6-6v-20.744l1.139,0.236c0.114,0.024,2.825,0.587,5.114,1.273c3.063,0.918,4.82,2.852,4.82,5.305v11.073
		h7.755c1.915,0,3.474,1.558,3.474,3.474V426.526z"/>
	<path style="fill:#F4D8AA;" d="M182.495,377.153h0.001c2.511,0,4.547,2.036,4.547,4.547l0,0l2.147,4.927h-2.147v3.158h-4.295
		c-2.651,0-4.8-2.149-4.8-4.8V381.7C177.948,379.189,179.984,377.153,182.495,377.153z"/>
	<path d="M187.99,390.732h-5.242c-3.169,0-5.747-2.578-5.747-5.747V381.7c0-3.03,2.465-5.494,5.494-5.494h0.001
		c2.961,0,5.382,2.354,5.49,5.288l2.65,6.08h-2.646V390.732z M182.495,378.101c-1.985,0-3.599,1.615-3.599,3.599v3.285
		c0,2.124,1.728,3.853,3.853,3.853h3.347v-3.158h1.648l-1.648-3.782V381.7c0-1.985-1.615-3.599-3.599-3.599H182.495z"/>
	
		<rect x="180.986" y="379.357" transform="matrix(0.7071 -0.7071 0.7071 0.7071 -215.6287 240.0349)" style="fill:#FFFFFF;" width="1.895" height="1.895"/>
	<g>
		<polyline style="fill:#A9A8AE;" points="205.131,426.526 205.131,403.789 208.92,403.789 208.92,426.526 		"/>
		<rect x="191.205" y="400" style="fill:#A9A8AE;" width="30.947" height="3.789"/>
	</g>
	<path d="M223.099,399.053h-32.842v5.684h13.926v21.789h1.895v-21.789h1.895v21.789h1.895v-21.789h13.232V399.053z M221.204,402.842
		h-29.053v-1.895h29.053V402.842z"/>
	<polygon style="fill:#3D6DEB;" points="213.569,381.053 213.569,368.421 193.358,368.421 193.358,372.621 189.819,376.947 
		193.355,376.947 193.358,381.053 	"/>
	<polygon style="fill:#F4D853;" points="218.874,373.474 218.874,377.674 222.414,382 218.874,382 218.874,386.105 198.664,386.105 
		198.664,373.474 	"/>
	<rect x="198.661" y="373.474" style="fill:#A9A8AE;" width="14.908" height="7.579"/>
	<path d="M219.822,377.336v-4.809h-5.305v-5.053h-22.105v4.809l-4.592,5.612h4.589l0.003,4.105h3.957v-1.895h-2.064L194.302,376
		h-2.484l2.488-3.041v-3.591h18.316v3.158h-14.905v14.526h22.105v-4.105h4.592L219.822,377.336z M217.927,381.053v4.105h-18.316V382
		h14.905v-6.362h-1.895v4.468h-13.011v-5.684h18.316v3.591l2.488,3.041H217.927z"/>
	<path d="M213.247,394.039h-1.895v-1.895h1.895V394.039z M207.941,394.039h-1.895v-1.895h1.895V394.039z M202.636,394.039h-1.895
		v-1.895h1.895V394.039z"/>
</g>
</svg>
