<?xml version="1.0" encoding="iso-8859-1"?>
<!-- Generator: Adobe Illustrator 21.1.0, SVG Export Plug-In . SVG Version: 6.00 Build 0)  -->
<svg version="1.1" id="Layer_1" xmlns="http://www.w3.org/2000/svg" xmlns:xlink="http://www.w3.org/1999/xlink" x="0px" y="0px"
	 viewBox="178.002 367 57.996 60" style="enable-background:new 178.002 367 57.996 60;" xml:space="preserve">
<g>
	<circle style="fill:#F5DCB4;" cx="197.981" cy="386.979" r="19.04"/>
	<circle style="fill:#FFFFFF;" cx="197.981" cy="386.979" r="16.033"/>
	<g>
		<circle style="fill:#E4EAF8;" cx="197.981" cy="386.979" r="5.01"/>
		<path style="fill:#E4EAF8;" d="M227.042,383.973H207c-1.107,0-2.004,0.897-2.004,2.004v38.079c0,1.107,0.897,2.004,2.004,2.004
			h26.054c1.107,0,2.004-0.897,2.004-2.004V391.99L227.042,383.973z"/>
	</g>
	<path style="fill:#D5DCED;" d="M227.042,383.973v6.013c0,1.107,0.897,2.004,2.004,2.004h6.013L227.042,383.973z"/>
	<circle style="fill:#707487;" cx="197.981" cy="386.979" r="2.004"/>
	<path d="M230.048,405.079h-9.019c-0.519,0-0.939,0.421-0.939,0.939s0.421,0.939,0.939,0.939h9.019c0.519,0,0.939-0.421,0.939-0.939
		S230.567,405.079,230.048,405.079z"/>
	<path d="M221.029,410.967h7.015c0.519,0,0.939-0.421,0.939-0.939s-0.421-0.939-0.939-0.939h-7.015
		c-0.519,0-0.939,0.421-0.939,0.939S220.51,410.967,221.029,410.967z"/>
	<path d="M216.357,405.355l-3.344,3.344l-2.342-2.342c-0.367-0.367-0.962-0.367-1.329,0c-0.367,0.367-0.367,0.962,0,1.329
		l3.006,3.006c0.183,0.183,0.424,0.275,0.664,0.275c0.24,0,0.481-0.092,0.664-0.275l4.008-4.008c0.367-0.367,0.367-0.962,0-1.329
		C217.318,404.988,216.723,404.988,216.357,405.355z"/>
	<path d="M230.048,395.058h-9.019c-0.519,0-0.939,0.421-0.939,0.939s0.421,0.939,0.939,0.939h9.019c0.519,0,0.939-0.421,0.939-0.939
		S230.567,395.058,230.048,395.058z"/>
	<path d="M221.029,400.946h7.015c0.519,0,0.939-0.421,0.939-0.939s-0.421-0.939-0.939-0.939h-7.015
		c-0.519,0-0.939,0.421-0.939,0.939S220.51,400.946,221.029,400.946z"/>
	<path d="M216.357,395.334l-3.344,3.344l-2.342-2.342c-0.367-0.367-0.962-0.367-1.329,0c-0.367,0.367-0.367,0.962,0,1.328
		l3.006,3.006c0.183,0.183,0.424,0.275,0.664,0.275c0.24,0,0.481-0.092,0.664-0.275l4.008-4.008c0.367-0.367,0.367-0.962,0-1.329
		C217.318,394.967,216.723,394.967,216.357,395.334z"/>
	<path d="M230.048,415.1h-9.019c-0.519,0-0.939,0.421-0.939,0.939s0.421,0.939,0.939,0.939h9.019c0.519,0,0.939-0.421,0.939-0.939
		S230.567,415.1,230.048,415.1z"/>
	<path d="M228.044,419.109h-7.015c-0.519,0-0.939,0.421-0.939,0.939c0,0.519,0.421,0.939,0.939,0.939h7.015
		c0.519,0,0.939-0.421,0.939-0.939C228.983,419.529,228.563,419.109,228.044,419.109z"/>
	<path d="M216.357,415.375l-3.344,3.344l-2.342-2.342c-0.367-0.367-0.962-0.367-1.329,0c-0.367,0.367-0.367,0.962,0,1.329
		l3.006,3.006c0.183,0.184,0.424,0.275,0.664,0.275c0.24,0,0.481-0.092,0.664-0.275l4.008-4.008c0.367-0.367,0.367-0.962,0-1.329
		C217.318,415.009,216.724,415.009,216.357,415.375z"/>
	<path d="M200.65,385.639l7.015-7.015c0.367-0.367,0.367-0.962,0-1.329s-0.962-0.367-1.329,0l-7.015,7.015
		c-0.011,0.011-0.02,0.022-0.03,0.033c-0.395-0.197-0.839-0.309-1.31-0.309c-0.469,0-0.913,0.111-1.308,0.307l-6.045-6.045
		c-0.367-0.367-0.962-0.367-1.329,0c-0.367,0.367-0.367,0.962,0,1.329l6.045,6.045c-0.196,0.394-0.307,0.838-0.307,1.308
		c0,1.623,1.32,2.944,2.944,2.944s2.944-1.32,2.944-2.944c0-0.47-0.111-0.915-0.309-1.31
		C200.627,385.659,200.639,385.65,200.65,385.639z M197.981,388.044c-0.587,0-1.065-0.478-1.065-1.065s0.478-1.065,1.065-1.065
		s1.065,0.478,1.065,1.065S198.568,388.044,197.981,388.044z"/>
	<path d="M197.981,374.891c0.519,0,0.939-0.421,0.939-0.939v-2.004c0-0.519-0.421-0.939-0.939-0.939s-0.939,0.421-0.939,0.939v2.004
		C197.042,374.471,197.462,374.891,197.981,374.891z"/>
	<path d="M197.981,399.067c-0.519,0-0.939,0.421-0.939,0.939v2.004c0,0.519,0.421,0.939,0.939,0.939s0.939-0.421,0.939-0.939v-2.004
		C198.921,399.487,198.5,399.067,197.981,399.067z"/>
	<path d="M185.894,386.979c0-0.519-0.421-0.939-0.939-0.939h-2.004c-0.519,0-0.939,0.421-0.939,0.939s0.421,0.939,0.939,0.939h2.004
		C185.473,387.919,185.894,387.498,185.894,386.979z"/>
	<path d="M187.169,379.652l-1.736-1.002c-0.449-0.26-1.024-0.105-1.283,0.344s-0.105,1.024,0.344,1.283l1.736,1.002
		c0.148,0.085,0.31,0.126,0.469,0.126c0.325,0,0.64-0.168,0.814-0.47C187.772,380.486,187.618,379.911,187.169,379.652z"/>
	<path d="M204.025,376.511c0.148,0.085,0.31,0.126,0.469,0.126c0.325,0,0.64-0.168,0.814-0.47l1.002-1.736
		c0.259-0.449,0.105-1.024-0.344-1.283c-0.449-0.26-1.024-0.105-1.283,0.344l-1.002,1.736
		C203.422,375.677,203.576,376.251,204.025,376.511z"/>
	<path d="M191.937,397.447c-0.449-0.259-1.024-0.105-1.283,0.344l-1.002,1.736c-0.259,0.449-0.105,1.024,0.344,1.283
		c0.148,0.086,0.31,0.126,0.469,0.126c0.325,0,0.64-0.168,0.814-0.47l1.002-1.736C192.541,398.281,192.387,397.707,191.937,397.447z
		"/>
	<path d="M209.264,381.405c0.159,0,0.321-0.041,0.469-0.126l1.736-1.002c0.449-0.259,0.603-0.834,0.344-1.283
		c-0.259-0.449-0.834-0.603-1.283-0.344l-1.736,1.002c-0.449,0.259-0.603,0.834-0.344,1.283
		C208.623,381.237,208.939,381.405,209.264,381.405z"/>
	<path d="M186.23,392.679l-1.736,1.002c-0.449,0.259-0.603,0.834-0.344,1.283c0.174,0.301,0.49,0.47,0.814,0.47
		c0.159,0,0.321-0.041,0.469-0.126l1.736-1.002c0.449-0.259,0.603-0.834,0.344-1.283C187.254,392.574,186.679,392.42,186.23,392.679
		z"/>
	<path d="M190.654,376.167c0.174,0.301,0.49,0.47,0.814,0.47c0.159,0,0.321-0.041,0.469-0.126c0.449-0.259,0.603-0.834,0.344-1.283
		l-1.002-1.736c-0.259-0.449-0.834-0.603-1.283-0.344c-0.449,0.259-0.603,0.834-0.344,1.283L190.654,376.167z"/>
	<path d="M235.723,391.325l-8.017-8.017c-0.176-0.176-0.415-0.275-0.664-0.275h-9.472c-0.87-4.336-3.177-8.287-6.555-11.197
		c-3.62-3.119-8.249-4.837-13.034-4.837c-11.017,0-19.979,8.963-19.979,19.979c0,11.017,8.963,19.979,19.979,19.979
		c2.081,0,4.119-0.316,6.075-0.941v18.039c0,1.623,1.321,2.944,2.944,2.944h26.054c1.623,0,2.944-1.32,2.944-2.944V391.99
		C235.998,391.74,235.899,391.502,235.723,391.325z M227.981,386.241l4.809,4.809h-3.744c-0.587,0-1.065-0.478-1.065-1.065V386.241z
		 M197.981,405.079c-9.981,0-18.1-8.12-18.1-18.1s8.12-18.1,18.1-18.1c4.335,0,8.528,1.556,11.808,4.381
		c2.964,2.554,5.018,5.992,5.86,9.773H207c-1.623,0-2.944,1.32-2.944,2.944v18.057C202.111,404.727,200.071,405.079,197.981,405.079
		z M233.054,425.121H207c-0.587,0-1.065-0.478-1.065-1.065v-38.079c0-0.587,0.478-1.065,1.065-1.065h19.102v5.073
		c0,1.623,1.321,2.944,2.944,2.944h5.073v31.127C234.119,424.643,233.641,425.121,233.054,425.121z"/>
	<path d="M210.006,390.925h13.027c0.519,0,0.939-0.421,0.939-0.939s-0.421-0.939-0.939-0.939h-13.027
		c-0.519,0-0.939,0.421-0.939,0.939S209.487,390.925,210.006,390.925z"/>
</g>
</svg>
