<?xml version="1.0" encoding="iso-8859-1"?>
<!-- Generator: Adobe Illustrator 21.1.0, SVG Export Plug-In . SVG Version: 6.00 Build 0)  -->
<svg version="1.1" id="&#x421;&#x43B;&#x43E;&#x439;_1"
	 xmlns="http://www.w3.org/2000/svg" xmlns:xlink="http://www.w3.org/1999/xlink" x="0px" y="0px" viewBox="0 0 60 60"
	 style="enable-background:new 0 0 60 60;" xml:space="preserve">
<g>
	<linearGradient id="SVGID_1_" gradientUnits="userSpaceOnUse" x1="30" y1="-2.3438" x2="30" y2="61.2094">
		<stop  offset="0" style="stop-color:#ED1C24"/>
		<stop  offset="1" style="stop-color:#333333"/>
	</linearGradient>
	<path style="fill:url(#SVGID_1_);" d="M58.686,27.141c-0.411-0.545-0.833-1.103-0.901-1.542c-0.074-0.463,0.159-1.145,0.389-1.804
		c0.329-0.953,0.7-2.038,0.366-3.068c-0.339-1.048-1.287-1.711-2.123-2.297c-0.564-0.394-1.145-0.802-1.351-1.2
		c-0.21-0.411-0.197-1.126-0.187-1.818c0.019-1.016,0.036-2.165-0.605-3.048c-0.645-0.888-1.748-1.222-2.719-1.52
		c-0.659-0.202-1.341-0.408-1.666-0.732c-0.32-0.321-0.526-1.003-0.728-1.662c-0.298-0.975-0.636-2.074-1.52-2.719
		c-0.884-0.646-2.032-0.628-3.048-0.609c-0.691,0.014-1.41,0.023-1.818-0.188c-0.403-0.202-0.806-0.783-1.199-1.346
		c-0.586-0.837-1.25-1.785-2.298-2.128c-1.035-0.334-2.115,0.041-3.072,0.367c-0.66,0.229-1.342,0.462-1.805,0.389
		c-0.435-0.069-0.997-0.49-1.542-0.898C32.044,0.701,31.115,0,30.003,0c-1.118,0-2.043,0.701-2.862,1.318
		c-0.545,0.408-1.103,0.829-1.542,0.898c-0.463,0.077-1.145-0.161-1.804-0.389c-0.953-0.33-2.038-0.701-3.067-0.367
		c-1.049,0.343-1.712,1.291-2.298,2.128c-0.394,0.559-0.802,1.14-1.2,1.346c-0.411,0.211-1.131,0.197-1.818,0.188
		c-1.016-0.022-2.165-0.036-3.048,0.605c-0.888,0.645-1.222,1.748-1.52,2.719c-0.202,0.66-0.408,1.342-0.732,1.666
		c-0.321,0.32-1.003,0.531-1.662,0.732c-0.975,0.293-2.074,0.632-2.719,1.52c-0.646,0.879-0.628,2.027-0.609,3.043
		c0.009,0.691,0.023,1.411-0.188,1.822c-0.202,0.398-0.783,0.806-1.346,1.2c-0.837,0.581-1.785,1.245-2.128,2.297
		c-0.334,1.03,0.041,2.115,0.37,3.068c0.225,0.659,0.463,1.341,0.39,1.804c-0.069,0.439-0.495,0.997-0.902,1.542
		C0.701,27.96,0,28.885,0,30.003c0,1.112,0.701,2.041,1.318,2.856c0.408,0.545,0.828,1.107,0.898,1.542l1.854-0.293
		c-0.142-0.897-0.71-1.648-1.255-2.375c-0.462-0.613-0.938-1.245-0.938-1.73c0-0.49,0.476-1.122,0.938-1.736
		c0.545-0.728,1.113-1.479,1.255-2.375c0.146-0.925-0.165-1.832-0.468-2.706c-0.247-0.709-0.499-1.446-0.356-1.881
		c0.146-0.454,0.791-0.902,1.414-1.342c0.75-0.522,1.528-1.062,1.945-1.881c0.421-0.829,0.407-1.781,0.389-2.701
		c-0.009-0.759-0.023-1.539,0.252-1.914c0.274-0.38,1.025-0.608,1.748-0.829c0.879-0.27,1.789-0.55,2.445-1.199
		c0.654-0.655,0.929-1.566,1.199-2.445c0.22-0.723,0.449-1.474,0.829-1.753c0.375-0.271,1.158-0.261,1.914-0.247
		c0.92,0.013,1.873,0.032,2.701-0.389c0.819-0.417,1.359-1.195,1.886-1.945c0.435-0.623,0.888-1.268,1.342-1.414
		c0.43-0.143,1.167,0.109,1.876,0.356c0.874,0.302,1.781,0.614,2.706,0.468c0.896-0.142,1.652-0.71,2.38-1.255
		c0.609-0.462,1.241-0.938,1.731-0.938c0.485,0,1.117,0.476,1.73,0.938c0.728,0.545,1.479,1.113,2.375,1.255
		c0.926,0.142,1.832-0.165,2.706-0.468c0.714-0.247,1.446-0.499,1.882-0.356c0.452,0.146,0.906,0.791,1.341,1.414
		c0.522,0.75,1.066,1.528,1.882,1.945c0.829,0.421,1.785,0.407,2.705,0.389c0.756-0.009,1.539-0.023,1.914,0.247
		c0.38,0.279,0.605,1.03,0.829,1.753c0.266,0.879,0.545,1.789,1.199,2.445c0.65,0.654,1.561,0.929,2.44,1.199
		c0.724,0.22,1.474,0.449,1.754,0.829c0.274,0.375,0.26,1.154,0.246,1.914c-0.013,0.92-0.032,1.873,0.394,2.701
		c0.417,0.819,1.191,1.359,1.942,1.881c0.622,0.439,1.268,0.888,1.419,1.342c0.137,0.435-0.115,1.172-0.357,1.881
		c-0.302,0.874-0.614,1.781-0.471,2.706c0.142,0.896,0.709,1.648,1.259,2.375c0.457,0.614,0.939,1.246,0.939,1.736
		c0,0.485-0.482,1.117-0.939,1.73c-0.55,0.728-1.117,1.479-1.259,2.375l1.854,0.293c0.068-0.435,0.49-0.997,0.901-1.542
		C59.3,32.044,60,31.115,60,30.003C60,28.885,59.3,27.96,58.686,27.141L58.686,27.141z M51.005,47.366
		c-0.879,0.266-1.789,0.545-2.443,1.199c-0.65,0.65-0.929,1.561-1.2,2.44c-0.219,0.724-0.449,1.474-0.829,1.754
		c-0.375,0.27-1.158,0.255-1.909,0.246c-0.925-0.013-1.876-0.032-2.705,0.389c-0.816,0.422-1.361,1.195-1.882,1.947
		c-0.439,0.622-0.888,1.268-1.341,1.414c-0.436,0.146-1.168-0.11-1.882-0.353c-0.874-0.302-1.78-0.609-2.706-0.471
		c-0.897,0.142-1.648,0.709-2.375,1.259c-0.613,0.457-1.245,0.939-1.73,0.939c-0.49,0-1.122-0.482-1.736-0.939
		c-0.728-0.55-1.479-1.117-2.375-1.259c-0.925-0.138-1.832,0.169-2.706,0.471c-0.709,0.243-1.441,0.499-1.881,0.353
		c-0.454-0.146-0.902-0.792-1.342-1.414c-0.521-0.751-1.066-1.529-1.881-1.947c-0.829-0.421-1.781-0.407-2.701-0.389
		c-0.756,0.009-1.539,0.023-1.914-0.251c-0.38-0.275-0.608-1.025-0.829-1.75c-0.27-0.879-0.55-1.789-1.199-2.445
		c-0.655-0.649-1.566-0.928-2.445-1.199c-0.723-0.219-1.474-0.449-1.753-0.829l-1.515,1.103c0.646,0.888,1.748,1.222,2.719,1.52
		c0.66,0.202,1.345,0.412,1.666,0.732c0.32,0.321,0.531,1.003,0.732,1.666c0.298,0.97,0.632,2.074,1.52,2.715
		c0.884,0.645,2.032,0.622,3.048,0.608c0.687-0.009,1.406-0.022,1.818,0.187c0.398,0.202,0.806,0.783,1.2,1.347
		c0.586,0.838,1.245,1.785,2.298,2.128c1.029,0.329,2.114-0.036,3.067-0.366c0.659-0.23,1.341-0.472,1.804-0.389
		c0.439,0.068,0.997,0.49,1.542,0.901C27.96,59.3,28.885,60,30.003,60c1.112,0,2.041-0.7,2.856-1.314
		c0.545-0.411,1.107-0.833,1.542-0.901c0.458-0.083,1.145,0.159,1.805,0.389c0.956,0.329,2.041,0.7,3.067,0.366
		c1.052-0.339,1.717-1.29,2.298-2.128c0.394-0.559,0.8-1.14,1.199-1.347c0.413-0.21,1.126-0.197,1.822-0.187
		c1.007,0.019,2.161,0.036,3.043-0.605c0.888-0.645,1.222-1.748,1.52-2.719c0.202-0.659,0.408-1.341,0.732-1.666
		c0.321-0.32,1.003-0.526,1.662-0.728c0.975-0.298,2.074-0.636,2.72-1.52l-1.515-1.103C52.479,46.912,51.729,47.142,51.005,47.366
		L51.005,47.366z M51.005,47.366"/>
	<linearGradient id="SVGID_2_" gradientUnits="userSpaceOnUse" x1="30.0029" y1="-2.3438" x2="30.0029" y2="61.2094">
		<stop  offset="0" style="stop-color:#ED1C24"/>
		<stop  offset="1" style="stop-color:#333333"/>
	</linearGradient>
	<path style="fill:url(#SVGID_2_);" d="M7.498,43.127V41.25c0-0.517-0.416-0.939-0.933-0.939H4.688v1.877h0.939v0.939
		c0,0.517-0.422,0.939-0.939,0.939c-0.517,0-0.939-0.422-0.939-0.939v-5.626c0-0.517,0.422-0.939,0.939-0.939
		c0.517,0,0.939,0.422,0.939,0.939v0.939h1.872v-0.939c0-1.552-1.259-2.81-2.81-2.81c-1.552,0-2.81,1.259-2.81,2.81v5.626
		c0,1.552,1.259,2.81,2.81,2.81C6.239,45.937,7.498,44.679,7.498,43.127L7.498,43.127z M8.437,34.691v8.437
		c0,1.552,1.263,2.81,2.816,2.81c1.547,0,2.81-1.259,2.81-2.81v-8.437h-1.877v8.437c0,0.517-0.421,0.939-0.933,0.939
		c-0.518,0-0.939-0.422-0.939-0.939v-8.437H8.437z M15.001,37.501v8.437h1.872v-1.872h1.877v1.872h1.877v-8.437
		c0-1.552-1.264-2.81-2.816-2.81C16.26,34.691,15.001,35.949,15.001,37.501L15.001,37.501z M18.75,37.501v4.688h-1.877v-4.688
		c0-0.517,0.422-0.939,0.939-0.939C18.33,36.562,18.75,36.984,18.75,37.501L18.75,37.501z M28.126,37.501v8.437h1.877v-1.872h1.872
		v1.872h1.877v-8.437c0-1.552-1.263-2.81-2.816-2.81C29.389,34.691,28.126,35.949,28.126,37.501L28.126,37.501z M30.936,36.562
		c0.518,0,0.939,0.422,0.939,0.939v4.688h-1.872v-4.688C30.003,36.984,30.424,36.562,30.936,36.562L30.936,36.562z M21.561,35.623
		v10.314h1.877v-2.952l2.078,2.599c0.179,0.225,0.449,0.353,0.732,0.353h0.939v-1.872h-0.485l-2.284-2.857
		c1.57-0.243,2.769-1.602,2.769-3.241c0-1.808-1.47-3.277-3.282-3.277h-1.405C21.982,34.691,21.561,35.107,21.561,35.623
		L21.561,35.623z M23.438,36.562h0.466c0.778,0,1.411,0.632,1.411,1.405c0,0.778-0.633,1.411-1.411,1.411h-0.466V36.562z
		 M38.439,40.133l-1.941-4.856c-0.17-0.417-0.614-0.65-1.049-0.573c-0.444,0.087-0.759,0.472-0.759,0.92v10.314h1.872v-5.442
		l1.941,4.852c0.146,0.362,0.494,0.591,0.871,0.591c0.059,0,0.118-0.005,0.178-0.014c0.444-0.087,0.759-0.476,0.759-0.925V34.691
		h-1.872V40.133z M44.999,36.562h1.877v-1.872H41.25v1.872h1.877v9.375h1.872V36.562z M52.502,36.562v-1.872h-3.749
		c-0.523,0-0.939,0.416-0.939,0.933v9.375c0,0.523,0.416,0.939,0.939,0.939h3.749v-1.872h-2.816V41.25h2.816v-1.872h-2.816v-2.816
		H52.502z M53.441,35.623v9.375c0,0.523,0.416,0.939,0.933,0.939h3.755v-1.872h-2.816V41.25h2.816v-1.872h-2.816v-2.816h2.816
		v-1.872h-3.755C53.857,34.691,53.441,35.107,53.441,35.623L53.441,35.623z M53.441,35.623"/>
	<linearGradient id="SVGID_3_" gradientUnits="userSpaceOnUse" x1="30.0029" y1="-2.3438" x2="30.0029" y2="61.2094">
		<stop  offset="0" style="stop-color:#ED1C24"/>
		<stop  offset="1" style="stop-color:#333333"/>
	</linearGradient>
	<path style="fill:url(#SVGID_3_);" d="M53.441,30.003c0-12.928-10.515-23.438-23.438-23.438c-12.928,0-23.438,10.51-23.438,23.438
		c0,0.942,0.063,1.927,0.188,2.925l1.859-0.23c-0.115-0.925-0.175-1.831-0.175-2.695c0-11.894,9.673-21.566,21.566-21.566
		c11.888,0,21.561,9.673,21.561,21.566c0,0.865-0.06,1.771-0.173,2.695l1.859,0.23C53.376,31.93,53.441,30.945,53.441,30.003
		L53.441,30.003z M44.312,48.556l-1.144-1.484c-3.804,2.939-8.359,4.491-13.165,4.491c-4.812,0-9.362-1.552-13.166-4.491
		l-1.148,1.484c4.138,3.195,9.087,4.885,14.315,4.885C35.23,53.441,40.179,51.751,44.312,48.556L44.312,48.556z M44.312,48.556"/>
	<linearGradient id="SVGID_4_" gradientUnits="userSpaceOnUse" x1="27.6562" y1="-2.3438" x2="27.6562" y2="61.2094">
		<stop  offset="0" style="stop-color:#ED1C24"/>
		<stop  offset="1" style="stop-color:#333333"/>
	</linearGradient>
	<path style="fill:url(#SVGID_4_);" d="M20.628,19.689H18.75v1.871h0.939v9.375h1.872V20.628
		C21.561,20.11,21.145,19.689,20.628,19.689L20.628,19.689z M25.782,19.689c-1.808,0-3.282,1.47-3.282,3.282v4.688
		c0,1.808,1.474,3.277,3.282,3.277c1.808,0,3.283-1.468,3.283-3.277v-4.688C29.064,21.159,27.59,19.689,25.782,19.689L25.782,19.689
		z M27.187,27.659c0,0.773-0.632,1.405-1.405,1.405s-1.405-0.632-1.405-1.405v-4.688c0-0.779,0.632-1.411,1.405-1.411
		s1.405,0.632,1.405,1.411V27.659z M33.28,19.689c-1.808,0-3.277,1.47-3.277,3.282v4.688c0,1.808,1.468,3.277,3.277,3.277
		c1.813,0,3.283-1.468,3.283-3.277v-4.688C36.562,21.159,35.093,19.689,33.28,19.689L33.28,19.689z M34.691,27.659
		c0,0.773-0.633,1.405-1.411,1.405c-0.773,0-1.405-0.632-1.405-1.405v-4.688c0-0.779,0.632-1.411,1.405-1.411
		c0.778,0,1.411,0.632,1.411,1.411V27.659z M34.691,27.659"/>
	<linearGradient id="SVGID_5_" gradientUnits="userSpaceOnUse" x1="42.186" y1="-2.3438" x2="42.186" y2="61.2094">
		<stop  offset="0" style="stop-color:#ED1C24"/>
		<stop  offset="1" style="stop-color:#333333"/>
	</linearGradient>
	<path style="fill:url(#SVGID_5_);" d="M39.474,29.581l3.749-7.498l1.675,0.838l-3.749,7.498L39.474,29.581z M39.474,29.581"/>
	<linearGradient id="SVGID_6_" gradientUnits="userSpaceOnUse" x1="39.3758" y1="-2.3438" x2="39.3758" y2="61.2094">
		<stop  offset="0" style="stop-color:#ED1C24"/>
		<stop  offset="1" style="stop-color:#333333"/>
	</linearGradient>
	<rect x="38.439" y="23.438" style="fill:url(#SVGID_6_);" width="1.873" height="1.877"/>
	<linearGradient id="SVGID_7_" gradientUnits="userSpaceOnUse" x1="45.0021" y1="-2.3438" x2="45.0021" y2="61.2094">
		<stop  offset="0" style="stop-color:#ED1C24"/>
		<stop  offset="1" style="stop-color:#333333"/>
	</linearGradient>
	<rect x="44.066" y="27.187" style="fill:url(#SVGID_7_);" width="1.873" height="1.877"/>
</g>
</svg>
