<?xml version="1.0" encoding="iso-8859-1"?>
<!-- Generator: Adobe Illustrator 21.1.0, SVG Export Plug-In . SVG Version: 6.00 Build 0)  -->
<svg version="1.1" id="&#x421;&#x43B;&#x43E;&#x439;_1"
	 xmlns="http://www.w3.org/2000/svg" xmlns:xlink="http://www.w3.org/1999/xlink" x="0px" y="0px" viewBox="0 0 50 50"
	 style="enable-background:new 0 0 50 50;" xml:space="preserve">
<g>
	<path style="fill:#A6A6A6;" d="M20.592,28.797l-2.911,0.756c-0.005,0.001-0.01,0.002-0.014,0.004
		c-1.853,0.519-2.822,2.336-2.822,3.861v0.844c0,0.924,0.808,1.675,1.802,1.675l8.341-0.001c0.006,0,0.012,0.001,0.018,0.001
		c0.006,0,0.012,0,0.018-0.001l8.341,0c0.994,0,1.802-0.752,1.802-1.675v-0.844c0-1.526-0.969-3.343-2.822-3.861
		c-0.005-0.001-0.01-0.003-0.014-0.004l-2.911-0.756c-0.247-0.073-0.442-0.2-0.484-0.267l-0.002-1.584
		c0.002-0.003,0.005-0.006,0.008-0.009c0.998-1.192,1.548-2.738,1.548-4.353v-1.179c0.996-3.244,0.294-6.056-0.066-6.875
		c-0.001-0.003-0.002-0.005-0.004-0.008c-0.007-0.015-0.014-0.03-0.022-0.044c-0.004-0.009-0.009-0.018-0.014-0.026
		c-0.007-0.013-0.015-0.025-0.023-0.037c-0.007-0.01-0.013-0.02-0.02-0.029c-0.007-0.01-0.015-0.019-0.022-0.028
		c-0.009-0.011-0.018-0.022-0.027-0.033c-0.006-0.007-0.012-0.013-0.019-0.02c-0.011-0.012-0.022-0.024-0.034-0.035
		c-0.006-0.005-0.012-0.01-0.018-0.015c-0.013-0.011-0.026-0.023-0.04-0.033c-0.007-0.005-0.013-0.009-0.02-0.013
		c-0.014-0.01-0.028-0.02-0.042-0.029c-0.008-0.005-0.017-0.01-0.025-0.014c-0.013-0.007-0.026-0.015-0.04-0.021
		c-0.01-0.005-0.022-0.01-0.033-0.015c-0.011-0.005-0.023-0.01-0.035-0.015c-0.012-0.005-0.025-0.009-0.038-0.013
		c-0.011-0.003-0.022-0.007-0.034-0.011c-0.012-0.003-0.025-0.006-0.038-0.009c-0.012-0.003-0.024-0.006-0.036-0.008
		c-0.011-0.002-0.023-0.003-0.034-0.004c-0.014-0.002-0.029-0.004-0.043-0.005c-0.01,0-0.019,0-0.029-0.001
		c-0.017,0-0.033-0.001-0.05,0c-0.008,0-0.017,0.001-0.025,0.001c-0.018,0.001-0.036,0.003-0.053,0.005c-0.003,0-0.005,0-0.008,0
		c-0.753,0.108-1.671-0.112-2.644-0.345c-1.72-0.412-3.66-0.875-5.359,0.35c-1.643,0.142-2.808,1.522-2.808,3.389
		c0,1.357,0.63,3.781,0.774,4.319v0.652c0,1.685,0.583,3.242,1.517,4.403l-0.002,1.691C21.033,28.597,20.838,28.724,20.592,28.797
		L20.592,28.797z M21.122,22.168c0-0.777,0.329-1.912,0.575-2.63c3.54,0.081,6.21,0.931,7.229,1.308v1.737
		c0,1.378-0.518,2.639-1.326,3.512c-0.002,0.002-0.003,0.004-0.005,0.006c-0.695,0.748-1.602,1.21-2.581,1.21
		c-2.073,0-3.891-2.279-3.891-4.876V22.168z M22.638,28.206c0.722,0.426,1.53,0.668,2.376,0.668c0.83,0,1.631-0.215,2.358-0.622
		l0,0.287c0,0.387,0.139,0.712,0.356,0.978l-2.72,1.605l-2.709-1.625c0.206-0.261,0.339-0.579,0.339-0.955L22.638,28.206z
		 M16.645,34.375c-0.159,0-0.239-0.091-0.239-0.113v-0.844c0-0.935,0.576-2.043,1.675-2.355l2.647-0.688l3.496,2.098v1.901
		L16.645,34.375z M33.604,33.417v0.844c0,0.021-0.08,0.113-0.239,0.113l-7.578,0v-1.896l3.543-2.091l2.6,0.675
		C33.029,31.373,33.604,32.482,33.604,33.417L33.604,33.417z M21.874,15.625c0.005,0,0.01,0,0.015-0.001
		c0.02,0,0.041-0.001,0.061-0.003c0.01-0.001,0.019-0.003,0.029-0.004c0.016-0.002,0.031-0.004,0.047-0.007
		c0.011-0.002,0.022-0.005,0.033-0.008c0.013-0.003,0.027-0.006,0.041-0.01c0.012-0.004,0.023-0.008,0.035-0.012
		c0.012-0.004,0.024-0.009,0.037-0.013c0.012-0.005,0.024-0.011,0.036-0.017c0.011-0.005,0.022-0.011,0.033-0.016
		c0.013-0.007,0.026-0.015,0.039-0.022c0.009-0.006,0.018-0.011,0.027-0.017c0.016-0.01,0.031-0.022,0.045-0.033
		c0.005-0.004,0.01-0.008,0.016-0.012c1.15-0.939,2.641-0.582,4.221-0.204c0.85,0.203,1.723,0.412,2.571,0.415
		c0.204,0.753,0.404,2.087,0.189,3.675c-1.272-0.463-4.255-1.366-8.196-1.366c-0.002,0-0.004,0-0.006,0
		c-0.017,0-0.034,0.001-0.052,0.002c-0.009,0.001-0.018,0.001-0.027,0.002c-0.014,0.002-0.028,0.004-0.042,0.007
		c-0.012,0.002-0.025,0.003-0.037,0.006c-0.009,0.002-0.017,0.005-0.026,0.007c-0.017,0.004-0.033,0.008-0.049,0.013
		c-0.004,0.001-0.007,0.003-0.011,0.004c-0.021,0.007-0.041,0.014-0.06,0.022c-0.001,0-0.002,0.001-0.003,0.001
		c-0.022,0.01-0.043,0.02-0.064,0.031c-0.004,0.002-0.008,0.005-0.012,0.007c-0.018,0.01-0.035,0.02-0.051,0.031
		c-0.011,0.008-0.022,0.016-0.032,0.024c-0.009,0.007-0.018,0.013-0.027,0.02c-0.014,0.012-0.028,0.025-0.042,0.038
		c-0.005,0.004-0.009,0.008-0.013,0.012c-0.013,0.013-0.025,0.027-0.037,0.041c-0.004,0.005-0.01,0.01-0.014,0.015
		c-0.01,0.012-0.018,0.024-0.027,0.036c-0.006,0.009-0.013,0.017-0.019,0.026c-0.006,0.009-0.012,0.019-0.018,0.029
		c-0.008,0.012-0.016,0.025-0.023,0.039c-0.004,0.007-0.007,0.015-0.011,0.023c-0.005,0.01-0.01,0.021-0.015,0.032
		c-0.054-0.369-0.088-0.707-0.088-0.976C20.348,16.615,20.748,15.625,21.874,15.625L21.874,15.625z M21.874,15.625"/>
	<path style="fill:#A6A6A6;" d="M49.868,49.652c0.007-0.011,0.013-0.022,0.021-0.034c0.006-0.01,0.013-0.021,0.019-0.031
		c0.006-0.012,0.011-0.024,0.017-0.036c0.005-0.011,0.011-0.022,0.016-0.034c0.005-0.011,0.009-0.023,0.013-0.035
		c0.004-0.012,0.009-0.024,0.013-0.037c0.003-0.012,0.006-0.024,0.009-0.036c0.003-0.012,0.007-0.025,0.01-0.038
		c0.003-0.014,0.004-0.029,0.006-0.043c0.002-0.011,0.004-0.021,0.005-0.033C49.999,49.27,50,49.244,50,49.218v-7.812
		c0-0.432-0.35-0.781-0.782-0.781c-0.432,0-0.781,0.349-0.781,0.781v5.927l-7.981-7.981c3.64-3.913,5.637-8.979,5.637-14.352
		c0-5.373-1.997-10.438-5.637-14.352l7.981-7.981v5.926c0,0.432,0.349,0.782,0.781,0.782C49.65,9.375,50,9.025,50,8.593V0.781
		c0-0.026-0.001-0.052-0.004-0.078c-0.001-0.011-0.003-0.022-0.005-0.033c-0.002-0.014-0.003-0.028-0.006-0.042
		c-0.003-0.013-0.006-0.025-0.01-0.038c-0.003-0.012-0.006-0.024-0.009-0.036c-0.004-0.012-0.009-0.024-0.013-0.036
		c-0.004-0.012-0.008-0.024-0.013-0.036c-0.005-0.011-0.01-0.022-0.016-0.033c-0.006-0.012-0.011-0.024-0.017-0.036
		c-0.006-0.011-0.012-0.021-0.019-0.032c-0.007-0.011-0.013-0.022-0.021-0.033c-0.008-0.012-0.017-0.023-0.026-0.035
		c-0.007-0.009-0.013-0.018-0.02-0.027c-0.032-0.04-0.069-0.076-0.109-0.109c-0.009-0.007-0.018-0.013-0.027-0.02
		c-0.011-0.009-0.023-0.018-0.034-0.025c-0.011-0.008-0.022-0.014-0.034-0.021c-0.01-0.006-0.021-0.013-0.032-0.019
		c-0.011-0.006-0.023-0.011-0.035-0.017c-0.011-0.005-0.022-0.01-0.034-0.015c-0.011-0.005-0.023-0.009-0.035-0.013
		c-0.012-0.004-0.024-0.009-0.037-0.013c-0.012-0.003-0.024-0.006-0.036-0.009c-0.012-0.003-0.025-0.007-0.038-0.009
		c-0.014-0.003-0.028-0.005-0.042-0.007c-0.011-0.001-0.022-0.004-0.033-0.005C49.27,0.001,49.244,0,49.218,0h-7.812
		c-0.432,0-0.781,0.35-0.781,0.781c0,0.432,0.349,0.782,0.781,0.782h5.927l-7.981,7.98C35.438,5.903,30.373,3.906,25,3.906
		c-5.374,0-10.438,1.996-14.352,5.637l-7.98-7.98h5.926c0.432,0,0.782-0.35,0.782-0.782C9.375,0.35,9.025,0,8.593,0H0.781
		C0.756,0,0.73,0.001,0.704,0.004C0.693,0.005,0.682,0.007,0.671,0.009C0.657,0.01,0.643,0.012,0.628,0.015
		C0.616,0.018,0.603,0.021,0.59,0.024C0.578,0.028,0.567,0.03,0.555,0.034C0.542,0.038,0.53,0.042,0.518,0.047
		C0.506,0.051,0.494,0.055,0.482,0.06C0.471,0.064,0.46,0.07,0.448,0.075C0.437,0.081,0.425,0.086,0.413,0.093
		C0.402,0.098,0.391,0.105,0.381,0.111C0.37,0.118,0.359,0.125,0.348,0.132C0.336,0.14,0.324,0.148,0.313,0.157
		C0.304,0.164,0.295,0.17,0.286,0.177C0.247,0.21,0.21,0.247,0.177,0.286C0.17,0.295,0.164,0.304,0.157,0.313
		C0.148,0.324,0.14,0.336,0.132,0.348C0.125,0.359,0.118,0.37,0.111,0.381C0.105,0.391,0.098,0.402,0.093,0.413
		C0.086,0.424,0.081,0.437,0.075,0.448C0.07,0.46,0.064,0.471,0.06,0.482C0.055,0.494,0.051,0.506,0.047,0.517
		C0.042,0.53,0.038,0.542,0.034,0.555C0.03,0.567,0.028,0.578,0.024,0.59C0.021,0.603,0.018,0.616,0.015,0.628
		C0.012,0.643,0.01,0.657,0.009,0.671C0.007,0.682,0.005,0.693,0.004,0.704C0.001,0.73,0,0.756,0,0.781v7.812
		c0,0.432,0.35,0.782,0.781,0.782c0.432,0,0.782-0.35,0.782-0.782V2.667l7.98,7.98C5.903,14.562,3.906,19.627,3.906,25
		c0,5.373,1.996,10.438,5.637,14.352l-7.98,7.981v-5.927c0-0.432-0.35-0.781-0.782-0.781C0.35,40.625,0,40.974,0,41.406v7.812
		c0,0.026,0.001,0.052,0.004,0.077c0.001,0.011,0.003,0.022,0.005,0.033c0.002,0.014,0.004,0.029,0.007,0.043
		c0.002,0.013,0.006,0.025,0.009,0.038c0.003,0.012,0.006,0.024,0.01,0.036c0.004,0.012,0.009,0.025,0.013,0.037
		c0.004,0.011,0.008,0.023,0.013,0.035c0.005,0.011,0.011,0.022,0.016,0.034c0.006,0.011,0.011,0.024,0.017,0.035
		c0.006,0.011,0.012,0.021,0.019,0.032c0.007,0.011,0.013,0.022,0.021,0.033c0.008,0.012,0.017,0.023,0.026,0.035
		c0.007,0.009,0.013,0.018,0.02,0.027c0.032,0.04,0.069,0.076,0.109,0.109c0.009,0.007,0.018,0.013,0.027,0.02
		c0.011,0.009,0.022,0.017,0.034,0.025c0.011,0.008,0.022,0.014,0.033,0.021c0.011,0.006,0.021,0.013,0.032,0.019
		c0.011,0.006,0.023,0.011,0.035,0.017c0.011,0.005,0.023,0.011,0.034,0.016c0.011,0.005,0.023,0.009,0.034,0.013
		c0.013,0.004,0.025,0.009,0.038,0.013c0.012,0.004,0.023,0.006,0.035,0.009c0.013,0.003,0.026,0.007,0.039,0.01
		c0.013,0.003,0.027,0.004,0.041,0.006c0.011,0.002,0.023,0.004,0.034,0.005C0.73,49.999,0.756,50,0.781,50h7.812
		c0.432,0,0.782-0.35,0.782-0.782s-0.35-0.781-0.782-0.781H2.667l7.98-7.981c3.914,3.64,8.979,5.637,14.352,5.637
		c5.373,0,10.438-1.997,14.352-5.637l7.981,7.981h-5.927c-0.432,0-0.781,0.349-0.781,0.781S40.974,50,41.406,50h7.812
		c0.026,0,0.052-0.001,0.077-0.004c0.011-0.001,0.023-0.003,0.034-0.005c0.014-0.002,0.028-0.003,0.042-0.006
		c0.013-0.002,0.026-0.006,0.039-0.01c0.012-0.003,0.023-0.006,0.035-0.009c0.013-0.004,0.025-0.009,0.038-0.013
		c0.011-0.004,0.023-0.008,0.034-0.013c0.011-0.005,0.023-0.01,0.034-0.016c0.011-0.006,0.023-0.011,0.035-0.017
		c0.01-0.006,0.021-0.012,0.032-0.019c0.011-0.007,0.022-0.013,0.033-0.021c0.012-0.008,0.023-0.017,0.034-0.026
		c0.009-0.006,0.018-0.013,0.027-0.02c0.04-0.033,0.076-0.07,0.109-0.109c0.007-0.009,0.013-0.018,0.02-0.027
		C49.852,49.675,49.86,49.664,49.868,49.652L49.868,49.652z M25,44.531C14.23,44.531,5.469,35.769,5.469,25
		C5.469,14.23,14.23,5.469,25,5.469c10.769,0,19.531,8.761,19.531,19.531C44.531,35.769,35.769,44.531,25,44.531L25,44.531z
		 M25,44.531"/>
	<path style="fill:#A6A6A6;" d="M37,13.813c0.154,0.165,0.362,0.248,0.571,0.248c0.191,0,0.382-0.069,0.533-0.21
		c0.315-0.294,0.332-0.789,0.038-1.104c-0.286-0.307-0.585-0.606-0.891-0.891c-0.316-0.294-0.81-0.277-1.104,0.039
		c-0.294,0.315-0.277,0.81,0.039,1.104C36.466,13.259,36.74,13.533,37,13.813L37,13.813z M37,13.813"/>
	<path style="fill:#A6A6A6;" d="M8.593,25c0-9.047,7.36-16.407,16.407-16.407c3.192,0,6.287,0.917,8.948,2.653
		c0.361,0.235,0.845,0.134,1.081-0.228c0.236-0.361,0.134-0.845-0.227-1.081C31.885,8.036,28.496,7.031,25,7.031
		c-9.908,0-17.969,8.06-17.969,17.969c0,4.167,1.459,8.228,4.108,11.436c0.155,0.187,0.378,0.284,0.603,0.284
		c0.176,0,0.351-0.059,0.497-0.179c0.332-0.275,0.38-0.767,0.105-1.1C9.926,32.513,8.593,28.805,8.593,25L8.593,25z M8.593,25"/>
	<path style="fill:#A6A6A6;" d="M40.062,15.197c-0.236-0.361-0.72-0.463-1.082-0.227c-0.361,0.235-0.463,0.719-0.227,1.081
		c1.736,2.662,2.653,5.756,2.653,8.949c0,9.046-7.36,16.406-16.406,16.406c-3.805,0-7.513-1.332-10.44-3.75
		c-0.333-0.275-0.825-0.228-1.1,0.105c-0.275,0.332-0.228,0.825,0.105,1.1c3.208,2.649,7.268,4.108,11.435,4.108
		c9.908,0,17.969-8.061,17.969-17.969C42.969,21.503,41.963,18.114,40.062,15.197L40.062,15.197z M40.062,15.197"/>
</g>
</svg>
