<?xml version="1.0" encoding="iso-8859-1"?>
<!-- Generator: Adobe Illustrator 21.1.0, SVG Export Plug-In . SVG Version: 6.00 Build 0)  -->
<svg version="1.1" id="&#x421;&#x43B;&#x43E;&#x439;_1"
	 xmlns="http://www.w3.org/2000/svg" xmlns:xlink="http://www.w3.org/1999/xlink" x="0px" y="0px" viewBox="0 0 50 59.259"
	 style="enable-background:new 0 0 50 59.259;" xml:space="preserve">
<g>
	<path style="fill:#A6A6A6;" d="M42.677,16.582c-1.315-1.315-2.751-2.465-4.283-3.441l1.671-2.894l1.868,1.078
		c0.146,0.084,0.305,0.124,0.462,0.124c0.32,0,0.631-0.166,0.803-0.463c0.255-0.443,0.104-1.009-0.339-1.265l-5.311-3.066
		c-0.443-0.255-1.009-0.104-1.265,0.339c-0.256,0.443-0.103,1.009,0.339,1.265l1.838,1.061l-1.665,2.884
		c-3.32-1.782-7.02-2.787-10.871-2.927V9.166c2.111-0.43,3.704-2.301,3.704-4.536C29.63,2.077,27.553,0,25,0
		c-2.553,0-4.63,2.077-4.63,4.63c0,2.236,1.593,4.106,3.703,4.536v0.112c-6.33,0.229-12.249,2.801-16.751,7.304
		C2.6,21.303,0,27.582,0,34.259s2.6,12.956,7.322,17.677c4.722,4.722,11,7.323,17.678,7.323s12.956-2.601,17.677-7.323
		c4.722-4.722,7.323-11,7.323-17.677S47.399,21.303,42.677,16.582L42.677,16.582z M22.222,4.63c0-1.532,1.246-2.778,2.778-2.778
		c1.532,0,2.778,1.246,2.778,2.778c0,1.207-0.774,2.236-1.852,2.618V4.63c0-0.511-0.414-0.926-0.926-0.926
		c-0.511,0-0.926,0.414-0.926,0.926v2.618C22.997,6.866,22.222,5.837,22.222,4.63L22.222,4.63z M25,57.407
		c-12.764,0-23.148-10.384-23.148-23.148c0-12.764,10.384-23.148,23.148-23.148c12.764,0,23.148,10.384,23.148,23.148
		C48.148,47.023,37.764,57.407,25,57.407L25,57.407z M25,57.407"/>
	<path style="fill:#A6A6A6;" d="M43.145,23.105c-0.269-0.436-0.839-0.571-1.274-0.303c-0.435,0.269-0.571,0.839-0.302,1.274
		c1.881,3.055,2.876,6.576,2.876,10.183c0,10.722-8.722,19.444-19.444,19.444c-10.722,0-19.445-8.722-19.445-19.444
		c0-10.722,8.723-19.445,19.445-19.445c3.606,0,7.126,0.994,10.18,2.874c0.435,0.268,1.005,0.133,1.274-0.303
		c0.268-0.435,0.132-1.005-0.304-1.274c-3.346-2.06-7.201-3.149-11.15-3.149c-11.743,0-21.296,9.553-21.296,21.296
		c0,11.742,9.553,21.296,21.296,21.296c11.742,0,21.296-9.554,21.296-21.296C46.296,30.309,45.206,26.452,43.145,23.105
		L43.145,23.105z M43.145,23.105"/>
	<path style="fill:#A6A6A6;" d="M37.962,19.765c0.536,0.48,1.051,0.995,1.531,1.531c0.183,0.205,0.436,0.309,0.69,0.309
		c0.22,0,0.441-0.078,0.617-0.236c0.381-0.341,0.414-0.927,0.072-1.308c-0.525-0.587-1.089-1.151-1.676-1.676
		c-0.382-0.341-0.966-0.309-1.308,0.072C37.549,18.839,37.581,19.424,37.962,19.765L37.962,19.765z M37.962,19.765"/>
	<path style="fill:#A6A6A6;" d="M30.779,17.643c-1.811-0.632-3.755-0.977-5.779-0.977c-0.511,0-0.926,0.415-0.926,0.926v16.666
		c0,0.245,0.098,0.481,0.271,0.654L36.13,46.699c0.181,0.181,0.418,0.271,0.655,0.271c0.237,0,0.474-0.09,0.655-0.271
		c3.322-3.323,5.152-7.741,5.152-12.44c0-1.476-0.184-2.91-0.527-4.28c-0.007-0.039-0.016-0.077-0.028-0.114
		c-0.369-1.431-0.916-2.792-1.612-4.058c-0.025-0.06-0.057-0.117-0.096-0.172c-0.659-1.167-1.447-2.253-2.346-3.235
		c-0.027-0.037-0.056-0.073-0.09-0.106c-0.018-0.018-0.037-0.035-0.056-0.051c-1.896-2.024-4.263-3.6-6.925-4.553
		C30.867,17.67,30.824,17.655,30.779,17.643L30.779,17.643z M32.754,20.565l-6.829,6.829v-2.936l4.843-4.843
		C31.456,19.885,32.119,20.204,32.754,20.565L32.754,20.565z M35.931,22.944L25.926,32.95v-2.936l8.415-8.415
		C34.9,22.012,35.432,22.461,35.931,22.944L35.931,22.944z M38.408,26.022L28.24,36.19l-1.468-1.468l10.414-10.414
		C37.63,24.851,38.039,25.423,38.408,26.022L38.408,26.022z M40.117,29.87l-9.099,9.098L29.55,37.5l9.771-9.771
		C39.636,28.418,39.903,29.133,40.117,29.87L40.117,29.87z M40.741,34.259c0,0.185-0.005,0.369-0.011,0.553l-6.934,6.934
		l-1.468-1.468l8.253-8.254C40.686,32.754,40.741,33.5,40.741,34.259L40.741,34.259z M28.785,18.979l-2.859,2.859v-3.293
		C26.906,18.603,27.861,18.751,28.785,18.979L28.785,18.979z M36.766,44.716l-1.66-1.66l5.232-5.232
		C39.751,40.371,38.534,42.732,36.766,44.716L36.766,44.716z M36.766,44.716"/>
</g>
</svg>
