<?xml version="1.0" encoding="iso-8859-1"?>
<!-- Generator: Adobe Illustrator 21.1.0, SVG Export Plug-In . SVG Version: 6.00 Build 0)  -->
<svg version="1.1" id="Layer_1" xmlns="http://www.w3.org/2000/svg" xmlns:xlink="http://www.w3.org/1999/xlink" x="0px" y="0px"
	 viewBox="177 367 60 60" style="enable-background:new 177 367 60 60;" xml:space="preserve">
<g>
	<linearGradient id="SVGID_1_" gradientUnits="userSpaceOnUse" x1="198.2061" y1="368.875" x2="198.2061" y2="426.6789">
		<stop  offset="0" style="stop-color:#ED1C24"/>
		<stop  offset="1" style="stop-color:#333333"/>
	</linearGradient>
	<path style="fill:url(#SVGID_1_);" d="M192.982,373.569h10.448c0.523,0,0.947-0.424,0.947-0.947c0-0.523-0.424-0.947-0.947-0.947
		h-10.448c-0.523,0-0.947,0.424-0.947,0.947C192.035,373.145,192.459,373.569,192.982,373.569z"/>
	<linearGradient id="SVGID_2_" gradientUnits="userSpaceOnUse" x1="203.4301" y1="368.875" x2="203.4301" y2="426.6789">
		<stop  offset="0" style="stop-color:#ED1C24"/>
		<stop  offset="1" style="stop-color:#333333"/>
	</linearGradient>
	<path style="fill:url(#SVGID_2_);" d="M192.982,377.75h20.896c0.523,0,0.947-0.424,0.947-0.947c0-0.523-0.424-0.947-0.947-0.947
		h-20.896c-0.523,0-0.947,0.424-0.947,0.947C192.035,377.326,192.459,377.75,192.982,377.75z"/>
	<linearGradient id="SVGID_3_" gradientUnits="userSpaceOnUse" x1="198.2061" y1="368.875" x2="198.2061" y2="426.6789">
		<stop  offset="0" style="stop-color:#ED1C24"/>
		<stop  offset="1" style="stop-color:#333333"/>
	</linearGradient>
	<path style="fill:url(#SVGID_3_);" d="M192.982,390.776h10.448c0.523,0,0.947-0.424,0.947-0.947c0-0.523-0.424-0.947-0.947-0.947
		h-10.448c-0.523,0-0.947,0.424-0.947,0.947C192.035,390.352,192.459,390.776,192.982,390.776z"/>
	<linearGradient id="SVGID_4_" gradientUnits="userSpaceOnUse" x1="203.315" y1="368.875" x2="203.315" y2="426.6789">
		<stop  offset="0" style="stop-color:#ED1C24"/>
		<stop  offset="1" style="stop-color:#333333"/>
	</linearGradient>
	<path style="fill:url(#SVGID_4_);" d="M192.982,394.957h20.666c0.523,0,0.947-0.424,0.947-0.947c0-0.523-0.424-0.947-0.947-0.947
		h-20.666c-0.523,0-0.947,0.424-0.947,0.947C192.035,394.533,192.459,394.957,192.982,394.957z"/>
	<linearGradient id="SVGID_5_" gradientUnits="userSpaceOnUse" x1="198.2061" y1="368.875" x2="198.2061" y2="426.6789">
		<stop  offset="0" style="stop-color:#ED1C24"/>
		<stop  offset="1" style="stop-color:#333333"/>
	</linearGradient>
	<path style="fill:url(#SVGID_5_);" d="M192.982,407.982h10.448c0.523,0,0.947-0.424,0.947-0.947c0-0.523-0.424-0.947-0.947-0.947
		h-10.448c-0.523,0-0.947,0.424-0.947,0.947C192.035,407.558,192.459,407.982,192.982,407.982z"/>
	<linearGradient id="SVGID_6_" gradientUnits="userSpaceOnUse" x1="203.241" y1="368.875" x2="203.241" y2="426.6789">
		<stop  offset="0" style="stop-color:#ED1C24"/>
		<stop  offset="1" style="stop-color:#333333"/>
	</linearGradient>
	<path style="fill:url(#SVGID_6_);" d="M213.5,410.269h-20.518c-0.523,0-0.947,0.424-0.947,0.947c0,0.523,0.424,0.947,0.947,0.947
		H213.5c0.523,0,0.947-0.424,0.947-0.947C214.447,410.693,214.023,410.269,213.5,410.269z"/>
	<linearGradient id="SVGID_7_" gradientUnits="userSpaceOnUse" x1="207" y1="368.875" x2="207" y2="426.6789">
		<stop  offset="0" style="stop-color:#ED1C24"/>
		<stop  offset="1" style="stop-color:#333333"/>
	</linearGradient>
	<path style="fill:url(#SVGID_7_);" d="M232.509,414.44l-5.504-2.207v-1.209c1.516-0.824,2.666-2.238,3.145-3.93
		c1.84-0.01,3.333-1.508,3.333-3.35c0-1.107-0.54-2.09-1.37-2.7v-2.516c0-4.682-3.809-8.491-8.491-8.491h-0.629
		c-0.702,0-1.384,0.087-2.037,0.249v-5.132c0-0.523-0.424-0.947-0.947-0.947h-2.814c-0.523,0-0.947,0.424-0.947,0.947
		c0,0.523,0.424,0.947,0.947,0.947h1.866v4.904c-2.486,1.304-4.25,3.804-4.522,6.731h-35.646v-11.635h35.131
		c0.523,0,0.947-0.424,0.947-0.947c0-0.523-0.424-0.947-0.947-0.947h-36.078c-0.523,0-0.947,0.424-0.947,0.947v13.53
		c0,0.523,0.424,0.947,0.947,0.947h36.556v1.403c-0.156,0.114-0.302,0.241-0.437,0.379h-36.119c-0.523,0-0.947,0.424-0.947,0.947
		v13.53c0,0.523,0.424,0.947,0.947,0.947h32.952c-0.8,1.101-1.399,2.584-1.399,4.503v4.711c0,0.523,0.424,0.949,0.947,0.949h3.579
		c0.523,0,0.947-0.424,0.947-0.947c0-0.523-0.424-0.947-0.947-0.947h-2.631v-3.764c0-3.94,3.1-5.07,3.227-5.115
		c0.015-0.005,0.029-0.01,0.044-0.016l5.186-2.031c0.023,0.029,0.048,0.057,0.076,0.084l2.72,2.649
		c0.177,0.172,0.414,0.269,0.661,0.269c0.005,0,0.01,0,0.015,0c0.252-0.004,0.492-0.108,0.667-0.29l2.661-2.76l5.176,2.076
		c0.013,0.005,0.032,0.012,0.045,0.017c0.132,0.046,3.233,1.177,3.233,5.116v3.764h-7.792h-6.725h-1.402h-1.177h-0.952
		c-0.523,0-0.947,0.424-0.947,0.947c0,0.523,0.424,0.947,0.947,0.947h0.952h1.177h1.402h6.725h8.739
		c0.523,0,0.947-0.433,0.947-0.957v-4.702C237,417.101,234.079,414.98,232.509,414.44z M223.923,409.912h-1.199
		c-2.525,0-4.58-2.054-4.58-4.579v-3.808c1.654-0.142,5.097-0.711,7.551-2.983c0.502,0.991,1.375,2.186,2.807,2.773v4.018
		C228.502,407.858,226.448,409.912,223.923,409.912z M216.249,402.307v2.874c-0.698-0.107-1.235-0.71-1.235-1.437
		C215.014,403.017,215.551,402.414,216.249,402.307z M230.397,405.175v-2.861c0.677,0.124,1.193,0.718,1.193,1.431
		S231.074,405.05,230.397,405.175z M222.994,391.932h0.629c3.637,0,6.597,2.959,6.597,6.597v1.547
		c-0.001-0.002-0.003-0.003-0.004-0.005c-0.009-0.012-0.017-0.024-0.027-0.036c-0.009-0.011-0.018-0.022-0.028-0.033
		c-0.011-0.013-0.022-0.025-0.033-0.037c-0.009-0.009-0.019-0.018-0.028-0.027c-0.013-0.012-0.026-0.024-0.039-0.036
		c-0.009-0.008-0.019-0.015-0.029-0.023c-0.014-0.011-0.028-0.022-0.043-0.032c-0.011-0.007-0.022-0.014-0.033-0.021
		c-0.014-0.009-0.029-0.018-0.044-0.027c-0.013-0.007-0.027-0.014-0.04-0.021c-0.014-0.007-0.027-0.014-0.041-0.02
		c-0.017-0.007-0.034-0.014-0.051-0.02c-0.012-0.004-0.024-0.009-0.036-0.013c-0.019-0.006-0.039-0.011-0.058-0.016
		c-0.009-0.002-0.017-0.005-0.026-0.007c-2.062-0.469-2.707-3.134-2.713-3.158c-0.082-0.363-0.369-0.644-0.734-0.719
		c-0.365-0.075-0.739,0.071-0.957,0.373c-2.493,3.446-7.979,3.481-8.055,3.481c0,0,0,0,0,0c-0.001,0-0.002,0-0.004,0
		c-0.033,0-0.065,0.002-0.097,0.005c-0.01,0.001-0.02,0.003-0.03,0.004c-0.022,0.003-0.043,0.006-0.064,0.01
		c-0.014,0.003-0.027,0.007-0.04,0.01c-0.017,0.004-0.034,0.008-0.051,0.013c-0.015,0.005-0.03,0.011-0.045,0.017
		c-0.014,0.005-0.028,0.009-0.042,0.015c-0.017,0.007-0.034,0.016-0.05,0.024c-0.011,0.005-0.022,0.01-0.032,0.016
		c-0.017,0.009-0.033,0.02-0.05,0.03c-0.009,0.006-0.019,0.011-0.029,0.017c-0.015,0.01-0.03,0.022-0.044,0.033
		c-0.009,0.007-0.019,0.014-0.029,0.021c-0.013,0.011-0.026,0.023-0.038,0.034c-0.01,0.009-0.02,0.017-0.029,0.026
		c-0.012,0.012-0.022,0.024-0.033,0.036c-0.009,0.01-0.019,0.02-0.028,0.031c-0.01,0.012-0.019,0.025-0.028,0.037
		c-0.009,0.012-0.018,0.023-0.027,0.035c-0.005,0.008-0.009,0.016-0.014,0.023v-1.59
		C216.398,394.891,219.357,391.932,222.994,391.932z M213.994,414.438c-0.314,0.108-0.683,0.28-1.072,0.519
		c-0.052-0.009-0.105-0.014-0.159-0.014h-33.868v-11.635h34.254c-0.019,0.143-0.029,0.288-0.029,0.436
		c0,1.847,1.503,3.35,3.351,3.35c0.008,0,0.016-0.001,0.025-0.001c0.479,1.693,1.629,3.106,3.146,3.931v1.203L213.994,414.438z
		 M223.287,414.892l-1.752-1.706v-1.49c0.386,0.072,0.782,0.111,1.188,0.111h1.199c0.406,0,0.803-0.039,1.188-0.111v1.193
		c0,0.001,0,0.002,0,0.003v0.108L223.287,414.892z"/>
	<linearGradient id="SVGID_8_" gradientUnits="userSpaceOnUse" x1="185.1935" y1="368.875" x2="185.1935" y2="426.6789">
		<stop  offset="0" style="stop-color:#ED1C24"/>
		<stop  offset="1" style="stop-color:#333333"/>
	</linearGradient>
	<path style="fill:url(#SVGID_8_);" d="M186.678,372.52c0.523,0,0.947-0.424,0.947-0.947c0-0.523-0.424-0.947-0.947-0.947H181.9
		c-0.523,0-0.947,0.424-0.947,0.947v6.279c0,0.523,0.424,0.947,0.947,0.947h6.587c0.523,0,0.947-0.424,0.947-0.947v-1.694
		c0-0.523-0.424-0.947-0.947-0.947c-0.523,0-0.947,0.424-0.947,0.947v0.747h-4.693v-4.384H186.678z"/>
	<linearGradient id="SVGID_9_" gradientUnits="userSpaceOnUse" x1="186.9356" y1="368.875" x2="186.9356" y2="426.6789">
		<stop  offset="0" style="stop-color:#ED1C24"/>
		<stop  offset="1" style="stop-color:#333333"/>
	</linearGradient>
	<path style="fill:url(#SVGID_9_);" d="M190.339,370.883c-0.381-0.359-0.98-0.341-1.339,0.04l-3.147,3.339l-0.973-1.06
		c-0.354-0.386-0.953-0.411-1.339-0.057c-0.385,0.354-0.411,0.953-0.057,1.339l1.662,1.81c0.178,0.194,0.429,0.305,0.692,0.307
		c0.002,0,0.004,0,0.006,0c0.261,0,0.51-0.108,0.689-0.298l3.845-4.08C190.737,371.842,190.72,371.242,190.339,370.883z"/>
	<linearGradient id="SVGID_10_" gradientUnits="userSpaceOnUse" x1="185.1935" y1="368.875" x2="185.1935" y2="426.6789">
		<stop  offset="0" style="stop-color:#ED1C24"/>
		<stop  offset="1" style="stop-color:#333333"/>
	</linearGradient>
	<path style="fill:url(#SVGID_10_);" d="M186.678,389.727c0.523,0,0.947-0.424,0.947-0.947c0-0.523-0.424-0.947-0.947-0.947H181.9
		c-0.523,0-0.947,0.424-0.947,0.947v6.279c0,0.523,0.424,0.947,0.947,0.947h6.587c0.523,0,0.947-0.424,0.947-0.947v-1.694
		c0-0.523-0.424-0.947-0.947-0.947c-0.523,0-0.947,0.424-0.947,0.947v0.747h-4.693v-4.384H186.678z"/>
	<linearGradient id="SVGID_11_" gradientUnits="userSpaceOnUse" x1="186.9356" y1="368.875" x2="186.9356" y2="426.6789">
		<stop  offset="0" style="stop-color:#ED1C24"/>
		<stop  offset="1" style="stop-color:#333333"/>
	</linearGradient>
	<path style="fill:url(#SVGID_11_);" d="M190.339,388.09c-0.381-0.359-0.98-0.341-1.339,0.04l-3.147,3.339l-0.973-1.06
		c-0.354-0.386-0.953-0.411-1.339-0.057c-0.385,0.354-0.411,0.953-0.057,1.339l1.662,1.81c0.178,0.194,0.429,0.305,0.692,0.307
		c0.002,0,0.004,0,0.006,0c0.261,0,0.51-0.108,0.689-0.298l3.845-4.08C190.737,389.048,190.72,388.449,190.339,388.09z"/>
	<linearGradient id="SVGID_12_" gradientUnits="userSpaceOnUse" x1="185.1935" y1="368.875" x2="185.1935" y2="426.6789">
		<stop  offset="0" style="stop-color:#ED1C24"/>
		<stop  offset="1" style="stop-color:#333333"/>
	</linearGradient>
	<path style="fill:url(#SVGID_12_);" d="M188.487,409.624c-0.523,0-0.947,0.424-0.947,0.947v0.747h-4.693v-4.384h3.831
		c0.523,0,0.947-0.424,0.947-0.947c0-0.523-0.424-0.947-0.947-0.947H181.9c-0.523,0-0.947,0.424-0.947,0.947v6.279
		c0,0.523,0.424,0.947,0.947,0.947h6.587c0.523,0,0.947-0.424,0.947-0.947v-1.694C189.435,410.048,189.01,409.624,188.487,409.624z"
		/>
	<linearGradient id="SVGID_13_" gradientUnits="userSpaceOnUse" x1="186.9355" y1="368.875" x2="186.9355" y2="426.6789">
		<stop  offset="0" style="stop-color:#ED1C24"/>
		<stop  offset="1" style="stop-color:#333333"/>
	</linearGradient>
	<path style="fill:url(#SVGID_13_);" d="M189,405.336l-3.147,3.339l-0.973-1.06c-0.354-0.386-0.953-0.411-1.339-0.057
		c-0.385,0.354-0.411,0.953-0.057,1.339l1.662,1.81c0.178,0.194,0.429,0.305,0.692,0.307c0.002,0,0.004,0,0.006,0
		c0.261,0,0.51-0.108,0.689-0.298l3.845-4.08c0.359-0.381,0.341-0.98-0.04-1.339C189.958,404.938,189.358,404.956,189,405.336z"/>
	<linearGradient id="SVGID_14_" gradientUnits="userSpaceOnUse" x1="198.9789" y1="368.875" x2="198.9789" y2="426.6789">
		<stop  offset="0" style="stop-color:#ED1C24"/>
		<stop  offset="1" style="stop-color:#333333"/>
	</linearGradient>
	<path style="fill:url(#SVGID_14_);" d="M177.947,382.425h42.063c0.523,0,0.947-0.424,0.947-0.947v-13.53
		c0-0.523-0.424-0.947-0.947-0.947h-2.814c-0.523,0-0.947,0.424-0.947,0.947c0,0.523,0.424,0.947,0.947,0.947h1.866v11.635h-40.168
		v-11.635h35.131c0.523,0,0.947-0.424,0.947-0.947c0-0.523-0.424-0.947-0.947-0.947h-36.078c-0.523,0-0.947,0.424-0.947,0.947v13.53
		C177,382.001,177.424,382.425,177.947,382.425z"/>
</g>
</svg>
