<?xml version="1.0" encoding="iso-8859-1"?>
<!-- Generator: Adobe Illustrator 21.1.0, SVG Export Plug-In . SVG Version: 6.00 Build 0)  -->
<svg version="1.1" id="Layer_1" xmlns="http://www.w3.org/2000/svg" xmlns:xlink="http://www.w3.org/1999/xlink" x="0px" y="0px"
	 viewBox="182 372 50 50" style="enable-background:new 182 372 50 50;" xml:space="preserve">
<g>
	<path style="fill:#A6A6A6;" d="M195.318,377.474h8.707c0.436,0,0.789-0.353,0.789-0.789s-0.353-0.789-0.789-0.789h-8.707
		c-0.436,0-0.789,0.353-0.789,0.789S194.882,377.474,195.318,377.474z"/>
	<path style="fill:#A6A6A6;" d="M195.318,380.959h17.413c0.436,0,0.789-0.353,0.789-0.789c0-0.436-0.353-0.789-0.789-0.789h-17.413
		c-0.436,0-0.789,0.353-0.789,0.789C194.529,380.605,194.882,380.959,195.318,380.959z"/>
	<path style="fill:#A6A6A6;" d="M195.318,391.813h8.707c0.436,0,0.789-0.353,0.789-0.789c0-0.436-0.353-0.789-0.789-0.789h-8.707
		c-0.436,0-0.789,0.353-0.789,0.789S194.882,391.813,195.318,391.813z"/>
	<path style="fill:#A6A6A6;" d="M195.318,395.297h17.222c0.436,0,0.789-0.353,0.789-0.789c0-0.436-0.353-0.789-0.789-0.789h-17.222
		c-0.436,0-0.789,0.353-0.789,0.789C194.529,394.944,194.882,395.297,195.318,395.297z"/>
	<path style="fill:#A6A6A6;" d="M195.318,406.152h8.707c0.436,0,0.789-0.353,0.789-0.789c0-0.436-0.353-0.789-0.789-0.789h-8.707
		c-0.436,0-0.789,0.353-0.789,0.789C194.529,405.798,194.882,406.152,195.318,406.152z"/>
	<path style="fill:#A6A6A6;" d="M212.417,408.057h-17.098c-0.436,0-0.789,0.353-0.789,0.789c0,0.436,0.353,0.789,0.789,0.789h17.098
		c0.436,0,0.789-0.353,0.789-0.789S212.853,408.057,212.417,408.057z"/>
	<path style="fill:#A6A6A6;" d="M228.258,411.533l-4.586-1.839v-1.007c1.263-0.687,2.222-1.865,2.621-3.275
		c1.533-0.008,2.778-1.257,2.778-2.792c0-0.922-0.45-1.741-1.141-2.25v-2.096c0-3.902-3.174-7.076-7.076-7.076h-0.524
		c-0.585,0-1.153,0.073-1.697,0.207v-4.276c0-0.436-0.353-0.789-0.789-0.789h-2.345c-0.436,0-0.789,0.353-0.789,0.789
		s0.353,0.789,0.789,0.789h1.555v4.087c-2.072,1.087-3.542,3.17-3.768,5.609h-29.705v-9.696h29.276c0.436,0,0.789-0.353,0.789-0.789
		s-0.353-0.789-0.789-0.789h-30.065c-0.436,0-0.789,0.353-0.789,0.789v11.275c0,0.436,0.353,0.789,0.789,0.789h30.463v1.169
		c-0.13,0.095-0.252,0.201-0.364,0.316h-30.099c-0.436,0-0.789,0.353-0.789,0.789v11.275c0,0.436,0.353,0.789,0.789,0.789h27.46
		c-0.667,0.917-1.166,2.153-1.166,3.752v3.925c0,0.436,0.353,0.79,0.789,0.79h2.982c0.436,0,0.789-0.353,0.789-0.789
		c0-0.436-0.353-0.789-0.789-0.789h-2.193v-3.137c0-3.283,2.584-4.225,2.689-4.262c0.012-0.004,0.024-0.009,0.036-0.013l4.322-1.692
		c0.02,0.024,0.04,0.048,0.063,0.07l2.267,2.208c0.147,0.144,0.345,0.224,0.551,0.224c0.004,0,0.008,0,0.012,0
		c0.21-0.003,0.41-0.09,0.556-0.241l2.217-2.3l4.314,1.73c0.011,0.004,0.027,0.01,0.038,0.014c0.11,0.038,2.694,0.981,2.694,4.264
		v3.137h-6.493h-5.604h-1.169h-0.981h-0.793c-0.436,0-0.789,0.353-0.789,0.789c0,0.436,0.353,0.789,0.789,0.789h0.793h0.981h1.169
		h5.604h7.283c0.436,0,0.789-0.361,0.789-0.797v-3.919C232,413.75,229.566,411.983,228.258,411.533z M221.102,407.76h-0.999
		c-2.104,0-3.816-1.712-3.816-3.816v-3.173c1.378-0.119,4.247-0.592,6.292-2.486c0.418,0.826,1.146,1.822,2.339,2.311v3.348
		C224.918,406.048,223.206,407.76,221.102,407.76z M214.708,401.422v2.395c-0.582-0.089-1.029-0.591-1.029-1.198
		C213.678,402.014,214.126,401.512,214.708,401.422z M226.497,403.812v-2.384c0.565,0.104,0.994,0.598,0.994,1.192
		S227.062,403.709,226.497,403.812z M220.329,392.777h0.524c3.031,0,5.497,2.466,5.497,5.497v1.289
		c-0.001-0.001-0.002-0.003-0.003-0.004c-0.007-0.01-0.015-0.02-0.022-0.03c-0.007-0.009-0.015-0.018-0.023-0.027
		c-0.009-0.01-0.018-0.021-0.028-0.031c-0.007-0.008-0.015-0.015-0.023-0.023c-0.011-0.01-0.021-0.02-0.033-0.03
		c-0.008-0.007-0.016-0.013-0.024-0.019c-0.012-0.009-0.024-0.018-0.036-0.027c-0.009-0.006-0.018-0.012-0.027-0.018
		c-0.012-0.008-0.024-0.015-0.037-0.022c-0.011-0.006-0.022-0.012-0.034-0.017c-0.011-0.006-0.022-0.011-0.034-0.016
		c-0.014-0.006-0.028-0.011-0.042-0.017c-0.01-0.004-0.02-0.008-0.03-0.011c-0.016-0.005-0.032-0.009-0.049-0.014
		c-0.007-0.002-0.014-0.004-0.022-0.006c-1.718-0.391-2.256-2.612-2.26-2.632c-0.069-0.303-0.308-0.537-0.612-0.599
		c-0.304-0.063-0.616,0.059-0.798,0.311c-2.077,2.872-6.649,2.901-6.712,2.901c0,0,0,0,0,0c-0.001,0-0.002,0-0.003,0
		c-0.027,0-0.054,0.001-0.081,0.004c-0.008,0.001-0.016,0.003-0.025,0.004c-0.018,0.002-0.036,0.005-0.054,0.008
		c-0.011,0.002-0.022,0.006-0.033,0.009c-0.014,0.003-0.028,0.006-0.042,0.011c-0.013,0.004-0.025,0.009-0.038,0.014
		c-0.011,0.004-0.023,0.008-0.035,0.013c-0.014,0.006-0.028,0.013-0.042,0.02c-0.009,0.004-0.018,0.008-0.027,0.013
		c-0.014,0.008-0.028,0.016-0.041,0.025c-0.008,0.005-0.016,0.009-0.024,0.014c-0.013,0.009-0.025,0.018-0.037,0.028
		c-0.008,0.006-0.016,0.011-0.024,0.018c-0.011,0.009-0.021,0.019-0.032,0.029c-0.008,0.007-0.017,0.014-0.024,0.022
		c-0.01,0.01-0.019,0.02-0.028,0.03c-0.008,0.009-0.016,0.017-0.023,0.025c-0.008,0.01-0.016,0.021-0.023,0.031
		c-0.007,0.01-0.015,0.019-0.022,0.03c-0.004,0.006-0.008,0.013-0.012,0.02v-1.325C214.831,395.243,217.297,392.777,220.329,392.777
		z M212.829,411.532c-0.262,0.09-0.569,0.234-0.893,0.433c-0.043-0.007-0.087-0.012-0.133-0.012h-28.224v-9.696h28.545
		c-0.016,0.119-0.024,0.24-0.024,0.363c0,1.539,1.253,2.792,2.792,2.792c0.007,0,0.014-0.001,0.021-0.001
		c0.399,1.411,1.358,2.589,2.621,3.276v1.002L212.829,411.532z M220.573,411.91l-1.46-1.422v-1.242
		c0.321,0.06,0.652,0.093,0.99,0.093h0.999c0.338,0,0.669-0.033,0.99-0.093v0.994c0,0.001,0,0.002,0,0.003v0.09L220.573,411.91z"/>
	<path style="fill:#A6A6A6;" d="M190.065,376.6c0.436,0,0.789-0.353,0.789-0.789c0-0.436-0.353-0.789-0.789-0.789h-3.982
		c-0.436,0-0.789,0.353-0.789,0.789v5.233c0,0.436,0.353,0.789,0.789,0.789h5.489c0.436,0,0.789-0.353,0.789-0.789v-1.412
		c0-0.436-0.353-0.789-0.789-0.789s-0.789,0.353-0.789,0.789v0.622h-3.91V376.6H190.065z"/>
	<path style="fill:#A6A6A6;" d="M193.116,375.236c-0.317-0.299-0.817-0.284-1.116,0.033l-2.622,2.783l-0.811-0.883
		c-0.295-0.321-0.794-0.343-1.115-0.048c-0.321,0.295-0.343,0.794-0.048,1.115l1.385,1.508c0.148,0.162,0.357,0.254,0.576,0.256
		c0.002,0,0.003,0,0.005,0c0.217,0,0.425-0.09,0.575-0.248l3.204-3.4C193.448,376.035,193.433,375.535,193.116,375.236z"/>
	<path style="fill:#A6A6A6;" d="M190.065,390.939c0.436,0,0.789-0.353,0.789-0.789s-0.353-0.789-0.789-0.789h-3.982
		c-0.436,0-0.789,0.353-0.789,0.789v5.233c0,0.436,0.353,0.789,0.789,0.789h5.489c0.436,0,0.789-0.353,0.789-0.789v-1.412
		c0-0.436-0.353-0.789-0.789-0.789s-0.789,0.353-0.789,0.789v0.622h-3.91v-3.654H190.065z"/>
	<path style="fill:#A6A6A6;" d="M193.116,389.575c-0.317-0.299-0.817-0.284-1.116,0.033l-2.622,2.782l-0.811-0.883
		c-0.295-0.321-0.794-0.343-1.115-0.048c-0.321,0.295-0.343,0.794-0.048,1.115l1.385,1.508c0.148,0.162,0.357,0.254,0.576,0.256
		c0.002,0,0.003,0,0.005,0c0.217,0,0.425-0.09,0.575-0.248l3.204-3.4C193.448,390.374,193.433,389.874,193.116,389.575z"/>
	<path style="fill:#A6A6A6;" d="M191.573,407.52c-0.436,0-0.789,0.353-0.789,0.789v0.622h-3.91v-3.654h3.193
		c0.436,0,0.789-0.353,0.789-0.789c0-0.436-0.353-0.789-0.789-0.789h-3.982c-0.436,0-0.789,0.353-0.789,0.789v5.233
		c0,0.436,0.353,0.789,0.789,0.789h5.489c0.436,0,0.789-0.353,0.789-0.789v-1.412C192.362,407.873,192.009,407.52,191.573,407.52z"
		/>
	<path style="fill:#A6A6A6;" d="M192,403.947l-2.622,2.782l-0.811-0.883c-0.295-0.321-0.794-0.342-1.115-0.048
		c-0.321,0.295-0.343,0.794-0.048,1.115l1.385,1.508c0.148,0.162,0.357,0.254,0.576,0.256c0.002,0,0.003,0,0.005,0
		c0.217,0,0.425-0.09,0.575-0.248l3.204-3.4c0.299-0.317,0.284-0.817-0.033-1.116C192.798,403.615,192.299,403.63,192,403.947z"/>
	<path style="fill:#A6A6A6;" d="M182.789,384.854h35.053c0.436,0,0.789-0.353,0.789-0.789v-11.275c0-0.436-0.353-0.789-0.789-0.789
		h-2.345c-0.436,0-0.789,0.353-0.789,0.789c0,0.436,0.353,0.789,0.789,0.789h1.555v9.696h-33.474v-9.696h29.276
		c0.436,0,0.789-0.353,0.789-0.789c0-0.436-0.353-0.789-0.789-0.789h-30.065c-0.436,0-0.789,0.353-0.789,0.789v11.275
		C182,384.501,182.353,384.854,182.789,384.854z"/>
</g>
</svg>
