<?xml version="1.0" encoding="iso-8859-1"?>
<!-- Generator: Adobe Illustrator 21.1.0, SVG Export Plug-In . SVG Version: 6.00 Build 0)  -->
<svg version="1.1" id="Layer_1" xmlns="http://www.w3.org/2000/svg" xmlns:xlink="http://www.w3.org/1999/xlink" x="0px" y="0px"
	 viewBox="177 367 60 60" style="enable-background:new 177 367 60 60;" xml:space="preserve">
<g>
	<linearGradient id="SVGID_1_" gradientUnits="userSpaceOnUse" x1="188.6129" y1="366.879" x2="188.6129" y2="427.1023">
		<stop  offset="0" style="stop-color:#ED1C24"/>
		<stop  offset="1" style="stop-color:#333333"/>
	</linearGradient>
	<path style="fill:url(#SVGID_1_);" d="M196.355,396.032h-15.484v9.677h15.484V396.032z M194.419,403.774h-11.613v-5.806h11.613
		V403.774z"/>
	<linearGradient id="SVGID_2_" gradientUnits="userSpaceOnUse" x1="195.3871" y1="366.879" x2="195.3871" y2="427.1023">
		<stop  offset="0" style="stop-color:#ED1C24"/>
		<stop  offset="1" style="stop-color:#333333"/>
	</linearGradient>
	<rect x="194.419" y="407.645" style="fill:url(#SVGID_2_);" width="1.935" height="1.935"/>
	<linearGradient id="SVGID_3_" gradientUnits="userSpaceOnUse" x1="189.5806" y1="366.879" x2="189.5806" y2="427.1023">
		<stop  offset="0" style="stop-color:#ED1C24"/>
		<stop  offset="1" style="stop-color:#333333"/>
	</linearGradient>
	<rect x="186.677" y="407.645" style="fill:url(#SVGID_3_);" width="5.806" height="1.935"/>
	<linearGradient id="SVGID_4_" gradientUnits="userSpaceOnUse" x1="207" y1="366.879" x2="207" y2="427.1023">
		<stop  offset="0" style="stop-color:#ED1C24"/>
		<stop  offset="1" style="stop-color:#333333"/>
	</linearGradient>
	<path style="fill:url(#SVGID_4_);" d="M230.226,406.758v-26.209c0-3.427-2.558-6.267-5.864-6.713
		c-0.367-2.901-2.473-5.32-5.371-6.045c-2.099-0.525-4.261-0.791-6.423-0.791h-0.852c-1.245,0-2.506,0.09-3.746,0.265
		c-7.174,1.026-12.584,7.264-12.584,14.511v10.385h-14.516c-2.135,0-3.871,1.736-3.871,3.871v27.097
		c0,2.135,1.736,3.871,3.871,3.871h18.387h0.968H237v-9.072C237,413.106,234.332,408.872,230.226,406.758z M197.323,381.776
		c0-6.289,4.695-11.705,10.921-12.594c1.15-0.164,2.319-0.247,3.473-0.247h0.852c2.004,0,4.008,0.247,5.955,0.733
		c2.331,0.584,3.961,2.67,3.961,5.074v0.968h0.968c2.668,0,4.839,2.171,4.839,4.839v25.411c-0.373-0.119-0.753-0.225-1.142-0.313
		l-7.568-1.681v-2.391c2.925-2.111,4.839-5.538,4.839-9.413v-12.581h-1.935v0.484l-0.84,0.63c-1.539,1.155-3.445,1.789-5.367,1.789
		h-7.107c-2.183,0-4.268,0.64-6.041,1.828v-0.86h-1.935v8.71c0,3.875,1.914,7.303,4.839,9.413v2.391l-5.806,1.289v-13.094h-2.903
		L197.323,381.776L197.323,381.776z M200.226,407.239l2.47-0.549l-2.47,6.586V407.239z M204.951,406.189l1.38-0.307l0.526,1.756
		c0.963,3.208,2.064,5.535,3.229,7.996c0.586,1.239,1.193,2.52,1.83,4.005l0.407,0.951l-9.971-7.478L204.951,406.189z
		 M222.484,386.626l-0.902,0.301c-0.795-0.93-2.041-1.54-3.453-1.54c-1.605,0-2.994,0.784-3.749,1.935h-3.147
		c-0.756-1.152-2.145-1.935-3.749-1.935c-1.412,0-2.657,0.61-3.453,1.539l-0.775-0.258c1.635-1.449,3.71-2.248,5.914-2.248h7.107
		c2.208,0,4.395-0.697,6.207-1.956V386.626z M220.548,389.258c0,1.067-1.085,1.935-2.419,1.935s-2.419-0.868-2.419-1.935
		s1.085-1.935,2.419-1.935S220.548,388.191,220.548,389.258z M207.484,387.323c1.335,0,2.419,0.868,2.419,1.935
		s-1.085,1.935-2.419,1.935s-2.419-0.868-2.419-1.935S206.149,387.323,207.484,387.323z M203.129,389.258v-0.593l0.065,0.021
		C203.162,388.875,203.129,389.063,203.129,389.258c0,2.135,1.954,3.871,4.355,3.871s4.355-1.736,4.355-3.871h1.935
		c0,2.135,1.954,3.871,4.355,3.871s4.355-1.736,4.355-3.871c0-0.195-0.033-0.383-0.065-0.572l0.065-0.021v0.593v2.903
		c0,5.336-4.341,9.677-9.677,9.677c-5.336,0-9.677-4.341-9.677-9.677V389.258z M212.806,403.774c1.728,0,3.364-0.39,4.839-1.069
		v1.895l-0.745,2.482c-0.92,3.068-1.942,5.225-3.125,7.724c-0.316,0.669-0.639,1.35-0.97,2.07c-0.331-0.72-0.653-1.4-0.97-2.07
		c-1.183-2.499-2.204-4.657-3.125-7.724l-0.743-2.482v-1.895C209.443,403.384,211.078,403.774,212.806,403.774z M213.696,419.639
		c0.636-1.484,1.243-2.766,1.83-4.005c1.165-2.462,2.266-4.787,3.229-7.996l0.526-1.756l1.38,0.307l2.597,6.924l-9.971,7.478
		L213.696,419.639z M178.935,396.032c0-1.067,0.868-1.935,1.935-1.935h17.419v25.161h-17.419c-0.705,0-1.365,0.189-1.935,0.52
		V396.032z M195.907,425.065h-15.036c-1.067,0-1.935-0.868-1.935-1.935s0.868-1.935,1.935-1.935h15.036
		c-0.331,0.57-0.52,1.231-0.52,1.935C195.387,423.834,195.576,424.495,195.907,425.065z M235.065,425.065h-7.742v-3.871h-1.935
		v3.871h-25.161h-0.968c-1.067,0-1.935-0.868-1.935-1.935s0.868-1.935,1.935-1.935h0.968v-7.258l12.581,9.435l12.773-9.58
		l-2.662-7.101l3.812,0.848c4.907,1.09,8.335,5.363,8.335,10.391V425.065z"/>
</g>
</svg>
