<?xml version="1.0" encoding="iso-8859-1"?>
<!-- Generator: Adobe Illustrator 21.1.0, SVG Export Plug-In . SVG Version: 6.00 Build 0)  -->
<svg version="1.1" id="&#x421;&#x43B;&#x43E;&#x439;_1"
	 xmlns="http://www.w3.org/2000/svg" xmlns:xlink="http://www.w3.org/1999/xlink" x="0px" y="0px" viewBox="0 0 70 70"
	 style="enable-background:new 0 0 70 70;" xml:space="preserve">
<g>
	<path style="fill:#353535;" d="M64.531,5.469h-1.094V3.281C63.437,1.472,61.965,0,60.156,0c-1.809,0-3.281,1.472-3.281,3.281v2.188
		h-43.75V3.281C13.125,1.472,11.653,0,9.844,0c-1.81,0-3.282,1.472-3.282,3.281v2.188H5.469C2.453,5.469,0,7.922,0,10.937v48.125
		c0,3.015,2.453,5.469,5.469,5.469H17.5c0.604,0,1.094-0.49,1.094-1.094c0-0.604-0.49-1.093-1.094-1.093H5.469
		c-1.809,0-3.281-1.472-3.281-3.281V17.5h52.5c0.604,0,1.093-0.489,1.093-1.093c0-0.604-0.489-1.093-1.093-1.093h-52.5v-4.375
		c0-1.809,1.472-3.281,3.281-3.281h1.093v2.188c0,1.809,1.472,3.281,3.282,3.281c1.809,0,3.281-1.472,3.281-3.281V7.656h43.75v2.188
		c0,1.809,1.472,3.281,3.281,3.281c1.809,0,3.281-1.472,3.281-3.281V7.656h1.094c1.809,0,3.281,1.472,3.281,3.281v4.375h-2.188
		c-0.604,0-1.093,0.489-1.093,1.093c0,0.604,0.489,1.093,1.093,1.093h2.188v41.563c0,1.809-1.472,3.281-3.281,3.281H52.5
		c-0.604,0-1.094,0.489-1.094,1.093c0,0.604,0.49,1.094,1.094,1.094h12.032c3.015,0,5.469-2.453,5.469-5.469V10.937
		C70,7.922,67.547,5.469,64.531,5.469L64.531,5.469z M10.937,9.844c0,0.603-0.491,1.093-1.093,1.093
		c-0.604,0-1.094-0.491-1.094-1.093V3.281c0-0.603,0.491-1.093,1.094-1.093c0.603,0,1.093,0.491,1.093,1.093V9.844z M60.156,10.937
		c-0.603,0-1.093-0.491-1.093-1.093V3.281c0-0.603,0.491-1.093,1.093-1.093c0.603,0,1.093,0.491,1.093,1.093V6.56
		c0,0.001,0,0.001,0,0.002c0,0.001,0,0.002,0,0.003v3.279C61.249,10.447,60.759,10.937,60.156,10.937L60.156,10.937z M60.156,10.937
		"/>
	<path style="fill:#353535;" d="M61.249,17.5c0.604,0,1.094-0.489,1.094-1.093c0-0.604-0.49-1.093-1.094-1.093h-2.187
		c-0.604,0-1.094,0.489-1.094,1.093c0,0.604,0.49,1.093,1.094,1.093H61.249z M61.249,17.5"/>
	<path style="fill:#353535;" d="M33.906,27.344h2.188c0.604,0,1.094-0.49,1.094-1.093c0-0.604-0.49-1.094-1.094-1.094h-2.188
		c-0.603,0-1.093,0.49-1.093,1.094C32.812,26.854,33.302,27.344,33.906,27.344L33.906,27.344z M33.906,27.344"/>
	<path style="fill:#353535;" d="M33.906,32.812h2.188c0.604,0,1.094-0.49,1.094-1.093c0-0.604-0.49-1.094-1.094-1.094h-2.188
		c-0.603,0-1.093,0.49-1.093,1.094C32.812,32.322,33.302,32.812,33.906,32.812L33.906,32.812z M33.906,32.812"/>
	<path style="fill:#353535;" d="M41.562,27.344h2.188c0.604,0,1.093-0.49,1.093-1.093c0-0.604-0.489-1.094-1.093-1.094h-2.188
		c-0.604,0-1.093,0.49-1.093,1.094C40.469,26.854,40.958,27.344,41.562,27.344L41.562,27.344z M41.562,27.344"/>
	<path style="fill:#353535;" d="M41.562,32.812h2.188c0.604,0,1.093-0.49,1.093-1.093c0-0.604-0.489-1.094-1.093-1.094h-2.188
		c-0.604,0-1.093,0.49-1.093,1.094C40.469,32.322,40.958,32.812,41.562,32.812L41.562,32.812z M41.562,32.812"/>
	<path style="fill:#353535;" d="M26.25,27.344h2.187c0.604,0,1.094-0.49,1.094-1.093c0-0.604-0.49-1.094-1.094-1.094H26.25
		c-0.604,0-1.094,0.49-1.094,1.094C25.156,26.854,25.646,27.344,26.25,27.344L26.25,27.344z M26.25,27.344"/>
	<path style="fill:#353535;" d="M26.25,32.812h2.187c0.604,0,1.094-0.49,1.094-1.093c0-0.604-0.49-1.094-1.094-1.094H26.25
		c-0.604,0-1.094,0.49-1.094,1.094C25.156,32.322,25.646,32.812,26.25,32.812L26.25,32.812z M26.25,32.812"/>
	<path style="fill:#353535;" d="M18.594,27.344h2.188c0.603,0,1.093-0.49,1.093-1.093c0-0.604-0.49-1.094-1.093-1.094h-2.188
		c-0.604,0-1.094,0.49-1.094,1.094C17.5,26.854,17.99,27.344,18.594,27.344L18.594,27.344z M18.594,27.344"/>
	<path style="fill:#353535;" d="M18.594,32.812h2.188c0.603,0,1.093-0.49,1.093-1.093c0-0.604-0.49-1.094-1.093-1.094h-2.188
		c-0.604,0-1.094,0.49-1.094,1.094C17.5,32.322,17.99,32.812,18.594,32.812L18.594,32.812z M18.594,32.812"/>
	<path style="fill:#353535;" d="M18.594,38.281h2.188c0.603,0,1.093-0.49,1.093-1.093c0-0.604-0.49-1.094-1.093-1.094h-2.188
		c-0.604,0-1.094,0.49-1.094,1.094C17.5,37.791,17.99,38.281,18.594,38.281L18.594,38.281z M18.594,38.281"/>
	<path style="fill:#353535;" d="M17.82,43.43c0.204,0.204,0.487,0.32,0.774,0.32c0.288,0,0.57-0.116,0.774-0.32
		c0.204-0.204,0.32-0.487,0.32-0.774c0-0.287-0.116-0.57-0.32-0.775c-0.204-0.204-0.485-0.32-0.774-0.32
		c-0.288,0-0.57,0.116-0.774,0.32c-0.204,0.204-0.32,0.485-0.32,0.775C17.5,42.945,17.616,43.226,17.82,43.43L17.82,43.43z
		 M17.82,43.43"/>
	<path style="fill:#353535;" d="M49.219,27.344h2.188c0.604,0,1.093-0.49,1.093-1.093c0-0.604-0.489-1.094-1.093-1.094h-2.188
		c-0.604,0-1.093,0.49-1.093,1.094C48.125,26.854,48.614,27.344,49.219,27.344L49.219,27.344z M49.219,27.344"/>
	<path style="fill:#353535;" d="M49.219,32.812h2.188c0.604,0,1.093-0.49,1.093-1.093c0-0.604-0.489-1.094-1.093-1.094h-2.188
		c-0.604,0-1.093,0.49-1.093,1.094C48.125,32.322,48.614,32.812,49.219,32.812L49.219,32.812z M49.219,32.812"/>
	<path style="fill:#353535;" d="M49.219,38.281h2.188c0.604,0,1.093-0.49,1.093-1.093c0-0.604-0.489-1.094-1.093-1.094h-2.188
		c-0.604,0-1.093,0.49-1.093,1.094C48.125,37.791,48.614,38.281,49.219,38.281L49.219,38.281z M49.219,38.281"/>
	<path style="fill:#353535;" d="M50.632,41.882c-0.204,0.204-0.32,0.485-0.32,0.775c0,0.288,0.116,0.57,0.32,0.774
		c0.204,0.204,0.485,0.32,0.774,0.32c0.288,0,0.57-0.116,0.774-0.32c0.204-0.204,0.32-0.487,0.32-0.774
		c0-0.289-0.116-0.57-0.32-0.775c-0.204-0.204-0.487-0.32-0.774-0.32C51.118,41.562,50.836,41.678,50.632,41.882L50.632,41.882z
		 M50.632,41.882"/>
	<path style="fill:#353535;" d="M55.781,26.25c0,0.603,0.49,1.093,1.094,1.093h2.188c0.603,0,1.093-0.49,1.093-1.093
		c0-0.604-0.49-1.094-1.093-1.094h-2.188C56.271,25.156,55.781,25.646,55.781,26.25L55.781,26.25z M55.781,26.25"/>
	<path style="fill:#353535;" d="M56.875,32.812h2.188c0.603,0,1.093-0.49,1.093-1.093c0-0.604-0.49-1.094-1.093-1.094h-2.188
		c-0.604,0-1.094,0.49-1.094,1.094C55.781,32.322,56.271,32.812,56.875,32.812L56.875,32.812z M56.875,32.812"/>
	<path style="fill:#353535;" d="M56.875,38.281h2.188c0.603,0,1.093-0.49,1.093-1.093c0-0.604-0.49-1.094-1.093-1.094h-2.188
		c-0.604,0-1.094,0.49-1.094,1.094C55.781,37.791,56.271,38.281,56.875,38.281L56.875,38.281z M56.875,38.281"/>
	<path style="fill:#353535;" d="M56.875,43.75h2.188c0.603,0,1.093-0.49,1.093-1.093c0-0.604-0.49-1.094-1.093-1.094h-2.188
		c-0.604,0-1.094,0.49-1.094,1.094C55.781,43.26,56.271,43.75,56.875,43.75L56.875,43.75z M56.875,43.75"/>
	<path style="fill:#353535;" d="M56.875,49.219h2.188c0.603,0,1.093-0.49,1.093-1.093c0-0.604-0.49-1.094-1.093-1.094h-2.188
		c-0.604,0-1.094,0.49-1.094,1.094C55.781,48.729,56.271,49.219,56.875,49.219L56.875,49.219z M56.875,49.219"/>
	<path style="fill:#353535;" d="M56.875,54.687h2.188c0.603,0,1.093-0.49,1.093-1.093c0-0.604-0.49-1.094-1.093-1.094h-2.188
		c-0.604,0-1.094,0.49-1.094,1.094C55.781,54.197,56.271,54.687,56.875,54.687L56.875,54.687z M56.875,54.687"/>
	<path style="fill:#353535;" d="M13.125,25.156h-2.188c-0.604,0-1.093,0.49-1.093,1.094c0,0.603,0.489,1.093,1.093,1.093h2.188
		c0.604,0,1.093-0.49,1.093-1.093C14.219,25.646,13.729,25.156,13.125,25.156L13.125,25.156z M13.125,25.156"/>
	<path style="fill:#353535;" d="M13.125,30.625h-2.188c-0.604,0-1.093,0.49-1.093,1.094c0,0.603,0.489,1.093,1.093,1.093h2.188
		c0.604,0,1.093-0.49,1.093-1.093C14.219,31.115,13.729,30.625,13.125,30.625L13.125,30.625z M13.125,30.625"/>
	<path style="fill:#353535;" d="M13.125,36.093h-2.188c-0.604,0-1.093,0.49-1.093,1.094c0,0.603,0.489,1.093,1.093,1.093h2.188
		c0.604,0,1.093-0.49,1.093-1.093C14.219,36.583,13.729,36.093,13.125,36.093L13.125,36.093z M13.125,36.093"/>
	<path style="fill:#353535;" d="M13.125,41.562h-2.188c-0.604,0-1.093,0.49-1.093,1.094c0,0.603,0.489,1.093,1.093,1.093h2.188
		c0.604,0,1.093-0.49,1.093-1.093C14.219,42.052,13.729,41.562,13.125,41.562L13.125,41.562z M13.125,41.562"/>
	<path style="fill:#353535;" d="M13.125,47.031h-2.188c-0.604,0-1.093,0.49-1.093,1.094c0,0.603,0.489,1.093,1.093,1.093h2.188
		c0.604,0,1.093-0.49,1.093-1.093C14.219,47.521,13.729,47.031,13.125,47.031L13.125,47.031z M13.125,47.031"/>
	<path style="fill:#353535;" d="M13.125,52.5h-2.188c-0.604,0-1.093,0.49-1.093,1.094c0,0.603,0.489,1.093,1.093,1.093h2.188
		c0.604,0,1.093-0.49,1.093-1.093C14.219,52.99,13.729,52.5,13.125,52.5L13.125,52.5z M13.125,52.5"/>
	<path style="fill:#EA1409;" d="M35,37.188c-9.046,0-16.406,7.359-16.406,16.406C18.594,62.64,25.954,70,35,70
		c9.046,0,16.406-7.36,16.406-16.406C51.406,44.547,44.046,37.188,35,37.188L35,37.188z M36.093,67.77v-1.052
		c0-0.603-0.489-1.093-1.093-1.093s-1.094,0.49-1.094,1.093v1.052c-6.97-0.533-12.55-6.113-13.083-13.083h1.052
		c0.604,0,1.093-0.49,1.093-1.093c0-0.604-0.489-1.094-1.093-1.094h-1.052c0.533-6.97,6.113-12.55,13.083-13.083v1.052
		c0,0.604,0.49,1.093,1.094,1.093s1.093-0.489,1.093-1.093v-1.052c6.97,0.533,12.551,6.113,13.084,13.083h-1.052
		c-0.604,0-1.094,0.49-1.094,1.094c0,0.603,0.49,1.093,1.094,1.093h1.052C48.644,61.657,43.063,67.237,36.093,67.77L36.093,67.77z
		 M36.093,67.77"/>
	<path style="fill:#EA1409;" d="M43.75,52.5h-5.657c-0.33-0.931-1.069-1.669-1.999-1.999v-5.657c0-0.603-0.489-1.093-1.093-1.093
		s-1.094,0.49-1.094,1.093V50.5c-1.272,0.451-2.187,1.668-2.187,3.094c0,1.809,1.471,3.281,3.281,3.281
		c1.426,0,2.642-0.915,3.093-2.188h5.657c0.604,0,1.093-0.49,1.093-1.093C44.843,52.99,44.354,52.5,43.75,52.5L43.75,52.5z
		 M35,54.687c-0.603,0-1.094-0.491-1.094-1.093c0-0.604,0.491-1.094,1.094-1.094c0.603,0,1.093,0.491,1.093,1.094
		C36.093,54.197,35.603,54.687,35,54.687L35,54.687z M35,54.687"/>
</g>
</svg>
