<?xml version="1.0" encoding="iso-8859-1"?>
<!-- Generator: Adobe Illustrator 21.1.0, SVG Export Plug-In . SVG Version: 6.00 Build 0)  -->
<svg version="1.1" id="Layer_1" xmlns="http://www.w3.org/2000/svg" xmlns:xlink="http://www.w3.org/1999/xlink" x="0px" y="0px"
	 viewBox="171.999 361.999 70 70" style="enable-background:new 171.999 361.999 70 70;" xml:space="preserve">
<g>
	<path style="fill:#353535;" d="M240.994,390.356l-6.141-0.614c-0.666-2.562-1.682-5.012-3.029-7.303l3.911-4.78
		c0.363-0.444,0.331-1.091-0.075-1.497l-7.823-7.823c-0.406-0.406-1.053-0.438-1.497-0.075l-4.78,3.911
		c-2.291-1.347-4.74-2.363-7.303-3.029l-0.614-6.141c-0.057-0.571-0.538-1.006-1.111-1.006h-11.064
		c-0.574,0-1.054,0.435-1.112,1.006l-0.614,6.141c-2.562,0.666-5.012,1.682-7.303,3.029l-4.78-3.911
		c-0.444-0.363-1.091-0.331-1.497,0.075l-7.823,7.824c-0.406,0.406-0.438,1.053-0.075,1.497l3.911,4.78
		c-1.347,2.291-2.363,4.74-3.029,7.303l-6.141,0.614c-0.571,0.057-1.006,0.538-1.006,1.111v11.064c0,0.574,0.435,1.054,1.006,1.112
		l6.141,0.614c0.666,2.562,1.681,5.012,3.029,7.303l-3.911,4.78c-0.363,0.444-0.331,1.091,0.075,1.497l7.823,7.823
		c0.406,0.406,1.053,0.438,1.497,0.075l4.78-3.911c2.291,1.347,4.74,2.363,7.303,3.029l0.614,6.141
		c0.057,0.571,0.538,1.006,1.112,1.006h11.064c0.574,0,1.054-0.435,1.112-1.006l0.614-6.141c2.562-0.666,5.012-1.682,7.303-3.029
		l4.78,3.911c0.444,0.363,1.091,0.331,1.497-0.075l7.823-7.823c0.406-0.406,0.438-1.053,0.075-1.497l-3.911-4.78
		c1.347-2.291,2.363-4.741,3.029-7.303l6.141-0.614c0.571-0.057,1.006-0.538,1.006-1.112v-11.064
		C242,390.893,241.565,390.413,240.994,390.356z M239.766,401.52l-5.921,0.592c-0.477,0.048-0.87,0.394-0.977,0.861
		c-0.659,2.864-1.787,5.586-3.354,8.089c-0.254,0.406-0.221,0.929,0.082,1.3l3.771,4.609l-6.394,6.394l-4.609-3.771
		c-0.371-0.304-0.894-0.337-1.3-0.082c-2.504,1.567-5.225,2.696-8.089,3.355c-0.467,0.107-0.813,0.501-0.861,0.977l-0.592,5.921
		h-9.042l-0.592-5.921c-0.048-0.477-0.394-0.87-0.861-0.977c-2.864-0.659-5.586-1.787-8.089-3.355
		c-0.406-0.254-0.929-0.221-1.3,0.082l-4.609,3.771l-6.394-6.394l3.771-4.609c0.303-0.371,0.337-0.894,0.082-1.3
		c-1.567-2.503-2.696-5.225-3.354-8.089c-0.108-0.467-0.501-0.814-0.977-0.861l-5.921-0.592v-9.042l5.921-0.592
		c0.477-0.048,0.87-0.394,0.977-0.861c0.659-2.864,1.787-5.586,3.354-8.089c0.254-0.406,0.221-0.929-0.082-1.3l-3.771-4.609
		l6.394-6.394l4.609,3.771c0.371,0.304,0.894,0.337,1.3,0.082c2.504-1.567,5.225-2.696,8.089-3.355
		c0.467-0.107,0.813-0.501,0.861-0.977l0.592-5.921h9.042l0.592,5.921c0.048,0.477,0.394,0.87,0.861,0.977
		c2.864,0.659,5.586,1.787,8.089,3.355c0.406,0.254,0.929,0.221,1.3-0.082l4.609-3.771l6.394,6.394l-3.771,4.609
		c-0.303,0.371-0.337,0.894-0.082,1.3c1.567,2.503,2.696,5.225,3.354,8.089c0.108,0.467,0.501,0.813,0.977,0.861l5.921,0.592V401.52
		z"/>
	<path style="fill:#353535;" d="M207,372.648c-6.096,0-11.929,2.264-16.425,6.374c-4.466,4.083-7.241,9.636-7.814,15.637
		c-0.059,0.614,0.392,1.159,1.006,1.218c0.617,0.059,1.159-0.392,1.218-1.006c1.088-11.396,10.552-19.989,22.015-19.989
		c12.195,0,22.117,9.922,22.117,22.117c0,12.195-9.922,22.117-22.117,22.117c-11.463,0-20.928-8.594-22.015-19.989
		c-0.059-0.614-0.606-1.064-1.218-1.006c-0.614,0.059-1.064,0.604-1.006,1.218c0.573,6,3.348,11.554,7.814,15.637
		c4.496,4.11,10.329,6.374,16.425,6.374c13.427,0,24.351-10.924,24.351-24.351S220.427,372.648,207,372.648z"/>
	<path style="fill:#EA1409;" d="M207,416.882c10.964,0,19.883-8.919,19.883-19.883c0-10.964-8.92-19.883-19.883-19.883
		c-10.964,0-19.883,8.919-19.883,19.883C187.117,407.963,196.036,416.882,207,416.882z M203.225,392.748h7.549l3.348,6.696h-14.245
		L203.225,392.748z M204.342,390.514l2.658-5.315l2.658,5.315L204.342,390.514L204.342,390.514z M199.187,401.678h15.626v11.143
		c-2.041,1.012-4.305,1.64-6.696,1.79v-9.586c0-0.617-0.5-1.117-1.117-1.117c-0.617,0-1.117,0.5-1.117,1.117v9.586
		c-2.391-0.15-4.655-0.778-6.696-1.79V401.678L199.187,401.678z M207,379.35c9.732,0,17.649,7.917,17.649,17.649
		c0,6.001-3.012,11.311-7.602,14.502v-10.94c0-0.042-0.003-0.083-0.007-0.123c-0.001-0.01-0.003-0.02-0.005-0.03
		c-0.004-0.031-0.009-0.062-0.016-0.092c-0.003-0.011-0.006-0.022-0.008-0.033c-0.008-0.029-0.016-0.058-0.026-0.087
		c-0.004-0.011-0.008-0.021-0.012-0.032c-0.011-0.028-0.023-0.056-0.036-0.084c-0.003-0.006-0.005-0.013-0.008-0.019l-8.93-17.86
		c-0.189-0.378-0.576-0.617-0.999-0.617c-0.423,0-0.81,0.239-0.999,0.617l-8.93,17.86c-0.003,0.006-0.005,0.013-0.008,0.019
		c-0.013,0.027-0.025,0.055-0.036,0.083c-0.004,0.011-0.008,0.021-0.012,0.032c-0.01,0.028-0.018,0.057-0.026,0.087
		c-0.003,0.011-0.006,0.022-0.008,0.033c-0.007,0.03-0.012,0.061-0.016,0.092c-0.001,0.01-0.003,0.02-0.005,0.03
		c-0.004,0.041-0.007,0.082-0.007,0.123v10.94c-4.591-3.19-7.602-8.5-7.602-14.501C189.351,387.267,197.268,379.35,207,379.35z"/>
</g>
</svg>
