<?xml version="1.0" encoding="iso-8859-1"?>
<!-- Generator: Adobe Illustrator 21.1.0, SVG Export Plug-In . SVG Version: 6.00 Build 0)  -->
<svg version="1.1" id="&#x421;&#x43B;&#x43E;&#x439;_1"
	 xmlns="http://www.w3.org/2000/svg" xmlns:xlink="http://www.w3.org/1999/xlink" x="0px" y="0px" viewBox="0 0 70 70"
	 style="enable-background:new 0 0 70 70;" xml:space="preserve">
<g>
	<g>
		<path style="fill:#353535;" d="M16.847,29.836c-2.259,0-4.089,1.846-4.089,4.124c0,2.272,1.831,4.124,4.089,4.124
			c2.253,0,4.084-1.852,4.084-4.124C20.931,31.682,19.1,29.836,16.847,29.836L16.847,29.836z M16.847,35.726
			c-0.969,0-1.756-0.794-1.756-1.765c0-0.978,0.787-1.765,1.756-1.765c0.964,0,1.751,0.788,1.751,1.765
			C18.597,34.932,17.811,35.726,16.847,35.726L16.847,35.726z"/>
		<path style="fill:#353535;" d="M70,38.084c0-1.811-0.683-3.457-1.796-4.71c0.108-1.363-0.114-2.743-0.679-4.021
			c-0.263-0.592-0.952-0.863-1.54-0.592c-0.587,0.265-0.856,0.96-0.587,1.553c0.183,0.42,0.308,0.851,0.393,1.294
			c-0.86-0.38-1.802-0.593-2.799-0.593c-0.069,0-0.126,0.029-0.194,0.041c-0.131-0.012-0.257-0.041-0.388-0.041
			c-0.291,0-0.565,0.041-0.838,0.087c-2.183-5.228-5.947-9.482-10.974-12.403c-0.306,0.735-0.698,1.428-1.172,2.063
			c0.189,0.076,0.38,0.149,0.529,0.269c4.31,2.642,7.558,6.375,9.467,10.927c-0.239,0.161-0.456,0.356-0.667,0.558
			c-0.034,0.034-0.074,0.075-0.108,0.109c-0.445,0.455-0.793,0.984-1.05,1.564c-0.012,0.035-0.028,0.069-0.045,0.099
			c-0.114,0.287-0.206,0.586-0.274,0.891c-0.01,0.057-0.016,0.11-0.028,0.168c-0.057,0.315-0.096,0.638-0.096,0.966
			c0,0.35,0.034,0.691,0.102,1.023c0.022,0.115,0.063,0.219,0.091,0.322c0.057,0.218,0.114,0.431,0.194,0.633
			c0.051,0.127,0.114,0.236,0.171,0.356c0.086,0.178,0.177,0.35,0.28,0.517c0.074,0.116,0.159,0.225,0.245,0.334
			c0.114,0.15,0.222,0.293,0.353,0.431c0.096,0.103,0.2,0.196,0.302,0.293c0.137,0.127,0.273,0.241,0.422,0.35
			c0.114,0.087,0.234,0.162,0.353,0.237c0.155,0.097,0.32,0.188,0.485,0.269c0.131,0.057,0.257,0.121,0.388,0.166
			c0.177,0.069,0.359,0.127,0.542,0.174c0.143,0.034,0.273,0.074,0.416,0.097c0.057,0.012,0.114,0.034,0.171,0.04
			c0.104,1.185,0.155,2.387,0.155,3.59c0,5.549-2.043,10.364-5.612,14.027c-0.006,0.012-0.017,0.024-0.029,0.029
			c-0.467,0.483-0.975,0.942-1.499,1.385c-0.126,0.103-0.263,0.208-0.387,0.311c-0.394,0.311-0.793,0.61-1.21,0.903
			c-0.182,0.127-0.359,0.253-0.542,0.374c-0.53,0.346-1.072,0.679-1.637,0.989c-0.194,0.103-0.393,0.202-0.587,0.299
			c-0.428,0.219-0.861,0.431-1.307,0.627c-0.239,0.109-0.479,0.214-0.73,0.317c-0.524,0.212-1.066,0.42-1.619,0.604
			c-0.12,0.046-0.239,0.093-0.365,0.133l-0.045,0.018c-3.138,1.012-6.645,1.558-10.438,1.558c-4.814,0-9.308-0.782-13.248-2.191
			c-0.234-0.081-0.467-0.16-0.696-0.247c-6.666-2.547-11.611-6.936-13.493-12.452L8.11,51.037H5.738
			c-2.812,0-3.399-2.749-3.399-5.062v-4.243c0-4.827,2.559-4.827,3.399-4.827h3.507l0.137-1.017c0.616-4.411,0.924-6.626,4.186-9.8
			l0.604-0.587l-0.359-0.764c-0.296-0.633-0.548-1.33-0.816-2.066c-0.558-1.552-1.174-3.25-2.321-4.538
			c2.225,0.172,4.911,0.956,8.652,2.491l0.445,0.178l0.445-0.184c0.664-0.284,1.629-0.634,2.721-1.003
			c-0.296-0.724-0.523-1.478-0.684-2.25c-0.953,0.318-1.811,0.627-2.494,0.894c-5.122-2.058-8.452-2.773-11.435-2.438
			c-0.707,0.081-1.266,0.61-1.386,1.316c-0.126,0.72,0.234,1.409,0.883,1.726c1.585,0.772,2.264,2.634,2.977,4.613
			c0.183,0.495,0.365,1.001,0.565,1.502c-3.046,3.175-3.611,5.757-4.157,9.571H5.738C2.094,34.548,0,37.164,0,41.732v4.249
			c0,4.642,2.145,7.413,5.738,7.413h0.724c0.856,2.181,2.121,4.176,3.719,5.965l-1.615,4.067c-0.581,1.478-0.404,3.152,0.479,4.469
			C9.929,69.212,11.401,70,12.981,70h7.869c0.999,0,1.882-0.604,2.253-1.536l0.428-1.082c3.724,1.104,7.871,1.698,12.284,1.698
			c3.616,0,6.992-0.461,10.067-1.33v0.018C46.281,69.102,47.479,70,48.859,70h7.026c1.678,0,3.194-0.794,4.158-2.169
			c0.97-1.38,1.203-3.083,0.644-4.682l-1.362-3.905c3.091-3.853,4.835-8.656,4.835-14.097c0-0.035-0.006-0.069-0.006-0.103
			C67.468,44.481,70,41.575,70,38.084z M20.85,67.641h-7.869c-0.816,0-1.546-0.39-2.002-1.069c-0.457-0.679-0.543-1.508-0.241-2.272
			l1.238-3.123c2.533,2.276,5.687,4.123,9.302,5.464L20.85,67.641z M58.137,66.468c-0.524,0.748-1.346,1.174-2.253,1.174h-7.026
			c-0.343,0-0.639-0.218-0.736-0.552L48.1,67.026c3.707-1.346,6.896-3.319,9.433-5.809l0.953,2.721
			C58.789,64.801,58.663,65.721,58.137,66.468z M62.637,39.228c-0.069,0.006-0.131,0.018-0.228,0.029
			c-1.613,0-2.92-1.318-2.92-2.945c0-0.184,0.023-0.362,0.051-0.535c0.012-0.047,0.023-0.099,0.035-0.144
			c0.028-0.133,0.069-0.259,0.114-0.38c0.017-0.046,0.034-0.085,0.051-0.133c0.137-0.311,0.331-0.598,0.565-0.845
			c0.039-0.04,0.085-0.081,0.131-0.121c0.073-0.069,0.153-0.138,0.239-0.202c0.063-0.046,0.126-0.091,0.193-0.133
			c0.063-0.046,0.137-0.08,0.212-0.115c0.08-0.04,0.153-0.085,0.239-0.121l0.012-0.006c0.336-0.131,0.695-0.212,1.072-0.212
			c1.609,0,2.92,1.322,2.92,2.945c0,1.478-1.083,2.692-2.486,2.905L62.637,39.228z M64.087,42.652
			c-0.023-0.437-0.074-0.869-0.109-1.306c1.854-0.592,3.269-2.175,3.599-4.148c0.051,0.289,0.086,0.582,0.086,0.886
			C67.663,40.299,66.134,42.151,64.087,42.652z"/>
		<path style="fill:#353535;" d="M37.185,61.758c-5.304,0.467-9.708-0.241-14.28-2.284c-0.594-0.264-1.283,0.006-1.54,0.599
			c-0.263,0.598,0.006,1.294,0.593,1.552c3.958,1.767,7.922,2.624,12.279,2.624c1.026,0,2.076-0.053,3.148-0.144
			c0.645-0.057,1.124-0.627,1.067-1.277C38.394,62.183,37.823,61.688,37.185,61.758L37.185,61.758z M37.185,61.758"/>
	</g>
	<g>
		<path style="fill:#E8180C;" d="M47.617,24.403c0.098-0.109,0.177-0.224,0.269-0.339c0.153-0.196,0.314-0.392,0.467-0.593
			c0.143-0.202,0.28-0.402,0.416-0.61c0.114-0.172,0.223-0.339,0.326-0.517c0.137-0.225,0.273-0.455,0.399-0.691
			c0.023-0.051,0.057-0.099,0.086-0.15c0.052,0.031,0.948-2.137,0.907-2.161c0.491-1.478,0.753-3.038,0.753-4.619
			C51.239,6.602,44.691,0,36.639,0c-8.048,0-14.6,6.602-14.6,14.724c0,1.11,0.126,2.197,0.365,3.244
			c-0.075,0.025,0.646,2.263,0.707,2.242c0.234,0.587,0.508,1.145,0.81,1.692c0.022,0.046,0.045,0.085,0.069,0.133
			c0.279,0.483,0.581,0.948,0.913,1.397c0.057,0.081,0.114,0.166,0.177,0.241c0.308,0.408,0.644,0.788,0.991,1.162
			c0.092,0.091,0.166,0.19,0.257,0.281c0.074,0.075,0.143,0.144,0.223,0.219c-0.634,0.489-1.256,1.006-1.831,1.593
			c-0.457,0.459-0.457,1.201,0,1.662c0.456,0.459,1.191,0.459,1.648,0c0.764-0.766,1.586-1.439,2.451-2.019l0.188-0.121
			c0.353-0.237,0.718-0.449,1.089-0.651c0.149-0.08,0.296-0.155,0.451-0.23c0.291-0.15,0.587-0.287,0.889-0.42
			c0.12-0.051,0.234-0.103,0.359-0.15c0.422-0.172,0.85-0.321,1.283-0.453c0.074-0.024,0.149-0.041,0.218-0.063
			c0.428-0.121,0.855-0.231,1.283-0.317c0.039-0.006,0.079-0.018,0.124-0.024c3.012-0.58,6.154-0.287,9.035,0.88
			c0.029,0.012,0.057,0.024,0.086,0.034c1.916,0.788,3.713,1.967,5.269,3.532c0.228,0.23,0.53,0.345,0.826,0.345
			c0.298,0,0.6-0.115,0.828-0.345c0.456-0.461,0.456-1.203,0-1.662C49.779,25.951,48.724,25.116,47.617,24.403z M45.08,23.052
			c-0.342-0.15-0.691-0.281-1.038-0.414c-0.302-0.109-0.599-0.225-0.907-0.317c-0.331-0.103-0.661-0.184-0.999-0.265
			c-0.605-0.149-1.221-0.269-1.835-0.356c-0.292-0.04-0.583-0.091-0.879-0.121c-0.365-0.034-0.73-0.04-1.095-0.051
			c-0.296-0.012-0.593-0.018-0.895-0.012c-0.349,0.006-0.702,0.024-1.05,0.046c-0.331,0.029-0.661,0.063-0.993,0.11
			c-0.314,0.04-0.626,0.074-0.94,0.131c-0.445,0.081-0.891,0.19-1.334,0.305c-0.188,0.053-0.388,0.087-0.577,0.144
			c-0.644,0.19-1.278,0.42-1.899,0.685c-0.142,0.057-0.279,0.132-0.422,0.196c-0.501,0.224-0.991,0.471-1.476,0.742
			c-0.069,0.04-0.143,0.069-0.206,0.109c-0.394-0.346-0.753-0.719-1.095-1.11c-0.045-0.058-0.086-0.109-0.131-0.166
			c-0.308-0.362-0.593-0.736-0.856-1.134c-0.017-0.028-0.039-0.063-0.057-0.091c-0.581-0.892-1.05-1.864-1.386-2.899l-0.126-0.392
			c-0.326-1.116-0.508-2.278-0.508-3.467c0-6.822,5.498-12.373,12.263-12.373s12.267,5.551,12.267,12.373
			c0,1.478-0.269,2.904-0.753,4.251l-0.183,0.442c-0.581,1.409-1.419,2.715-2.445,3.814C45.376,23.161,45.229,23.115,45.08,23.052z"
			/>
		<path style="fill:#E8180C;" d="M30.65,22.017c0.217,0.166,0.467,0.247,0.718,0.247c0.349,0,0.691-0.16,0.924-0.461
			c0.394-0.511,0.302-1.253-0.21-1.651c-1.842-1.437-2.898-3.606-2.898-5.941c0-4.146,3.342-7.517,7.455-7.517
			c4.111,0,7.453,3.37,7.453,7.517c0,2.111-0.85,4.073-2.4,5.516c-0.474,0.443-0.502,1.185-0.063,1.662
			c0.438,0.477,1.174,0.506,1.654,0.069c2.002-1.87,3.148-4.508,3.148-7.247c0-5.441-4.392-9.875-9.792-9.875
			s-9.792,4.435-9.792,9.875C26.847,17.283,28.233,20.125,30.65,22.017L30.65,22.017z M30.65,22.017"/>
	</g>
</g>
</svg>
