<?xml version="1.0" encoding="iso-8859-1"?>
<!-- Generator: Adobe Illustrator 21.1.0, SVG Export Plug-In . SVG Version: 6.00 Build 0)  -->
<svg version="1.1" id="&#x421;&#x43B;&#x43E;&#x439;_1"
	 xmlns="http://www.w3.org/2000/svg" xmlns:xlink="http://www.w3.org/1999/xlink" x="0px" y="0px" viewBox="0 0 70 70.164"
	 style="enable-background:new 0 0 70 70.164;" xml:space="preserve">
<g>
	<path style="fill:#E9170B;" d="M25.647,46.685c-1.791,0-3.387,1.045-4.158,2.586c-0.544-0.168-1.107-0.254-1.67-0.254
		c-3.214,0-5.829,2.615-5.829,5.829c0,0.644,0.522,1.166,1.165,1.166c0.644,0,1.166-0.522,1.166-1.166
		c0-1.928,1.569-3.497,3.497-3.497c0.618,0,1.218,0.171,1.783,0.509c0.336,0.201,0.748,0.22,1.101,0.05
		c0.352-0.167,0.597-0.501,0.652-0.888c0.162-1.141,1.148-2.003,2.293-2.003c1.204,0,2.195,0.913,2.304,2.122
		c0.045,0.496,0.398,0.907,0.879,1.027c0.483,0.12,0.987-0.078,1.259-0.496c1.081-1.661,2.908-2.654,4.883-2.654
		c1.975,0,3.802,0.992,4.884,2.654c0.271,0.418,0.778,0.616,1.259,0.496c0.481-0.12,0.834-0.532,0.878-1.027
		c0.11-1.209,1.101-2.122,2.305-2.122c1.145,0,2.131,0.862,2.293,2.003c0.055,0.387,0.3,0.72,0.652,0.888
		c0.353,0.17,0.766,0.151,1.1-0.05c0.566-0.338,1.166-0.509,1.784-0.509c1.928,0,3.497,1.569,3.497,3.497
		c0,0.644,0.522,1.166,1.166,1.166c0.643,0,1.165-0.522,1.165-1.166c0-3.214-2.615-5.829-5.829-5.829
		c-0.563,0-1.126,0.086-1.67,0.254c-0.772-1.541-2.368-2.586-4.158-2.586c-1.62,0-3.047,0.818-3.88,2.085
		c-1.478-1.33-3.405-2.085-5.446-2.085c-2.041,0-3.968,0.755-5.447,2.085C28.694,47.504,27.267,46.685,25.647,46.685L25.647,46.685z
		 M25.647,46.685"/>
	<path style="fill:#E9170B;" d="M39.635,18.707c0-2.571-2.091-4.663-4.663-4.663c-2.572,0-4.663,2.092-4.663,4.663
		c0,2.572,2.091,4.663,4.663,4.663C37.544,23.37,39.635,21.279,39.635,18.707L39.635,18.707z M34.973,21.038
		c-1.286,0-2.332-1.046-2.332-2.331c0-1.286,1.046-2.332,2.332-2.332c1.285,0,2.331,1.046,2.331,2.332
		C37.304,19.992,36.258,21.038,34.973,21.038L34.973,21.038z M34.973,21.038"/>
	<path style="fill:#E9170B;" d="M33.807,33.862v9.326c0,0.644,0.522,1.166,1.166,1.166c0.643,0,1.165-0.522,1.165-1.166v-9.326
		c0-0.644-0.522-1.166-1.165-1.166C34.329,32.696,33.807,33.218,33.807,33.862L33.807,33.862z M33.807,33.862"/>
	<path style="fill:#353535;" d="M3.497,60.674c0.643,0,1.165-0.522,1.165-1.165V24.536c0-1.7,1.798-3.497,3.497-3.497h13.989
		c0.643,0,1.165-0.522,1.165-1.165c0-0.644-0.522-1.166-1.165-1.166H8.16c-2.996,0-5.829,2.833-5.829,5.829v34.973
		C2.331,60.152,2.854,60.674,3.497,60.674L3.497,60.674z M3.497,60.674"/>
	<g>
		<defs>
			<rect id="SVGID_1_" width="70" height="70.164"/>
		</defs>
		<clipPath id="SVGID_2_">
			<use xlink:href="#SVGID_1_"  style="overflow:visible;"/>
		</clipPath>
		<path style="clip-path:url(#SVGID_2_);fill:#353535;" d="M68.78,58.343h-1.166V24.536c0-2.996-2.832-5.829-5.829-5.829H47.796
			c-0.644,0-1.166,0.522-1.166,1.165c0,0.644,0.522,1.166,1.166,1.166h13.989c1.7,0,3.497,1.798,3.497,3.497v34.972
			c0,0.644,0.522,1.166,1.166,1.166h1.165v3.497c0,1.7-1.797,3.497-3.497,3.497H5.829c-1.309,0-2.676-1.065-3.235-2.332h61.523
			c0.643,0,1.165-0.522,1.165-1.165c0-0.644-0.522-1.166-1.165-1.166H1.166C0.522,63.005,0,63.527,0,64.171
			C0,67.167,2.833,70,5.829,70h58.288c2.996,0,5.829-2.833,5.829-5.829v-4.663C69.946,58.865,69.423,58.343,68.78,58.343
			L68.78,58.343z M68.78,58.343"/>
		<path style="clip-path:url(#SVGID_2_);fill:#E9170B;" d="M20.983,40.857c0,0.643,0.522,1.165,1.166,1.165h3.497v1.166
			c0,0.643,0.522,1.165,1.165,1.165c0.644,0,1.166-0.522,1.166-1.165v-1.166h2.331c0.644,0,1.166-0.522,1.166-1.165
			c0-0.644-0.522-1.166-1.166-1.166h-6.995v-1.165c0-3.436,1.177-4.876,2.421-6.4c1.102-1.35,2.242-2.746,2.242-5.258V15.21
			c0-4.07,1.915-6.092,2.061-6.248l4.934-5.92l4.999,5.992c0.08,0.084,1.996,2.107,1.996,6.176v11.657
			c0,2.511,1.14,3.907,2.241,5.258c1.245,1.525,2.421,2.964,2.421,6.4v1.166h-6.995c-0.643,0-1.165,0.522-1.165,1.166
			c0,0.643,0.522,1.165,1.165,1.165h2.332v1.166c0,0.643,0.522,1.165,1.165,1.165c0.644,0,1.166-0.522,1.166-1.165v-1.166h3.497
			c0.643,0,1.165-0.522,1.165-1.165v-2.332c0-4.266-1.633-6.267-2.946-7.874c-0.997-1.221-1.718-2.103-1.718-3.783V15.21
			c0-5.088-2.564-7.709-2.601-7.741l-5.829-6.994c-0.444-0.532-1.348-0.532-1.791,0L28.32,7.391
			c-0.109,0.11-2.673,2.732-2.673,7.819v11.657c0,1.68-0.72,2.562-1.718,3.783c-1.313,1.608-2.946,3.608-2.946,7.874V40.857z
			 M20.983,40.857"/>
	</g>
	<path style="fill:#353535;" d="M23.315,24.536c0-0.644-0.522-1.166-1.166-1.166H11.657c-1.596,0-4.663,1.478-4.663,3.497v32.641
		c0,0.643,0.522,1.165,1.166,1.165h53.624c0.644,0,1.166-0.522,1.166-1.165V26.867c0-1.798-1.7-3.497-3.497-3.497H47.796
		c-0.644,0-1.166,0.522-1.166,1.166c0,0.643,0.522,1.165,1.166,1.165h11.657c0.524,0,1.166,0.642,1.166,1.166v31.475H9.326
		L9.319,26.926c0.143-0.41,1.589-1.225,2.338-1.225h10.492C22.793,25.702,23.315,25.179,23.315,24.536L23.315,24.536z
		 M23.315,24.536"/>
</g>
</svg>
