<?xml version="1.0" encoding="iso-8859-1"?>
<!-- Generator: Adobe Illustrator 21.1.0, SVG Export Plug-In . SVG Version: 6.00 Build 0)  -->
<svg version="1.1" id="Layer_1" xmlns="http://www.w3.org/2000/svg" xmlns:xlink="http://www.w3.org/1999/xlink" x="0px" y="0px"
	 viewBox="176.52 359.5 60.955 75" style="enable-background:new 176.52 359.5 60.955 75;" xml:space="preserve">
<g>
	<path style="fill:#515262;" d="M192.786,405.054l-7.334,2.347c-4.912,1.572-7.759,7.078-7.759,12.236v10.175
		c0,1.942,1.575,3.517,3.517,3.517h51.578c1.942,0,3.517-1.574,3.517-3.517v-10.175c0-5.158-2.847-10.664-7.759-12.236l-7.334-2.347
		H192.786z"/>
	<polygon style="fill:#D29B6E;" points="197.62,404.022 197.62,400.506 216.376,400.506 216.376,404.022 207.036,409.89 	"/>
	<path style="fill:#F0C087;" d="M222.248,382.156v4.283c0,9.064-6.82,16.411-15.232,16.411s-15.232-7.348-15.232-16.411v-2.345
		c0,0,0.016-7.033,0.016-12.894l30.322-0.128L222.248,382.156z"/>
	<path style="fill:#E6AF78;" d="M194.389,382.379v-4.862c0,0-1.305-1.666-2.006-6.277l-0.581-0.04
		c0,5.861-0.016,12.894-0.016,12.894v2.345c0,9.064,6.82,16.411,15.232,16.411c4.616,0,8.751-2.212,11.545-5.706
		c-2.446,1.762-5.358,2.785-8.484,2.785C201.413,399.929,194.389,392.072,194.389,382.379z"/>
	<path style="fill:#7D7878;" d="M218.721,362.096c-7.522,1.446-13.49-4.829-19.928,1.157c-5.887-2.072-9.204,4.278-9.189,6.501
		c0.015,2.224,1.065,10.56,2.051,13.037c0.957-3.29,5.436-8.194,5.7-8.482c9.801,3.195,21.366,1.58,21.366,1.58l3.528,6.267
		C225.388,373.66,224.696,365.148,218.721,362.096z"/>
	<polygon style="fill:#D7DEED;" points="210.515,433.328 221.065,406.367 218.721,402.85 206.998,409.884 195.024,403.006 
		192.973,406.228 203.374,433.182 	"/>
	<g>
		<path style="fill:#65687A;" d="M196.448,433.328l-6.121-8.161c-0.524-0.698-0.454-1.676,0.163-2.293l2.441-2.441l-3.887-2.916
			c-0.497-0.372-0.759-0.98-0.691-1.597l1.062-9.555l3.119-0.871l10.693,27.686L196.448,433.328z"/>
		<path style="fill:#65687A;" d="M217.548,433.328l6.121-8.161c0.524-0.698,0.454-1.676-0.163-2.293l-2.441-2.441l3.887-2.916
			c0.497-0.372,0.76-0.98,0.691-1.597l-1.062-9.555l-3.19-1.164l-10.693,28.125L217.548,433.328L217.548,433.328z"/>
	</g>
	<g>
		<path style="fill:#E4EAF6;" d="M196.448,414.572l3.239,3.239c0.75,0.75,1.999,0.627,2.588-0.256l1.207-1.81l0.331-3.803
			l2.93-2.197l-11.426-6.885l-2.49,3.223L196.448,414.572z"/>
		<path style="fill:#E4EAF6;" d="M210.515,415.745l1.207,1.81c0.589,0.883,1.838,1.007,2.588,0.256l3.239-3.239l3.55-8.051
			l-2.49-3.516l-11.133,6.592L210.515,415.745z"/>
	</g>
	<polygon style="fill:#5B5D6E;" points="209.343,418.089 211.687,429.811 210.112,433.328 203.52,433.475 202.309,429.811 
		204.654,418.089 	"/>
	<path style="fill:#65687A;" d="M210.515,415.731c0,1.29-1.055,2.345-2.344,2.345h-2.344c-1.29,0-2.344-1.055-2.344-2.345v-2.345
		c0-1.289,1.055-2.344,2.344-2.344h2.345c1.29,0,2.344,1.055,2.344,2.344L210.515,415.731L210.515,415.731z"/>
	<g>
		<path style="fill:#515262;" d="M201.707,389.955h-2.312c-1.372,0-2.452-0.696-2.984-1.959l-1.119-2.537
			c-0.119-0.715,0.432-1.365,1.156-1.365h7.033c0.724,0,1.275,0.65,1.156,1.365l-0.618,2.537
			C203.831,389.127,202.853,389.955,201.707,389.955z"/>
		<path style="fill:#515262;" d="M212.29,389.955h2.312c1.372,0,2.452-0.696,2.984-1.959l1.119-2.537
			c0.119-0.715-0.432-1.365-1.156-1.365h-7.033c-0.724,0-1.275,0.65-1.156,1.365l0.618,2.537
			C210.166,389.127,211.144,389.955,212.29,389.955z"/>
	</g>
	<path d="M235.272,411.572c-1.571-2.629-3.774-4.457-6.371-5.288l-7.334-2.347c-0.241-0.078-0.489-0.071-0.714,0.001l-1.159-1.738
		c-0.347-0.52-1.041-0.677-1.578-0.355l-0.57,0.342v-1.681c0-0.178-0.041-0.345-0.111-0.496c3.652-3.228,5.984-8.113,5.984-13.57
		v-4.081c1.615-4.453,2.182-8.749,1.635-12.433c-0.616-4.148-2.611-7.209-5.77-8.855c-0.003-0.002-0.006-0.003-0.009-0.005
		c-0.006-0.003-0.012-0.006-0.018-0.009c-0.01-0.005-0.021-0.009-0.031-0.014c-0.021-0.01-0.043-0.021-0.065-0.03
		c-0.016-0.006-0.031-0.012-0.047-0.018c-0.02-0.007-0.04-0.014-0.06-0.021c-0.018-0.005-0.036-0.01-0.054-0.015
		c-0.018-0.005-0.037-0.009-0.056-0.013c-0.02-0.004-0.04-0.007-0.06-0.01c-0.017-0.003-0.035-0.005-0.052-0.007
		c-0.022-0.002-0.043-0.003-0.065-0.004c-0.016-0.001-0.033-0.001-0.049-0.001c-0.023,0-0.047,0.001-0.07,0.003
		c-0.015,0.001-0.029,0.002-0.044,0.003c-0.025,0.003-0.051,0.006-0.076,0.011c-0.01,0.002-0.02,0.003-0.03,0.004
		c-2.736,0.526-5.318-0.061-7.814-0.628c-3.965-0.901-8.062-1.83-12.36,1.792c-0.234-0.017-0.468-0.028-0.705-0.028
		c-5.078,0-9.223,4.01-9.371,8.994c-0.004,0.041-0.007,0.084-0.007,0.126c0,0.034,0.001,0.069,0.001,0.103
		c0,0.015-0.001,0.029-0.001,0.044c0,0.014,0.002,0.027,0.002,0.041c0.044,5.476,1.986,11.72,2.368,12.894v2.156
		c0,5.445,2.321,10.319,5.958,13.547c-0.078,0.157-0.123,0.333-0.123,0.52v1.681l-0.57-0.342c-0.536-0.322-1.231-0.166-1.578,0.355
		l-1.159,1.738c-0.224-0.072-0.472-0.078-0.714-0.001l-7.334,2.347c-2.596,0.831-4.799,2.659-6.371,5.288
		c-1.421,2.377-2.204,5.241-2.204,8.064v10.175c0,2.585,2.103,4.689,4.689,4.689h22.269c0.001,0,0.002,0,0.004,0
		c0.002,0,0.004,0,0.006,0h7.02c0.002,0,0.004,0,0.006,0c0.001,0,0.002,0,0.004,0h22.269c2.585,0,4.689-2.103,4.689-4.689v-10.175
		C237.476,416.813,236.693,413.949,235.272,411.572z M224.479,416.051c0.023,0.204-0.065,0.407-0.229,0.53l-3.887,2.915
		c-0.272,0.204-0.442,0.516-0.466,0.854c-0.024,0.339,0.1,0.671,0.34,0.912l2.441,2.441c0.203,0.204,0.227,0.531,0.054,0.761
		l-5.769,7.692h-4.731l9.924-25.362c0.024-0.062,0.041-0.126,0.054-0.19l1.263,0.404L224.479,416.051z M204.281,432.156
		l-0.825-2.108c0-0.002,0.001-0.005,0.002-0.007l2.16-10.801c0.069,0.004,0.138,0.007,0.207,0.007h2.345
		c0.07,0,0.139-0.003,0.207-0.007l2.16,10.801c0,0.003,0.001,0.005,0.002,0.007l-0.825,2.108H204.281z M197.034,432.156
		l-5.769-7.692c-0.173-0.23-0.15-0.558,0.054-0.761l2.441-2.441c0.24-0.24,0.364-0.573,0.34-0.912
		c-0.024-0.339-0.194-0.651-0.466-0.854l-3.887-2.915c-0.164-0.123-0.252-0.326-0.229-0.53l1.005-9.042l1.263-0.404
		c0.013,0.064,0.03,0.128,0.054,0.19l9.924,25.362H197.034L197.034,432.156z M205.826,412.214h2.345
		c0.647,0,1.173,0.526,1.173,1.172v2.345c0,0.647-0.526,1.173-1.173,1.173h-2.344c-0.647,0-1.173-0.526-1.173-1.173v-2.345
		C204.653,412.74,205.179,412.214,205.826,412.214z M212.121,426.007l-1.543-7.717c0.046-0.044,0.092-0.089,0.136-0.135l0.033,0.05
		c0.476,0.714,1.239,1.172,2.093,1.257c0.095,0.009,0.19,0.014,0.284,0.014c0.66,0,1.296-0.228,1.806-0.647L212.121,426.007z
		 M203.25,418.205l0.033-0.05c0.044,0.046,0.089,0.091,0.136,0.135l-1.543,7.717l-2.809-7.179c0.51,0.419,1.146,0.647,1.807,0.647
		c0.094,0,0.189-0.005,0.284-0.014C202.011,419.377,202.774,418.919,203.25,418.205z M218.365,404.43l1.386,2.079l-2.75,7.027
		c-0.101,0.053-0.196,0.123-0.282,0.208l-3.239,3.239c-0.148,0.149-0.321,0.156-0.41,0.147c-0.09-0.009-0.257-0.05-0.374-0.224
		l-1.01-1.515v-2.004c0-1.62-1.101-2.987-2.594-3.393L218.365,404.43z M190.587,371.318c0.016-3.804,3.165-6.894,7.033-6.894
		c0.941,0,1.854,0.18,2.713,0.534c0.598,0.247,1.284-0.039,1.53-0.637c0.231-0.559-0.004-1.195-0.525-1.476
		c2.833-1.602,5.544-0.988,8.827-0.242c2.489,0.565,5.295,1.2,8.348,0.717c2.875,1.665,3.886,4.676,4.224,6.95
		c0.39,2.63,0.111,5.749-0.781,8.978l-2.214-3.933c-0.236-0.42-0.706-0.652-1.183-0.586c-0.13,0.018-13.098,1.759-22.835-2.267
		c-0.598-0.248-1.283,0.037-1.531,0.635c-0.247,0.598,0.037,1.284,0.635,1.531c9.013,3.726,20.179,2.854,23.255,2.519l2.993,5.317
		v0.46c-0.004,0-0.008-0.001-0.012-0.001h-3.517h-7.033c-0.69,0-1.342,0.302-1.789,0.829c-0.091,0.108-0.169,0.223-0.238,0.343
		h-2.981c-0.069-0.12-0.147-0.236-0.238-0.343c-0.446-0.527-1.098-0.829-1.789-0.829h-7.033h-3.185
		c0.758-2.957,2.665-5.034,2.687-5.058c0.444-0.471,0.422-1.213-0.05-1.657c-0.471-0.444-1.213-0.422-1.657,0.049
		c-0.089,0.095-1.388,1.497-2.407,3.709C191.238,377.523,190.604,374.256,190.587,371.318z M217.508,385.267l-0.996,2.257
		c-0.003,0.006-0.005,0.012-0.008,0.019c-0.346,0.824-0.987,1.241-1.903,1.241h-2.312c-0.576,0-1.062-0.412-1.157-0.98
		c-0.005-0.028-0.011-0.057-0.017-0.085l-0.598-2.453L217.508,385.267z M203.478,385.267l-0.598,2.452
		c-0.007,0.028-0.013,0.056-0.017,0.085c-0.095,0.568-0.581,0.98-1.157,0.98h-2.312c-0.917,0-1.557-0.418-1.903-1.241
		c-0.003-0.006-0.005-0.012-0.008-0.019l-0.996-2.257L203.478,385.267z M192.957,386.439v-1.172v0h1.151
		c0,0.128,0.007,0.257,0.029,0.386c0.016,0.097,0.044,0.191,0.084,0.28l1.115,2.528c0.717,1.695,2.196,2.667,4.06,2.667h2.312
		c1.71,0,3.158-1.213,3.46-2.891l0.438-1.798h2.786l0.438,1.798c0.302,1.678,1.75,2.891,3.46,2.891h2.312
		c1.864,0,3.343-0.972,4.06-2.666l1.116-2.529c0.04-0.09,0.068-0.184,0.084-0.28c0.021-0.129,0.029-0.258,0.029-0.386h1.176
		c0.004,0,0.008-0.001,0.012-0.001v1.173c0,8.403-6.307,15.239-14.06,15.239S192.957,394.842,192.957,386.439z M198.792,401.647
		c2.419,1.509,5.229,2.375,8.224,2.375c2.98,0,5.777-0.856,8.188-2.351v1.922l-8.206,4.924l-8.206-4.924V401.647z M195.631,404.43
		l9.273,5.564c-1.493,0.406-2.594,1.773-2.594,3.393v2.004l-1.01,1.515c-0.116,0.174-0.284,0.215-0.374,0.224
		c-0.09,0.01-0.262,0.002-0.41-0.147l-3.239-3.239c-0.085-0.085-0.18-0.155-0.282-0.208l-2.75-7.027L195.631,404.43z
		 M178.864,429.811v-10.175c0-4.422,2.386-9.661,6.945-11.12l2.268-0.726l-0.889,8.001c-0.114,1.025,0.328,2.045,1.152,2.664
		l2.807,2.105l-1.486,1.486c-1.023,1.023-1.14,2.667-0.272,3.824l4.714,6.286h-12.895
		C179.916,432.156,178.864,431.104,178.864,429.811z M235.132,429.811c0,1.293-1.052,2.345-2.345,2.345h-12.895l4.715-6.286
		c0.868-1.157,0.751-2.801-0.272-3.824l-1.486-1.486l2.807-2.105c0.825-0.619,1.266-1.639,1.153-2.664l-0.889-8.001l2.268,0.726
		c4.559,1.459,6.945,6.698,6.945,11.12L235.132,429.811L235.132,429.811z"/>
</g>
</svg>
