<?xml version="1.0" encoding="iso-8859-1"?>
<!-- Generator: Adobe Illustrator 21.1.0, SVG Export Plug-In . SVG Version: 6.00 Build 0)  -->
<svg version="1.1" id="Layer_1" xmlns="http://www.w3.org/2000/svg" xmlns:xlink="http://www.w3.org/1999/xlink" x="0px" y="0px"
	 viewBox="171.99 359.499 70.02 75" style="enable-background:new 171.99 359.499 70.02 75;" xml:space="preserve">
<g>
	<path id="SVGCleanerId_0" style="fill:#EFEFEF;" d="M228.646,433.144h-43.292v-30.734c0-7.429,6.022-13.451,13.451-13.451h16.39
		c7.429,0,13.451,6.022,13.451,13.451L228.646,433.144L228.646,433.144z"/>
	<g>
		<path id="SVGCleanerId_0_1_" style="fill:#EFEFEF;" d="M228.646,433.144h-43.292v-30.734c0-7.429,6.022-13.451,13.451-13.451
			h16.39c7.429,0,13.451,6.022,13.451,13.451L228.646,433.144L228.646,433.144z"/>
	</g>
	<path style="fill:#E0E0E3;" d="M222.76,403.279h-31.518c-2.187,0-3.959,1.773-3.959,3.959v25.906h39.437v-25.906
		C226.719,405.052,224.946,403.279,222.76,403.279z"/>
	<polygon style="fill:#00A5FF;" points="213.165,412.077 207.081,417.262 203.064,413.928 203.045,413.913 200.835,412.077 
		201.991,403.28 203.66,390.592 210.342,390.592 212.009,403.28 	"/>
	<polygon style="fill:#0087FF;" points="213.165,412.077 207.081,417.262 203.064,413.928 203.045,413.913 200.835,412.077 
		201.991,403.28 212.009,403.28 	"/>
	<path style="fill:#FFDAA7;" d="M222.76,376.614c0,0.544-0.027,1.083-0.081,1.614c-0.808,7.945-7.518,14.145-15.678,14.145
		c-8.257,0-15.031-6.351-15.703-14.432c-0.038-0.437-0.056-0.88-0.056-1.327c0-0.779,0.058-1.542,0.166-2.286
		c1.108-7.621,7.668-13.473,15.593-13.473c2.461,0,4.793,0.566,6.871,1.57c4.686,2.274,8.08,6.804,8.76,12.181
		C222.718,375.264,222.76,375.934,222.76,376.614z"/>
	<path style="fill:#FFC373;" d="M222.76,376.614c0,0.544-0.027,1.083-0.081,1.614c-1.478,0.119-2.928,0.177-4.312,0.177
		c-8.693,0-13.966-2.286-16.899-4.26c-1.308,0.936-2.906,1.753-4.786,2.445c-2.442,0.9-4.552,1.279-4.641,1.296
		c-0.21,0.038-0.421,0.056-0.633,0.056c-0.036,0-0.074,0-0.11-0.002c-0.038-0.437-0.056-0.88-0.056-1.327
		c0-0.779,0.058-1.542,0.166-2.286c1.108-7.621,7.668-13.473,15.593-13.473c2.461,0,4.793,0.566,6.871,1.57
		c4.686,2.274,8.08,6.804,8.76,12.181C222.718,375.264,222.76,375.934,222.76,376.614z"/>
	<path style="fill:#A07852;" d="M222.631,374.607c-16.409,1.37-21.302-5.348-21.302-5.348c-2.499,3.748-9.92,5.068-9.92,5.068
		c1.108-7.622,7.667-13.473,15.593-13.473c2.461,0,4.794,0.566,6.872,1.57C218.558,364.699,221.952,369.23,222.631,374.607z"/>
	<rect x="191.241" y="407.238" style="fill:#C7C5CC;" width="31.518" height="18.142"/>
	<rect x="191.241" y="420.589" style="fill:#ADACB2;" width="31.518" height="4.792"/>
	<rect x="173.345" y="425.382" style="fill:#A07852;" width="67.309" height="7.763"/>
	<rect x="173.345" y="429.263" style="fill:#896746;" width="67.309" height="3.882"/>
	<circle style="fill:#30D8B8;" cx="231.617" cy="420.589" r="4.792"/>
	<path style="fill:#00C6A5;" d="M236.41,420.589c0,2.646-2.145,4.791-4.791,4.791c-2.648,0-4.793-2.145-4.793-4.791
		c0-0.674,0.139-1.318,0.39-1.898c0.735,1.702,2.429,2.893,4.402,2.893c1.972,0,3.665-1.191,4.399-2.893
		C236.27,419.272,236.41,419.915,236.41,420.589z"/>
	<path d="M240.655,424.026h-3.942c0.664-0.982,1.053-2.165,1.053-3.437c0-3.39-2.758-6.147-6.147-6.147
		c-0.559,0-1.101,0.077-1.616,0.217v-12.248c0-1.858-0.34-3.67-1.011-5.387c-0.272-0.697-1.058-1.042-1.756-0.769
		c-0.697,0.272-1.042,1.058-0.769,1.756c0.547,1.401,0.825,2.881,0.825,4.4v13.817c-1.123,1.114-1.82,2.658-1.82,4.361
		c0,1.272,0.388,2.455,1.053,3.437h-2.408v-16.787c0-0.749-0.607-1.355-1.355-1.355h-9.042l-1.696-12.906
		c1.824-0.561,3.519-1.42,5.028-2.518c2.648,0.402,5.067,1.664,6.946,3.656c0.514,0.545,1.372,0.57,1.916,0.056
		c0.545-0.514,0.57-1.371,0.056-1.916c-1.772-1.879-4.006-3.245-6.441-3.992c2.845-3.057,4.588-7.152,4.588-11.648
		c0-0.747-0.047-1.483-0.14-2.177c-0.726-5.747-4.281-10.693-9.514-13.233c-2.342-1.131-4.853-1.705-7.461-1.705
		c-4.137,0-8.13,1.496-11.244,4.212c-0.578,0.504-1.119,1.044-1.62,1.615c-2.171,2.474-3.594,5.531-4.07,8.805c0,0,0,0.001,0,0.001
		c-0.12,0.826-0.181,1.661-0.181,2.48c0,4.494,1.742,8.587,4.584,11.644c-6.055,1.858-10.471,7.497-10.471,14.153v4.828
		c0,0.749,0.607,1.355,1.355,1.355s1.355-0.607,1.355-1.355v-4.828c0-6.039,4.448-11.057,10.24-11.953
		c1.51,1.099,3.205,1.958,5.03,2.519l-1.697,12.906h-9.041c-0.749,0-1.355,0.607-1.355,1.355v8.657c0,0.749,0.607,1.355,1.355,1.355
		s1.355-0.607,1.355-1.355v-7.302h8.86c0.005,0,0.011,0.001,0.016,0.001c0.008,0,0.015-0.001,0.023-0.001h11.009
		c0.008,0,0.015,0.001,0.023,0.001c0.005,0,0.011-0.001,0.016-0.001h8.861v15.432h-16.347c-0.749,0-1.355,0.607-1.355,1.355
		s0.607,1.355,1.355,1.355H239.3v5.052h-64.599v-5.052h24.709c0.749,0,1.355-0.607,1.355-1.355s-0.607-1.355-1.355-1.355h-6.814
		v-2.538c0-0.749-0.607-1.355-1.355-1.355s-1.355,0.607-1.355,1.355v2.538h-3.176v-11.424c0-0.749-0.607-1.355-1.355-1.355
		c-0.749,0-1.355,0.607-1.355,1.355v11.424h-10.654c-0.749,0-1.355,0.607-1.355,1.355v7.763c0,0.749,0.607,1.355,1.355,1.355h67.31
		c0.749,0,1.355-0.607,1.355-1.355v-7.763C242.011,424.632,241.404,424.026,240.655,424.026z M201.408,371.26
		c1.082,0.932,2.973,2.231,5.931,3.249c0.708,0.244,1.479-0.133,1.723-0.84c0.244-0.708-0.133-1.479-0.84-1.723
		c-4.215-1.451-5.79-3.475-5.797-3.485c-0.261-0.358-0.677-0.562-1.124-0.557c-0.443,0.009-0.854,0.234-1.1,0.603
		c-1.324,1.986-4.618,3.31-7.004,3.999c0.041-0.136,0.084-0.27,0.128-0.405c1.923-5.806,7.557-9.891,13.677-9.891
		c2.197,0,4.311,0.483,6.28,1.434c3.35,1.626,6.034,4.556,7.275,8.078c0.191,0.533,0.35,1.079,0.478,1.637
		c-2.768,0.154-5.352,0.073-7.699-0.241c-0.744-0.099-1.424,0.422-1.523,1.164c-0.099,0.742,0.422,1.424,1.164,1.523
		c1.696,0.227,3.5,0.34,5.396,0.34c0.983,0,1.992-0.032,3.022-0.094c0.007,0.186,0.012,0.373,0.012,0.562
		c0,7.942-6.461,14.404-14.404,14.404s-14.404-6.461-14.404-14.404c0-0.385,0.018-0.775,0.049-1.165
		C194.583,374.991,198.853,373.751,201.408,371.26z M204.636,393.565c0.773,0.107,1.562,0.164,2.364,0.164
		c0.802,0,1.592-0.057,2.365-0.164l1.619,12.318h-7.968L204.636,393.565z M228.182,420.589c0-1.895,1.542-3.437,3.437-3.437
		c1.895,0,3.437,1.542,3.437,3.437c0,1.895-1.542,3.437-3.437,3.437C229.723,424.026,228.182,422.484,228.182,420.589z"/>
	<path d="M209.553,417.665c0.749,0,1.355-0.607,1.355-1.355c0-0.749-0.607-1.355-1.355-1.355h-5.279
		c-0.749,0-1.355,0.607-1.355,1.355c0,0.749,0.607,1.355,1.355,1.355H209.553z"/>
	<circle cx="200.72" cy="381.548" r="1.988"/>
	<circle cx="213.164" cy="381.548" r="1.988"/>
</g>
</svg>
