<?xml version="1.0" encoding="iso-8859-1"?>
<!-- Generator: Adobe Illustrator 21.1.0, SVG Export Plug-In . SVG Version: 6.00 Build 0)  -->
<svg version="1.1" id="Layer_1" xmlns="http://www.w3.org/2000/svg" xmlns:xlink="http://www.w3.org/1999/xlink" x="0px" y="0px"
	 viewBox="181.361 366.999 51.278 60" style="enable-background:new 181.361 366.999 51.278 60;" xml:space="preserve">
<g>
	<path style="fill:#FFAE18;" d="M211.24,404.437v2.385c0,0.797,0.468,1.475,1.23,1.781l9.268,3.284
		c1.725,0.694,2.849,2.579,2.849,4.383v9.504h-36.981v-9.504c0-1.804,1.124-3.689,2.849-4.383l9.268-3.284
		c0.762-0.307,1.23-1.025,1.23-1.822v-2.385"/>
	<g>
		<path style="fill:#FEBBA0;" d="M194.096,384.847v3.947h-0.643c-0.859,0-1.561,0.703-1.561,1.561v2.51
			c0,0.859,0.703,1.561,1.561,1.561h0.643v2.954c0.144,1.727,1.061,3.265,2.449,4.107l7.22,3.791c1.45,0.879,3.213,0.879,4.662,0
			l7.198-3.791c1.389-0.842,2.327-2.38,2.471-4.107v-2.954h0.643c0.859,0,1.561-0.703,1.561-1.561v-2.51
			c0-0.859-0.09-1.561-0.949-1.561h-1.255v-3.947"/>
		<polygon style="fill:#FEBBA0;" points="200.953,403.802 200.953,407.641 206.096,410.823 211.24,407.641 211.24,403.797 		"/>
	</g>
	<polygon style="fill:#FFFFFF;" points="206.096,410.823 200.953,407.641 197.52,409.385 200.953,414.097 206.096,410.823 
		211.24,407.641 214.363,409.274 211.24,414.097 	"/>
	<g>
		<path style="fill:#0A537F;" d="M221.738,411.888l-3.432-1.216c-1.906,4.972-6.723,8.502-12.365,8.502
			c-5.605,0-10.397-3.484-12.328-8.404l-3.158,1.119c-1.725,0.694-2.849,2.579-2.849,4.383v9.504h36.981v-9.504
			C224.587,414.467,223.464,412.581,221.738,411.888z"/>
		<path style="fill:#0A537F;" d="M218.083,377.918v6.219c0,0-4.459,2.87-11.976,2.87c-7.517,0-11.997-2.87-11.997-2.87v-6.219"/>
		<path style="fill:#0A537F;" d="M228.63,374.811l-19.007,5.106c-2.143,0.572-4.909,0.572-7.052,0.001l-19.007-5.029
			c-1.305-0.343-1.304-1.119,0.001-1.467l16.659-4.467c3.571-0.964,8.177-0.982,11.748-0.042l16.659,4.41
			C229.934,373.671,229.934,374.459,228.63,374.811z"/>
		<path style="fill:#0A537F;" d="M227.802,391.533v-7.246c0-0.993,0.813-1.806,1.806-1.806l0,0c0.993,0,1.806,0.813,1.806,1.806
			v7.246H227.802z"/>
	</g>
	<g>
		<path style="fill:#C2EDFF;" d="M214.416,393.913h-6.167c-0.541,0-0.98-0.439-0.98-0.98v-2.507c0-0.541,0.439-0.98,0.98-0.98h6.167
			c0.541,0,0.98,0.439,0.98,0.98v2.507C215.396,393.474,214.957,393.913,214.416,393.913z"/>
		<path style="fill:#C2EDFF;" d="M203.944,393.913h-6.167c-0.541,0-0.98-0.439-0.98-0.98v-2.507c0-0.541,0.439-0.98,0.98-0.98h6.167
			c0.541,0,0.98,0.439,0.98,0.98v2.507C204.924,393.474,204.485,393.913,203.944,393.913z"/>
	</g>
	<path d="M230.833,381.515v-7.231c0-0.033-0.002-0.065-0.005-0.097c0.004-0.045,0.005-0.087,0.005-0.124
		c-0.001-0.427-0.186-1.469-1.89-1.923l-16.661-4.411c-3.757-0.988-8.616-0.971-12.376,0.044l-16.657,4.467
		c-1.706,0.455-1.889,1.495-1.888,1.922c0.001,0.426,0.186,1.465,1.89,1.913l9.635,2.549l-0.014,9.008
		c-1.258,0.268-2.204,1.388-2.204,2.725v2.51c0,1.337,0.946,2.457,2.204,2.725v1.791c0,0.034,0.001,0.068,0.004,0.102
		c0.176,2.118,1.311,4.007,3.035,5.052c0.022,0.013,0.043,0.025,0.066,0.037l3.753,1.97v2.24c0,0.302-0.17,0.56-0.444,0.679
		l-2.154,0.763c-0.005,0.002-0.009,0.003-0.014,0.005l-7.071,2.505c-0.016,0.006-0.032,0.012-0.048,0.018
		c-2.13,0.856-3.617,3.126-3.617,5.519v9.504c0,0.676,0.548,1.225,1.225,1.225h36.981c0.676,0,1.225-0.548,1.225-1.225v-9.504
		c0-2.393-1.487-4.663-3.617-5.519c-0.016-0.006-0.032-0.012-0.048-0.018l-9.24-3.273c-0.286-0.122-0.443-0.347-0.443-0.637v-2.286
		l3.733-1.966c0.022-0.012,0.043-0.024,0.064-0.036c1.738-1.054,2.88-2.943,3.056-5.052c0.003-0.034,0.004-0.068,0.004-0.102v-1.791
		c1.258-0.268,2.204-1.388,2.204-2.725v-2.51c0-0.539-0.032-1.108-0.264-1.614c-0.342-0.745-1.038-1.172-1.909-1.172h-0.031
		l-0.014-8.985l9.076-2.438v5.37c-1.063,0.471-1.806,1.536-1.806,2.772v7.246c0,0.676,0.548,1.225,1.225,1.225h3.613
		c0.676,0,1.225-0.548,1.225-1.225v-7.246C232.639,383.051,231.895,381.987,230.833,381.515z M200.133,409.758
		c0.016-0.006,0.032-0.012,0.048-0.018c0.344-0.139,0.653-0.333,0.92-0.568l2.692,1.666l-2.527,1.608l-1.789-2.456L200.133,409.758z
		 M210.02,406.956l-3.924,2.428l-3.925-2.429c0.003-0.058,0.006-0.115,0.006-0.173v-0.954l0.987,0.518
		c0.906,0.541,1.919,0.812,2.932,0.812c1.013,0,2.026-0.271,2.933-0.812l0.986-0.519v0.997
		C210.015,406.868,210.018,406.912,210.02,406.956z M205.601,417.943c-0.012,0-0.025,0-0.038-0.001l0.533-4.211l0.531,4.196
		C206.587,417.929,205.745,417.947,205.601,417.943z M197.068,410.844l2.896,3.974c0.239,0.328,0.611,0.504,0.991,0.504
		c0.225,0,0.453-0.062,0.657-0.192l2.001-1.274l-0.476,3.765c-3.371-0.798-6.237-3.014-7.856-6.144L197.068,410.844z
		 M221.303,413.033c1.176,0.485,2.06,1.873,2.06,3.238v8.28h-34.532v-8.28c0-1.366,0.884-2.753,2.06-3.238l2.061-0.73
		c1.082,2.209,2.707,4.101,4.749,5.52c2.426,1.685,5.276,2.576,8.24,2.576c2.984,0,5.85-0.902,8.286-2.608
		c2.051-1.436,3.676-3.35,4.749-5.582L221.303,413.033z M214.865,410.752l1.783,0.632c-1.553,3.038-4.35,5.268-7.602,6.149
		l-0.465-3.676l2.002,1.274c0.204,0.13,0.431,0.191,0.656,0.191c0.401,0,0.795-0.197,1.029-0.559L214.865,410.752z M212.492,409.911
		l-1.619,2.501l-2.472-1.574l2.685-1.661c0.268,0.231,0.578,0.423,0.928,0.564c0.016,0.006,0.032,0.012,0.048,0.018L212.492,409.911
		z M219.077,392.865c0,0.183-0.154,0.337-0.337,0.337h-0.643c-0.676,0-1.225,0.548-1.225,1.225v2.9
		c-0.122,1.299-0.811,2.451-1.852,3.096l-7.163,3.772c-0.022,0.012-0.043,0.024-0.064,0.036c-1.062,0.644-2.33,0.644-3.392,0
		c-0.022-0.013-0.043-0.025-0.066-0.037l-7.184-3.772c-1.027-0.637-1.707-1.788-1.83-3.095v-2.9c0-0.676-0.548-1.225-1.225-1.225
		h-0.643c-0.182,0-0.337-0.154-0.337-0.337v-2.51c0-0.183,0.154-0.337,0.337-0.337h0.428l1.692,0.613v2.301
		c0,1.215,0.989,2.204,2.204,2.204h6.166c1.054,0,1.937-0.744,2.153-1.735c0.216,0.99,1.099,1.735,2.153,1.735h6.166
		c1.215,0,2.204-0.989,2.204-2.204v-2.296l1.694-0.619h0.755c0.005,0.084,0.008,0.194,0.008,0.337V392.865z M206.107,388.231
		c4.994,0,8.698-1.208,10.766-2.109v1.815l-1.451,0.53c-0.302-0.156-0.643-0.245-1.006-0.245h-6.166
		c-1.054,0-1.937,0.744-2.153,1.735c-0.216-0.99-1.099-1.735-2.153-1.735h-6.166c-0.359,0-0.698,0.088-0.998,0.241l-1.459-0.529
		v-1.815C197.393,387.02,201.107,388.231,206.107,388.231z M195.335,383.416v-4.146l6.921,1.831
		c1.166,0.311,2.503,0.466,3.839,0.466c1.339,0,2.678-0.156,3.846-0.468l6.918-1.859v4.176c-1.375,0.706-5.197,2.365-10.751,2.365
		C200.549,385.782,196.713,384.122,195.335,383.416z M214.171,390.672v2.017h-5.677v-2.017H214.171z M203.699,390.672v2.017h-5.677
		v-2.017H203.699z M206.112,375.508h15.204l-12.009,3.226c-1.95,0.52-4.47,0.52-6.423,0l-17.317-4.582l14.975-4.015
		c3.379-0.912,7.743-0.928,11.115-0.041l11.19,2.962h-16.734c-0.676,0-1.225,0.548-1.225,1.225S205.436,375.508,206.112,375.508z
		 M230.19,390.308h-1.164v-6.022c0-0.315,0.266-0.582,0.582-0.582s0.582,0.266,0.582,0.582V390.308L230.19,390.308z"/>
	<path d="M199.86,422.959h-0.018c-0.676,0-1.225-0.548-1.225-1.225c0-0.676,0.548-1.225,1.225-1.225h0.018
		c0.676,0,1.225,0.548,1.225,1.225C201.085,422.41,200.536,422.959,199.86,422.959z"/>
	<path d="M195.768,422.959h-4.856c-0.676,0-1.225-0.548-1.225-1.225c0-0.676,0.548-1.225,1.225-1.225h4.856
		c0.676,0,1.225,0.548,1.225,1.225C196.993,422.41,196.444,422.959,195.768,422.959z"/>
</g>
</svg>
