<?xml version="1.0" encoding="iso-8859-1"?>
<!-- Generator: Adobe Illustrator 21.1.0, SVG Export Plug-In . SVG Version: 6.00 Build 0)  -->
<svg version="1.1" id="Layer_1" xmlns="http://www.w3.org/2000/svg" xmlns:xlink="http://www.w3.org/1999/xlink" x="0px" y="0px"
	 viewBox="194.002 422.617 50.395 60.625" style="enable-background:new 194.002 422.617 50.395 60.625;" xml:space="preserve">
<g>
	<path style="fill:#EF934A;" d="M243.739,478.848c0,2.08-1.702,3.31-3.783,3.31h-42.08c-2.08,0-2.837-1.229-2.837-3.31v-46.809
		c0-2.08,0.757-3.783,2.837-3.783h42.08c2.08,0,3.783,1.702,3.783,3.783V478.848z"/>
	<rect x="198.822" y="431.094" style="fill:#F4EFEF;" width="41.135" height="47.754"/>
	<path style="fill:#FFC52F;" d="M230.973,433.458v-3.877c0-2.08-1.371-3.688-3.452-3.688h-4.87
		c-0.426-1.418-1.655-2.317-3.168-2.317c-1.466,0-2.742,0.898-3.168,2.317h-4.917c-2.08,0-4.113,1.608-4.113,3.688v3.877H230.973z"
		/>
	<path style="fill:#F4EFEF;" d="M219.531,427.689c-0.804,0-1.418-0.615-1.418-1.418c0-0.804,0.615-1.418,1.418-1.418
		c0.804,0,1.418,0.615,1.418,1.418C220.949,427.075,220.287,427.689,219.531,427.689z"/>
	<path d="M239.72,479.557h-41.135c-0.284,0-0.473-0.189-0.473-0.473V431.33c0-0.284,0.189-0.473,0.473-0.473h8.274
		c0.284,0,0.473,0.189,0.473,0.473s-0.189,0.473-0.473,0.473h-7.801v46.809h40.189v-46.809h-8.274c-0.284,0-0.473-0.189-0.473-0.473
		s0.189-0.473,0.473-0.473h8.747c0.284,0,0.473,0.189,0.473,0.473v47.754C240.193,479.321,240.004,479.557,239.72,479.557z"/>
	<path style="stroke:#000000;stroke-width:0.75;stroke-miterlimit:10;" d="M240.335,482.867h-42.08c-2.27,0-3.877-1.749-3.877-4.161
		v-46.714c0-2.364,1.56-3.972,3.877-3.972h8.652c0.284,0,0.473,0.189,0.473,0.473s-0.189,0.473-0.473,0.473h-8.652
		c-1.797,0-2.931,1.182-2.931,3.026v46.714c0,1.891,1.229,3.215,2.931,3.215h42.08c1.986,0,2.742-1.655,2.742-3.215v-46.714
		c0-1.939-0.993-3.026-2.742-3.026h-9.314c-0.284,0-0.473-0.189-0.473-0.473s0.189-0.473,0.473-0.473h9.314
		c2.27,0,3.688,1.513,3.688,3.972v46.714C243.975,481.212,242.557,482.867,240.335,482.867z"/>
	<path d="M219.531,428.162c-1.04,0-1.891-0.851-1.891-1.891s0.851-1.891,1.891-1.891c1.04,0,1.891,0.851,1.891,1.891
		S220.571,428.162,219.531,428.162z M219.531,425.325c-0.52,0-0.946,0.426-0.946,0.946c0,0.52,0.426,0.946,0.946,0.946
		c0.52,0,0.946-0.426,0.946-0.946C220.477,425.751,220.051,425.325,219.531,425.325z"/>
	<path style="stroke:#000000;stroke-width:0.5;stroke-miterlimit:10;" d="M230.737,433.694h-23.641
		c-0.284,0-0.473-0.189-0.473-0.473v-4.113c0-2.364,2.506-3.924,4.823-3.924h4.586c0.567-1.418,1.891-2.317,3.499-2.317
		s2.931,0.898,3.499,2.317h4.539c2.27,0,3.688,1.513,3.688,3.924v4.113C231.209,433.458,231.02,433.694,230.737,433.694z
		 M207.569,432.748h22.695v-3.641c0-1.891-0.993-2.979-2.742-2.979h-4.87c-0.189,0-0.378-0.142-0.473-0.331
		c-0.331-1.229-1.418-1.986-2.695-1.986s-2.364,0.757-2.695,1.986c-0.047,0.189-0.236,0.331-0.473,0.331h-4.917
		c-1.891,0-3.877,1.182-3.877,2.979v3.641H207.569z"/>
	<path d="M235.37,445.987h-19.385c-0.284,0-0.473-0.189-0.473-0.473s0.189-0.473,0.473-0.473h19.385
		c0.284,0,0.473,0.189,0.473,0.473S235.654,445.987,235.37,445.987z"/>
	<path d="M221.659,453.552h-5.674c-0.284,0-0.473-0.189-0.473-0.473s0.189-0.473,0.473-0.473h5.674c0.284,0,0.473,0.189,0.473,0.473
		S221.942,453.552,221.659,453.552z"/>
	<path d="M235.37,453.552h-9.456c-0.284,0-0.473-0.189-0.473-0.473s0.189-0.473,0.473-0.473h9.456c0.284,0,0.473,0.189,0.473,0.473
		S235.654,453.552,235.37,453.552z"/>
	<path d="M235.37,468.682h-5.674c-0.284,0-0.473-0.189-0.473-0.473c0-0.284,0.189-0.473,0.473-0.473h5.674
		c0.284,0,0.473,0.189,0.473,0.473C235.843,468.493,235.654,468.682,235.37,468.682z"/>
	<path d="M225.441,468.682h-9.456c-0.284,0-0.473-0.189-0.473-0.473c0-0.284,0.189-0.473,0.473-0.473h9.456
		c0.284,0,0.473,0.189,0.473,0.473C225.914,468.493,225.725,468.682,225.441,468.682z"/>
	<path d="M235.37,461.117h-19.385c-0.284,0-0.473-0.189-0.473-0.473s0.189-0.473,0.473-0.473h19.385
		c0.284,0,0.473,0.189,0.473,0.473S235.654,461.117,235.37,461.117z"/>
	<path d="M207.758,447.122c-0.142,0-0.236-0.047-0.331-0.142l-2.317-2.317c-0.189-0.189-0.189-0.473,0-0.662s0.473-0.189,0.662,0
		l1.986,1.986l3.924-3.924c0.189-0.189,0.473-0.189,0.662,0s0.189,0.473,0,0.662l-4.255,4.255
		C207.994,447.075,207.9,447.122,207.758,447.122z"/>
	<path d="M207.758,454.687c-0.142,0-0.236-0.047-0.331-0.142l-2.317-2.317c-0.189-0.189-0.189-0.473,0-0.662s0.473-0.189,0.662,0
		l1.986,1.986l3.924-3.924c0.189-0.189,0.473-0.189,0.662,0c0.189,0.189,0.189,0.473,0,0.662l-4.255,4.255
		C207.994,454.64,207.9,454.687,207.758,454.687z"/>
	<path d="M207.758,462.205c-0.142,0-0.236-0.047-0.331-0.142l-2.317-2.317c-0.189-0.189-0.189-0.473,0-0.662s0.473-0.189,0.662,0
		l1.986,1.986l3.924-3.924c0.189-0.189,0.473-0.189,0.662,0c0.189,0.189,0.189,0.473,0,0.662l-4.255,4.255
		C207.994,462.157,207.9,462.205,207.758,462.205z"/>
	<path d="M207.758,469.77c-0.142,0-0.236-0.047-0.331-0.142l-2.317-2.317c-0.189-0.189-0.189-0.473,0-0.662s0.473-0.189,0.662,0
		l1.986,1.986l3.924-3.924c0.189-0.189,0.473-0.189,0.662,0s0.189,0.473,0,0.662l-4.255,4.255
		C207.994,469.77,207.9,469.77,207.758,469.77z"/>
</g>
</svg>
