<?xml version="1.0" encoding="iso-8859-1"?>
<!-- Generator: Adobe Illustrator 21.1.0, SVG Export Plug-In . SVG Version: 6.00 Build 0)  -->
<svg version="1.1" id="Layer_1" xmlns="http://www.w3.org/2000/svg" xmlns:xlink="http://www.w3.org/1999/xlink" x="0px" y="0px"
	 viewBox="177.001 368.872 60 56.256" style="enable-background:new 177.001 368.872 60 56.256;" xml:space="preserve">
<g>
	<path style="fill:#C7CFE2;" d="M209.867,373.496h22.532c2.065,0,3.755,1.69,3.755,3.755v13.144c0,2.065-1.69,3.755-3.755,3.755
		h-19.736v3.561c0,0.418-0.506,0.628-0.801,0.332c0,0-5.75-5.583-5.75-7.648v-13.144
		C206.112,375.186,207.802,373.496,209.867,373.496z"/>
	<path style="fill:#E4EAF6;" d="M206.229,369.934H181.35c-2.065,0-3.755,1.69-3.755,3.755v13.144c0,2.065,1.69,3.755,3.755,3.755
		h14.552v3.561c0,0.418,0.506,0.628,0.801,0.332l3.893-3.893h5.633c2.065,0,3.755-1.69,3.755-3.755v-13.144
		C209.984,371.624,208.295,369.934,206.229,369.934z"/>
	<g>
		<path style="fill:#E6AF78;" d="M198.045,417.481c-0.308-0.088-1.271-0.437-1.273-1.211l-0.007-2.271l-7.562,0.016l0.001,2.271
			c0.001,0.682-0.745,1.037-1.133,1.173l4.925,3.015L198.045,417.481z"/>
		<path style="fill:#E6AF78;" d="M196.773,416.27l-0.006-1.901c-0.993,1.931-3.004,3.252-5.324,3.252
			c-0.932,0-1.815-0.213-2.601-0.593c-0.245,0.219-0.56,0.358-0.77,0.431l4.925,3.015l5.049-2.993
			C197.737,417.393,196.774,417.044,196.773,416.27z"/>
	</g>
	<path style="fill:#D29B6E;" d="M196.767,414.369l-0.001-0.37l-7.562,0.016l0.001,2.271c0.001,0.313-0.157,0.556-0.364,0.741
		c0.787,0.38,1.669,0.593,2.601,0.593C193.763,417.621,195.773,416.3,196.767,414.369z"/>
	<path style="fill:#785550;" d="M198.608,399.809c-2.861,0.414-6.617-2.276-9.413,0.018c-1.693,0.003-2.77,1.354-2.766,3.154
		c0.003,1.696,0.94,5.064,0.94,5.064l0.002,0.909c-0.003-1.651,0.967-4.431,0.967-4.431c4.854-0.009,8.851,1.378,10.283,1.946
		l0-0.088l0,0.088c0.104,0.041,0.193,0.078,0.27,0.109C199.657,403.298,198.951,400.585,198.608,399.809z"/>
	<path style="fill:#F0C087;" d="M187.37,408.953c0.007,3.515,2.485,6.793,5.628,6.788c3.143-0.006,5.634-3.116,5.628-6.631
		l-0.005-2.641c-1.432-0.568-5.429-1.956-10.283-1.946C188.337,404.523,187.367,407.302,187.37,408.953z"/>
	<path style="fill:#E6AF78;" d="M189.399,409.768c-0.096-4.564,0.663-4.335,0.663-4.335c1.378-0.318,3.42-0.237,5.652,0.085
		c-1.92-0.515-4.498-1.001-7.377-0.996c0,0-0.97,2.779-0.967,4.431c0.006,3.262,2.141,6.318,4.961,6.737
		C191.11,414.726,189.457,412.515,189.399,409.768z"/>
	<path style="fill:#EFF2FA;" d="M204.272,422.118c-0.003-1.575-0.999-3.255-2.713-3.732l-3.513-0.905c0,0,0,0,0,0l-5.049,2.993
		l-4.925-3.015c-0.052,0.018-0.099,0.033-0.135,0.044l-3.51,0.919c-1.712,0.483-2.702,2.167-2.699,3.742l0.002,1.014
		c0.001,0.593,0.551,1.073,1.228,1.072l20.092-0.04c0.677-0.001,1.226-0.483,1.224-1.076L204.272,422.118z"/>
	<g>
		<path style="fill:#E4EAF6;" d="M185.832,424.193v-1.13c0-0.579-0.262-1.131-0.722-1.518l-2.41-2.01
			c-0.631,0.735-0.974,1.7-0.973,2.628l0.002,1.014c0.001,0.401,0.253,0.75,0.626,0.934c0.156,0.052,0.307,0.082,0.43,0.082
			L185.832,424.193L185.832,424.193z"/>
		<path style="fill:#E4EAF6;" d="M204.274,423.132l-0.002-1.014c-0.002-0.809-0.266-1.646-0.754-2.333l-2.167,1.76
			c-0.459,0.387-0.722,0.939-0.722,1.518v1.13h2.618C203.83,424.109,204.275,423.667,204.274,423.132z"/>
	</g>
	<path style="fill:#694B4B;" d="M198.608,399.809c-1.242,0.18-2.653-0.226-4.081-0.554c-1.861-0.428-3.75-0.726-5.332,0.572
		c-0.013,0-0.027,0.001-0.04,0.001c-0.196,0.202,0.175,0.777,0.175,0.777s-0.743,0.352-1.056,1.76
		c-0.171,0.771-0.125,1.597,0.116,2.158c2.204,0,4.228,0.288,5.914,0.654c2.011,0.436,3.541,0.985,4.317,1.292
		c0.104,0.041,0.193,0.078,0.27,0.109C199.657,403.298,198.951,400.585,198.608,399.809z"/>
	<g>
		<path style="fill:#E6AF78;" d="M226.21,417.428c-0.308-0.088-1.271-0.437-1.273-1.211l-0.007-2.271l-7.562,0.016l0.001,2.271
			c0.001,0.682-0.745,1.037-1.133,1.173l4.925,3.015L226.21,417.428z"/>
		<path style="fill:#E6AF78;" d="M224.938,416.217l-0.006-1.901c-0.993,1.931-3.004,3.252-5.324,3.252
			c-0.932,0-1.815-0.213-2.601-0.593c-0.245,0.219-0.56,0.358-0.77,0.431l4.925,3.015l5.049-2.993
			C225.902,417.34,224.939,416.991,224.938,416.217z"/>
	</g>
	<path style="fill:#D29B6E;" d="M224.932,414.316l-0.001-0.37l-7.562,0.016l0.001,2.271c0.001,0.313-0.157,0.556-0.364,0.741
		c0.787,0.38,1.669,0.593,2.601,0.593C221.928,417.568,223.938,416.247,224.932,414.316z"/>
	<path style="fill:#785550;" d="M226.773,399.756c-2.861,0.414-6.617-2.276-9.413,0.018c-1.693,0.003-2.77,1.354-2.766,3.154
		c0.003,1.696,0.94,5.064,0.94,5.064l0.002,0.909c-0.003-1.651,0.967-4.431,0.967-4.431c4.854-0.009,8.851,1.378,10.283,1.946
		l0-0.088l0,0.088c0.104,0.041,0.193,0.078,0.27,0.109C227.821,403.245,227.116,400.532,226.773,399.756z"/>
	<path style="fill:#F0C087;" d="M215.535,408.9c0.007,3.515,2.485,6.793,5.628,6.788c3.143-0.006,5.634-3.116,5.628-6.631
		l-0.005-2.641c-1.432-0.568-5.429-1.956-10.283-1.946C216.502,404.47,215.532,407.249,215.535,408.9z"/>
	<path style="fill:#E6AF78;" d="M217.564,409.715c-0.096-4.564,0.663-4.335,0.663-4.335c1.378-0.318,3.42-0.237,5.652,0.085
		c-1.92-0.515-4.498-1.001-7.377-0.996c0,0-0.97,2.779-0.967,4.431c0.006,3.262,2.141,6.319,4.961,6.737
		C219.275,414.673,217.622,412.463,217.564,409.715z"/>
	<path style="fill:#B4E1FA;" d="M232.437,422.065c-0.003-1.575-0.999-3.255-2.713-3.732l-3.513-0.905c0,0,0,0,0,0l-5.049,2.993
		l-4.925-3.015c-0.052,0.018-0.099,0.033-0.135,0.044l-3.51,0.919c-1.712,0.483-2.702,2.167-2.699,3.742l0.002,1.014
		c0.001,0.593,0.551,1.073,1.228,1.072l20.092-0.04c0.677-0.001,1.226-0.483,1.224-1.076L232.437,422.065z"/>
	<g>
		<path style="fill:#A0D2F0;" d="M213.997,424.14v-1.13c0-0.579-0.262-1.131-0.722-1.518l-2.41-2.01
			c-0.631,0.735-0.974,1.7-0.973,2.628l0.002,1.014c0.001,0.401,0.253,0.75,0.626,0.934c0.156,0.052,0.307,0.082,0.43,0.082
			L213.997,424.14L213.997,424.14z"/>
		<path style="fill:#A0D2F0;" d="M232.439,423.079l-0.002-1.014c-0.002-0.809-0.266-1.646-0.754-2.333l-2.167,1.76
			c-0.459,0.387-0.722,0.939-0.722,1.518v1.13h2.618C231.995,424.056,232.44,423.614,232.439,423.079z"/>
	</g>
	<path style="fill:#694B4B;" d="M226.773,399.756c-1.242,0.18-2.653-0.226-4.081-0.554c-1.861-0.428-3.75-0.726-5.332,0.572
		c-0.013,0-0.027,0.001-0.04,0.001c-0.196,0.202,0.175,0.777,0.175,0.777s-0.743,0.352-1.056,1.76
		c-0.171,0.771-0.125,1.597,0.116,2.158c2.204,0,4.228,0.288,5.914,0.654c2.011,0.436,3.541,0.985,4.317,1.292
		c0.104,0.041,0.193,0.078,0.27,0.109C227.821,403.245,227.116,400.532,226.773,399.756z"/>
	<path d="M201.795,417.539c-0.005-0.002-0.011-0.003-0.016-0.004l-3.501-0.902c-0.337-0.098-0.599-0.282-0.625-0.365l-0.006-1.936
		c0.007-0.009,0.015-0.017,0.023-0.026c1.188-1.425,1.84-3.271,1.837-5.196l-0.003-1.426c1.188-3.887,0.343-7.252-0.09-8.23
		c-0.001-0.003-0.003-0.006-0.004-0.009c-0.008-0.018-0.017-0.035-0.026-0.052c-0.005-0.009-0.01-0.019-0.015-0.027
		c-0.009-0.015-0.018-0.03-0.028-0.044c-0.007-0.01-0.013-0.021-0.02-0.03c-0.009-0.012-0.018-0.023-0.027-0.034
		s-0.018-0.023-0.028-0.034c-0.008-0.009-0.017-0.018-0.026-0.027c-0.011-0.012-0.022-0.023-0.034-0.034
		c-0.009-0.008-0.018-0.016-0.027-0.023c-0.012-0.01-0.024-0.021-0.037-0.031c-0.011-0.008-0.023-0.016-0.034-0.024
		c-0.012-0.008-0.023-0.016-0.035-0.023c-0.014-0.009-0.029-0.017-0.044-0.025c-0.01-0.005-0.019-0.011-0.028-0.015
		c-0.018-0.009-0.036-0.016-0.054-0.024c-0.007-0.003-0.015-0.007-0.022-0.009c-0.019-0.007-0.039-0.014-0.059-0.02
		c-0.007-0.002-0.014-0.005-0.021-0.007c-0.019-0.005-0.038-0.009-0.057-0.013c-0.009-0.002-0.018-0.004-0.027-0.006
		c-0.016-0.003-0.033-0.005-0.05-0.006c-0.012-0.001-0.025-0.003-0.037-0.004c-0.013-0.001-0.027-0.001-0.04-0.001
		c-0.016,0-0.033-0.001-0.049,0c-0.011,0-0.022,0.001-0.032,0.002c-0.019,0.001-0.038,0.003-0.057,0.005
		c-0.003,0-0.006,0-0.009,0.001c-0.916,0.132-2.025-0.131-3.2-0.41c-2.059-0.489-4.383-1.04-6.405,0.433
		c-0.939,0.078-1.773,0.496-2.372,1.197c-0.62,0.726-0.96,1.729-0.958,2.824c0.003,1.63,0.77,4.552,0.94,5.181l0.001,0.792
		c0.004,2.019,0.708,3.883,1.833,5.268l0.001,2.067c-0.026,0.08-0.288,0.265-0.624,0.365l-3.497,0.915
		c-0.005,0.001-0.011,0.003-0.016,0.004c-2.197,0.62-3.344,2.779-3.34,4.59l0.002,1.014c0.001,0.536,0.242,1.054,0.662,1.42
		c0.392,0.342,0.904,0.53,1.444,0.53c0.001,0,0.003,0,0.004,0l10.023-0.02c0.007,0,0.014,0.001,0.021,0.001c0.001,0,0.001,0,0.002,0
		c0.007,0,0.014-0.001,0.022-0.001l10.024-0.02c1.162-0.002,2.105-0.881,2.103-1.958l-0.002-1.014
		C205.149,420.305,203.995,418.151,201.795,417.539z M192.998,419.45l-3.348-2c0.265-0.315,0.435-0.702,0.435-1.164l0-0.507
		c0.88,0.536,1.869,0.843,2.905,0.843c0.003,0,0.007,0,0.01,0c1.02-0.002,2.003-0.278,2.891-0.796l0.001,0.446
		c0.001,0.476,0.182,0.871,0.461,1.19L192.998,419.45z M187.845,401.301c0.335-0.393,0.79-0.593,1.352-0.594
		c0.007,0,0.013-0.001,0.02-0.001c0.022,0,0.044-0.001,0.066-0.003c0.011-0.001,0.023-0.003,0.034-0.005
		c0.017-0.002,0.034-0.005,0.052-0.008c0.013-0.003,0.026-0.006,0.039-0.009c0.015-0.004,0.03-0.007,0.045-0.012
		c0.014-0.004,0.027-0.009,0.04-0.014c0.014-0.005,0.027-0.009,0.041-0.015c0.014-0.006,0.028-0.013,0.041-0.019
		c0.012-0.006,0.024-0.011,0.036-0.018c0.015-0.008,0.03-0.017,0.045-0.027c0.01-0.006,0.02-0.012,0.029-0.018
		c0.018-0.012,0.036-0.026,0.053-0.039c0.005-0.004,0.011-0.007,0.016-0.012c1.402-1.15,3.209-0.721,5.122-0.266
		c1.023,0.243,2.073,0.492,3.089,0.492c0.011,0,0.022,0,0.033-0.001c0.255,0.914,0.515,2.574,0.239,4.554
		c-1.478-0.542-5.071-1.644-9.842-1.644c-0.019,0-0.039,0-0.058,0c-0.002,0-0.005,0-0.007,0c-0.019,0-0.039,0.002-0.058,0.003
		c-0.01,0.001-0.021,0.001-0.031,0.002c-0.016,0.002-0.031,0.005-0.046,0.007c-0.014,0.002-0.028,0.004-0.041,0.007
		c-0.01,0.002-0.02,0.005-0.031,0.008c-0.018,0.005-0.036,0.009-0.054,0.015c-0.005,0.002-0.01,0.004-0.015,0.006
		c-0.022,0.008-0.043,0.015-0.064,0.024c-0.003,0.001-0.006,0.003-0.009,0.004c-0.022,0.01-0.045,0.021-0.066,0.033
		c-0.008,0.004-0.015,0.009-0.022,0.013c-0.017,0.01-0.033,0.019-0.049,0.03c-0.015,0.01-0.03,0.022-0.044,0.033
		c-0.007,0.006-0.015,0.011-0.022,0.017c-0.018,0.015-0.035,0.031-0.052,0.047c-0.003,0.003-0.007,0.006-0.01,0.009
		c-0.015,0.016-0.03,0.032-0.044,0.049c-0.004,0.005-0.009,0.009-0.013,0.015c-0.011,0.014-0.021,0.028-0.032,0.043
		c-0.007,0.009-0.014,0.018-0.02,0.028c-0.007,0.011-0.014,0.023-0.02,0.034c-0.008,0.014-0.017,0.028-0.025,0.043
		c-0.005,0.009-0.008,0.018-0.013,0.027c-0.009,0.018-0.017,0.036-0.025,0.055c-0.001,0.002-0.002,0.004-0.003,0.006
		c-0.006,0.015-0.03,0.077-0.067,0.177c-0.085-0.529-0.142-1.02-0.142-1.397C187.308,402.304,187.498,401.708,187.845,401.301z
		 M188.25,408.631L188.25,408.631c-0.002-0.956,0.405-2.358,0.701-3.223c4.329,0.085,7.587,1.129,8.79,1.575l0.001,0.562
		c0,0.003,0,0.007,0,0.01l0.003,1.557c0.006,3.111-2.169,5.744-4.749,5.749c-0.002,0-0.004,0-0.006,0
		c-2.519,0-4.734-2.759-4.739-5.909L188.25,408.631z M182.956,423.368c-0.113,0.002-0.217-0.035-0.288-0.096
		c-0.018-0.015-0.059-0.056-0.059-0.097l-0.002-1.014c-0.002-1.146,0.702-2.506,2.051-2.891l3.204-0.839l4.256,2.542l0.004,2.376
		L182.956,423.368z M203.048,423.328l-9.166,0.018l-0.004-2.372l4.302-2.55l3.15,0.812c1.351,0.38,2.059,1.737,2.061,2.883
		l0.002,1.014C203.394,423.202,203.263,423.328,203.048,423.328z"/>
	<path d="M229.96,417.486c-0.005-0.002-0.011-0.003-0.016-0.004l-3.501-0.902c-0.337-0.098-0.599-0.282-0.625-0.365l-0.006-1.936
		c0.007-0.009,0.015-0.017,0.023-0.026c1.188-1.425,1.84-3.271,1.837-5.196l-0.003-1.426c1.188-3.887,0.343-7.252-0.09-8.23
		c-0.001-0.003-0.003-0.006-0.005-0.009c-0.008-0.017-0.016-0.033-0.025-0.05c-0.005-0.01-0.01-0.02-0.016-0.029
		c-0.008-0.014-0.018-0.028-0.027-0.042c-0.007-0.011-0.014-0.022-0.022-0.032c-0.008-0.011-0.017-0.021-0.025-0.032
		c-0.01-0.012-0.019-0.024-0.03-0.036c-0.007-0.008-0.015-0.016-0.023-0.024c-0.012-0.013-0.024-0.025-0.037-0.037
		c-0.008-0.007-0.016-0.013-0.024-0.02c-0.013-0.011-0.027-0.023-0.041-0.034c-0.01-0.007-0.02-0.014-0.03-0.021
		c-0.013-0.009-0.026-0.018-0.039-0.026c-0.013-0.008-0.026-0.015-0.04-0.022c-0.011-0.006-0.022-0.012-0.033-0.018
		c-0.016-0.008-0.033-0.015-0.05-0.022c-0.009-0.004-0.017-0.008-0.026-0.011c-0.018-0.007-0.037-0.013-0.056-0.019
		c-0.008-0.002-0.016-0.005-0.024-0.008c-0.018-0.005-0.037-0.009-0.056-0.013c-0.009-0.002-0.019-0.004-0.028-0.006
		c-0.016-0.003-0.033-0.005-0.049-0.006c-0.013-0.002-0.025-0.003-0.038-0.004c-0.013-0.001-0.027-0.001-0.04-0.001
		c-0.016,0-0.033-0.001-0.049,0c-0.011,0-0.022,0.001-0.033,0.002c-0.019,0.001-0.038,0.003-0.057,0.005
		c-0.003,0-0.006,0-0.01,0.001c-0.916,0.132-2.025-0.131-3.2-0.41c-2.06-0.489-4.383-1.04-6.405,0.433
		c-0.939,0.078-1.773,0.496-2.372,1.197c-0.62,0.726-0.96,1.729-0.958,2.824c0.003,1.63,0.77,4.552,0.94,5.181l0.001,0.469
		c0,0.001,0,0.001,0,0.002c0,0,0,0,0,0l0.001,0.32c0.004,1.904,0.671,3.823,1.832,5.264c0,0,0.001,0.001,0.001,0.001l0.002,2.069
		c-0.026,0.08-0.288,0.265-0.624,0.365l-3.497,0.915c-0.005,0.001-0.011,0.003-0.016,0.004c-2.197,0.62-3.344,2.779-3.34,4.59
		l0.002,1.014c0.001,0.536,0.242,1.054,0.662,1.42c0.392,0.342,0.904,0.53,1.444,0.53c0.001,0,0.003,0,0.004,0l10.023-0.02
		c0.007,0,0.014,0.001,0.021,0.001c0.001,0,0.001,0,0.002,0c0.007,0,0.015-0.001,0.022-0.001l10.024-0.02
		c1.162-0.002,2.105-0.881,2.103-1.958l-0.002-1.014C233.314,420.252,232.16,418.098,229.96,417.486z M221.163,419.397l-3.348-2
		c0.265-0.315,0.435-0.702,0.435-1.164l0-0.499c0.893,0.545,1.881,0.834,2.905,0.834c0.003,0,0.007,0,0.01,0
		c1.02-0.002,2.003-0.278,2.891-0.796l0.001,0.446c0.001,0.476,0.182,0.871,0.461,1.19L221.163,419.397z M215.474,402.926
		c-0.001-0.675,0.189-1.271,0.536-1.678c0.336-0.393,0.79-0.593,1.352-0.594c0.007,0,0.013-0.001,0.02-0.001
		c0.022,0,0.044-0.001,0.066-0.003c0.011-0.001,0.023-0.003,0.034-0.005c0.017-0.002,0.034-0.005,0.052-0.008
		c0.013-0.003,0.026-0.006,0.039-0.009c0.015-0.004,0.03-0.007,0.045-0.012c0.014-0.004,0.027-0.009,0.04-0.014
		c0.014-0.005,0.027-0.01,0.041-0.015c0.014-0.006,0.028-0.013,0.041-0.019c0.012-0.006,0.024-0.011,0.036-0.018
		c0.015-0.008,0.03-0.017,0.045-0.027c0.01-0.006,0.02-0.012,0.029-0.018c0.018-0.012,0.036-0.026,0.053-0.039
		c0.005-0.004,0.011-0.007,0.016-0.012c1.402-1.15,3.209-0.721,5.122-0.266c1.022,0.243,2.073,0.492,3.088,0.492
		c0.011,0,0.022,0,0.033-0.001c0.255,0.914,0.515,2.574,0.239,4.554c-1.478-0.542-5.071-1.644-9.842-1.644c-0.019,0-0.039,0-0.058,0
		c-0.002,0-0.004,0-0.006,0c-0.021,0-0.041,0.002-0.062,0.003c-0.009,0.001-0.018,0.001-0.027,0.002
		c-0.017,0.002-0.034,0.005-0.051,0.008c-0.012,0.002-0.025,0.004-0.037,0.006c-0.012,0.002-0.023,0.006-0.035,0.009
		c-0.017,0.004-0.033,0.008-0.049,0.013c-0.007,0.002-0.013,0.005-0.02,0.007c-0.02,0.007-0.04,0.014-0.06,0.023
		c-0.005,0.002-0.009,0.005-0.014,0.007c-0.021,0.009-0.042,0.019-0.062,0.03c-0.008,0.004-0.016,0.01-0.024,0.014
		c-0.016,0.009-0.032,0.019-0.047,0.029c-0.015,0.01-0.029,0.021-0.043,0.032c-0.008,0.006-0.016,0.012-0.024,0.018
		c-0.017,0.014-0.034,0.03-0.05,0.045c-0.004,0.004-0.008,0.007-0.012,0.011c-0.015,0.015-0.029,0.031-0.043,0.047
		c-0.005,0.005-0.01,0.01-0.014,0.016c-0.011,0.013-0.021,0.027-0.031,0.041c-0.007,0.01-0.014,0.019-0.021,0.029
		c-0.007,0.011-0.013,0.022-0.02,0.033c-0.009,0.014-0.017,0.029-0.025,0.043c-0.005,0.009-0.008,0.018-0.013,0.027
		c-0.009,0.018-0.017,0.036-0.025,0.055c-0.001,0.002-0.002,0.004-0.003,0.006c-0.006,0.015-0.03,0.077-0.067,0.177
		C215.531,403.794,215.475,403.303,215.474,402.926z M216.416,408.899l-0.001-0.322c-0.001-0.956,0.405-2.356,0.701-3.221
		c4.329,0.085,7.587,1.129,8.79,1.575l0.001,0.562c0,0.003,0,0.007,0,0.01l0.003,1.557c0.003,1.491-0.518,2.973-1.428,4.066
		c-0.903,1.083-2.082,1.681-3.321,1.683c-0.002,0-0.004,0-0.007,0c-1.219,0-2.39-0.62-3.296-1.745
		C216.944,411.927,216.418,410.41,216.416,408.899z M211.121,423.315C211.121,423.315,211.121,423.315,211.121,423.315
		c-0.113,0-0.218-0.035-0.288-0.096c-0.018-0.015-0.059-0.056-0.059-0.097l-0.002-1.014c-0.002-1.146,0.702-2.506,2.051-2.891
		l3.204-0.839l4.256,2.542l0.004,2.376L211.121,423.315z M231.213,423.275l-9.166,0.018l-0.004-2.371l4.302-2.55l3.15,0.812
		c1.351,0.38,2.059,1.737,2.061,2.883l0.002,1.014C231.559,423.149,231.428,423.275,231.213,423.275z"/>
	<path d="M236.976,377.205c-0.005-2.553-2.083-4.627-4.635-4.627c-0.003,0-0.006,0-0.009,0l-18.777,0.035
		c-0.486,0.001-0.879,0.396-0.879,0.882c0.001,0.485,0.395,0.878,0.88,0.878c0.001,0,0.001,0,0.002,0l18.777-0.035
		c1.586,0.002,2.878,1.284,2.881,2.87l0.025,13.144c0.003,1.585-1.284,2.878-2.87,2.881l-19.716,0.037
		c-0.233,0-0.457,0.094-0.622,0.259s-0.257,0.389-0.257,0.623l0.005,2.569l-3.198-3.186c-0.344-0.343-0.902-0.342-1.245,0.002
		c-0.343,0.344-0.342,0.902,0.002,1.245l4.703,4.685c0.168,0.168,0.393,0.257,0.621,0.257c0.114,0,0.229-0.022,0.338-0.068
		c0.329-0.137,0.543-0.458,0.542-0.814l-0.007-3.814l18.835-0.035c2.556-0.005,4.632-2.088,4.627-4.644L236.976,377.205z"/>
	<path d="M210.706,386.643l-0.025-13.144c-0.005-2.551-2.084-4.627-4.644-4.627l-24.41,0.046c-2.556,0.005-4.632,2.088-4.627,4.644
		l0.025,13.144c0.005,2.551,2.084,4.627,4.644,4.627l13.202-0.025l0.007,3.814c0.001,0.356,0.216,0.677,0.545,0.812
		c0.108,0.045,0.222,0.066,0.335,0.066c0.23,0,0.455-0.09,0.624-0.259l4.428-4.445l5.269-0.01
		C208.635,391.282,210.711,389.199,210.706,386.643z M206.076,389.527l-5.633,0.011c-0.233,0-0.457,0.094-0.622,0.259l-3.186,3.198
		l-0.005-2.569c-0.001-0.485-0.395-0.879-0.88-0.879c-0.001,0-0.001,0-0.002,0l-14.088,0.027c-1.582,0-2.872-1.287-2.875-2.87
		l-0.025-13.144c-0.003-1.585,1.284-2.878,2.87-2.881l24.415-0.046c1.582,0,2.872,1.287,2.875,2.87l0.025,13.144
		C208.949,388.232,207.661,389.524,206.076,389.527z"/>
	<path d="M182.577,375.371c0.001,0,0.001,0,0.002,0l2.817-0.005c0.486-0.001,0.879-0.396,0.879-0.882
		c-0.001-0.486-0.395-0.879-0.88-0.879c-0.001,0-0.001,0-0.002,0l-2.817,0.005c-0.486,0.001-0.879,0.396-0.879,0.882
		C181.697,374.978,182.091,375.371,182.577,375.371z"/>
	<path d="M189.148,375.359c0.001,0,0.001,0,0.002,0l15.96-0.03c0.486-0.001,0.879-0.396,0.879-0.882
		c-0.001-0.486-0.395-0.878-0.88-0.878c-0.001,0-0.001,0-0.002,0l-15.96,0.03c-0.486,0.001-0.879,0.396-0.879,0.882
		C188.269,374.966,188.663,375.359,189.148,375.359z"/>
	<path d="M182.584,379.126c0.001,0,0.001,0,0.002,0l22.532-0.042c0.486-0.001,0.879-0.396,0.879-0.882
		c-0.001-0.486-0.395-0.878-0.88-0.878c-0.001,0-0.001,0-0.002,0l-22.532,0.042c-0.486,0.001-0.879,0.396-0.879,0.882
		C181.704,378.733,182.098,379.126,182.584,379.126z"/>
	<path d="M205.123,381.079c-0.001,0-0.001,0-0.002,0l-2.816,0.005c-0.486,0.001-0.879,0.396-0.879,0.882
		c0.001,0.486,0.395,0.879,0.88,0.879c0.001,0,0.001,0,0.002,0l2.817-0.005c0.486-0.001,0.879-0.396,0.879-0.882
		C206.002,381.472,205.608,381.079,205.123,381.079z"/>
	<path d="M182.591,382.882c0.001,0,0.001,0,0.002,0l15.96-0.03c0.486-0.001,0.879-0.396,0.879-0.882
		c-0.001-0.486-0.395-0.879-0.88-0.879c-0.001,0-0.001,0-0.002,0l-15.96,0.03c-0.486,0.001-0.879,0.396-0.879,0.882
		C181.711,382.489,182.105,382.882,182.591,382.882z"/>
	<path d="M205.13,384.834c-0.001,0-0.001,0-0.002,0l-22.532,0.042c-0.486,0.001-0.879,0.396-0.879,0.882
		c0.001,0.486,0.395,0.878,0.88,0.878c0.001,0,0.001,0,0.002,0l22.532-0.042c0.486-0.001,0.879-0.396,0.879-0.882
		C206.009,385.227,205.615,384.834,205.13,384.834z"/>
	<path d="M216.382,377.302c-0.001,0-0.001,0-0.002,0l-2.816,0.005c-0.486,0.001-0.879,0.396-0.879,0.882
		c0.001,0.485,0.395,0.878,0.88,0.878c0.001,0,0.001,0,0.002,0l2.817-0.005c0.486-0.001,0.879-0.396,0.879-0.882
		C217.261,377.695,216.867,377.302,216.382,377.302z"/>
	<path d="M220.139,379.056l11.266-0.021c0.486-0.001,0.879-0.396,0.879-0.882c-0.001-0.485-0.395-0.879-0.88-0.879
		c-0.001,0-0.001,0-0.002,0l-11.266,0.021c-0.486,0.001-0.879,0.396-0.879,0.882c0.001,0.486,0.395,0.879,0.88,0.879
		C220.138,379.056,220.138,379.056,220.139,379.056z"/>
	<path d="M212.692,381.945c0.001,0.486,0.395,0.879,0.88,0.879c0.001,0,0.001,0,0.002,0l17.838-0.034
		c0.486-0.001,0.879-0.396,0.879-0.882c-0.001-0.486-0.395-0.879-0.88-0.879c-0.001,0-0.001,0-0.002,0l-17.838,0.034
		C213.085,381.064,212.691,381.459,212.692,381.945z"/>
	<path d="M231.417,384.785c-0.001,0-0.001,0-0.002,0l-2.817,0.005c-0.486,0.001-0.879,0.396-0.879,0.882
		c0.001,0.486,0.395,0.879,0.88,0.879c0.001,0,0.001,0,0.002,0l2.817-0.005c0.486-0.001,0.879-0.396,0.879-0.882
		C232.296,385.178,231.903,384.785,231.417,384.785z"/>
	<path d="M213.581,386.579l11.266-0.021c0.486-0.001,0.879-0.396,0.879-0.882c-0.001-0.486-0.395-0.879-0.88-0.879
		c-0.001,0-0.001,0-0.002,0l-11.266,0.021c-0.486,0.001-0.879,0.396-0.879,0.882c0.001,0.486,0.395,0.879,0.88,0.879
		C213.58,386.579,213.581,386.579,213.581,386.579z"/>
	<path d="M213.586,390.334c0.001,0,0.001,0,0.002,0l17.838-0.034c0.486-0.001,0.879-0.396,0.879-0.882
		c-0.001-0.486-0.395-0.879-0.88-0.879c-0.001,0-0.001,0-0.002,0l-17.838,0.034c-0.486,0.001-0.879,0.396-0.879,0.882
		C212.707,389.941,213.101,390.334,213.586,390.334z"/>
</g>
</svg>
