<?xml version="1.0" encoding="iso-8859-1"?>
<!-- Generator: Adobe Illustrator 21.1.0, SVG Export Plug-In . SVG Version: 6.00 Build 0)  -->
<svg version="1.1" id="Layer_1" xmlns="http://www.w3.org/2000/svg" xmlns:xlink="http://www.w3.org/1999/xlink" x="0px" y="0px"
	 viewBox="181.584 370.929 50.832 60" style="enable-background:new 181.584 370.929 50.832 60;" xml:space="preserve">
<g>
	<rect id="SVGCleanerId_0" x="204.967" y="388.23" style="fill:#FFC600;" width="4.067" height="19.316"/>
	<path style="fill:#FFC600;" d="M216.861,376.946c-2.847-2.745-6.608-4.067-10.573-3.863c-7.32,0.305-13.216,6.405-13.521,13.725
		c-0.203,4.067,1.423,8.031,4.372,10.878c2.745,2.643,4.473,6.202,4.677,10.065h1.017v-19.52h-3.05v2.033h-2.033v-3.05
		c0-0.508,0.508-1.017,1.017-1.017h5.083h6.1h5.083c0.508,0,1.017,0.508,1.017,1.017v3.05h-2.033v-2.033h-3.05v19.316h1.017
		c0.305-3.762,1.932-7.421,4.677-10.065c3.05-2.643,4.575-6.303,4.575-10.268S219.708,379.589,216.861,376.946z"/>
	<g>
		<rect id="SVGCleanerId_0_1_" x="204.967" y="388.23" style="fill:#FFC600;" width="4.067" height="19.316"/>
	</g>
	<path style="fill:#FFC600;" d="M219.2,387.214c0-3.355-1.322-6.507-3.762-8.845c-2.338-2.135-5.287-3.355-8.438-3.355
		c-0.203,0-0.407,0-0.61,0c-6.303,0.305-11.386,5.49-11.59,11.691c-0.102,3.457,1.22,6.913,3.762,9.353
		c2.643,2.542,4.473,5.795,5.083,9.455h6.608c0.61-3.558,2.44-6.913,5.083-9.455C217.878,393.72,219.2,390.569,219.2,387.214z"/>
	<path style="fill:#FFF8EF;" d="M194.8,427.879c-2.237,0-4.067-1.83-4.067-4.067v-1.017c0-1.728,1.322-3.05,3.05-3.05h1.017v-4.067
		h-1.017c-2.643,0-4.88,1.423-6.202,3.558c-1.728-0.813-2.948-2.542-2.948-4.575c0-3.253,3.05-3.965,4.473-4.067
		c1.627,1.322,3.66,2.033,5.693,2.033h3.05v-4.067h-3.05c-2.847,0-5.083-2.237-5.083-5.083c0-2.44,1.83-4.575,4.168-4.982
		c0.407,0.407,0.813,0.915,1.118,1.22c2.44,2.237,3.762,5.49,3.762,8.845c0,1.118,0.915,2.033,2.033,2.033v1.017
		c0,1.118,0.915,2.033,2.033,2.033v1.017c0,1.118,0.915,2.033,2.033,2.033h4.067c1.118,0,2.033-0.915,2.033-2.033v-1.017
		c1.118,0,2.033-0.915,2.033-2.033v-1.017c1.118,0,2.033-0.915,2.033-2.033c0-3.355,1.423-6.507,3.762-8.845
		c0.407-0.407,0.813-0.813,1.118-1.22c2.44,0.407,4.168,2.542,4.168,4.982c0,2.135-1.322,4.067-3.355,4.778
		c-2.033,0.813-3.558,2.948-3.558,5.388v1.017l4.067-0.203v-1.017c0-0.61,0.407-1.22,1.118-1.525
		c0.915-0.305,1.728-0.813,2.542-1.423c1.423,0.102,4.473,0.712,4.473,4.067c0,2.542-1.83,4.575-4.168,4.982
		c-1.525-2.338-4.168-3.863-7.015-3.863c-4.473,0-8.133,3.66-8.133,8.133v1.017h4.067v-1.017c0-2.237,1.83-4.067,4.067-4.067
		s4.067,1.83,4.067,4.067c0,2.237-1.83,4.067-4.067,4.067H194.8z"/>
	<path style="fill:#353535;" d="M208.017,413.646v-1.017h-2.033v1.017H208.017z M209.033,407.547V388.23h-4.067v19.316H209.033z
		 M210.05,410.596v-1.017h-6.1v1.017h1.017h4.067H210.05z M221.233,387.214c0-3.965-1.525-7.625-4.372-10.268
		c-2.847-2.745-6.608-4.067-10.573-3.863c-7.32,0.305-13.216,6.405-13.521,13.623c-0.102,4.067,1.423,8.031,4.473,10.878
		c2.745,2.643,4.473,6.202,4.677,10.065h1.017V388.23h-3.05v2.033h-2.033v-3.05c0-0.508,0.508-1.017,1.017-1.017h5.083h6.1h5.083
		c0.508,0,1.017,0.508,1.017,1.017v3.05h-2.033v-2.033h-3.05v19.316h1.017c0.305-3.762,1.932-7.421,4.677-10.065
		C219.708,394.838,221.233,391.179,221.233,387.214z M188.7,403.48c0,3.355,2.745,6.1,6.1,6.1h2.033v2.033H194.8
		c-2.033,0-3.965-0.813-5.388-2.033c-2.745,0.102-5.795,1.423-5.795,5.083c0,2.847,1.932,5.185,4.473,5.897
		c0.915-2.237,3.05-3.863,5.693-3.863v2.033c-2.237,0-4.067,1.83-4.067,4.067v1.017c0,2.847,2.237,5.083,5.083,5.083h23.383
		c2.847,0,5.083-2.237,5.083-5.083c0-2.847-2.237-5.083-5.083-5.083s-5.083,2.237-5.083,5.083h-2.033
		c0-3.965,3.152-7.117,7.117-7.117c2.847,0,5.287,1.627,6.405,4.067c3.253-0.203,5.795-2.847,5.795-6.1
		c0-3.66-3.05-4.982-5.897-5.083c-0.712,0.61-1.525,1.22-2.542,1.525c-1.118,0.407-1.83,1.322-1.83,2.44l-1.932,0.102
		c0-2.033,1.22-3.762,3.152-4.473c2.338-0.915,3.965-3.152,3.965-5.693c0-3.253-2.542-5.897-5.592-6.1
		c-0.407,0.508-0.915,1.118-1.423,1.525c-2.643,2.542-4.067,5.998-4.067,9.556c0,0.508-0.508,1.017-1.017,1.017h-1.017v2.033
		c0,0.508-0.508,1.017-1.017,1.017h-1.017v2.033c0,0.508-0.508,1.017-1.017,1.017h-4.067c-0.508,0-1.017-0.508-1.017-1.017v-2.033
		h-1.017c-0.508,0-1.017-0.508-1.017-1.017v-2.033h-1.017c-0.508,0-1.017-0.508-1.017-1.017c0-3.558-1.525-7.117-4.067-9.556
		c-0.508-0.508-1.017-1.017-1.423-1.627C191.242,397.685,188.7,400.227,188.7,403.48z M186.667,403.48
		c0-3.863,2.745-7.117,6.405-7.93c-1.627-2.643-2.44-5.795-2.338-8.946c0.305-8.336,7.117-15.25,15.453-15.656
		c4.473-0.203,8.743,1.322,11.996,4.473c3.253,3.152,5.083,7.32,5.083,11.793c0,2.948-0.813,5.795-2.338,8.336
		c3.66,0.813,6.405,4.067,6.405,7.93c0,1.525-0.407,2.948-1.22,4.27c3.863,0.61,6.303,3.253,6.303,6.913
		c0,4.168-3.152,7.625-7.218,8.031c0,0.407,0.102,0.712,0.102,1.118c0,3.965-3.152,7.117-7.117,7.117H194.8
		c-3.965,0-7.117-3.152-7.117-7.117v-1.017c0-0.102,0-0.203,0-0.305c-3.457-0.915-6.1-4.067-6.1-7.828
		c0-3.66,2.44-6.303,6.303-6.913C187.074,406.428,186.667,405.005,186.667,403.48z"/>
</g>
</svg>
