<?xml version="1.0" encoding="iso-8859-1"?>
<!-- Generator: Adobe Illustrator 21.1.0, SVG Export Plug-In . SVG Version: 6.00 Build 0)  -->
<svg version="1.1" id="Layer_1" xmlns="http://www.w3.org/2000/svg" xmlns:xlink="http://www.w3.org/1999/xlink" x="0px" y="0px"
	 viewBox="176.692 367.985 60.005 60" style="enable-background:new 176.692 367.985 60.005 60;" xml:space="preserve">
<g>
	<path style="fill:#BDF6EC;" d="M230.321,386.153c2.061,3.892,3.228,8.33,3.228,13.04c0,15.411-12.493,27.904-27.904,27.904
		s-27.904-12.493-27.904-27.904c0-8.012,3.377-15.236,8.785-20.325c0,0,2.566-2.778,6.035-4.328
		c4.035-1.804,8.356-3.251,13.084-3.251c4.816,0,9.347,1.22,13.301,3.368L230.321,386.153z"/>
	<path style="opacity:0.1;enable-background:new    ;" d="M230.321,386.153l-11.376-11.496c-0.046-0.025-0.093-0.048-0.139-0.073
		l5.158,5.213c2.061,3.892,3.228,8.33,3.228,13.04c0,15.411-12.493,27.905-27.904,27.905c-6.083,0-11.711-1.948-16.296-5.252
		c5.067,7.03,13.324,11.608,22.652,11.608c15.411,0,27.904-12.493,27.904-27.904C233.549,394.483,232.382,390.045,230.321,386.153z"
		/>
	<path style="fill:#52D6C6;" d="M222,387c2.54,3.401,4.044,7.622,4.044,12.193c0,11.266-9.133,20.4-20.4,20.4
		s-20.399-9.133-20.399-20.4c0-11.266,9.133-20.4,20.4-20.4c4.613,0,8.869,1.531,12.286,4.113L222,387z"/>
	<path style="fill:#BDF6EC;" d="M216.139,392.787c1.141,1.866,1.799,4.06,1.799,6.407c0,6.79-5.504,12.294-12.294,12.294
		s-12.294-5.504-12.294-12.294c0-6.79,5.504-12.294,12.294-12.294c2.37,0,4.583,0.67,6.46,1.832L216.139,392.787z"/>
	<path style="fill:#6C489C;" d="M210.915,398.01c0.028,0.126,0.052,0.254,0.071,0.383c0.039,0.261,0.059,0.529,0.059,0.801
		c0,2.983-2.418,5.401-5.401,5.401c-2.983,0-5.401-2.418-5.401-5.401s2.418-5.401,5.401-5.401c0.373,0,0.737,0.038,1.089,0.11
		L210.915,398.01z"/>
	<polygon style="fill:#DBA112;" points="222.532,386.223 228.604,387 235.818,380.792 229.221,379.669 225.188,375.708 
		224.051,369.024 217.842,376.238 218.623,382.336 	"/>
	<path style="fill:#FDC00F;" d="M210.246,390.589l16.292-16.292c1.112-1.112,2.933-1.112,4.045,0l0,0
		c1.112,1.112,1.112,2.933,0,4.045l-23.005,23.005c-1.112,1.112-2.933,1.112-4.045,0l0,0c-1.112-1.112-1.112-2.933,0-4.045
		l4.401-4.401L210.246,390.589z"/>
	<path d="M236.664,380.433c-0.092-0.331-0.367-0.579-0.705-0.636l-4.895-0.833l0.124-0.124c1.464-1.464,1.464-3.845,0-5.309
		c-1.464-1.464-3.846-1.464-5.309,0l-0.15,0.15l-0.844-4.959c-0.058-0.338-0.306-0.613-0.636-0.705
		c-0.331-0.092-0.685,0.015-0.909,0.276l-4.48,5.205c-4.083-2.123-8.672-3.243-13.304-3.243c-4.717,0-9.397,1.163-13.535,3.364
		c-0.432,0.23-0.596,0.766-0.366,1.198c0.23,0.432,0.767,0.596,1.198,0.366c3.883-2.065,8.275-3.156,12.703-3.156
		c4.208,0,8.377,0.985,12.114,2.854l-0.555,0.645c-0.164,0.19-0.239,0.441-0.207,0.69l0.675,5.274
		c-3.549-2.43-7.685-3.71-12.027-3.71c-11.767,0-21.34,9.573-21.34,21.34c0,11.767,9.573,21.34,21.34,21.34s21.34-9.573,21.34-21.34
		c0-4.336-1.279-8.473-3.706-12.022l5.275,0.675c0.038,0.005,0.075,0.007,0.113,0.007c0.211,0,0.416-0.075,0.578-0.214l0.642-0.553
		c1.866,3.733,2.851,7.904,2.851,12.107c0,14.939-12.154,27.092-27.092,27.092c-14.939,0-27.092-12.154-27.092-27.092
		c0-7.549,3.029-14.558,8.529-19.734c0.356-0.335,0.373-0.896,0.038-1.253c-0.335-0.356-0.896-0.373-1.253-0.038
		c-2.839,2.671-5.073,5.827-6.641,9.378c-1.623,3.677-2.446,7.595-2.446,11.646c0,7.71,3.002,14.959,8.454,20.41
		c5.452,5.452,12.7,8.454,20.41,8.454c7.71,0,14.959-3.002,20.41-8.454c5.452-5.452,8.454-12.7,8.454-20.41
		c0-4.626-1.12-9.219-3.24-13.297l5.207-4.481C236.649,381.118,236.756,380.764,236.664,380.433z M229.935,374.784
		c0.773,0.773,0.773,2.03,0,2.803l-1.203,1.203c-0.118,0.073-0.219,0.172-0.292,0.292l-21.571,21.571
		c-0.773,0.773-2.03,0.773-2.803,0s-0.773-2.03,0-2.803l4.413-4.413c0.346-0.346,0.346-0.907,0-1.253
		c-0.346-0.346-0.907-0.346-1.253,0l-0.708,0.708c-0.317-0.049-0.64-0.073-0.962-0.073c-3.475,0-6.302,2.827-6.302,6.302
		c0,3.475,2.827,6.302,6.302,6.302s6.302-2.827,6.302-6.302c0-0.297-0.022-0.595-0.063-0.887l4.073-4.073
		c0.741,1.539,1.129,3.233,1.129,4.96c0,6.308-5.132,11.441-11.441,11.441s-11.441-5.132-11.441-11.441
		c0-6.308,5.132-11.44,11.441-11.44c1.749,0,3.462,0.398,5.017,1.157l-1.03,1.03c-0.346,0.346-0.346,0.907,0,1.253
		c0.346,0.346,0.907,0.346,1.253,0l1.872-1.872c0.004-0.004,0.008-0.007,0.011-0.011l5.777-5.777
		c0.027-0.024,0.053-0.05,0.078-0.078l8.597-8.597C227.905,374.012,229.162,374.012,229.935,374.784z M202.813,401.906
		c0.732,0.732,1.693,1.098,2.655,1.098c0.961,0,1.923-0.366,2.655-1.098l1.87-1.871c-0.424,2.06-2.252,3.614-4.437,3.614
		c-2.498,0-4.53-2.032-4.53-4.53c0-2.221,1.607-4.072,3.718-4.455l-1.932,1.932C201.349,398.061,201.349,400.443,202.813,401.906z
		 M223.454,370.878l0.739,4.34l-4.988,4.988l-0.489-3.822L223.454,370.878z M205.556,418.688c-10.79,0-19.568-8.778-19.568-19.568
		s8.778-19.568,19.568-19.568c3.95,0,7.714,1.155,10.951,3.35l-4.62,4.62c-1.935-1.057-4.108-1.615-6.331-1.615
		c-7.286,0-13.213,5.927-13.213,13.213s5.927,13.213,13.213,13.213s13.213-5.927,13.213-13.213c0-2.201-0.547-4.355-1.585-6.276
		l4.625-4.625c2.172,3.226,3.315,6.974,3.315,10.9C225.124,409.91,216.346,418.688,205.556,418.688z M228.298,385.966l-3.755-0.481
		l4.985-4.985l4.276,0.728L228.298,385.966z"/>
</g>
</svg>
