<?xml version="1.0" encoding="iso-8859-1"?>
<!-- Generator: Adobe Illustrator 21.1.0, SVG Export Plug-In . SVG Version: 6.00 Build 0)  -->
<svg version="1.1" id="&#x421;&#x43B;&#x43E;&#x439;_1"
	 xmlns="http://www.w3.org/2000/svg" xmlns:xlink="http://www.w3.org/1999/xlink" x="0px" y="0px" viewBox="0 0 40 40"
	 style="enable-background:new 0 0 40 40;" xml:space="preserve">
<g>
	<path style="fill:#BABABA;" d="M28.667,13.333h-1.333c-0.368,0-0.667,0.299-0.667,0.666c0,0.368,0.299,0.667,0.667,0.667h1.333
		c0.368,0,0.666-0.299,0.666-0.667C29.333,13.632,29.035,13.333,28.667,13.333L28.667,13.333z M28.667,13.333"/>
	<path style="fill:#BABABA;" d="M28.667,16h-1.333c-0.368,0-0.667,0.299-0.667,0.667c0,0.368,0.299,0.666,0.667,0.666h1.333
		c0.368,0,0.666-0.299,0.666-0.666C29.333,16.299,29.035,16,28.667,16L28.667,16z M28.667,16"/>
	<path style="fill:#BABABA;" d="M28.667,10.667h-1.333c-0.368,0-0.667,0.299-0.667,0.667c0,0.368,0.299,0.666,0.667,0.666h1.333
		c0.368,0,0.666-0.299,0.666-0.666C29.333,10.965,29.035,10.667,28.667,10.667L28.667,10.667z M28.667,10.667"/>
	<path style="fill:#BABABA;" d="M28.667,32h-1.333c-0.368,0-0.667,0.299-0.667,0.667c0,0.368,0.299,0.666,0.667,0.666h1.333
		c0.368,0,0.666-0.299,0.666-0.666C29.333,32.298,29.035,32,28.667,32L28.667,32z M28.667,32"/>
	<path style="fill:#BABABA;" d="M14,10.667h-4c-0.368,0-0.666,0.299-0.666,0.667v9.333c0,0.368,0.299,0.667,0.666,0.667h4
		c0.368,0,0.667-0.299,0.667-0.667v-9.333C14.667,10.965,14.368,10.667,14,10.667L14,10.667z M13.333,20h-2.667v-8h2.667V20z
		 M13.333,20"/>
	<path style="fill:#BABABA;" d="M14,32h-4c-0.368,0-0.666,0.299-0.666,0.667c0,0.368,0.299,0.666,0.666,0.666h4
		c0.368,0,0.667-0.299,0.667-0.666C14.667,32.298,14.368,32,14,32L14,32z M14,32"/>
	<path style="fill:#BABABA;" d="M14,34.667h-4c-0.368,0-0.666,0.298-0.666,0.666C9.333,35.701,9.632,36,10,36h4
		c0.368,0,0.667-0.299,0.667-0.667C14.667,34.965,14.368,34.667,14,34.667L14,34.667z M14,34.667"/>
	<path style="fill:#BABABA;" d="M28.667,34.667h-1.333c-0.368,0-0.667,0.298-0.667,0.666c0,0.368,0.299,0.667,0.667,0.667h1.333
		c0.368,0,0.666-0.299,0.666-0.667C29.333,34.965,29.035,34.667,28.667,34.667L28.667,34.667z M28.667,34.667"/>
	<path style="fill:#BABABA;" d="M36.666,34.667H34c-0.368,0-0.667,0.298-0.667,0.666C33.333,35.701,33.632,36,34,36h2.666
		c0.368,0,0.667-0.299,0.667-0.667C37.333,34.965,37.034,34.667,36.666,34.667L36.666,34.667z M36.666,34.667"/>
	<path style="fill:#BABABA;" d="M22.666,11.333c0-0.368-0.299-0.667-0.666-0.667h-2.667c-0.368,0-0.667,0.299-0.667,0.667v9.333
		c0,0.368,0.299,0.666,0.667,0.666H22c0.368,0,0.666-0.299,0.666-0.666V11.333z M21.333,20H20v-8h1.333V20z M21.333,20"/>
	<path style="fill:#BABABA;" d="M36.666,32H34c-0.368,0-0.667,0.299-0.667,0.667c0,0.368,0.299,0.666,0.667,0.666h2.666
		c0.368,0,0.667-0.299,0.667-0.666C37.333,32.298,37.034,32,36.666,32L36.666,32z M36.666,32"/>
	<path style="fill:#BABABA;" d="M22,34.667h-2.667c-0.368,0-0.667,0.298-0.667,0.666c0,0.368,0.299,0.667,0.667,0.667H22
		c0.368,0,0.666-0.299,0.666-0.667C22.666,34.965,22.368,34.667,22,34.667L22,34.667z M22,34.667"/>
	<path style="fill:#BABABA;" d="M34,24c0.368,0,0.667-0.299,0.667-0.667v-6.667C34.667,16.299,34.368,16,34,16
		c-0.368,0-0.667,0.299-0.667,0.667v6.667C33.333,23.701,33.632,24,34,24L34,24z M34,24"/>
	<path style="fill:#BABABA;" d="M37.333,16.667c0-0.368-0.299-0.667-0.666-0.667C36.299,16,36,16.299,36,16.667v6.667
		C36,23.701,36.299,24,36.667,24c0.368,0,0.666-0.299,0.666-0.666V16.667z M37.333,16.667"/>
	<path style="fill:#BABABA;" d="M38,5.333h-4c-0.368,0-0.667,0.299-0.667,0.667c0,0.368,0.299,0.667,0.667,0.667h4
		c0.367,0,0.666,0.299,0.666,0.667V38c0,0.367-0.299,0.666-0.666,0.666h-6v-28h4c0.368,0,0.666-0.299,0.666-0.667
		c0-0.368-0.299-0.666-0.666-0.666h-4v-6c0-1.121-0.879-2-2-2h-4c-1.102,0-2,0.898-2,2v35.333h-6.667V4H22
		c0.368,0,0.666-0.299,0.666-0.667c0-0.368-0.299-0.666-0.666-0.666h-4.667V2c0-1.121-0.879-2-2-2H8.667c-1.102,0-2,0.897-2,2v6
		H3.333C2.966,8,2.667,8.299,2.667,8.667c0,0.368,0.299,0.667,0.666,0.667h3.333v29.333H2c-0.367,0-0.667-0.299-0.667-0.666V6
		c0-0.367,0.3-0.667,0.667-0.667h2.666c0.368,0,0.667-0.299,0.667-0.666C5.333,4.299,5.035,4,4.666,4H2C0.897,4,0,4.897,0,6v32
		c0,1.102,0.897,2,2,2h36c1.102,0,2-0.898,2-2V7.333C40,6.231,39.102,5.333,38,5.333L38,5.333z M16,38.666H8V5.333h6
		c0.368,0,0.667-0.299,0.667-0.666C14.667,4.299,14.368,4,14,4H8V2c0-0.374,0.293-0.667,0.666-0.667h6.667
		C15.713,1.333,16,1.62,16,2V38.666z M30.667,38.666h-5.333v-32h3.333c0.368,0,0.666-0.299,0.666-0.667
		c0-0.368-0.299-0.667-0.666-0.667h-3.333v-2c0-0.374,0.293-0.666,0.666-0.666h4c0.38,0,0.667,0.286,0.667,0.666V38.666z
		 M30.667,38.666"/>
	<path style="fill:#BABABA;" d="M4.666,32H3.333c-0.368,0-0.666,0.299-0.666,0.667c0,0.368,0.299,0.666,0.666,0.666h1.334
		c0.368,0,0.666-0.299,0.666-0.666C5.333,32.298,5.035,32,4.666,32L4.666,32z M4.666,32"/>
	<path style="fill:#BABABA;" d="M4.666,34.667H3.333c-0.368,0-0.666,0.298-0.666,0.666C2.667,35.701,2.966,36,3.333,36h1.334
		c0.368,0,0.666-0.299,0.666-0.667C5.333,34.965,5.035,34.667,4.666,34.667L4.666,34.667z M4.666,34.667"/>
	<path style="fill:#BABABA;" d="M22,32h-2.667c-0.368,0-0.667,0.299-0.667,0.667c0,0.368,0.299,0.666,0.667,0.666H22
		c0.368,0,0.666-0.299,0.666-0.666C22.666,32.298,22.368,32,22,32L22,32z M22,32"/>
	<path style="fill:#BABABA;" d="M4.666,16H3.333c-0.368,0-0.666,0.299-0.666,0.667c0,0.368,0.299,0.666,0.666,0.666h1.334
		c0.368,0,0.666-0.299,0.666-0.666C5.333,16.299,5.035,16,4.666,16L4.666,16z M4.666,16"/>
	<path style="fill:#BABABA;" d="M4.666,18.666H3.333c-0.368,0-0.666,0.299-0.666,0.667C2.667,19.701,2.965,20,3.333,20h1.334
		c0.368,0,0.666-0.299,0.666-0.667C5.333,18.965,5.035,18.666,4.666,18.666L4.666,18.666z M4.666,18.666"/>
</g>
</svg>
