<?xml version="1.0" encoding="iso-8859-1"?>
<!-- Generator: Adobe Illustrator 21.1.0, SVG Export Plug-In . SVG Version: 6.00 Build 0)  -->
<svg version="1.1" id="Layer_1" xmlns="http://www.w3.org/2000/svg" xmlns:xlink="http://www.w3.org/1999/xlink" x="0px" y="0px"
	 viewBox="194.26 378.371 40 40.385" style="enable-background:new 194.26 378.371 40 40.385;" xml:space="preserve">
<g>
	<path style="fill:#BABABA;" d="M221.009,397.096c-0.37,0-0.669,0.299-0.669,0.669v17.387c0,1.106-0.9,2.006-2.006,2.006h-20.731
		c-1.106,0-2.006-0.9-2.006-2.006v-28.755c0-0.916,0.619-1.715,1.504-1.943c0.358-0.092,0.573-0.457,0.481-0.815
		c-0.092-0.357-0.46-0.571-0.814-0.481c-1.477,0.381-2.508,1.713-2.508,3.239v28.755c0,1.844,1.5,3.344,3.344,3.344h20.731
		c1.844,0,3.344-1.5,3.344-3.344v-17.387C221.678,397.395,221.379,397.096,221.009,397.096z"/>
	<path style="fill:#BABABA;" d="M218.838,384.453c0.885,0.229,1.503,1.028,1.503,1.943v0.669c0,0.37,0.299,0.669,0.669,0.669
		s0.669-0.299,0.669-0.669v-0.669c0-1.525-1.031-2.856-2.506-3.237c-0.358-0.096-0.722,0.122-0.814,0.48
		C218.265,383.996,218.48,384.361,218.838,384.453z"/>
	<path style="fill:#BABABA;" d="M198.941,387.734h18.056c0.37,0,0.669-0.299,0.669-0.669v-2.006c0-1.106-0.9-2.006-2.006-2.006
		h-0.833l-0.922-3.226c-0.245-0.857-1.039-1.455-1.929-1.455h-8.013c-0.891,0-1.685,0.599-1.929,1.455l-0.922,3.226h-0.833
		c-1.106,0-2.006,0.9-2.006,2.006v2.006C198.272,387.435,198.571,387.734,198.941,387.734z M199.61,385.059
		c0-0.369,0.3-0.669,0.669-0.669h1.337c0.298,0,0.561-0.198,0.643-0.486l1.061-3.711c0.081-0.285,0.345-0.484,0.643-0.484h8.013
		c0.297,0,0.562,0.199,0.643,0.485l1.061,3.711c0.082,0.287,0.345,0.485,0.643,0.485h1.337c0.369,0,0.669,0.3,0.669,0.669v1.337
		H199.61V385.059z"/>
	<path style="fill:#BABABA;" d="M208.059,380.677c-1.131,0-2.051,0.92-2.051,2.051c0,1.131,0.92,2.051,2.051,2.051
		c1.131,0,2.051-0.92,2.051-2.051C210.11,381.597,209.19,380.677,208.059,380.677z M208.059,383.442
		c-0.394,0-0.714-0.32-0.714-0.714c0-0.393,0.32-0.714,0.714-0.714c0.393,0,0.714,0.32,0.714,0.714
		C208.773,383.122,208.453,383.442,208.059,383.442z"/>
	<path style="fill:#BABABA;" d="M214.322,395.09c0-0.37-0.299-0.669-0.669-0.669h-4.012c-0.37,0-0.669,0.299-0.669,0.669
		c0,0.37,0.299,0.669,0.669,0.669h4.012C214.023,395.758,214.322,395.459,214.322,395.09z"/>
	<path style="fill:#BABABA;" d="M199.61,400.439h4.012c0.37,0,0.669-0.299,0.669-0.669s-0.299-0.669-0.669-0.669h-4.012
		c-0.37,0-0.669,0.299-0.669,0.669S199.24,400.439,199.61,400.439z"/>
	<path style="fill:#BABABA;" d="M217.665,390.409c0-0.37-0.299-0.669-0.669-0.669h-7.356c-0.37,0-0.669,0.299-0.669,0.669
		s0.299,0.669,0.669,0.669h7.356C217.367,391.077,217.665,390.778,217.665,390.409z"/>
	<path style="fill:#BABABA;" d="M206.966,399.771c0,0.37,0.299,0.669,0.669,0.669h4.681c0.37,0,0.669-0.299,0.669-0.669
		s-0.299-0.669-0.669-0.669h-4.681C207.265,399.102,206.966,399.401,206.966,399.771z"/>
	<path style="fill:#BABABA;" d="M216.997,403.783H199.61c-0.37,0-0.669,0.299-0.669,0.669s0.299,0.669,0.669,0.669h17.387
		c0.37,0,0.669-0.299,0.669-0.669S217.367,403.783,216.997,403.783z"/>
	<path style="fill:#BABABA;" d="M199.61,409.802h4.012c0.37,0,0.669-0.299,0.669-0.669s-0.299-0.669-0.669-0.669h-4.012
		c-0.37,0-0.669,0.299-0.669,0.669S199.24,409.802,199.61,409.802z"/>
	<path style="fill:#BABABA;" d="M216.997,408.464h-9.362c-0.37,0-0.669,0.299-0.669,0.669s0.299,0.669,0.669,0.669h9.362
		c0.37,0,0.669-0.299,0.669-0.669S217.367,408.464,216.997,408.464z"/>
	<path style="fill:#BABABA;" d="M199.61,414.483h17.387c0.37,0,0.669-0.299,0.669-0.669c0-0.37-0.299-0.669-0.669-0.669H199.61
		c-0.37,0-0.669,0.299-0.669,0.669C198.941,414.184,199.24,414.483,199.61,414.483z"/>
	<path style="fill:#BABABA;" d="M205.628,389.74h-4.681c-1.106,0-2.006,0.9-2.006,2.006v2.006c0,1.106,0.9,2.006,2.006,2.006h4.681
		c1.106,0,2.006-0.9,2.006-2.006v-2.006C207.635,390.64,206.734,389.74,205.628,389.74z M206.297,393.752
		c0,0.369-0.3,0.669-0.669,0.669h-4.681c-0.369,0-0.669-0.3-0.669-0.669v-2.006c0-0.369,0.3-0.669,0.669-0.669h4.681
		c0.369,0,0.669,0.3,0.669,0.669V393.752z"/>
	<path style="fill:#BABABA;" d="M224.208,400.356c0,2.772,2.254,5.026,5.026,5.026s5.026-2.254,5.026-5.026
		s-2.254-5.026-5.026-5.026S224.208,397.584,224.208,400.356z M232.922,400.356c0,2.034-1.655,3.689-3.689,3.689
		c-2.034,0-3.689-1.655-3.689-3.689c0-2.034,1.655-3.689,3.689-3.689C231.267,396.667,232.922,398.322,232.922,400.356z"/>
	<path style="fill:#BABABA;" d="M228.153,399.949c-0.271-0.25-0.695-0.235-0.946,0.037c-0.251,0.271-0.235,0.694,0.037,0.946
		l1.535,1.421c0.125,0.115,0.288,0.178,0.455,0.178c0.031,0,0.062-0.002,0.093-0.007c0.199-0.028,0.375-0.144,0.479-0.315
		l1.676-2.758c0.192-0.316,0.092-0.728-0.224-0.919c-0.316-0.193-0.727-0.092-0.919,0.224l-1.251,2.059L228.153,399.949z"/>
	<path style="fill:#BABABA;" d="M229.234,408.704c-2.772,0-5.026,2.254-5.026,5.026c0,2.772,2.254,5.026,5.026,5.026
		s5.026-2.254,5.026-5.026C234.26,410.959,232.005,408.704,229.234,408.704z M229.234,417.419c-2.034,0-3.689-1.655-3.689-3.689
		c0-2.034,1.655-3.689,3.689-3.689c2.034,0,3.689,1.655,3.689,3.689C232.923,415.764,231.267,417.419,229.234,417.419z"/>
	<path style="fill:#BABABA;" d="M231.257,411.905c-0.316-0.193-0.727-0.092-0.919,0.224l-1.251,2.059l-0.934-0.865
		c-0.271-0.25-0.695-0.235-0.946,0.037c-0.251,0.271-0.235,0.694,0.037,0.946l1.535,1.421c0.125,0.115,0.288,0.178,0.455,0.178
		c0.031,0,0.062-0.002,0.093-0.007c0.199-0.028,0.375-0.144,0.479-0.315l1.676-2.758
		C231.673,412.508,231.572,412.097,231.257,411.905z"/>
	<path style="fill:#BABABA;" d="M229.872,388.729l-4.255,4.256c-0.261,0.261-0.261,0.684,0,0.946c0.13,0.13,0.302,0.196,0.473,0.196
		c0.171,0,0.342-0.066,0.473-0.196l4.728-4.729c0.261-0.261,0.261-0.684,0-0.946l-1.418-1.418c0.379-0.379,0.588-0.883,0.588-1.418
		c0-0.536-0.209-1.041-0.588-1.418c-0.782-0.782-2.054-0.782-2.837,0l-0.685,0.685l-4.989,4.989l-5.675,5.675
		c-0.379,0.379-0.588,0.882-0.588,1.418c0,0.304,0.074,0.594,0.201,0.86l-1.032,1.032c-0.261,0.261-0.261,0.684,0,0.946
		c0.13,0.13,0.302,0.196,0.473,0.196s0.342-0.066,0.473-0.196l1.033-1.033c0.271,0.129,0.564,0.201,0.859,0.201
		c0.514,0,1.027-0.195,1.418-0.586l5.674-5.674l4.729-4.729L229.872,388.729z M227.981,384.947c0.261-0.26,0.685-0.261,0.946,0.001
		c0.126,0.126,0.196,0.293,0.196,0.472c0,0.179-0.07,0.346-0.196,0.473l-0.213,0.213l-0.473-0.473l-0.473-0.473L227.981,384.947z
		 M217.577,397.242c-0.261,0.261-0.684,0.261-0.946,0c-0.126-0.126-0.196-0.294-0.196-0.473c0-0.179,0.07-0.346,0.196-0.472
		c0-0.001,0-0.001,0-0.001l5.201-5.201l0.946,0.946L217.577,397.242z M223.725,391.094l-0.946-0.946l4.043-4.044l0.473,0.473
		l0.473,0.473L223.725,391.094z"/>
</g>
</svg>
