<?xml version="1.0" encoding="iso-8859-1"?>
<!-- Generator: Adobe Illustrator 21.1.0, SVG Export Plug-In . SVG Version: 6.00 Build 0)  -->
<svg version="1.1" id="Layer_1" xmlns="http://www.w3.org/2000/svg" xmlns:xlink="http://www.w3.org/1999/xlink" x="0px" y="0px"
	 viewBox="187 380.673 40 32.651" style="enable-background:new 187 380.673 40 32.651;" xml:space="preserve">
<g>
	<path style="fill:#BABABA;" d="M225.038,395.371h-0.71v-0.41c0-0.289-0.197-0.54-0.477-0.608c-0.164-0.04-4.062-0.986-7.414-0.986
		c-2.268,0-3.495,0.479-4.087,0.825c-0.591-0.347-1.819-0.825-4.087-0.825c-0.418,0-0.867,0.015-1.338,0.045
		c0.022-0.249,0.033-0.501,0.033-0.755c0-4.766-3.877-8.643-8.643-8.643c-4.766,0-8.643,3.877-8.643,8.643
		c0,4.555,3.542,8.298,8.017,8.62v10.085c0,1.082,0.88,1.962,1.962,1.962h25.386c1.082,0,1.962-0.88,1.962-1.962v-14.029
		C227,396.251,226.12,395.371,225.038,395.371z M194.793,386.161c-0.112,0.162-0.221,0.332-0.325,0.511
		c-0.137,0.235-0.264,0.482-0.383,0.738c-0.238-0.075-0.476-0.156-0.711-0.244C193.804,386.779,194.28,386.44,194.793,386.161z
		 M192.459,388.155c0.386,0.158,0.776,0.3,1.169,0.426c-0.343,1.058-0.548,2.229-0.6,3.45h-2.076
		C191.074,390.579,191.618,389.247,192.459,388.155z M190.952,393.283h2.076c0.053,1.22,0.258,2.392,0.6,3.45
		c-0.393,0.126-0.783,0.268-1.169,0.426C191.618,396.067,191.074,394.734,190.952,393.283z M193.374,398.147
		c0.236-0.088,0.473-0.169,0.711-0.244c0.119,0.256,0.246,0.503,0.383,0.738c0.104,0.179,0.213,0.349,0.325,0.511
		C194.28,398.873,193.804,398.535,193.374,398.147z M197.689,399.954c-0.925-0.275-1.756-1.145-2.368-2.381
		c0.779-0.17,1.57-0.272,2.368-0.308V399.954z M197.689,396.012c-0.961,0.039-1.912,0.168-2.847,0.385
		c-0.308-0.933-0.507-1.993-0.562-3.115h3.408V396.012z M197.689,392.03h-3.408c0.054-1.122,0.253-2.182,0.562-3.115
		c0.935,0.218,1.886,0.346,2.847,0.385V392.03z M197.689,388.048c-0.798-0.035-1.589-0.138-2.368-0.308
		c0.612-1.235,1.443-2.106,2.368-2.381V388.048z M205.679,392.03h-2.076c-0.053-1.22-0.258-2.392-0.6-3.45
		c0.393-0.126,0.783-0.268,1.169-0.426C205.014,389.247,205.557,390.579,205.679,392.03z M203.003,396.733
		c0.343-1.058,0.548-2.229,0.6-3.45h2.076c-0.122,1.451-0.665,2.783-1.507,3.875C203.786,397,203.396,396.859,203.003,396.733z
		 M203.258,398.147c-0.431,0.388-0.907,0.727-1.42,1.006c0.112-0.162,0.221-0.332,0.325-0.512c0.137-0.235,0.264-0.482,0.383-0.738
		C202.785,397.977,203.022,398.059,203.258,398.147z M203.257,387.167c-0.236,0.088-0.473,0.169-0.711,0.244
		c-0.119-0.256-0.246-0.503-0.383-0.738c-0.104-0.179-0.213-0.349-0.325-0.512C202.351,386.44,202.827,386.779,203.257,387.167z
		 M198.942,385.359c0.925,0.275,1.756,1.145,2.368,2.38c-0.779,0.17-1.57,0.272-2.368,0.308V385.359z M198.942,389.301
		c0.961-0.039,1.912-0.168,2.847-0.385c0.308,0.933,0.507,1.993,0.562,3.115h-3.408L198.942,389.301L198.942,389.301z
		 M198.942,393.283h3.408c-0.054,1.122-0.253,2.182-0.562,3.115c-0.935-0.218-1.886-0.346-2.847-0.385V393.283z M198.942,397.266
		c0.798,0.035,1.589,0.138,2.368,0.308c-0.612,1.235-1.443,2.105-2.368,2.38V397.266z M211.718,412.072h-12.067
		c-0.391,0-0.71-0.318-0.71-0.71v-10.085c0.489-0.035,0.966-0.111,1.429-0.225v9.274c0,0.192,0.088,0.374,0.24,0.493
		c0.151,0.119,0.349,0.161,0.536,0.116c0.039-0.01,3.913-0.95,7.116-0.95c2.073,0,3.076,0.432,3.456,0.655L211.718,412.072
		L211.718,412.072z M208.263,408.732c-2.503,0-5.309,0.527-6.639,0.811v-8.902c1.289-0.536,2.42-1.375,3.306-2.428
		c1.245-0.168,2.367-0.254,3.333-0.254c0.477,0,0.928,0.023,1.342,0.068c0.344,0.038,0.653-0.21,0.691-0.554
		c0.038-0.344-0.21-0.653-0.554-0.691c-0.459-0.05-0.956-0.076-1.478-0.076c-0.721,0-1.522,0.045-2.386,0.133
		c0.372-0.67,0.658-1.394,0.842-2.158c0.55-0.041,1.069-0.063,1.544-0.063c2.073,0,3.077,0.432,3.456,0.655v13.984
		C211.014,408.986,209.915,408.732,208.263,408.732z M223.075,395.46v14.082c-1.331-0.284-4.136-0.811-6.639-0.811
		c-1.66,0-2.762,0.256-3.465,0.53V395.28c0.371-0.221,1.373-0.661,3.465-0.661C218.973,394.619,221.938,395.211,223.075,395.46z
		 M225.747,411.362c0,0.391-0.318,0.71-0.71,0.71h-12.067v-1.427c0.371-0.221,1.374-0.661,3.465-0.661
		c3.199,0,7.077,0.94,7.116,0.95c0.187,0.046,0.384,0.003,0.536-0.116c0.151-0.119,0.24-0.3,0.24-0.493v-13.703h0.71
		c0.391,0,0.71,0.318,0.71,0.71L225.747,411.362L225.747,411.362z"/>
	<path style="fill:#BABABA;" d="M209.741,404.799c-0.459-0.05-0.956-0.076-1.478-0.076c-0.408,0-0.846,0.014-1.302,0.043
		c-0.345,0.021-0.608,0.319-0.586,0.664c0.021,0.345,0.32,0.608,0.664,0.586c0.43-0.027,0.842-0.04,1.224-0.04
		c0.477,0,0.928,0.023,1.342,0.068c0.023,0.003,0.046,0.004,0.069,0.004c0.315,0,0.587-0.237,0.622-0.558
		C210.333,405.146,210.085,404.837,209.741,404.799z"/>
	<path style="fill:#BABABA;" d="M204.235,405.063c-0.221,0.033-0.449,0.069-0.678,0.107c-0.341,0.057-0.572,0.379-0.515,0.72
		c0.051,0.307,0.316,0.524,0.617,0.524c0.034,0,0.069-0.003,0.103-0.009c0.212-0.035,0.432-0.07,0.658-0.104
		c0.342-0.051,0.578-0.37,0.527-0.712C204.896,405.248,204.577,405.011,204.235,405.063z"/>
	<path style="fill:#BABABA;" d="M209.741,402.127c-0.459-0.05-0.956-0.076-1.478-0.076c-1.338,0-2.921,0.15-4.706,0.446
		c-0.341,0.057-0.572,0.379-0.515,0.72c0.051,0.307,0.316,0.524,0.617,0.524c0.034,0,0.069-0.003,0.103-0.009
		c1.717-0.285,3.231-0.429,4.501-0.429c0.477,0,0.928,0.023,1.342,0.068c0.344,0.038,0.653-0.21,0.691-0.554
		C210.333,402.474,210.085,402.165,209.741,402.127z"/>
	<path style="fill:#BABABA;" d="M209.741,399.455c-0.226-0.025-0.462-0.044-0.704-0.056c-0.344-0.018-0.64,0.247-0.658,0.593
		c-0.018,0.345,0.247,0.64,0.593,0.658c0.218,0.011,0.43,0.028,0.632,0.05c0.023,0.003,0.046,0.004,0.069,0.004
		c0.315,0,0.587-0.237,0.622-0.558C210.333,399.802,210.085,399.493,209.741,399.455z"/>
	<path style="fill:#BABABA;" d="M203.659,401.069c0.034,0,0.069-0.003,0.103-0.009c0.927-0.154,1.811-0.268,2.625-0.34
		c0.345-0.03,0.599-0.334,0.569-0.679c-0.03-0.345-0.334-0.599-0.679-0.569c-0.846,0.074-1.761,0.193-2.72,0.352
		c-0.341,0.057-0.572,0.379-0.515,0.72C203.093,400.852,203.358,401.069,203.659,401.069z"/>
	<path style="fill:#BABABA;" d="M215.016,406.048c0.023,0,0.046-0.001,0.069-0.004c0.414-0.045,0.865-0.068,1.342-0.068
		c0.382,0,0.794,0.014,1.224,0.04c0.344,0.023,0.642-0.241,0.664-0.586s-0.241-0.643-0.586-0.664
		c-0.456-0.028-0.894-0.043-1.302-0.043c-0.522,0-1.019,0.026-1.478,0.076c-0.344,0.038-0.592,0.347-0.554,0.691
		C214.43,405.811,214.701,406.048,215.016,406.048z"/>
	<path style="fill:#BABABA;" d="M221.132,405.17c-0.229-0.038-0.457-0.074-0.678-0.107c-0.342-0.051-0.661,0.185-0.712,0.527
		s0.185,0.661,0.527,0.712c0.226,0.034,0.446,0.068,0.658,0.104c0.035,0.006,0.069,0.009,0.103,0.009
		c0.301,0,0.566-0.217,0.617-0.524C221.704,405.549,221.474,405.226,221.132,405.17z"/>
	<path style="fill:#BABABA;" d="M215.085,403.372c0.414-0.045,0.865-0.068,1.342-0.068c1.27,0,2.784,0.144,4.501,0.429
		c0.035,0.006,0.069,0.009,0.103,0.009c0.301,0,0.566-0.217,0.617-0.524c0.057-0.341-0.174-0.664-0.515-0.72
		c-1.784-0.296-3.368-0.446-4.706-0.446c-0.522,0-1.019,0.026-1.478,0.076c-0.344,0.038-0.592,0.347-0.554,0.691
		C214.432,403.162,214.741,403.41,215.085,403.372z"/>
	<path style="fill:#BABABA;" d="M215.016,400.704c0.023,0,0.046-0.001,0.069-0.004c0.202-0.022,0.415-0.039,0.632-0.05
		c0.345-0.018,0.611-0.313,0.593-0.658c-0.018-0.345-0.312-0.61-0.658-0.593c-0.241,0.013-0.478,0.031-0.704,0.056
		c-0.344,0.038-0.592,0.347-0.554,0.691C214.43,400.466,214.701,400.704,215.016,400.704z"/>
	<path style="fill:#BABABA;" d="M221.132,399.825c-0.959-0.159-1.874-0.277-2.72-0.352c-0.344-0.03-0.648,0.224-0.679,0.569
		c-0.03,0.345,0.224,0.648,0.569,0.679c0.814,0.072,1.697,0.186,2.625,0.34c0.035,0.006,0.069,0.009,0.103,0.009
		c0.301,0,0.566-0.217,0.617-0.524C221.704,400.204,221.474,399.882,221.132,399.825z"/>
	<path style="fill:#BABABA;" d="M215.085,398.028c0.414-0.045,0.865-0.068,1.342-0.068c1.27,0,2.784,0.144,4.501,0.429
		c0.035,0.006,0.069,0.009,0.103,0.009c0.301,0,0.566-0.217,0.617-0.524c0.057-0.341-0.174-0.664-0.515-0.72
		c-1.784-0.296-3.367-0.446-4.706-0.446c-0.522,0-1.019,0.026-1.478,0.076c-0.344,0.038-0.592,0.347-0.554,0.691
		C214.432,397.817,214.741,398.066,215.085,398.028z"/>
	<path style="fill:#BABABA;" d="M198.316,381.926c4.832,0,8.985,3.208,10.299,7.705l-0.516-0.466
		c-0.257-0.232-0.653-0.211-0.885,0.046c-0.232,0.257-0.211,0.653,0.046,0.885l1.92,1.732c0.116,0.105,0.266,0.161,0.419,0.161
		c0.054,0,0.109-0.007,0.163-0.021c0.205-0.055,0.368-0.211,0.433-0.413l0.809-2.51c0.106-0.329-0.075-0.682-0.404-0.788
		c-0.329-0.106-0.682,0.075-0.788,0.404l-0.095,0.295c-1.569-4.852-6.122-8.282-11.401-8.282c-5.04,0-9.572,3.185-11.278,7.925
		c-0.117,0.325,0.052,0.684,0.377,0.801c0.325,0.117,0.684-0.052,0.801-0.377C189.743,384.778,193.802,381.926,198.316,381.926z"/>
</g>
</svg>
