<?xml version="1.0" encoding="iso-8859-1"?>
<!-- Generator: Adobe Illustrator 21.1.0, SVG Export Plug-In . SVG Version: 6.00 Build 0)  -->
<svg version="1.1" id="Layer_1" xmlns="http://www.w3.org/2000/svg" xmlns:xlink="http://www.w3.org/1999/xlink" x="0px" y="0px"
	 viewBox="183.332 376.7 40 40.6" style="enable-background:new 183.332 376.7 40 40.6;" xml:space="preserve">
<g>
	<path style="fill:#BABABA;" d="M219.953,388.235l-1.209,0.504l0.987,2.367h-4.312v1.31h4.857l1.637,3.929l-1.637,3.929h-9.988
		c-1.752-1.62-4.086-2.619-6.656-2.619s-4.903,0.999-6.656,2.619h-11.025v1.31h9.841c-1.239,1.644-1.983,3.681-1.983,5.894
		c0,5.416,4.406,9.823,9.823,9.823c5.416,0,9.823-4.406,9.823-9.823c0-2.213-0.744-4.25-1.983-5.894h8.259l-0.986,2.367l1.209,0.504
		l3.378-8.11L219.953,388.235z M203.632,415.991c-4.694,0-8.513-3.819-8.513-8.513s3.819-8.513,8.513-8.513s8.513,3.819,8.513,8.513
		S208.326,415.991,203.632,415.991z"/>
	<path style="fill:#BABABA;" d="M188.577,397.386l11.539-6.251l1.451,1.451l-2.691,0.337c-1.022,0.128-1.792,1.001-1.792,2.03
		c0,1.128,0.918,2.046,2.046,2.046c0.404,0,0.813-0.022,1.215-0.067l5.776-0.642l0.838-3.354l-2.763-3.869l3.547-0.507l1.289,4.51
		h3.768c1.083,0,1.965-0.881,1.965-1.965c0-1.083-0.881-1.965-1.965-1.965h-0.773l-0.582-2.911l-2.566-3.079
		c-0.642-0.771-1.585-1.213-2.589-1.213c-0.157,0-0.312,0.014-0.467,0.035l-2.753-1.376l-5.612,1.122
		c-0.976,0.196-1.684,1.059-1.684,2.054c0,1.155,0.94,2.094,2.094,2.094h0.36l-0.185,0.101l-11.711,7.397
		c-0.648,0.409-1.035,1.112-1.035,1.879v0.188c0,1.226,0.997,2.223,2.223,2.223C187.887,397.655,188.253,397.562,188.577,397.386z
		 M205.072,395.09l-4.871,0.541c-0.354,0.04-0.714,0.06-1.071,0.06c-0.406,0-0.737-0.331-0.737-0.737c0-0.37,0.278-0.684,0.645-0.73
		l5.348-0.669l-3.069-3.069l1.646-0.891l2.579,3.611L205.072,395.09z M198.403,384.548c-0.041,0.007-0.08,0.01-0.12,0.01h-0.414
		c-0.433,0-0.785-0.352-0.785-0.785c0-0.372,0.265-0.696,0.631-0.769l5.171-1.034l1.298,0.649l-2.643,1.442L198.403,384.548z
		 M186.606,395.432v-0.188c0-0.314,0.159-0.603,0.425-0.771l11.675-7.376l6.596-3.597c0.302-0.164,0.643-0.251,0.988-0.251
		c0.614,0,1.191,0.27,1.583,0.742l2.354,2.824l0.728,3.637h1.846c0.361,0,0.655,0.293,0.655,0.655c0,0.361-0.293,0.655-0.655,0.655
		h-2.78l-1.331-4.658l-5.265,0.752l-15.471,8.38c-0.133,0.071-0.284,0.11-0.434,0.11
		C187.016,396.345,186.606,395.936,186.606,395.432z"/>
	<path style="fill:#BABABA;" d="M212.145,384.558c2.167,0,3.929-1.762,3.929-3.929c0-2.167-1.762-3.929-3.929-3.929
		s-3.929,1.762-3.929,3.929C208.216,382.796,209.978,384.558,212.145,384.558z M212.145,378.009c1.445,0,2.619,1.175,2.619,2.619
		s-1.175,2.619-2.619,2.619c-1.445,0-2.619-1.175-2.619-2.619S210.701,378.009,212.145,378.009z"/>
	<rect x="183.332" y="400.274" style="fill:#BABABA;" width="1.31" height="1.31"/>
	<rect x="183.332" y="386.522" style="fill:#BABABA;" width="1.31" height="1.31"/>
	<rect x="185.951" y="386.522" style="fill:#BABABA;" width="6.548" height="1.31"/>
	<rect x="184.642" y="383.903" style="fill:#BABABA;" width="1.31" height="1.31"/>
	<rect x="187.261" y="383.903" style="fill:#BABABA;" width="7.203" height="1.31"/>
	<rect x="185.951" y="381.284" style="fill:#BABABA;" width="1.31" height="1.31"/>
	<rect x="188.571" y="381.284" style="fill:#BABABA;" width="6.548" height="1.31"/>
	<path style="fill:#BABABA;" d="M203.632,400.274c-3.972,0-7.203,3.232-7.203,7.203v0.655h0.655h0.655h0.655v-1.31h-0.616
		c0.067-0.6,0.225-1.173,0.458-1.705l0.533,0.308l0.655-1.134l-0.528-0.305c0.351-0.475,0.771-0.895,1.246-1.246l0.305,0.528
		l1.134-0.655l-0.308-0.533c0.532-0.234,1.105-0.391,1.705-0.458v0.616h1.31v-0.616c0.6,0.067,1.173,0.224,1.705,0.458l-0.308,0.533
		l1.134,0.655l0.305-0.528c0.475,0.351,0.895,0.771,1.246,1.246l-0.528,0.305l0.655,1.134l0.533-0.308
		c0.234,0.532,0.391,1.105,0.458,1.705h-0.616v1.31h0.655h0.655h0.655v-0.655C210.836,403.506,207.604,400.274,203.632,400.274z"/>
	
		<rect x="202.452" y="407.804" transform="matrix(0.5812 -0.8137 0.8137 0.5812 -246.4192 338.0856)" style="fill:#BABABA;" width="5.633" height="1.309"/>
	<rect x="202.977" y="412.716" style="fill:#BABABA;" width="1.31" height="1.31"/>
	<rect x="205.597" y="412.716" style="fill:#BABABA;" width="1.31" height="1.31"/>
	<rect x="200.358" y="412.716" style="fill:#BABABA;" width="1.31" height="1.31"/>
</g>
</svg>
