<?xml version="1.0" encoding="iso-8859-1"?>
<!-- Generator: Adobe Illustrator 21.1.0, SVG Export Plug-In . SVG Version: 6.00 Build 0)  -->
<svg version="1.1" id="&#x421;&#x43B;&#x43E;&#x439;_1"
	 xmlns="http://www.w3.org/2000/svg" xmlns:xlink="http://www.w3.org/1999/xlink" x="0px" y="0px" viewBox="0 0 70 68.929"
	 style="enable-background:new 0 0 70 68.929;" xml:space="preserve">
<g>
	<path style="fill:#BABABA;" d="M47.097,43.716c0.103,0,0.207-0.017,0.313-0.05l13.504-4.415c0.525-0.171,0.813-0.739,0.642-1.265
		c-0.135-0.414-0.518-0.692-0.954-0.692c-0.106,0-0.211,0.017-0.312,0.05l-13.502,4.415c-0.255,0.083-0.462,0.26-0.584,0.499
		c-0.121,0.238-0.142,0.511-0.059,0.765C46.277,43.437,46.66,43.716,47.097,43.716L47.097,43.716z M47.097,43.716"/>
	<path style="fill:#BABABA;" d="M47.097,47.188c0.103,0,0.208-0.017,0.313-0.05l6.754-2.207c0.525-0.172,0.813-0.74,0.642-1.266
		c-0.135-0.414-0.519-0.691-0.954-0.691c-0.106,0-0.211,0.017-0.312,0.05l-6.754,2.207c-0.255,0.084-0.462,0.261-0.584,0.499
		c-0.121,0.239-0.142,0.511-0.059,0.766C46.277,46.91,46.66,47.188,47.097,47.188L47.097,47.188z M47.097,47.188"/>
	<path style="fill:#BABABA;" d="M65.837,39.436v-7.58c0-0.321-0.155-0.625-0.415-0.813c-0.259-0.188-0.599-0.241-0.902-0.141
		l-2.568,0.839c-2.766-3.17-6.568-5.066-10.75-5.367c1.086-0.893,2.037-1.936,2.832-3.106c0.218,0.042,0.441,0.063,0.664,0.063
		c1.937,0,3.512-1.576,3.512-3.513c0-1.246-0.662-2.399-1.735-3.031c0.075-0.596,0.113-1.203,0.113-1.807
		c0-8.116-6.603-14.719-14.718-14.719c-8.115,0-14.716,6.603-14.716,14.719c0,0.596,0.038,1.204,0.112,1.807
		c-1.073,0.633-1.735,1.785-1.735,3.032c0,1.937,1.576,3.513,3.513,3.513c0.221,0,0.443-0.021,0.662-0.063
		c0.81,1.189,1.778,2.246,2.882,3.146c-4.203,0.27-8.034,2.148-10.828,5.319l-2.54-0.831c-0.303-0.1-0.642-0.047-0.902,0.141
		c-0.259,0.189-0.414,0.493-0.414,0.813v7.58c-2.346,0.175-4.164,2.121-4.164,4.49v1.971c0,2.37,1.818,4.317,4.164,4.492v10.289
		c0,0.435,0.278,0.819,0.691,0.954l22.962,7.508l0.013,0.003c0.045,0.015,0.088,0.024,0.133,0.032l0.027,0.003
		c0.047,0.006,0.093,0.011,0.141,0.011c0.047,0,0.092-0.004,0.139-0.01l0.03-0.004c0.044-0.008,0.086-0.018,0.131-0.032
		l22.974-7.511c0.415-0.135,0.693-0.519,0.693-0.954V50.388C68.183,50.212,70,48.265,70,45.896v-1.971
		C70,41.558,68.182,39.611,65.837,39.436L65.837,39.436z M19.911,50.388c2.346-0.176,4.164-2.123,4.164-4.492v-1.971
		c0-2.367-1.818-4.314-4.164-4.49v-6.196l20.954,6.852v26.71L19.911,59.95V50.388z M22.067,43.926v1.971
		c0,1.378-1.121,2.499-2.498,2.499h-1.325c-1.377,0-2.498-1.121-2.498-2.499v-1.971c0-1.376,1.121-2.496,2.498-2.496h1.325
		C20.946,41.43,22.067,42.549,22.067,43.926L22.067,43.926z M40.754,2.315c0.05,0.462,0.076,0.928,0.076,1.387
		c0,6.554-5.08,12.089-11.59,12.662c-0.053-0.477-0.079-0.942-0.079-1.385C29.16,8.42,34.242,2.884,40.754,2.315L40.754,2.315z
		 M36.693,31.506l-0.741-3.036c1.108,0.484,2.274,0.829,3.476,1.027L36.693,31.506z M44.312,29.497
		c1.201-0.198,2.368-0.543,3.478-1.027l-0.744,3.036L44.312,29.497z M33.624,28.386h0.241l1.236,5.059
		c0.08,0.326,0.317,0.589,0.633,0.704c0.321,0.115,0.668,0.061,0.936-0.135l5.2-3.822l5.199,3.822
		c0.266,0.196,0.622,0.248,0.936,0.134c0.317-0.115,0.552-0.378,0.632-0.704l1.249-5.106h0.156c3.726,0,7.201,1.45,9.81,4.089
		l-17.983,5.88L23.865,32.42C26.468,29.816,29.924,28.386,33.624,28.386L33.624,28.386z M54.698,21.324
		c-0.232,0-0.453-0.049-0.654-0.148c-0.139-0.067-0.287-0.101-0.439-0.101c-0.354,0-0.675,0.181-0.859,0.484
		c-2.325,3.84-6.391,6.132-10.876,6.132c-4.482,0-8.548-2.293-10.878-6.132c-0.184-0.303-0.504-0.484-0.859-0.484
		c-0.154,0-0.303,0.034-0.439,0.102c-0.198,0.096-0.423,0.147-0.65,0.147c-0.831,0-1.507-0.676-1.507-1.506
		c0-0.614,0.382-1.175,0.951-1.402c5.935-0.147,11.262-3.934,13.382-9.469c2.118,5.536,7.446,9.322,13.384,9.469
		c0.568,0.228,0.947,0.788,0.947,1.402C56.202,20.648,55.527,21.324,54.698,21.324L54.698,21.324z M54.501,16.364
		C47.99,15.792,42.91,10.257,42.91,3.702c0-0.449,0.025-0.916,0.075-1.387c6.515,0.57,11.597,6.106,11.597,12.664
		C54.582,15.419,54.555,15.884,54.501,16.364L54.501,16.364z M67.993,43.926v1.971c0,1.378-1.121,2.499-2.499,2.499H64.17
		c-1.376,0-2.495-1.121-2.495-2.499v-1.971c0-1.376,1.119-2.496,2.495-2.496h1.325C66.872,41.43,67.993,42.549,67.993,43.926
		L67.993,43.926z M63.829,39.436c-2.345,0.175-4.162,2.121-4.162,4.49v1.971c0,2.37,1.817,4.317,4.162,4.492v9.562l-20.955,6.852
		v-26.71l20.955-6.852V39.436z M63.829,39.436"/>
	<path style="fill:#BABABA;" d="M41.871,33.587c0.556,0,1.009-0.452,1.009-1.007c0-0.556-0.453-1.008-1.009-1.008
		c-0.557,0-1.009,0.452-1.009,1.008C40.861,33.135,41.314,33.587,41.871,33.587L41.871,33.587z M41.871,33.587"/>
	<path style="fill:#BABABA;" d="M42.879,36.159c0-0.556-0.452-1.008-1.008-1.008c-0.557,0-1.009,0.452-1.009,1.008
		s0.453,1.008,1.009,1.008C42.427,37.167,42.879,36.715,42.879,36.159L42.879,36.159z M42.879,36.159"/>
	<path style="fill:#BABABA;" d="M19.406,24.701c1.811,0,3.147-0.391,3.203-0.407c0.423-0.125,0.718-0.521,0.718-0.962
		c-0.001-0.441-0.296-0.837-0.72-0.962c-1.209-0.357-2.269-1.061-3.154-2.095c2.464-1.629,3.874-3.961,3.874-6.417
		c0-2.364-1.258-4.562-3.544-6.192c-2.182-1.556-5.066-2.412-8.121-2.412c-3.054,0-5.938,0.857-8.12,2.412
		C1.258,9.295,0,11.494,0,13.858c0,2.364,1.258,4.563,3.543,6.192c2.183,1.556,5.066,2.412,8.12,2.412
		c0.375,0,0.761-0.015,1.147-0.043C14.994,24.303,17.6,24.701,19.406,24.701L19.406,24.701z M17.51,19.093
		c-0.251,0.133-0.435,0.366-0.505,0.64c-0.07,0.275-0.02,0.568,0.137,0.804c0.552,0.831,1.194,1.553,1.913,2.151
		c-1.532-0.052-3.57-0.469-5.202-2.031c-0.188-0.179-0.435-0.278-0.695-0.278c-0.033,0-0.067,0.002-0.101,0.006
		c-0.47,0.048-0.94,0.072-1.394,0.072c-5.324,0-9.656-2.96-9.656-6.598c0-3.638,4.332-6.597,9.656-6.597
		c5.324,0,9.657,2.96,9.657,6.597C21.319,15.884,19.895,17.841,17.51,19.093L17.51,19.093z M17.51,19.093"/>
	<path style="fill:#BABABA;" d="M45.693,5.096c-0.114-0.399-0.481-0.677-0.894-0.677c-0.086,0-0.173,0.012-0.256,0.036
		c-0.24,0.068-0.438,0.225-0.559,0.443c-0.121,0.218-0.149,0.469-0.081,0.708c1.122,3.944,3.86,7.279,7.513,9.148
		c0.133,0.068,0.276,0.103,0.423,0.103c0.353,0,0.672-0.195,0.831-0.508c0.234-0.458,0.052-1.02-0.405-1.253
		C49.073,11.463,46.678,8.547,45.693,5.096L45.693,5.096z M45.693,5.096"/>
	<path style="fill:#BABABA;" d="M31.901,14.856c0.148,0,0.29-0.034,0.424-0.102c3.652-1.87,6.39-5.204,7.512-9.148
		c0.068-0.239,0.04-0.49-0.081-0.708c-0.121-0.218-0.32-0.375-0.56-0.444c-0.084-0.024-0.169-0.036-0.256-0.036
		c-0.414,0-0.781,0.278-0.895,0.677c-0.983,3.449-3.378,6.364-6.569,7.999c-0.458,0.234-0.639,0.796-0.405,1.254
		C31.231,14.662,31.549,14.856,31.901,14.856L31.901,14.856z M31.901,14.856"/>
	<path style="fill:#BABABA;" d="M48.534,17.641c-0.515,0-0.933,0.418-0.933,0.932c0,0.324-0.265,0.588-0.591,0.588
		c-0.326,0-0.591-0.264-0.591-0.588c0-0.514-0.419-0.932-0.933-0.932c-0.515,0-0.933,0.418-0.933,0.932
		c0,1.352,1.101,2.452,2.456,2.452c1.354,0,2.455-1.1,2.455-2.452C49.465,18.059,49.048,17.641,48.534,17.641L48.534,17.641z
		 M48.534,17.641"/>
	<path style="fill:#BABABA;" d="M38.247,17.641c-0.514,0-0.932,0.418-0.932,0.932c0,0.324-0.264,0.588-0.589,0.588
		c-0.324,0-0.589-0.264-0.589-0.588c0-0.514-0.418-0.932-0.931-0.932c-0.514,0-0.932,0.418-0.932,0.932
		c0,1.352,1.1,2.452,2.452,2.452c1.353,0,2.452-1.1,2.452-2.452C39.179,18.059,38.761,17.641,38.247,17.641L38.247,17.641z
		 M38.247,17.641"/>
</g>
</svg>
