<?xml version="1.0" encoding="iso-8859-1"?>
<!-- Generator: Adobe Illustrator 21.1.0, SVG Export Plug-In . SVG Version: 6.00 Build 0)  -->
<svg version="1.1" id="&#x421;&#x43B;&#x43E;&#x439;_1"
	 xmlns="http://www.w3.org/2000/svg" xmlns:xlink="http://www.w3.org/1999/xlink" x="0px" y="0px" viewBox="0 0 40 38.092"
	 style="enable-background:new 0 0 40 38.092;" xml:space="preserve">
<g>
	<path style="fill:#BABABA;" d="M18.601,15.781V10.17h-1.287v5.611c-0.939,0.278-1.626,1.148-1.626,2.177
		c0,1.252,1.019,2.27,2.27,2.27c1.028,0,1.898-0.687,2.177-1.626h3.145v-1.287h-3.145C19.917,16.579,19.336,15.998,18.601,15.781
		L18.601,15.781z M17.958,18.94c-0.542,0-0.983-0.441-0.983-0.983c0-0.542,0.441-0.983,0.983-0.983c0.542,0,0.983,0.441,0.983,0.983
		C18.94,18.499,18.5,18.94,17.958,18.94L17.958,18.94z M17.958,18.94"/>
	<rect x="19.898" y="26.609" style="fill:#BABABA;" width="11.567" height="1.287"/>
	<rect x="32.648" y="26.609" style="fill:#BABABA;" width="2.432" height="1.287"/>
	<rect x="19.898" y="29.184" style="fill:#BABABA;" width="11.567" height="1.287"/>
	<rect x="32.648" y="29.184" style="fill:#BABABA;" width="2.432" height="1.287"/>
	<rect x="19.898" y="31.758" style="fill:#BABABA;" width="11.567" height="1.287"/>
	<rect x="32.648" y="31.758" style="fill:#BABABA;" width="2.432" height="1.287"/>
	<rect x="19.898" y="34.333" style="fill:#BABABA;" width="11.567" height="1.287"/>
	<rect x="32.648" y="34.333" style="fill:#BABABA;" width="2.432" height="1.287"/>
	<path style="fill:#BABABA;" d="M40,36.426l-2.336-13.91h-2.335c0.388-1.482,0.586-3.012,0.586-4.558
		C35.915,8.056,27.859,0,17.957,0C8.056,0,0,8.056,0,17.958c0,9.686,7.709,17.604,17.314,17.944v2.19h20.35v-1.667H40z
		 M38.467,35.138h-0.803v-4.58L38.467,35.138z M1.287,17.958c0-9.192,7.478-16.67,16.67-16.67c9.192,0,16.67,7.478,16.67,16.67
		c0,1.55-0.213,3.081-0.632,4.558h-2.763c0.503-1.461,0.758-2.99,0.758-4.558c0-7.738-6.295-14.033-14.033-14.033
		c-7.737,0-14.032,6.295-14.032,14.033c0,7.522,5.949,13.68,13.389,14.017v2.639C8.419,34.274,1.287,26.934,1.287,17.958
		L1.287,17.958z M17.314,29.606v1.08c-6.517-0.326-11.76-5.569-12.086-12.085h1.08v-1.287h-1.08
		c0.326-6.517,5.569-11.76,12.086-12.086v1.08h1.287v-1.08c6.517,0.326,11.76,5.569,12.086,12.086h-1.08v1.287h1.08
		c-0.066,1.349-0.344,2.661-0.824,3.914H17.314V29.606z M36.377,36.805H18.601V23.803h17.775V36.805z M36.377,36.805"/>
</g>
</svg>
