<?xml version="1.0" encoding="iso-8859-1"?>
<!-- Generator: Adobe Illustrator 21.1.0, SVG Export Plug-In . SVG Version: 6.00 Build 0)  -->
<svg version="1.1" id="&#x421;&#x43B;&#x43E;&#x439;_1"
	 xmlns="http://www.w3.org/2000/svg" xmlns:xlink="http://www.w3.org/1999/xlink" x="0px" y="0px" viewBox="0 0 60 52.498"
	 style="enable-background:new 0 0 60 52.498;" xml:space="preserve">
<g>
	<path style="fill:#66CEDB;" d="M25.712,27.858h8.575c0-2.145-1.445-3.375-3.218-3.375c-0.591,0-1.073-0.554-1.073-1.145
		c0-1.773-1.438-3.254-3.212-3.254c-0.308,0-0.617,0.027-0.905,0.11c-0.011,0.183-0.042,0.351-0.141,0.508
		c-0.153,0.252-0.403,0.429-0.696,0.492c-1.474,0.309-2.542,1.789-2.542,3.296C22.501,26.261,23.939,27.858,25.712,27.858
		L25.712,27.858z M25.712,27.858"/>
	<path style="fill:#EE8B26;" d="M32.054,22.433c2.484,0.461,4.373,2.207,4.373,5.425h11.787c0.591,0,1.073,0.481,1.073,1.073
		c0,1.768,1.438,3.212,3.212,3.212h1.073v-3.526c0-0.591,0.481-1.073,1.073-1.073c1.773,0,3.212-1.444,3.212-3.212
		c0-1.512-1.067-2.83-2.542-3.145c-0.293-0.063-0.544-0.24-0.696-0.497c-0.157-0.25-0.193-0.56-0.115-0.842
		c0.095-0.34,0.142-0.617,0.142-0.873c0-1.773-1.444-3.217-3.218-3.217c-0.24,0-0.497,0.042-0.81,0.119
		c-0.33,0.09-0.68,0.016-0.942-0.198c-0.266-0.214-0.419-0.538-0.403-0.879c0-0.038,0.011-0.142,0.016-0.178
		c0-1.71-1.444-3.15-3.218-3.15c-0.643,0-1.266,0.189-1.793,0.55c-0.277,0.188-0.623,0.24-0.943,0.13
		c-0.313-0.104-0.564-0.351-0.674-0.664c-0.45-1.292-1.665-2.16-3.019-2.16c-1.35,0-2.563,0.868-3.019,2.16
		c-0.11,0.313-0.356,0.56-0.675,0.664c-0.315,0.11-0.659,0.058-0.936-0.13c-0.534-0.362-1.152-0.55-1.8-0.55
		c-1.768,0-3.213,1.445-3.213,3.213c0,0.591-0.481,1.073-1.071,1.073c-1.424,0-2.621,0.942-3.04,2.229
		c0.293-0.052,0.592-0.005,0.9-0.005C29.406,17.981,31.588,19.948,32.054,22.433L32.054,22.433z M32.054,22.433"/>
	<path style="fill:#F8CF26;" d="M5.357,36.113c0.591,0,1.073,0.481,1.073,1.073v3.525h1.073c1.768,0,3.212-1.438,3.212-3.212
		c0-0.591,0.481-1.073,1.073-1.073h22.501c1.768,0,3.212-1.595,3.212-3.368c0-1.507-1.073-2.752-2.547-3.066
		c-0.058-0.011-0.104,0.004-0.162,0.004h-9.077c-2.95,0-5.357-2.558-5.357-5.514c0-1.993,1.136-3.861,2.83-4.776
		c-0.549-1.051-1.631-1.768-2.83-1.768c-1.35,0-2.563,0.852-3.019,2.139c-0.11,0.315-0.355,0.549-0.675,0.654
		c-0.313,0.106-0.659,0.054-0.936-0.135c-0.533-0.356-1.15-0.549-1.8-0.549c-1.768,0-3.212,1.438-3.212,3.212
		c0.005-0.011,0.011,0.047,0.016,0.115c0.015,0.34-0.137,0.664-0.403,0.873c-0.261,0.216-0.612,0.293-0.942,0.205
		c-0.315-0.084-0.57-0.121-0.812-0.121c-1.773,0-3.217,1.438-3.217,3.212c0,0.263,0.047,0.54,0.141,0.875
		c0.084,0.288,0.043,0.591-0.11,0.848c-0.157,0.25-0.407,0.434-0.695,0.492C3.212,30.07,2.145,31.388,2.145,32.9
		C2.145,34.675,3.584,36.113,5.357,36.113L5.357,36.113z M5.357,36.113"/>
	<path d="M56.762,19.414c0.016-0.151,0.02-0.299,0.02-0.439c0-2.992-2.453-5.404-5.461-5.357c-0.497-2.443-2.662-4.29-5.253-4.29
		c-0.659,0-1.307,0.126-1.914,0.355c-0.968-1.527-2.664-2.495-4.509-2.495c-1.852,0-3.548,0.968-4.516,2.495
		c-0.272-0.104-0.554-0.177-0.841-0.234V5.044C34.288,2.092,31.881,0,28.931,0H8.569c-2.95,0-5.357,2.092-5.357,5.044v12.414
		l-1.381-1.386l-1.517,1.517L3.526,20.8c0.209,0.209,0.486,0.315,0.758,0.315c0.277,0,0.549-0.106,0.759-0.315l3.212-3.212
		l-1.512-1.517l-1.386,1.386V5.044c0-1.775,1.444-2.898,3.212-2.898h20.362c1.768,0,3.212,1.124,3.212,2.898v4.405
		c-2.124,0.434-3.798,2.119-4.196,4.258c-1.867,0.345-3.4,1.669-4.043,3.416c-0.958-0.853-2.208-1.365-3.548-1.365
		c-1.852,0-3.541,0.967-4.509,2.5c-0.607-0.236-1.255-0.356-1.921-0.356c-2.583,0-4.749,1.841-5.247,4.284
		c-2.981-0.052-5.467,2.365-5.467,5.357c0,0.147,0.011,0.293,0.021,0.441C1.312,28.821,0,30.745,0,32.9
		c0,2.59,1.841,4.75,4.284,5.247v3.323c0,0.591,0.482,1.386,1.073,1.386h2.146c2.583,0,4.749-2.146,5.247-4.284h4.394v8.255
		c0,2.956,2.401,5.67,5.357,5.67h18.21c2.956,0,5.357-2.715,5.357-5.67V35.485l1.387,1.386l1.516-1.517l-3.217-3.212
		c-0.418-0.419-1.093-0.419-1.512,0l-3.217,3.212l1.517,1.517l1.386-1.386v11.342c0,1.773-1.444,3.532-3.218,3.532h-18.21
		c-1.773,0-3.218-1.758-3.218-3.532v-8.255h15.005c2.95,0,5.357-2.407,5.357-5.357c0-1.193-0.414-3.218-1.1-3.218h8.705
		c0.497,2.145,2.664,4.291,5.247,4.291h2.146c0.591,0,1.073-0.796,1.073-1.387v-3.321C58.153,29.082,60,26.916,60,24.332
		C60,22.171,58.686,20.246,56.762,19.414L56.762,19.414z M25.712,27.858c-1.773,0-3.212-1.602-3.212-3.375
		c0-1.507,1.067-2.909,2.542-3.217c0.293-0.063,0.544-0.283,0.696-0.534c0.099-0.157,0.13-0.355,0.141-0.538
		c0.288-0.083,0.597-0.141,0.905-0.141c1.773,0,3.212,1.438,3.212,3.206c0,0.592,0.482,1.229,1.073,1.229
		c1.773,0,3.218,1.224,3.218,3.37H25.712z M34.952,29.914c1.474,0.313,2.547,1.71,2.547,3.222c0,1.773-1.444,3.291-3.212,3.291
		H11.787c-0.592,0-1.073,0.482-1.073,1.073c0,1.773-1.444,3.212-3.212,3.212H6.43v-3.525c0-0.592-0.482-1.073-1.073-1.073
		c-1.773,0-3.212-1.438-3.212-3.213c0-1.507,1.066-2.83,2.542-3.143c0.293-0.063,0.544-0.241,0.696-0.492
		c0.151-0.257,0.193-0.56,0.114-0.848c-0.099-0.335-0.141-0.612-0.141-0.875c0-1.773,1.444-3.212,3.212-3.212
		c0.246,0,0.502,0.036,0.817,0.121c0.329,0.088,0.675,0.011,0.942-0.205c0.267-0.209,0.414-0.538,0.403-0.873
		c-0.005-0.063-0.011-0.126-0.016-0.115c0-1.773,1.438-3.212,3.212-3.212c0.644,0,1.267,0.188,1.8,0.549
		c0.277,0.189,0.623,0.236,0.936,0.131c0.32-0.106,0.565-0.351,0.675-0.666c0.455-1.291,1.669-2.16,3.019-2.16
		c1.199,0,2.281,0.68,2.83,1.726c-1.694,0.916-2.83,2.862-2.83,4.855c0,2.956,2.407,5.514,5.357,5.514h9.077
		C34.847,29.997,34.894,29.903,34.952,29.914L34.952,29.914z M54.643,27.543c-0.592,0-1.073,0.482-1.073,1.073v3.526h-1.073
		c-1.773,0-3.212-1.444-3.212-3.212c0-0.592-0.482-1.073-1.073-1.073H36.426c0-3.218-1.888-4.965-4.373-5.425
		c-0.466-2.484-2.648-4.452-5.269-4.452c-0.304,0-0.607-0.011-0.9,0.041c0.419-1.287,1.617-2.245,3.045-2.245
		c0.591,0,1.066-0.492,1.066-1.082c0-1.769,1.445-3.218,3.218-3.218c0.643,0,1.266,0.189,1.8,0.545
		c0.272,0.188,0.621,0.24,0.936,0.13c0.313-0.104,0.565-0.351,0.675-0.664c0.45-1.292,1.663-2.16,3.019-2.16
		c1.349,0,2.563,0.868,3.017,2.16c0.111,0.313,0.356,0.56,0.675,0.664c0.315,0.104,0.66,0.052,0.937-0.13
		c0.533-0.362,1.156-0.55,1.799-0.55c1.775,0,3.213,1.44,3.218,3.145c-0.005,0.036-0.016,0.146-0.021,0.183
		c-0.011,0.34,0.137,0.664,0.403,0.873c0.261,0.214,0.612,0.288,0.942,0.204c0.313-0.083,0.571-0.119,0.816-0.119
		c1.769,0,3.213,1.438,3.213,3.212c0,0.261-0.047,0.538-0.142,0.873c-0.078,0.288-0.041,0.592,0.115,0.848
		c0.153,0.252,0.403,0.434,0.696,0.491c1.475,0.32,2.542,1.638,2.542,3.15C57.855,26.099,56.416,27.543,54.643,27.543L54.643,27.543
		z M54.643,27.543"/>
	<rect x="45.002" y="0.758" width="2.14" height="2.14"/>
	<rect x="49.286" y="0.758" width="2.14" height="2.14"/>
	<rect x="53.57" y="0.758" width="2.146" height="2.14"/>
	<rect x="4.284" y="50.044" width="2.146" height="2.14"/>
	<rect x="8.569" y="50.044" width="2.146" height="2.14"/>
	<rect x="12.86" y="50.044" width="2.14" height="2.14"/>
</g>
</svg>
