<?xml version="1.0" encoding="iso-8859-1"?>
<!-- Generator: Adobe Illustrator 21.1.0, SVG Export Plug-In . SVG Version: 6.00 Build 0)  -->
<svg version="1.1" id="Layer_1" xmlns="http://www.w3.org/2000/svg" xmlns:xlink="http://www.w3.org/1999/xlink" x="0px" y="0px"
	 viewBox="171.999 365.386 70 63.228" style="enable-background:new 171.999 365.386 70 63.228;" xml:space="preserve">
<g>
	<path style="fill:#CCD8E5;" d="M240.86,371.133v43.25c0,2.448-1.984,4.434-4.432,4.434h-58.857c-2.448,0-4.432-1.985-4.432-4.434
		v-43.25c0-2.448,1.984-4.434,4.432-4.434h58.857C238.876,366.699,240.86,368.684,240.86,371.133z"/>
	<path style="fill:#DFEAF4;" d="M240.86,371.133v43.25c0,2.448-1.984,4.434-4.432,4.434h-39.362l3.247-7.919l18.123-44.198h17.991
		C238.876,366.699,240.86,368.684,240.86,371.133z"/>
	<path style="fill:#B8E9F2;" d="M240.86,371.133v39.764h-67.721v-39.764c0-2.448,1.984-4.434,4.432-4.434h58.857
		C238.876,366.699,240.86,368.684,240.86,371.133z"/>
	<path style="fill:#D4F7FC;" d="M240.86,371.133v39.764h-40.546l18.123-44.198h17.991
		C238.876,366.699,240.86,368.684,240.86,371.133z"/>
	<polygon style="fill:#CCD8E5;" points="218.956,427.649 195.043,427.649 196.75,423.654 198.819,418.816 215.18,418.816 
		217.249,423.654 	"/>
	<polygon style="fill:#BAC6D1;" points="217.249,423.654 196.75,423.654 198.819,418.816 215.18,418.816 	"/>
	<path style="fill:#E8C262;" d="M235.245,402.991c0-14.73-11.941-26.672-26.672-26.672c-14.73,0-26.672,11.941-26.672,26.672
		H235.245z"/>
	<path style="fill:#F75757;" d="M227.433,384.131L227.433,384.131l-3.544,3.544v0.002l0,0c2.085,2.085,3.747,4.593,4.847,7.383
		c0.966,2.456,1.498,5.132,1.498,7.932h5.012C235.246,395.624,232.26,388.957,227.433,384.131z"/>
	<path style="fill:#F2F2F2;" d="M230.232,402.991h-43.318c0-11.963,9.698-21.659,21.659-21.659c1.273,0,2.52,0.109,3.732,0.32
		C222.489,383.42,230.232,392.301,230.232,402.991z"/>
	<path style="fill:#FFFFFF;" d="M230.232,402.991h-26.678l8.75-21.339C222.489,383.42,230.232,392.301,230.232,402.991z"/>
	<path style="fill:#F75757;" d="M204.32,402.991c0-2.348,1.905-4.253,4.253-4.253c2.35,0,4.253,1.905,4.253,4.253"/>
	<path d="M208.573,375.006c-15.335,0-27.811,12.476-27.811,27.811c0,0.629,0.51,1.139,1.139,1.139h38.757
		c0.629,0,1.139-0.51,1.139-1.139s-0.51-1.139-1.139-1.139h-6.816c-0.176-0.815-0.537-1.562-1.037-2.195l6.132-6.132v1.095
		c0,0.629,0.51,1.139,1.139,1.139s1.139-0.51,1.139-1.139V390.6c0-0.629-0.51-1.139-1.139-1.139h-3.846
		c-0.629,0-1.139,0.51-1.139,1.139s0.51,1.139,1.139,1.139h1.095l-6.286,6.286c-0.74-0.383-1.579-0.601-2.468-0.601
		c-2.582,0-4.745,1.825-5.27,4.253h-15.219c0.593-10.788,9.556-19.381,20.489-19.381c10.933,0,19.896,8.594,20.489,19.381h-4.606
		c-0.629,0-1.139,0.51-1.139,1.139s0.51,1.139,1.139,1.139h10.789c0.629,0,1.139-0.51,1.139-1.139
		C236.384,387.482,223.908,375.006,208.573,375.006z M208.573,399.703c1.315,0,2.439,0.82,2.895,1.975h-5.79
		C206.134,400.523,207.259,399.703,208.573,399.703z M227.406,385.595c1.838,2.008,3.359,4.31,4.485,6.826l-2.546,1.002
		c-0.983-2.166-2.296-4.151-3.873-5.893L227.406,385.595z M207.434,380.047c-2.42,0.12-4.741,0.619-6.906,1.439l-1.093-2.511
		c2.502-0.962,5.192-1.54,7.999-1.664V380.047L207.434,380.047z M209.713,377.311c2.807,0.124,5.497,0.702,7.999,1.664l-1.093,2.511
		c-2.165-0.819-4.486-1.319-6.906-1.439L209.713,377.311L209.713,377.311z M191.675,387.529c-1.577,1.742-2.89,3.728-3.873,5.893
		l-2.546-1.001c1.126-2.516,2.647-4.818,4.485-6.826L191.675,387.529z M183.066,401.677c0.11-2.487,0.578-4.883,1.353-7.138
		l2.546,1.002c-0.656,1.942-1.056,4.001-1.162,6.136H183.066z M193.286,385.918l-1.935-1.935c1.785-1.634,3.803-3.017,5.997-4.095
		l1.093,2.51C196.561,383.334,194.827,384.522,193.286,385.918z M218.706,382.398l1.093-2.51c2.194,1.078,4.212,2.462,5.997,4.095
		l-1.935,1.935C222.319,384.522,220.586,383.334,218.706,382.398z M231.343,401.677c-0.106-2.135-0.506-4.194-1.162-6.136
		l2.546-1.002c0.775,2.255,1.243,4.65,1.353,7.138L231.343,401.677L231.343,401.677z"/>
	<path d="M236.428,365.386h-58.856c-3.072,0-5.572,2.5-5.572,5.572v8.097c0,0.629,0.51,1.139,1.139,1.139s1.139-0.51,1.139-1.139
		v-8.097c0-1.816,1.478-3.294,3.294-3.294h58.856c1.816,0,3.294,1.478,3.294,3.294v38.884h-7.138c-0.629,0-1.139,0.51-1.139,1.139
		s0.51,1.139,1.139,1.139h7.138v2.088c0,1.816-1.478,3.294-3.294,3.294H215.18h-16.362h-21.247c-1.816,0-3.294-1.478-3.294-3.294
		v-2.088h54.508c0.629,0,1.139-0.51,1.139-1.139s-0.51-1.139-1.139-1.139h-54.508v-26.99c0-0.629-0.51-1.139-1.139-1.139
		s-1.139,0.51-1.139,1.139v31.356c0,3.072,2.5,5.572,5.572,5.572h19.522l-2.802,6.555h-5.473c-0.629,0-1.139,0.51-1.139,1.139
		s0.51,1.139,1.139,1.139h36.364c0.629,0,1.139-0.51,1.139-1.139s-0.51-1.139-1.139-1.139h-5.473l-2.802-6.555h19.522
		c3.072,0,5.572-2.499,5.572-5.572v-43.251C242,367.886,239.5,365.386,236.428,365.386z M217.23,426.336h-20.461l1.947-4.554h16.568
		L217.23,426.336z"/>
	<path d="M206.722,413.437c-0.481,0.12-0.836,0.553-0.86,1.049c-0.05,1.03,1.245,1.59,1.959,0.844
		c0.364-0.38,0.421-0.981,0.125-1.42C207.684,413.512,207.183,413.322,206.722,413.437z"/>
</g>
</svg>
