<?xml version="1.0" encoding="iso-8859-1"?>
<!-- Generator: Adobe Illustrator 21.1.0, SVG Export Plug-In . SVG Version: 6.00 Build 0)  -->
<svg version="1.1" id="Layer_1" xmlns="http://www.w3.org/2000/svg" xmlns:xlink="http://www.w3.org/1999/xlink" x="0px" y="0px"
	 viewBox="182 372 50 50" style="enable-background:new 182 372 50 50;" xml:space="preserve">
<g>
	<path style="fill:#F9ECDE;" d="M207,379.5c0-3.682-2.985-6.667-6.667-6.667h-17.5V414.5h17.5c3.682,0,6.667,2.985,6.667,6.667
		c0-3.682,2.985-6.667,6.667-6.667h17.5v-41.667h-17.5C209.985,372.833,207,375.818,207,379.5z M195.333,397
		c-4.602,0-8.333-3.731-8.333-8.333c0-4.602,3.731-8.333,8.333-8.333c4.603,0,8.333,3.731,8.333,8.333
		c0,2.301-0.933,4.384-2.441,5.893S197.634,397,195.333,397z M214.5,411.167l-7.5-7.5l-3.333-3.333l1.667-1.667L207,397l6.667,6.667
		L217,407l0.833,0.833l-2.5,2.5L214.5,411.167z"/>
	<g>
		<path style="fill:#66CEDB;" d="M200.333,414.5h-17.5v6.667H207C207,417.485,204.015,414.5,200.333,414.5z"/>
		<path style="fill:#66CEDB;" d="M207,421.167h24.167V414.5h-17.5C209.985,414.5,207,417.485,207,421.167z"/>
	</g>
	<path style="fill:#F6BF58;" d="M195.333,380.333c-4.602,0-8.333,3.731-8.333,8.333c0,4.603,3.731,8.333,8.333,8.333
		c2.301,0,4.384-0.932,5.893-2.441s2.441-3.592,2.441-5.893C203.667,384.064,199.936,380.333,195.333,380.333z"/>
	<polygon style="fill:#66CEDB;" points="217,407 213.667,403.667 207,397 205.333,398.667 203.667,400.333 207,403.667 
		214.5,411.167 215.333,410.333 217.833,407.833 	"/>
	<g>
		<path style="fill:#010133;" d="M231.167,372h-17.5c-2.903,0-5.421,1.661-6.667,4.08c-1.246-2.419-3.763-4.08-6.667-4.08h-17.5
			c-0.461,0-0.833,0.373-0.833,0.833V414.5v6.667c0,0.46,0.372,0.833,0.833,0.833h48.333c0.461,0,0.833-0.373,0.833-0.833V414.5
			v-41.667C232,372.373,231.628,372,231.167,372z M213.667,373.667h16.667v40h-16.667c-2.353,0-4.458,1.09-5.833,2.791v-10.779
			l6.077,6.077c0.163,0.163,0.376,0.244,0.589,0.244s0.427-0.082,0.589-0.244l0.589-0.589h12.155V409.5h-10.488l1.077-1.078
			c0.163-0.162,0.244-0.376,0.244-0.589h9.167v-1.667h-10.488l-1.667-1.667h12.155v-1.667h-13.822l-6.178-6.178V379.5
			C207.833,376.283,210.451,373.667,213.667,373.667z M207,398.178l9.655,9.655l-2.155,2.155l-9.655-9.655L207,398.178z
			 M183.667,373.667h16.667c3.216,0,5.833,2.617,5.833,5.833v17.155l-0.833,0.833l-2.96-2.96c1.326-1.591,2.127-3.634,2.127-5.862
			c0-5.054-4.113-9.167-9.167-9.167s-9.167,4.112-9.167,9.167s4.112,9.167,9.167,9.167c2.228,0,4.271-0.801,5.862-2.127l2.96,2.96
			l-1.077,1.078c-0.326,0.326-0.326,0.853,0,1.178l3.089,3.089v12.446c-1.376-1.701-3.48-2.791-5.833-2.791h-16.667V373.667z
			 M195.333,396.167c-4.136,0-7.5-3.365-7.5-7.5c0-4.135,3.364-7.5,7.5-7.5s7.5,3.365,7.5,7.5
			C202.833,392.802,199.469,396.167,195.333,396.167z M183.667,415.333h16.667c2.933,0,5.36,2.177,5.767,5h-22.433V415.333z
			 M207.9,420.333c0.407-2.823,2.834-5,5.767-5h16.667v5H207.9z"/>
		<rect x="191.167" y="384.5" style="fill:#010133;" width="8.333" height="1.667"/>
		<rect x="191.167" y="387.833" style="fill:#010133;" width="8.333" height="1.667"/>
		<rect x="191.167" y="391.167" style="fill:#010133;" width="8.333" height="1.667"/>
		<rect x="189.5" y="399.5" style="fill:#010133;" width="11.667" height="1.667"/>
		<rect x="186.167" y="402.833" style="fill:#010133;" width="15" height="1.667"/>
		<rect x="186.167" y="406.167" style="fill:#010133;" width="15" height="1.667"/>
		<rect x="186.167" y="409.5" style="fill:#010133;" width="15" height="1.667"/>
		<rect x="216.167" y="377.833" style="fill:#010133;" width="11.667" height="1.667"/>
		<rect x="212.833" y="381.167" style="fill:#010133;" width="15" height="1.667"/>
		<rect x="212.833" y="384.5" style="fill:#010133;" width="15" height="1.667"/>
		<rect x="212.833" y="387.833" style="fill:#010133;" width="15" height="1.667"/>
		<rect x="216.167" y="392.833" style="fill:#010133;" width="11.667" height="1.667"/>
		<rect x="212.833" y="396.167" style="fill:#010133;" width="15" height="1.667"/>
		<rect x="216.167" y="399.5" style="fill:#010133;" width="11.667" height="1.667"/>
		<rect x="186.167" y="376.167" style="fill:#010133;" width="1.667" height="1.667"/>
		<rect x="189.5" y="376.167" style="fill:#010133;" width="1.667" height="1.667"/>
		<rect x="192.833" y="376.167" style="fill:#010133;" width="1.667" height="1.667"/>
	</g>
</g>
</svg>
