<?xml version="1.0" encoding="iso-8859-1"?>
<!-- Generator: Adobe Illustrator 21.1.0, SVG Export Plug-In . SVG Version: 6.00 Build 0)  -->
<svg version="1.1" id="Layer_1" xmlns="http://www.w3.org/2000/svg" xmlns:xlink="http://www.w3.org/1999/xlink" x="0px" y="0px"
	 viewBox="179.5 372.501 55 48.998" style="enable-background:new 179.5 372.501 55 48.998;" xml:space="preserve">
<g>
	<path style="fill:#FFDB6F;" d="M231.964,402.547v6.663c0,0.434-0.352,0.785-0.785,0.785h-48.359c-0.432,0-0.785-0.351-0.785-0.785
		v-6.663H231.964z M208.33,406.593c0.025-0.104,0.038-0.212,0.038-0.322c0-0.756-0.612-1.368-1.368-1.368
		c-0.691,0-1.263,0.512-1.355,1.179c-0.025,0.104-0.038,0.212-0.038,0.322c0,0.756,0.612,1.368,1.368,1.368
		C207.666,407.772,208.237,407.26,208.33,406.593z"/>
	<path style="fill:#F27258;" d="M231.964,375.822v24.19h-49.929v-24.19c0-0.432,0.352-0.785,0.785-0.785h48.359
		C231.612,375.037,231.964,375.389,231.964,375.822z M222.82,389.328c0.828-1.062,0.828-2.546,0-3.608
		c-0.388-0.497-1.104-0.586-1.601-0.199c-0.058,0.046-0.11,0.095-0.156,0.148l-0.836-0.89c0.056-0.043,0.108-0.091,0.156-0.146
		c0.418-0.472,0.374-1.193-0.098-1.61c-0.188-0.167-0.383-0.333-0.581-0.496c-3.569-2.926-8.081-4.538-12.705-4.538
		c-6.223,0-11.989,2.817-15.82,7.73c-0.828,1.063-0.828,2.546,0,3.608c3.831,4.913,9.598,7.73,15.82,7.73
		S218.989,394.241,222.82,389.328z"/>
	<g>
		<path style="fill:#E4F5F4;" d="M220.228,384.779l0.836,0.89c-0.355,0.403-0.385,1.016-0.043,1.454
			c0.185,0.236,0.185,0.565,0,0.801c-1.695,2.174-3.82,3.886-6.207,5.055c1.083-1.547,1.722-3.428,1.722-5.456
			c0-2.018-0.633-3.891-1.707-5.433c1.218,0.596,2.372,1.334,3.431,2.201c0.175,0.143,0.347,0.292,0.515,0.439
			C219.191,385.101,219.803,385.109,220.228,384.779z"/>
		<path style="fill:#E4F5F4;" d="M213.453,418.963h-12.907c0.863-1.111,1.381-2.504,1.381-4.017v-2.417h10.145v2.417
			C212.073,416.459,212.59,417.853,213.453,418.963z"/>
	</g>
	<path style="fill:#31CCC9;" d="M207,380.272c3.999,0,7.252,3.253,7.252,7.252c0,3.999-3.253,7.252-7.252,7.252
		c-3.999,0-7.252-3.253-7.252-7.252C199.748,383.525,203.001,380.272,207,380.272z M210.806,387.524
		c0-2.098-1.708-3.806-3.806-3.806s-3.806,1.708-3.806,3.806c0,2.098,1.708,3.806,3.806,3.806S210.806,389.622,210.806,387.524z"/>
	<path style="fill:#E4F5F4;" d="M207,386c0.841,0,1.524,0.683,1.524,1.524c0,0.841-0.683,1.524-1.524,1.524
		s-1.524-0.683-1.524-1.524C205.476,386.683,206.159,386,207,386z"/>
	<g>
		<path style="fill:#201F2E;" d="M231.179,372.501h-48.359c-1.831,0-3.321,1.49-3.321,3.321v25.457v7.93
			c0,1.831,1.49,3.321,3.321,3.321h16.571v2.417c0,2.215-1.802,4.017-4.017,4.017h-3.653c-0.7,0-1.268,0.567-1.268,1.268
			c0,0.7,0.568,1.268,1.268,1.268h30.556c0.7,0,1.268-0.568,1.268-1.268c0-0.701-0.568-1.268-1.268-1.268h-3.653
			c-2.215,0-4.017-1.802-4.017-4.017v-2.417h16.571c1.831,0,3.321-1.49,3.321-3.321v-7.93v-25.457
			C234.5,373.991,233.01,372.501,231.179,372.501z M231.964,409.21c0,0.434-0.352,0.785-0.785,0.785h-48.359
			c-0.432,0-0.785-0.351-0.785-0.785v-6.663h49.929V409.21z M200.547,418.963c0.863-1.111,1.381-2.504,1.381-4.017v-2.417h10.145
			v2.417c0,1.513,0.517,2.906,1.381,4.017H200.547z M182.036,375.822c0-0.432,0.352-0.785,0.785-0.785h48.359
			c0.432,0,0.785,0.352,0.785,0.785v24.19h-49.929V375.822z"/>
		<path style="fill:#201F2E;" d="M221.219,385.521c-0.058,0.046-0.11,0.095-0.156,0.148c-0.355,0.403-0.385,1.016-0.043,1.454
			c0.185,0.236,0.185,0.565,0,0.801c-1.695,2.174-3.82,3.886-6.207,5.055c1.083-1.547,1.722-3.428,1.722-5.456
			c0-2.018-0.633-3.891-1.707-5.433c1.218,0.596,2.372,1.334,3.431,2.201c0.175,0.143,0.347,0.292,0.515,0.439
			c0.417,0.37,1.03,0.378,1.454,0.048c0.056-0.043,0.108-0.091,0.156-0.146c0.418-0.472,0.374-1.193-0.098-1.61
			c-0.188-0.167-0.383-0.333-0.581-0.496c-3.569-2.926-8.081-4.538-12.705-4.538c-6.223,0-11.989,2.817-15.82,7.73
			c-0.828,1.063-0.828,2.546,0,3.608c3.831,4.913,9.598,7.73,15.82,7.73s11.989-2.817,15.82-7.73c0.828-1.062,0.828-2.546,0-3.608
			C222.432,385.223,221.716,385.134,221.219,385.521z M192.98,387.123c1.695-2.176,3.82-3.886,6.207-5.055
			c-1.083,1.547-1.722,3.428-1.722,5.456s0.639,3.909,1.722,5.456c-2.387-1.169-4.512-2.881-6.207-5.055
			C192.795,387.689,192.795,387.359,192.98,387.123z M199.748,387.524c0-3.999,3.253-7.252,7.252-7.252s7.252,3.253,7.252,7.252
			c0,3.999-3.253,7.252-7.252,7.252C203.001,394.776,199.748,391.523,199.748,387.524z"/>
		<path style="fill:#201F2E;" d="M210.806,387.524c0-2.098-1.708-3.806-3.806-3.806s-3.806,1.708-3.806,3.806
			c0,2.098,1.708,3.806,3.806,3.806S210.806,389.622,210.806,387.524z M205.476,387.524c0-0.841,0.683-1.524,1.524-1.524
			s1.524,0.683,1.524,1.524c0,0.841-0.683,1.524-1.524,1.524S205.476,388.365,205.476,387.524z"/>
		<path style="fill:#201F2E;" d="M207,407.639c0.645,0,1.185-0.446,1.33-1.046c0.025-0.104,0.038-0.212,0.038-0.322
			c0-0.756-0.612-1.368-1.368-1.368c-0.691,0-1.263,0.512-1.355,1.179c-0.008,0.061-0.013,0.124-0.013,0.189
			C205.632,407.026,206.244,407.639,207,407.639z"/>
	</g>
	<path style="fill:#E4F5F4;" d="M199.187,382.068c-1.083,1.547-1.722,3.428-1.722,5.456c0,2.027,0.639,3.909,1.722,5.456
		c-2.387-1.169-4.512-2.881-6.207-5.055c-0.185-0.236-0.185-0.565,0-0.801C194.675,384.948,196.8,383.237,199.187,382.068z"/>
</g>
</svg>
