<?xml version="1.0" encoding="iso-8859-1"?>
<!-- Generator: Adobe Illustrator 21.1.0, SVG Export Plug-In . SVG Version: 6.00 Build 0)  -->
<svg version="1.1" id="Layer_1" xmlns="http://www.w3.org/2000/svg" xmlns:xlink="http://www.w3.org/1999/xlink" x="0px" y="0px"
	 viewBox="192 383.669 30 26.664" style="enable-background:new 192 383.669 30 26.664;" xml:space="preserve">
<g>
	<path style="fill:#F75550;" d="M221.738,407.407l-13.043-22.756c-0.353-0.615-0.986-0.982-1.695-0.982s-1.343,0.367-1.695,0.982
		l-13.043,22.756c-0.351,0.612-0.349,1.341,0.005,1.951c0.354,0.61,0.986,0.974,1.691,0.974h26.086c0.705,0,1.337-0.364,1.691-0.974
		C222.087,408.748,222.089,408.018,221.738,407.407z M220.608,408.706c-0.057,0.098-0.225,0.325-0.565,0.325h-26.086
		c-0.339,0-0.508-0.228-0.565-0.325c-0.057-0.098-0.17-0.357-0.001-0.652l0,0l13.043-22.756c0.17-0.296,0.453-0.328,0.566-0.328
		c0.114,0,0.396,0.032,0.566,0.328l13.043,22.756C220.778,408.348,220.665,408.608,220.608,408.706z"/>
	<path style="fill:#F75550;" d="M214.795,400.526c-0.179-0.312-0.576-0.42-0.888-0.241c-0.312,0.179-0.42,0.576-0.241,0.888
		l3.254,5.677c0.12,0.21,0.34,0.327,0.565,0.327c0.11,0,0.221-0.028,0.323-0.086c0.312-0.179,0.42-0.576,0.241-0.888
		L214.795,400.526z"/>
	<path style="fill:#F75550;" d="M200.094,400.285c-0.312-0.179-0.709-0.071-0.888,0.241l-3.254,5.677
		c-0.179,0.312-0.071,0.709,0.241,0.888c0.102,0.059,0.213,0.086,0.323,0.086c0.226,0,0.445-0.117,0.565-0.327l3.254-5.677
		C200.514,400.862,200.406,400.464,200.094,400.285z"/>
	<path style="fill:#F75550;" d="M213.452,398.185c-0.179-0.312-0.576-0.42-0.888-0.241c-0.312,0.179-0.42,0.576-0.241,0.888
		l0.037,0.065c0.12,0.21,0.34,0.327,0.565,0.327c0.11,0,0.221-0.028,0.323-0.086c0.312-0.179,0.42-0.576,0.241-0.888
		L213.452,398.185z"/>
	<path style="fill:#F75550;" d="M201.45,397.919c-0.312-0.179-0.709-0.071-0.888,0.241l-0.065,0.114
		c-0.179,0.312-0.071,0.709,0.241,0.888c0.102,0.058,0.213,0.086,0.323,0.086c0.226,0,0.445-0.118,0.565-0.327l0.065-0.114
		C201.87,398.496,201.762,398.098,201.45,397.919z"/>
	<path style="fill:#F75550;" d="M207,389.289c-0.693,0-1.338,0.277-1.815,0.781c-0.477,0.503-0.719,1.162-0.682,1.855l0.475,8.79
		c0.058,1.074,0.946,1.915,2.021,1.915c1.075,0,1.963-0.841,2.021-1.915l0.475-8.79c0.037-0.693-0.205-1.351-0.682-1.855
		C208.338,389.567,207.694,389.289,207,389.289z M208.197,391.854l-0.475,8.79c-0.021,0.384-0.338,0.684-0.722,0.684
		s-0.701-0.3-0.722-0.684l-0.475-8.79c-0.018-0.332,0.098-0.648,0.327-0.889c0.229-0.241,0.538-0.374,0.87-0.374
		c0.333,0,0.642,0.133,0.87,0.374C208.099,391.207,208.215,391.522,208.197,391.854z"/>
	<path style="fill:#F75550;" d="M207,403.605c-1.166,0-2.115,0.949-2.115,2.115s0.949,2.115,2.115,2.115s2.115-0.949,2.115-2.115
		S208.166,403.605,207,403.605z M207,406.534c-0.449,0-0.813-0.365-0.813-0.813s0.365-0.813,0.813-0.813s0.813,0.365,0.813,0.813
		S207.449,406.534,207,406.534z"/>
</g>
</svg>
