<?xml version="1.0" encoding="iso-8859-1"?>
<!-- Generator: Adobe Illustrator 21.1.0, SVG Export Plug-In . SVG Version: 6.00 Build 0)  -->
<svg version="1.1" id="Layer_1" xmlns="http://www.w3.org/2000/svg" xmlns:xlink="http://www.w3.org/1999/xlink" x="0px" y="0px"
	 viewBox="172 362 70 70" style="enable-background:new 172 362 70 70;" xml:space="preserve">
<g>
	<path style="fill:#999999;" d="M212.895,366.053v1.474v2.947h-11.789v-2.947v-1.474c0-1.628,1.32-2.947,2.947-2.947h5.895
		C211.575,363.105,212.895,364.425,212.895,366.053z"/>
	<path style="fill:#6D6D6D;" d="M212.895,366.053v1.474v2.947h-4.421v-2.947v-1.474c0-1.628-1.32-2.947-2.947-2.947h4.421
		C211.575,363.105,212.895,364.425,212.895,366.053z"/>
	<path style="fill:#E2E2E2;" d="M239.421,414.684h-64.842c-0.814,0-1.474-0.66-1.474-1.474V369c0-0.814,0.66-1.474,1.474-1.474
		h64.842c0.814,0,1.474,0.66,1.474,1.474v44.211C240.895,414.024,240.235,414.684,239.421,414.684z"/>
	<path style="fill:#BFBFBF;" d="M240.895,369v44.211c0,0.814-0.66,1.474-1.474,1.474h-2.947v-47.158h2.947
		C240.235,367.526,240.895,368.186,240.895,369z"/>
	<path style="fill:#5D7EAC;" d="M207,390.24v1.731c0,0.607-0.428,1.129-1.023,1.248l-3.173,0.635c-0.221,0.79-0.534,1.54-0.928,2.24
		l1.795,2.693c0.337,0.505,0.27,1.177-0.159,1.606l-1.224,1.224c-0.429,0.429-1.101,0.496-1.606,0.159l-2.693-1.795
		c-0.7,0.394-1.45,0.707-2.24,0.928l-0.635,3.173c-0.119,0.595-0.641,1.023-1.248,1.023h-1.731c-0.607,0-1.129-0.428-1.248-1.023
		l-0.635-3.173c-0.79-0.221-1.54-0.534-2.24-0.928l-2.693,1.795c-0.505,0.337-1.177,0.27-1.606-0.159l-1.224-1.224
		c-0.429-0.429-0.496-1.101-0.159-1.606l1.795-2.693c-0.394-0.7-0.707-1.45-0.928-2.24l-3.173-0.635
		c-0.595-0.119-1.023-0.641-1.023-1.248v-1.731c0-0.607,0.428-1.129,1.023-1.248l3.173-0.635c0.221-0.79,0.534-1.54,0.928-2.24
		l-1.795-2.693c-0.337-0.505-0.27-1.177,0.159-1.606l1.224-1.224c0.429-0.429,1.101-0.496,1.606-0.159l2.693,1.795
		c0.7-0.394,1.45-0.707,2.24-0.928l0.635-3.173c0.119-0.595,0.641-1.023,1.248-1.023h1.731c0.607,0,1.129,0.428,1.248,1.023
		l0.635,3.173c0.79,0.221,1.54,0.534,2.24,0.928l2.693-1.795c0.505-0.337,1.177-0.27,1.606,0.159l1.224,1.224
		c0.429,0.429,0.496,1.101,0.159,1.606l-1.795,2.693c0.394,0.7,0.707,1.45,0.928,2.24l3.173,0.635
		C206.572,389.11,207,389.633,207,390.24z"/>
	<path style="fill:#ABC5FF;" d="M200.147,391.105c0,3.947-3.2,7.147-7.147,7.147s-7.147-3.2-7.147-7.147
		c0-3.947,3.2-7.147,7.147-7.147S200.147,387.158,200.147,391.105z"/>
	<path style="fill:#5D7EAC;" d="M197.2,391.105c0,2.32-1.88,4.2-4.2,4.2s-4.2-1.88-4.2-4.2s1.88-4.2,4.2-4.2
		S197.2,388.786,197.2,391.105z"/>
	<path style="fill:#809DED;" d="M194.768,391.105c0,1.897-1.258,3.499-2.984,4.021c-1.727-0.522-2.984-2.124-2.984-4.021
		c0-1.897,1.258-3.499,2.984-4.021C193.511,387.606,194.768,389.208,194.768,391.105z"/>
	<path style="fill:#6D6D6D;" d="M227.632,389.632v2.947c0,0.814-0.66,1.474-1.474,1.474h-11.789v-5.895h11.789
		C226.972,388.158,227.632,388.818,227.632,389.632z"/>
	<path style="fill:#999999;" d="M223.211,394.053h-8.842v-5.895h8.842c0.814,0,1.474,0.66,1.474,1.474v2.947
		C224.684,393.393,224.024,394.053,223.211,394.053z"/>
	<path style="fill:#5D7EAC;" d="M220.263,383.737h-5.895v-5.895h5.895c0.814,0,1.474,0.66,1.474,1.474v2.947
		C221.737,383.077,221.077,383.737,220.263,383.737z M233.526,398.474h-19.158v5.895h19.158c0.814,0,1.474-0.66,1.474-1.474v-2.947
		C235,399.133,234.34,398.474,233.526,398.474z"/>
	<path style="fill:#809DED;" d="M217.316,383.737h-2.947v-5.895h2.947c0.814,0,1.474,0.66,1.474,1.474v2.947
		C218.789,383.077,218.13,383.737,217.316,383.737z M230.579,398.474h-16.211v5.895h16.211c0.814,0,1.474-0.66,1.474-1.474v-2.947
		C232.053,399.133,231.393,398.474,230.579,398.474z"/>
	<path d="M240.895,404.737c-0.611,0-1.105,0.495-1.105,1.105v7.368c0,0.203-0.165,0.368-0.368,0.368h-64.842
		c-0.203,0-0.368-0.165-0.368-0.368v-32.421c0-0.611-0.495-1.105-1.105-1.105c-0.611,0-1.105,0.495-1.105,1.105v32.421
		c0,1.422,1.157,2.579,2.579,2.579h16.579v14h-4.789c-0.611,0-1.105,0.495-1.105,1.105c0,0.611,0.495,1.105,1.105,1.105h41.263
		c0.611,0,1.105-0.495,1.105-1.105c0-0.611-0.495-1.105-1.105-1.105h-4.789v-14h16.579c1.422,0,2.579-1.157,2.579-2.579v-7.368
		C242,405.232,241.505,404.737,240.895,404.737z M220.632,419.474h-23.947c-0.611,0-1.105,0.495-1.105,1.105
		s0.495,1.105,1.105,1.105h23.947v8.105h-27.263v-14h27.263V419.474z M179.807,387.908c-1.108,0.221-1.912,1.202-1.912,2.332v1.731
		c0,1.13,0.804,2.11,1.912,2.332l2.532,0.507c0.144,0.415,0.312,0.821,0.504,1.216l-1.432,2.148
		c-0.627,0.94-0.502,2.202,0.297,3.001l1.224,1.224c0.799,0.799,2.061,0.924,3.001,0.297l2.148-1.432
		c0.395,0.191,0.801,0.36,1.216,0.504l0.507,2.532c0.221,1.108,1.202,1.912,2.332,1.912h1.731c1.13,0,2.11-0.804,2.332-1.912
		l0.507-2.532c0.415-0.144,0.821-0.312,1.216-0.504l2.148,1.432c0.94,0.627,2.202,0.502,3.001-0.297l1.224-1.224
		c0.799-0.799,0.924-2.061,0.297-3.001l-1.432-2.148c0.191-0.395,0.36-0.801,0.504-1.216l2.532-0.507
		c1.108-0.221,1.912-1.202,1.912-2.332v-1.731c0-1.13-0.804-2.11-1.912-2.332l-2.532-0.507c-0.144-0.415-0.312-0.821-0.504-1.216
		l1.432-2.148c0.627-0.94,0.502-2.202-0.297-3.001l-1.224-1.224c-0.799-0.799-2.061-0.924-3.001-0.297l-2.148,1.432
		c-0.395-0.191-0.801-0.36-1.216-0.504l-0.507-2.532c-0.221-1.108-1.202-1.912-2.332-1.912h-1.731c-1.13,0-2.11,0.804-2.332,1.912
		l-0.507,2.532c-0.415,0.144-0.821,0.312-1.216,0.504l-2.148-1.432c-0.94-0.626-2.202-0.502-3.001,0.297l-1.224,1.224
		c-0.799,0.799-0.924,2.061-0.297,3.001l1.432,2.148c-0.191,0.395-0.36,0.801-0.504,1.216L179.807,387.908z M183.413,389.441
		c0.408-0.082,0.735-0.385,0.848-0.786c0.195-0.696,0.473-1.368,0.827-1.995c0.204-0.363,0.188-0.809-0.043-1.156l-1.796-2.693
		c-0.044-0.066-0.035-0.155,0.021-0.211l1.224-1.224c0.056-0.056,0.145-0.065,0.211-0.021l2.693,1.796
		c0.346,0.231,0.793,0.248,1.156,0.043c0.628-0.354,1.299-0.632,1.996-0.827c0.401-0.112,0.704-0.44,0.786-0.848l0.635-3.174
		c0.015-0.078,0.085-0.134,0.164-0.134h1.731c0.08,0,0.149,0.057,0.164,0.135l0.635,3.173c0.082,0.408,0.385,0.735,0.786,0.848
		c0.696,0.195,1.367,0.473,1.996,0.827c0.362,0.204,0.809,0.188,1.156-0.043l2.693-1.796c0.066-0.044,0.155-0.035,0.211,0.021
		l1.224,1.224c0.056,0.056,0.065,0.145,0.021,0.211l-1.796,2.693c-0.231,0.346-0.248,0.793-0.043,1.156
		c0.354,0.628,0.632,1.299,0.827,1.995c0.112,0.401,0.44,0.704,0.848,0.786l3.174,0.635c0.078,0.015,0.134,0.085,0.134,0.164v1.731
		c0,0.08-0.057,0.149-0.135,0.164l-3.173,0.635c-0.408,0.082-0.735,0.385-0.848,0.786c-0.195,0.696-0.473,1.367-0.827,1.996
		c-0.204,0.363-0.187,0.809,0.043,1.156l1.796,2.693c0.044,0.066,0.035,0.155-0.021,0.211l-1.224,1.224
		c-0.056,0.056-0.145,0.065-0.211,0.021l-2.693-1.796c-0.346-0.231-0.793-0.248-1.156-0.043c-0.628,0.354-1.299,0.632-1.996,0.827
		c-0.401,0.112-0.704,0.44-0.786,0.848l-0.635,3.174c-0.015,0.078-0.085,0.134-0.164,0.134h-1.731c-0.08,0-0.149-0.057-0.164-0.135
		l-0.635-3.173c-0.082-0.408-0.385-0.735-0.786-0.848c-0.696-0.195-1.367-0.473-1.996-0.827c-0.169-0.095-0.356-0.142-0.542-0.142
		c-0.214,0-0.428,0.062-0.613,0.186l-2.693,1.796c-0.066,0.044-0.155,0.035-0.211-0.021l-1.224-1.224
		c-0.056-0.056-0.065-0.145-0.021-0.211l1.796-2.693c0.231-0.346,0.248-0.793,0.043-1.156c-0.354-0.628-0.632-1.299-0.827-1.996
		c-0.112-0.401-0.44-0.704-0.848-0.786l-3.174-0.635c-0.078-0.015-0.134-0.085-0.134-0.164v-1.731c0-0.08,0.057-0.149,0.135-0.164
		L183.413,389.441z M214.368,372.316c-0.611,0-1.105,0.495-1.105,1.105v35.368c0,0.611,0.495,1.105,1.105,1.105
		s1.105-0.495,1.105-1.105v-3.316h18.053c1.422,0,2.579-1.157,2.579-2.579v-2.947c0-1.422-1.157-2.579-2.579-2.579h-4.421
		c-0.611,0-1.105,0.495-1.105,1.105c0,0.611,0.495,1.105,1.105,1.105h4.421c0.203,0,0.368,0.165,0.368,0.368v2.947
		c0,0.203-0.165,0.368-0.368,0.368h-18.053v-3.684h9.211c0.611,0,1.105-0.495,1.105-1.105c0-0.611-0.495-1.105-1.105-1.105h-9.211
		v-2.211h10.684c1.422,0,2.579-1.157,2.579-2.579v-2.947c0-1.422-1.157-2.579-2.579-2.579h-2.947c-0.611,0-1.105,0.495-1.105,1.105
		c0,0.611,0.495,1.105,1.105,1.105h2.947c0.203,0,0.368,0.165,0.368,0.368v2.947c0,0.203-0.165,0.368-0.368,0.368h-10.684v-3.684
		h3.316c0.611,0,1.105-0.495,1.105-1.105c0-0.611-0.495-1.105-1.105-1.105h-3.316v-2.211h4.789c1.422,0,2.579-1.157,2.579-2.579
		v-2.947c0-1.422-1.157-2.579-2.579-2.579h-4.789v-3.316C215.474,372.811,214.979,372.316,214.368,372.316z M220.263,378.947
		c0.203,0,0.368,0.165,0.368,0.368v2.947c0,0.203-0.165,0.368-0.368,0.368h-4.789v-3.684H220.263z M193,396.411
		c2.925,0,5.305-2.38,5.305-5.305s-2.38-5.305-5.305-5.305s-5.305,2.38-5.305,5.305S190.075,396.411,193,396.411z M193,388.011
		c1.706,0,3.095,1.388,3.095,3.095c0,1.706-1.388,3.095-3.095,3.095s-3.095-1.388-3.095-3.095
		C189.905,389.399,191.294,388.011,193,388.011z M242,369v32.421c0,0.611-0.495,1.105-1.105,1.105c-0.611,0-1.105-0.495-1.105-1.105
		V369c0-0.203-0.165-0.368-0.368-0.368h-29.474c-0.611,0-1.105-0.495-1.105-1.105c0-0.611,0.495-1.105,1.105-1.105h1.842v-0.368
		c0-1.016-0.826-1.842-1.842-1.842h-5.895c-1.016,0-1.842,0.826-1.842,1.842v0.368h3.316c0.611,0,1.105,0.495,1.105,1.105
		c0,0.611-0.495,1.105-1.105,1.105h-30.947c-0.203,0-0.368,0.165-0.368,0.368v7.368c0,0.611-0.495,1.105-1.105,1.105
		c-0.611,0-1.105-0.495-1.105-1.105V369c0-1.422,1.157-2.579,2.579-2.579H200v-0.368c0-2.235,1.818-4.053,4.053-4.053h5.895
		c2.235,0,4.053,1.818,4.053,4.053v0.368h25.421C240.843,366.421,242,367.578,242,369z"/>
</g>
</svg>
