<?xml version="1.0" encoding="iso-8859-1"?>
<!-- Generator: Adobe Illustrator 21.1.0, SVG Export Plug-In . SVG Version: 6.00 Build 0)  -->
<svg version="1.1" id="Layer_1" xmlns="http://www.w3.org/2000/svg" xmlns:xlink="http://www.w3.org/1999/xlink" x="0px" y="0px"
	 viewBox="172 362 70 70" style="enable-background:new 172 362 70 70;" xml:space="preserve">
<g>
	<g>
		<path style="fill:#E4EAF8;" d="M238.566,430.904h-63.132c-1.291,0-2.338-1.047-2.338-2.338v-21.044
			c0-1.291,1.047-2.338,2.338-2.338h63.132c1.291,0,2.338,1.047,2.338,2.338v21.044
			C240.904,429.857,239.857,430.904,238.566,430.904z"/>
		<path style="fill:#E4EAF8;" d="M238.566,393.493h-63.132c-1.291,0-2.338-1.047-2.338-2.338v-21.044
			c0-1.291,1.047-2.338,2.338-2.338h63.132c1.291,0,2.338,1.047,2.338,2.338v21.044
			C240.904,392.446,239.857,393.493,238.566,393.493z"/>
	</g>
	<g>
		<path style="fill:#D5DCED;" d="M201.154,393.493h-25.72c-1.291,0-2.338-1.047-2.338-2.338v-21.044
			c0-1.291,1.047-2.338,2.338-2.338H207v19.875C207,390.876,204.383,393.493,201.154,393.493z"/>
		<path style="fill:#D5DCED;" d="M201.154,430.904h-25.72c-1.291,0-2.338-1.047-2.338-2.338v-21.044
			c0-1.291,1.047-2.338,2.338-2.338H207v19.875C207,428.287,204.383,430.904,201.154,430.904z"/>
	</g>
	<path style="fill:#FF5050;" d="M201.154,388.816h-21.044c-1.291,0-2.338-1.047-2.338-2.338v-21.044
		c0-1.291,1.047-2.338,2.338-2.338h21.044c1.291,0,2.338,1.047,2.338,2.338v21.044C203.493,387.77,202.446,388.816,201.154,388.816z
		"/>
	<path style="fill:#7DF5A5;" d="M201.154,426.228h-21.044c-1.291,0-2.338-1.047-2.338-2.338v-21.044
		c0-1.291,1.047-2.338,2.338-2.338h21.044c1.291,0,2.338,1.047,2.338,2.338v21.044C203.493,425.181,202.446,426.228,201.154,426.228
		z"/>
	<path d="M238.566,404.088h-33.977v-1.242c0-1.894-1.541-3.434-3.434-3.434h-9.426v-4.823h46.837c1.894,0,3.434-1.541,3.434-3.434
		v-21.044c0-1.894-1.541-3.434-3.434-3.434h-33.977v-1.242c0-1.894-1.541-3.434-3.434-3.434h-21.044
		c-1.894,0-3.434,1.541-3.434,3.434v1.242h-1.242c-1.894,0-3.434,1.541-3.434,3.434v21.044c0,1.894,1.541,3.434,3.434,3.434h14.102
		v4.823h-9.426c-1.894,0-3.434,1.541-3.434,3.434v1.242h-1.242c-1.894,0-3.434,1.541-3.434,3.434v21.044
		c0,1.894,1.541,3.434,3.434,3.434h63.132c1.894,0,3.434-1.541,3.434-3.434v-21.044C242,405.628,240.459,404.088,238.566,404.088z
		 M238.566,368.868c0.685,0,1.242,0.557,1.242,1.242v21.044c0,0.685-0.557,1.242-1.242,1.242h-46.837v-2.484h9.426
		c1.894,0,3.434-1.541,3.434-3.434v-17.61H238.566z M178.868,365.434c0-0.685,0.557-1.242,1.242-1.242h21.044
		c0.685,0,1.242,0.557,1.242,1.242v21.044c0,0.685-0.557,1.242-1.242,1.242h-21.044c-0.685,0-1.242-0.557-1.242-1.242V365.434z
		 M175.434,392.397c-0.685,0-1.242-0.557-1.242-1.242v-21.044c0-0.685,0.557-1.242,1.242-1.242h1.242v17.61
		c0,1.894,1.541,3.434,3.434,3.434h9.426v2.484H175.434z M178.868,402.846c0-0.685,0.557-1.242,1.242-1.242h21.044
		c0.685,0,1.242,0.557,1.242,1.242v21.044c0,0.685-0.557,1.242-1.242,1.242h-21.044c-0.685,0-1.242-0.557-1.242-1.242V402.846z
		 M239.808,428.566c0,0.685-0.557,1.242-1.242,1.242h-63.132c-0.685,0-1.242-0.557-1.242-1.242v-21.044
		c0-0.685,0.557-1.242,1.242-1.242h1.242v17.61c0,1.894,1.541,3.434,3.434,3.434h21.044c1.894,0,3.434-1.541,3.434-3.434v-17.61
		h33.977c0.685,0,1.242,0.557,1.242,1.242V428.566z"/>
	<path d="M190.633,384.067c1.519,0,2.925-0.492,4.069-1.323l1.002,1.002c0.214,0.214,0.495,0.321,0.775,0.321
		c0.28,0,0.561-0.107,0.775-0.321c0.428-0.428,0.428-1.122,0-1.55l-1.002-1.002c0.831-1.144,1.323-2.55,1.323-4.069v-2.338
		c0-3.827-3.114-6.942-6.942-6.942c-3.827,0-6.942,3.114-6.942,6.942v2.338C183.691,380.953,186.805,384.067,190.633,384.067z
		 M185.883,374.787c0-2.619,2.131-4.749,4.749-4.749s4.749,2.131,4.749,4.749v2.338c0,0.913-0.26,1.767-0.708,2.491l-0.928-0.928
		c-0.428-0.428-1.122-0.428-1.55,0c-0.428,0.428-0.428,1.122,0,1.55l0.928,0.928c-0.725,0.448-1.578,0.708-2.491,0.708
		c-2.619,0-4.749-2.131-4.749-4.749V374.787z"/>
	<path d="M184.521,421.445c0.587,0.147,1.182-0.21,1.329-0.797l0.669-2.677h8.226l0.669,2.677c0.125,0.498,0.571,0.831,1.062,0.831
		c0.088,0,0.177-0.011,0.267-0.033c0.587-0.147,0.944-0.742,0.797-1.329l-3.175-12.701c-0.318-1.271-1.455-2.158-2.765-2.158h-1.938
		c-1.31,0-2.447,0.888-2.764,2.159l-3.175,12.701C183.577,420.704,183.934,421.298,184.521,421.445z M189.025,407.947
		c0.073-0.293,0.336-0.498,0.638-0.498h1.938c0.302,0,0.565,0.205,0.638,0.498l1.958,7.832h-7.13L189.025,407.947z"/>
	<path d="M209.338,374.714h21.044c0.605,0,1.096-0.491,1.096-1.096c0-0.605-0.491-1.096-1.096-1.096h-21.044
		c-0.605,0-1.096,0.491-1.096,1.096C208.242,374.223,208.733,374.714,209.338,374.714z"/>
	<path d="M209.338,384.067h25.72c0.605,0,1.096-0.491,1.096-1.096c0-0.605-0.491-1.096-1.096-1.096h-25.72
		c-0.605,0-1.096,0.491-1.096,1.096C208.242,383.576,208.733,384.067,209.338,384.067z"/>
	<path d="M209.338,388.743h25.72c0.605,0,1.096-0.491,1.096-1.096c0-0.605-0.491-1.096-1.096-1.096h-25.72
		c-0.605,0-1.096,0.491-1.096,1.096C208.242,388.252,208.733,388.743,209.338,388.743z"/>
	<path d="M209.338,379.39h4.676c0.605,0,1.096-0.491,1.096-1.096c0-0.605-0.491-1.096-1.096-1.096h-4.676
		c-0.605,0-1.096,0.491-1.096,1.096C208.242,378.9,208.733,379.39,209.338,379.39z"/>
	<path d="M217.595,378.294c0,0.605,0.491,1.096,1.096,1.096h16.367c0.605,0,1.096-0.491,1.096-1.096
		c0-0.605-0.491-1.096-1.096-1.096h-16.367C218.086,377.198,217.595,377.689,217.595,378.294z"/>
	<path d="M209.338,412.125h21.044c0.605,0,1.096-0.491,1.096-1.096c0-0.605-0.491-1.096-1.096-1.096h-21.044
		c-0.605,0-1.096,0.491-1.096,1.096C208.242,411.635,208.733,412.125,209.338,412.125z"/>
	<path d="M235.058,419.286h-25.72c-0.605,0-1.096,0.491-1.096,1.096c0,0.605,0.491,1.096,1.096,1.096h25.72
		c0.605,0,1.096-0.491,1.096-1.096C236.154,419.777,235.664,419.286,235.058,419.286z"/>
	<path d="M235.058,423.962h-25.72c-0.605,0-1.096,0.491-1.096,1.096c0,0.605,0.491,1.096,1.096,1.096h25.72
		c0.605,0,1.096-0.491,1.096-1.096C236.154,424.453,235.664,423.962,235.058,423.962z"/>
	<path d="M209.338,416.802h4.676c0.605,0,1.096-0.491,1.096-1.096c0-0.605-0.491-1.096-1.096-1.096h-4.676
		c-0.605,0-1.096,0.491-1.096,1.096C208.242,416.311,208.733,416.802,209.338,416.802z"/>
	<path d="M235.058,414.61h-16.367c-0.605,0-1.096,0.491-1.096,1.096c0,0.605,0.491,1.096,1.096,1.096h16.367
		c0.605,0,1.096-0.491,1.096-1.096C236.154,415.1,235.664,414.61,235.058,414.61z"/>
</g>
</svg>
