<?xml version="1.0" encoding="iso-8859-1"?>
<!-- Generator: Adobe Illustrator 21.1.0, SVG Export Plug-In . SVG Version: 6.00 Build 0)  -->
<svg version="1.1" id="Layer_1" xmlns="http://www.w3.org/2000/svg" xmlns:xlink="http://www.w3.org/1999/xlink" x="0px" y="0px"
	 viewBox="172 362.001 70 70" style="enable-background:new 172 362.001 70 70;" xml:space="preserve">
<g>
	<g>
		<path style="fill:#E4F1FB;" d="M221.853,413.168c-1.73-0.941-3.028-2.563-3.563-4.452l-0.047-0.166l-0.195,0.007
			c-2.034,0-3.688-1.654-3.688-3.688c0-0.155,0.011-0.316,0.032-0.48l0.033-0.25h-40.436v14.016h39.734
			c0.046,0,0.094,0.004,0.149,0.014l0.082,0.014l0.071-0.044c0.412-0.253,0.829-0.456,1.215-0.588l6.728-2.635v-1.686
			L221.853,413.168z M185.402,411.949c0.488,0,0.884,0.397,0.884,0.884v1.976c0,0.488-0.397,0.884-0.884,0.884h-7.685
			c-0.488,0-0.884-0.397-0.884-0.884v-7.326c0-0.488,0.397-0.884,0.884-0.884h5.575c0.488,0,0.884,0.397,0.884,0.884
			s-0.397,0.884-0.884,0.884h-4.691v5.557h5.917v-1.092C184.517,412.346,184.914,411.949,185.402,411.949z M182.312,413.129
			c-0.245-0.002-0.48-0.106-0.646-0.286l-1.938-2.112c-0.33-0.359-0.305-0.919,0.054-1.249c0.163-0.15,0.376-0.233,0.598-0.233
			c0.247,0,0.485,0.104,0.652,0.286l1.296,1.411l3.834-4.068c0.169-0.179,0.397-0.278,0.644-0.278c0.226,0,0.441,0.086,0.606,0.241
			c0.172,0.162,0.27,0.381,0.277,0.617c0.007,0.236-0.078,0.461-0.24,0.633l-4.486,4.76
			C182.795,413.028,182.56,413.129,182.312,413.129z M202.835,409.592h-12.189c-0.488,0-0.884-0.397-0.884-0.884
			s0.397-0.884,0.884-0.884h12.189c0.488,0,0.884,0.397,0.884,0.884S203.323,409.592,202.835,409.592z M190.646,412.702h23.937
			c0.488,0,0.884,0.397,0.884,0.884s-0.397,0.884-0.884,0.884h-23.937c-0.488,0-0.884-0.397-0.884-0.884
			S190.158,412.702,190.646,412.702z"/>
		<path style="fill:#E4F1FB;" d="M216.018,397.88c0.304-3.272,2.232-6.142,5.158-7.678l0.118-0.062v-6.96h-47.305v14.901h42.01
			L216.018,397.88z M182.312,393.054c-0.245-0.002-0.48-0.106-0.646-0.286l-1.939-2.112c-0.16-0.174-0.242-0.4-0.232-0.636
			c0.01-0.236,0.112-0.454,0.286-0.614c0.163-0.15,0.376-0.233,0.598-0.233c0.247,0,0.485,0.104,0.652,0.286l1.296,1.411
			l3.834-4.068c0.169-0.179,0.397-0.278,0.644-0.278c0.226,0,0.441,0.086,0.606,0.241c0.172,0.162,0.27,0.381,0.277,0.617
			c0.007,0.236-0.078,0.461-0.24,0.633l-4.486,4.76C182.795,392.953,182.56,393.054,182.312,393.054z M183.292,388.294h-4.691v5.557
			h5.917v-1.092c0-0.488,0.397-0.884,0.884-0.884s0.884,0.397,0.884,0.884v1.976c0,0.488-0.397,0.884-0.884,0.884h-7.685
			c-0.488,0-0.884-0.397-0.884-0.884v-7.326c0-0.488,0.397-0.884,0.884-0.884h5.575c0.488,0,0.884,0.397,0.884,0.884
			S183.779,388.294,183.292,388.294z M202.835,389.518h-12.189c-0.488,0-0.884-0.397-0.884-0.884s0.397-0.884,0.884-0.884h12.189
			c0.488,0,0.884,0.397,0.884,0.884S203.323,389.518,202.835,389.518z M189.762,393.512c0-0.488,0.397-0.884,0.884-0.884h24.11
			c0.488,0,0.884,0.397,0.884,0.884s-0.397,0.884-0.884,0.884h-24.11C190.158,394.396,189.762,393.999,189.762,393.512z"/>
		<path style="fill:#E4F1FB;" d="M221.295,363.106h-47.305v14.901h47.305V363.106z M182.312,372.98
			c-0.245-0.002-0.48-0.106-0.646-0.286l-1.939-2.112c-0.16-0.174-0.242-0.4-0.232-0.636c0.01-0.236,0.112-0.454,0.286-0.614
			c0.163-0.15,0.376-0.233,0.598-0.233c0.247,0,0.485,0.104,0.652,0.286l1.296,1.411l3.834-4.068
			c0.169-0.179,0.397-0.278,0.644-0.278c0.226,0,0.441,0.085,0.606,0.241c0.172,0.162,0.27,0.381,0.277,0.617
			c0.007,0.236-0.078,0.461-0.24,0.633l-4.486,4.76C182.795,372.879,182.56,372.98,182.312,372.98z M183.292,368.22h-4.691v5.557
			h5.917v-1.092c0-0.488,0.397-0.884,0.884-0.884s0.884,0.397,0.884,0.884v1.976c0,0.488-0.397,0.884-0.884,0.884h-7.685
			c-0.488,0-0.884-0.397-0.884-0.884v-7.326c0-0.488,0.397-0.884,0.884-0.884h5.575c0.488,0,0.884,0.397,0.884,0.884
			C184.176,367.823,183.779,368.22,183.292,368.22z M202.835,369.443h-12.189c-0.488,0-0.884-0.397-0.884-0.884
			s0.397-0.884,0.884-0.884h12.189c0.488,0,0.884,0.397,0.884,0.884S203.323,369.443,202.835,369.443z M190.646,372.553h24.379
			c0.488,0,0.884,0.397,0.884,0.884s-0.397,0.884-0.884,0.884h-24.379c-0.488,0-0.884-0.397-0.884-0.884
			S190.158,372.553,190.646,372.553z"/>
	</g>
	<path style="fill:#694B4B;" d="M226.394,390.719h-0.733c-4.447,0-8.065,3.618-8.065,8.065v3.122l0.679-1.07l0.045-0.064
		l0.144-0.137c0.007-0.005,0.014-0.011,0.022-0.016l0.033-0.02c0.009-0.006,0.019-0.012,0.028-0.017l0.039-0.019
		c0.008-0.004,0.015-0.008,0.033-0.015l0.128-0.039c0.014-0.003,0.028-0.004,0.051-0.008l0.023-0.004
		c0.025-0.003,0.049-0.004,0.079-0.004c0.067,0,6.683-0.048,9.696-4.213c0.167-0.231,0.463-0.347,0.745-0.29
		c0.283,0.058,0.507,0.277,0.572,0.562c0.008,0.034,0.817,3.362,3.434,3.958l0.028,0.008c0.015,0.004,0.029,0.007,0.044,0.012
		l0.03,0.011c0.013,0.005,0.026,0.009,0.04,0.016l0.062,0.031c0.011,0.006,0.022,0.013,0.038,0.024l0.02,0.013
		c0.012,0.008,0.023,0.017,0.043,0.033l0.013,0.011c0.01,0.009,0.02,0.018,0.038,0.035l0.014,0.013
		c0.009,0.009,0.017,0.019,0.028,0.031c0.007,0.007,0.013,0.015,0.021,0.024l0.692,0.965v-2.952
		C234.458,394.337,230.84,390.719,226.394,390.719z"/>
	<path style="fill:#FBCB99;" d="M229.139,398.633l-0.221-0.436l-0.358,0.332c-2.741,2.538-6.559,3.21-8.59,3.384l-0.337,0.029v4.779
		c0,3.149,2.562,5.711,5.711,5.711h1.399c3.149,0,5.711-2.562,5.711-5.711v-4.935l-0.229-0.094
		C230.623,401.037,229.663,399.667,229.139,398.633z"/>
	<path style="fill:#EDBA89;" d="M215.981,404.869c0,1.01,0.754,1.888,1.754,2.041l0.424,0.065v-4.211l-0.424,0.065
		C216.735,402.981,215.981,403.858,215.981,404.869z"/>
	<g>
		<path style="fill:#FBCB99;" d="M226.743,413.906h-1.399c-0.435,0-0.879-0.042-1.319-0.124l-0.436-0.081v2.337l2.42,2.357
			l2.488-2.581v-2.113l-0.436,0.081C227.622,413.865,227.179,413.906,226.743,413.906z"/>
		<path style="fill:#FBCB99;" d="M234.363,402.837l-0.435-0.08v4.223l0.435-0.08c0.981-0.18,1.693-1.035,1.693-2.031
			C236.056,403.872,235.344,403.018,234.363,402.837z"/>
	</g>
	<path style="fill:#6598CB;" d="M236.14,419.081c-0.011-0.004-0.026-0.009-0.038-0.014l-6.269-2.514l-3.276,3.399
		c-0.137,0.142-0.322,0.222-0.531,0.225c-0.193,0-0.376-0.074-0.514-0.209l-3.174-3.091c-0.022-0.021-0.041-0.043-0.059-0.066
		l-0.17-0.21l-6.303,2.468c-0.011,0.004-0.022,0.008-0.037,0.013c-0.164,0.057-4.012,1.459-4.012,6.315v5.645h28.399v-5.644
		C240.158,420.542,236.304,419.139,236.14,419.081z"/>
	<path style="fill:#563B3B;" d="M219.364,398.784c0-4.273,3.341-7.778,7.547-8.046c-0.171-0.011-0.344-0.018-0.518-0.018h-0.733
		c-4.447,0-8.065,3.618-8.065,8.065v3.122l0.679-1.07l0.045-0.064l0.144-0.137c0.007-0.005,0.014-0.011,0.022-0.016l0.033-0.02
		c0.009-0.006,0.019-0.012,0.028-0.017l0.04-0.019c0.008-0.004,0.015-0.008,0.033-0.015l0.128-0.039
		c0.014-0.003,0.028-0.004,0.051-0.008l0.023-0.004c0.025-0.003,0.049-0.004,0.079-0.004c0.01,0,0.177-0.001,0.463-0.019V398.784
		L219.364,398.784z"/>
	<g>
		<path style="fill:#EDBA89;" d="M221.402,406.721v-4.779l0.337-0.029c1.828-0.157,5.103-0.718,7.738-2.678
			c-0.128-0.208-0.24-0.411-0.337-0.602l-0.221-0.436l-0.358,0.332c-2.741,2.538-6.559,3.21-8.59,3.384l-0.337,0.029v4.779
			c0,3.149,2.562,5.711,5.711,5.711h1.399c0.062,0,0.123-0.003,0.185-0.005C223.864,412.33,221.402,409.809,221.402,406.721z"/>
		<path style="fill:#EDBA89;" d="M225.358,416.039v-2.133h-0.014c-0.435,0-0.879-0.042-1.319-0.124l-0.436-0.081v2.337l2.42,2.357
			l0.856-0.888L225.358,416.039z"/>
		<path style="fill:#EDBA89;" d="M227.113,413.906h1.385v-0.205l-0.436,0.081c-0.378,0.07-0.758,0.109-1.134,0.119
			C226.99,413.904,227.051,413.906,227.113,413.906z"/>
	</g>
	<path style="fill:#4982AA;" d="M217.539,419.083c0.015-0.005,0.026-0.009,0.037-0.013l5.003-1.959l-0.239-0.233
		c-0.022-0.021-0.041-0.043-0.059-0.066l-0.17-0.21l-6.303,2.468c-0.011,0.004-0.022,0.008-0.037,0.013
		c-0.164,0.057-4.012,1.459-4.012,6.315v4.76h1.768v-4.76C213.527,420.543,217.375,419.141,217.539,419.083z"/>
	<g>
		<path style="fill:#202121;" d="M202.835,369.665h-12.189c-0.61,0-1.105-0.495-1.105-1.105c0-0.61,0.495-1.105,1.105-1.105h12.189
			c0.61,0,1.105,0.495,1.105,1.105C203.94,369.17,203.445,369.665,202.835,369.665z"/>
		<path style="fill:#202121;" d="M215.024,374.542h-24.379c-0.61,0-1.105-0.495-1.105-1.105c0-0.611,0.495-1.105,1.105-1.105h24.379
			c0.611,0,1.105,0.495,1.105,1.105C216.13,374.048,215.635,374.542,215.024,374.542z"/>
		<path style="fill:#202121;" d="M202.835,389.739h-12.189c-0.61,0-1.105-0.495-1.105-1.105c0-0.611,0.495-1.105,1.105-1.105h12.189
			c0.61,0,1.105,0.495,1.105,1.105C203.94,389.244,203.445,389.739,202.835,389.739z"/>
		<path style="fill:#202121;" d="M214.756,394.617h-24.11c-0.61,0-1.105-0.495-1.105-1.105c0-0.611,0.495-1.105,1.105-1.105h24.11
			c0.611,0,1.105,0.495,1.105,1.105C215.861,394.122,215.366,394.617,214.756,394.617z"/>
		<path style="fill:#202121;" d="M202.835,409.813h-12.189c-0.61,0-1.105-0.495-1.105-1.105c0-0.611,0.495-1.105,1.105-1.105h12.189
			c0.61,0,1.105,0.495,1.105,1.105C203.94,409.318,203.445,409.813,202.835,409.813z"/>
		<path style="fill:#202121;" d="M214.583,414.691h-23.937c-0.61,0-1.105-0.495-1.105-1.105c0-0.611,0.495-1.105,1.105-1.105h23.937
			c0.611,0,1.105,0.495,1.105,1.105C215.688,414.196,215.194,414.691,214.583,414.691z"/>
		<path style="fill:#202121;" d="M236.761,417.347l-6.421-2.575v-1.41c1.769-0.962,3.11-2.611,3.67-4.585
			c2.146-0.011,3.889-1.76,3.889-3.908c0-1.291-0.63-2.438-1.598-3.15v-2.935c0-5.463-4.444-9.907-9.907-9.907h-0.733
			c-0.819,0-1.614,0.102-2.376,0.29v-5.987c0-0.611-0.495-1.105-1.105-1.105h-3.283c-0.611,0-1.105,0.495-1.105,1.105
			c0,0.611,0.495,1.105,1.105,1.105h2.178v5.721c-2.901,1.522-4.958,4.438-5.276,7.853h-41.588v-13.574h40.986
			c0.611,0,1.105-0.495,1.105-1.105c0-0.611-0.495-1.105-1.105-1.105h-42.092c-0.61,0-1.105,0.495-1.105,1.105v15.785
			c0,0.611,0.495,1.105,1.105,1.105h42.648v1.637c-0.182,0.133-0.353,0.281-0.509,0.442h-42.139c-0.61,0-1.105,0.495-1.105,1.105
			v15.785c0,0.611,0.495,1.105,1.105,1.105h38.444c-0.934,1.284-1.633,3.015-1.633,5.253v5.496c0,0.61,0.495,1.107,1.105,1.107
			h4.175c0.611,0,1.105-0.495,1.105-1.105c0-0.611-0.495-1.105-1.105-1.105h-3.07v-4.392c0-4.596,3.617-5.915,3.765-5.967
			c0.017-0.006,0.034-0.012,0.051-0.019l6.05-2.369c0.028,0.034,0.057,0.067,0.089,0.098l3.174,3.091
			c0.206,0.201,0.483,0.313,0.771,0.313c0.006,0,0.012,0,0.017,0c0.294-0.005,0.574-0.126,0.778-0.338l3.104-3.22l6.039,2.422
			c0.015,0.006,0.037,0.014,0.053,0.02c0.154,0.054,3.771,1.373,3.771,5.969v4.392h-9.09h-7.846h-1.636h-1.373h-1.11
			c-0.611,0-1.105,0.495-1.105,1.105c0,0.611,0.495,1.105,1.105,1.105h1.11h1.373h1.636h7.846h10.196
			c0.611,0,1.105-0.506,1.105-1.116v-5.486C242,420.451,238.592,417.977,236.761,417.347z M226.743,412.064h-1.399
			c-2.946,0-5.343-2.397-5.343-5.343v-4.443c1.929-0.167,5.946-0.828,8.809-3.479c0.585,1.157,1.604,2.551,3.275,3.235v4.687
			C232.085,409.668,229.689,412.064,226.743,412.064z M217.791,403.192v3.353c-0.815-0.125-1.441-0.828-1.441-1.676
			C216.35,404.02,216.976,403.317,217.791,403.192z M234.296,406.538V403.2c0.79,0.145,1.392,0.838,1.392,1.669
			C235.688,405.7,235.086,406.393,234.296,406.538z M225.66,391.088h0.733c4.244,0,7.696,3.453,7.696,7.696v1.805
			c-0.001-0.002-0.003-0.004-0.005-0.006c-0.01-0.014-0.02-0.028-0.031-0.042c-0.011-0.013-0.022-0.026-0.033-0.039
			c-0.013-0.014-0.025-0.029-0.039-0.042c-0.011-0.011-0.022-0.021-0.033-0.032c-0.015-0.014-0.03-0.028-0.046-0.041
			c-0.011-0.009-0.023-0.018-0.034-0.027c-0.016-0.013-0.033-0.026-0.05-0.037c-0.013-0.009-0.026-0.017-0.039-0.025
			c-0.017-0.011-0.034-0.021-0.051-0.031c-0.015-0.009-0.032-0.017-0.047-0.024c-0.016-0.008-0.031-0.016-0.047-0.023
			c-0.019-0.009-0.039-0.016-0.059-0.023c-0.014-0.005-0.028-0.011-0.042-0.015c-0.022-0.007-0.045-0.013-0.068-0.019
			c-0.01-0.003-0.02-0.006-0.031-0.009c-2.405-0.547-3.158-3.657-3.165-3.684c-0.096-0.424-0.431-0.752-0.857-0.839
			c-0.425-0.088-0.863,0.083-1.117,0.435c-2.908,4.021-9.309,4.061-9.397,4.061c0,0,0,0,0,0c-0.001,0-0.003,0-0.004,0
			c-0.038,0-0.076,0.002-0.113,0.006c-0.011,0.001-0.021,0.003-0.032,0.005c-0.026,0.003-0.052,0.007-0.078,0.012
			c-0.015,0.003-0.03,0.008-0.045,0.012c-0.02,0.005-0.041,0.009-0.06,0.015c-0.018,0.006-0.035,0.013-0.053,0.019
			c-0.016,0.006-0.033,0.011-0.048,0.018c-0.021,0.009-0.04,0.019-0.06,0.029c-0.012,0.006-0.024,0.011-0.036,0.017
			c-0.02,0.011-0.038,0.023-0.057,0.035c-0.011,0.007-0.023,0.013-0.034,0.021c-0.018,0.012-0.035,0.026-0.052,0.039
			c-0.011,0.008-0.022,0.016-0.033,0.025c-0.016,0.013-0.03,0.027-0.045,0.041c-0.011,0.01-0.023,0.02-0.033,0.03
			c-0.014,0.014-0.026,0.028-0.039,0.042c-0.011,0.012-0.022,0.023-0.033,0.036c-0.011,0.014-0.022,0.029-0.033,0.043
			c-0.01,0.014-0.021,0.027-0.031,0.041c-0.006,0.009-0.011,0.018-0.017,0.027v-1.854
			C217.964,394.54,221.416,391.088,225.66,391.088z M215.16,417.345c-0.367,0.126-0.797,0.327-1.25,0.606
			c-0.061-0.01-0.122-0.017-0.186-0.017h-39.513V404.36h39.963c-0.022,0.167-0.034,0.336-0.034,0.509
			c0,2.155,1.754,3.909,3.909,3.909c0.01,0,0.019-0.001,0.029-0.001c0.559,1.975,1.901,3.624,3.67,4.586v1.403L215.16,417.345z
			 M226.002,417.874l-2.044-1.991v-1.738c0.45,0.084,0.913,0.13,1.386,0.13h1.399c0.474,0,0.936-0.046,1.386-0.13v1.392
			c0,0.002,0,0.003,0,0.005v0.125L226.002,417.874z"/>
		<path style="fill:#202121;" d="M185.402,375.766h-7.685c-0.61,0-1.105-0.495-1.105-1.105v-7.326c0-0.611,0.495-1.105,1.105-1.105
			h5.575c0.61,0,1.105,0.495,1.105,1.105c0,0.611-0.495,1.105-1.105,1.105h-4.47v5.115h5.475v-0.871
			c0-0.611,0.495-1.105,1.105-1.105s1.105,0.495,1.105,1.105v1.976C186.507,375.271,186.012,375.766,185.402,375.766z"/>
		<path style="fill:#202121;" d="M182.318,373.201c-0.003,0-0.005,0-0.007,0c-0.307-0.002-0.599-0.132-0.807-0.358l-1.938-2.112
			c-0.413-0.45-0.383-1.149,0.067-1.562c0.45-0.413,1.149-0.383,1.562,0.067l1.135,1.236l3.671-3.896
			c0.419-0.444,1.118-0.465,1.562-0.046c0.444,0.419,0.465,1.118,0.046,1.562l-4.486,4.76
			C182.913,373.076,182.622,373.201,182.318,373.201z"/>
		<path style="fill:#202121;" d="M185.402,395.841h-7.685c-0.61,0-1.105-0.495-1.105-1.105v-7.326c0-0.611,0.495-1.105,1.105-1.105
			h5.575c0.61,0,1.105,0.495,1.105,1.105c0,0.611-0.495,1.105-1.105,1.105h-4.47v5.115h5.475v-0.871
			c0-0.611,0.495-1.105,1.105-1.105s1.105,0.495,1.105,1.105v1.976C186.507,395.346,186.012,395.841,185.402,395.841z"/>
		<path style="fill:#202121;" d="M182.318,393.275c-0.003,0-0.005,0-0.007,0c-0.307-0.002-0.599-0.132-0.807-0.358l-1.938-2.112
			c-0.413-0.45-0.383-1.149,0.067-1.562c0.45-0.413,1.149-0.383,1.562,0.067l1.135,1.236l3.671-3.896
			c0.419-0.444,1.118-0.465,1.562-0.046c0.444,0.419,0.465,1.118,0.046,1.562l-4.486,4.76
			C182.913,393.15,182.622,393.275,182.318,393.275z"/>
		<path style="fill:#202121;" d="M185.402,415.915h-7.685c-0.61,0-1.105-0.495-1.105-1.105v-7.326c0-0.611,0.495-1.105,1.105-1.105
			h5.575c0.61,0,1.105,0.495,1.105,1.105s-0.495,1.105-1.105,1.105h-4.47v5.115h5.475v-0.871c0-0.611,0.495-1.105,1.105-1.105
			s1.105,0.495,1.105,1.105v1.976C186.507,415.42,186.012,415.915,185.402,415.915z"/>
		<path style="fill:#202121;" d="M182.318,413.35c-0.003,0-0.005,0-0.007,0c-0.307-0.002-0.599-0.132-0.807-0.358l-1.938-2.112
			c-0.413-0.45-0.383-1.149,0.067-1.562c0.45-0.413,1.149-0.383,1.562,0.067l1.135,1.236l3.671-3.896
			c0.419-0.444,1.118-0.465,1.562-0.046c0.444,0.419,0.465,1.118,0.046,1.562l-4.486,4.76
			C182.913,413.224,182.622,413.35,182.318,413.35z"/>
		<path style="fill:#202121;" d="M222.179,379.996h-49.074c-0.61,0-1.105-0.495-1.105-1.105v-15.785
			c0-0.611,0.495-1.105,1.105-1.105h42.092c0.611,0,1.105,0.495,1.105,1.105c0,0.611-0.495,1.105-1.105,1.105h-40.986v13.574h46.863
			v-13.574h-2.177c-0.611,0-1.105-0.495-1.105-1.105c0-0.611,0.495-1.105,1.105-1.105h3.283c0.611,0,1.105,0.495,1.105,1.105v15.785
			C223.284,379.501,222.789,379.996,222.179,379.996z"/>
	</g>
</g>
</svg>
