<?xml version="1.0" encoding="iso-8859-1"?>
<!-- Generator: Adobe Illustrator 21.1.0, SVG Export Plug-In . SVG Version: 6.00 Build 0)  -->
<svg version="1.1" id="Layer_1" xmlns="http://www.w3.org/2000/svg" xmlns:xlink="http://www.w3.org/1999/xlink" x="0px" y="0px"
	 viewBox="172 365.571 70 62.857" style="enable-background:new 172 365.571 70 62.857;" xml:space="preserve">
<g>
	<path style="fill:#FFFFFF;" d="M240.929,418.429c0,4.931-3.997,8.929-8.929,8.929h-58.929v-45.143H232V409.5
		C236.931,409.5,240.929,413.497,240.929,418.429z"/>
	<path style="fill:#00DDC2;" d="M232,366.643c4.931,0,8.929,3.997,8.929,8.929v42.857c0-4.931-3.997-8.929-8.929-8.929V366.643
		L232,366.643z"/>
	<path style="fill:#FFFFFF;" d="M176.608,383.806l-1.358-2.913c-0.417-0.894-0.03-1.956,0.864-2.373l0,0
		c0.894-0.417,1.956-0.03,2.373,0.864l1.358,2.913"/>
	<polygon style="fill:#FF5252;" points="224.143,408 224.143,370.857 227.714,370.857 227.714,408 225.929,410.857 	"/>
	<rect x="224.143" y="370.857" style="fill:#FFFFFF;" width="3.571" height="3.571"/>
	<g>
		<rect x="196.286" y="387.929" style="fill:#00DDC2;" width="4.286" height="4.286"/>
		<rect x="204.857" y="387.929" style="fill:#00DDC2;" width="4.286" height="4.286"/>
		<rect x="213.429" y="387.929" style="fill:#00DDC2;" width="4.286" height="4.286"/>
	</g>
	<circle style="fill:#FF5252;" cx="207" cy="404.786" r="5.268"/>
	<g>
		<rect x="213.429" y="417.357" style="fill:#00DDC2;" width="4.286" height="4.286"/>
		<rect x="204.857" y="417.357" style="fill:#00DDC2;" width="4.286" height="4.286"/>
		<rect x="196.286" y="417.357" style="fill:#00DDC2;" width="4.286" height="4.286"/>
	</g>
	<circle style="fill:#FFFFFF;" cx="182" cy="391.143" r="8.929"/>
	<circle style="fill:#FDC35C;" cx="182" cy="391.143" r="6.071"/>
	<rect x="177.357" y="405.929" style="fill:#43B5EC;" width="11.429" height="7.143"/>
	<path d="M223.071,408.307l2.857,4.571l2.857-4.571v-25.022H232v-2.143h-3.214v-11.357h-5.714v11.357h-32.143v2.143h32.143V408.307z
		 M225.929,408.836l-0.714-1.143V375.5h1.429v32.193L225.929,408.836z M226.643,371.929v1.429h-1.429v-1.429H226.643z"/>
	<path d="M216.643,396.857v-3.571h2.143v-6.429h-6.429v6.429h2.143v1.429h-6.429v-1.429h2.143v-6.429h-6.429v6.429h2.143v1.429
		H199.5v-1.429h2.143v-6.429h-6.429v6.429h2.143v3.571h8.571v1.682c-2.987,0.511-5.268,3.117-5.268,6.247
		c0,3.13,2.281,5.736,5.268,6.247v1.682h-8.571v3.571h-2.143v6.429h6.429v-6.429H199.5v-1.429h6.429v1.429h-2.143v6.429h6.429
		v-6.429h-2.143v-1.429h6.429v1.429h-2.143v6.429h6.429v-6.429h-2.143v-3.571h-8.571v-1.682c2.987-0.511,5.268-3.117,5.268-6.247
		c0-3.13-2.281-5.736-5.268-6.247v-1.682H216.643z M214.5,389h2.143v2.143H214.5V389z M205.929,389h2.143v2.143h-2.143V389z
		 M197.357,389h2.143v2.143h-2.143V389z M199.5,420.571h-2.143v-2.143h2.143V420.571z M208.071,420.571h-2.143v-2.143h2.143V420.571
		z M216.643,420.571H214.5v-2.143h2.143V420.571z M211.196,404.786c0,2.314-1.883,4.196-4.196,4.196s-4.196-1.883-4.196-4.196
		c0-2.314,1.883-4.196,4.196-4.196S211.196,402.472,211.196,404.786z"/>
	<path d="M232,365.571v2.143c4.332,0,7.857,3.525,7.857,7.857v36.682c-1.833-2.327-4.672-3.825-7.857-3.825v2.143
		c4.332,0,7.857,3.525,7.857,7.857s-3.525,7.857-7.857,7.857h-57.857v-28.968c1.833,2.327,4.672,3.825,7.857,3.825
		c5.514,0,10-4.486,10-10c0-5.514-4.486-10-10-10c-0.496,0-0.983,0.038-1.46,0.108l-1.082-2.32
		c-0.323-0.692-0.895-1.216-1.612-1.477c-0.717-0.261-1.493-0.227-2.185,0.095c-1.428,0.666-2.048,2.369-1.382,3.797l1.085,2.326
		c-2.061,1.833-3.363,4.502-3.363,7.471v37.286h60c5.514,0,10-4.486,10-10v-42.857C242,370.057,237.514,365.571,232,365.571z
		 M176.221,380.44c-0.166-0.357-0.011-0.783,0.346-0.949c0.173-0.081,0.367-0.089,0.546-0.024c0.179,0.065,0.322,0.196,0.403,0.369
		l0.917,1.967c-0.448,0.172-0.88,0.374-1.294,0.605L176.221,380.44z M182,383.286c4.332,0,7.857,3.525,7.857,7.857
		S186.332,399,182,399s-7.857-3.525-7.857-7.857S177.668,383.286,182,383.286z"/>
	<path d="M189.857,404.857h-13.571v9.286h13.571V404.857z M187.714,412h-9.286v-5h9.286V412z"/>
	<rect x="176.286" y="415.571" width="13.571" height="2.143"/>
	<rect x="176.286" y="419.143" width="10.714" height="2.143"/>
</g>
</svg>
