<?xml version="1.0" encoding="iso-8859-1"?>
<!-- Generator: Adobe Illustrator 21.1.0, SVG Export Plug-In . SVG Version: 6.00 Build 0)  -->
<svg version="1.1" id="&#x421;&#x43B;&#x43E;&#x439;_1"
	 xmlns="http://www.w3.org/2000/svg" xmlns:xlink="http://www.w3.org/1999/xlink" x="0px" y="0px" viewBox="0 0 29.161 20.501"
	 style="enable-background:new 0 0 29.161 20.501;" xml:space="preserve">
<g>
	<g>
		<g>
			<defs>
				<rect id="SVGID_1_" x="0" y="0.001" width="30" height="20.833"/>
			</defs>
			<clipPath id="SVGID_2_">
				<use xlink:href="#SVGID_1_"  style="overflow:visible;"/>
			</clipPath>
			<path style="clip-path:url(#SVGID_2_);fill:#DADADA;" d="M19.648,20.192c-0.411,0.412-1.058,0.412-1.469,0
				c-0.398-0.398-0.398-1.058,0-1.456l7.45-7.45H1.044C0.47,11.286,0,10.829,0,10.26c0-0.574,0.47-1.044,1.044-1.044H25.63
				l-7.45-7.437c-0.398-0.411-0.398-1.076,0-1.47c0.411-0.411,1.058-0.411,1.469,0l9.214,9.214c0.398,0.398,0.398,1.058,0,1.456
				L19.648,20.192z M19.648,20.192"/>
		</g>
	</g>
</g>
</svg>
