<?xml version="1.0" encoding="iso-8859-1"?>
<!-- Generator: Adobe Illustrator 21.1.0, SVG Export Plug-In . SVG Version: 6.00 Build 0)  -->
<svg version="1.1" id="&#x421;&#x43B;&#x43E;&#x439;_1"
	 xmlns="http://www.w3.org/2000/svg" xmlns:xlink="http://www.w3.org/1999/xlink" x="0px" y="0px" viewBox="0 0 29.161 20.501"
	 style="enable-background:new 0 0 29.161 20.501;" xml:space="preserve">
<g>
	<g>
		<g>
			<defs>
				<rect id="SVGID_1_" x="0" y="0.001" width="30" height="20.833"/>
			</defs>
			<clipPath id="SVGID_2_">
				<use xlink:href="#SVGID_1_"  style="overflow:visible;"/>
			</clipPath>
			<path style="clip-path:url(#SVGID_2_);fill:#FFFFFF;" d="M9.513,0.309c0.411-0.412,1.058-0.412,1.469,0
				c0.398,0.398,0.398,1.058,0,1.456l-7.45,7.45h24.586c0.574,0,1.044,0.457,1.044,1.027c0,0.574-0.47,1.044-1.044,1.044H3.531
				l7.45,7.437c0.398,0.411,0.398,1.076,0,1.47c-0.411,0.411-1.058,0.411-1.469,0l-9.214-9.214c-0.398-0.398-0.398-1.058,0-1.456
				L9.513,0.309z M9.513,0.309"/>
		</g>
	</g>
</g>
</svg>
