<?xml version="1.0" encoding="iso-8859-1"?>
<!-- Generator: Adobe Illustrator 21.1.0, SVG Export Plug-In . SVG Version: 6.00 Build 0)  -->
<svg version="1.1" id="&#x421;&#x43B;&#x43E;&#x439;_1"
	 xmlns="http://www.w3.org/2000/svg" xmlns:xlink="http://www.w3.org/1999/xlink" x="0px" y="0px" viewBox="0 0 70 56.9"
	 style="enable-background:new 0 0 70 56.9;" xml:space="preserve">
<g>
	<path style="fill:#353535;" d="M25.152,15.994H7.65c-0.599,0-1.079,0.481-1.079,1.079c0,0.594,0.48,1.079,1.079,1.079h17.501
		c0.598,0,1.085-0.485,1.085-1.079C26.236,16.476,25.749,15.994,25.152,15.994L25.152,15.994z M25.152,15.994"/>
	<path style="fill:#353535;" d="M1.085,9.84h24.067c0.603,0,1.085-0.486,1.085-1.085c0-0.598-0.481-1.085-1.085-1.085H1.085
		C0.485,7.671,0,8.158,0,8.755C0,9.354,0.485,9.84,1.085,9.84L1.085,9.84z M1.085,9.84"/>
	<path style="fill:#353535;" d="M1.085,26.47h24.067c0.603,0,1.085-0.485,1.085-1.085c0-0.598-0.481-1.085-1.085-1.085H1.085
		C0.485,24.301,0,24.788,0,25.386C0,25.985,0.485,26.47,1.085,26.47L1.085,26.47z M1.085,26.47"/>
	<path style="fill:#353535;" d="M25.152,32.624H7.65c-0.599,0-1.079,0.481-1.079,1.079c0,0.594,0.48,1.08,1.079,1.08h17.501
		c0.598,0,1.085-0.487,1.085-1.08C26.236,33.106,25.749,32.624,25.152,32.624L25.152,32.624z M25.152,32.624"/>
	<path style="fill:#353535;" d="M26.236,42.017c0-0.599-0.481-1.085-1.085-1.085H1.085C0.485,40.933,0,41.418,0,42.017
		c0,0.598,0.485,1.085,1.085,1.085h24.067C25.755,43.102,26.236,42.615,26.236,42.017L26.236,42.017z M26.236,42.017"/>
	<path style="fill:#353535;" d="M25.152,49.223H5.459c-0.614,0-1.11,0.496-1.11,1.112c0,0.614,0.496,1.11,1.11,1.11h19.692
		c0.614,0,1.116-0.496,1.116-1.11C26.268,49.72,25.766,49.223,25.152,49.223L25.152,49.223z M25.152,49.223"/>
	<path style="fill:#353535;" d="M35.003,0c-0.61,0-1.101,0.491-1.101,1.101v54.705c0,0.603,0.491,1.094,1.101,1.094
		c0.603,0,1.095-0.491,1.095-1.094V1.101C36.098,0.491,35.606,0,35.003,0L35.003,0z M35.003,0"/>
	<path style="fill:#E61A0C;" d="M44.848,15.994c-0.599,0-1.079,0.481-1.079,1.079c0,0.594,0.48,1.079,1.079,1.079h17.507
		c0.592,0,1.079-0.485,1.079-1.079c0-0.598-0.487-1.079-1.079-1.079H44.848z M44.848,15.994"/>
	<path style="fill:#E61A0C;" d="M44.848,9.84h24.067C69.519,9.84,70,9.354,70,8.755c0-0.598-0.481-1.085-1.084-1.085H44.848
		c-0.599,0-1.084,0.487-1.084,1.085C43.764,9.354,44.249,9.84,44.848,9.84L44.848,9.84z M44.848,9.84"/>
	<path style="fill:#E61A0C;" d="M68.916,24.301H44.848c-0.599,0-1.084,0.487-1.084,1.085c0,0.599,0.485,1.085,1.084,1.085h24.067
		c0.603,0,1.084-0.485,1.084-1.085C70,24.788,69.519,24.301,68.916,24.301L68.916,24.301z M68.916,24.301"/>
	<path style="fill:#E61A0C;" d="M44.848,34.784h17.507c0.592,0,1.079-0.487,1.079-1.08c0-0.598-0.487-1.079-1.079-1.079H44.848
		c-0.599,0-1.079,0.481-1.079,1.079C43.769,34.297,44.249,34.784,44.848,34.784L44.848,34.784z M44.848,34.784"/>
	<path style="fill:#E61A0C;" d="M68.916,40.933H44.848c-0.599,0-1.084,0.485-1.084,1.085c0,0.598,0.485,1.085,1.084,1.085h24.067
		c0.603,0,1.084-0.487,1.084-1.085C70,41.418,69.519,40.933,68.916,40.933L68.916,40.933z M68.916,40.933"/>
	<path style="fill:#E61A0C;" d="M64.539,49.223H44.848c-0.614,0-1.112,0.496-1.112,1.112c0,0.614,0.498,1.11,1.112,1.11h19.691
		c0.615,0,1.112-0.496,1.112-1.11C65.651,49.72,65.155,49.223,64.539,49.223L64.539,49.223z M64.539,49.223"/>
</g>
</svg>
