<?xml version="1.0" encoding="iso-8859-1"?>
<!-- Generator: Adobe Illustrator 21.1.0, SVG Export Plug-In . SVG Version: 6.00 Build 0)  -->
<svg version="1.1" id="Layer_1" xmlns="http://www.w3.org/2000/svg" xmlns:xlink="http://www.w3.org/1999/xlink" x="0px" y="0px"
	 viewBox="181.202 360.527 54.669 70" style="enable-background:new 181.202 360.527 54.669 70;" xml:space="preserve">
<g>
	<path style="fill:#353535;" d="M208.684,364.233c-1.732,0-3.142,1.409-3.142,3.141c0,1.732,1.409,3.141,3.142,3.141
		c1.732,0,3.141-1.409,3.141-3.141C211.825,365.642,210.416,364.233,208.684,364.233z M208.684,368.31
		c-0.516,0-0.935-0.42-0.935-0.935c0-0.516,0.42-0.935,0.935-0.935c0.516,0,0.935,0.419,0.935,0.935S209.199,368.31,208.684,368.31z
		"/>
	<path style="fill:#353535;" d="M233.007,369.332h-12.904v-1.538c0-0.609-0.494-1.103-1.103-1.103h-3.465
		c-0.364-3.459-3.298-6.164-6.852-6.164c-3.554,0-6.488,2.705-6.852,6.164h-3.464c-0.609,0-1.103,0.494-1.103,1.103v1.538h-13.198
		c-1.579,0-2.864,1.285-2.864,2.864v55.467c0,1.579,1.285,2.864,2.864,2.864h48.941c1.579,0,2.864-1.285,2.864-2.864v-55.467
		C235.871,370.617,234.586,369.332,233.007,369.332z M199.47,368.897h3.44c0.305,0,0.596-0.126,0.805-0.349
		c0.209-0.222,0.316-0.521,0.296-0.825c-0.008-0.122-0.011-0.219-0.011-0.306c0-2.583,2.101-4.684,4.684-4.684
		c2.583,0,4.683,2.101,4.683,4.684c0,0.087-0.003,0.182-0.011,0.309c-0.019,0.304,0.089,0.602,0.297,0.824
		c0.208,0.222,0.499,0.348,0.804,0.348h3.44v4.897H199.47V368.897z M233.665,427.663c0,0.363-0.295,0.658-0.658,0.658h-48.941
		c-0.363,0-0.658-0.295-0.658-0.658v-55.467c0-0.363,0.295-0.658,0.658-0.658h13.198v2.256H187c-0.609,0-1.103,0.494-1.103,1.103
		v49.82c0,0.609,0.494,1.103,1.103,1.103h8.038c0.609,0,1.103-0.494,1.103-1.103s-0.494-1.103-1.103-1.103h-6.934V376h10.264H219
		h9.973v47.614h-29.522c-0.609,0-1.103,0.494-1.103,1.103s0.494,1.103,1.103,1.103h30.625c0.609,0,1.103-0.494,1.103-1.103v-49.82
		c0-0.609-0.494-1.103-1.103-1.103h-9.973v-2.256h12.904c0.363,0,0.658,0.295,0.658,0.658V427.663L233.665,427.663z"/>
	<path style="fill:#E8180C;" d="M196.885,387.828c0.213,0.205,0.489,0.307,0.764,0.307c0.276,0,0.552-0.103,0.765-0.309l2.357-2.271
		c0.439-0.423,0.452-1.121,0.029-1.56s-1.121-0.452-1.56-0.029l-1.593,1.535l-0.636-0.611c-0.439-0.422-1.138-0.408-1.56,0.032
		c-0.422,0.439-0.408,1.138,0.032,1.56L196.885,387.828z"/>
	<path style="fill:#E8180C;" d="M198.192,391.901c3.412,0,6.188-2.776,6.188-6.188c0-3.412-2.776-6.188-6.188-6.188
		c-3.412,0-6.188,2.776-6.188,6.188C192.004,389.125,194.78,391.901,198.192,391.901z M198.192,381.731
		c2.195,0,3.981,1.786,3.981,3.981c0,2.195-1.786,3.981-3.981,3.981c-2.196,0-3.982-1.786-3.982-3.981
		S195.996,381.731,198.192,381.731z"/>
	<path style="fill:#E8180C;" d="M196.885,402.183c0.213,0.205,0.489,0.307,0.764,0.307c0.276,0,0.552-0.103,0.765-0.309l2.357-2.271
		c0.439-0.423,0.452-1.121,0.029-1.56c-0.423-0.439-1.121-0.451-1.56-0.029l-1.593,1.535l-0.636-0.611
		c-0.439-0.422-1.138-0.408-1.56,0.032c-0.422,0.44-0.408,1.138,0.032,1.56L196.885,402.183z"/>
	<path style="fill:#E8180C;" d="M198.192,406.256c3.412,0,6.188-2.776,6.188-6.188c0-3.412-2.776-6.188-6.188-6.188
		c-3.412,0-6.188,2.776-6.188,6.188C192.004,403.48,194.78,406.256,198.192,406.256z M198.192,396.087
		c2.195,0,3.981,1.786,3.981,3.981c0,2.196-1.786,3.982-3.981,3.982c-2.196,0-3.982-1.786-3.982-3.982
		S195.996,396.087,198.192,396.087z"/>
	<path style="fill:#E8180C;" d="M199.24,412.677l-1.593,1.535l-0.636-0.611c-0.439-0.422-1.138-0.408-1.56,0.032
		c-0.422,0.439-0.408,1.138,0.032,1.56l1.402,1.346c0.213,0.205,0.489,0.307,0.764,0.307c0.276,0,0.552-0.103,0.765-0.309
		l2.357-2.271c0.439-0.423,0.452-1.121,0.029-1.56C200.377,412.268,199.679,412.255,199.24,412.677z"/>
	<path style="fill:#E8180C;" d="M204.379,414.424c0-3.412-2.776-6.188-6.188-6.188c-3.412,0-6.188,2.776-6.188,6.188
		c0,3.412,2.776,6.188,6.188,6.188C201.603,420.611,204.379,417.836,204.379,414.424z M198.192,418.405
		c-2.196,0-3.982-1.786-3.982-3.981c0-2.195,1.786-3.981,3.982-3.981c2.195,0,3.981,1.786,3.981,3.981
		S200.387,418.405,198.192,418.405z"/>
	<path style="fill:#E8180C;" d="M207.858,383.929h8.376c0.609,0,1.103-0.494,1.103-1.103s-0.494-1.103-1.103-1.103h-8.376
		c-0.609,0-1.103,0.494-1.103,1.103S207.248,383.929,207.858,383.929z"/>
	<path style="fill:#E8180C;" d="M207.858,388.465h15.815c0.609,0,1.103-0.494,1.103-1.103s-0.494-1.103-1.103-1.103h-15.815
		c-0.609,0-1.103,0.494-1.103,1.103S207.248,388.465,207.858,388.465z"/>
	<path style="fill:#E8180C;" d="M207.858,398.903h8.376c0.609,0,1.103-0.494,1.103-1.103s-0.494-1.103-1.103-1.103h-8.376
		c-0.609,0-1.103,0.494-1.103,1.103S207.248,398.903,207.858,398.903z"/>
	<path style="fill:#E8180C;" d="M207.858,403.44h15.815c0.609,0,1.103-0.494,1.103-1.103s-0.494-1.103-1.103-1.103h-15.815
		c-0.609,0-1.103,0.494-1.103,1.103C206.755,402.946,207.248,403.44,207.858,403.44z"/>
	<path style="fill:#E8180C;" d="M207.858,413.259h8.376c0.609,0,1.103-0.494,1.103-1.103s-0.494-1.103-1.103-1.103h-8.376
		c-0.609,0-1.103,0.494-1.103,1.103S207.248,413.259,207.858,413.259z"/>
	<path style="fill:#E8180C;" d="M207.858,417.795h15.815c0.609,0,1.103-0.494,1.103-1.103s-0.494-1.103-1.103-1.103h-15.815
		c-0.609,0-1.103,0.494-1.103,1.103C206.755,417.301,207.248,417.795,207.858,417.795z"/>
</g>
</svg>
