<?xml version="1.0" encoding="iso-8859-1"?>
<!-- Generator: Adobe Illustrator 21.1.0, SVG Export Plug-In . SVG Version: 6.00 Build 0)  -->
<svg version="1.1" id="&#x421;&#x43B;&#x43E;&#x439;_1"
	 xmlns="http://www.w3.org/2000/svg" xmlns:xlink="http://www.w3.org/1999/xlink" x="0px" y="0px" viewBox="0 0 68.727 70"
	 style="enable-background:new 0 0 68.727 70;" xml:space="preserve">
<g>
	<g>
		<defs>
			<rect id="SVGID_1_" width="68.727" height="70"/>
		</defs>
		<clipPath id="SVGID_2_">
			<use xlink:href="#SVGID_1_"  style="overflow:visible;"/>
		</clipPath>
		<path style="clip-path:url(#SVGID_2_);fill:#353535;" d="M10.606,19.937c0,3.512,2.853,6.365,6.365,6.365
			c3.505,0,6.365-2.853,6.365-6.365c0-3.505-2.86-6.358-6.365-6.358C13.459,13.578,10.606,16.431,10.606,19.937L10.606,19.937z
			 M21.212,19.937c0,2.341-1.901,4.248-4.241,4.248c-2.341,0-4.241-1.906-4.241-4.248c0-2.335,1.9-4.241,4.241-4.241
			C19.311,15.696,21.212,17.602,21.212,19.937L21.212,19.937z M21.212,19.937"/>
		<path style="clip-path:url(#SVGID_2_);fill:#353535;" d="M32.569,31.295l7.422-7.422c0.415-0.414,0.415-1.087,0-1.502
			l-3.179-3.179c-0.394-0.394-1.021-0.419-1.44-0.057l-7.302,6.256l-7.074,3.035H8.482c-0.305,0-0.595,0.129-0.797,0.362
			l-7.422,8.484c-0.248,0.284-0.331,0.677-0.207,1.035l3.179,9.544c0.099,0.29,0.317,0.529,0.602,0.642
			c0.284,0.119,0.601,0.11,0.88-0.031l4.241-2.119c0.362-0.18,0.585-0.544,0.585-0.932v18.012c0,2.926,2.382,5.303,5.303,5.303
			h8.489c0.585,0,1.055-0.471,1.055-1.062V35.443l7.898-3.952C32.394,31.444,32.486,31.377,32.569,31.295L32.569,31.295z
			 M9.544,45.375c0-0.13-0.025-0.253-0.072-0.378l-1.896-4.729l1.967-2.459V45.375z M22.859,33.837
			c-0.357,0.182-0.585,0.549-0.585,0.953v31.818h-4.241V49.638c0-0.586-0.477-1.062-1.062-1.062c-0.586,0-1.062,0.476-1.062,1.062
			v16.971h-1.062c-1.755,0-3.179-1.43-3.179-3.186V34.791c0-0.451-0.285-0.855-0.709-1.005c-0.426-0.146-0.902-0.011-1.181,0.342
			l-4.241,5.303c-0.239,0.294-0.301,0.699-0.16,1.055l1.761,4.398l-2.274,1.134l-2.605-7.803l6.707-7.671h12.247
			c0.145,0,0.285-0.025,0.419-0.082l7.422-3.184c0.098-0.042,0.192-0.099,0.274-0.166l6.68-5.723l1.735,1.735l-6.552,6.55
			L22.859,33.837z M22.859,33.837"/>
	</g>
	<path style="fill:#353535;" d="M14.847,34.791h1.062v8.482h2.124v-8.482h1.055v-2.124h-4.241V34.791z M14.847,34.791"/>
	<path style="fill:#353535;" d="M67.877,53.879c0-3.511-2.853-6.365-6.365-6.365c-2.211,0-4.158,1.14-5.303,2.854
		c-1.139-1.72-3.086-2.854-5.303-2.854c-2.211,0-4.158,1.14-5.303,2.854c-1.139-1.72-3.086-2.854-5.303-2.854
		c-3.505,0-6.358,2.854-6.358,6.365c0,2.211,1.134,4.164,2.848,5.303c-1.714,1.139-2.848,3.092-2.848,5.303v4.241h2.117v-4.241
		c0-2.341,1.906-4.241,4.241-4.241c2.341,0,4.248,1.9,4.248,4.241v4.241h2.117v-4.241c0-2.341,1.906-4.241,4.241-4.241
		c2.341,0,4.248,1.9,4.248,4.241v4.241h2.117v-4.241c0-2.341,1.906-4.241,4.241-4.241c2.341,0,4.248,1.9,4.248,4.241v4.241h2.117
		v-4.241c0-2.211-1.134-4.164-2.853-5.303C66.744,58.043,67.877,56.09,67.877,53.879L67.877,53.879z M50.906,49.638
		c2.341,0,4.248,1.9,4.248,4.241c0,2.341-1.906,4.241-4.248,4.241c-2.335,0-4.241-1.9-4.241-4.241
		C46.665,51.537,48.572,49.638,50.906,49.638L50.906,49.638z M36.059,53.879c0-2.341,1.906-4.241,4.241-4.241
		c2.341,0,4.248,1.9,4.248,4.241c0,2.341-1.906,4.241-4.248,4.241C37.966,58.12,36.059,56.22,36.059,53.879L36.059,53.879z
		 M45.603,60.974c-0.471-0.711-1.082-1.322-1.791-1.792c0.709-0.471,1.32-1.082,1.791-1.792c0.472,0.711,1.083,1.322,1.792,1.792
		C46.686,59.652,46.075,60.264,45.603,60.974L45.603,60.974z M56.209,60.974c-0.471-0.711-1.082-1.322-1.791-1.792
		c0.709-0.471,1.32-1.082,1.791-1.792c0.472,0.711,1.083,1.322,1.792,1.792C57.293,59.652,56.681,60.264,56.209,60.974
		L56.209,60.974z M61.512,58.12c-2.335,0-4.241-1.9-4.241-4.241c0-2.341,1.906-4.241,4.241-4.241c2.341,0,4.248,1.9,4.248,4.241
		C65.76,56.22,63.854,58.12,61.512,58.12L61.512,58.12z M61.512,58.12"/>
	<path style="fill:#353535;" d="M66.815,0.849H27.577c-0.586,0-1.062,0.476-1.062,1.062v20.15h2.124V2.972H65.76v28.632
		c0,1.755-1.43,3.186-3.186,3.186h-32.88v2.117h32.88c2.926,0,5.303-2.377,5.303-5.303V1.91C67.877,1.324,67.401,0.849,66.815,0.849
		L66.815,0.849z M66.815,0.849"/>
	<path style="fill:#E7190C;" d="M44.548,6.152H33.942c-0.586,0-1.062,0.476-1.062,1.062v4.241c0,0.585,0.476,1.062,1.062,1.062
		h10.606c0.585,0,1.055-0.477,1.055-1.062v-1.062h3.186v1.062c0,0.585,0.476,1.062,1.062,1.062h4.241v3.179h-4.241
		c-0.586,0-1.062,0.477-1.062,1.062v4.241c0,0.586,0.476,1.062,1.062,1.062h4.241v3.179h-4.241c-0.586,0-1.062,0.477-1.062,1.062
		v4.241c0,0.591,0.476,1.062,1.062,1.062h10.606c0.585,0,1.055-0.471,1.055-1.062v-4.241c0-0.585-0.471-1.062-1.055-1.062h-4.248
		v-3.179h4.248c0.585,0,1.055-0.476,1.055-1.062v-4.241c0-0.585-0.471-1.062-1.055-1.062h-4.248v-3.179h4.248
		c0.585,0,1.055-0.477,1.055-1.062V7.213c0-0.586-0.471-1.062-1.055-1.062H49.851c-0.586,0-1.062,0.476-1.062,1.062v1.062h-3.186
		V7.213C45.603,6.627,45.133,6.152,44.548,6.152L44.548,6.152z M43.486,10.393h-8.489V8.275h8.489V10.393z M59.395,29.488h-8.489
		v-2.124h8.489V29.488z M59.395,19.937h-8.489V17.82h8.489V19.937z M50.906,8.275h8.489v2.117h-8.489V8.275z M50.906,8.275"/>
	<rect x="33.942" y="14.634" style="fill:#E7190C;" width="11.663" height="2.124"/>
	<rect x="41.362" y="18.881" style="fill:#E7190C;" width="4.241" height="2.119"/>
	<rect x="42.424" y="23.123" style="fill:#E7190C;" width="3.179" height="2.119"/>
	<rect x="39.245" y="27.364" style="fill:#E7190C;" width="6.36" height="2.124"/>
	<path style="fill:#E7190C;" d="M4.241,11.455h0.534l2.864,3.817c0.202,0.274,0.517,0.424,0.843,0.424
		c0.114,0,0.228-0.016,0.337-0.052c0.435-0.144,0.725-0.549,0.725-1.01v-3.179h6.365c1.755,0,3.179-1.429,3.179-3.179V4.028
		c0-1.75-1.424-3.179-3.179-3.179H4.241c-1.755,0-3.179,1.429-3.179,3.179v4.248C1.062,10.025,2.486,11.455,4.241,11.455
		L4.241,11.455z M3.179,4.028c0-0.585,0.477-1.055,1.062-1.055h11.668c0.585,0,1.062,0.471,1.062,1.055v4.248
		c0,0.585-0.477,1.055-1.062,1.055H8.482c-0.585,0-1.055,0.477-1.055,1.062v1.062L6.153,9.756C5.95,9.492,5.634,9.331,5.303,9.331
		H4.241c-0.585,0-1.062-0.471-1.062-1.055V4.028z M3.179,4.028"/>
	<rect x="5.303" y="5.09" style="fill:#E7190C;" width="9.544" height="2.124"/>
</g>
</svg>
