<?xml version="1.0" encoding="iso-8859-1"?>
<!-- Generator: Adobe Illustrator 21.1.0, SVG Export Plug-In . SVG Version: 6.00 Build 0)  -->
<svg version="1.1" id="&#x421;&#x43B;&#x43E;&#x439;_1"
	 xmlns="http://www.w3.org/2000/svg" xmlns:xlink="http://www.w3.org/1999/xlink" x="0px" y="0px" viewBox="0 0 50 49.707"
	 style="enable-background:new 0 0 50 49.707;" xml:space="preserve">
<g>
	<path style="fill:#FFFFFF;" d="M16.577,21.716c0,0.573-0.465,1.036-1.037,1.036c-0.571,0-1.036-0.463-1.036-1.036
		c0-0.573,0.465-1.036,1.036-1.036C16.112,20.68,16.577,21.143,16.577,21.716L16.577,21.716z M16.577,21.716"/>
	<path style="fill:#FFFFFF;" d="M22.793,21.716c0,0.573-0.463,1.036-1.036,1.036c-0.572,0-1.036-0.463-1.036-1.036
		c0-0.573,0.463-1.036,1.036-1.036C22.329,20.68,22.793,21.143,22.793,21.716L22.793,21.716z M22.793,21.716"/>
	<path style="fill:#FFFFFF;" d="M29.009,21.716c0,0.573-0.463,1.036-1.036,1.036c-0.572,0-1.036-0.463-1.036-1.036
		c0-0.573,0.463-1.036,1.036-1.036C28.545,20.68,29.009,21.143,29.009,21.716L29.009,21.716z M29.009,21.716"/>
	<path style="fill:#FFFFFF;" d="M10.36,27.932c0,0.573-0.463,1.036-1.036,1.036c-0.571,0-1.036-0.463-1.036-1.036
		c0-0.573,0.465-1.036,1.036-1.036C9.896,26.895,10.36,27.359,10.36,27.932L10.36,27.932z M10.36,27.932"/>
	<path style="fill:#FFFFFF;" d="M16.576,27.932c0,0.573-0.463,1.036-1.036,1.036c-0.571,0-1.035-0.463-1.035-1.036
		c0-0.573,0.463-1.036,1.035-1.036C16.112,26.895,16.576,27.359,16.576,27.932L16.576,27.932z M16.576,27.932"/>
	<path style="fill:#FFFFFF;" d="M22.793,27.932c0,0.573-0.465,1.036-1.036,1.036c-0.572,0-1.036-0.463-1.036-1.036
		c0-0.573,0.463-1.036,1.036-1.036C22.328,26.895,22.793,27.359,22.793,27.932L22.793,27.932z M22.793,27.932"/>
	<path style="fill:#FFFFFF;" d="M29.009,27.932c0,0.573-0.463,1.036-1.036,1.036c-0.572,0-1.036-0.463-1.036-1.036
		c0-0.573,0.463-1.036,1.036-1.036C28.545,26.895,29.009,27.359,29.009,27.932L29.009,27.932z M29.009,27.932"/>
	<path style="fill:#FFFFFF;" d="M41.44,27.932c0,0.573-0.463,1.036-1.035,1.036c-0.572,0-1.036-0.463-1.036-1.036
		c0-0.573,0.463-1.036,1.036-1.036C40.977,26.895,41.44,27.359,41.44,27.932L41.44,27.932z M41.44,27.932"/>
	<path style="fill:#FFFFFF;" d="M35.225,21.716c0,0.573-0.463,1.036-1.036,1.036c-0.572,0-1.036-0.463-1.036-1.036
		c0-0.573,0.463-1.036,1.036-1.036C34.761,20.68,35.225,21.143,35.225,21.716L35.225,21.716z M35.225,21.716"/>
	<path style="fill:#FFFFFF;" d="M41.442,21.716c0,0.573-0.465,1.036-1.036,1.036c-0.572,0-1.037-0.463-1.037-1.036
		c0-0.573,0.465-1.036,1.037-1.036C40.977,20.68,41.442,21.143,41.442,21.716L41.442,21.716z M41.442,21.716"/>
	<path style="fill:#FFFFFF;" d="M10.36,34.147c0,0.573-0.463,1.036-1.036,1.036c-0.571,0-1.036-0.463-1.036-1.036
		c0-0.571,0.465-1.036,1.036-1.036C9.896,33.111,10.36,33.576,10.36,34.147L10.36,34.147z M10.36,34.147"/>
	<path style="fill:#FFFFFF;" d="M16.577,34.147c0,0.573-0.465,1.036-1.037,1.036c-0.571,0-1.036-0.463-1.036-1.036
		c0-0.571,0.465-1.036,1.036-1.036C16.112,33.111,16.577,33.576,16.577,34.147L16.577,34.147z M16.577,34.147"/>
	<path style="fill:#FFFFFF;" d="M22.793,34.147c0,0.573-0.463,1.036-1.036,1.036c-0.572,0-1.036-0.463-1.036-1.036
		c0-0.571,0.463-1.036,1.036-1.036C22.329,33.111,22.793,33.576,22.793,34.147L22.793,34.147z M22.793,34.147"/>
	<path style="fill:#FFFFFF;" d="M29.009,34.147c0,0.573-0.463,1.036-1.036,1.036c-0.572,0-1.036-0.463-1.036-1.036
		c0-0.571,0.463-1.036,1.036-1.036C28.545,33.111,29.009,33.576,29.009,34.147L29.009,34.147z M29.009,34.147"/>
	<path style="fill:#FFFFFF;" d="M35.225,34.147c0,0.573-0.463,1.036-1.036,1.036c-0.572,0-1.036-0.463-1.036-1.036
		c0-0.571,0.463-1.036,1.036-1.036C34.761,33.111,35.225,33.576,35.225,34.147L35.225,34.147z M35.225,34.147"/>
	<path style="fill:#FFFFFF;" d="M41.442,34.147c0,0.573-0.465,1.036-1.036,1.036c-0.572,0-1.037-0.463-1.037-1.036
		c0-0.571,0.465-1.036,1.037-1.036C40.977,33.111,41.442,33.576,41.442,34.147L41.442,34.147z M41.442,34.147"/>
	<path style="fill:#FFFFFF;" d="M10.36,40.365c0,0.571-0.463,1.036-1.036,1.036c-0.571,0-1.036-0.464-1.036-1.036
		c0-0.573,0.465-1.037,1.036-1.037C9.896,39.327,10.36,39.792,10.36,40.365L10.36,40.365z M10.36,40.365"/>
	<path style="fill:#FFFFFF;" d="M16.577,40.365c0,0.571-0.465,1.036-1.037,1.036c-0.571,0-1.036-0.464-1.036-1.036
		c0-0.573,0.465-1.037,1.036-1.037C16.112,39.327,16.577,39.792,16.577,40.365L16.577,40.365z M16.577,40.365"/>
	<path style="fill:#FFFFFF;" d="M22.793,40.365c0,0.571-0.463,1.036-1.036,1.036c-0.572,0-1.036-0.464-1.036-1.036
		c0-0.573,0.463-1.037,1.036-1.037C22.329,39.327,22.793,39.792,22.793,40.365L22.793,40.365z M22.793,40.365"/>
	<path style="fill:#FFFFFF;" d="M29.009,40.365c0,0.571-0.463,1.036-1.036,1.036c-0.572,0-1.036-0.464-1.036-1.036
		c0-0.573,0.463-1.037,1.036-1.037C28.545,39.327,29.009,39.792,29.009,40.365L29.009,40.365z M29.009,40.365"/>
	<g>
		<defs>
			<rect id="SVGID_1_" width="50" height="49.707"/>
		</defs>
		<clipPath id="SVGID_2_">
			<use xlink:href="#SVGID_1_"  style="overflow:visible;"/>
		</clipPath>
		<path style="clip-path:url(#SVGID_2_);fill:#FFFFFF;" d="M34.188,31.039c1.717,0,3.108-1.391,3.108-3.108
			c0-1.716-1.391-3.108-3.108-3.108c-1.716,0-3.108,1.392-3.108,3.108C31.081,29.648,32.472,31.039,34.188,31.039L34.188,31.039z
			 M34.188,26.895c0.573,0,1.036,0.465,1.036,1.036c0,0.571-0.463,1.036-1.036,1.036c-0.571,0-1.036-0.464-1.036-1.036
			C33.153,27.36,33.617,26.895,34.188,26.895L34.188,26.895z M34.188,26.895"/>
		<path style="clip-path:url(#SVGID_2_);fill:#FFFFFF;" d="M45.586,4.124h-2.072V3.088c0-1.716-1.393-3.108-3.108-3.108
			c-1.718,0-3.109,1.391-3.109,3.108v1.036H12.432V3.088c0-1.716-1.391-3.108-3.108-3.108c-1.717,0-3.108,1.391-3.108,3.108v1.036
			H4.144C1.855,4.124,0,5.981,0,8.268v37.276c0,2.288,1.855,4.144,4.144,4.144h41.442c2.288,0,4.144-1.856,4.144-4.144V8.268
			C49.73,5.981,47.873,4.124,45.586,4.124L45.586,4.124z M39.368,6.196V3.088c0-0.572,0.463-1.036,1.037-1.036
			c0.571,0,1.035,0.463,1.035,1.036v4.144c0,0.573-0.463,1.036-1.035,1.036c-0.572,0-1.037-0.463-1.037-1.036V6.196z M8.288,6.196
			V3.088c0-0.572,0.463-1.036,1.036-1.036c0.572,0,1.036,0.463,1.036,1.036v4.144c0,0.573-0.463,1.036-1.036,1.036
			c-0.573,0-1.036-0.463-1.036-1.036V6.196z M47.658,45.544c0,1.144-0.927,2.072-2.072,2.072H4.144
			c-1.145,0-2.072-0.928-2.072-2.072V14.464h45.586V45.544z M47.658,12.392H2.072V8.268c0-1.144,0.927-2.072,2.072-2.072h2.072
			v1.036c0,1.717,1.391,3.108,3.108,3.108c1.716,0,3.109-1.391,3.109-3.108V6.196h24.865v1.036c0,1.717,1.39,3.108,3.108,3.108
			c1.715,0,3.108-1.391,3.108-3.108V6.196h2.072c1.145,0,2.072,0.928,2.072,2.072V12.392z M47.658,12.392"/>
	</g>
</g>
</svg>
