<?xml version="1.0" encoding="iso-8859-1"?>
<!-- Generator: Adobe Illustrator 21.1.0, SVG Export Plug-In . SVG Version: 6.00 Build 0)  -->
<svg version="1.1" id="&#x421;&#x43B;&#x43E;&#x439;_1"
	 xmlns="http://www.w3.org/2000/svg" xmlns:xlink="http://www.w3.org/1999/xlink" x="0px" y="0px" viewBox="0 0 25 24.999"
	 style="enable-background:new 0 0 25 24.999;" xml:space="preserve">
<g>
	<path style="fill:#FFFFFF;" d="M12.498,24.999C5.608,24.999,0,19.391,0,12.498C0,5.608,5.608,0,12.498,0
		C19.391,0,25,5.608,25,12.498C25,19.391,19.391,24.999,12.498,24.999L12.498,24.999z M12.498,1.431
		c-6.104,0-11.067,4.963-11.067,11.067c0,6.107,4.963,11.071,11.067,11.071c6.107,0,11.071-4.964,11.071-11.071
		C23.569,6.394,18.605,1.431,12.498,1.431L12.498,1.431z M12.498,1.431"/>
	<path style="fill:#FFFFFF;" d="M16.333,17.045c-0.184,0-0.365-0.066-0.507-0.208l-3.831-3.831
		c-0.134-0.134-0.208-0.315-0.208-0.507V4.39c0-0.393,0.318-0.715,0.715-0.715c0.392,0,0.711,0.319,0.711,0.715v7.813l3.623,3.623
		c0.28,0.28,0.28,0.731,0,1.01C16.7,16.978,16.514,17.045,16.333,17.045L16.333,17.045z M16.333,17.045"/>
</g>
</svg>
