<?xml version="1.0" encoding="iso-8859-1"?>
<!-- Generator: Adobe Illustrator 21.1.0, SVG Export Plug-In . SVG Version: 6.00 Build 0)  -->
<svg version="1.1" id="Layer_1" xmlns="http://www.w3.org/2000/svg" xmlns:xlink="http://www.w3.org/1999/xlink" x="0px" y="0px"
	 viewBox="197.624 384.5 18.753 25" style="enable-background:new 197.624 384.5 18.753 25;" xml:space="preserve">
<g>
	<path style="fill:#FFFFFF;" d="M216.317,408.62l-3.296-6.972c-0.066-0.139-0.18-0.246-0.316-0.304l-1.64-0.73l2.841-4.762
		c0.007-0.011,0.013-0.023,0.019-0.035c0.565-1.103,0.851-2.294,0.851-3.541c0-2.098-0.823-4.064-2.316-5.537
		c-1.493-1.473-3.472-2.268-5.571-2.239c-2.038,0.028-3.958,0.847-5.405,2.306c-1.447,1.458-2.25,3.384-2.262,5.423
		c-0.007,1.246,0.287,2.487,0.851,3.588c0.006,0.012,0.012,0.023,0.019,0.035l2.841,4.762l-1.649,0.734
		c-0.135,0.06-0.244,0.166-0.307,0.3l-3.296,6.972c-0.11,0.233-0.064,0.51,0.117,0.695c0.18,0.184,0.456,0.237,0.692,0.132
		l4.129-1.838l4.129,1.838c0.16,0.071,0.342,0.071,0.502,0l4.129-1.838l4.129,1.838c0.081,0.036,0.166,0.053,0.251,0.053
		c0.163,0,0.323-0.064,0.441-0.186C216.381,409.13,216.427,408.853,216.317,408.62z M200.457,392.237
		c0.021-3.537,2.914-6.454,6.45-6.503c1.766-0.024,3.431,0.645,4.687,1.884c1.257,1.239,1.949,2.894,1.949,4.659
		c0,1.043-0.238,2.039-0.707,2.961l-5.307,8.894c-0.162,0.271-0.424,0.301-0.53,0.301s-0.368-0.029-0.53-0.301l-5.307-8.894
		C200.689,394.304,200.451,393.294,200.457,392.237z M211.631,406.37c-0.16-0.071-0.342-0.071-0.502,0L207,408.208l-4.129-1.838
		c-0.16-0.071-0.342-0.071-0.502,0l-2.86,1.273l2.487-5.261l1.575-0.701l1.839,3.083c0.337,0.565,0.931,0.902,1.589,0.902
		s1.252-0.337,1.589-0.902l1.839-3.083l1.575,0.701l2.487,5.261L211.631,406.37z"/>
	<path style="fill:#FFFFFF;" d="M209.816,392.277c0-1.552-1.263-2.815-2.815-2.815c-1.552,0-2.815,1.263-2.815,2.815
		c0,1.552,1.263,2.815,2.815,2.815C208.553,395.092,209.816,393.829,209.816,392.277z M205.419,392.277
		c0-0.872,0.71-1.582,1.582-1.582c0.872,0,1.582,0.71,1.582,1.582c0,0.872-0.71,1.582-1.582,1.582
		C206.128,393.858,205.419,393.149,205.419,392.277z"/>
</g>
</svg>
