<?xml version="1.0" encoding="iso-8859-1"?>
<!-- Generator: Adobe Illustrator 21.1.0, SVG Export Plug-In . SVG Version: 6.00 Build 0)  -->
<svg version="1.1" id="Layer_1" xmlns="http://www.w3.org/2000/svg" xmlns:xlink="http://www.w3.org/1999/xlink" x="0px" y="0px"
	 viewBox="187.427 382.025 40 29.95" style="enable-background:new 187.427 382.025 40 29.95;" xml:space="preserve">
<g transform="translate(1 1)">
	<path style="fill:#BABABA;" d="M218.373,410.975c-4.393,0-7.987-3.594-7.987-7.987c0-4.393,3.594-7.987,7.987-7.987
		c4.393,0,8.053,3.594,8.053,7.987C226.427,407.381,222.766,410.975,218.373,410.975z M218.373,396.333
		c-3.661,0-6.656,2.995-6.656,6.656c0,3.661,2.995,6.656,6.656,6.656c3.661,0,6.656-2.995,6.656-6.656
		C225.029,399.328,222.034,396.333,218.373,396.333z"/>
	<path style="fill:#BABABA;" d="M218.373,403.654c-0.399,0-0.666-0.266-0.666-0.666v-3.993c0-0.399,0.266-0.666,0.666-0.666
		c0.399,0,0.666,0.266,0.666,0.666v3.993C219.039,403.388,218.773,403.654,218.373,403.654z"/>
	<path style="fill:#BABABA;" d="M222.367,403.654h-3.993c-0.399,0-0.666-0.266-0.666-0.666c0-0.399,0.266-0.666,0.666-0.666h3.993
		c0.399,0,0.666,0.266,0.666,0.666C223.032,403.388,222.766,403.654,222.367,403.654z"/>
	<path style="fill:#BABABA;" d="M208.39,398.329h-20.632c-0.399,0-0.666-0.266-0.666-0.666c0-0.399,0.266-0.666,0.666-0.666h20.632
		c0.399,0,0.666,0.266,0.666,0.666C209.056,398.063,208.789,398.329,208.39,398.329z"/>
	<path style="fill:#BABABA;" d="M205.728,395.667h-17.97c-0.399,0-0.666-0.266-0.666-0.666c0-0.399,0.266-0.666,0.666-0.666h17.97
		c0.399,0,0.666,0.266,0.666,0.666C206.393,395.401,206.127,395.667,205.728,395.667z"/>
	<path style="fill:#BABABA;" d="M226.36,393.005h-9.517c-0.599,0-1.131-0.532-1.131-1.131v-7.055c0-0.599,0.532-1.131,1.131-1.131
		h4.925l3.993,4.459c0.399,0.399,0.599,0.932,0.599,1.531V393.005z M217.042,391.674h7.987v-2.063c0-0.2-0.067-0.466-0.266-0.599
		l-3.661-3.993h-4.06V391.674z"/>
	<path style="fill:#BABABA;" d="M192.284,393.005h-5.857v-9.318h5.857c0.799,0,1.464,0.666,1.464,1.464v6.389
		C193.748,392.339,193.082,393.005,192.284,393.005z M187.758,391.674h4.526c0.067,0,0.133-0.067,0.133-0.133v-6.389
		c0-0.067-0.067-0.133-0.133-0.133h-4.526V391.674z"/>
	<path style="fill:#BABABA;" d="M212.117,393.005h-4.792c-0.865,0-1.597-0.732-1.597-1.597v-6.123c0-0.865,0.732-1.597,1.597-1.597
		h4.792c0.865,0,1.597,0.732,1.597,1.597v6.123C213.715,392.273,212.982,393.005,212.117,393.005z M207.325,385.018
		c-0.133,0-0.266,0.133-0.266,0.266v6.123c0,0.133,0.133,0.266,0.266,0.266h4.792c0.133,0,0.266-0.133,0.266-0.266v-6.123
		c0-0.133-0.133-0.266-0.266-0.266H207.325z"/>
	<path style="fill:#BABABA;" d="M202.134,393.005h-4.792c-0.865,0-1.597-0.732-1.597-1.597v-6.123c0-0.865,0.732-1.597,1.597-1.597
		h4.792c0.865,0,1.597,0.732,1.597,1.597v6.123C203.731,392.273,202.999,393.005,202.134,393.005z M197.342,385.018
		c-0.133,0-0.266,0.133-0.266,0.266v6.123c0,0.133,0.133,0.266,0.266,0.266h4.792c0.133,0,0.266-0.133,0.266-0.266v-6.123
		c0-0.133-0.133-0.266-0.266-0.266H197.342z"/>
	<path style="fill:#BABABA;" d="M194.413,408.978c-2.596,0-4.659-2.063-4.659-4.659c0-2.596,2.063-4.659,4.659-4.659
		s4.659,2.063,4.659,4.659C199.072,406.915,197.009,408.978,194.413,408.978z M194.413,400.992c-1.864,0-3.328,1.464-3.328,3.328
		c0,1.864,1.464,3.328,3.328,3.328c1.864,0,3.328-1.464,3.328-3.328C197.741,402.456,196.277,400.992,194.413,400.992z"/>
	<path style="fill:#BABABA;" d="M195.745,404.319c0,0.732-0.599,1.331-1.331,1.331c-0.732,0-1.331-0.599-1.331-1.331
		c0-0.732,0.599-1.331,1.331-1.331C195.145,402.988,195.745,403.587,195.745,404.319"/>
	<path style="fill:#BABABA;" d="M211.984,404.985h-14.243v-0.666c0-1.864-1.464-3.328-3.328-3.328c-1.864,0-3.328,1.464-3.328,3.328
		v0.666h-2.662c-1.131,0-1.997-0.932-1.997-1.997v-19.967c0-1.131,0.932-1.997,1.997-1.997h29.95c0.599,0,1.198,0.266,1.664,0.732
		l5.79,6.389c0.399,0.399,0.599,0.932,0.599,1.531v13.444l-1.398-0.133l0,0l0,0c0-3.661-2.995-6.656-6.656-6.656
		c-3.661,0-6.656,2.995-6.656,6.656c0,0.399,0.067,0.799,0.133,1.198L211.984,404.985z M199.006,403.654h11.381
		c0-0.2,0-0.466,0-0.666c0-4.393,3.594-7.987,7.987-7.987c2.795,0,5.258,1.398,6.656,3.594v-8.985c0-0.2-0.067-0.466-0.266-0.599
		l-5.724-6.389c-0.2-0.133-0.466-0.266-0.666-0.266h-29.95c-0.333,0-0.666,0.333-0.666,0.666v19.967
		c0,0.399,0.333,0.666,0.666,0.666h1.331c0.333-2.263,2.263-3.993,4.592-3.993S198.673,401.391,199.006,403.654z"/>
</g>
</svg>
