<?xml version="1.0" encoding="iso-8859-1"?>
<!-- Generator: Adobe Illustrator 21.1.0, SVG Export Plug-In . SVG Version: 6.00 Build 0)  -->
<svg version="1.1" id="Layer_1" xmlns="http://www.w3.org/2000/svg" xmlns:xlink="http://www.w3.org/1999/xlink" x="0px" y="0px"
	 viewBox="190.823 377 32.354 40" style="enable-background:new 190.823 377 32.354 40;" xml:space="preserve">
<g>
	<path style="fill:#BABABA;" d="M221.084,380.109h-10.272c-0.363-1.773-1.934-3.11-3.812-3.11c-1.878,0-3.45,1.337-3.812,3.11
		h-10.272c-1.154,0-2.093,0.939-2.093,2.093v22.232c0,1.154,0.939,2.093,2.093,2.093h9.758l-3.169,9.443
		c-0.137,0.409,0.083,0.852,0.492,0.989c0.082,0.028,0.166,0.041,0.249,0.041c0.326,0,0.631-0.206,0.741-0.533l3.336-9.94h5.355
		l3.336,9.94c0.11,0.327,0.414,0.533,0.741,0.533c0.082,0,0.166-0.013,0.249-0.041c0.409-0.137,0.629-0.58,0.492-0.989l-3.169-9.443
		h9.758c1.154,0,2.093-0.939,2.093-2.093v-22.232C223.176,381.048,222.238,380.109,221.084,380.109z M207,378.562
		c1.01,0,1.872,0.646,2.194,1.547h-4.388C205.127,379.208,205.989,378.562,207,378.562z M221.614,404.434
		c0,0.292-0.238,0.53-0.53,0.53h-2.041v-11.138c0-0.431-0.35-0.781-0.781-0.781c-0.431,0-0.781,0.35-0.781,0.781v11.138h-2.403
		v-8.748c0-0.431-0.35-0.781-0.781-0.781c-0.431,0-0.781,0.35-0.781,0.781v8.748h-2.194v-6.192c0-0.431-0.35-0.781-0.781-0.781
		c-0.431,0-0.781,0.35-0.781,0.781v6.192h-1.977v-8.178c0-0.431-0.35-0.781-0.781-0.781c-0.431,0-0.781,0.35-0.781,0.781v8.178
		h-2.269v-4.299c0-0.431-0.35-0.781-0.781-0.781s-0.781,0.35-0.781,0.781v4.299h-1.814v-3.983c0-0.431-0.35-0.781-0.781-0.781
		c-0.431,0-0.781,0.35-0.781,0.781v3.983h-2.092v-3.073c0-0.431-0.35-0.781-0.781-0.781s-0.781,0.35-0.781,0.781v3.073h-2.441
		c-0.292,0-0.53-0.238-0.53-0.53v-22.232c0-0.292,0.238-0.53,0.53-0.53h10.974h6.22h10.974c0.292,0,0.53,0.238,0.53,0.53V404.434
		L221.614,404.434z"/>
	<path style="fill:#BABABA;" d="M219.039,385.35c-0.001-0.011-0.003-0.021-0.005-0.032c-0.002-0.015-0.004-0.029-0.007-0.044
		c-0.002-0.012-0.006-0.024-0.009-0.036c-0.003-0.013-0.006-0.025-0.01-0.038c-0.004-0.012-0.008-0.024-0.012-0.035
		c-0.004-0.012-0.009-0.025-0.014-0.037c-0.005-0.011-0.01-0.021-0.015-0.032c-0.006-0.013-0.011-0.025-0.018-0.038
		c-0.005-0.01-0.011-0.019-0.017-0.029c-0.007-0.012-0.014-0.025-0.022-0.036c-0.007-0.01-0.015-0.02-0.022-0.03
		c-0.008-0.01-0.015-0.021-0.023-0.031c-0.014-0.017-0.029-0.033-0.044-0.049c-0.003-0.003-0.005-0.005-0.007-0.008
		c-0.003-0.003-0.005-0.005-0.008-0.007c-0.016-0.015-0.032-0.03-0.049-0.045c-0.01-0.008-0.02-0.015-0.029-0.022
		c-0.011-0.008-0.021-0.016-0.032-0.024c-0.011-0.008-0.023-0.014-0.034-0.021c-0.01-0.006-0.021-0.013-0.031-0.019
		c-0.011-0.006-0.023-0.011-0.035-0.017c-0.011-0.005-0.023-0.011-0.035-0.016c-0.011-0.005-0.022-0.008-0.033-0.012
		c-0.013-0.005-0.026-0.01-0.039-0.014c-0.011-0.003-0.022-0.006-0.033-0.008c-0.014-0.004-0.027-0.007-0.041-0.01
		c-0.012-0.002-0.025-0.004-0.037-0.006c-0.013-0.002-0.026-0.004-0.039-0.006c-0.021-0.002-0.042-0.003-0.063-0.003
		c-0.005,0-0.009-0.001-0.014-0.001h-3.375c-0.431,0-0.781,0.35-0.781,0.781s0.35,0.781,0.781,0.781h1.489l-6.487,6.487
		l-1.703-1.703c-0.146-0.146-0.345-0.229-0.552-0.229s-0.406,0.082-0.552,0.229l-5.638,5.638l-1.683-1.683
		c-0.305-0.305-0.8-0.305-1.105,0l-2.851,2.851c-0.305,0.305-0.305,0.8,0,1.105c0.153,0.152,0.352,0.229,0.552,0.229
		s0.4-0.076,0.552-0.229l2.298-2.298l1.683,1.683c0.305,0.305,0.8,0.305,1.105,0l5.638-5.638l1.703,1.703
		c0.146,0.146,0.345,0.229,0.552,0.229c0.207,0,0.406-0.082,0.552-0.229l7.039-7.039v1.489c0,0.431,0.35,0.781,0.781,0.781
		s0.781-0.35,0.781-0.781v-3.374C219.043,385.402,219.042,385.376,219.039,385.35z"/>
	<circle style="fill:#BABABA;" cx="196.357" cy="385.427" r="0.781"/>
	<circle style="fill:#BABABA;" cx="196.357" cy="388.612" r="0.781"/>
	<circle style="fill:#BABABA;" cx="196.357" cy="391.797" r="0.781"/>
</g>
</svg>
