<?xml version="1.0" encoding="iso-8859-1"?>
<!-- Generator: Adobe Illustrator 21.1.0, SVG Export Plug-In . SVG Version: 6.00 Build 0)  -->
<svg version="1.1" id="&#x421;&#x43B;&#x43E;&#x439;_1"
	 xmlns="http://www.w3.org/2000/svg" xmlns:xlink="http://www.w3.org/1999/xlink" x="0px" y="0px" viewBox="0 0 40 40"
	 style="enable-background:new 0 0 40 40;" xml:space="preserve">
<g>
	<path style="fill:#BABABA;" d="M16.473,23.038l-2.329,0.605c-0.004,0.001-0.008,0.002-0.011,0.003
		c-1.482,0.415-2.258,1.868-2.258,3.089v0.675c0,0.739,0.647,1.34,1.441,1.34l6.673-0.001c0.005,0,0.01,0.001,0.015,0.001
		c0.005,0,0.009,0,0.014-0.001l6.673,0c0.795,0,1.442-0.601,1.442-1.34v-0.675c0-1.221-0.775-2.674-2.258-3.089
		c-0.004-0.001-0.008-0.002-0.011-0.003l-2.329-0.605c-0.198-0.058-0.353-0.16-0.387-0.214l-0.001-1.267
		c0.002-0.002,0.004-0.004,0.006-0.007c0.798-0.954,1.238-2.191,1.238-3.482v-0.943c0.796-2.595,0.235-4.845-0.053-5.5
		c-0.001-0.002-0.002-0.004-0.003-0.006c-0.005-0.012-0.012-0.024-0.018-0.035c-0.003-0.007-0.007-0.014-0.011-0.021
		c-0.006-0.01-0.012-0.02-0.019-0.03c-0.005-0.008-0.01-0.016-0.016-0.023c-0.006-0.008-0.012-0.015-0.018-0.022
		c-0.007-0.009-0.014-0.018-0.022-0.027c-0.005-0.005-0.01-0.01-0.015-0.016c-0.009-0.01-0.018-0.019-0.027-0.028
		c-0.005-0.004-0.009-0.008-0.014-0.012c-0.011-0.009-0.021-0.018-0.032-0.027c-0.005-0.004-0.011-0.007-0.016-0.011
		c-0.011-0.008-0.022-0.016-0.033-0.023c-0.007-0.004-0.013-0.008-0.02-0.011c-0.011-0.006-0.021-0.012-0.032-0.017
		c-0.008-0.004-0.017-0.008-0.026-0.012c-0.009-0.004-0.018-0.008-0.028-0.012c-0.01-0.004-0.02-0.007-0.03-0.01
		c-0.009-0.003-0.018-0.006-0.027-0.008c-0.01-0.003-0.02-0.005-0.031-0.007c-0.009-0.002-0.019-0.005-0.029-0.006
		c-0.009-0.002-0.018-0.002-0.027-0.003c-0.011-0.002-0.023-0.003-0.034-0.004c-0.008,0-0.015,0-0.023-0.001
		c-0.013,0-0.027-0.001-0.04,0c-0.006,0-0.013,0.001-0.02,0.001c-0.015,0.001-0.029,0.002-0.043,0.004c-0.002,0-0.004,0-0.006,0
		c-0.602,0.086-1.337-0.09-2.115-0.276c-1.376-0.329-2.928-0.7-4.287,0.28c-1.315,0.113-2.247,1.218-2.247,2.711
		c0,1.086,0.504,3.025,0.619,3.455v0.522c0,1.348,0.466,2.593,1.214,3.522l-0.002,1.353C16.827,22.877,16.671,22.98,16.473,23.038
		L16.473,23.038z M16.898,17.735c0-0.621,0.263-1.53,0.46-2.104c2.832,0.065,4.968,0.745,5.783,1.046v1.39
		c0,1.102-0.414,2.111-1.061,2.81c-0.002,0.002-0.003,0.003-0.004,0.005c-0.556,0.599-1.282,0.968-2.065,0.968
		c-1.658,0-3.113-1.823-3.113-3.901V17.735z M18.111,22.565c0.578,0.341,1.224,0.534,1.9,0.534c0.664,0,1.305-0.172,1.887-0.497
		l0,0.229c0,0.31,0.111,0.57,0.285,0.782l-2.176,1.284l-2.167-1.3c0.165-0.209,0.271-0.463,0.271-0.764L18.111,22.565z M13.316,27.5
		c-0.127,0-0.192-0.073-0.192-0.09v-0.675c0-0.748,0.46-1.635,1.34-1.884l2.118-0.55l2.796,1.678v1.521L13.316,27.5z M26.883,26.733
		v0.675c0,0.017-0.064,0.09-0.191,0.09l-6.063,0v-1.517l2.834-1.673l2.08,0.54C26.423,25.099,26.883,25.985,26.883,26.733
		L26.883,26.733z M17.499,12.5c0.004,0,0.008,0,0.012-0.001c0.016,0,0.032-0.001,0.049-0.002c0.008-0.001,0.015-0.002,0.023-0.003
		c0.013-0.002,0.025-0.003,0.038-0.006c0.009-0.002,0.018-0.004,0.027-0.006c0.011-0.003,0.022-0.005,0.032-0.008
		c0.01-0.003,0.019-0.007,0.028-0.01c0.01-0.003,0.019-0.007,0.029-0.011c0.01-0.004,0.019-0.009,0.029-0.013
		c0.009-0.004,0.017-0.008,0.026-0.013c0.01-0.005,0.021-0.012,0.031-0.018c0.007-0.004,0.014-0.009,0.022-0.013
		c0.013-0.008,0.024-0.018,0.036-0.027c0.004-0.003,0.008-0.006,0.013-0.009c0.92-0.751,2.113-0.465,3.377-0.163
		c0.68,0.163,1.378,0.33,2.057,0.332c0.163,0.602,0.323,1.669,0.151,2.94c-1.017-0.37-3.404-1.093-6.557-1.093
		c-0.001,0-0.003,0-0.005,0c-0.014,0-0.027,0.001-0.042,0.002c-0.007,0.001-0.015,0.001-0.022,0.001
		c-0.011,0.002-0.022,0.003-0.033,0.005c-0.01,0.002-0.02,0.003-0.029,0.005c-0.007,0.002-0.014,0.004-0.021,0.006
		c-0.013,0.003-0.026,0.007-0.039,0.01c-0.003,0.001-0.006,0.002-0.009,0.003c-0.016,0.005-0.032,0.011-0.048,0.018
		c-0.001,0-0.002,0.001-0.002,0.001c-0.018,0.008-0.035,0.016-0.051,0.025c-0.003,0.002-0.006,0.004-0.01,0.006
		c-0.014,0.008-0.028,0.016-0.041,0.025c-0.009,0.006-0.018,0.013-0.026,0.019c-0.007,0.005-0.015,0.01-0.021,0.016
		c-0.011,0.01-0.022,0.02-0.033,0.03c-0.004,0.004-0.007,0.007-0.011,0.01c-0.01,0.011-0.02,0.022-0.03,0.033
		c-0.003,0.004-0.008,0.008-0.011,0.012c-0.008,0.01-0.014,0.019-0.022,0.029c-0.005,0.007-0.01,0.014-0.015,0.021
		c-0.005,0.007-0.01,0.015-0.014,0.023c-0.006,0.01-0.012,0.02-0.018,0.031c-0.003,0.006-0.006,0.012-0.009,0.018
		c-0.004,0.008-0.008,0.017-0.012,0.026c-0.043-0.295-0.07-0.566-0.07-0.781C16.279,13.292,16.598,12.5,17.499,12.5L17.499,12.5z
		 M17.499,12.5"/>
	<path style="fill:#BABABA;" d="M39.895,39.722c0.006-0.009,0.011-0.018,0.016-0.027c0.005-0.008,0.01-0.017,0.015-0.025
		c0.005-0.01,0.009-0.019,0.014-0.029c0.004-0.009,0.009-0.018,0.013-0.027c0.004-0.009,0.007-0.019,0.01-0.028
		c0.003-0.01,0.007-0.019,0.01-0.029c0.003-0.01,0.005-0.019,0.007-0.029c0.003-0.01,0.005-0.02,0.008-0.03
		c0.002-0.011,0.003-0.023,0.005-0.034c0.002-0.009,0.003-0.017,0.004-0.026C39.999,39.416,40,39.395,40,39.375v-6.25
		c0-0.345-0.28-0.625-0.625-0.625c-0.345,0-0.625,0.28-0.625,0.625v4.741l-6.385-6.385c2.912-3.131,4.51-7.183,4.51-11.481
		c0-4.298-1.598-8.351-4.51-11.481l6.385-6.385v4.741c0,0.345,0.28,0.625,0.625,0.625C39.72,7.5,40,7.22,40,6.875v-6.25
		c0-0.021-0.001-0.042-0.004-0.062c-0.001-0.009-0.002-0.018-0.004-0.026c-0.001-0.011-0.003-0.022-0.005-0.034
		c-0.002-0.01-0.005-0.02-0.008-0.03c-0.002-0.01-0.004-0.019-0.007-0.029c-0.003-0.01-0.007-0.019-0.01-0.029
		c-0.003-0.009-0.007-0.019-0.01-0.029c-0.004-0.009-0.008-0.018-0.013-0.027c-0.004-0.01-0.009-0.019-0.014-0.029
		c-0.005-0.009-0.01-0.017-0.015-0.026c-0.006-0.009-0.011-0.018-0.016-0.027c-0.006-0.01-0.014-0.019-0.021-0.028
		c-0.005-0.007-0.01-0.014-0.016-0.021c-0.026-0.032-0.055-0.061-0.087-0.087c-0.007-0.006-0.014-0.011-0.021-0.016
		c-0.009-0.007-0.018-0.014-0.027-0.02c-0.009-0.006-0.018-0.011-0.027-0.016c-0.008-0.005-0.017-0.01-0.026-0.015
		C39.66,0.069,39.65,0.064,39.641,0.06c-0.009-0.004-0.018-0.008-0.027-0.012c-0.009-0.004-0.019-0.007-0.028-0.011
		c-0.01-0.003-0.019-0.007-0.029-0.01c-0.01-0.003-0.02-0.005-0.029-0.007c-0.01-0.003-0.02-0.005-0.031-0.007
		c-0.011-0.002-0.022-0.004-0.034-0.005c-0.009-0.001-0.018-0.003-0.026-0.004C39.416,0.001,39.395,0,39.375,0h-6.25
		C32.78,0,32.5,0.28,32.5,0.625c0,0.345,0.28,0.625,0.625,0.625h4.741l-6.385,6.384C28.351,4.722,24.298,3.125,20,3.125
		c-4.299,0-8.351,1.597-11.482,4.509L2.134,1.25h4.741C7.22,1.25,7.5,0.97,7.5,0.625C7.5,0.28,7.22,0,6.875,0h-6.25
		C0.605,0,0.584,0.001,0.563,0.003C0.554,0.004,0.546,0.006,0.537,0.007C0.525,0.008,0.514,0.01,0.503,0.012
		c-0.01,0.002-0.02,0.005-0.03,0.007c-0.01,0.003-0.019,0.005-0.029,0.008c-0.01,0.003-0.02,0.007-0.029,0.01
		C0.405,0.04,0.395,0.044,0.386,0.048C0.376,0.051,0.368,0.056,0.359,0.06C0.349,0.064,0.34,0.069,0.33,0.074
		c-0.009,0.005-0.017,0.01-0.026,0.015C0.296,0.094,0.287,0.1,0.278,0.105c-0.01,0.007-0.019,0.013-0.028,0.02
		c-0.007,0.005-0.014,0.01-0.021,0.016C0.197,0.168,0.168,0.197,0.142,0.229C0.136,0.236,0.131,0.243,0.125,0.25
		c-0.007,0.009-0.014,0.018-0.02,0.028C0.1,0.287,0.094,0.296,0.089,0.305C0.084,0.313,0.079,0.322,0.074,0.33
		C0.069,0.34,0.065,0.349,0.06,0.359C0.056,0.368,0.051,0.376,0.048,0.386c-0.004,0.01-0.007,0.019-0.01,0.028
		c-0.004,0.01-0.007,0.019-0.01,0.03c-0.003,0.01-0.005,0.019-0.008,0.029c-0.002,0.01-0.005,0.02-0.007,0.03
		C0.01,0.514,0.008,0.526,0.007,0.537C0.006,0.546,0.004,0.554,0.003,0.563C0.001,0.584,0,0.605,0,0.625v6.25
		C0,7.22,0.28,7.5,0.625,7.5C0.97,7.5,1.25,7.22,1.25,6.875V2.134l6.384,6.384C4.722,11.649,3.125,15.702,3.125,20
		c0,4.298,1.597,8.351,4.509,11.481L1.25,37.866v-4.741c0-0.345-0.28-0.625-0.625-0.625C0.28,32.5,0,32.78,0,33.125v6.25
		c0,0.021,0.001,0.041,0.003,0.062c0.001,0.009,0.003,0.018,0.004,0.026c0.002,0.011,0.003,0.023,0.005,0.034
		c0.002,0.01,0.005,0.02,0.007,0.03c0.003,0.01,0.005,0.019,0.008,0.029c0.003,0.01,0.007,0.02,0.01,0.03
		c0.003,0.009,0.006,0.019,0.01,0.028c0.004,0.009,0.008,0.018,0.013,0.027c0.005,0.009,0.009,0.019,0.014,0.028
		c0.005,0.009,0.01,0.017,0.015,0.025c0.005,0.009,0.011,0.018,0.016,0.027c0.007,0.01,0.014,0.018,0.021,0.028
		c0.005,0.007,0.01,0.014,0.016,0.021c0.026,0.032,0.055,0.061,0.087,0.087c0.007,0.006,0.014,0.011,0.022,0.016
		c0.009,0.007,0.018,0.014,0.028,0.02c0.009,0.006,0.018,0.011,0.027,0.016c0.009,0.005,0.017,0.01,0.026,0.015
		c0.009,0.005,0.019,0.009,0.028,0.014c0.009,0.004,0.018,0.009,0.027,0.013c0.009,0.004,0.018,0.007,0.027,0.01
		c0.01,0.003,0.02,0.007,0.03,0.01c0.01,0.003,0.019,0.005,0.028,0.007c0.01,0.003,0.021,0.006,0.031,0.008
		c0.011,0.002,0.022,0.003,0.033,0.005c0.009,0.002,0.018,0.003,0.028,0.004C0.584,39.999,0.605,40,0.625,40h6.25
		C7.22,40,7.5,39.72,7.5,39.375S7.22,38.75,6.875,38.75H2.134l6.384-6.385c3.131,2.912,7.183,4.51,11.482,4.51
		c4.298,0,8.351-1.598,11.481-4.51l6.385,6.385h-4.741c-0.345,0-0.625,0.28-0.625,0.625S32.78,40,33.125,40h6.25
		c0.021,0,0.041-0.001,0.062-0.004c0.009-0.001,0.018-0.003,0.027-0.004c0.011-0.001,0.022-0.003,0.033-0.005
		c0.01-0.002,0.021-0.005,0.031-0.008c0.009-0.002,0.019-0.004,0.028-0.007c0.01-0.003,0.02-0.007,0.03-0.01
		c0.009-0.003,0.018-0.007,0.027-0.01c0.009-0.004,0.018-0.008,0.028-0.013c0.009-0.005,0.019-0.009,0.028-0.014
		c0.008-0.005,0.017-0.01,0.025-0.015c0.009-0.005,0.018-0.011,0.027-0.016c0.01-0.006,0.018-0.013,0.027-0.021
		c0.007-0.005,0.015-0.01,0.022-0.016c0.032-0.026,0.061-0.056,0.087-0.087c0.005-0.007,0.01-0.015,0.016-0.022
		C39.881,39.74,39.888,39.731,39.895,39.722L39.895,39.722z M20,35.625c-8.616,0-15.625-7.01-15.625-15.625
		c0-8.616,7.009-15.625,15.625-15.625c8.615,0,15.625,7.009,15.625,15.625C35.625,28.615,28.615,35.625,20,35.625L20,35.625z
		 M20,35.625"/>
	<path style="fill:#BABABA;" d="M29.6,11.05c0.123,0.132,0.29,0.198,0.457,0.198c0.153,0,0.306-0.055,0.426-0.168
		c0.252-0.235,0.266-0.631,0.031-0.883c-0.229-0.245-0.468-0.485-0.713-0.713c-0.253-0.235-0.648-0.222-0.883,0.031
		c-0.235,0.252-0.222,0.648,0.031,0.883C29.172,10.607,29.392,10.826,29.6,11.05L29.6,11.05z M29.6,11.05"/>
	<path style="fill:#BABABA;" d="M6.875,20c0-7.237,5.888-13.125,13.125-13.125c2.554,0,5.029,0.734,7.159,2.123
		c0.289,0.188,0.676,0.107,0.865-0.182c0.189-0.289,0.107-0.676-0.182-0.865C25.508,6.429,22.797,5.625,20,5.625
		C12.073,5.625,5.625,12.073,5.625,20c0,3.334,1.167,6.583,3.286,9.149c0.124,0.15,0.302,0.227,0.482,0.227
		c0.14,0,0.281-0.047,0.398-0.143c0.266-0.22,0.304-0.613,0.084-0.88C7.941,26.01,6.875,23.044,6.875,20L6.875,20z M6.875,20"/>
	<path style="fill:#BABABA;" d="M32.049,12.158c-0.189-0.289-0.576-0.37-0.865-0.182c-0.289,0.188-0.37,0.576-0.182,0.865
		c1.389,2.13,2.122,4.605,2.122,7.159c0,7.237-5.888,13.125-13.125,13.125c-3.044,0-6.01-1.065-8.352-3
		c-0.266-0.22-0.66-0.182-0.88,0.084c-0.22,0.266-0.182,0.66,0.084,0.88c2.566,2.119,5.815,3.286,9.148,3.286
		c7.926,0,14.375-6.449,14.375-14.375C34.375,17.203,33.571,14.491,32.049,12.158L32.049,12.158z M32.049,12.158"/>
</g>
</svg>
