<?xml version="1.0" encoding="iso-8859-1"?>
<!-- Generator: Adobe Illustrator 21.1.0, SVG Export Plug-In . SVG Version: 6.00 Build 0)  -->
<svg version="1.1" id="&#x421;&#x43B;&#x43E;&#x439;_1"
	 xmlns="http://www.w3.org/2000/svg" xmlns:xlink="http://www.w3.org/1999/xlink" x="0px" y="0px" viewBox="0 0 40 40.094"
	 style="enable-background:new 0 0 40 40.094;" xml:space="preserve">
<g>
	<path style="fill:#BABABA;" d="M22.721,18.986c0.118,0.23,0.353,0.364,0.595,0.364c0.101,0,0.205-0.023,0.302-0.073
		c0.039-0.02,3.96-2.011,5.894-2.622c0.351-0.111,0.545-0.486,0.434-0.836c-0.111-0.351-0.482-0.546-0.836-0.435
		c-2.037,0.644-5.931,2.622-6.096,2.706C22.685,18.256,22.554,18.657,22.721,18.986L22.721,18.986z M22.721,18.986"/>
	<g>
		<defs>
			<rect id="SVGID_1_" width="40" height="40.094"/>
		</defs>
		<clipPath id="SVGID_2_">
			<use xlink:href="#SVGID_1_"  style="overflow:visible;"/>
		</clipPath>
		<path style="clip-path:url(#SVGID_2_);fill:#BABABA;" d="M23.316,11.356c0.101,0,0.205-0.024,0.302-0.073
			c0.039-0.02,3.96-2.012,5.894-2.622c0.351-0.111,0.545-0.486,0.434-0.836c-0.111-0.35-0.482-0.545-0.836-0.435
			c-2.037,0.644-5.931,2.623-6.096,2.707c-0.328,0.167-0.459,0.568-0.292,0.896C22.839,11.222,23.073,11.356,23.316,11.356
			L23.316,11.356z M23.316,11.356"/>
		<path style="clip-path:url(#SVGID_2_);fill:#BABABA;" d="M39.303,10.023c-0.368,0-0.666,0.298-0.666,0.666v25.98
			c0,1.102-0.896,1.998-1.998,1.998H20.651v-1.533c0.971-0.34,3.501-1.132,5.995-1.132c5.803,0,9.743,1.285,9.782,1.298
			c0.201,0.066,0.424,0.033,0.6-0.092c0.174-0.125,0.276-0.326,0.276-0.54V7.359c0-0.313-0.217-0.583-0.521-0.65
			c0,0-0.522-0.117-1.415-0.281c-0.361-0.067-0.709,0.173-0.776,0.534c-0.066,0.363,0.173,0.709,0.534,0.776
			c0.34,0.063,0.625,0.118,0.845,0.162v27.884c-1.509-0.396-4.862-1.113-9.326-1.113c-2.902,0-5.753,0.953-6.635,1.277
			c-0.784-0.347-3.154-1.277-6.021-1.277c-4.589,0-8.368,0.757-9.992,1.141V7.874c1.33-0.327,5.259-1.182,9.992-1.182
			c2.429,0,4.512,0.756,5.329,1.098v26.214c0,0.24,0.129,0.462,0.338,0.579c0.208,0.119,0.466,0.116,0.672-0.009
			c0.066-0.039,6.666-3.981,12.524-5.934c0.273-0.091,0.456-0.345,0.456-0.632V0.697c0-0.218-0.107-0.423-0.287-0.547
			c-0.178-0.125-0.408-0.153-0.614-0.077c-5.33,1.999-10.723,5.355-10.777,5.389c-0.312,0.195-0.407,0.606-0.212,0.918
			c0.194,0.312,0.605,0.407,0.918,0.212c0.049-0.032,4.741-2.951,9.639-4.92v25.861c-4.547,1.58-9.295,4.16-11.325,5.315V7.359
			c0-0.253-0.143-0.483-0.368-0.596c-0.115-0.057-2.845-1.402-6.293-1.402C7.97,5.36,3.342,6.663,3.147,6.718
			C2.862,6.8,2.664,7.062,2.664,7.359v29.31c0,0.208,0.099,0.406,0.265,0.532c0.117,0.089,0.258,0.135,0.402,0.135
			c0.061,0,0.123-0.009,0.183-0.026c0.046-0.013,4.652-1.306,10.476-1.306c2.435,0,4.517,0.758,5.329,1.099v1.566H3.331
			c-1.102,0-1.999-0.896-1.999-1.998V10.69c0-0.368-0.298-0.666-0.666-0.666C0.298,10.023,0,10.322,0,10.69v25.98
			C0,38.506,1.494,40,3.331,40h33.308c1.836,0,3.331-1.494,3.331-3.331V10.69C39.969,10.322,39.671,10.023,39.303,10.023
			L39.303,10.023z M39.303,10.023"/>
	</g>
	<path style="fill:#BABABA;" d="M22.721,14.989c0.118,0.231,0.353,0.364,0.595,0.364c0.101,0,0.205-0.023,0.302-0.073
		c0.039-0.02,3.96-2.012,5.894-2.623c0.351-0.111,0.545-0.486,0.434-0.836c-0.111-0.35-0.482-0.545-0.836-0.435
		c-2.037,0.644-5.931,2.622-6.096,2.706C22.685,14.259,22.554,14.661,22.721,14.989L22.721,14.989z M22.721,14.989"/>
	<path style="fill:#BABABA;" d="M22.721,22.982c0.118,0.231,0.353,0.364,0.595,0.364c0.101,0,0.205-0.024,0.302-0.073
		c0.039-0.02,3.96-2.012,5.894-2.622c0.351-0.111,0.545-0.486,0.434-0.836c-0.111-0.351-0.482-0.546-0.836-0.435
		c-2.037,0.644-5.931,2.623-6.096,2.707C22.685,22.253,22.554,22.654,22.721,22.982L22.721,22.982z M22.721,22.982"/>
	<path style="fill:#BABABA;" d="M16.14,12.393c-4.114-0.965-8.788,0.265-8.985,0.317c-0.355,0.095-0.566,0.46-0.471,0.816
		c0.08,0.298,0.349,0.494,0.643,0.494c0.058,0,0.116-0.007,0.173-0.022c0.045-0.013,4.545-1.197,8.335-0.307
		c0.356,0.083,0.717-0.139,0.801-0.497C16.721,12.836,16.498,12.478,16.14,12.393L16.14,12.393z M16.14,12.393"/>
	<path style="fill:#BABABA;" d="M16.14,16.39c-4.114-0.964-8.788,0.265-8.985,0.317c-0.355,0.095-0.566,0.46-0.471,0.816
		c0.08,0.298,0.349,0.494,0.643,0.494c0.058,0,0.116-0.007,0.173-0.023c0.045-0.013,4.545-1.196,8.335-0.307
		c0.356,0.083,0.717-0.139,0.801-0.497C16.721,16.833,16.498,16.474,16.14,16.39L16.14,16.39z M16.14,16.39"/>
	<path style="fill:#BABABA;" d="M22.721,26.979c0.118,0.231,0.353,0.364,0.595,0.364c0.101,0,0.205-0.023,0.302-0.072
		c0.039-0.02,3.96-2.012,5.894-2.623c0.351-0.111,0.545-0.486,0.434-0.836c-0.111-0.35-0.482-0.545-0.836-0.435
		c-2.037,0.644-5.931,2.623-6.096,2.707C22.685,26.25,22.554,26.651,22.721,26.979L22.721,26.979z M22.721,26.979"/>
	<path style="fill:#BABABA;" d="M16.14,20.387c-4.114-0.965-8.788,0.264-8.985,0.317C6.8,20.8,6.589,21.165,6.684,21.52
		c0.08,0.298,0.349,0.494,0.643,0.494c0.058,0,0.116-0.008,0.173-0.023c0.045-0.013,4.545-1.197,8.335-0.307
		c0.356,0.084,0.717-0.138,0.801-0.497C16.721,20.829,16.498,20.471,16.14,20.387L16.14,20.387z M16.14,20.387"/>
	<path style="fill:#BABABA;" d="M16.14,28.381c-4.114-0.965-8.788,0.265-8.985,0.317c-0.355,0.095-0.566,0.46-0.471,0.816
		c0.08,0.298,0.349,0.494,0.643,0.494c0.058,0,0.116-0.008,0.173-0.023c0.045-0.013,4.545-1.197,8.335-0.307
		c0.356,0.083,0.717-0.139,0.801-0.497C16.721,28.823,16.498,28.465,16.14,28.381L16.14,28.381z M16.14,28.381"/>
	<path style="fill:#BABABA;" d="M16.14,24.384c-4.114-0.965-8.788,0.264-8.985,0.317c-0.355,0.095-0.566,0.46-0.471,0.816
		c0.08,0.298,0.349,0.494,0.643,0.494c0.058,0,0.116-0.008,0.173-0.023c0.045-0.013,4.545-1.197,8.335-0.307
		c0.356,0.084,0.717-0.138,0.801-0.497C16.721,24.826,16.498,24.468,16.14,24.384L16.14,24.384z M16.14,24.384"/>
</g>
</svg>
