<?xml version="1.0" encoding="iso-8859-1"?>
<!-- Generator: Adobe Illustrator 21.1.0, SVG Export Plug-In . SVG Version: 6.00 Build 0)  -->
<svg version="1.1" id="&#x421;&#x43B;&#x43E;&#x439;_1"
	 xmlns="http://www.w3.org/2000/svg" xmlns:xlink="http://www.w3.org/1999/xlink" x="0px" y="0px" viewBox="0 0 40 35.186"
	 style="enable-background:new 0 0 40 35.186;" xml:space="preserve">
<g>
	<g>
		<defs>
			<rect id="SVGID_1_" width="40" height="35.186"/>
		</defs>
		<clipPath id="SVGID_2_">
			<use xlink:href="#SVGID_1_"  style="overflow:visible;"/>
		</clipPath>
		<path style="clip-path:url(#SVGID_2_);fill:#BABABA;" d="M39.372,2.625h-1.867V0.704c0-0.353-0.287-0.64-0.64-0.64H22.459
			c-0.924,0-1.796,0.353-2.453,0.971c-0.657-0.618-1.529-0.971-2.452-0.971H3.147c-0.354,0-0.64,0.287-0.64,0.64v1.921H0.64
			C0.287,2.625,0,2.912,0,3.265v22.479c0,1.765,1.436,3.201,3.201,3.201h12.324v4.857H12.75c-0.354,0-0.64,0.287-0.64,0.64
			c0,0.354,0.286,0.64,0.64,0.64h14.511c0.353,0,0.64-0.287,0.64-0.64c0-0.353-0.287-0.64-0.64-0.64h-2.774v-2.937
			c0-0.354-0.287-0.64-0.64-0.64c-0.354,0-0.64,0.287-0.64,0.64v2.937h-6.402v-4.857h20.006c1.765,0,3.201-1.436,3.201-3.201V3.265
			C40.012,2.912,39.725,2.625,39.372,2.625L39.372,2.625z M38.732,3.905v18.194h-1.227V3.905H38.732z M3.787,1.344h13.766
			c0.773,0,1.49,0.385,1.919,1.031c0.118,0.178,0.319,0.286,0.533,0.286c0.214,0,0.414-0.108,0.533-0.286
			c0.429-0.646,1.147-1.031,1.919-1.031h13.766v20.755H3.787V1.344z M2.507,3.905v18.194H1.28V3.905H2.507z M36.811,27.665H3.201
			c-1.059,0-1.921-0.861-1.921-1.921v-2.365h37.451v2.365C38.732,26.803,37.87,27.665,36.811,27.665L36.811,27.665z M36.811,27.665"
			/>
	</g>
	<path style="fill:#BABABA;" d="M20.006,20.819c0.353,0,0.64-0.287,0.64-0.64V4.582c0-0.354-0.287-0.64-0.64-0.64
		c-0.354,0-0.64,0.286-0.64,0.64v15.597C19.366,20.532,19.653,20.819,20.006,20.819L20.006,20.819z M20.006,20.819"/>
	<path style="fill:#BABABA;" d="M6.615,4.759h9.814c0.353,0,0.64-0.287,0.64-0.64c0-0.353-0.287-0.64-0.64-0.64H6.615
		c-0.353,0-0.64,0.287-0.64,0.64C5.975,4.472,6.262,4.759,6.615,4.759L6.615,4.759z M6.615,4.759"/>
	<path style="fill:#BABABA;" d="M6.615,7.8h9.814c0.353,0,0.64-0.287,0.64-0.64c0-0.354-0.287-0.64-0.64-0.64H6.615
		c-0.353,0-0.64,0.286-0.64,0.64C5.975,7.513,6.262,7.8,6.615,7.8L6.615,7.8z M6.615,7.8"/>
	<path style="fill:#BABABA;" d="M6.615,10.841h4.907c0.354,0,0.64-0.286,0.64-0.64c0-0.354-0.286-0.64-0.64-0.64H6.615
		c-0.353,0-0.64,0.287-0.64,0.64C5.975,10.555,6.262,10.841,6.615,10.841L6.615,10.841z M6.615,10.841"/>
	<path style="fill:#BABABA;" d="M6.615,13.883h9.814c0.353,0,0.64-0.287,0.64-0.64c0-0.354-0.287-0.64-0.64-0.64H6.615
		c-0.353,0-0.64,0.287-0.64,0.64C5.975,13.596,6.262,13.883,6.615,13.883L6.615,13.883z M6.615,13.883"/>
	<path style="fill:#BABABA;" d="M6.615,16.924h9.814c0.353,0,0.64-0.286,0.64-0.64c0-0.354-0.287-0.64-0.64-0.64H6.615
		c-0.353,0-0.64,0.287-0.64,0.64C5.975,16.637,6.262,16.924,6.615,16.924L6.615,16.924z M6.615,16.924"/>
	<path style="fill:#BABABA;" d="M6.615,19.965h4.907c0.354,0,0.64-0.287,0.64-0.64c0-0.353-0.286-0.64-0.64-0.64H6.615
		c-0.353,0-0.64,0.287-0.64,0.64C5.975,19.678,6.262,19.965,6.615,19.965L6.615,19.965z M6.615,19.965"/>
	<path style="fill:#BABABA;" d="M23.583,4.759h9.813c0.353,0,0.64-0.287,0.64-0.64c0-0.353-0.287-0.64-0.64-0.64h-9.813
		c-0.353,0-0.64,0.287-0.64,0.64C22.943,4.472,23.23,4.759,23.583,4.759L23.583,4.759z M23.583,4.759"/>
	<path style="fill:#BABABA;" d="M23.583,7.8h9.813c0.353,0,0.64-0.287,0.64-0.64c0-0.354-0.287-0.64-0.64-0.64h-9.813
		c-0.353,0-0.64,0.286-0.64,0.64C22.943,7.513,23.23,7.8,23.583,7.8L23.583,7.8z M23.583,7.8"/>
	<path style="fill:#BABABA;" d="M23.583,10.841h4.907c0.354,0,0.64-0.286,0.64-0.64c0-0.354-0.286-0.64-0.64-0.64h-4.907
		c-0.353,0-0.64,0.287-0.64,0.64C22.943,10.555,23.23,10.841,23.583,10.841L23.583,10.841z M23.583,10.841"/>
	<path style="fill:#BABABA;" d="M23.583,13.883h9.813c0.353,0,0.64-0.287,0.64-0.64c0-0.354-0.287-0.64-0.64-0.64h-9.813
		c-0.353,0-0.64,0.287-0.64,0.64C22.943,13.596,23.23,13.883,23.583,13.883L23.583,13.883z M23.583,13.883"/>
	<path style="fill:#BABABA;" d="M23.583,16.924h9.813c0.353,0,0.64-0.286,0.64-0.64c0-0.354-0.287-0.64-0.64-0.64h-9.813
		c-0.353,0-0.64,0.287-0.64,0.64C22.943,16.637,23.23,16.924,23.583,16.924L23.583,16.924z M23.583,16.924"/>
	<path style="fill:#BABABA;" d="M23.583,19.965h4.907c0.354,0,0.64-0.287,0.64-0.64c0-0.353-0.286-0.64-0.64-0.64h-4.907
		c-0.353,0-0.64,0.287-0.64,0.64C22.943,19.678,23.23,19.965,23.583,19.965L23.583,19.965z M23.583,19.965"/>
</g>
</svg>
