<?xml version="1.0" encoding="iso-8859-1"?>
<!-- Generator: Adobe Illustrator 21.1.0, SVG Export Plug-In . SVG Version: 6.00 Build 0)  -->
<svg version="1.1" id="Layer_1" xmlns="http://www.w3.org/2000/svg" xmlns:xlink="http://www.w3.org/1999/xlink" x="0px" y="0px"
	 viewBox="187 377.054 40 39.89" style="enable-background:new 187 377.054 40 39.89;" xml:space="preserve">
<path style="fill:#BABABA;" d="M226.976,383.573c-0.061-0.206-0.229-0.363-0.439-0.408l-3.639-0.786l-1.223-1.223l-0.786-3.639
	c-0.045-0.21-0.202-0.378-0.408-0.439c-0.206-0.061-0.429-0.004-0.581,0.148l-3.368,3.368c-3.014-1.795-6.456-2.742-9.986-2.742
	c-5.221,0-10.13,2.033-13.821,5.725c-3.692,3.692-5.725,8.6-5.725,13.821c0,5.221,2.033,10.13,5.725,13.821
	c3.692,3.692,8.6,5.725,13.821,5.725s10.129-2.033,13.821-5.725c3.692-3.692,5.725-8.6,5.725-13.821
	c0-3.473-0.919-6.867-2.661-9.848l3.396-3.396C226.98,384.002,227.037,383.78,226.976,383.573z M210.856,397.398
	c0,2.376-1.933,4.31-4.31,4.31s-4.31-1.933-4.31-4.31c0-2.376,1.933-4.31,4.31-4.31c0.606,0,1.197,0.126,1.743,0.367l-2.166,2.166
	c-0.037,0.037-0.072,0.076-0.105,0.116c-0.005,0.006-0.009,0.013-0.014,0.019c-0.028,0.035-0.054,0.07-0.078,0.107
	c-0.001,0.001-0.001,0.002-0.002,0.004c-0.164,0.249-0.253,0.541-0.253,0.846c0,0.305,0.089,0.597,0.253,0.846
	c0.001,0.001,0.001,0.002,0.002,0.004c0.024,0.037,0.051,0.072,0.078,0.107c0.005,0.006,0.009,0.013,0.014,0.019
	c0.033,0.04,0.068,0.079,0.105,0.116l0.126,0.126l0,0l0,0c0.001,0.001,0.001,0.001,0.002,0.002c0.037,0.036,0.075,0.071,0.114,0.103
	c0.007,0.006,0.015,0.011,0.022,0.016c0.034,0.027,0.068,0.052,0.103,0.076c0.002,0.002,0.005,0.003,0.007,0.004
	c0.249,0.163,0.539,0.251,0.843,0.251c0.305,0,0.596-0.088,0.845-0.252c0.002-0.001,0.004-0.002,0.005-0.003
	c0.036-0.024,0.07-0.049,0.104-0.076c0.007-0.006,0.015-0.01,0.022-0.016c0.036-0.03,0.071-0.062,0.105-0.095
	c0.003-0.003,0.007-0.006,0.011-0.01l2.121-2.121C210.753,396.313,210.856,396.852,210.856,397.398z M221.781,382.923l-5.515,5.515
	l-2.506,2.506c0,0,0,0,0,0l-6.157,6.157c-0.018,0.018-0.037,0.034-0.058,0.047c-0.003,0.002-0.007,0.004-0.01,0.006
	c-0.018,0.011-0.035,0.021-0.054,0.028c-0.002,0.001-0.003,0.001-0.005,0.002c-0.005,0.002-0.01,0.003-0.015,0.004
	c-0.039,0.013-0.079,0.021-0.12,0.021c-0.045,0-0.09-0.009-0.133-0.025c-0.002-0.001-0.005-0.001-0.007-0.002
	c-0.018-0.008-0.036-0.017-0.053-0.028c-0.004-0.002-0.008-0.004-0.011-0.006c-0.02-0.013-0.04-0.029-0.058-0.047l-0.126-0.126
	c-0.072-0.072-0.108-0.167-0.108-0.262s0.036-0.189,0.108-0.262l8.663-8.663l5.515-5.515L221.781,382.923z M215.547,386.197
	l-0.525-2.433l0,0c0,0,4.946-4.946,4.947-4.947l0,0l0.525,2.433L215.547,386.197 M224.919,397.398c0,4.908-1.911,9.521-5.381,12.991
	c-3.47,3.47-8.084,5.381-12.991,5.381s-9.521-1.911-12.991-5.381c-3.47-3.47-5.381-8.084-5.381-12.991s1.911-9.521,5.381-12.991
	c3.47-3.47,8.084-5.381,12.991-5.381c3.218,0,6.358,0.836,9.129,2.426l-1.709,1.709c-0.141,0.141-0.201,0.344-0.159,0.539
	l0.169,0.785c-2.253-1.302-4.795-1.983-7.43-1.983c-3.806,0-7.428,1.434-10.2,4.039c-0.236,0.222-0.248,0.593-0.026,0.83
	c0.222,0.236,0.594,0.248,0.83,0.026c2.553-2.399,5.89-3.721,9.396-3.721c2.8,0,5.484,0.835,7.777,2.417l0.236,1.094l0,0
	l-1.903,1.903c-1.763-1.296-3.913-2.005-6.111-2.005c-5.688,0-10.316,4.628-10.316,10.316c0,2.866,1.207,5.627,3.312,7.574
	c0.238,0.22,0.609,0.206,0.829-0.032c0.22-0.238,0.206-0.609-0.032-0.829c-1.866-1.726-2.936-4.173-2.936-6.713
	c0-5.041,4.101-9.142,9.143-9.142c1.888,0,3.736,0.59,5.271,1.672l-2.653,2.653c-0.801-0.436-1.697-0.666-2.618-0.666
	c-3.024,0-5.484,2.46-5.484,5.484s2.46,5.484,5.484,5.484c3.024,0,5.484-2.46,5.484-5.484c0-0.863-0.203-1.71-0.59-2.474
	l2.668-2.668c1.037,1.517,1.582,3.281,1.582,5.142c0,5.041-4.101,9.143-9.143,9.143c-1.682,0-3.327-0.461-4.755-1.332
	c-0.277-0.169-0.638-0.081-0.807,0.195c-0.169,0.277-0.081,0.638,0.195,0.807c1.612,0.984,3.468,1.504,5.366,1.504
	c5.688,0,10.316-4.628,10.316-10.316c0-2.175-0.66-4.232-1.913-5.984l1.92-1.92l1.054,0.228c1.536,2.271,2.347,4.92,2.347,7.676
	c0,7.568-6.157,13.724-13.724,13.724c-7.568,0-13.724-6.157-13.724-13.724c0-3.138,1.086-6.206,3.059-8.638
	c0.204-0.252,0.166-0.621-0.086-0.825c-0.252-0.204-0.621-0.165-0.825,0.086c-2.141,2.641-3.321,5.971-3.321,9.377
	c0,8.215,6.683,14.898,14.898,14.898s14.898-6.683,14.898-14.898c0-2.595-0.662-5.103-1.927-7.332l0.838,0.181
	c0.023,0.005,0.045,0.008,0.068,0.01c0.008,0.001,0.015,0.001,0.023,0.001c0.011,0.001,0.022,0.002,0.032,0.002
	c0.004,0,0.009-0.001,0.013-0.001c0.008,0,0.016-0.001,0.024-0.001c0.015-0.001,0.029-0.002,0.043-0.004
	c0.008-0.001,0.016-0.002,0.024-0.004c0.017-0.003,0.033-0.007,0.049-0.011c0.005-0.001,0.01-0.002,0.015-0.004
	c0.021-0.006,0.041-0.014,0.06-0.022c0.007-0.003,0.013-0.006,0.019-0.009c0.014-0.006,0.027-0.013,0.041-0.021
	c0.007-0.004,0.014-0.008,0.021-0.012c0.013-0.008,0.026-0.017,0.038-0.026c0.006-0.004,0.012-0.008,0.017-0.013
	c0.018-0.014,0.035-0.029,0.051-0.045l1.678-1.678C224.11,391.146,224.919,394.238,224.919,397.398z M220.29,389.032l-2.433-0.525
	l4.947-4.946l0,0l2.433,0.525L220.29,389.032z"/>
</svg>
