<?xml version="1.0" encoding="iso-8859-1"?>
<!-- Generator: Adobe Illustrator 21.1.0, SVG Export Plug-In . SVG Version: 6.00 Build 0)  -->
<svg version="1.1" id="&#x421;&#x43B;&#x43E;&#x439;_1"
	 xmlns="http://www.w3.org/2000/svg" xmlns:xlink="http://www.w3.org/1999/xlink" x="0px" y="0px" viewBox="0 0 40 39.999"
	 style="enable-background:new 0 0 40 39.999;" xml:space="preserve">
<g>
	<rect x="18.124" y="27.499" style="fill:#BABABA;" width="3.751" height="1.252"/>
	<path style="fill:#BABABA;" d="M17.498,20.623c0,0.156-0.665,0.626-1.873,0.626c-1.209,0-1.873-0.47-1.873-0.626H12.5
		c0,1.072,1.343,1.877,3.125,1.877c1.782,0,3.125-0.805,3.125-1.877H17.498z M17.498,20.623"/>
	<path style="fill:#BABABA;" d="M26.252,20.623c0,0.156-0.666,0.626-1.877,0.626c-1.209,0-1.873-0.47-1.873-0.626h-1.252
		c0,1.072,1.343,1.877,3.125,1.877c1.782,0,3.125-0.805,3.125-1.877H26.252z M26.252,20.623"/>
	<rect y="13.126" style="fill:#BABABA;" width="1.873" height="1.248"/>
	<rect x="2.499" y="10.627" style="fill:#BABABA;" width="1.252" height="1.248"/>
	<rect y="10.627" style="fill:#BABABA;" width="1.252" height="1.248"/>
	<rect x="36.248" y="11.248" style="fill:#BABABA;" width="1.252" height="1.252"/>
	<rect x="38.752" y="11.248" style="fill:#BABABA;" width="1.248" height="1.252"/>
	<rect x="32.502" y="2.499" style="fill:#BABABA;" width="1.248" height="1.252"/>
	<rect x="35.001" y="2.499" style="fill:#BABABA;" width="1.248" height="1.252"/>
	<rect x="37.5" y="2.499" style="fill:#BABABA;" width="1.252" height="1.252"/>
	<rect x="2.499" style="fill:#BABABA;" width="1.252" height="1.252"/>
	<rect x="4.998" style="fill:#BABABA;" width="1.252" height="1.252"/>
	<rect x="7.502" style="fill:#BABABA;" width="1.248" height="1.252"/>
	<rect x="19.376" y="3.125" style="fill:#BABABA;" width="1.248" height="1.252"/>
	<rect x="21.875" y="3.125" style="fill:#BABABA;" width="1.252" height="1.252"/>
	<rect x="16.251" y="10.001" style="fill:#BABABA;" width="1.248" height="1.248"/>
	<rect x="18.75" y="10.001" style="fill:#BABABA;" width="1.252" height="1.248"/>
	<rect x="24.374" y="3.125" style="fill:#BABABA;" width="1.252" height="1.252"/>
	<path style="fill:#BABABA;" d="M39.816,38.934l-3.275-3.277c-0.827-0.827-1.925-1.282-3.095-1.282h-5.322
		c-1.688,0-3.061-1.349-3.116-3.024c2.941-3.73,4.681-8.258,4.965-13.089l0.046-0.763h9.979v-1.248h-9.909
		c0.073-1.297-0.104-2.561-0.501-3.751h5.411v-1.252h-5.915c-0.439-0.887-1.012-1.721-1.718-2.466
		c-1.92-2.035-4.516-3.159-7.315-3.159c-2.478,0-4.798,0.885-6.628,2.499h-10.3v1.252h9.109c-0.906,1.117-1.553,2.39-1.907,3.751
		H3.125v1.248h6.964c-0.08,0.623-0.11,1.255-0.07,1.895l0.116,1.993c0.28,4.788,1.992,9.277,4.886,12.988h-0.022
		c0,1.724-1.401,3.125-3.125,3.125H6.552c-1.169,0-2.268,0.455-3.091,1.282l-3.278,3.277C0.067,39.05,0,39.209,0,39.373v0.626h1.252
		v-0.366l3.091-3.094c0.591-0.589,1.376-0.912,2.209-0.912h5.322c1.977,0,3.65-1.319,4.19-3.123
		c0.534,0.595,1.096,1.166,1.694,1.709c0.116,0.104,0.266,0.162,0.422,0.162h3.75c0.156,0,0.305-0.058,0.421-0.162
		c0.565-0.516,1.105-1.056,1.615-1.617c0.567,1.758,2.216,3.03,4.159,3.03h5.322c0.834,0,1.621,0.323,2.21,0.912l3.095,3.094v0.366
		h1.248v-0.626C39.999,39.209,39.935,39.05,39.816,38.934L39.816,38.934z M21.686,33.123h-3.263
		c-4.205-3.903-6.705-9.198-7.041-14.935l-0.119-1.993c-0.037-0.616-0.009-1.223,0.08-1.822h3.396l-0.805,0.809l0.882,0.884
		l2.316-2.316l-2.316-2.32l-0.882,0.885l0.805,0.809h-3.106c0.388-1.285,1.062-2.475,2.014-3.485
		c1.681-1.782,3.958-2.765,6.405-2.765c2.451,0,4.727,0.983,6.405,2.765c0.47,0.495,0.867,1.038,1.199,1.608h-4.275l0.809-0.805
		l-0.882-0.885l-2.32,2.316l2.32,2.316l0.882-0.882L23.383,12.5h4.883c0.448,1.159,0.653,2.411,0.577,3.695l-0.003,0.055h-2.954
		l0.805-0.809l-0.882-0.885l-2.316,2.32l2.316,2.316l0.882-0.884l-0.805-0.809h2.88l-0.039,0.69
		C28.388,23.926,25.891,29.22,21.686,33.123L21.686,33.123z M21.686,33.123"/>
</g>
</svg>
