<?xml version="1.0" encoding="iso-8859-1"?>
<!-- Generator: Adobe Illustrator 21.1.0, SVG Export Plug-In . SVG Version: 6.00 Build 0)  -->
<svg version="1.1" id="Layer_1" xmlns="http://www.w3.org/2000/svg" xmlns:xlink="http://www.w3.org/1999/xlink" x="0px" y="0px"
	 viewBox="187 377 40 40" style="enable-background:new 187 377 40 40;" xml:space="preserve">
<g>
	<path style="fill:#BABABA;" d="M221.839,404.097h-0.874c1.318-1.065,2.165-2.693,2.165-4.516V397c0-2.49-2.026-4.516-4.516-4.516
		h-2.581c-0.219,0-0.434,0.021-0.645,0.052v-11.665h1.29V377H187v3.871h1.29v18.71H187v3.871h15.085l3.226,6.452h6.205V417H227
		v-7.742C227,406.412,224.685,404.097,221.839,404.097z M221.079,406.946l-2.619,1.123l1.788-2.681h0.441L221.079,406.946z
		 M212.129,402.161h-4.484l-0.688-1.29h4.709C211.769,401.324,211.926,401.755,212.129,402.161z M208.677,404.097l-0.344-0.645
		h4.674c0.208,0.232,0.432,0.449,0.674,0.645H208.677z M218.698,405.387l-1.375,2.063l-1.375-2.063H218.698z M213.955,405.387h0.441
		l1.787,2.681l-2.619-1.123L213.955,405.387z M217.323,404.097c-2.49,0-4.516-2.026-4.516-4.516h3.018
		c1.139,0,2.209-0.444,3.014-1.248l0.333-0.333c0.67,0.828,1.622,1.366,2.668,1.526v0.055
		C221.839,402.07,219.812,404.097,217.323,404.097z M218.613,393.774c1.779,0,3.226,1.447,3.226,3.226v1.215
		c-0.739-0.164-1.397-0.603-1.827-1.248l-0.654-0.98l-1.433,1.433c-0.561,0.561-1.307,0.87-2.101,0.87h-3.018V397
		c0-1.779,1.447-3.226,3.226-3.226H218.613z M188.29,378.29h27.097v1.29H188.29V378.29z M189.581,380.871h24.516v12.055
		c-1.523,0.726-2.581,2.277-2.581,4.074v2.581h-5.247l-2.001-3.752c-0.464-0.869-1.364-1.409-2.348-1.409
		c-0.81,0-1.528,0.372-2.016,0.945v-2.88h-9.032v5.806h8.643c0.01,0.023,0.014,0.047,0.025,0.069l0.61,1.221h-10.569V380.871z
		 M198.613,393.774V397h-6.452v-3.226H198.613z M188.29,402.161v-1.29h12.505l0.645,1.29H188.29z M200.694,397.783
		c-0.095-0.19-0.145-0.403-0.145-0.614v-0.089c0-0.756,0.615-1.371,1.371-1.371c0.507,0,0.971,0.279,1.21,0.726l4.516,8.467v3.71
		h-1.537L200.694,397.783z M221.839,415.71h-9.032v-7.097h-3.871v-3.226h3.69l-0.578,2.312l5.275,2.261l5.275-2.261l-0.576-2.303
		c2.049,0.097,3.688,1.789,3.688,3.862v2.581h-2.581v-2.581h-1.29V415.71z M223.129,415.71v-2.581h2.581v2.581H223.129z"/>
	<path style="fill:#BABABA;" d="M192.699,388.454l-0.961,0.961l0.912,0.912l0.961-0.961c0.338,0.225,0.72,0.388,1.131,0.472v1.355
		h1.29v-1.355c0.411-0.084,0.793-0.248,1.131-0.472l0.961,0.961l0.912-0.912l-0.961-0.961c0.225-0.338,0.388-0.72,0.472-1.131h1.355
		v-1.29h-1.355c-0.084-0.411-0.248-0.793-0.472-1.131l0.961-0.961l-0.912-0.912l-0.961,0.961c-0.338-0.225-0.72-0.388-1.131-0.472
		v-1.355h-1.29v1.355c-0.411,0.084-0.793,0.248-1.131,0.472l-0.961-0.961l-0.912,0.912l0.961,0.961
		c-0.225,0.338-0.388,0.72-0.472,1.131h-1.355v1.29h1.355C192.31,387.734,192.474,388.115,192.699,388.454z M195.387,384.742
		c1.067,0,1.935,0.868,1.935,1.935c0,1.067-0.868,1.935-1.935,1.935s-1.935-0.868-1.935-1.935
		C193.452,385.61,194.32,384.742,195.387,384.742z"/>
	<polygon style="fill:#BABABA;" points="206.7,383.452 208.935,383.452 208.935,382.161 206.01,382.161 203.429,386.032 
		201.194,386.032 201.194,387.323 204.119,387.323 	"/>
	<rect x="210.226" y="382.161" style="fill:#BABABA;" width="2.581" height="1.29"/>
	<path style="fill:#BABABA;" d="M205.065,388.613h-3.871v3.871h3.871V388.613z M203.774,391.194h-1.29v-1.29h1.29V391.194z"/>
	<rect x="206.355" y="389.903" style="fill:#BABABA;" width="2.581" height="1.29"/>
	<rect x="210.226" y="389.903" style="fill:#BABABA;" width="2.581" height="1.29"/>
</g>
</svg>
