<?xml version="1.0" encoding="iso-8859-1"?>
<!-- Generator: Adobe Illustrator 21.1.0, SVG Export Plug-In . SVG Version: 6.00 Build 0)  -->
<svg version="1.1" id="Layer_1" xmlns="http://www.w3.org/2000/svg" xmlns:xlink="http://www.w3.org/1999/xlink" x="0px" y="0px"
	 viewBox="186.999 375.64 40 42.72" style="enable-background:new 186.999 375.64 40 42.72;" xml:space="preserve">
<g>
	<path style="fill:#BABABA;" d="M226.312,395.005c-0.346-0.444-0.987-0.523-1.431-0.177c-0.444,0.346-0.523,0.987-0.177,1.431
		c0.34,0.436,0.34,1.046,0,1.482c-2.493,3.197-5.72,5.599-9.352,7.052c1.909-2.044,3.078-4.785,3.078-7.793
		c0-2.996-1.159-5.727-3.052-7.767c2.099,0.844,4.072,2.004,5.838,3.452c0.219,0.18,0.438,0.366,0.65,0.554
		c0.422,0.373,1.066,0.334,1.439-0.087s0.334-1.066-0.087-1.439c-0.231-0.205-0.47-0.408-0.709-0.604
		c-4.357-3.572-9.866-5.54-15.51-5.54c-7.596,0-14.636,3.439-19.313,9.436c-0.916,1.175-0.916,2.815,0,3.99
		c4.677,5.997,11.716,9.436,19.313,9.436c7.596,0,14.636-3.439,19.313-9.436C227.228,397.82,227.228,396.18,226.312,395.005z
		 M216.392,397c0,5.175-4.207,9.386-9.38,9.392c-0.004,0-0.008,0-0.012,0c-0.004,0-0.008,0-0.012,0
		c-5.174-0.007-9.38-4.217-9.38-9.392c0-5.175,4.207-9.386,9.38-9.392c0.004,0,0.008,0,0.012,0c0.003,0,0.006,0,0.01,0
		C212.184,387.613,216.392,391.824,216.392,397z M189.294,397.741c-0.34-0.436-0.34-1.046,0-1.482
		c2.493-3.196,5.718-5.598,9.35-7.051c-1.907,2.043-3.076,4.783-3.076,7.792c0,3.008,1.169,5.749,3.076,7.792
		C195.012,403.339,191.787,400.937,189.294,397.741z"/>
	<path style="fill:#BABABA;" d="M202.674,397c0,2.385,1.94,4.325,4.325,4.325c2.385,0,4.325-1.94,4.325-4.325
		c0-2.385-1.94-4.325-4.325-4.325C204.614,392.675,202.674,394.615,202.674,397z M209.286,397c0,1.261-1.026,2.287-2.287,2.287
		c-1.261,0-2.287-1.026-2.287-2.287c0-1.261,1.026-2.287,2.287-2.287C208.26,394.713,209.286,395.739,209.286,397z"/>
	<path style="fill:#BABABA;" d="M206.999,381.501c0.563,0,1.019-0.456,1.019-1.019v-3.823c0-0.563-0.456-1.019-1.019-1.019
		c-0.563,0-1.019,0.456-1.019,1.019v3.823C205.98,381.045,206.436,381.501,206.999,381.501z"/>
	<path style="fill:#BABABA;" d="M206.999,412.499c-0.563,0-1.019,0.456-1.019,1.019v3.823c0,0.563,0.456,1.019,1.019,1.019
		c0.563,0,1.019-0.456,1.019-1.019v-3.823C208.019,412.955,207.562,412.499,206.999,412.499z"/>
	<path style="fill:#BABABA;" d="M219.48,385.538c0.261,0,0.522-0.1,0.721-0.299l1.902-1.902c0.398-0.398,0.398-1.043,0-1.442
		c-0.398-0.398-1.043-0.398-1.442,0l-1.902,1.902c-0.398,0.398-0.398,1.043,0,1.442C218.959,385.439,219.22,385.538,219.48,385.538z
		"/>
	<path style="fill:#BABABA;" d="M193.798,408.76l-1.902,1.902c-0.398,0.398-0.398,1.043,0,1.442c0.199,0.199,0.46,0.299,0.721,0.299
		c0.261,0,0.522-0.1,0.721-0.299l1.902-1.902c0.398-0.398,0.398-1.043,0-1.442C194.841,408.362,194.196,408.362,193.798,408.76z"/>
	<path style="fill:#BABABA;" d="M193.798,385.24c0.199,0.199,0.46,0.299,0.721,0.299c0.261,0,0.522-0.1,0.721-0.299
		c0.398-0.398,0.398-1.044,0-1.442l-1.902-1.902c-0.398-0.398-1.043-0.398-1.442,0c-0.398,0.398-0.398,1.044,0,1.442L193.798,385.24
		z"/>
	<path style="fill:#BABABA;" d="M220.201,408.76c-0.398-0.398-1.043-0.398-1.442,0c-0.398,0.398-0.398,1.044,0,1.442l1.902,1.902
		c0.199,0.199,0.46,0.299,0.721,0.299c0.261,0,0.522-0.1,0.721-0.299c0.398-0.398,0.398-1.044,0-1.442L220.201,408.76z"/>
</g>
</svg>
