<?xml version="1.0" encoding="iso-8859-1"?>
<!-- Generator: Adobe Illustrator 21.1.0, SVG Export Plug-In . SVG Version: 6.00 Build 0)  -->
<svg version="1.1" id="Layer_1" xmlns="http://www.w3.org/2000/svg" xmlns:xlink="http://www.w3.org/1999/xlink" x="0px" y="0px"
	 viewBox="174.895 362 64.213 70" style="enable-background:new 174.895 362 64.213 70;" xml:space="preserve">
<g>
	<path style="fill:#FCDF68;" d="M230.801,386.438c0,3.862-0.964,7.701-2.827,11.087c-0.927,1.685-2.264,3.021-3.273,4.605
		c-1.197,1.882-2.464,3.715-3.828,5.479c-0.681,0.881-1.168,1.539-1.506,2.613c-0.342,1.084-0.574,2.2-0.695,3.331h-21.88
		c-0.443-4.015-2.248-7.781-5.106-10.551c-4.527-4.387-7.018-10.273-7.015-16.575c0.006-12.612,10.268-22.954,22.878-23.054h0.189
		c6.127,0,11.89,2.371,16.243,6.69c0.686,0.681,1.324,1.396,1.913,2.143C229.076,376.25,230.801,381.209,230.801,386.438z"/>
	<path style="fill:#FFD833;" d="M230.801,386.438c0,3.862-0.964,7.701-2.827,11.087c-0.927,1.685-2.264,3.021-3.273,4.605
		c-1.197,1.882-2.464,3.715-3.828,5.479c-0.681,0.881-1.168,1.539-1.506,2.613c-0.342,1.084-0.574,2.2-0.695,3.331h-14.215
		c-0.71-1.125-1.549-2.167-2.509-3.096c-4.526-4.387-7.018-10.273-7.015-16.575c0.006-12.612,10.268-22.954,22.879-23.054H218
		c2.734,0,5.397,0.472,7.893,1.379c1.47,1.867,2.63,3.933,3.452,6.127C230.302,380.89,230.801,383.625,230.801,386.438z"/>
	<path style="fill:#BC9A0D;" d="M230.801,386.438c0,3.862-0.964,7.701-2.827,11.087c-0.927,1.685-2.264,3.021-3.273,4.605
		c-1.197,1.882-2.464,3.715-3.828,5.479c-0.681,0.881-1.168,1.539-1.506,2.613c-0.342,1.084-0.574,2.2-0.695,3.331h-12.923
		c-2.407-3.699-3.695-8.017-3.694-12.549c0.006-12.612,10.268-22.954,22.879-23.054h0.188c1.432,0,2.845,0.129,4.223,0.385
		C230.302,380.89,230.801,383.625,230.801,386.438z"/>
	<path style="fill:#BFAB92;" d="M207.051,389.901c-0.001,0.04-0.006,0.081-0.008,0.119v9.389c0,2.291-1.409,4.247-3.59,4.983
		c-0.567,0.19-1.143,0.283-1.707,0.283c-0.075,0-0.15-0.001-0.224-0.006c-1.495-0.064-2.898-0.779-3.856-2.038
		c-0.006-0.007-0.011-0.014-0.017-0.021c-1.475-0.778-2.614-2.111-3.158-3.678c-3.348-0.974-5.716-4.081-5.716-7.619
		c0-0.84,0.129-1.663,0.385-2.45c-1.04-1.245-1.607-2.799-1.607-4.442c0-2.609,1.481-4.991,3.759-6.171
		c-0.022-0.226-0.033-0.453-0.033-0.678c0-1.75,0.653-3.421,1.839-4.706c1.04-1.127,2.409-1.87,3.902-2.131
		c0.057-0.103,0.117-0.203,0.179-0.3c0.996-1.549,2.713-2.507,4.599-2.507c2.684,0,4.902,2.027,5.206,4.629h0.001
		c0,0.007,0,0.013,0.001,0.018c0.01,0.088,0.018,0.174,0.024,0.261c0,0.014,0.001,0.026,0.003,0.039
		c0.006,0.099,0.008,0.197,0.008,0.297v16.729H207.051L207.051,389.901z"/>
	<path style="fill:#D9CCBC;" d="M202.297,392.406c-0.001,0.04-0.006,0.081-0.008,0.119v9.389c0,0.633-0.107,1.239-0.31,1.802
		c-0.413-0.296-0.786-0.658-1.11-1.084c-0.006-0.007-0.011-0.014-0.017-0.021c-1.475-0.778-2.614-2.111-3.158-3.678
		c-3.348-0.974-5.716-4.081-5.716-7.619c0-1.389,0.374-2.684,0.781-3.996c-0.037,0.119-0.861-0.037-0.96-0.062
		c-0.417-0.107-0.54-0.19-0.673-0.587c-0.243-0.725-0.37-1.482-0.37-2.247c0-1.415,0.446-2.813,1.255-3.973
		c0.089-0.127,0.195-0.332,0.32-0.424c0.22-0.161,0.137-0.117,0.384,0.037c0.355,0.222,0.677,0.553,1.002,0.819
		c0.647,0.529,1.294,1.058,1.94,1.587c-1.644-2.958-1.724-7.017,0.663-9.601c0.828-0.896,1.863-1.55,3.005-1.911
		c1.575,0.765,2.713,2.296,2.926,4.106c0.001,0.007,0.001,0.013,0.003,0.018c0.01,0.088,0.017,0.174,0.022,0.261
		c0.001,0.014,0.003,0.026,0.003,0.039c0.006,0.099,0.01,0.197,0.01,0.297v16.729H202.297L202.297,392.406z"/>
	<path style="fill:#BFAB92;" d="M208.42,389.901c0.001,0.04,0.006,0.081,0.008,0.119v9.389c0,2.291,1.409,4.247,3.59,4.983
		c0.567,0.19,1.143,0.283,1.707,0.283c0.075,0,0.15-0.001,0.224-0.006c1.495-0.064,2.898-0.779,3.856-2.038
		c0.006-0.007,0.011-0.014,0.017-0.021c1.475-0.778,2.614-2.111,3.158-3.678c3.348-0.974,5.716-4.081,5.716-7.619
		c0-0.84-0.129-1.663-0.385-2.45c1.04-1.245,1.607-2.799,1.607-4.442c0-2.609-1.481-4.991-3.759-6.171
		c0.022-0.226,0.033-0.453,0.033-0.678c0-1.75-0.653-3.421-1.839-4.706c-1.04-1.127-2.409-1.87-3.902-2.131
		c-0.057-0.103-0.117-0.203-0.179-0.3c-0.996-1.549-2.713-2.507-4.599-2.507c-2.684,0-4.902,2.027-5.206,4.629h-0.001
		c0,0.007,0,0.013-0.001,0.018c-0.01,0.088-0.018,0.174-0.024,0.261c0,0.014-0.001,0.026-0.003,0.039
		c-0.006,0.099-0.008,0.197-0.008,0.297v16.729H208.42L208.42,389.901z"/>
	<path style="fill:#D9CCBC;" d="M213.174,392.406c0.001,0.04,0.006,0.081,0.008,0.119v9.389c0,0.633,0.107,1.239,0.31,1.802
		c0.413-0.296,0.786-0.658,1.11-1.084c0.006-0.007,0.011-0.014,0.017-0.021c1.475-0.778,2.614-2.111,3.158-3.678
		c3.348-0.974,5.716-4.081,5.716-7.619c0-1.389-0.374-2.684-0.781-3.996c0.037,0.119,0.862-0.037,0.96-0.062
		c0.417-0.107,0.54-0.19,0.673-0.587c0.243-0.725,0.37-1.482,0.37-2.247c0-1.415-0.446-2.813-1.255-3.973
		c-0.089-0.127-0.195-0.332-0.32-0.424c-0.22-0.161-0.137-0.117-0.384,0.037c-0.355,0.222-0.677,0.553-1.001,0.819
		c-0.647,0.529-1.294,1.058-1.94,1.587c1.644-2.958,1.724-7.017-0.663-9.601c-0.828-0.896-1.863-1.55-3.005-1.911
		c-1.575,0.765-2.713,2.296-2.926,4.106c-0.001,0.007-0.001,0.013-0.003,0.018c-0.01,0.088-0.017,0.174-0.022,0.261
		c-0.001,0.014-0.003,0.026-0.003,0.039c-0.006,0.099-0.01,0.197-0.01,0.297v16.729H213.174L213.174,392.406z"/>
	<circle style="fill:#EDE6DE;" cx="216.553" cy="380.508" r="1.616"/>
	<circle style="fill:#E0E0E2;" cx="215.643" cy="373.834" r="0.581"/>
	<g>
		<circle style="fill:#EDE6DE;" cx="221.922" cy="384.864" r="0.611"/>
		<circle style="fill:#EDE6DE;" cx="218.427" cy="388.241" r="1.098"/>
		<circle style="fill:#EDE6DE;" cx="217.458" cy="396.365" r="0.712"/>
		<circle style="fill:#EDE6DE;" cx="214.657" cy="399.865" r="0.749"/>
	</g>
	<path style="fill:#3E3D43;" d="M215.829,427.302c-0.445,0.56-0.945,1.049-1.489,1.46c-1.24,0.936-2.706,1.46-4.235,1.46h-4.737
		c-1.532,0-2.996-0.524-4.237-1.46c-0.545-0.411-1.045-0.9-1.488-1.46H215.829z"/>
	<path style="fill:#57565C;" d="M214.34,428.762c-1.24,0.936-2.706,1.46-4.235,1.46h-4.737c-1.532,0-2.996-0.524-4.237-1.46H214.34z
		"/>
	<rect x="196.532" y="414.259" style="fill:#3E3D43;" width="22.41" height="12.437"/>
	<rect x="200.143" y="415.926" style="fill:#57565C;" width="18.798" height="10.77"/>
	<g>
		<rect x="204.038" y="420.334" style="fill:#898890;" width="12.633" height="1.75"/>
		<rect x="204.038" y="424.61" style="fill:#898890;" width="12.633" height="1.75"/>
	</g>
	<path d="M224.987,369.106c-4.671-4.634-10.867-7.161-17.45-7.105c-13.391,0.106-24.291,11.089-24.297,24.483
		c-0.003,6.692,2.643,12.944,7.45,17.602c2.816,2.729,4.431,6.604,4.431,10.631v12.891h3.723c1.495,2.725,4.134,4.393,7.017,4.393
		h3.746c2.88,0,5.521-1.669,7.017-4.393h3.723v-12.966c0-4.003,1.612-7.789,4.538-10.659c0.209-0.205,0.412-0.414,0.613-0.625
		c0.091-0.093,0.147-0.154,0.166-0.175l0,0c4.241-4.546,6.565-10.429,6.565-16.687C232.231,379.916,229.658,373.74,224.987,369.106z
		 M209.609,429.916h-3.746c-1.742,0-3.374-0.856-4.525-2.309h12.796C212.981,429.06,211.348,429.916,209.609,429.916z
		 M218.265,425.524h-21.059v-2.254h21.059V425.524L218.265,425.524z M218.265,421.187h-21.059v-2.059h21.059V421.187
		L218.265,421.187z M218.265,417.044h-21.059v-2.119h21.059V417.044L218.265,417.044z M224.052,401.856
		c-0.635,0.649-5.523,5.375-13.509,5.694l0.083,2.082c3.8-0.152,6.942-1.187,9.354-2.386c-0.86,1.753-1.409,3.639-1.618,5.594
		h-21.26c-0.43-3.9-2.184-7.56-4.961-10.251c-4.399-4.262-6.819-9.982-6.817-16.105c0.006-12.254,9.978-22.303,22.229-22.4
		c0.061-0.001,0.122-0.001,0.183-0.001c5.954,0,11.553,2.305,15.783,6.501c4.274,4.24,6.627,9.89,6.627,15.91
		C230.147,392.264,227.988,397.684,224.052,401.856z"/>
	<path d="M197.649,402.611c0.005,0.007,0.011,0.014,0.016,0.021c1.006,1.321,2.503,2.044,4.08,2.044
		c0.565,0,1.141-0.093,1.708-0.284c2.181-0.736,3.59-2.692,3.59-4.983v-9.389c0.003-0.04,0.007-0.079,0.009-0.119l-0.009,0v-16.73
		c0-0.1-0.003-0.198-0.009-0.297c-0.001-0.013-0.002-0.026-0.003-0.039c-0.006-0.088-0.013-0.175-0.023-0.261
		c-0.001-0.006-0.001-0.012-0.002-0.018l-0.001,0c-0.305-2.603-2.523-4.63-5.207-4.63c-2.006,0-3.821,1.084-4.778,2.808
		c-1.494,0.261-2.862,1.004-3.903,2.131c-1.186,1.285-1.839,2.956-1.839,4.706c0,0.226,0.011,0.452,0.034,0.678
		c-2.279,1.179-3.759,3.561-3.759,6.171c0,1.644,0.566,3.197,1.607,4.442c-0.256,0.788-0.386,1.609-0.386,2.45
		c0,3.539,2.368,6.646,5.717,7.62C195.035,400.5,196.174,401.834,197.649,402.611z M190.859,391.313c0-0.791,0.155-1.557,0.46-2.279
		l0.007-0.017c0.027-0.059,0.431-0.904,1.87-1.242l-0.477-2.028c-1.104,0.26-1.863,0.732-2.376,1.198
		c-0.46-0.753-0.706-1.619-0.706-2.524c0-1.672,0.869-3.209,2.239-4.09c0.636,1.395,2.125,3.532,5.41,4.129l0.373-2.05
		c-3.32-0.604-4.08-3.359-4.164-3.708l-0.012-0.053c-0.08-0.356-0.121-0.718-0.121-1.076c0-2.501,1.95-4.626,4.438-4.839l0.63-0.054
		l0.243-0.584c0.527-1.266,1.754-2.085,3.125-2.085c1.62,0,2.959,1.226,3.139,2.799c0.007,0.057,0.012,0.114,0.015,0.172
		c0,0.003,0.001,0.006,0.001,0.01c0.004,0.062,0.006,0.125,0.006,0.187c0,1.746-1.421,3.167-3.167,3.167
		c-0.358,0-0.709-0.059-1.043-0.175l-0.686,1.968c0.555,0.193,1.137,0.291,1.728,0.291c1.189,0,2.286-0.398,3.167-1.066v12.551
		c-0.115,1.149-1.08,2.034-2.248,2.034c-1.235,0-2.229-0.967-2.262-2.201l-2.083,0.055c0.063,2.371,1.971,4.229,4.345,4.229
		c0.822,0,1.591-0.229,2.248-0.626v6.005c0,1.678-1.122,2.654-2.172,3.008c-1.025,0.346-2.473,0.252-3.464-1.048
		c-0.046-0.061-0.092-0.123-0.138-0.186l-0.157-0.218l-0.243-0.115c-1.224-0.58-2.139-1.71-2.447-3.023l-0.028-0.121
		c-0.058-0.288-0.224-1.398,0.282-2.888l-1.973-0.671c-0.317,0.933-0.437,1.76-0.464,2.429
		C192.184,395.616,190.859,393.586,190.859,391.313z"/>
	<rect x="193.823" y="390.076" width="1.782" height="2.084"/>
	<rect x="199.656" y="395.574" width="1.782" height="2.084"/>
	<rect x="200.066" y="385.06" width="1.782" height="2.084"/>
	<rect x="195.69" y="375.994" width="1.782" height="2.084"/>
	<path d="M208.429,390.021v9.389c0,2.291,1.409,4.247,3.59,4.983c0.567,0.191,1.142,0.284,1.708,0.284
		c1.577,0,3.074-0.723,4.079-2.043c0.005-0.007,0.011-0.014,0.016-0.022c1.475-0.777,2.615-2.111,3.157-3.678
		c3.348-0.973,5.717-4.081,5.717-7.62c0-0.841-0.13-1.662-0.386-2.45c1.041-1.245,1.607-2.798,1.607-4.442
		c0-2.61-1.48-4.991-3.759-6.171c0.022-0.226,0.034-0.452,0.034-0.678c0-1.75-0.653-3.421-1.839-4.706
		c-1.04-1.127-2.409-1.871-3.903-2.131c-0.958-1.724-2.772-2.808-4.778-2.808c-2.684,0-4.902,2.027-5.207,4.63l-0.001,0
		c-0.001,0.006-0.001,0.012-0.002,0.018c-0.01,0.086-0.018,0.173-0.023,0.261c-0.001,0.013-0.002,0.026-0.003,0.039
		c-0.006,0.098-0.009,0.197-0.009,0.297v16.73l-0.009,0C208.422,389.942,208.426,389.981,208.429,390.021z M213.673,370.011
		c1.371,0,2.598,0.818,3.125,2.085l0.243,0.584l0.63,0.054c2.489,0.213,4.438,2.339,4.438,4.839c0,0.358-0.041,0.721-0.121,1.076
		l-0.016,0.07c-0.093,0.377-0.875,3.094-4.16,3.691l0.373,2.05c3.285-0.597,4.775-2.734,5.41-4.129
		c1.37,0.882,2.239,2.418,2.239,4.09c0,0.905-0.246,1.771-0.706,2.524c-0.513-0.466-1.272-0.938-2.376-1.198l-0.477,2.028
		c1.439,0.339,1.843,1.184,1.87,1.242l0.007,0.017c0.305,0.721,0.46,1.488,0.46,2.279c0,2.273-1.325,4.303-3.297,5.264
		c-0.026-0.67-0.146-1.496-0.464-2.429l-1.973,0.671c0.507,1.49,0.34,2.6,0.282,2.888l-0.028,0.121
		c-0.309,1.313-1.224,2.443-2.447,3.023l-0.243,0.115l-0.157,0.218c-0.046,0.063-0.092,0.126-0.138,0.187
		c-0.99,1.3-2.438,1.394-3.464,1.048c-1.05-0.354-2.172-1.331-2.172-3.008v-6.005c0.657,0.397,1.426,0.626,2.248,0.626
		c2.373,0,4.282-1.858,4.345-4.229l-2.083-0.055c-0.033,1.234-1.026,2.201-2.262,2.201c-1.169,0-2.133-0.885-2.248-2.034v-12.551
		c0.881,0.668,1.978,1.066,3.167,1.066c0.592,0,1.173-0.098,1.728-0.291l-0.686-1.968c-0.334,0.116-0.685,0.175-1.043,0.175
		c-1.746,0-3.167-1.421-3.167-3.167c0-0.062,0.002-0.124,0.006-0.187c0-0.003,0.001-0.006,0.001-0.01
		c0.003-0.057,0.008-0.115,0.015-0.172C210.714,371.237,212.053,370.011,213.673,370.011z"/>
	<rect x="219.866" y="390.076" width="1.782" height="2.084"/>
	<rect x="214.033" y="395.574" width="1.782" height="2.084"/>
	<rect x="213.625" y="385.06" width="1.782" height="2.084"/>
	<rect x="217.999" y="375.994" width="1.782" height="2.084"/>
	<rect x="205.618" y="407.564" width="2.327" height="2.084"/>
	<rect x="233.655" y="404.495" width="1.782" height="2.084"/>
	<rect x="174.895" y="394.611" width="1.782" height="2.084"/>
	<rect x="237.325" y="384.365" width="1.782" height="2.084"/>
	<rect x="184.284" y="408.907" width="1.782" height="2.084"/>
	<rect x="237.325" y="369.64" width="1.782" height="2.084"/>
	<rect x="186.066" y="364.778" width="1.782" height="2.084"/>
	<rect x="228.296" y="364.778" width="1.782" height="2.084"/>
	<rect x="179.142" y="373.99" width="1.782" height="2.084"/>
	<circle style="fill:#EDE6DE;" cx="198.918" cy="380.508" r="1.617"/>
	<circle style="fill:#E0E0E2;" cx="199.828" cy="373.834" r="0.581"/>
	<g>
		<circle style="fill:#EDE6DE;" cx="193.551" cy="384.864" r="0.611"/>
		<circle style="fill:#EDE6DE;" cx="197.044" cy="388.241" r="1.098"/>
		<circle style="fill:#EDE6DE;" cx="198.014" cy="396.365" r="0.712"/>
		<circle style="fill:#EDE6DE;" cx="200.814" cy="399.865" r="0.749"/>
	</g>
</g>
</svg>
