<?xml version="1.0" encoding="iso-8859-1"?>
<!-- Generator: Adobe Illustrator 21.1.0, SVG Export Plug-In . SVG Version: 6.00 Build 0)  -->
<svg version="1.1" id="Layer_1" xmlns="http://www.w3.org/2000/svg" xmlns:xlink="http://www.w3.org/1999/xlink" x="0px" y="0px"
	 viewBox="174.5 364.5 65 65" style="enable-background:new 174.5 364.5 65 65;" xml:space="preserve">
<g>
	<path style="fill:#FFDC64;" d="M231.13,428.369h-48.26c-3.998,0-7.239-3.241-7.239-7.239v-48.26c0-3.998,3.241-7.239,7.239-7.239
		h48.26c3.998,0,7.239,3.241,7.239,7.239v48.26C238.369,425.128,235.128,428.369,231.13,428.369z"/>
	<path style="fill:#FFC850;" d="M238.369,398.131v-2.262h-30.238v-30.238h-2.262v30.238H186.49v-26.618
		c0-1.32,0.359-2.554,0.976-3.619h-4.596c-3.998,0-7.239,3.241-7.239,7.239v48.26c0,3.998,3.241,7.239,7.239,7.239h48.26
		c2.678,0,5.01-1.458,6.263-3.619h-29.261v-26.618H238.369z M193.729,424.749c-3.998,0-7.239-3.241-7.239-7.239v-19.379h19.379
		v26.618H193.729z"/>
	<path style="fill:#E4EAF8;" d="M231.13,428.369h-22.999v-30.238h30.238v22.999C238.369,425.128,235.128,428.369,231.13,428.369z"/>
	<path style="fill:#D5DCED;" d="M208.131,424.749v3.619h22.999c2.678,0,5.01-1.458,6.263-3.619H208.131z"/>
	<path d="M231.13,364.5h-48.26c-4.615,0-8.37,3.755-8.37,8.37v48.26c0,4.615,3.755,8.37,8.37,8.37h48.26
		c4.615,0,8.37-3.755,8.37-8.37v-48.26C239.5,368.255,235.745,364.5,231.13,364.5z M237.238,421.13c0,3.368-2.74,6.108-6.108,6.108
		h-48.26c-3.368,0-6.108-2.74-6.108-6.108v-48.26c0-3.368,2.74-6.108,6.108-6.108h48.26c3.368,0,6.108,2.74,6.108,6.108V421.13z"/>
	<path d="M233.543,395.869h-2.413c-0.625,0-1.131,0.506-1.131,1.131s0.506,1.131,1.131,1.131h2.413c0.625,0,1.131-0.506,1.131-1.131
		S234.168,395.869,233.543,395.869z"/>
	<path d="M226.304,398.131c0.625,0,1.131-0.506,1.131-1.131s-0.506-1.131-1.131-1.131h-18.173v-18.173
		c0-0.625-0.506-1.131-1.131-1.131s-1.131,0.506-1.131,1.131v18.173h-25.412c-0.625,0-1.131,0.506-1.131,1.131
		s0.506,1.131,1.131,1.131h25.412v25.412c0,0.625,0.506,1.131,1.131,1.131s1.131-0.506,1.131-1.131v-25.412H226.304z"/>
	<path d="M207,374.002c0.625,0,1.131-0.506,1.131-1.131v-2.413c0-0.625-0.506-1.131-1.131-1.131s-1.131,0.506-1.131,1.131v2.413
		C205.869,373.495,206.375,374.002,207,374.002z"/>
	<path d="M184.077,382.447h6.108v6.108c0,0.625,0.506,1.131,1.131,1.131s1.131-0.506,1.131-1.131v-6.108h6.108
		c0.625,0,1.131-0.506,1.131-1.131s-0.506-1.131-1.131-1.131h-6.108v-6.108c0-0.625-0.506-1.131-1.131-1.131
		s-1.131,0.506-1.131,1.131v6.108h-6.108c-0.625,0-1.131,0.506-1.131,1.131S183.452,382.447,184.077,382.447z"/>
	<path d="M215.445,382.447h14.478c0.625,0,1.131-0.506,1.131-1.131s-0.506-1.131-1.131-1.131h-14.478
		c-0.625,0-1.131,0.506-1.131,1.131S214.821,382.447,215.445,382.447z"/>
	<path d="M229.923,407.934h-14.478c-0.625,0-1.131,0.506-1.131,1.131s0.506,1.131,1.131,1.131h14.478
		c0.625,0,1.131-0.506,1.131-1.131S230.548,407.934,229.923,407.934z"/>
	<path d="M229.923,415.173h-14.478c-0.625,0-1.131,0.506-1.131,1.131s0.506,1.131,1.131,1.131h14.478
		c0.625,0,1.131-0.506,1.131-1.131S230.548,415.173,229.923,415.173z"/>
	<path d="M198.148,405.852c-0.442-0.442-1.158-0.442-1.6,0l-5.233,5.233l-5.233-5.233c-0.442-0.442-1.158-0.442-1.6,0
		c-0.442,0.442-0.442,1.158,0,1.599l5.233,5.233l-5.233,5.233c-0.442,0.442-0.442,1.158,0,1.6c0.221,0.221,0.51,0.331,0.8,0.331
		c0.289,0,0.579-0.11,0.8-0.331l5.233-5.233l5.233,5.233c0.221,0.221,0.51,0.331,0.8,0.331c0.289,0,0.579-0.11,0.8-0.331
		c0.442-0.442,0.442-1.158,0-1.6l-5.233-5.233l5.233-5.233C198.59,407.01,198.59,406.294,198.148,405.852z"/>
</g>
</svg>
