<?xml version="1.0" encoding="iso-8859-1"?>
<!-- Generator: Adobe Illustrator 21.1.0, SVG Export Plug-In . SVG Version: 6.00 Build 0)  -->
<svg version="1.1" id="&#x421;&#x43B;&#x43E;&#x439;_1"
	 xmlns="http://www.w3.org/2000/svg" xmlns:xlink="http://www.w3.org/1999/xlink" x="0px" y="0px" viewBox="0 0 40 40"
	 style="enable-background:new 0 0 40 40;" xml:space="preserve">
<g>
	<path style="fill:#FFFFFF;" d="M37.551,1.633h-6.122V0h-1.633v1.633H9.388V0H7.755v1.633H2.449C1.099,1.633,0,2.731,0,4.082v35.102
		C0,39.634,0.366,40,0.816,40h38.367C39.634,40,40,39.634,40,39.184V4.082C40,2.731,38.901,1.633,37.551,1.633L37.551,1.633z
		 M30.612,5.714c0.45,0,0.816,0.366,0.816,0.816c0,0.45-0.366,0.816-0.816,0.816c-0.45,0-0.816-0.366-0.816-0.816
		C29.796,6.081,30.162,5.714,30.612,5.714L30.612,5.714z M8.571,5.714c0.45,0,0.816,0.366,0.816,0.816
		c0,0.45-0.366,0.816-0.816,0.816c-0.45,0-0.816-0.366-0.816-0.816C7.755,6.081,8.121,5.714,8.571,5.714L8.571,5.714z
		 M38.367,38.367H1.633V12.245h36.735V38.367z M38.367,10.612H1.633V4.082c0-0.45,0.366-0.816,0.816-0.816h5.306v0.957
		c-0.95,0.337-1.633,1.244-1.633,2.309c0,1.35,1.099,2.449,2.449,2.449s2.449-1.099,2.449-2.449c0-1.064-0.682-1.971-1.633-2.309
		V3.265h20.408v0.957c-0.95,0.337-1.633,1.244-1.633,2.309c0,1.35,1.099,2.449,2.449,2.449c1.35,0,2.449-1.099,2.449-2.449
		c0-1.064-0.682-1.971-1.633-2.309V3.265h6.122c0.45,0,0.816,0.366,0.816,0.816V10.612z M38.367,10.612"/>
	<rect x="17.551" y="5.714" style="fill:#FFFFFF;" width="4.898" height="1.633"/>
	<rect x="23.673" y="5.714" style="fill:#FFFFFF;" width="1.633" height="1.633"/>
	<rect x="14.694" y="5.714" style="fill:#FFFFFF;" width="1.633" height="1.633"/>
	<path style="fill:#FFFFFF;" d="M14.286,20.408h3.265c0.9,0,1.633-0.732,1.633-1.633V15.51c0-0.9-0.732-1.633-1.633-1.633h-3.265
		c-0.9,0-1.633,0.732-1.633,1.633v3.265C12.653,19.676,13.385,20.408,14.286,20.408L14.286,20.408z M14.286,15.51h3.265v3.265
		h-3.265V15.51z M14.286,15.51"/>
	<path style="fill:#FFFFFF;" d="M22.449,20.408h3.265c0.9,0,1.633-0.732,1.633-1.633V15.51c0-0.9-0.732-1.633-1.633-1.633h-3.265
		c-0.9,0-1.633,0.732-1.633,1.633v3.265C20.816,19.676,21.549,20.408,22.449,20.408L22.449,20.408z M22.449,15.51h3.265v3.265
		h-3.265V15.51z M22.449,15.51"/>
	<path style="fill:#FFFFFF;" d="M6.122,20.408h3.265c0.9,0,1.633-0.732,1.633-1.633V15.51c0-0.9-0.732-1.633-1.633-1.633H6.122
		c-0.9,0-1.633,0.732-1.633,1.633v3.265C4.49,19.676,5.222,20.408,6.122,20.408L6.122,20.408z M6.122,15.51h3.265v3.265H6.122V15.51
		z M6.122,15.51"/>
	<path style="fill:#FFFFFF;" d="M30.612,28.163h3.265c0.9,0,1.633-0.732,1.633-1.633v-3.265c0-0.9-0.732-1.633-1.633-1.633h-3.265
		c-0.9,0-1.633,0.732-1.633,1.633v3.265C28.98,27.431,29.712,28.163,30.612,28.163L30.612,28.163z M30.612,23.265h3.265v3.265
		h-3.265V23.265z M30.612,23.265"/>
	<path style="fill:#FFFFFF;" d="M6.122,28.163h3.265c0.9,0,1.633-0.732,1.633-1.633v-3.265c0-0.9-0.732-1.633-1.633-1.633H6.122
		c-0.9,0-1.633,0.732-1.633,1.633v3.265C4.49,27.431,5.222,28.163,6.122,28.163L6.122,28.163z M6.122,23.265h3.265v3.265H6.122
		V23.265z M6.122,23.265"/>
	<path style="fill:#FFFFFF;" d="M14.286,35.918h3.265c0.9,0,1.633-0.732,1.633-1.633V31.02c0-0.9-0.732-1.633-1.633-1.633h-3.265
		c-0.9,0-1.633,0.732-1.633,1.633v3.265C12.653,35.186,13.385,35.918,14.286,35.918L14.286,35.918z M14.286,31.02h3.265v3.265
		h-3.265V31.02z M14.286,31.02"/>
	<path style="fill:#FFFFFF;" d="M22.449,35.918h3.265c0.9,0,1.633-0.732,1.633-1.633V31.02c0-0.9-0.732-1.633-1.633-1.633h-3.265
		c-0.9,0-1.633,0.732-1.633,1.633v3.265C20.816,35.186,21.549,35.918,22.449,35.918L22.449,35.918z M22.449,31.02h3.265v3.265
		h-3.265V31.02z M22.449,31.02"/>
	<path style="fill:#FFFFFF;" d="M30.612,35.918h3.265c0.9,0,1.633-0.732,1.633-1.633V31.02c0-0.9-0.732-1.633-1.633-1.633h-3.265
		c-0.9,0-1.633,0.732-1.633,1.633v3.265C28.98,35.186,29.712,35.918,30.612,35.918L30.612,35.918z M30.612,31.02h3.265v3.265h-3.265
		V31.02z M30.612,31.02"/>
	<path style="fill:#FFFFFF;" d="M30.612,20.408h3.265c0.9,0,1.633-0.732,1.633-1.633V15.51c0-0.9-0.732-1.633-1.633-1.633h-3.265
		c-0.9,0-1.633,0.732-1.633,1.633v3.265C28.98,19.676,29.712,20.408,30.612,20.408L30.612,20.408z M33.878,18.776h-2.111
		l2.111-2.111V18.776z M30.612,15.51h2.111l-2.111,2.111V15.51z M30.612,15.51"/>
	<path style="fill:#FFFFFF;" d="M14.286,28.163h3.265c0.9,0,1.633-0.732,1.633-1.633v-3.265c0-0.9-0.732-1.633-1.633-1.633h-3.265
		c-0.9,0-1.633,0.732-1.633,1.633v3.265C12.653,27.431,13.385,28.163,14.286,28.163L14.286,28.163z M17.551,26.531H15.44
		l2.111-2.111V26.531z M14.286,23.265h2.111l-2.111,2.111V23.265z M14.286,23.265"/>
	<path style="fill:#FFFFFF;" d="M22.449,28.163h3.265c0.9,0,1.633-0.732,1.633-1.633v-3.265c0-0.9-0.732-1.633-1.633-1.633h-3.265
		c-0.9,0-1.633,0.732-1.633,1.633v3.265C20.816,27.431,21.549,28.163,22.449,28.163L22.449,28.163z M25.714,26.531h-2.111
		l2.111-2.111V26.531z M22.449,23.265h2.111l-2.111,2.111V23.265z M22.449,23.265"/>
	<path style="fill:#FFFFFF;" d="M6.122,35.918h3.265c0.9,0,1.633-0.732,1.633-1.633V31.02c0-0.9-0.732-1.633-1.633-1.633H6.122
		c-0.9,0-1.633,0.732-1.633,1.633v3.265C4.49,35.186,5.222,35.918,6.122,35.918L6.122,35.918z M9.388,34.286H7.377l2.011-1.828
		V34.286z M6.122,31.02h2.419l-2.419,2.199V31.02z M6.122,31.02"/>
</g>
</svg>
