<?xml version="1.0" encoding="iso-8859-1"?>
<!-- Generator: Adobe Illustrator 21.1.0, SVG Export Plug-In . SVG Version: 6.00 Build 0)  -->
<svg version="1.1" id="&#x421;&#x43B;&#x43E;&#x439;_1"
	 xmlns="http://www.w3.org/2000/svg" xmlns:xlink="http://www.w3.org/1999/xlink" x="0px" y="0px" viewBox="0 0 70 70"
	 style="enable-background:new 0 0 70 70;" xml:space="preserve">
<g>
	<path style="fill:#8B8B8B;" d="M65.714,2.857H55V0h-2.857v2.857H16.429V0h-2.857v2.857H4.286C1.922,2.857,0,4.78,0,7.143v61.429
		C0,69.36,0.64,70,1.429,70h67.143C69.36,70,70,69.36,70,68.571V7.143C70,4.78,68.077,2.857,65.714,2.857L65.714,2.857z M53.571,10
		C54.359,10,55,10.641,55,11.429c0,0.787-0.641,1.429-1.429,1.429c-0.788,0-1.429-0.641-1.429-1.429
		C52.143,10.641,52.784,10,53.571,10L53.571,10z M15,10c0.788,0,1.429,0.641,1.429,1.429c0,0.787-0.641,1.429-1.429,1.429
		c-0.787,0-1.429-0.641-1.429-1.429C13.571,10.641,14.212,10,15,10L15,10z M67.143,67.143H2.857V21.429h64.286V67.143z
		 M67.143,18.571H2.857V7.143c0-0.788,0.641-1.429,1.429-1.429h9.286v1.674c-1.663,0.59-2.857,2.178-2.857,4.04
		c0,2.363,1.922,4.286,4.286,4.286s4.286-1.922,4.286-4.286c0-1.862-1.194-3.45-2.857-4.04V5.714h35.714v1.674
		c-1.663,0.59-2.857,2.178-2.857,4.04c0,2.363,1.923,4.286,4.286,4.286c2.363,0,4.286-1.922,4.286-4.286
		c0-1.862-1.194-3.45-2.857-4.04V5.714h10.714c0.787,0,1.429,0.641,1.429,1.429V18.571z M67.143,18.571"/>
	<rect x="30.714" y="10" style="fill:#8B8B8B;" width="8.571" height="2.857"/>
	<rect x="41.429" y="10" style="fill:#8B8B8B;" width="2.857" height="2.857"/>
	<rect x="25.714" y="10" style="fill:#8B8B8B;" width="2.857" height="2.857"/>
	<path style="fill:#8B8B8B;" d="M25,35.714h5.714c1.576,0,2.857-1.281,2.857-2.857v-5.714c0-1.576-1.281-2.857-2.857-2.857H25
		c-1.576,0-2.857,1.281-2.857,2.857v5.714C22.143,34.433,23.424,35.714,25,35.714L25,35.714z M25,27.143h5.714v5.714H25V27.143z
		 M25,27.143"/>
	<path style="fill:#8B8B8B;" d="M39.286,35.714H45c1.576,0,2.857-1.281,2.857-2.857v-5.714c0-1.576-1.281-2.857-2.857-2.857h-5.714
		c-1.576,0-2.857,1.281-2.857,2.857v5.714C36.429,34.433,37.71,35.714,39.286,35.714L39.286,35.714z M39.286,27.143H45v5.714h-5.714
		V27.143z M39.286,27.143"/>
	<path style="fill:#8B8B8B;" d="M10.714,35.714h5.714c1.576,0,2.857-1.281,2.857-2.857v-5.714c0-1.576-1.281-2.857-2.857-2.857
		h-5.714c-1.576,0-2.857,1.281-2.857,2.857v5.714C7.857,34.433,9.139,35.714,10.714,35.714L10.714,35.714z M10.714,27.143h5.714
		v5.714h-5.714V27.143z M10.714,27.143"/>
	<path style="fill:#8B8B8B;" d="M53.571,49.286h5.714c1.576,0,2.857-1.281,2.857-2.857v-5.714c0-1.576-1.281-2.857-2.857-2.857
		h-5.714c-1.576,0-2.857,1.281-2.857,2.857v5.714C50.714,48.004,51.996,49.286,53.571,49.286L53.571,49.286z M53.571,40.714h5.714
		v5.714h-5.714V40.714z M53.571,40.714"/>
	<path style="fill:#8B8B8B;" d="M10.714,49.286h5.714c1.576,0,2.857-1.281,2.857-2.857v-5.714c0-1.576-1.281-2.857-2.857-2.857
		h-5.714c-1.576,0-2.857,1.281-2.857,2.857v5.714C7.857,48.004,9.139,49.286,10.714,49.286L10.714,49.286z M10.714,40.714h5.714
		v5.714h-5.714V40.714z M10.714,40.714"/>
	<path style="fill:#8B8B8B;" d="M25,62.857h5.714c1.576,0,2.857-1.281,2.857-2.857v-5.714c0-1.576-1.281-2.857-2.857-2.857H25
		c-1.576,0-2.857,1.281-2.857,2.857V60C22.143,61.576,23.424,62.857,25,62.857L25,62.857z M25,54.286h5.714V60H25V54.286z
		 M25,54.286"/>
	<path style="fill:#8B8B8B;" d="M39.286,62.857H45c1.576,0,2.857-1.281,2.857-2.857v-5.714c0-1.576-1.281-2.857-2.857-2.857h-5.714
		c-1.576,0-2.857,1.281-2.857,2.857V60C36.429,61.576,37.71,62.857,39.286,62.857L39.286,62.857z M39.286,54.286H45V60h-5.714
		V54.286z M39.286,54.286"/>
	<path style="fill:#8B8B8B;" d="M53.571,62.857h5.714c1.576,0,2.857-1.281,2.857-2.857v-5.714c0-1.576-1.281-2.857-2.857-2.857
		h-5.714c-1.576,0-2.857,1.281-2.857,2.857V60C50.714,61.576,51.996,62.857,53.571,62.857L53.571,62.857z M53.571,54.286h5.714V60
		h-5.714V54.286z M53.571,54.286"/>
	<path style="fill:#8B8B8B;" d="M53.571,35.714h5.714c1.576,0,2.857-1.281,2.857-2.857v-5.714c0-1.576-1.281-2.857-2.857-2.857
		h-5.714c-1.576,0-2.857,1.281-2.857,2.857v5.714C50.714,34.433,51.996,35.714,53.571,35.714L53.571,35.714z M59.286,32.857h-3.694
		l3.694-3.694V32.857z M53.571,27.143h3.694l-3.694,3.694V27.143z M53.571,27.143"/>
	<path style="fill:#8B8B8B;" d="M25,49.286h5.714c1.576,0,2.857-1.281,2.857-2.857v-5.714c0-1.576-1.281-2.857-2.857-2.857H25
		c-1.576,0-2.857,1.281-2.857,2.857v5.714C22.143,48.004,23.424,49.286,25,49.286L25,49.286z M30.714,46.429H27.02l3.694-3.694
		V46.429z M25,40.714h3.694L25,44.409V40.714z M25,40.714"/>
	<path style="fill:#8B8B8B;" d="M39.286,49.286H45c1.576,0,2.857-1.281,2.857-2.857v-5.714c0-1.576-1.281-2.857-2.857-2.857h-5.714
		c-1.576,0-2.857,1.281-2.857,2.857v5.714C36.429,48.004,37.71,49.286,39.286,49.286L39.286,49.286z M45,46.429h-3.694L45,42.734
		V46.429z M39.286,40.714h3.694l-3.694,3.694V40.714z M39.286,40.714"/>
	<path style="fill:#8B8B8B;" d="M10.714,62.857h5.714c1.576,0,2.857-1.281,2.857-2.857v-5.714c0-1.576-1.281-2.857-2.857-2.857
		h-5.714c-1.576,0-2.857,1.281-2.857,2.857V60C7.857,61.576,9.139,62.857,10.714,62.857L10.714,62.857z M16.429,60h-3.519
		l3.519-3.199V60z M10.714,54.286h4.233l-4.233,3.848V54.286z M10.714,54.286"/>
</g>
</svg>
