<?xml version="1.0" encoding="iso-8859-1"?>
<!-- Generator: Adobe Illustrator 21.1.0, SVG Export Plug-In . SVG Version: 6.00 Build 0)  -->
<svg version="1.1" id="&#x421;&#x43B;&#x43E;&#x439;_1"
	 xmlns="http://www.w3.org/2000/svg" xmlns:xlink="http://www.w3.org/1999/xlink" x="0px" y="0px" viewBox="0 0 30 30"
	 style="enable-background:new 0 0 30 30;" xml:space="preserve">
<g>
	<g>
		<defs>
			<rect id="SVGID_1_" width="30" height="30"/>
		</defs>
		<clipPath id="SVGID_2_">
			<use xlink:href="#SVGID_1_"  style="overflow:visible;"/>
		</clipPath>
		<path style="clip-path:url(#SVGID_2_);fill:#FFFFFF;" d="M29.922,4.936c-0.012-0.177-0.006-0.347-0.037-0.524
			c-0.043-0.347-0.122-0.689-0.238-1.024c-0.463-1.328-1.499-2.431-2.797-2.961c-0.165-0.061-0.329-0.128-0.494-0.177
			c-0.177-0.043-0.329-0.091-0.524-0.122L25.54,0.085l-0.146-0.018L25.29,0.061l-0.201-0.012l-0.097-0.006h-0.159l-1.59,0.006
			l-3.181,0.006C15.82,0.061,11.585,0.061,7.356,0.024c-0.75-0.006-1.932,0.207-2.303,0.354C4.315,0.676,5.272,0.926,6.704,1.115
			c4.723,0.628,10.451,0.902,16.283,0.975l1.316,0.019l0.616,0.006l0.329,0.018c0.091,0.012,0.146,0.03,0.226,0.036
			c0.64,0.128,1.261,0.5,1.676,1.018c0.42,0.524,0.64,1.176,0.628,1.84L27.74,7.66c-0.043,3.51-0.079,7.02-0.122,10.536
			c-0.012,1.755-0.024,3.516-0.036,5.271l-0.006,1.316c0.006,0.494-0.018,0.768-0.091,1.024c-0.146,0.591-0.512,1.127-1.012,1.481
			c-0.25,0.177-0.524,0.311-0.816,0.396c-0.146,0.043-0.299,0.067-0.451,0.091l-0.231,0.012c-0.085,0.006-0.213,0-0.317,0.006
			l-2.645,0.012c-1.761,0.018-3.528,0.037-5.29,0.055c-1.749-0.024-3.492-0.043-5.241-0.067l-4.156-0.037l-2.078-0.012H4.791
			l-0.262-0.012c-0.049,0-0.073-0.006-0.091-0.012L4.37,27.709c-0.079-0.006-0.201-0.049-0.317-0.073
			c-0.11-0.043-0.225-0.073-0.329-0.128C3.298,27.313,2.932,26.989,2.67,26.6c-0.256-0.396-0.408-0.847-0.42-1.316l-0.006-4.101
			c-0.006-2.767-0.024-5.533-0.055-8.294c-0.018-1.383-0.036-2.761-0.055-4.138L2.085,6.685L2.067,5.649L2.055,5.131V5.034
			l0.006-0.11c0.006-0.079,0-0.189,0.012-0.244c0.012-0.055,0.018-0.116,0.024-0.17c0.006-0.055,0.031-0.134,0.037-0.201
			c0.012-0.067,0.031-0.134,0.055-0.201C2.213,4.04,2.225,3.973,2.249,3.912c0.091-0.256,0.231-0.488,0.372-0.701
			C2.92,2.797,3.286,2.474,3.633,2.249C4.321,1.81,4.9,1.676,4.791,1.383c-0.049-0.116-0.231-0.25-0.548-0.305
			c-0.317-0.073-0.774-0.061-1.31,0.11C2.402,1.359,1.774,1.7,1.256,2.297C0.732,2.888,0.318,3.711,0.232,4.723L0.214,4.991
			L0.208,5.302L0.196,5.844l-0.03,1.085L0.129,9.104c-0.024,1.45-0.049,2.901-0.067,4.351c-0.043,2.901-0.067,5.808-0.061,8.708
			l0.006,1.749l0.006,0.877c0,0.152,0,0.28,0.006,0.451c0.012,0.183,0.006,0.365,0.043,0.548c0.098,0.731,0.366,1.438,0.78,2.047
			c0.414,0.603,0.969,1.115,1.609,1.475c0.159,0.092,0.329,0.165,0.494,0.244c0.171,0.061,0.341,0.134,0.518,0.183
			c0.183,0.043,0.341,0.098,0.554,0.122l0.299,0.043c0.104,0.012,0.152,0.006,0.231,0.012l0.268,0.012h0.22l0.439-0.006l0.871-0.006
			l3.498-0.031c4.662-0.043,9.324-0.091,13.985-0.134l0.786,0.03c0.134,0.006,0.25,0.012,0.408,0.012
			c0.158-0.006,0.317,0,0.475-0.018c0.64-0.055,1.268-0.25,1.834-0.567c1.133-0.628,2.005-1.761,2.297-3.059
			c0.165-0.804,0.11-1.225,0.14-1.773l0.037-1.579l0.055-3.163c0.061-4.217,0.085-8.446,0.085-12.687V5.156
			C29.928,5.095,29.928,5.034,29.922,4.936L29.922,4.936z M29.922,4.936"/>
	</g>
	<path style="fill:#FFFFFF;" d="M11.39,20.524c0.341,0.39,0.933,0.439,1.322,0.098l0.11-0.098c1.353-1.164,2.681-2.364,3.851-3.723
		c0.244-0.207,0.488-0.415,0.719-0.622c1.499-1.347,2.949-2.742,4.192-4.333c0.354-0.451,0.494-0.981,0.073-1.347
		c-0.384-0.329-0.932-0.311-1.389,0.061c-0.817,0.664-1.651,1.329-2.389,2.084c-1.188,1.213-2.303,2.492-3.443,3.741
		c-0.823,0.512-1.578,1.109-2.291,1.743c-0.945-0.938-1.907-1.853-2.797-2.834c-0.091-0.104-0.396-0.104-0.548-0.049
		c-0.305,0.116-0.359,0.415-0.311,0.738c0.158,1.054,0.701,1.986,1.395,2.785L11.39,20.524z M11.39,20.524"/>
</g>
</svg>
