<?xml version="1.0" encoding="iso-8859-1"?>
<!-- Generator: Adobe Illustrator 21.1.0, SVG Export Plug-In . SVG Version: 6.00 Build 0)  -->
<svg version="1.1" id="&#x421;&#x43B;&#x43E;&#x439;_1"
	 xmlns="http://www.w3.org/2000/svg" xmlns:xlink="http://www.w3.org/1999/xlink" x="0px" y="0px" viewBox="0 0 62.358 70"
	 style="enable-background:new 0 0 62.358 70;" xml:space="preserve">
<g>
	<path style="fill:#8B8B8B;" d="M19.914,43.136c0,1.362-1.104,2.466-2.467,2.466c-1.362,0-2.466-1.104-2.466-2.466
		c0-1.362,1.104-2.466,2.466-2.466C18.809,40.67,19.914,41.774,19.914,43.136L19.914,43.136z M19.914,43.136"/>
	<path style="fill:#8B8B8B;" d="M47.199,43.136c0,1.362-1.104,2.466-2.466,2.466c-1.362,0-2.466-1.104-2.466-2.466
		c0-1.362,1.104-2.466,2.466-2.466C46.095,40.67,47.199,41.774,47.199,43.136L47.199,43.136z M47.199,43.136"/>
	<path style="fill:#8B8B8B;" d="M17.447,35.227c-1.347,0-2.614,0.524-3.566,1.476c-0.515,0.515-0.515,1.35,0,1.864
		c0.515,0.515,1.349,0.514,1.863,0c0.454-0.455,1.06-0.706,1.702-0.706c0.643,0,1.248,0.251,1.703,0.706
		c0.257,0.257,0.594,0.386,0.932,0.385c0.337,0,0.674-0.129,0.931-0.385c0.515-0.515,0.515-1.35,0-1.864
		C20.061,35.751,18.795,35.227,17.447,35.227L17.447,35.227z M17.447,35.227"/>
	<path style="fill:#8B8B8B;" d="M41.167,36.703c-0.515,0.515-0.515,1.35,0,1.864c0.515,0.515,1.349,0.514,1.863,0
		c0.938-0.939,2.467-0.939,3.406,0c0.257,0.257,0.594,0.385,0.932,0.385c0.337,0,0.674-0.129,0.931-0.385
		c0.515-0.515,0.515-1.35,0-1.864C46.333,34.738,43.133,34.737,41.167,36.703L41.167,36.703z M41.167,36.703"/>
	<g>
		<defs>
			<rect id="SVGID_1_" width="62.358" height="70"/>
		</defs>
		<clipPath id="SVGID_2_">
			<use xlink:href="#SVGID_1_"  style="overflow:visible;"/>
		</clipPath>
		<path style="clip-path:url(#SVGID_2_);fill:#8B8B8B;" d="M33.628,53.607c-0.678,0.678-1.579,1.051-2.538,1.051
			c-0.958,0-1.859-0.373-2.537-1.051c-0.515-0.514-1.349-0.514-1.863,0c-0.515,0.515-0.515,1.349,0,1.863
			c1.176,1.176,2.738,1.823,4.402,1.823c1.662,0,3.225-0.647,4.401-1.823c0.515-0.514,0.515-1.349,0-1.863
			C34.977,53.094,34.143,53.094,33.628,53.607L33.628,53.607z M33.628,53.607"/>
		<path style="clip-path:url(#SVGID_2_);fill:#8B8B8B;" d="M62.181,41.865c0-3.58-2.587-6.564-5.99-7.187V12.635
			c0-2.859-1.423-5.511-3.806-7.092c-2.237-1.485-5.016-1.822-7.528-0.936l-8.272-2.808c-6.357-2.158-13.048-2.379-19.35-0.64
			C8.983,3.436,4.254,8.249,3.523,15.091c-0.646,0.852-1.16,1.809-1.508,2.842l-0.642,1.9c-0.345,1.02,0.035,2.091,0.945,2.666
			c0.91,0.575,2.04,0.459,2.814-0.289c0.264-0.256,0.553-0.471,0.857-0.651v13.12C2.587,35.301,0,38.285,0,41.865
			c0,3.723,2.799,6.801,6.402,7.249c0.905,4.997,3.283,9.606,6.919,13.294c4.747,4.815,11.057,7.467,17.77,7.467h0.003
			c6.703-0.001,13.006-2.612,17.746-7.352c3.703-3.703,6.106-8.358,6.981-13.415C59.403,48.642,62.181,45.572,62.181,41.865
			L62.181,41.865z M50.928,7.74c1.67,1.107,2.627,2.892,2.627,4.895v17.243c-4.089-0.636-7.23-4.181-7.23-8.446L46.216,6.944
			C47.825,6.521,49.503,6.794,50.928,7.74L50.928,7.74z M4.256,19.535l0.256-0.758c0.671-1.986,2.161-3.597,4.087-4.422
			c1.927-0.825,4.121-0.791,6.021,0.094c3.99,1.859,8.813,0.854,11.73-2.443l0.326-0.369c0.483-0.545,0.432-1.378-0.113-1.86
			c-0.545-0.482-1.378-0.431-1.86,0.113l-0.327,0.369c-2.149,2.43-5.704,3.17-8.644,1.801c-2.577-1.201-5.556-1.247-8.171-0.128
			c-0.238,0.102-0.469,0.216-0.697,0.335c1.532-4.083,5.239-6.958,11.071-8.567c5.791-1.598,11.947-1.392,17.802,0.595l7.844,2.663
			l0.103,6.808c-3.493,4.749-8.587,7.964-14.391,9.068c-5.944,1.132-12.007-0.065-17.074-3.372
			C9.743,17.847,6.622,17.916,4.256,19.535L4.256,19.535z M2.635,41.865c0-2.119,1.418-3.912,3.354-4.482v7.142
			c0,0.617,0.022,1.23,0.065,1.84C4.086,45.816,2.635,44.007,2.635,41.865L2.635,41.865z M46.976,60.66
			c-4.242,4.242-9.883,6.579-15.883,6.579H31.09c-6,0-11.645-2.373-15.893-6.682c-4.237-4.299-6.571-9.993-6.571-16.033V20.936
			c0.746,0.056,1.486,0.298,2.153,0.733c5.641,3.68,12.391,5.014,19.007,3.754c5.371-1.023,10.196-3.667,13.904-7.567v3.576
			c0,5.72,4.318,10.449,9.865,11.103v12.239C53.555,50.775,51.219,56.416,46.976,60.66L46.976,60.66z M56.14,46.361
			c0.032-0.526,0.051-1.054,0.051-1.587v-7.391c1.937,0.57,3.354,2.363,3.354,4.482C59.545,44.002,58.102,45.807,56.14,46.361
			L56.14,46.361z M56.14,46.361"/>
	</g>
</g>
</svg>
