<?xml version="1.0" encoding="iso-8859-1"?>
<!-- Generator: Adobe Illustrator 21.1.0, SVG Export Plug-In . SVG Version: 6.00 Build 0)  -->
<svg version="1.1" id="&#x421;&#x43B;&#x43E;&#x439;_1"
	 xmlns="http://www.w3.org/2000/svg" xmlns:xlink="http://www.w3.org/1999/xlink" x="0px" y="0px" viewBox="0 0 70 70"
	 style="enable-background:new 0 0 70 70;" xml:space="preserve">
<g>
	<path style="fill:#9CC4FF;" d="M68.894,21.737c0,11.395-9.237,20.631-20.631,20.631c-1.582,0-3.123-0.178-4.603-0.516
		c-1.173,7.8-7.903,13.779-16.029,13.779c-8.953,0-16.21-7.258-16.21-16.21c0-0.708,0.045-1.405,0.133-2.089
		C5.352,34.161,1.106,27.707,1.106,20.263c0-10.58,8.578-19.157,19.158-19.157c5.367,0,10.218,2.208,13.696,5.764
		c3.709-3.57,8.75-5.764,14.303-5.764C59.657,1.106,68.894,10.343,68.894,21.737L68.894,21.737z M20.263,64.473
		c0-2.441-1.979-4.421-4.421-4.421s-4.421,1.979-4.421,4.421c0,2.442,1.979,4.421,4.421,4.421S20.263,66.915,20.263,64.473
		L20.263,64.473z M20.263,64.473"/>
	<path style="fill:#87A1FF;" d="M68.894,21.737c0,11.395-9.237,20.631-20.631,20.631c-1.582,0-3.123-0.178-4.603-0.516
		c-1.173,7.8-7.903,13.779-16.029,13.779c-8.953,0-16.21-7.258-16.21-16.21c0-0.694,0.044-1.378,0.129-2.049
		c1.367,0.374,2.806,0.575,4.292,0.575c8.126,0,14.856-5.98,16.029-13.779c1.48,0.337,3.021,0.516,4.603,0.516
		c11.394,0,20.631-9.237,20.631-20.631c0-0.326-0.009-0.65-0.023-0.972C64.064,6.387,68.894,13.498,68.894,21.737L68.894,21.737z
		 M17.126,60.242c0.123,0.407,0.19,0.838,0.19,1.284c0,2.441-1.979,4.421-4.421,4.421c-0.447,0-0.878-0.067-1.284-0.19
		c0.55,1.815,2.236,3.137,4.231,3.137c2.441,0,4.421-1.979,4.421-4.421C20.263,62.478,18.941,60.792,17.126,60.242L17.126,60.242z
		 M17.126,60.242"/>
	<path style="fill:#B6006F;" d="M25.358,25.285c-1.594,1.594-4.179,1.594-5.774,0l-7.216-7.217c-1.594-1.594-1.594-4.179,0-5.774
		c1.594-1.594,4.179-1.594,5.773,0l7.217,7.217C26.952,21.105,26.952,23.69,25.358,25.285L25.358,25.285z M25.358,25.285"/>
	<path style="fill:#697900;" d="M25.358,12.294c1.594,1.595,1.594,4.18,0,5.774l-7.217,7.217c-1.594,1.594-4.179,1.594-5.773,0
		c-1.594-1.595-1.594-4.18,0-5.774l7.216-7.217C21.179,10.7,23.764,10.7,25.358,12.294L25.358,12.294z M25.358,12.294"/>
	<path style="fill:#859300;" d="M18.863,13.016l5.774,5.773l-5.774,5.774l-5.773-5.774L18.863,13.016z M18.863,13.016"/>
	<path style="fill:#FF5200;" d="M59.473,16.527v9.977c0,0.878-0.562,1.657-1.395,1.935l-10.842,3.614l-10.842-3.614
		C35.561,28.161,35,27.382,35,26.504v-9.977c0-1.392,1.364-2.375,2.684-1.935l9.552,3.184l9.552-3.184
		C58.109,14.152,59.473,15.135,59.473,16.527L59.473,16.527z M59.473,16.527"/>
	<path style="fill:#FFC02C;" d="M59.473,16.527v9.977c0,0.878-0.562,1.657-1.395,1.935l-10.842,3.614V17.777l9.552-3.184
		C58.109,14.152,59.473,15.135,59.473,16.527L59.473,16.527z M59.473,16.527"/>
	<path style="fill:#FFFFFF;" d="M21.074,18.789c0,1.221-0.99,2.21-2.211,2.21c-1.22,0-2.21-0.989-2.21-2.21
		c0-1.221,0.99-2.21,2.21-2.21C20.084,16.579,21.074,17.568,21.074,18.789L21.074,18.789z M21.074,18.789"/>
	<path d="M42.537,7.779c0.355-0.497,1.044-0.613,1.542-0.259l0.119,0.085c0.497,0.354,0.614,1.044,0.259,1.542
		c-0.216,0.303-0.555,0.464-0.901,0.464c-0.222,0-0.445-0.067-0.64-0.205L42.797,9.32C42.299,8.966,42.183,8.276,42.537,7.779
		L42.537,7.779z M45.857,11.501l0.119,0.085c0.195,0.138,0.419,0.205,0.64,0.205c0.346,0,0.686-0.161,0.901-0.464
		c0.354-0.497,0.238-1.188-0.259-1.541L47.139,9.7c-0.497-0.354-1.188-0.238-1.542,0.259C45.243,10.456,45.359,11.146,45.857,11.501
		L45.857,11.501z M21.368,64.473c0,3.047-2.479,5.527-5.526,5.527s-5.526-2.479-5.526-5.527c0-3.047,2.479-5.526,5.526-5.526
		S21.368,61.426,21.368,64.473L21.368,64.473z M19.158,64.473c0-1.828-1.487-3.316-3.316-3.316c-1.828,0-3.316,1.488-3.316,3.316
		c0,1.828,1.487,3.316,3.316,3.316C17.67,67.789,19.158,66.302,19.158,64.473L19.158,64.473z M8.621,28H8.473
		c-0.61,0-1.105,0.495-1.105,1.106c0,0.61,0.495,1.105,1.105,1.105h0.147c0.611,0,1.106-0.495,1.106-1.105
		C9.726,28.494,9.231,28,8.621,28L8.621,28z M48.422,7.9l0.12,0.085c0.194,0.139,0.418,0.206,0.64,0.206
		c0.345,0,0.686-0.162,0.901-0.465c0.354-0.497,0.238-1.187-0.26-1.541L49.705,6.1c-0.497-0.354-1.188-0.238-1.542,0.259
		C47.809,6.856,47.925,7.546,48.422,7.9L48.422,7.9z M33.673,38.316h-0.147c-0.61,0-1.105,0.495-1.105,1.105
		c0,0.611,0.495,1.106,1.105,1.106h0.147c0.61,0,1.106-0.495,1.106-1.106C34.779,38.811,34.284,38.316,33.673,38.316L33.673,38.316z
		 M35,32.421h-4.292c-1.435,0-2.704,0.914-3.158,2.276l-3.408,10.223c-0.152,0.458-0.578,0.765-1.06,0.765
		c-0.417,0-0.796-0.23-0.99-0.6l-3.797-7.248c-0.283-0.541-0.951-0.75-1.492-0.466c-0.541,0.283-0.749,0.951-0.466,1.492
		l3.797,7.248c0.576,1.1,1.706,1.784,2.948,1.784c1.435,0,2.704-0.915,3.158-2.276l3.407-10.223
		c0.153-0.457,0.579-0.764,1.061-0.764H35c0.61,0,1.105-0.495,1.105-1.106C36.105,32.916,35.61,32.421,35,32.421L35,32.421z
		 M60.578,16.527v9.977c0,1.356-0.864,2.554-2.15,2.983l-10.842,3.613c-0.002,0.001-0.004,0.001-0.005,0.001
		c-0.049,0.017-0.101,0.028-0.152,0.037c-0.005,0.001-0.011,0.003-0.017,0.004c-0.057,0.009-0.116,0.015-0.175,0.015
		c-0.037,0-0.073-0.005-0.11-0.009c-0.021-0.002-0.041-0.001-0.062-0.005c-0.018-0.003-0.037-0.009-0.055-0.013
		c-0.039-0.008-0.079-0.016-0.117-0.029c-0.002,0-0.004-0.001-0.006-0.001l-10.842-3.613c-1.286-0.429-2.15-1.627-2.15-2.983v-9.977
		c0-1.023,0.476-1.953,1.306-2.551c0.83-0.598,1.862-0.756,2.833-0.433l9.202,3.067l9.203-3.067c0.97-0.323,2.003-0.166,2.833,0.433
		C60.102,14.574,60.578,15.504,60.578,16.527L60.578,16.527z M46.131,18.573l-8.797-2.932c-0.288-0.096-0.595-0.049-0.841,0.128
		c-0.247,0.178-0.388,0.454-0.388,0.758v9.977c0,0.402,0.256,0.759,0.638,0.886l9.387,3.129V18.573z M58.368,16.527
		c0-0.304-0.142-0.58-0.388-0.758c-0.246-0.178-0.554-0.224-0.842-0.128l-8.796,2.932v11.945l9.387-3.129
		c0.382-0.127,0.638-0.483,0.638-0.886V16.527z M70,21.737c0,11.986-9.751,21.737-21.737,21.737c-1.252,0-2.496-0.11-3.72-0.322
		c-1.733,7.907-8.751,13.585-16.912,13.585c-9.548,0-17.316-7.768-17.316-17.316c0-0.55,0.004-0.854,0.056-1.397
		c0.008-0.089-0.73-0.501-0.913-0.616C3.536,33.668,0,27.259,0,20.263C0,9.09,9.09,0,20.263,0c5.186,0,10.047,1.957,13.725,5.345
		C37.946,1.89,42.967,0,48.263,0C60.249,0,70,9.751,70,21.737L70,21.737z M67.789,21.737c0-10.767-8.759-19.526-19.526-19.526
		c-4.717,0-9.19,1.669-12.732,4.722c1.043,1.197,1.956,2.527,2.712,3.977c0.282,0.541,0.072,1.209-0.469,1.491
		c-0.541,0.282-1.209,0.072-1.491-0.469c-0.702-1.347-1.594-2.546-2.537-3.678c-0.56-0.673-1.158-1.189-1.235-1.26
		C29.232,3.962,24.894,2.21,20.263,2.21c-9.954,0-18.052,8.098-18.052,18.052c0,6.233,3.151,11.944,8.428,15.276
		c0.035,0.022,0.068,0.046,0.1,0.071c0.449-1.996,1.248-3.903,2.379-5.635c0.333-0.511,1.018-0.656,1.529-0.322
		c0.511,0.333,0.656,1.018,0.322,1.529c-1.598,2.451-2.442,5.299-2.442,8.238c0,8.329,6.776,15.105,15.105,15.105
		c7.124,0,13.247-4.959,14.753-11.863c-1.741-0.487-3.42-1.19-4.991-2.098c-0.021-0.012-1.214-0.533-1.214-1.144
		c0-0.61,0.495-1.105,1.105-1.105h0.147c0.232,0,0.928,0.254,1.069,0.335c2.954,1.709,6.33,2.611,9.763,2.611
		C59.03,41.263,67.789,32.504,67.789,21.737L67.789,21.737z M21.737,33.894c-0.61,0-1.105,0.495-1.105,1.106
		c0,0.61,0.495,1.105,1.105,1.105h0.148c0.61,0,1.105-0.495,1.105-1.105c0-0.611-0.495-1.106-1.105-1.106H21.737z M33.673,42.736
		h-0.147c-0.61,0-1.105,0.495-1.105,1.106c0,0.61,0.495,1.105,1.105,1.105h0.147c0.61,0,1.106-0.495,1.106-1.105
		C34.779,43.231,34.284,42.736,33.673,42.736L33.673,42.736z M18.863,26.123c-1.003,0.972-2.305,1.46-3.608,1.46
		c-1.329,0-2.656-0.506-3.668-1.517c-2.003-2.003-2.021-5.249-0.057-7.276c-1.964-2.027-1.946-5.273,0.057-7.276
		c2.003-2.003,5.25-2.021,7.276-0.057c2.027-1.965,5.274-1.947,7.277,0.057c2.003,2.003,2.021,5.25,0.057,7.276
		c1.964,2.028,1.946,5.274-0.057,7.276c-1.012,1.011-2.34,1.517-3.668,1.517C21.169,27.583,19.867,27.095,18.863,26.123
		L18.863,26.123z M24.633,20.355L20.43,24.56c1.165,1.101,3.007,1.083,4.147-0.057C25.717,23.362,25.734,21.52,24.633,20.355
		L24.633,20.355z M20.429,13.019l4.204,4.204c1.101-1.165,1.083-3.007-0.057-4.148C23.436,11.935,21.594,11.918,20.429,13.019
		L20.429,13.019z M18.863,14.579l-4.21,4.21l4.21,4.21l4.21-4.21L18.863,14.579z M13.092,17.223l4.204-4.204
		c-0.572-0.54-1.307-0.814-2.042-0.814c-0.762,0-1.525,0.29-2.106,0.871C12.009,14.216,11.992,16.058,13.092,17.223L13.092,17.223z
		 M17.297,24.56l-4.204-4.204c-1.101,1.165-1.084,3.007,0.057,4.148C14.29,25.643,16.132,25.661,17.297,24.56L17.297,24.56z
		 M18.789,19.895h0.148c0.61,0,1.105-0.495,1.105-1.106c0-0.611-0.495-1.105-1.105-1.105h-0.148c-0.61,0-1.105,0.495-1.105,1.105
		C17.684,19.4,18.179,19.895,18.789,19.895L18.789,19.895z M18.789,19.895"/>
</g>
</svg>
