<?xml version="1.0" encoding="iso-8859-1"?>
<!-- Generator: Adobe Illustrator 21.1.0, SVG Export Plug-In . SVG Version: 6.00 Build 0)  -->
<svg version="1.1" id="&#x421;&#x43B;&#x43E;&#x439;_1"
	 xmlns="http://www.w3.org/2000/svg" xmlns:xlink="http://www.w3.org/1999/xlink" x="0px" y="0px" viewBox="0 0 70 70"
	 style="enable-background:new 0 0 70 70;" xml:space="preserve">
<g>
	<path style="fill:#8B8B8B;" d="M35,30.335c4.506,0,8.17-3.663,8.17-8.17c0-4.5-3.663-8.162-8.17-8.162s-8.17,3.662-8.17,8.162
		C26.83,26.672,30.494,30.335,35,30.335L35,30.335z M35,16.332c3.218,0,5.833,2.621,5.833,5.833c0,3.218-2.615,5.833-5.833,5.833
		c-3.219,0-5.833-2.615-5.833-5.833C29.167,18.953,31.781,16.332,35,16.332L35,16.332z M35,16.332"/>
	<path style="fill:#8B8B8B;" d="M34.794,63.882l17.9-25.852c6.71-8.95,5.741-23.659-2.08-31.474C46.388,2.33,40.771,0,34.794,0
		C28.82,0,23.196,2.33,18.976,6.551c-7.822,7.821-8.797,22.53-2.109,31.446L34.794,63.882z M20.622,8.203
		c3.787-3.783,8.819-5.867,14.172-5.867c5.349,0,10.385,2.084,14.168,5.867c7.058,7.058,7.93,20.342,1.835,28.467L34.794,59.786
		l-16.03-23.151C12.698,28.545,13.564,15.261,20.622,8.203L20.622,8.203z M20.622,8.203"/>
	<path style="fill:#8B8B8B;" d="M49.139,50.175c-0.643-0.079-1.225,0.382-1.298,1.019c-0.074,0.645,0.381,1.219,1.025,1.299
		c12.265,1.441,18.798,5.332,18.798,7.588c0,3.168-12.424,7.582-32.664,7.582c-20.24,0-32.664-4.414-32.664-7.582
		c0-2.256,6.533-6.147,18.798-7.588c0.645-0.08,1.1-0.661,1.025-1.299c-0.079-0.637-0.655-1.098-1.298-1.019
		C8.579,51.622,0,55.695,0,60.082C0,65.01,12.02,70,35,70s35-4.99,35-9.918C70,55.695,61.421,51.622,49.139,50.175L49.139,50.175z
		 M49.139,50.175"/>
</g>
</svg>
