<?xml version="1.0" encoding="iso-8859-1"?>
<!-- Generator: Adobe Illustrator 21.1.0, SVG Export Plug-In . SVG Version: 6.00 Build 0)  -->
<svg version="1.1" id="&#x421;&#x43B;&#x43E;&#x439;_1"
	 xmlns="http://www.w3.org/2000/svg" xmlns:xlink="http://www.w3.org/1999/xlink" x="0px" y="0px" viewBox="0 0 25 28.064"
	 style="enable-background:new 0 0 25 28.064;" xml:space="preserve">
<g>
	<path d="M7.984,17.294c0,0.546-0.443,0.989-0.989,0.989c-0.546,0-0.989-0.443-0.989-0.989c0-0.546,0.443-0.989,0.989-0.989
		C7.541,16.305,7.984,16.748,7.984,17.294L7.984,17.294z M7.984,17.294"/>
	<path d="M18.923,17.294c0,0.546-0.443,0.989-0.989,0.989c-0.546,0-0.989-0.443-0.989-0.989c0-0.546,0.443-0.989,0.989-0.989
		C18.48,16.305,18.923,16.748,18.923,17.294L18.923,17.294z M18.923,17.294"/>
	<path d="M6.995,14.123c-0.54,0-1.048,0.21-1.43,0.592c-0.206,0.206-0.206,0.541,0,0.747c0.206,0.206,0.541,0.206,0.747,0
		c0.182-0.182,0.425-0.283,0.683-0.283c0.258,0,0.5,0.101,0.683,0.283c0.103,0.103,0.238,0.155,0.374,0.154
		c0.135,0,0.27-0.052,0.373-0.154c0.206-0.206,0.206-0.541,0-0.747C8.043,14.333,7.535,14.123,6.995,14.123L6.995,14.123z
		 M6.995,14.123"/>
	<path d="M16.504,14.715c-0.206,0.206-0.206,0.541,0,0.747c0.206,0.206,0.541,0.206,0.747,0c0.376-0.377,0.989-0.377,1.365,0
		c0.103,0.103,0.238,0.154,0.374,0.154c0.135,0,0.27-0.052,0.373-0.154c0.206-0.206,0.206-0.541,0-0.747
		C18.576,13.927,17.293,13.927,16.504,14.715L16.504,14.715z M16.504,14.715"/>
	<g>
		<defs>
			<rect id="SVGID_1_" width="25" height="28.064"/>
		</defs>
		<clipPath id="SVGID_2_">
			<use xlink:href="#SVGID_1_"  style="overflow:visible;"/>
		</clipPath>
		<path style="clip-path:url(#SVGID_2_);" d="M13.482,21.492c-0.272,0.272-0.633,0.421-1.018,0.421c-0.384,0-0.745-0.15-1.017-0.421
			c-0.206-0.206-0.541-0.206-0.747,0c-0.206,0.206-0.206,0.541,0,0.747c0.471,0.471,1.098,0.731,1.765,0.731
			c0.666,0,1.293-0.26,1.764-0.731c0.206-0.206,0.206-0.541,0-0.747C14.023,21.286,13.688,21.286,13.482,21.492L13.482,21.492z
			 M13.482,21.492"/>
		<path style="clip-path:url(#SVGID_2_);" d="M24.929,16.784c0-1.435-1.037-2.632-2.401-2.881V5.066c0-1.146-0.57-2.209-1.526-2.843
			c-0.897-0.595-2.011-0.73-3.018-0.375l-3.316-1.126c-2.548-0.865-5.231-0.954-7.758-0.257C3.602,1.377,1.705,3.307,1.413,6.05
			C1.154,6.392,0.948,6.776,0.808,7.19L0.551,7.951C0.412,8.36,0.565,8.79,0.93,9.02c0.365,0.231,0.818,0.184,1.128-0.116
			C2.163,8.802,2.28,8.715,2.401,8.643v5.26C1.037,14.153,0,15.349,0,16.784c0,1.493,1.122,2.727,2.567,2.906
			c0.363,2.003,1.316,3.851,2.774,5.33c1.903,1.93,4.433,2.994,7.124,2.994h0.001c2.687,0,5.214-1.047,7.115-2.948
			c1.484-1.484,2.448-3.351,2.799-5.378C23.816,19.501,24.929,18.271,24.929,16.784L24.929,16.784z M20.418,3.103
			c0.669,0.444,1.053,1.159,1.053,1.963v6.913c-1.64-0.255-2.899-1.676-2.899-3.386l-0.044-5.809
			C19.174,2.614,19.847,2.724,20.418,3.103L20.418,3.103z M1.706,7.832l0.103-0.304c0.269-0.796,0.866-1.442,1.639-1.773
			C4.22,5.424,5.099,5.438,5.861,5.793c1.6,0.745,3.533,0.342,4.703-0.979l0.131-0.148c0.193-0.219,0.173-0.553-0.045-0.746
			c-0.219-0.193-0.552-0.173-0.746,0.045L9.773,4.113C8.911,5.087,7.486,5.384,6.307,4.835c-1.033-0.481-2.228-0.5-3.276-0.051
			C2.936,4.825,2.843,4.87,2.752,4.918c0.614-1.637,2.1-2.79,4.438-3.435c2.322-0.641,4.79-0.558,7.137,0.239l3.145,1.068
			l0.041,2.729c-1.4,1.904-3.443,3.193-5.77,3.636C9.361,9.608,6.93,9.128,4.899,7.802C3.906,7.155,2.655,7.183,1.706,7.832
			L1.706,7.832z M1.057,16.784c0-0.85,0.568-1.568,1.345-1.797v2.864c0,0.247,0.009,0.493,0.026,0.738
			C1.638,18.368,1.057,17.643,1.057,16.784L1.057,16.784z M18.833,24.319c-1.701,1.701-3.962,2.638-6.368,2.638h-0.001
			c-2.406,0-4.669-0.951-6.372-2.679c-1.699-1.724-2.634-4.006-2.634-6.428V8.394c0.299,0.023,0.596,0.119,0.863,0.294
			c2.261,1.475,4.968,2.01,7.62,1.505c2.153-0.41,4.088-1.47,5.574-3.034v1.434c0,2.293,1.731,4.189,3.955,4.451v4.907
			C21.471,20.356,20.534,22.618,18.833,24.319L18.833,24.319z M22.507,18.587c0.013-0.211,0.02-0.423,0.02-0.636v-2.963
			c0.776,0.229,1.345,0.947,1.345,1.797C23.872,17.641,23.294,18.365,22.507,18.587L22.507,18.587z M22.507,18.587"/>
	</g>
</g>
</svg>
