<?xml version="1.0" encoding="iso-8859-1"?>
<!-- Generator: Adobe Illustrator 21.1.0, SVG Export Plug-In . SVG Version: 6.00 Build 0)  -->
<svg version="1.1" id="&#x421;&#x43B;&#x43E;&#x439;_1"
	 xmlns="http://www.w3.org/2000/svg" xmlns:xlink="http://www.w3.org/1999/xlink" x="0px" y="0px" viewBox="0 0 25 22.528"
	 style="enable-background:new 0 0 25 22.528;" xml:space="preserve">
<g>
	<path d="M8.279,13.825c0,0.548-0.444,0.993-0.993,0.993c-0.548,0-0.993-0.444-0.993-0.993c0-0.548,0.444-0.993,0.993-0.993
		C7.835,12.832,8.279,13.277,8.279,13.825L8.279,13.825z M8.279,13.825"/>
	<path d="M18.706,13.825c0,0.548-0.444,0.993-0.993,0.993c-0.548,0-0.993-0.444-0.993-0.993c0-0.548,0.444-0.993,0.993-0.993
		C18.261,12.832,18.706,13.277,18.706,13.825L18.706,13.825z M18.706,13.825"/>
	<path d="M25,13.404c0-1.438-1.042-2.636-2.411-2.881v-0.434C22.589,4.526,18.063,0,12.5,0C6.937,0,2.411,4.526,2.411,10.089v0.434
		C1.042,10.768,0,11.966,0,13.404c0,1.45,1.06,2.657,2.446,2.887c0.195,2.223,1.212,3.865,3.032,4.886
		c1.619,0.909,3.915,1.35,7.022,1.35c3.106,0,5.403-0.442,7.022-1.35c1.82-1.022,2.837-2.664,3.032-4.886
		C23.94,16.061,25,14.854,25,13.404L25,13.404z M1.034,13.404c0-0.865,0.583-1.596,1.377-1.822v3.643
		C1.617,15,1.034,14.269,1.034,13.404L1.034,13.404z M21.556,15.478c0,2.27-0.831,3.839-2.54,4.799
		c-1.46,0.82-3.591,1.218-6.516,1.218c-2.924,0-5.056-0.398-6.516-1.218c-1.709-0.959-2.54-2.529-2.54-4.799v-5.389
		c0-4.089,2.725-7.554,6.454-8.674c2.841,0.036,4.354,2.087,4.354,3.572c0,1.137-0.925,2.063-2.063,2.063
		c-0.853,0-1.547-0.694-1.547-1.547c0-0.625,0.509-1.134,1.134-1.134c0.286,0,0.517-0.231,0.517-0.517
		c0-0.285-0.231-0.517-0.517-0.517c-1.195,0-2.167,0.972-2.167,2.168c0,1.423,1.158,2.58,2.58,2.58c1.707,0,3.096-1.389,3.096-3.096
		c0-1.073-0.539-2.226-1.442-3.087c-0.361-0.344-0.772-0.634-1.22-0.865c4.936,0.067,8.931,4.102,8.931,9.054V15.478z
		 M22.589,15.226v-3.644c0.794,0.226,1.377,0.957,1.377,1.822C23.966,14.269,23.383,15,22.589,15.226L22.589,15.226z M22.589,15.226
		"/>
	<path d="M14.498,15.248c-1.102,1.102-2.895,1.102-3.997,0c-0.202-0.202-0.529-0.202-0.731,0c-0.202,0.202-0.202,0.529,0,0.731
		c0.753,0.753,1.741,1.129,2.729,1.129c0.989,0,1.977-0.376,2.729-1.129c0.202-0.202,0.202-0.529,0-0.731
		C15.027,15.047,14.7,15.047,14.498,15.248L14.498,15.248z M14.498,15.248"/>
</g>
</svg>
