<?xml version="1.0" encoding="iso-8859-1"?>
<!-- Generator: Adobe Illustrator 21.1.0, SVG Export Plug-In . SVG Version: 6.00 Build 0)  -->
<svg version="1.1" id="&#x421;&#x43B;&#x43E;&#x439;_1"
	 xmlns="http://www.w3.org/2000/svg" xmlns:xlink="http://www.w3.org/1999/xlink" x="0px" y="0px" viewBox="0 0 70 70"
	 style="enable-background:new 0 0 70 70;" xml:space="preserve">
<g>
	<path style="fill:#ECF0F1;" d="M67.664,35c0,18.041-14.623,32.664-32.664,32.664C16.959,67.664,2.336,53.041,2.336,35
		C2.336,16.959,16.959,2.336,35,2.336C53.041,2.336,67.664,16.959,67.664,35L67.664,35z M67.664,35"/>
	<g>
		<defs>
			<rect id="SVGID_1_" width="70" height="70"/>
		</defs>
		<clipPath id="SVGID_2_">
			<use xlink:href="#SVGID_1_"  style="overflow:visible;"/>
		</clipPath>
		
			<path style="clip-path:url(#SVGID_2_);fill:none;stroke:#38454F;stroke-width:1.6;stroke-linecap:round;stroke-miterlimit:10;" d="
			M67.664,35c0,18.041-14.623,32.664-32.664,32.664C16.959,67.664,2.336,53.041,2.336,35S16.959,2.336,35,2.336
			C53.041,2.336,67.664,16.959,67.664,35L67.664,35z M67.664,35"/>
	</g>
	<path style="fill:#556080;" d="M35,59.501c-13.513,0-24.501-10.994-24.501-24.501c0-13.507,10.989-24.501,24.501-24.501
		c13.513,0,24.501,10.994,24.501,24.501C59.501,48.507,48.513,59.501,35,59.501L35,59.501z M35,59.501"/>
	<g>
		<defs>
			<rect id="SVGID_3_" width="70" height="70"/>
		</defs>
		<clipPath id="SVGID_4_">
			<use xlink:href="#SVGID_3_"  style="overflow:visible;"/>
		</clipPath>
		
			<path style="clip-path:url(#SVGID_4_);fill:none;stroke:#38454F;stroke-width:1.6;stroke-linecap:round;stroke-miterlimit:10;" d="
			M35,59.501c-13.513,0-24.501-10.994-24.501-24.501c0-13.507,10.989-24.501,24.501-24.501c13.513,0,24.501,10.994,24.501,24.501
			C59.501,48.507,48.513,59.501,35,59.501L35,59.501z M35,59.501"/>
	</g>
	<path style="fill:#E64C3C;" d="M35,51.332c-9.007,0-16.332-7.325-16.332-16.332c0-9.007,7.325-16.332,16.332-16.332
		c9.007,0,16.332,7.325,16.332,16.332C51.332,44.007,44.007,51.332,35,51.332L35,51.332z M35,51.332"/>
	<path style="fill:none;stroke:#38454F;stroke-width:1.6;stroke-linecap:round;stroke-miterlimit:10;" d="M35,51.332
		c-9.007,0-16.332-7.325-16.332-16.332S25.993,18.668,35,18.668c9.007,0,16.332,7.325,16.332,16.332S44.007,51.332,35,51.332
		L35,51.332z M35,51.332"/>
	<path style="fill:#F3D55B;" d="M35,43.17c-4.5,0-8.17-3.669-8.17-8.17c0-4.5,3.669-8.17,8.17-8.17c4.5,0,8.17,3.669,8.17,8.17
		C43.17,39.5,39.5,43.17,35,43.17L35,43.17z M35,43.17"/>
	<path style="fill:none;stroke:#38454F;stroke-width:1.6;stroke-linecap:round;stroke-miterlimit:10;" d="M35,43.17
		c-4.5,0-8.17-3.669-8.17-8.17S30.5,26.83,35,26.83c4.5,0,8.17,3.669,8.17,8.17S39.5,43.17,35,43.17L35,43.17z M35,43.17"/>
	<path style="fill:#ECF0F1;" d="M35,70c-0.643,0-1.168-0.524-1.168-1.168V1.168C33.832,0.524,34.357,0,35,0s1.168,0.524,1.168,1.168
		v67.664C36.168,69.476,35.643,70,35,70L35,70z M35,70"/>
	<path style="fill:#ECF0F1;" d="M68.832,36.168H1.168C0.524,36.168,0,35.643,0,35c0-0.643,0.524-1.168,1.168-1.168h67.664
		C69.476,33.832,70,34.357,70,35C70,35.643,69.476,36.168,68.832,36.168L68.832,36.168z M68.832,36.168"/>
</g>
</svg>
