<?xml version="1.0" encoding="iso-8859-1"?>
<!-- Generator: Adobe Illustrator 21.1.0, SVG Export Plug-In . SVG Version: 6.00 Build 0)  -->
<svg version="1.1" id="&#x421;&#x43B;&#x43E;&#x439;_1"
	 xmlns="http://www.w3.org/2000/svg" xmlns:xlink="http://www.w3.org/1999/xlink" x="0px" y="0px" viewBox="0 0 70 69.733"
	 style="enable-background:new 0 0 70 69.733;" xml:space="preserve">
<g>
	<path style="fill:#8B8B8B;" d="M6.425,14.362c0.588-0.268,0.843-0.963,0.576-1.549c-0.268-0.582-0.957-0.844-1.544-0.576
		c-0.808,0.37-1.56,0.855-2.239,1.441c-0.484,0.422-0.535,1.157-0.114,1.641c0.228,0.268,0.553,0.405,0.882,0.405
		c0.268,0,0.541-0.092,0.764-0.286C5.253,15.001,5.816,14.636,6.425,14.362L6.425,14.362z M6.425,14.362"/>
	<path style="fill:#8B8B8B;" d="M10.499,13.729h2.336c0.643,0,1.168-0.518,1.168-1.167c0-0.645-0.525-1.162-1.168-1.162h-2.336
		c-0.643,0-1.168,0.518-1.168,1.162C9.33,13.211,9.855,13.729,10.499,13.729L10.499,13.729z M10.499,13.729"/>
	<path style="fill:#8B8B8B;" d="M17.5,13.729h2.336c0.643,0,1.161-0.518,1.161-1.167c0-0.645-0.518-1.162-1.161-1.162H17.5
		c-0.643,0-1.168,0.518-1.168,1.162C16.332,13.211,16.857,13.729,17.5,13.729L17.5,13.729z M17.5,13.729"/>
	<path style="fill:#8B8B8B;" d="M12.835,27.732h-2.336c-0.643,0-1.168,0.518-1.168,1.168c0,0.643,0.525,1.162,1.168,1.162h2.336
		c0.643,0,1.168-0.519,1.168-1.162C14.003,28.25,13.478,27.732,12.835,27.732L12.835,27.732z M12.835,27.732"/>
	<path style="fill:#8B8B8B;" d="M26.83,27.732h-2.329c-0.645,0-1.168,0.518-1.168,1.168c0,0.643,0.524,1.162,1.168,1.162h2.329
		c0.65,0,1.168-0.519,1.168-1.162C27.999,28.25,27.481,27.732,26.83,27.732L26.83,27.732z M26.83,27.732"/>
	<path style="fill:#8B8B8B;" d="M19.836,27.732H17.5c-0.643,0-1.168,0.518-1.168,1.168c0,0.643,0.525,1.162,1.168,1.162h2.336
		c0.643,0,1.161-0.519,1.161-1.162C20.997,28.25,20.479,27.732,19.836,27.732L19.836,27.732z M19.836,27.732"/>
	<path style="fill:#8B8B8B;" d="M6.425,27.099c-0.604-0.279-1.168-0.637-1.674-1.076c-0.484-0.422-1.225-0.37-1.646,0.114
		c-0.422,0.49-0.37,1.225,0.12,1.646c0.672,0.588,1.425,1.072,2.233,1.436c0.155,0.073,0.319,0.108,0.484,0.108
		c0.439,0,0.866-0.251,1.06-0.678C7.268,28.063,7.013,27.367,6.425,27.099L6.425,27.099z M6.425,27.099"/>
	<path style="fill:#8B8B8B;" d="M33.832,27.732h-2.329c-0.65,0-1.168,0.518-1.168,1.168c0,0.643,0.518,1.162,1.168,1.162h2.329
		c0.645,0,1.168-0.519,1.168-1.162C35,28.25,34.476,27.732,33.832,27.732L33.832,27.732z M33.832,27.732"/>
	<path style="fill:#8B8B8B;" d="M54.836,27.732H52.5c-0.643,0-1.168,0.518-1.168,1.168c0,0.643,0.525,1.162,1.168,1.162h2.336
		c0.643,0,1.161-0.519,1.161-1.162C55.997,28.25,55.479,27.732,54.836,27.732L54.836,27.732z M54.836,27.732"/>
	<path style="fill:#8B8B8B;" d="M61.83,27.732h-2.329c-0.645,0-1.168,0.518-1.168,1.168c0,0.643,0.524,1.162,1.168,1.162h2.329
		c0.65,0,1.168-0.519,1.168-1.162C62.999,28.25,62.481,27.732,61.83,27.732L61.83,27.732z M61.83,27.732"/>
	<path style="fill:#8B8B8B;" d="M40.833,27.732h-2.336c-0.643,0-1.161,0.518-1.161,1.168c0,0.643,0.518,1.162,1.161,1.162h2.336
		c0.643,0,1.168-0.519,1.168-1.162C42.001,28.25,41.476,27.732,40.833,27.732L40.833,27.732z M40.833,27.732"/>
	<path style="fill:#8B8B8B;" d="M47.835,27.732h-2.336c-0.643,0-1.168,0.518-1.168,1.168c0,0.643,0.525,1.162,1.168,1.162h2.336
		c0.643,0,1.168-0.519,1.168-1.162C49.003,28.25,48.478,27.732,47.835,27.732L47.835,27.732z M47.835,27.732"/>
	<path style="fill:#8B8B8B;" d="M6.425,62.099c-0.604-0.279-1.168-0.637-1.674-1.076c-0.484-0.421-1.225-0.37-1.646,0.114
		c-0.422,0.49-0.37,1.225,0.12,1.646c0.672,0.588,1.425,1.072,2.233,1.436c0.155,0.073,0.319,0.108,0.484,0.108
		c0.439,0,0.866-0.251,1.06-0.678C7.268,63.063,7.013,62.367,6.425,62.099L6.425,62.099z M6.425,62.099"/>
	<path style="fill:#8B8B8B;" d="M19.836,62.732H17.5c-0.643,0-1.168,0.518-1.168,1.168c0,0.643,0.525,1.162,1.168,1.162h2.336
		c0.643,0,1.161-0.519,1.161-1.162C20.997,63.25,20.479,62.732,19.836,62.732L19.836,62.732z M19.836,62.732"/>
	<path style="fill:#8B8B8B;" d="M12.835,62.732h-2.336c-0.643,0-1.168,0.518-1.168,1.168c0,0.643,0.525,1.162,1.168,1.162h2.336
		c0.643,0,1.168-0.519,1.168-1.162C14.003,63.25,13.478,62.732,12.835,62.732L12.835,62.732z M12.835,62.732"/>
	<path style="fill:#8B8B8B;" d="M40.833,62.732h-2.336c-0.643,0-1.161,0.518-1.161,1.168c0,0.643,0.518,1.162,1.161,1.162h2.336
		c0.643,0,1.168-0.519,1.168-1.162C42.001,63.25,41.476,62.732,40.833,62.732L40.833,62.732z M40.833,62.732"/>
	<path style="fill:#8B8B8B;" d="M44.33,63.9c0,0.643,0.525,1.162,1.168,1.162h2.336c0.643,0,1.168-0.519,1.168-1.162
		c0-0.65-0.525-1.168-1.168-1.168h-2.336C44.855,62.732,44.33,63.25,44.33,63.9L44.33,63.9z M44.33,63.9"/>
	<path style="fill:#8B8B8B;" d="M52.5,65.062h2.336c0.643,0,1.161-0.519,1.161-1.162c0-0.65-0.518-1.168-1.161-1.168H52.5
		c-0.643,0-1.168,0.518-1.168,1.168C51.332,64.543,51.857,65.062,52.5,65.062L52.5,65.062z M52.5,65.062"/>
	<path style="fill:#8B8B8B;" d="M33.832,62.732h-2.329c-0.65,0-1.168,0.518-1.168,1.168c0,0.643,0.518,1.162,1.168,1.162h2.329
		c0.645,0,1.168-0.519,1.168-1.162C35,63.25,34.476,62.732,33.832,62.732L33.832,62.732z M33.832,62.732"/>
	<path style="fill:#8B8B8B;" d="M59.501,65.062h2.329c0.65,0,1.168-0.519,1.168-1.162c0-0.65-0.518-1.168-1.168-1.168h-2.329
		c-0.645,0-1.168,0.518-1.168,1.168C58.333,64.543,58.857,65.062,59.501,65.062L59.501,65.062z M59.501,65.062"/>
	<path style="fill:#8B8B8B;" d="M26.83,62.732h-2.329c-0.645,0-1.168,0.518-1.168,1.168c0,0.643,0.524,1.162,1.168,1.162h2.329
		c0.65,0,1.168-0.519,1.168-1.162C27.999,63.25,27.481,62.732,26.83,62.732L26.83,62.732z M26.83,62.732"/>
	<path style="fill:#8B8B8B;" d="M51.332,45.232c0,2.575,2.097,4.665,4.665,4.665c2.575,0,4.672-2.09,4.672-4.665
		c0-2.575-2.097-4.665-4.672-4.665C53.429,40.567,51.332,42.657,51.332,45.232L51.332,45.232z M55.997,42.896
		c1.288,0,2.336,1.048,2.336,2.336c0,1.288-1.049,2.33-2.336,2.33c-1.28,0-2.329-1.043-2.329-2.33
		C53.668,43.944,54.717,42.896,55.997,42.896L55.997,42.896z M55.997,42.896"/>
	<path style="fill:#8B8B8B;" d="M50.101,6.729l-6.345-6.341c-0.513-0.518-1.362-0.518-1.874,0l-2.387,2.387l-2.387-2.387
		c-0.518-0.518-1.361-0.518-1.88,0l-6.339,6.341H9.33C4.187,6.729,0,10.916,0,16.065v45.322c0,4.597,3.742,8.346,8.346,8.346H70
		V6.729H50.101z M42.821,2.752l20.315,20.315h-6.294L43.699,9.919C43.203,9.44,42.435,9.44,41.927,9.93L28.796,23.067h-6.288
		L41.141,4.428L42.821,2.752z M53.549,23.067H32.095l10.726-10.727L53.549,23.067z M36.168,2.752l1.674,1.676L19.203,23.067h-3.35
		L32.185,6.729L36.168,2.752z M9.33,9.064h17.221l-2.403,2.405c-0.354,0.114-0.621,0.381-0.735,0.739L12.555,23.067H9.33
		c-3.856,0-6.994-3.144-6.994-7.001C2.336,12.204,5.475,9.064,9.33,9.064L9.33,9.064z M67.664,51.065H54.836
		c-3.219,0-5.833-2.621-5.833-5.833c0-3.219,2.615-5.833,5.833-5.833h12.827V51.065z M67.664,27.732h-1.161
		c-0.65,0-1.168,0.518-1.168,1.168c0,0.643,0.518,1.162,1.168,1.162h1.161v7H54.836c-4.506,0-8.17,3.663-8.17,8.17
		c0,4.5,3.663,8.164,8.17,8.164h12.827v9.336h-1.161c-0.65,0-1.168,0.518-1.168,1.168c0,0.643,0.518,1.162,1.168,1.162h1.161v2.335
		H8.346c-3.316,0-6.01-2.694-6.01-6.01v-2.574c0.267-0.292,0.398-0.701,0.279-1.111c-0.188-0.639-0.279-1.299-0.279-1.972V23.813
		c0.267-0.292,0.398-0.701,0.279-1.111c-0.023-0.074-0.029-0.155-0.051-0.227c0.108,0.108,0.21,0.216,0.319,0.324
		c0.102,0.098,0.204,0.188,0.312,0.28c0.131,0.114,0.262,0.228,0.4,0.33c0.108,0.092,0.222,0.171,0.335,0.251
		c0.143,0.102,0.286,0.2,0.433,0.29c0.12,0.074,0.233,0.149,0.359,0.217c0.155,0.09,0.308,0.171,0.468,0.251
		c0.125,0.063,0.245,0.125,0.369,0.182c0.172,0.073,0.337,0.136,0.508,0.198c0.125,0.051,0.251,0.098,0.382,0.143
		c0.182,0.057,0.37,0.102,0.559,0.153c0.12,0.035,0.245,0.068,0.37,0.098c0.21,0.045,0.421,0.074,0.637,0.108
		c0.108,0.012,0.217,0.034,0.325,0.045c0.324,0.035,0.655,0.057,0.99,0.057h58.333V27.732z M66.434,23.067l-9.338-9.338h0.069
		c0.645,0,1.168-0.518,1.168-1.167c0-0.645-0.524-1.162-1.168-1.162h-2.329c-0.023,0-0.041,0.006-0.058,0.012l-2.346-2.348h15.232
		v14.003H66.434z M66.434,23.067"/>
	<path style="fill:#8B8B8B;" d="M64.167,11.4H61.83c-0.643,0-1.161,0.518-1.161,1.162c0,0.649,0.518,1.167,1.161,1.167h2.336
		c0.643,0,1.168-0.518,1.168-1.167C65.335,11.918,64.81,11.4,64.167,11.4L64.167,11.4z M64.167,11.4"/>
</g>
</svg>
