<?xml version="1.0" encoding="iso-8859-1"?>
<!-- Generator: Adobe Illustrator 21.1.0, SVG Export Plug-In . SVG Version: 6.00 Build 0)  -->
<svg version="1.1" id="&#x421;&#x43B;&#x43E;&#x439;_1"
	 xmlns="http://www.w3.org/2000/svg" xmlns:xlink="http://www.w3.org/1999/xlink" x="0px" y="0px" viewBox="0 0 40 39.848"
	 style="enable-background:new 0 0 40 39.848;" xml:space="preserve">
<g>
	<path style="fill:#FFFFFF;" d="M3.672,8.207c0.336-0.153,0.482-0.55,0.329-0.885C3.848,6.989,3.454,6.839,3.118,6.993
		C2.657,7.204,2.227,7.481,1.839,7.816C1.563,8.057,1.533,8.477,1.774,8.754c0.13,0.153,0.316,0.232,0.504,0.232
		c0.153,0,0.309-0.052,0.437-0.163C3.002,8.572,3.323,8.364,3.672,8.207L3.672,8.207z M3.672,8.207"/>
	<path style="fill:#FFFFFF;" d="M5.999,7.845h1.335c0.368,0,0.668-0.296,0.668-0.667c0-0.368-0.3-0.664-0.668-0.664H5.999
		c-0.368,0-0.668,0.296-0.668,0.664C5.332,7.549,5.632,7.845,5.999,7.845L5.999,7.845z M5.999,7.845"/>
	<path style="fill:#FFFFFF;" d="M10,7.845h1.335c0.367,0,0.663-0.296,0.663-0.667c0-0.368-0.296-0.664-0.663-0.664H10
		c-0.368,0-0.668,0.296-0.668,0.664C9.332,7.549,9.632,7.845,10,7.845L10,7.845z M10,7.845"/>
	<path style="fill:#FFFFFF;" d="M7.334,15.847H5.999c-0.368,0-0.668,0.296-0.668,0.667c0,0.368,0.3,0.664,0.668,0.664h1.335
		c0.368,0,0.668-0.297,0.668-0.664C8.002,16.143,7.702,15.847,7.334,15.847L7.334,15.847z M7.334,15.847"/>
	<path style="fill:#FFFFFF;" d="M15.332,15.847h-1.331c-0.368,0-0.668,0.296-0.668,0.667c0,0.368,0.299,0.664,0.668,0.664h1.331
		c0.372,0,0.668-0.297,0.668-0.664C15.999,16.143,15.703,15.847,15.332,15.847L15.332,15.847z M15.332,15.847"/>
	<path style="fill:#FFFFFF;" d="M11.335,15.847H10c-0.368,0-0.668,0.296-0.668,0.667c0,0.368,0.3,0.664,0.668,0.664h1.335
		c0.367,0,0.663-0.297,0.663-0.664C11.998,16.143,11.702,15.847,11.335,15.847L11.335,15.847z M11.335,15.847"/>
	<path style="fill:#FFFFFF;" d="M3.672,15.485c-0.345-0.159-0.667-0.364-0.957-0.615c-0.277-0.241-0.7-0.212-0.941,0.065
		c-0.241,0.28-0.212,0.7,0.068,0.941c0.384,0.336,0.814,0.612,1.276,0.821c0.088,0.042,0.182,0.062,0.277,0.062
		c0.251,0,0.495-0.143,0.606-0.387C4.153,16.036,4.007,15.639,3.672,15.485L3.672,15.485z M3.672,15.485"/>
	<path style="fill:#FFFFFF;" d="M19.332,15.847h-1.331c-0.372,0-0.668,0.296-0.668,0.667c0,0.368,0.296,0.664,0.668,0.664h1.331
		c0.368,0,0.668-0.297,0.668-0.664C20,16.143,19.701,15.847,19.332,15.847L19.332,15.847z M19.332,15.847"/>
	<path style="fill:#FFFFFF;" d="M31.335,15.847H30c-0.368,0-0.668,0.296-0.668,0.667c0,0.368,0.3,0.664,0.668,0.664h1.335
		c0.367,0,0.663-0.297,0.663-0.664C31.998,16.143,31.702,15.847,31.335,15.847L31.335,15.847z M31.335,15.847"/>
	<path style="fill:#FFFFFF;" d="M35.332,15.847h-1.331c-0.368,0-0.668,0.296-0.668,0.667c0,0.368,0.299,0.664,0.668,0.664h1.331
		c0.372,0,0.668-0.297,0.668-0.664C35.999,16.143,35.703,15.847,35.332,15.847L35.332,15.847z M35.332,15.847"/>
	<path style="fill:#FFFFFF;" d="M23.333,15.847h-1.335c-0.368,0-0.663,0.296-0.663,0.667c0,0.368,0.296,0.664,0.663,0.664h1.335
		c0.368,0,0.668-0.297,0.668-0.664C24.001,16.143,23.701,15.847,23.333,15.847L23.333,15.847z M23.333,15.847"/>
	<path style="fill:#FFFFFF;" d="M27.334,15.847h-1.335c-0.368,0-0.668,0.296-0.668,0.667c0,0.368,0.3,0.664,0.668,0.664h1.335
		c0.368,0,0.668-0.297,0.668-0.664C28.002,16.143,27.702,15.847,27.334,15.847L27.334,15.847z M27.334,15.847"/>
	<path style="fill:#FFFFFF;" d="M3.672,35.485c-0.345-0.159-0.667-0.364-0.957-0.615c-0.277-0.241-0.7-0.212-0.941,0.065
		c-0.241,0.28-0.212,0.7,0.068,0.941c0.384,0.336,0.814,0.612,1.276,0.821c0.088,0.042,0.182,0.062,0.277,0.062
		c0.251,0,0.495-0.143,0.606-0.387C4.153,36.036,4.007,35.639,3.672,35.485L3.672,35.485z M3.672,35.485"/>
	<path style="fill:#FFFFFF;" d="M11.335,35.847H10c-0.368,0-0.668,0.296-0.668,0.667c0,0.368,0.3,0.664,0.668,0.664h1.335
		c0.367,0,0.663-0.297,0.663-0.664C11.998,36.143,11.702,35.847,11.335,35.847L11.335,35.847z M11.335,35.847"/>
	<path style="fill:#FFFFFF;" d="M7.334,35.847H5.999c-0.368,0-0.668,0.296-0.668,0.667c0,0.368,0.3,0.664,0.668,0.664h1.335
		c0.368,0,0.668-0.297,0.668-0.664C8.002,36.143,7.702,35.847,7.334,35.847L7.334,35.847z M7.334,35.847"/>
	<path style="fill:#FFFFFF;" d="M23.333,35.847h-1.335c-0.368,0-0.663,0.296-0.663,0.667c0,0.368,0.296,0.664,0.663,0.664h1.335
		c0.368,0,0.668-0.297,0.668-0.664C24.001,36.143,23.701,35.847,23.333,35.847L23.333,35.847z M23.333,35.847"/>
	<path style="fill:#FFFFFF;" d="M25.332,36.514c0,0.368,0.3,0.664,0.668,0.664h1.335c0.368,0,0.668-0.297,0.668-0.664
		c0-0.372-0.3-0.667-0.668-0.667h-1.335C25.632,35.847,25.332,36.143,25.332,36.514L25.332,36.514z M25.332,36.514"/>
	<path style="fill:#FFFFFF;" d="M30,37.179h1.335c0.367,0,0.663-0.297,0.663-0.664c0-0.372-0.296-0.667-0.663-0.667H30
		c-0.368,0-0.668,0.296-0.668,0.667C29.332,36.882,29.632,37.179,30,37.179L30,37.179z M30,37.179"/>
	<path style="fill:#FFFFFF;" d="M19.332,35.847h-1.331c-0.372,0-0.668,0.296-0.668,0.667c0,0.368,0.296,0.664,0.668,0.664h1.331
		c0.368,0,0.668-0.297,0.668-0.664C20,36.143,19.701,35.847,19.332,35.847L19.332,35.847z M19.332,35.847"/>
	<path style="fill:#FFFFFF;" d="M34.001,37.179h1.331c0.372,0,0.668-0.297,0.668-0.664c0-0.372-0.296-0.667-0.668-0.667h-1.331
		c-0.368,0-0.668,0.296-0.668,0.667C33.333,36.882,33.632,37.179,34.001,37.179L34.001,37.179z M34.001,37.179"/>
	<path style="fill:#FFFFFF;" d="M15.332,35.847h-1.331c-0.368,0-0.668,0.296-0.668,0.667c0,0.368,0.299,0.664,0.668,0.664h1.331
		c0.372,0,0.668-0.297,0.668-0.664C15.999,36.143,15.703,35.847,15.332,35.847L15.332,35.847z M15.332,35.847"/>
	<path style="fill:#FFFFFF;" d="M29.332,25.847c0,1.472,1.198,2.666,2.666,2.666c1.472,0,2.67-1.194,2.67-2.666
		c0-1.472-1.198-2.666-2.67-2.666C30.531,23.181,29.332,24.375,29.332,25.847L29.332,25.847z M31.998,24.512
		c0.736,0,1.335,0.599,1.335,1.335c0,0.736-0.599,1.332-1.335,1.332c-0.732,0-1.331-0.596-1.331-1.332
		C30.667,25.111,31.267,24.512,31.998,24.512L31.998,24.512z M31.998,24.512"/>
	<path style="fill:#FFFFFF;" d="M28.629,3.845l-3.626-3.623c-0.293-0.296-0.778-0.296-1.071,0l-1.364,1.364l-1.364-1.364
		c-0.296-0.296-0.778-0.296-1.074,0l-3.623,3.623H5.332C2.393,3.845,0,6.238,0,9.18v25.898c0,2.627,2.138,4.769,4.769,4.769H40
		V3.845H28.629z M24.469,1.573l11.608,11.608h-3.597l-7.51-7.513c-0.283-0.273-0.722-0.273-1.012,0.007l-7.503,7.507h-3.593
		L23.509,2.53L24.469,1.573z M30.599,13.181H18.34l6.129-6.13L30.599,13.181z M20.667,1.573l0.957,0.958L10.973,13.181H9.059
		l9.333-9.336L20.667,1.573z M5.332,5.179h9.841l-1.373,1.374c-0.203,0.065-0.355,0.218-0.42,0.423l-6.205,6.205H5.332
		c-2.203,0-3.997-1.797-3.997-4.001C1.335,6.974,3.128,5.179,5.332,5.179L5.332,5.179z M38.665,29.18h-7.33
		c-1.839,0-3.333-1.497-3.333-3.333c0-1.839,1.494-3.333,3.333-3.333h7.33V29.18z M38.665,15.847h-0.663
		c-0.372,0-0.668,0.296-0.668,0.667c0,0.368,0.296,0.664,0.668,0.664h0.663v4h-7.33c-2.575,0-4.668,2.093-4.668,4.668
		c0,2.572,2.093,4.665,4.668,4.665h7.33v5.335h-0.663c-0.372,0-0.668,0.296-0.668,0.667c0,0.368,0.296,0.664,0.668,0.664h0.663
		v1.334H4.769c-1.895,0-3.434-1.539-3.434-3.434v-1.471c0.152-0.167,0.228-0.401,0.159-0.635c-0.107-0.365-0.159-0.743-0.159-1.127
		V13.608c0.152-0.167,0.228-0.401,0.159-0.635c-0.013-0.042-0.017-0.088-0.029-0.13c0.062,0.062,0.12,0.123,0.183,0.185
		c0.058,0.056,0.117,0.107,0.178,0.16c0.075,0.065,0.15,0.13,0.228,0.188c0.062,0.052,0.127,0.097,0.192,0.143
		c0.082,0.058,0.163,0.114,0.248,0.166c0.068,0.043,0.133,0.085,0.205,0.124c0.088,0.052,0.176,0.098,0.267,0.143
		c0.072,0.036,0.14,0.072,0.211,0.104c0.098,0.042,0.193,0.077,0.29,0.113c0.072,0.029,0.143,0.056,0.218,0.082
		c0.104,0.033,0.212,0.058,0.319,0.088c0.068,0.02,0.14,0.039,0.212,0.056c0.12,0.026,0.241,0.042,0.364,0.062
		c0.062,0.007,0.124,0.019,0.186,0.026c0.185,0.02,0.374,0.033,0.566,0.033h33.333V15.847z M37.962,13.181l-5.336-5.336h0.039
		c0.368,0,0.667-0.296,0.667-0.667c0-0.368-0.299-0.664-0.667-0.664h-1.331c-0.013,0-0.023,0.003-0.033,0.007l-1.341-1.342h8.704
		v8.002H37.962z M37.962,13.181"/>
	<path style="fill:#FFFFFF;" d="M36.667,6.514h-1.335c-0.368,0-0.663,0.296-0.663,0.664c0,0.371,0.296,0.667,0.663,0.667h1.335
		c0.368,0,0.667-0.296,0.667-0.667C37.334,6.81,37.034,6.514,36.667,6.514L36.667,6.514z M36.667,6.514"/>
</g>
</svg>
