<?xml version="1.0" encoding="iso-8859-1"?>
<!-- Generator: Adobe Illustrator 21.1.0, SVG Export Plug-In . SVG Version: 6.00 Build 0)  -->
<svg version="1.1" id="&#x421;&#x43B;&#x43E;&#x439;_1"
	 xmlns="http://www.w3.org/2000/svg" xmlns:xlink="http://www.w3.org/1999/xlink" x="0px" y="0px" viewBox="0 0 40 41.385"
	 style="enable-background:new 0 0 40 41.385;" xml:space="preserve">
<g>
	<path style="fill:#FFFFFF;" d="M38.781,2.423h-7.994V1.22c0-0.674-0.546-1.22-1.22-1.22c-0.673,0-1.22,0.546-1.22,1.22v1.203H21.22
		V1.22C21.22,0.546,20.674,0,20,0c-0.674,0-1.22,0.546-1.22,1.22v1.203h-6.824V1.22c0-0.674-0.546-1.22-1.22-1.22
		c-0.673,0-1.22,0.546-1.22,1.22v1.203H1.22C0.546,2.423,0,2.969,0,3.643v27.564c0,0.673,0.546,1.22,1.22,1.22h7.488
		c1.199,5.126,5.806,8.957,11.293,8.957c5.486,0,10.093-3.831,11.292-8.957h7.488c0.674,0,1.22-0.547,1.22-1.22V3.643
		C40,2.969,39.454,2.423,38.781,2.423L38.781,2.423z M9.516,4.862v1.103c0,0.673,0.547,1.22,1.22,1.22c0.674,0,1.22-0.547,1.22-1.22
		V4.862h6.824v1.103c0,0.673,0.546,1.22,1.22,1.22c0.673,0,1.219-0.547,1.219-1.22V4.862h7.127v1.103c0,0.673,0.547,1.22,1.22,1.22
		c0.674,0,1.22-0.547,1.22-1.22V4.862h6.774v4.989H2.44V4.862H9.516z M20,38.945c-5.051,0-9.16-4.109-9.16-9.16
		c0-5.05,4.109-9.16,9.16-9.16c5.05,0,9.159,4.109,9.159,9.16S25.051,38.945,20,38.945L20,38.945z M31.595,29.988
		c0.001-0.068,0.005-0.135,0.005-0.204c0-6.396-5.204-11.6-11.6-11.6c-6.396,0-11.6,5.203-11.6,11.6
		c0,0.069,0.004,0.136,0.005,0.204H2.439V12.291h35.121v17.696H31.595z M31.595,29.988"/>
	<path style="fill:#FFFFFF;" d="M21.22,30.092v-5.901c0-0.674-0.546-1.22-1.219-1.22c-0.674,0-1.22,0.546-1.22,1.22v6.406
		c0,0.324,0.128,0.634,0.357,0.863l2.804,2.805c0.238,0.238,0.55,0.357,0.863,0.357c0.312,0,0.624-0.119,0.863-0.357
		c0.477-0.477,0.477-1.249,0-1.725L21.22,30.092z M21.22,30.092"/>
</g>
</svg>
