<?xml version="1.0" encoding="iso-8859-1"?>
<!-- Generator: Adobe Illustrator 21.1.0, SVG Export Plug-In . SVG Version: 6.00 Build 0)  -->
<svg version="1.1" id="Layer_1" xmlns="http://www.w3.org/2000/svg" xmlns:xlink="http://www.w3.org/1999/xlink" x="0px" y="0px"
	 viewBox="187 379.766 40 34.468" style="enable-background:new 187 379.766 40 34.468;" xml:space="preserve">
<g>
	<path style="fill:#FFFFFF;" d="M224.447,382.383v-1.979c0-0.353-0.286-0.638-0.638-0.638h-14.255c-1.043,0-1.97,0.503-2.553,1.279
		c-0.583-0.776-1.51-1.279-2.553-1.279h-14.255c-0.353,0-0.638,0.286-0.638,0.638v1.979c-1.455,0.297-2.553,1.586-2.553,3.127
		v22.128c0,1.76,1.432,3.191,3.191,3.191h13.681c0.297,1.455,1.586,2.553,3.127,2.553s2.831-1.098,3.127-2.553h4.535
		c0.353,0,0.638-0.286,0.638-0.638s-0.286-0.638-0.638-0.638h-5.109c-0.353,0-0.638,0.286-0.638,0.638
		c0,1.056-0.859,1.915-1.915,1.915s-1.915-0.859-1.915-1.915c0-0.353-0.286-0.638-0.638-0.638h-14.255
		c-1.056,0-1.915-0.859-1.915-1.915v-22.128c0-0.832,0.534-1.542,1.277-1.805v21.38c0,0.353,0.286,0.638,0.638,0.638h14.255
		c1.056,0,1.915,0.859,1.915,1.915c-0.534-0.4-1.197-0.638-1.915-0.638h-14.255c-0.353,0-0.638,0.286-0.638,0.638
		s0.286,0.638,0.638,0.638h14.255c1.056,0,1.915,0.859,1.915,1.915c0,0.353,0.286,0.638,0.638,0.638s0.638-0.286,0.638-0.638
		c0-1.056,0.859-1.915,1.915-1.915h5.109c0.353,0,0.638-0.286,0.638-0.638S215.015,407,214.662,407h-5.109
		c-0.718,0-1.381,0.238-1.915,0.64c0-1.057,0.859-1.917,1.915-1.917h7.024v7.872c0,0.214,0.107,0.413,0.285,0.532
		c0.178,0.118,0.404,0.139,0.601,0.056l1.772-0.747l1.772,0.747c0.08,0.034,0.164,0.05,0.248,0.05c0.124,0,0.247-0.036,0.353-0.106
		c0.178-0.118,0.285-0.318,0.285-0.532v-2.766h1.915c1.76,0,3.191-1.432,3.191-3.191v-22.128
		C227,383.969,225.902,382.68,224.447,382.383z M204.447,404.447H190.83v-23.404h13.617c1.056,0,1.915,0.859,1.915,1.915v22.129
		C205.828,404.685,205.165,404.447,204.447,404.447z M207.638,405.087v-22.129c0-1.056,0.859-1.915,1.915-1.915h13.617v23.404
		h-13.617C208.835,404.447,208.172,404.685,207.638,405.087z M220.617,412.634l-1.134-0.478c-0.159-0.067-0.337-0.067-0.496,0
		l-1.134,0.478v-6.911h2.763V412.634z M225.723,407.638c0,1.056-0.859,1.915-1.915,1.915h-1.915v-1.277h1.915
		c0.353,0,0.638-0.286,0.638-0.638S224.161,407,223.809,407h-1.915v-1.277h1.915c0.353,0,0.638-0.286,0.638-0.638v-21.38
		c0.743,0.263,1.277,0.973,1.277,1.805V407.638z"/>
	<path style="fill:#FFFFFF;" d="M203.596,399.34h-10c-0.353,0-0.638,0.286-0.638,0.638s0.286,0.638,0.638,0.638h10
		c0.353,0,0.638-0.286,0.638-0.638S203.948,399.34,203.596,399.34z"/>
	<path style="fill:#FFFFFF;" d="M203.596,395.723h-10c-0.353,0-0.638,0.286-0.638,0.638s0.286,0.638,0.638,0.638h10
		c0.353,0,0.638-0.286,0.638-0.638S203.948,395.723,203.596,395.723z"/>
	<path style="fill:#FFFFFF;" d="M203.596,392.106h-10c-0.353,0-0.638,0.286-0.638,0.638s0.286,0.638,0.638,0.638h10
		c0.353,0,0.638-0.286,0.638-0.638S203.948,392.106,203.596,392.106z"/>
	<path style="fill:#FFFFFF;" d="M203.596,388.489h-10c-0.353,0-0.638,0.286-0.638,0.638s0.286,0.638,0.638,0.638h10
		c0.353,0,0.638-0.286,0.638-0.638S203.948,388.489,203.596,388.489z"/>
	<path style="fill:#FFFFFF;" d="M203.596,384.872h-10c-0.353,0-0.638,0.286-0.638,0.638s0.286,0.638,0.638,0.638h10
		c0.353,0,0.638-0.286,0.638-0.638S203.948,384.872,203.596,384.872z"/>
	<path style="fill:#FFFFFF;" d="M221.043,399.979c0-0.353-0.286-0.638-0.638-0.638h-10c-0.353,0-0.638,0.286-0.638,0.638
		s0.286,0.638,0.638,0.638h10C220.757,400.617,221.043,400.331,221.043,399.979z"/>
	<path style="fill:#FFFFFF;" d="M210.404,397h10c0.353,0,0.638-0.286,0.638-0.638v-4.149c0-0.353-0.286-0.638-0.638-0.638
		c-0.353,0-0.638,0.286-0.638,0.638v3.511h-8.723v-9.574h8.723v3.511c0,0.353,0.286,0.638,0.638,0.638
		c0.353,0,0.638-0.286,0.638-0.638v-4.149c0-0.353-0.286-0.638-0.638-0.638h-10c-0.353,0-0.638,0.286-0.638,0.638v10.851
		C209.766,396.714,210.052,397,210.404,397z"/>
</g>
</svg>
