<?xml version="1.0" encoding="iso-8859-1"?>
<!-- Generator: Adobe Illustrator 21.1.0, SVG Export Plug-In . SVG Version: 6.00 Build 0)  -->
<svg version="1.1" id="Layer_1" xmlns="http://www.w3.org/2000/svg" xmlns:xlink="http://www.w3.org/1999/xlink" x="0px" y="0px"
	 viewBox="191.998 377 30.004 40" style="enable-background:new 191.998 377 30.004 40;" xml:space="preserve">
<g>
	<path style="fill:#FFFFFF;" d="M221.907,415.591l-5.273-11.155c-0.105-0.223-0.288-0.393-0.506-0.486l-2.623-1.168l4.546-7.619
		c0.011-0.018,0.021-0.037,0.031-0.056c0.904-1.764,1.362-3.67,1.362-5.665c0-3.356-1.316-6.503-3.706-8.86
		c-2.389-2.357-5.555-3.629-8.913-3.582c-3.262,0.045-6.333,1.355-8.647,3.689c-2.315,2.334-3.6,5.415-3.619,8.677
		c-0.012,1.993,0.459,3.978,1.362,5.741c0.01,0.019,0.02,0.037,0.031,0.056l4.546,7.619l-2.639,1.174
		c-0.216,0.096-0.39,0.266-0.491,0.48l-5.273,11.155c-0.176,0.373-0.102,0.817,0.187,1.112c0.288,0.295,0.73,0.38,1.107,0.212
		l6.606-2.941l6.606,2.941c0.256,0.114,0.547,0.114,0.803,0l6.606-2.941l6.606,2.941c0.129,0.057,0.266,0.085,0.401,0.085
		c0.26,0,0.516-0.103,0.706-0.297C222.009,416.408,222.084,415.964,221.907,415.591z M196.532,389.379
		c0.033-5.659,4.663-10.326,10.32-10.404c2.826-0.038,5.489,1.031,7.499,3.014c2.011,1.983,3.118,4.63,3.118,7.454
		c0,1.669-0.38,3.262-1.131,4.737l-8.491,14.23c-0.259,0.434-0.679,0.481-0.848,0.481c-0.169,0-0.588-0.047-0.848-0.481
		l-8.491-14.23C196.902,392.686,196.521,391.071,196.532,389.379z M214.409,411.992c-0.256-0.114-0.547-0.114-0.803,0L207,414.933
		l-6.606-2.941c-0.256-0.114-0.547-0.114-0.803,0l-4.576,2.038l3.98-8.418l2.52-1.122l2.943,4.932
		c0.539,0.904,1.49,1.444,2.543,1.444s2.003-0.54,2.543-1.444l2.943-4.932l2.52,1.122l3.979,8.417L214.409,411.992z"/>
	<path style="fill:#FFFFFF;" d="M211.505,389.443c0-2.484-2.021-4.505-4.505-4.505c-2.484,0-4.505,2.021-4.505,4.505
		c0,2.484,2.021,4.505,4.505,4.505C209.484,393.947,211.505,391.927,211.505,389.443z M204.47,389.443
		c0-1.395,1.135-2.531,2.531-2.531c1.395,0,2.531,1.135,2.531,2.531c0,1.395-1.135,2.531-2.531,2.531
		C205.605,391.973,204.47,390.838,204.47,389.443z"/>
</g>
</svg>
