<?xml version="1.0" encoding="utf-8"?>
<!-- Generator: Adobe Illustrator 21.1.0, SVG Export Plug-In . SVG Version: 6.00 Build 0)  -->
<svg version="1.1" id="Layer_1" xmlns="http://www.w3.org/2000/svg" xmlns:xlink="http://www.w3.org/1999/xlink" x="0px" y="0px"
	 viewBox="0 0 62.6 70" enable-background="new 0 0 62.6 70" xml:space="preserve">
<g>
	<path fill="#353535" d="M35.5,32.8l-2.9,2.9c-0.4-0.1-0.8-0.2-1.3-0.2c-0.5,0-0.9,0.1-1.3,0.2l-6-6c-0.6-0.6-1.6-0.6-2.2,0
		c-0.6,0.6-0.6,1.6,0,2.2l6,6c-0.1,0.4-0.2,0.8-0.2,1.3c0,2,1.7,3.7,3.7,3.7s3.7-1.7,3.7-3.7c0-0.5-0.1-0.9-0.2-1.3l2.9-2.9
		c0.6-0.6,0.6-1.6,0-2.2C37.1,32.2,36.1,32.2,35.5,32.8z M31.3,40.1c-0.5,0-0.9-0.4-0.9-0.9s0.4-0.9,0.9-0.9s0.9,0.4,0.9,0.9
		C32.2,39.7,31.8,40.1,31.3,40.1z"/>
	<path fill="#353535" d="M49.6,15.6l1.8-2.5l7,4.9c0.3,0.2,0.6,0.3,0.9,0.3c0.1,0,0.2,0,0.3,0c0.4-0.1,0.8-0.3,1-0.6
		c3.6-5.1,2.3-12.1-2.8-15.7c-5.1-3.6-12.1-2.3-15.7,2.8c-0.5,0.7-0.3,1.7,0.4,2.2l6.3,4.4l-1.8,2.5c-4.6-2.9-10-4.5-15.8-4.5
		S20.1,11,15.5,13.9l-1.8-2.5L20.1,7c0.7-0.5,0.9-1.5,0.4-2.2C16.9-0.3,9.9-1.5,4.8,2C-0.3,5.6-1.5,12.6,2,17.7
		c0.2,0.3,0.6,0.6,1,0.6c0.1,0,0.2,0,0.3,0c0.3,0,0.6-0.1,0.9-0.3l7-4.9l1.8,2.5c-7,5.5-11.5,14-11.5,23.5
		c0,10.4,5.3,19.5,13.4,24.9l-2.5,3.5c-0.5,0.7-0.3,1.7,0.4,2.2c0.3,0.2,0.6,0.3,0.9,0.3c0.5,0,1-0.2,1.3-0.7l2.6-3.7
		c4.1,2.1,8.8,3.4,13.7,3.4c5,0,9.6-1.2,13.7-3.4l2.6,3.7c0.3,0.4,0.8,0.7,1.3,0.7c0.3,0,0.6-0.1,0.9-0.3c0.7-0.5,0.9-1.5,0.4-2.2
		L47.7,64c8.1-5.3,13.4-14.5,13.4-24.9C61.1,29.6,56.6,21.1,49.6,15.6z M56,4.6c3.2,2.3,4.3,6.5,2.8,10L45.7,5.4
		C48.5,2.7,52.8,2.3,56,4.6z M3.8,14.6c-1.6-3.5-0.5-7.7,2.8-10c1.4-1,3-1.5,4.7-1.5c2.1,0,4.1,0.8,5.7,2.3L3.8,14.6z M31.3,65.9
		c-14.7,0-26.7-12-26.7-26.7s12-26.7,26.7-26.7S58,24.4,58,39.2S46,65.9,31.3,65.9z"/>
	<path fill="#353535" d="M31.3,17.2c-12.1,0-21.9,9.8-21.9,21.9s9.8,21.9,21.9,21.9c12.1,0,21.9-9.8,21.9-21.9S43.4,17.2,31.3,17.2z
		 M48.9,40.7h1.5c-0.3,4.1-2,7.9-4.5,10.8l-1-1c-0.6-0.6-1.6-0.6-2.2,0s-0.6,1.6,0,2.2l1,1c-3,2.5-6.7,4.2-10.8,4.5v-1.5
		c0-0.9-0.7-1.6-1.6-1.6s-1.6,0.7-1.6,1.6v1.5c-4.1-0.3-7.9-2-10.8-4.5l1-1c0.6-0.6,0.6-1.6,0-2.2s-1.6-0.6-2.2,0l-1,1
		c-2.5-3-4.2-6.7-4.5-10.8h1.5c0.9,0,1.6-0.7,1.6-1.6s-0.7-1.6-1.6-1.6h-1.5c0.3-4.1,2-7.9,4.5-10.8l1,1c0.3,0.3,0.7,0.5,1.1,0.5
		s0.8-0.2,1.1-0.5c0.6-0.6,0.6-1.6,0-2.2l-1-1c3-2.5,6.7-4.2,10.8-4.5v1.5c0,0.9,0.7,1.6,1.6,1.6s1.6-0.7,1.6-1.6v-1.5
		c4.1,0.3,7.9,2,10.8,4.5l-1,1c-0.6,0.6-0.6,1.6,0,2.2c0.3,0.3,0.7,0.5,1.1,0.5s0.8-0.2,1.1-0.5l1-1c2.5,3,4.2,6.7,4.5,10.8h-1.5
		c-0.9,0-1.6,0.7-1.6,1.6S48,40.7,48.9,40.7z"/>
</g>
</svg>
