<?xml version="1.0" encoding="iso-8859-1"?>
<!-- Generator: Adobe Illustrator 21.1.0, SVG Export Plug-In . SVG Version: 6.00 Build 0)  -->
<svg version="1.1" id="&#x421;&#x43B;&#x43E;&#x439;_1"
	 xmlns="http://www.w3.org/2000/svg" xmlns:xlink="http://www.w3.org/1999/xlink" x="0px" y="0px" viewBox="0 0 45 45"
	 style="enable-background:new 0 0 45 45;" xml:space="preserve">
<g>
	<path style="fill:#353535;" d="M44.195,2.999h-5.627V0.751c0-0.414-0.357-0.751-0.8-0.751h-5.627c-0.443,0-0.805,0.337-0.805,0.751
		v2.248H13.662V0.751C13.662,0.337,13.301,0,12.858,0H7.231C6.788,0,6.426,0.337,6.426,0.751v2.248H0.805
		C0.361,2.999,0,3.337,0,3.75v40.499C0,44.663,0.361,45,0.805,45h43.391C44.638,45,45,44.663,45,44.249V3.75
		C45,3.337,44.638,2.999,44.195,2.999L44.195,2.999z M32.947,1.502h4.018v4.496h-4.018V1.502z M8.036,1.502h4.018v4.496H8.036V1.502
		z M1.609,4.501h4.817v2.248c0,0.414,0.362,0.751,0.805,0.751h5.627c0.443,0,0.805-0.337,0.805-0.751V4.501h17.675v2.248
		c0,0.414,0.362,0.751,0.805,0.751h5.627c0.443,0,0.8-0.337,0.8-0.751V4.501h4.822v6.749H1.609V4.501z M1.609,43.498V12.752h41.782
		v30.746H1.609z M1.609,43.498"/>
	<path style="fill:#353535;" d="M28.929,17.248H7.231v21.754h30.538V17.248H28.929z M23.302,18.75h5.627v5.252h-5.627V18.75z
		 M28.929,30.751h-5.627v-5.252h5.627V30.751z M16.071,25.499h5.627v5.252h-5.627V25.499z M16.071,18.75h5.627v5.252h-5.627V18.75z
		 M8.84,18.75h5.622v5.252H8.84V18.75z M8.84,25.499h5.622v5.252H8.84V25.499z M14.462,37.5H8.84v-5.252h5.622V37.5z M21.698,37.5
		h-5.627v-5.252h5.627V37.5z M28.929,37.5h-5.627v-5.252h5.627V37.5z M36.16,37.5h-5.627v-5.252h5.627V37.5z M36.16,30.751h-5.627
		v-5.252h5.627V30.751z M36.16,18.75v5.252h-5.627V18.75H36.16z M36.16,18.75"/>
</g>
</svg>
