<?xml version="1.0" encoding="iso-8859-1"?>
<!-- Generator: Adobe Illustrator 21.1.0, SVG Export Plug-In . SVG Version: 6.00 Build 0)  -->
<svg version="1.1" id="&#x421;&#x43B;&#x43E;&#x439;_1"
	 xmlns="http://www.w3.org/2000/svg" xmlns:xlink="http://www.w3.org/1999/xlink" x="0px" y="0px" viewBox="0 0 25 25"
	 style="enable-background:new 0 0 25 25;" xml:space="preserve">
<g>
	<path style="fill:#353535;" d="M12.5,10.834c1.609,0,2.918-1.308,2.918-2.918c0-1.607-1.308-2.915-2.918-2.915
		S9.582,6.309,9.582,7.916C9.582,9.526,10.891,10.834,12.5,10.834L12.5,10.834z M12.5,5.833c1.149,0,2.083,0.936,2.083,2.083
		c0,1.149-0.934,2.083-2.083,2.083c-1.149,0-2.083-0.934-2.083-2.083C10.417,6.769,11.351,5.833,12.5,5.833L12.5,5.833z M12.5,5.833
		"/>
	<path style="fill:#353535;" d="M12.427,22.815l6.393-9.233c2.396-3.196,2.051-8.449-0.743-11.241C16.567,0.832,14.561,0,12.427,0
		c-2.134,0-4.142,0.832-5.649,2.34C3.983,5.133,3.635,10.386,6.024,13.57L12.427,22.815z M7.365,2.93
		c1.353-1.351,3.149-2.095,5.061-2.095c1.91,0,3.709,0.744,5.06,2.095c2.521,2.521,2.832,7.265,0.655,10.167l-5.715,8.256
		l-5.725-8.268C4.535,10.195,4.844,5.451,7.365,2.93L7.365,2.93z M7.365,2.93"/>
	<path style="fill:#353535;" d="M17.549,17.92c-0.23-0.028-0.437,0.136-0.464,0.364c-0.027,0.23,0.136,0.435,0.366,0.464
		c4.38,0.515,6.714,1.904,6.714,2.71c0,1.131-4.437,2.708-11.666,2.708c-7.229,0-11.666-1.577-11.666-2.708
		c0-0.806,2.333-2.195,6.714-2.71c0.23-0.029,0.393-0.236,0.366-0.464c-0.028-0.228-0.234-0.392-0.464-0.364
		C3.064,18.436,0,19.891,0,21.458C0,23.218,4.293,25,12.5,25S25,23.218,25,21.458C25,19.891,21.936,18.436,17.549,17.92
		L17.549,17.92z M17.549,17.92"/>
</g>
</svg>
