<?xml version="1.0" encoding="iso-8859-1"?>
<!-- Generator: Adobe Illustrator 21.1.0, SVG Export Plug-In . SVG Version: 6.00 Build 0)  -->
<svg version="1.1" id="&#x421;&#x43B;&#x43E;&#x439;_1"
	 xmlns="http://www.w3.org/2000/svg" xmlns:xlink="http://www.w3.org/1999/xlink" x="0px" y="0px" viewBox="0 0 45 45"
	 style="enable-background:new 0 0 45 45;" xml:space="preserve">
<g>
	<path style="fill:#353535;" d="M4.131,9.268c0.378-0.173,0.542-0.621,0.37-0.999C4.328,7.893,3.886,7.724,3.508,7.897
		c-0.519,0.239-1.003,0.551-1.439,0.93C1.758,9.099,1.725,9.573,1.996,9.885c0.146,0.173,0.355,0.262,0.567,0.262
		c0.172,0,0.348-0.059,0.491-0.184C3.377,9.68,3.739,9.445,4.131,9.268L4.131,9.268z M4.131,9.268"/>
	<path style="fill:#353535;" d="M6.749,8.86h1.502c0.413,0,0.751-0.334,0.751-0.753c0-0.416-0.338-0.75-0.751-0.75H6.749
		c-0.413,0-0.751,0.334-0.751,0.75C5.998,8.526,6.336,8.86,6.749,8.86L6.749,8.86z M6.749,8.86"/>
	<path style="fill:#353535;" d="M11.25,8.86h1.502c0.413,0,0.746-0.334,0.746-0.753c0-0.416-0.333-0.75-0.746-0.75H11.25
		c-0.413,0-0.751,0.334-0.751,0.75C10.499,8.526,10.837,8.86,11.25,8.86L11.25,8.86z M11.25,8.86"/>
	<path style="fill:#353535;" d="M8.251,17.896H6.749c-0.413,0-0.751,0.334-0.751,0.754c0,0.415,0.338,0.75,0.751,0.75h1.502
		c0.413,0,0.751-0.335,0.751-0.75C9.002,18.23,8.664,17.896,8.251,17.896L8.251,17.896z M8.251,17.896"/>
	<path style="fill:#353535;" d="M17.248,17.896h-1.497C15.337,17.896,15,18.23,15,18.65c0,0.415,0.337,0.75,0.751,0.75h1.497
		c0.418,0,0.751-0.335,0.751-0.75C17.999,18.23,17.666,17.896,17.248,17.896L17.248,17.896z M17.248,17.896"/>
	<path style="fill:#353535;" d="M12.752,17.896H11.25c-0.413,0-0.751,0.334-0.751,0.754c0,0.415,0.338,0.75,0.751,0.75h1.502
		c0.413,0,0.746-0.335,0.746-0.75C13.498,18.23,13.165,17.896,12.752,17.896L12.752,17.896z M12.752,17.896"/>
	<path style="fill:#353535;" d="M4.131,17.487c-0.388-0.18-0.751-0.411-1.076-0.694c-0.311-0.272-0.787-0.239-1.058,0.073
		c-0.271,0.316-0.238,0.791,0.077,1.063c0.432,0.379,0.916,0.692,1.435,0.927c0.099,0.047,0.205,0.07,0.311,0.07
		c0.282,0,0.557-0.162,0.682-0.438C4.673,18.109,4.508,17.661,4.131,17.487L4.131,17.487z M4.131,17.487"/>
	<path style="fill:#353535;" d="M21.749,17.896h-1.497c-0.418,0-0.751,0.334-0.751,0.754c0,0.415,0.333,0.75,0.751,0.75h1.497
		c0.414,0,0.751-0.335,0.751-0.75C22.5,18.23,22.163,17.896,21.749,17.896L21.749,17.896z M21.749,17.896"/>
	<path style="fill:#353535;" d="M35.252,17.896H33.75c-0.413,0-0.751,0.334-0.751,0.754c0,0.415,0.338,0.75,0.751,0.75h1.502
		c0.413,0,0.746-0.335,0.746-0.75C35.998,18.23,35.665,17.896,35.252,17.896L35.252,17.896z M35.252,17.896"/>
	<path style="fill:#353535;" d="M39.748,17.896h-1.497c-0.414,0-0.751,0.334-0.751,0.754c0,0.415,0.337,0.75,0.751,0.75h1.497
		c0.418,0,0.751-0.335,0.751-0.75C40.499,18.23,40.166,17.896,39.748,17.896L39.748,17.896z M39.748,17.896"/>
	<path style="fill:#353535;" d="M26.25,17.896h-1.502c-0.413,0-0.746,0.334-0.746,0.754c0,0.415,0.333,0.75,0.746,0.75h1.502
		c0.413,0,0.751-0.335,0.751-0.75C27.001,18.23,26.663,17.896,26.25,17.896L26.25,17.896z M26.25,17.896"/>
	<path style="fill:#353535;" d="M30.751,17.896h-1.502c-0.413,0-0.751,0.334-0.751,0.754c0,0.415,0.338,0.75,0.751,0.75h1.502
		c0.413,0,0.751-0.335,0.751-0.75C31.502,18.23,31.164,17.896,30.751,17.896L30.751,17.896z M30.751,17.896"/>
	<path style="fill:#353535;" d="M4.131,40.073c-0.388-0.18-0.751-0.411-1.076-0.694c-0.311-0.272-0.787-0.239-1.058,0.073
		c-0.271,0.316-0.238,0.791,0.077,1.063c0.432,0.379,0.916,0.692,1.435,0.927c0.099,0.047,0.205,0.07,0.311,0.07
		c0.282,0,0.557-0.162,0.682-0.438C4.673,40.695,4.508,40.247,4.131,40.073L4.131,40.073z M4.131,40.073"/>
	<path style="fill:#353535;" d="M12.752,40.482H11.25c-0.413,0-0.751,0.334-0.751,0.754c0,0.415,0.338,0.75,0.751,0.75h1.502
		c0.413,0,0.746-0.335,0.746-0.75C13.498,40.816,13.165,40.482,12.752,40.482L12.752,40.482z M12.752,40.482"/>
	<path style="fill:#353535;" d="M8.251,40.482H6.749c-0.413,0-0.751,0.334-0.751,0.754c0,0.415,0.338,0.75,0.751,0.75h1.502
		c0.413,0,0.751-0.335,0.751-0.75C9.002,40.816,8.664,40.482,8.251,40.482L8.251,40.482z M8.251,40.482"/>
	<path style="fill:#353535;" d="M26.25,40.482h-1.502c-0.413,0-0.746,0.334-0.746,0.754c0,0.415,0.333,0.75,0.746,0.75h1.502
		c0.413,0,0.751-0.335,0.751-0.75C27.001,40.816,26.663,40.482,26.25,40.482L26.25,40.482z M26.25,40.482"/>
	<path style="fill:#353535;" d="M28.498,41.236c0,0.415,0.338,0.75,0.751,0.75h1.502c0.413,0,0.751-0.335,0.751-0.75
		c0-0.42-0.338-0.754-0.751-0.754h-1.502C28.836,40.482,28.498,40.816,28.498,41.236L28.498,41.236z M28.498,41.236"/>
	<path style="fill:#353535;" d="M33.75,41.986h1.502c0.413,0,0.746-0.335,0.746-0.75c0-0.42-0.333-0.754-0.746-0.754H33.75
		c-0.413,0-0.751,0.334-0.751,0.754C32.999,41.651,33.337,41.986,33.75,41.986L33.75,41.986z M33.75,41.986"/>
	<path style="fill:#353535;" d="M21.749,40.482h-1.497c-0.418,0-0.751,0.334-0.751,0.754c0,0.415,0.333,0.75,0.751,0.75h1.497
		c0.414,0,0.751-0.335,0.751-0.75C22.5,40.816,22.163,40.482,21.749,40.482L21.749,40.482z M21.749,40.482"/>
	<path style="fill:#353535;" d="M38.251,41.986h1.497c0.418,0,0.751-0.335,0.751-0.75c0-0.42-0.333-0.754-0.751-0.754h-1.497
		c-0.414,0-0.751,0.334-0.751,0.754C37.5,41.651,37.837,41.986,38.251,41.986L38.251,41.986z M38.251,41.986"/>
	<path style="fill:#353535;" d="M17.248,40.482h-1.497c-0.414,0-0.751,0.334-0.751,0.754c0,0.415,0.337,0.75,0.751,0.75h1.497
		c0.418,0,0.751-0.335,0.751-0.75C17.999,40.816,17.666,40.482,17.248,40.482L17.248,40.482z M17.248,40.482"/>
	<path style="fill:#353535;" d="M32.999,29.189c0,1.662,1.348,3.011,2.999,3.011c1.656,0,3.004-1.349,3.004-3.011
		c0-1.662-1.348-3.011-3.004-3.011C34.347,26.178,32.999,27.527,32.999,29.189L32.999,29.189z M35.998,27.681
		c0.828,0,1.502,0.677,1.502,1.508c0,0.831-0.674,1.504-1.502,1.504c-0.823,0-1.497-0.673-1.497-1.504
		C34.501,28.358,35.175,27.681,35.998,27.681L35.998,27.681z M35.998,27.681"/>
	<path style="fill:#353535;" d="M32.208,4.342l-4.079-4.092c-0.33-0.334-0.876-0.334-1.205,0l-1.535,1.541l-1.535-1.541
		c-0.333-0.334-0.875-0.334-1.208,0l-4.075,4.092H5.998C2.692,4.342,0,7.044,0,10.367v29.247C0,42.58,2.406,45,5.365,45H45V4.342
		H32.208z M27.528,1.776l13.059,13.109h-4.046l-8.449-8.485c-0.319-0.309-0.813-0.309-1.139,0.008l-8.441,8.477h-4.043L26.448,2.857
		L27.528,1.776z M34.424,14.885H20.632l6.895-6.923L34.424,14.885z M23.251,1.776l1.076,1.081L12.345,14.885h-2.153L20.691,4.342
		L23.251,1.776z M5.998,5.849h11.071l-1.545,1.552c-0.228,0.073-0.399,0.246-0.472,0.477l-6.981,7.007H5.998
		c-2.479,0-4.496-2.029-4.496-4.518C1.502,7.875,3.519,5.849,5.998,5.849L5.998,5.849z M43.498,32.953h-8.246
		c-2.069,0-3.75-1.691-3.75-3.764c0-2.077,1.681-3.764,3.75-3.764h8.246V32.953z M43.498,17.896h-0.746
		c-0.418,0-0.751,0.334-0.751,0.754c0,0.415,0.333,0.75,0.751,0.75h0.746v4.517h-8.246c-2.897,0-5.252,2.364-5.252,5.272
		c0,2.904,2.355,5.268,5.252,5.268h8.246v6.025h-0.746c-0.418,0-0.751,0.334-0.751,0.754c0,0.415,0.333,0.75,0.751,0.75h0.746v1.507
		H5.365c-2.132,0-3.863-1.738-3.863-3.878v-1.661c0.172-0.188,0.256-0.453,0.179-0.717c-0.121-0.412-0.179-0.839-0.179-1.272V15.367
		c0.172-0.188,0.256-0.453,0.179-0.717c-0.015-0.048-0.019-0.1-0.033-0.147c0.069,0.07,0.135,0.139,0.205,0.209
		c0.066,0.063,0.131,0.121,0.201,0.181c0.084,0.073,0.169,0.147,0.257,0.213c0.069,0.059,0.143,0.11,0.216,0.162
		c0.092,0.066,0.184,0.129,0.278,0.187c0.077,0.048,0.15,0.096,0.231,0.14c0.099,0.058,0.198,0.11,0.301,0.162
		c0.081,0.04,0.157,0.081,0.237,0.118c0.111,0.047,0.217,0.088,0.326,0.128c0.081,0.033,0.161,0.063,0.246,0.092
		c0.117,0.037,0.238,0.066,0.359,0.099c0.077,0.023,0.157,0.044,0.238,0.063c0.135,0.029,0.271,0.048,0.41,0.07
		c0.069,0.008,0.14,0.022,0.209,0.029c0.208,0.023,0.421,0.037,0.637,0.037h37.5V17.896z M42.708,14.885L36.705,8.86h0.044
		c0.414,0,0.751-0.334,0.751-0.753c0-0.416-0.337-0.75-0.751-0.75h-1.497c-0.015,0-0.026,0.004-0.038,0.008l-1.508-1.515h9.792
		v9.036H42.708z M42.708,14.885"/>
	<path style="fill:#353535;" d="M41.25,7.357h-1.502c-0.413,0-0.746,0.334-0.746,0.75c0,0.419,0.333,0.753,0.746,0.753h1.502
		c0.413,0,0.751-0.334,0.751-0.753C42.001,7.691,41.663,7.357,41.25,7.357L41.25,7.357z M41.25,7.357"/>
</g>
</svg>
