<?xml version="1.0" encoding="iso-8859-1"?>
<!-- Generator: Adobe Illustrator 21.1.0, SVG Export Plug-In . SVG Version: 6.00 Build 0)  -->
<svg version="1.1" id="&#x421;&#x43B;&#x43E;&#x439;_1"
	 xmlns="http://www.w3.org/2000/svg" xmlns:xlink="http://www.w3.org/1999/xlink" x="0px" y="0px" viewBox="0 0 35.355 45"
	 style="enable-background:new 0 0 35.355 45;" xml:space="preserve">
<g>
	<path style="fill:#EE8B26;" d="M6.426,20.657c0,0.444-0.357,0.805-0.8,0.805c-0.448,0-0.805-0.361-0.805-0.805
		c0-0.443,0.357-0.804,0.805-0.804C6.07,19.854,6.426,20.214,6.426,20.657L6.426,20.657z M6.426,20.657"/>
	<path style="fill:#66CEDB;" d="M8.036,32.825c-1.126,0.29-2.005,0.926-2.295,2.53h2.295V32.825z M8.036,32.825"/>
	<path style="fill:#EE8B26;" d="M9.645,32.825v2.699l2.166,1.624c0.153-0.377,0.243-0.788,0.243-1.223
		C12.053,34.429,11.026,33.186,9.645,32.825L9.645,32.825z M9.645,32.825"/>
	<path style="fill:#FFFFFF;" d="M32.142,6.996V36.58c0.934-0.329,1.609-1.216,1.609-2.26V3.783c0-1.331-1.084-2.174-2.414-2.174
		H10.444c-1.044,0-1.93,0-2.26,1.604h19.94C30.341,3.213,32.142,4.783,32.142,6.996L32.142,6.996z M32.142,6.996"/>
	<path style="fill:#EE8B26;" d="M11.249,14.231c0,0.443-0.357,0.801-0.805,0.801c-0.443,0-0.8-0.358-0.8-0.801
		c0-0.447,0.357-0.805,0.8-0.805C10.892,13.426,11.249,13.784,11.249,14.231L11.249,14.231z M11.249,14.231"/>
	<path style="fill:#FFFFFF;" d="M28.929,10.213v29.584c0.933-0.333,1.604-1.22,1.604-2.264V6.996c0-1.33-1.079-2.174-2.409-2.174
		H7.231c-1.044,0-1.931,0-2.264,1.604h19.944C27.124,6.426,28.929,7.996,28.929,10.213L28.929,10.213z M28.929,10.213"/>
	<path style="fill:#EE8B26;" d="M17.68,18.249c0,0.443-0.362,0.801-0.805,0.801c-0.444,0-0.805-0.358-0.805-0.801
		c0-0.447,0.361-0.805,0.805-0.805C17.319,17.444,17.68,17.802,17.68,18.249L17.68,18.249z M17.68,18.249"/>
	<path style="fill:#EE8B26;" d="M24.107,12.622c0,0.444-0.361,0.805-0.805,0.805c-0.443,0-0.805-0.361-0.805-0.805
		c0-0.443,0.362-0.804,0.805-0.804C23.746,11.818,24.107,12.179,24.107,12.622L24.107,12.622z M24.107,12.622"/>
	<path style="fill:#F8CF26;" d="M5.74,36.964c0.357,0.805,1.604,2.291,3.1,2.291c0.757,0,1.443-0.216,1.993-0.655l-2.26-1.636H5.74z
		 M5.74,36.964"/>
	<path style="fill:#66CEDB;" d="M27.32,10.444c0-1.33-1.079-2.409-2.409-2.409H4.018c-1.33,0-2.409,1.079-2.409,2.409v30.538
		c0,1.33,1.079,2.409,2.409,2.409h20.893c1.33,0,2.409-1.079,2.409-2.409V10.444z M3.213,20.657c0-1.33,1.083-2.409,2.414-2.409
		c0.129,0,0.258,0.016,0.384,0.039l2.327-2.911c-0.185-0.346-0.302-0.73-0.302-1.146c0-1.33,1.083-2.413,2.409-2.413
		c1.331,0,2.414,1.083,2.414,2.413c0,0.263-0.055,0.51-0.134,0.749l2.515,1.507c0.428-0.4,1-0.651,1.636-0.651
		c0.581,0,1.106,0.215,1.522,0.556l2.739-2.738c-0.153-0.314-0.243-0.663-0.243-1.033c0-1.33,1.079-2.409,2.409-2.409
		c1.33,0,2.414,1.079,2.414,2.409c0,1.331-1.084,2.41-2.414,2.41c-0.369,0-0.718-0.09-1.032-0.239l-3.029,3.024
		c0.028,0.142,0.043,0.283,0.043,0.432c0,1.326-1.079,2.409-2.409,2.409c-1.33,0-2.414-1.083-2.414-2.409
		c0-0.114,0.02-0.224,0.036-0.329l-2.766-1.659c-0.373,0.239-0.813,0.38-1.288,0.38c-0.321,0-0.631-0.066-0.914-0.18L7.431,19.08
		c0.374,0.424,0.605,0.973,0.605,1.577c0,1.331-1.083,2.41-2.409,2.41C4.296,23.067,3.213,21.988,3.213,20.657L3.213,20.657z
		 M8.84,40.746c-2.661,0-4.822-2.162-4.822-4.821c0-2.657,2.162-4.822,4.822-4.822c2.656,0,4.822,2.166,4.822,4.822
		C13.662,38.585,11.496,40.746,8.84,40.746L8.84,40.746z M24.107,40.178h-8.84v-1.609h8.84V40.178z M24.107,36.964h-8.84v-1.609
		h8.84V36.964z M24.107,33.751h-8.84v-1.609h8.84V33.751z M24.107,29.734H4.822v-1.609h19.284V29.734z M24.107,26.515H4.822v-1.604
		h19.284V26.515z M24.107,26.515"/>
	<path d="M31.338,0H10.444C8.478,0,6.846,1.303,6.502,3.17C4.874,3.472,3.59,4.697,3.288,6.325C1.42,6.67,0,8.248,0,10.213v30.533
		C0,42.96,1.801,45,4.018,45h20.893c1.966,0,3.598-1.538,3.943-3.406c1.628-0.302,2.911-1.644,3.213-3.272
		c1.867-0.345,3.288-2.04,3.288-4.002V3.783C35.355,1.57,33.554,0,31.338,0L31.338,0z M27.32,40.982c0,1.33-1.079,2.409-2.409,2.409
		H4.018c-1.33,0-2.409-1.079-2.409-2.409V10.444c0-1.33,1.079-2.409,2.409-2.409h20.893c1.33,0,2.409,1.079,2.409,2.409V40.982z
		 M30.533,37.533c0,1.044-0.671,1.931-1.604,2.264V10.213c0-2.217-1.805-3.787-4.018-3.787H4.967C5.3,4.822,6.187,4.822,7.231,4.822
		h20.893c1.33,0,2.409,0.844,2.409,2.174V37.533z M33.751,34.32c0,1.044-0.675,1.931-1.609,2.26V6.996
		c0-2.213-1.801-3.783-4.018-3.783H8.184c0.33-1.604,1.216-1.604,2.26-1.604h20.893c1.33,0,2.414,0.843,2.414,2.174V34.32z
		 M33.751,34.32"/>
	<path d="M23.302,10.213c-1.33,0-2.409,1.079-2.409,2.409c0,0.374,0.09,0.718,0.239,1.033l-2.735,2.738
		c-0.416-0.342-0.941-0.556-1.522-0.556c-0.636,0-1.208,0.251-1.64,0.651l-2.511-1.507c0.078-0.239,0.134-0.486,0.134-0.749
		c0-1.33-1.083-2.413-2.414-2.413c-1.326,0-2.409,1.083-2.409,2.413c0,0.416,0.117,0.805,0.302,1.146l-2.327,2.911
		c-0.126-0.023-0.255-0.039-0.384-0.039c-1.331,0-2.414,1.079-2.414,2.409c0,1.331,1.083,2.41,2.414,2.41
		c1.33,0,2.409-1.079,2.409-2.41c0-0.604-0.231-1.153-0.601-1.577l2.099-2.621c0.282,0.113,0.589,0.18,0.914,0.18
		c0.475,0,0.914-0.141,1.288-0.38l2.762,1.659c-0.016,0.105-0.036,0.216-0.036,0.329c0,1.326,1.084,2.409,2.414,2.409
		c1.33,0,2.409-1.083,2.409-2.409c0-0.149-0.015-0.29-0.043-0.428l3.029-3.028c0.313,0.149,0.663,0.243,1.032,0.243
		c1.33,0,2.41-1.083,2.41-2.414C25.716,11.292,24.632,10.213,23.302,10.213L23.302,10.213z M5.627,21.462
		c-0.444,0-0.805-0.361-0.805-0.805c0-0.443,0.361-0.804,0.805-0.804c0.439,0,0.8,0.361,0.8,0.804
		C6.426,21.101,6.066,21.462,5.627,21.462L5.627,21.462z M9.645,14.231c0-0.443,0.361-0.805,0.8-0.805
		c0.444,0,0.805,0.362,0.805,0.805s-0.361,0.801-0.805,0.801C10.005,15.031,9.645,14.67,9.645,14.231L9.645,14.231z M16.876,19.049
		c-0.444,0-0.805-0.358-0.805-0.801s0.361-0.805,0.805-0.805c0.443,0,0.805,0.362,0.805,0.805S17.319,19.049,16.876,19.049
		L16.876,19.049z M23.302,13.426c-0.443,0-0.805-0.361-0.805-0.805c0-0.443,0.362-0.804,0.805-0.804
		c0.444,0,0.805,0.361,0.805,0.804C24.107,13.066,23.746,13.426,23.302,13.426L23.302,13.426z M23.302,13.426"/>
	<rect x="4.822" y="24.911" width="19.284" height="1.605"/>
	<rect x="4.822" y="28.124" width="19.284" height="1.609"/>
	<path d="M8.84,31.103c-2.661,0-4.822,2.166-4.822,4.822c0,2.66,2.162,4.821,4.822,4.821c2.656,0,4.822-2.162,4.822-4.821
		C13.662,33.268,11.496,31.103,8.84,31.103L8.84,31.103z M12.053,35.925c0,0.435-0.09,0.847-0.243,1.223l-2.166-1.624v-2.699
		C11.026,33.186,12.053,34.429,12.053,35.925L12.053,35.925z M8.036,32.825v2.53H5.74C6.031,33.751,6.91,33.115,8.036,32.825
		L8.036,32.825z M5.74,36.964h2.833l2.26,1.577c-0.549,0.44-1.235,0.773-1.993,0.773C7.344,39.315,6.097,37.769,5.74,36.964
		L5.74,36.964z M5.74,36.964"/>
	<rect x="15.267" y="32.142" width="8.84" height="1.609"/>
	<rect x="15.267" y="35.355" width="8.84" height="1.609"/>
	<rect x="15.267" y="38.569" width="8.84" height="1.609"/>
</g>
</svg>
