<?xml version="1.0" encoding="iso-8859-1"?>
<!-- Generator: Adobe Illustrator 21.1.0, SVG Export Plug-In . SVG Version: 6.00 Build 0)  -->
<svg version="1.1" id="Layer_1" xmlns="http://www.w3.org/2000/svg" xmlns:xlink="http://www.w3.org/1999/xlink" x="0px" y="0px"
	 viewBox="184.5 374.503 45 44.999" style="enable-background:new 184.5 374.503 45 44.999;" xml:space="preserve">
<g>
	<path style="fill:#EDEDED;" d="M201.75,397.003h-1.5h-13.5h-1.5v9h16.5V397.003z M193.5,403.003c-0.829,0-1.5-0.671-1.5-1.5
		c0-0.829,0.671-1.5,1.5-1.5s1.5,0.671,1.5,1.5C195,402.331,194.329,403.003,193.5,403.003z"/>
	<path style="fill:#D84444;" d="M201.75,407.503v-1.5h-16.5v1.5c0,0.829,0.671,1.5,1.5,1.5h13.5
		C201.079,409.003,201.75,408.331,201.75,407.503z"/>
	<path style="fill:#12ADDD;" d="M225.75,397.753c0-0.265,0.054-0.515,0.138-0.75h-10.776c0.084,0.235,0.138,0.485,0.138,0.75
		c0,1.243-1.007,2.25-2.25,2.25c-0.265,0-0.514-0.054-0.75-0.138v6.275c0.236-0.083,0.485-0.137,0.75-0.137
		c1.243,0,2.25,1.007,2.25,2.25c0,0.265-0.054,0.514-0.138,0.75h10.775c-0.083-0.236-0.137-0.485-0.137-0.75
		c0-1.243,1.007-2.25,2.25-2.25c0.265,0,0.514,0.054,0.75,0.138v-6.275c-0.236,0.083-0.485,0.137-0.75,0.137
		C226.757,400.003,225.75,398.995,225.75,397.753z"/>
	<g>
		<path style="fill:#EDEDED;" d="M225.888,397.003c-0.084,0.235-0.138,0.485-0.138,0.75c0,1.243,1.007,2.25,2.25,2.25
			c0.265,0,0.514-0.054,0.75-0.138v-2.862h-1.5H225.888z"/>
		<path style="fill:#EDEDED;" d="M225.75,408.253c0,0.265,0.054,0.514,0.138,0.75h2.862v-2.862c-0.236-0.084-0.485-0.138-0.75-0.138
			C226.757,406.003,225.75,407.01,225.75,408.253z"/>
		<path style="fill:#EDEDED;" d="M215.25,397.753c0-0.265-0.054-0.515-0.138-0.75h-1.362h-1.5v2.862
			c0.236,0.084,0.485,0.138,0.75,0.138C214.243,400.003,215.25,398.995,215.25,397.753z"/>
		<path style="fill:#EDEDED;" d="M213,406.003c-0.265,0-0.514,0.054-0.75,0.138v2.862h2.862c0.084-0.236,0.138-0.485,0.138-0.75
			C215.25,407.01,214.243,406.003,213,406.003z"/>
		<path style="fill:#EDEDED;" d="M216.75,415.753h-4.5v-1.5c0-0.829-0.671-1.5-1.5-1.5h-2.25v-25.916
			c-0.177,0.103-0.364,0.186-0.561,0.251c-0.073,0.025-0.146,0.049-0.222,0.069c-0.069,0.017-0.137,0.032-0.208,0.044
			c-0.166,0.031-0.335,0.052-0.509,0.052s-0.344-0.021-0.509-0.051c-0.071-0.012-0.14-0.028-0.208-0.044
			c-0.076-0.02-0.148-0.043-0.222-0.069c-0.197-0.065-0.385-0.148-0.561-0.251v25.916h-2.25c-0.829,0-1.5,0.671-1.5,1.5v1.5h-4.5
			c-0.829,0-1.5,0.671-1.5,1.5v1.5h22.5v-1.5C218.25,416.424,217.579,415.753,216.75,415.753z"/>
		<path style="fill:#EDEDED;" d="M209.835,383.313c0.025,0.074,0.05,0.147,0.069,0.223c0.017,0.068,0.032,0.137,0.044,0.207
			c0.029,0.167,0.052,0.335,0.052,0.509c0,0.174-0.022,0.343-0.051,0.509c-0.012,0.07-0.028,0.139-0.044,0.208
			c-0.019,0.076-0.044,0.148-0.069,0.222c-0.065,0.197-0.148,0.385-0.251,0.561H220.5h3c0.829,0,1.5-0.671,1.5-1.5
			c0-0.829-0.671-1.5-1.5-1.5h-13.916l0,0c0,0,0,0,0,0.001C209.686,382.93,209.77,383.116,209.835,383.313z"/>
		<path style="fill:#EDEDED;" d="M204.096,384.97c-0.017-0.069-0.032-0.137-0.044-0.208c-0.031-0.166-0.052-0.335-0.052-0.509
			c0-0.175,0.021-0.344,0.051-0.509c0.012-0.07,0.028-0.139,0.044-0.207c0.02-0.076,0.044-0.15,0.069-0.223
			c0.065-0.197,0.148-0.383,0.251-0.56c0,0,0,0,0-0.001l0,0H190.5c-0.829,0-1.5,0.671-1.5,1.5c0,0.829,0.671,1.5,1.5,1.5h3h10.916
			c-0.103-0.177-0.186-0.364-0.251-0.561C204.139,385.118,204.115,385.045,204.096,384.97z"/>
	</g>
	<path style="fill:#12ADDD;" d="M206.283,387.157c0.069,0.017,0.137,0.032,0.208,0.044c0.166,0.031,0.335,0.052,0.509,0.052
		s0.344-0.021,0.509-0.051c0.071-0.012,0.14-0.028,0.208-0.044c0.076-0.02,0.149-0.043,0.222-0.069
		c0.197-0.065,0.385-0.148,0.561-0.251c0.45-0.262,0.822-0.634,1.084-1.084c0.103-0.177,0.186-0.364,0.251-0.561
		c0.024-0.073,0.05-0.146,0.069-0.222c0.017-0.069,0.032-0.137,0.044-0.208c0.029-0.167,0.052-0.336,0.052-0.51
		c0-0.175-0.022-0.343-0.051-0.509c-0.012-0.07-0.028-0.139-0.044-0.207c-0.019-0.076-0.045-0.149-0.069-0.223
		c-0.065-0.197-0.148-0.383-0.251-0.56c0,0,0,0,0-0.001c-0.177-0.304-0.408-0.572-0.675-0.797c-0.039-0.033-0.077-0.066-0.118-0.097
		c-0.073-0.055-0.148-0.107-0.226-0.155c-0.092-0.058-0.188-0.108-0.287-0.156c-0.064-0.031-0.129-0.06-0.196-0.087
		c-0.13-0.051-0.265-0.092-0.404-0.125c-0.049-0.011-0.098-0.022-0.148-0.031c-0.173-0.031-0.35-0.053-0.532-0.053
		s-0.359,0.022-0.532,0.053c-0.049,0.009-0.099,0.02-0.148,0.031c-0.139,0.033-0.273,0.074-0.404,0.125
		c-0.067,0.026-0.131,0.056-0.196,0.087c-0.098,0.047-0.195,0.098-0.287,0.156c-0.077,0.049-0.153,0.1-0.226,0.155
		c-0.041,0.031-0.079,0.064-0.118,0.097c-0.267,0.225-0.498,0.492-0.675,0.797c0,0,0,0,0,0.001c-0.103,0.176-0.185,0.363-0.251,0.56
		c-0.025,0.073-0.049,0.147-0.069,0.224c-0.017,0.068-0.032,0.136-0.044,0.207c-0.03,0.166-0.051,0.334-0.051,0.509
		c0,0.175,0.021,0.343,0.051,0.509c0.012,0.07,0.028,0.139,0.044,0.208c0.02,0.076,0.044,0.148,0.069,0.222
		c0.065,0.197,0.148,0.385,0.251,0.561c0.262,0.45,0.634,0.822,1.084,1.084c0.177,0.103,0.364,0.186,0.561,0.251
		C206.135,387.113,206.207,387.137,206.283,387.157z"/>
	<g>
		<path style="fill:#EDEDED;" d="M205.091,381.956c-0.269,0.224-0.497,0.491-0.675,0.797
			C204.593,382.448,204.824,382.181,205.091,381.956z"/>
		<path style="fill:#EDEDED;" d="M209.584,382.753c-0.178-0.305-0.405-0.572-0.675-0.797
			C209.176,382.181,209.407,382.448,209.584,382.753z"/>
	</g>
	<circle style="fill:#12ADDD;" cx="193.5" cy="401.503" r="1.5"/>
	<g>
		<path style="fill:#2D2D2D;" d="M220.5,401.503c0.413,0,0.75,0.336,0.75,0.75h1.5c0-1.241-1.01-2.25-2.25-2.25
			s-2.25,1.009-2.25,2.25c0,0.235,0.111,0.458,0.3,0.6l2.628,1.971c-0.121,0.254-0.38,0.429-0.678,0.429
			c-0.413,0-0.75-0.336-0.75-0.75h-1.5c0,1.24,1.01,2.25,2.25,2.25s2.25-1.01,2.25-2.25c0-0.236-0.111-0.458-0.3-0.6l-2.628-1.971
			C219.943,401.678,220.202,401.503,220.5,401.503z"/>
		<path style="fill:#2D2D2D;" d="M228.75,396.253h-1.076l-5.85-9.75h1.675c1.24,0,2.25-1.01,2.25-2.25
			c0-1.169-0.9-2.122-2.042-2.229l-16.398-7.454c-0.197-0.089-0.423-0.089-0.62,0l-16.399,7.454
			c-1.142,0.107-2.042,1.06-2.042,2.229c0,1.24,1.01,2.25,2.25,2.25h1.676l-5.85,9.75h-1.076c-0.414,0-0.75,0.335-0.75,0.75v10.5
			c0,1.24,1.01,2.25,2.25,2.25h13.5c1.24,0,2.25-1.01,2.25-2.25v-10.5c0-0.415-0.336-0.75-0.75-0.75h-1.076l-5.85-9.75h9.194
			c0.209,0.277,0.454,0.521,0.73,0.73v24.77h-1.5c-1.24,0-2.25,1.009-2.25,2.25v0.75h-3.75c-1.24,0-2.25,1.009-2.25,2.25v1.5
			c0,0.415,0.336,0.75,0.75,0.75h22.5c0.414,0,0.75-0.335,0.75-0.75v-1.5c0-1.241-1.01-2.25-2.25-2.25h-3.75v-0.75
			c0-1.241-1.01-2.25-2.25-2.25h-1.5v-24.77c0.277-0.209,0.521-0.454,0.73-0.73h9.194l-5.85,9.75h-1.074
			c-0.414,0-0.75,0.335-0.75,0.75v2.862v6.275v2.863c0,0.415,0.336,0.75,0.75,0.75h2.862h10.775h2.863c0.414,0,0.75-0.335,0.75-0.75
			v-2.862v-6.275v-2.863C229.5,396.588,229.164,396.253,228.75,396.253z M200.25,408.253h-13.5c-0.413,0-0.75-0.336-0.75-0.75v-0.75
			h15v0.75C201,407.917,200.663,408.253,200.25,408.253z M201,405.253h-15v-7.5h15V405.253z M188.074,396.253l5.426-9.043
			l5.426,9.043H188.074z M207,376.077l13.037,5.926h-10.053c-0.044-0.058-0.093-0.11-0.139-0.164
			c-0.114-0.134-0.235-0.261-0.367-0.378c-0.069-0.061-0.14-0.12-0.213-0.176c-0.104-0.079-0.209-0.154-0.321-0.223
			c-0.118-0.073-0.239-0.139-0.365-0.198c-0.075-0.035-0.15-0.069-0.227-0.099c-0.176-0.069-0.356-0.127-0.542-0.169
			c-0.049-0.01-0.098-0.018-0.148-0.027c-0.217-0.04-0.438-0.067-0.662-0.067s-0.445,0.027-0.662,0.067
			c-0.049,0.009-0.099,0.016-0.148,0.027c-0.185,0.042-0.365,0.099-0.542,0.169c-0.078,0.03-0.152,0.064-0.227,0.099
			c-0.125,0.059-0.247,0.125-0.365,0.198c-0.112,0.068-0.217,0.143-0.321,0.223c-0.073,0.056-0.144,0.114-0.213,0.176
			c-0.132,0.117-0.253,0.244-0.367,0.378c-0.046,0.055-0.096,0.107-0.139,0.164h-10.053L207,376.077z M209.174,384.802
			c-0.005,0.019-0.012,0.037-0.017,0.056c-0.053,0.176-0.123,0.349-0.221,0.517c-0.004,0.006-0.005,0.014-0.008,0.02
			c-0.193,0.323-0.461,0.592-0.784,0.785c-0.007,0.004-0.014,0.005-0.021,0.009c-0.17,0.1-0.347,0.172-0.526,0.223
			c-0.014,0.004-0.029,0.01-0.043,0.014c-0.365,0.098-0.742,0.098-1.107,0c-0.015-0.004-0.029-0.009-0.043-0.014
			c-0.179-0.052-0.355-0.124-0.526-0.223c-0.007-0.004-0.014-0.005-0.021-0.009c-0.323-0.193-0.592-0.461-0.785-0.785
			c-0.004-0.006-0.005-0.014-0.008-0.02c-0.098-0.168-0.169-0.341-0.221-0.517c-0.005-0.019-0.013-0.037-0.017-0.056
			c-0.05-0.181-0.077-0.364-0.077-0.55c0-0.186,0.027-0.369,0.076-0.55c0.005-0.02,0.012-0.037,0.017-0.056
			c0.053-0.176,0.123-0.349,0.221-0.517c0.197-0.339,0.469-0.608,0.785-0.8c0.033-0.02,0.067-0.038,0.102-0.056
			c0.12-0.064,0.248-0.116,0.378-0.158c0.046-0.015,0.092-0.032,0.139-0.044c0.173-0.042,0.35-0.07,0.532-0.07
			s0.359,0.028,0.53,0.07c0.048,0.012,0.093,0.029,0.14,0.044c0.131,0.041,0.258,0.093,0.378,0.158
			c0.035,0.018,0.069,0.035,0.102,0.056c0.316,0.193,0.588,0.461,0.785,0.8c0.098,0.168,0.169,0.341,0.221,0.518
			c0.005,0.019,0.013,0.037,0.017,0.056c0.049,0.18,0.076,0.363,0.076,0.549C209.25,384.439,209.223,384.622,209.174,384.802z
			 M190.5,385.003c-0.413,0-0.75-0.336-0.75-0.75s0.337-0.75,0.75-0.75h12.826c-0.049,0.242-0.076,0.493-0.076,0.75
			s0.026,0.508,0.076,0.75H190.5z M217.5,417.253v0.75h-21v-0.75c0-0.414,0.337-0.75,0.75-0.75h4.5h10.5h4.5
			C217.163,416.503,217.5,416.839,217.5,417.253z M211.5,414.253v0.75h-9v-0.75c0-0.414,0.337-0.75,0.75-0.75h2.25h3h2.25
			C211.163,413.503,211.5,413.839,211.5,414.253z M207.75,412.003h-1.5v-24.076c0.242,0.049,0.493,0.076,0.75,0.076
			s0.508-0.026,0.75-0.076V412.003z M210.75,384.253c0-0.257-0.026-0.508-0.076-0.75H223.5c0.413,0,0.75,0.336,0.75,0.75
			s-0.337,0.75-0.75,0.75h-12.826C210.724,384.76,210.75,384.509,210.75,384.253z M228,399.253c-0.827,0-1.5-0.673-1.5-1.5h1.5
			V399.253z M220.5,387.21l5.426,9.043h-0.038h-10.776h-0.037L220.5,387.21z M213,397.753h1.5c0,0.827-0.673,1.5-1.5,1.5V397.753z
			 M213,408.253v-1.5c0.827,0,1.5,0.673,1.5,1.5H213z M216,408.253c0-1.658-1.353-3.017-3-2.996v-4.504c1.654,0,3-1.346,3-3h9
			c0,1.654,1.346,3,3,3v4.504c-1.648-0.021-3,1.339-3,2.996H216z M228,408.253h-1.5c0-0.827,0.673-1.5,1.5-1.5V408.253z"/>
		<path style="fill:#2D2D2D;" d="M193.5,403.753c1.24,0,2.25-1.01,2.25-2.25c0-1.241-1.01-2.25-2.25-2.25s-2.25,1.009-2.25,2.25
			C191.25,402.743,192.26,403.753,193.5,403.753z M193.5,400.753c0.413,0,0.75,0.336,0.75,0.75c0,0.414-0.337,0.75-0.75,0.75
			s-0.75-0.336-0.75-0.75C192.75,401.089,193.087,400.753,193.5,400.753z"/>
		<rect x="197.25" y="400.753" style="fill:#2D2D2D;" width="1.5" height="1.5"/>
		<rect x="188.25" y="400.753" style="fill:#2D2D2D;" width="1.5" height="1.5"/>
	</g>
</g>
</svg>
