<?xml version="1.0" encoding="iso-8859-1"?>
<!-- Generator: Adobe Illustrator 21.1.0, SVG Export Plug-In . SVG Version: 6.00 Build 0)  -->
<svg version="1.1" id="&#x421;&#x43B;&#x43E;&#x439;_1"
	 xmlns="http://www.w3.org/2000/svg" xmlns:xlink="http://www.w3.org/1999/xlink" x="0px" y="0px" viewBox="0 0 70 70"
	 style="enable-background:new 0 0 70 70;" xml:space="preserve">
<g>
	<path style="fill:#FFFFFF;" d="M17.5,11.667c1.93,0,3.5-1.57,3.5-3.5V3.5C21,1.57,19.43,0,17.5,0C15.57,0,14,1.57,14,3.5v4.666
		C14,10.096,15.57,11.667,17.5,11.667L17.5,11.667z M16.333,3.5c0-0.643,0.523-1.167,1.166-1.167c0.643,0,1.167,0.524,1.167,1.167
		v4.666c0,0.643-0.524,1.167-1.167,1.167c-0.643,0-1.166-0.524-1.166-1.167V3.5z M16.333,3.5"/>
	<path style="fill:#FFFFFF;" d="M1.167,11.667c0.644,0,1.166-0.523,1.166-1.166V8.166c0-1.701,1.799-3.5,3.5-3.5H10.5
		c0.644,0,1.166-0.523,1.166-1.166c0-0.644-0.523-1.167-1.166-1.167H5.833C2.835,2.333,0,5.168,0,8.166V10.5
		C0,11.144,0.523,11.667,1.167,11.667L1.167,11.667z M1.167,11.667"/>
	<path style="fill:#FFFFFF;" d="M44.333,67.666h-38.5c-1.701,0-3.5-1.798-3.5-3.5V16.333h61.834c0.643,0,1.166-0.523,1.166-1.167
		c0-0.644-0.523-1.166-1.166-1.166h-63C0.523,14,0,14.523,0,15.166v49C0,67.165,2.835,70,5.833,70h38.5
		c0.644,0,1.166-0.523,1.166-1.167C45.499,68.189,44.977,67.666,44.333,67.666L44.333,67.666z M44.333,67.666"/>
	<path style="fill:#FFFFFF;" d="M64.166,43.166c0.644,0,1.167-0.523,1.167-1.166V19.834c0-0.644-0.523-1.167-1.167-1.167H5.833
		c-0.644,0-1.166,0.523-1.166,1.167v40.833c0,2.574,2.093,4.666,4.666,4.666H42c0.643,0,1.166-0.523,1.166-1.166
		C43.166,63.522,42.644,63,42,63H9.333C8.047,63,7,61.954,7,60.667V21h56v21C63,42.644,63.522,43.166,64.166,43.166L64.166,43.166z
		 M64.166,43.166"/>
	<path style="fill:#FFFFFF;" d="M64.166,2.333H59.5c-0.644,0-1.167,0.523-1.167,1.167c0,0.644,0.523,1.166,1.167,1.166h4.666
		c1.702,0,3.5,1.799,3.5,3.5v36.167c0,0.644,0.523,1.166,1.167,1.166c0.644,0,1.166-0.523,1.166-1.166V8.166
		C70,5.168,67.165,2.333,64.166,2.333L64.166,2.333z M64.166,2.333"/>
	<path style="fill:#FFFFFF;" d="M40.833,11.667c1.93,0,3.5-1.57,3.5-3.5V3.5c0-1.93-1.57-3.5-3.5-3.5c-1.93,0-3.5,1.57-3.5,3.5
		v4.666C37.333,10.096,38.903,11.667,40.833,11.667L40.833,11.667z M39.666,3.5c0-0.643,0.524-1.167,1.167-1.167
		c0.643,0,1.166,0.524,1.166,1.167v4.666c0,0.643-0.523,1.167-1.166,1.167c-0.643,0-1.167-0.524-1.167-1.167V3.5z M39.666,3.5"/>
	<path style="fill:#FFFFFF;" d="M32.666,26.833c0-0.644-0.522-1.166-1.166-1.166h-4.667c-0.644,0-1.166,0.523-1.166,1.166V31.5
		c0,0.644,0.523,1.166,1.166,1.166H31.5c0.644,0,1.166-0.522,1.166-1.166V26.833z M30.333,30.333H28V28h2.333V30.333z
		 M30.333,30.333"/>
	<path style="fill:#FFFFFF;" d="M52.5,11.667c1.93,0,3.5-1.57,3.5-3.5V3.5C56,1.57,54.43,0,52.5,0C50.57,0,49,1.57,49,3.5v4.666
		C49,10.096,50.57,11.667,52.5,11.667L52.5,11.667z M51.333,3.5c0-0.643,0.523-1.167,1.166-1.167c0.643,0,1.167,0.524,1.167,1.167
		v4.666c0,0.643-0.524,1.167-1.167,1.167c-0.643,0-1.166-0.524-1.166-1.167V3.5z M51.333,3.5"/>
	<path style="fill:#FFFFFF;" d="M29.167,11.667c1.929,0,3.499-1.57,3.499-3.5V3.5c0-1.93-1.57-3.5-3.499-3.5
		c-1.93,0-3.5,1.57-3.5,3.5v4.666C25.667,10.096,27.237,11.667,29.167,11.667L29.167,11.667z M28,3.5
		c0-0.643,0.524-1.167,1.167-1.167s1.166,0.524,1.166,1.167v4.666c0,0.643-0.523,1.167-1.166,1.167S28,8.809,28,8.166V3.5z M28,3.5"
		/>
	<path style="fill:#FFFFFF;" d="M57.167,44.333c-7.076,0-12.833,5.757-12.833,12.833C44.333,64.242,50.09,70,57.167,70
		C64.242,70,70,64.242,70,57.167C70,50.09,64.242,44.333,57.167,44.333L57.167,44.333z M57.167,67.666
		c-5.789,0-10.5-4.711-10.5-10.499c0-5.789,4.711-10.5,10.5-10.5c5.788,0,10.499,4.711,10.499,10.5
		C67.666,62.955,62.955,67.666,57.167,67.666L57.167,67.666z M57.167,67.666"/>
	<path style="fill:#FFFFFF;" d="M44.333,26.833c0-0.644-0.523-1.166-1.167-1.166H38.5c-0.644,0-1.167,0.523-1.167,1.166V31.5
		c0,0.644,0.523,1.166,1.167,1.166h4.666c0.644,0,1.167-0.522,1.167-1.166V26.833z M42,30.333h-2.334V28H42V30.333z M42,30.333"/>
	<path style="fill:#FFFFFF;" d="M32.666,38.5c0-0.644-0.522-1.167-1.166-1.167h-4.667c-0.644,0-1.166,0.523-1.166,1.167v4.666
		c0,0.644,0.523,1.167,1.166,1.167H31.5c0.644,0,1.166-0.523,1.166-1.167V38.5z M30.333,42H28v-2.334h2.333V42z M30.333,42"/>
	<path style="fill:#FFFFFF;" d="M19.834,49h-4.667C14.523,49,14,49.522,14,50.166v4.666C14,55.477,14.523,56,15.166,56h4.667
		C20.477,56,21,55.477,21,54.833v-4.666C21,49.522,20.477,49,19.834,49L19.834,49z M18.667,53.666h-2.333v-2.334h2.333V53.666z
		 M18.667,53.666"/>
	<path style="fill:#FFFFFF;" d="M31.5,49h-4.667c-0.644,0-1.166,0.523-1.166,1.167v4.666c0,0.644,0.523,1.167,1.166,1.167H31.5
		c0.644,0,1.166-0.523,1.166-1.167v-4.666C32.666,49.522,32.144,49,31.5,49L31.5,49z M30.333,53.666H28v-2.334h2.333V53.666z
		 M30.333,53.666"/>
	<path style="fill:#FFFFFF;" d="M21,38.5c0-0.644-0.523-1.167-1.166-1.167h-4.667C14.523,37.333,14,37.856,14,38.5v4.666
		c0,0.644,0.523,1.167,1.166,1.167h4.667c0.643,0,1.166-0.523,1.166-1.167V38.5z M18.667,42h-2.333v-2.334h2.333V42z M18.667,42"/>
	<path style="fill:#FFFFFF;" d="M58.333,56v-3.5c0-0.643-0.523-1.166-1.166-1.166C56.522,51.333,56,51.856,56,52.5v4.667
		c0,0.643,0.523,1.166,1.167,1.166h6.999c0.644,0,1.167-0.523,1.167-1.166c0-0.644-0.523-1.167-1.167-1.167H58.333z M58.333,56"/>
	<path style="fill:#FFFFFF;" d="M56,26.833c0-0.644-0.523-1.166-1.166-1.166h-4.667c-0.644,0-1.166,0.523-1.166,1.166V31.5
		c0,0.644,0.522,1.166,1.166,1.166h4.667c0.644,0,1.166-0.522,1.166-1.166V26.833z M53.666,30.333h-2.334V28h2.334V30.333z
		 M53.666,30.333"/>
	<path style="fill:#FFFFFF;" d="M54.833,42C55.477,42,56,41.477,56,40.833V38.5c0-0.644-0.523-1.167-1.166-1.167h-4.667
		C49.522,37.333,49,37.856,49,38.5v2.333C49,41.477,49.522,42,50.166,42c0.644,0,1.167-0.523,1.167-1.167v-1.167h2.333v1.167
		C53.666,41.477,54.189,42,54.833,42L54.833,42z M54.833,42"/>
	<path style="fill:#FFFFFF;" d="M40.833,51.333c0.644,0,1.167-0.523,1.167-1.167C42,49.522,41.477,49,40.833,49H38.5
		c-0.644,0-1.167,0.522-1.167,1.166v4.667c0,0.644,0.523,1.166,1.167,1.166h2.333C41.477,56,42,55.477,42,54.833
		c0-0.644-0.523-1.167-1.167-1.167h-1.167v-2.333H40.833z M40.833,51.333"/>
	<path style="fill:#FFFFFF;" d="M21,26.833c0-0.644-0.523-1.166-1.166-1.166h-4.667c-0.644,0-1.166,0.523-1.166,1.166V31.5
		c0,0.644,0.523,1.166,1.166,1.166h4.667c0.643,0,1.166-0.522,1.166-1.166V26.833z M18.667,30.333h-2.333V28h2.333V30.333z
		 M18.667,30.333"/>
	<path style="fill:#FFFFFF;" d="M44.333,43.166V38.5c0-0.644-0.523-1.167-1.167-1.167H38.5c-0.644,0-1.167,0.523-1.167,1.167v4.666
		c0,0.644,0.523,1.167,1.167,1.167h4.666C43.81,44.333,44.333,43.81,44.333,43.166L44.333,43.166z M42,42h-2.334v-2.334H42V42z
		 M42,42"/>
</g>
</svg>
