<?xml version="1.0" encoding="iso-8859-1"?>
<!-- Generator: Adobe Illustrator 21.1.0, SVG Export Plug-In . SVG Version: 6.00 Build 0)  -->
<svg version="1.1" id="Layer_1" xmlns="http://www.w3.org/2000/svg" xmlns:xlink="http://www.w3.org/1999/xlink" x="0px" y="0px"
	 viewBox="184.5 377.978 45 38.045" style="enable-background:new 184.5 377.978 45 38.045;" xml:space="preserve">
<g>
	<g>
		<path style="fill:#FFD41D;" d="M222.577,385.468c-1.637,0-3.189-0.728-4.236-1.986l-2.195-2.639
			c-1.047-1.258-2.599-1.986-4.236-1.986h-9.18c-1.012,0-1.833,0.821-1.833,1.833c0,1.012,0.821,1.833,1.833,1.833h7.882
			l0.458,0.383c-0.566-0.101-1.169,0.078-1.588,0.532c-0.642,0.696-0.611,1.777,0.07,2.435l4.738,4.573
			c1.306,1.261,3.05,1.965,4.865,1.965h4.115v-6.944L222.577,385.468L222.577,385.468z"/>
		<path style="fill:#FFD41D;" d="M191.51,408.533c1.637,0,3.189,0.728,4.236,1.986l2.195,2.639c1.047,1.258,2.599,1.986,4.236,1.986
			h9.18c1.012,0,1.833-0.821,1.833-1.833c0-1.012-0.821-1.833-1.833-1.833h-7.882l-0.458-0.383c0.566,0.101,1.169-0.078,1.588-0.532
			c0.642-0.696,0.611-1.777-0.07-2.435l-4.738-4.573c-1.306-1.261-3.05-1.965-4.865-1.965h-4.115v6.944H191.51z"/>
	</g>
	<g>
		<path style="fill:#92E03F;" d="M228.622,393.745v-9.643h-4.316c-0.619,0-1.12,0.501-1.12,1.12v7.403c0,0.619,0.501,1.12,1.12,1.12
			H228.622z"/>
		<path style="fill:#92E03F;" d="M185.379,400.222v9.643l4.137,0.034c0.718,0,1.3-0.582,1.3-1.3v-7.044c0-0.718-0.582-1.3-1.3-1.3
			L185.379,400.222z"/>
	</g>
	<path style="fill:#F2427F;" d="M213.22,396.346c0-1.769-1.434-3.202-3.202-3.202c-1.335,0-2.478,0.817-2.959,1.977
		c-0.481-1.161-1.624-1.977-2.959-1.977c-1.769,0-3.202,1.434-3.202,3.202c0,0.989,0.449,1.873,1.153,2.46l5.008,3.965l5.22-4.158
		C212.86,398.034,213.22,397.232,213.22,396.346z"/>
	<path d="M211.356,410.599h-3.41c-0.485,0-0.879,0.393-0.879,0.879s0.393,0.879,0.879,0.879h3.41c0.526,0,0.954,0.428,0.954,0.954
		c0,0.526-0.428,0.954-0.954,0.954h-9.18c-1.38,0-2.678-0.608-3.56-1.669l-2.195-2.639c-1.178-1.416-2.892-2.245-4.726-2.298v-5.191
		h3.236c1.596,0,3.107,0.61,4.255,1.718l4.738,4.573c0.335,0.323,0.351,0.865,0.035,1.207c-0.322,0.349-0.868,0.371-1.218,0.051
		l-3.72-3.41c-0.358-0.328-0.914-0.304-1.242,0.054c-0.328,0.358-0.304,0.914,0.054,1.242l3.72,3.41
		c0.502,0.46,1.137,0.687,1.77,0.687c0.707,0,1.412-0.283,1.927-0.841c0.959-1.038,0.911-2.682-0.106-3.663l-4.738-4.573
		c-1.477-1.426-3.422-2.211-5.475-2.211h-3.406c-0.331-0.783-1.106-1.333-2.008-1.333h-4.137c-0.485,0-0.879,0.393-0.879,0.879
		v6.426c0,0.485,0.393,0.879,0.879,0.879s0.879-0.393,0.879-0.879v-5.548h3.258c0.232,0,0.421,0.189,0.421,0.421v7.044
		c0,0.232-0.189,0.421-0.421,0.421h-0.913c-0.485,0-0.879,0.393-0.879,0.879c0,0.485,0.393,0.879,0.879,0.879h0.913
		c0.914,0,1.697-0.566,2.02-1.365c1.37,0.008,2.657,0.615,3.533,1.669l2.195,2.639c1.217,1.463,3.007,2.303,4.911,2.303h9.18
		c1.495,0,2.712-1.217,2.712-2.712S212.851,410.599,211.356,410.599z"/>
	<path d="M228.622,386.096c-0.485,0-0.879,0.393-0.879,0.879v5.891h-3.258c-0.232,0-0.421-0.189-0.421-0.421v-7.044
		c0-0.232,0.189-0.421,0.421-0.421h0.848c0.485,0,0.879-0.393,0.879-0.879c0-0.485-0.393-0.879-0.879-0.879h-0.848
		c-0.914,0-1.697,0.566-2.02,1.365c-1.37-0.008-2.657-0.615-3.533-1.669l-2.195-2.639c-1.217-1.463-3.007-2.303-4.911-2.303h-9.179
		c-1.495,0-2.712,1.217-2.712,2.712s1.217,2.712,2.712,2.712h3.754c0.485,0,0.879-0.393,0.879-0.879s-0.393-0.879-0.879-0.879
		h-3.754c-0.526,0-0.954-0.428-0.954-0.954c0-0.526,0.428-0.954,0.954-0.954h9.18c1.38,0,2.678,0.608,3.56,1.669l2.195,2.639
		c1.178,1.416,2.892,2.245,4.726,2.298v5.191h-3.236c-1.596,0-3.107-0.61-4.255-1.718l-4.738-4.573
		c-0.335-0.323-0.351-0.865-0.035-1.207c0.322-0.349,0.868-0.371,1.218-0.051l3.72,3.41c0.358,0.328,0.914,0.304,1.242-0.054
		c0.328-0.358,0.304-0.914-0.054-1.242l-3.72-3.41c-1.062-0.973-2.72-0.904-3.697,0.154c-0.959,1.039-0.911,2.682,0.106,3.663
		l4.738,4.573c1.477,1.426,3.422,2.211,5.475,2.211h3.406c0.331,0.783,1.106,1.333,2.008,1.333h4.137
		c0.485,0,0.879-0.393,0.879-0.879v-6.77C229.5,386.49,229.107,386.096,228.622,386.096z"/>
	<path d="M211.714,407.428c-0.445,0.194-0.649,0.712-0.455,1.157c0.144,0.331,0.467,0.528,0.806,0.528
		c0.117,0,0.236-0.024,0.35-0.073c0.004-0.002,0.015-0.007,0.019-0.008c0.442-0.2,0.64-0.721,0.441-1.163
		C212.675,407.425,212.156,407.228,211.714,407.428z"/>
	<path d="M213.829,406.203c-0.392,0.287-0.477,0.837-0.19,1.228c0.172,0.235,0.439,0.36,0.71,0.36c0.18,0,0.362-0.055,0.518-0.17
		c0.001-0.001,0.01-0.007,0.011-0.008c0.389-0.288,0.468-0.835,0.181-1.225C214.772,405.998,214.22,405.917,213.829,406.203z"/>
	<path d="M209.379,408.176c-0.473,0.094-0.783,0.552-0.692,1.027c0.081,0.421,0.449,0.714,0.862,0.714
		c0.055,0,0.11-0.005,0.166-0.016c0.006-0.001,0.02-0.004,0.026-0.005c0.475-0.101,0.777-0.567,0.676-1.041
		C210.318,408.381,209.853,408.078,209.379,408.176z"/>
	<path d="M216.895,404.477c-0.36-0.325-0.916-0.296-1.241,0.064c-0.004,0.005-0.014,0.016-0.019,0.021
		c-0.317,0.367-0.276,0.922,0.091,1.239c0.166,0.143,0.37,0.213,0.574,0.213c0.244,0,0.487-0.101,0.66-0.298
		C217.284,405.356,217.255,404.801,216.895,404.477z M216.404,405.217l-0.098-0.088l0.106,0.095L216.404,405.217z"/>
	<path d="M219.132,399.714c-0.464-0.141-0.956,0.124-1.097,0.589c-0.143,0.464,0.118,0.956,0.581,1.098
		c0.086,0.027,0.173,0.039,0.259,0.039c0.376,0,0.723-0.243,0.84-0.621l0.004-0.012C219.86,400.343,219.596,399.855,219.132,399.714
		z"/>
	<path d="M220.251,395.145c-0.099-0.475-0.565-0.779-1.039-0.68c-0.473,0.099-0.777,0.561-0.682,1.034
		c0.081,0.419,0.448,0.713,0.862,0.713c0.051,0,0.104-0.004,0.156-0.014c0.478-0.086,0.796-0.542,0.71-1.02
		C220.256,395.167,220.254,395.156,220.251,395.145z"/>
	<path d="M219.452,397.085c-0.482-0.043-0.91,0.315-0.953,0.798c-0.001,0.009-0.002,0.026-0.003,0.034
		c-0.028,0.485,0.341,0.9,0.826,0.929c0.018,0.001,0.035,0.002,0.052,0.002c0.458,0,0.842-0.354,0.876-0.815
		C220.29,397.552,219.934,397.128,219.452,397.085z"/>
	<path d="M218.272,402.215c-0.422-0.239-0.959-0.091-1.198,0.331l-0.012,0.022c-0.231,0.427-0.075,0.964,0.351,1.195
		c0.134,0.073,0.279,0.107,0.421,0.107c0.31,0,0.61-0.165,0.768-0.457l-0.764-0.434l0.765,0.433
		C218.842,402.99,218.694,402.454,218.272,402.215z"/>
	<path d="M201.545,386.75c0.133,0,0.268-0.03,0.395-0.093c0.434-0.217,0.61-0.745,0.393-1.179s-0.745-0.61-1.179-0.393l-0.008,0.004
		c-0.434,0.217-0.606,0.743-0.389,1.177C200.911,386.573,201.222,386.75,201.545,386.75z"/>
	<path d="M204.009,385.834c0.072,0,0.146-0.009,0.22-0.028c0.472-0.114,0.761-0.589,0.647-1.061
		c-0.114-0.472-0.589-0.761-1.061-0.647c-0.004,0.001-0.017,0.004-0.021,0.005c-0.47,0.121-0.755,0.601-0.634,1.071
		C203.262,385.571,203.618,385.834,204.009,385.834z"/>
	<path d="M199.319,388.18c0.192,0,0.385-0.063,0.547-0.191l0.012-0.009c0.377-0.305,0.435-0.856,0.131-1.234
		c-0.304-0.378-0.857-0.437-1.235-0.134l0.545,0.69l-0.547-0.688c-0.38,0.302-0.442,0.855-0.14,1.235
		C198.805,388.066,199.061,388.18,199.319,388.18z"/>
	<path d="M194.883,394.707c0.07,0.017,0.139,0.025,0.208,0.025c0.394,0,0.753-0.268,0.852-0.666c0.12-0.465-0.155-0.941-0.62-1.068
		c-0.468-0.128-0.951,0.148-1.079,0.617c-0.002,0.008-0.006,0.025-0.008,0.033C194.122,394.119,194.412,394.593,194.883,394.707z"/>
	<path d="M194.686,397.344c0.009,0,0.018,0,0.027,0c0.471,0,0.86-0.374,0.878-0.847c0.022-0.48-0.346-0.889-0.827-0.917
		c-0.486-0.027-0.9,0.342-0.928,0.827c-0.001,0.011-0.001,0.023-0.001,0.034C193.82,396.925,194.201,397.329,194.686,397.344z"/>
	<path d="M195.63,392.17c0.125,0.061,0.257,0.09,0.387,0.09c0.323,0,0.633-0.179,0.787-0.486c0.219-0.428,0.053-0.954-0.374-1.178
		c-0.43-0.226-0.961-0.06-1.186,0.37l-0.014,0.028C195.015,391.43,195.194,391.956,195.63,392.17z"/>
	<path d="M196.904,389.853c0.161,0.128,0.354,0.19,0.545,0.19c0.258,0,0.513-0.113,0.687-0.329c0.304-0.373,0.252-0.923-0.12-1.232
		c-0.373-0.31-0.928-0.259-1.238,0.115c-0.004,0.005-0.014,0.017-0.018,0.022C196.46,388.999,196.524,389.551,196.904,389.853z"/>
	<path d="M194.737,398.226c-0.478,0.086-0.796,0.542-0.71,1.02l0.002,0.009c0.076,0.425,0.445,0.72,0.862,0.72
		c0.052,0,0.105-0.005,0.158-0.014c0.478-0.086,0.795-0.547,0.709-1.024C195.671,398.459,195.214,398.141,194.737,398.226z"/>
	<path d="M201.488,399.482c0.006,0.005,0.011,0.009,0.017,0.014l5.008,3.965c0.16,0.127,0.353,0.19,0.545,0.19
		c0.194,0,0.387-0.064,0.548-0.191l5.22-4.158c0.026-0.02,0.05-0.042,0.073-0.065c0.773-0.771,1.199-1.797,1.199-2.889
		c0-2.25-1.831-4.081-4.081-4.081c-1.144,0-2.204,0.472-2.959,1.268c-0.755-0.796-1.815-1.268-2.959-1.268
		c-2.25,0-4.081,1.831-4.081,4.081C200.019,397.56,200.554,398.703,201.488,399.482z M204.1,394.023
		c0.943,0,1.786,0.563,2.147,1.435c0.136,0.328,0.456,0.542,0.812,0.542c0.355,0,0.676-0.214,0.812-0.542
		c0.361-0.872,1.204-1.435,2.147-1.435c1.281,0,2.323,1.042,2.323,2.323c0,0.607-0.231,1.178-0.651,1.613l-4.633,3.69l-4.452-3.524
		c-0.527-0.443-0.829-1.091-0.829-1.779C201.777,395.065,202.819,394.023,204.1,394.023z"/>
	<circle cx="185.379" cy="409.899" r="0.876"/>
	<circle cx="228.621" cy="384.102" r="0.876"/>
</g>
</svg>
