<?xml version="1.0" encoding="iso-8859-1"?>
<!-- Generator: Adobe Illustrator 21.1.0, SVG Export Plug-In . SVG Version: 6.00 Build 0)  -->
<svg version="1.1" id="Layer_1" xmlns="http://www.w3.org/2000/svg" xmlns:xlink="http://www.w3.org/1999/xlink" x="0px" y="0px"
	 viewBox="184.501 374.543 45 44.913" style="enable-background:new 184.501 374.543 45 44.913;" xml:space="preserve">
<g>
	<path style="fill:#FBCB99;" d="M215.074,383.188c0,0.166-0.005,0.331-0.016,0.494c-0.019,0.318-0.057,0.629-0.112,0.936
		c-0.122,0.681-0.328,1.333-0.61,1.943c-1.276,2.776-4.083,4.705-7.339,4.705c-3.328,0-6.187-2.012-7.422-4.888
		c-0.241-0.558-0.42-1.149-0.528-1.763c-0.054-0.303-0.091-0.611-0.111-0.925c-0.012-0.166-0.017-0.333-0.017-0.502
		c0-4.46,3.616-8.078,8.078-8.078C211.458,375.11,215.074,378.728,215.074,383.188z"/>
	<path style="fill:#EAA96E;" d="M214.946,384.618c-0.122,0.681-0.328,1.333-0.61,1.943c-6.751,0.036-9.704-2.964-9.704-2.964
		c-1.534,1.494-3.514,2.326-5.057,2.781c-0.241-0.558-0.42-1.149-0.528-1.763c0.677-3.775,3.979-6.64,7.95-6.64
		C210.968,377.975,214.27,380.842,214.946,384.618z"/>
	<path style="fill:#694B4B;" d="M215.074,383.188c0,0.166-0.005,0.331-0.016,0.494c-7.262,0.263-10.426-2.95-10.426-2.95
		c-0.455,0.443-0.948,0.828-1.458,1.161c-1.459,0.956-3.052,1.498-4.238,1.796c-0.012-0.166-0.017-0.333-0.017-0.502
		c0-4.46,3.616-8.078,8.078-8.078c2.88,0,5.408,1.508,6.837,3.778C214.62,380.134,215.074,381.607,215.074,383.188z"/>
	<path style="fill:#563939;" d="M215.074,383.188c0,0.166-0.005,0.331-0.016,0.494c-7.262,0.263-10.426-2.95-10.426-2.95
		c-0.455,0.443-0.948,0.828-1.458,1.161c1.413-2.348,3.987-3.919,6.926-3.919c1.347,0,2.618,0.33,3.734,0.914
		C214.62,380.134,215.074,381.607,215.074,383.188z"/>
	<path style="fill:#3C6F99;" d="M219.412,402.33h-24.734c0.679-6.231,5.956-11.079,12.367-11.079
		C213.456,391.25,218.733,396.099,219.412,402.33z"/>
	<path style="fill:#6598CB;" d="M218.68,402.33h-23.271c1.78-4.693,6.318-8.03,11.636-8.03
		C212.362,394.3,216.9,397.636,218.68,402.33z"/>
	<path style="fill:#EAA96E;" d="M211.239,392.143l-1.365,1.561l-2.919,3.337l-3.152-3.167l-1.723-1.731
		C207.235,389.666,211.239,392.143,211.239,392.143z"/>
	<path style="fill:#FBCB99;" d="M209.875,393.704l-2.919,3.337l-3.152-3.167C206.319,393.027,208.47,393.3,209.875,393.704z"/>
	<polygon style="fill:#C62E1E;" points="228.875,404.03 227.405,405.501 225.711,407.195 223.857,405.341 222.469,406.728 
		214.962,399.154 213.329,397.506 217.841,392.996 	"/>
	<path style="fill:#EF4C35;" d="M227.405,405.501l-1.695,1.694l-1.853-1.853l-1.388,1.387l-7.507-7.575l0,0
		c1.684-1.683,4.413-1.683,6.097,0.001L227.405,405.501z"/>
	<polygon style="fill:#C62E1E;" points="185.18,404.03 186.65,405.501 188.344,407.195 190.198,405.341 191.586,406.728 
		199.093,399.154 200.726,397.506 196.213,392.996 	"/>
	<path style="fill:#EF4C35;" d="M186.65,405.501l1.695,1.694l1.853-1.853l1.388,1.387l7.507-7.575l0,0
		c-1.684-1.683-4.413-1.683-6.097,0.001L186.65,405.501z"/>
	<polygon style="fill:#FBCB99;" points="216.879,408.726 218.481,410.327 218.372,410.435 217.029,411.778 211.458,417.35 
		210.602,416.494 208.705,418.391 206.785,416.471 204.534,418.723 202.906,417.094 202.521,417.48 195.76,410.718 197.32,409.157 
		193.149,404.986 200.121,397.333 213.531,397.333 220.901,404.705 	"/>
	<g>
		<path style="fill:#EAA96E;" d="M202.871,397.999l-4.905,4.905c-0.929,0.929-0.929,2.436,0,3.365l1.275,1.275l-1.882,1.882
			l-4.406-4.406l7.38-7.38L202.871,397.999z"/>
		<path style="fill:#EAA96E;" d="M215.233,407.129l0.492-0.492c1.149-1.149,1.149-3.011,0-4.159l-4.486-4.486l2.286-0.53
			l7.428,7.428l-4.064,4.064L215.233,407.129z"/>
		<path style="fill:#EAA96E;" d="M199.434,414.018l1.54-1.54c0.57-0.57,0.57-1.494,0-2.064l0,0l0.67-0.67l1.899,1.899l-3.203,3.203
			L199.434,414.018z"/>
		<path style="fill:#EAA96E;" d="M201.622,416.205l1.54-1.54c0.57-0.57,0.57-1.494,0-2.064l0,0l0.67-0.67l1.899,1.899l-3.203,3.203
			L201.622,416.205z"/>
		<path style="fill:#EAA96E;" d="M197.357,411.941l1.54-1.54c0.57-0.57,0.57-1.494,0-2.064l0,0l0.67-0.67l1.899,1.899l-3.203,3.203
			L197.357,411.941z"/>
		<path style="fill:#EAA96E;" d="M212.536,414.934l-0.714,0.718l-2.679-2.679c-0.393-0.393-0.388-1.033,0.012-1.419l0,0
			c0,0,1.027,0.325,1.073,0.337C210.274,411.902,212.536,414.934,212.536,414.934z"/>
		<path style="fill:#EAA96E;" d="M211.509,409.2L211.509,409.2c-0.446,0.446-0.446,1.169,0,1.615l2.747,2.747l1.228-1.228
			l-3.201-3.201L211.509,409.2z"/>
		<path style="fill:#EAA96E;" d="M203.888,417.486l1.081-1.081c0.325-0.325,0.325-0.851,0-1.175l0,0l1.7-1.7l3.064,3.064
			l-1.459,1.459l-1.511-1.511l-1.899,1.899L203.888,417.486z"/>
		<path style="fill:#EAA96E;" d="M204.93,399.84L204.93,399.84c0.554,0.554,0.554,1.452,0,2.006l-2.412,2.412l-1.492-1.492
			l2.69-2.69"/>
		<path style="fill:#EAA96E;" d="M218.372,410.435l-1.343,1.343l-5.085-5.085c-0.901-0.901-2.362-0.901-3.263,0l-0.947,0.947
			c-0.901,0.901-2.361,0.901-3.263,0l0,0l-0.409-0.409l5.553-5.553L218.372,410.435z"/>
	</g>
	<path d="M216.004,394.075c-1.55-1.446-3.422-2.493-5.442-3.067c2.961-1.368,5.021-4.367,5.021-7.837
		c0-4.758-3.871-8.629-8.628-8.629c-4.758,0-8.629,3.871-8.629,8.629c0,3.467,2.055,6.462,5.011,7.833
		c-2.002,0.565-3.851,1.6-5.407,3.048l-1.786-1.786l-11.644,11.644l3.785,3.785l1.649-1.649l1.42,1.42l1.715-1.715l3.484,3.484
		l-1.563,1.563l3.122,3.124l0.001-0.001l2.214,2.216l0.001-0.001l2.135,2.136l0.497-0.497l1.679,1.68l1.996-1.996l1.878,1.878
		l1.883-1.883l0.725,0.725l2.764-2.764l0,0l2.33-2.329l0,0l2.812-2.812l-1.353-1.353l3.155-3.155l1.736,1.736l1.41-1.41l1.649,1.649
		l3.785-3.785l-11.644-11.644L216.004,394.075z M211.763,392.813c1.214,0.534,2.341,1.268,3.325,2.179l-1.869,1.869h-4.986
		L211.763,392.813z M206.955,396.354l-3.515-4.03c1.126-0.345,2.308-0.525,3.515-0.525c1.199,0,2.381,0.183,3.51,0.531
		L206.955,396.354z M206.955,375.838c4.043,0,7.333,3.29,7.333,7.333c0,0.025-0.002,0.05-0.002,0.075
		c-4.861-0.129-7.757-1.757-8.894-2.557c0.542-0.652,0.777-1.123,0.802-1.174l-1.166-0.565c-0.013,0.028-1.307,2.608-5.403,4.063
		C199.712,379.042,202.965,375.838,206.955,375.838z M199.718,384.349c2.224-0.732,3.755-1.779,4.768-2.711
		c1.189,0.884,4.307,2.741,9.672,2.9c-0.643,3.392-3.627,5.966-7.203,5.966C203.313,390.504,200.283,387.835,199.718,384.349z
		 M202.141,392.807l3.536,4.054h-4.938l-1.893-1.893C199.831,394.06,200.943,393.334,202.141,392.807z M192.635,404.358
		l-0.002-0.002l-1.278,1.278l-0.504-0.504l5.488-5.488l-0.916-0.916l-5.946,5.946l0,0l-1.191,1.191l-1.953-1.953l9.812-9.812
		l3.375,3.376L192.635,404.358z M198.114,412.089l-1.29-1.291l2.757-2.757l1.291,1.291L198.114,412.089z M200.258,414.232
		l-1.219-1.22l2.757-2.757l1.219,1.219L200.258,414.232z M202.392,416.367l-1.147-1.148l2.757-2.757l1.147,1.147L202.392,416.367z
		 M204.64,417.623l-0.763-0.764l1.765-1.765l0.764,0.764L204.64,417.623z M208.514,417.506l-0.962-0.962l0.686-0.686l-1.68-1.68
		l0.281-0.281l0.623,0.623l-0.006,0.006l2.019,2.019L208.514,417.506z M216.759,408.006l-7.243-7.243l-5.045,5.045l-2.755-2.755
		l3.213-3.213l-0.916-0.916l-4.129,4.129l4.587,4.587l5.045-5.045l5.661,5.661l2.019,2.019l-1.39,1.39l-3.381-3.381l-0.916,0.916
		l3.381,3.381l-1.438,1.438l-3.381-3.381l-0.916,0.916l3.381,3.381l-1.413,1.413l-3.381-3.381l-0.701,0.701l-2.122-2.122l0,0
		l-2.215-2.215l-0.908-0.908l-2.215-2.215l-2.11,2.11l-3.482-3.482l6.68-6.68h12.55l6.695,6.695L216.759,408.006z M225.625,405.911
		l-1.191-1.191l0,0l-5.946-5.946l-0.916,0.916l5.488,5.488l-0.494,0.493l-0.82-0.82l0,0l-7.342-7.342l3.362-3.363l9.812,9.812
		L225.625,405.911z"/>
	
		<rect id="SVGCleanerId_0" x="216.197" y="397.51" transform="matrix(0.7071 -0.7071 0.7071 0.7071 -217.95 269.918)" width="1.296" height="1.075"/>
	<rect x="196.527" y="397.353" transform="matrix(0.7072 -0.707 0.707 0.7072 -223.6898 255.8576)" width="1.075" height="1.296"/>
	<rect id="SVGCleanerId_1" x="228.205" y="381.501" width="1.296" height="1.41"/>
	<rect id="SVGCleanerId_2" x="223.454" y="384.142" width="1.296" height="1.41"/>
	<rect id="SVGCleanerId_3" x="219.738" y="378.527" width="1.296" height="1.41"/>
	<rect id="SVGCleanerId_4" x="223.454" y="375.808" width="1.296" height="1.41"/>
	<rect id="SVGCleanerId_5" x="216.919" y="386.198" width="1.296" height="1.41"/>
	<rect id="SVGCleanerId_6" x="223.328" y="390.56" width="1.296" height="1.41"/>
	<rect id="SVGCleanerId_7" x="184.589" y="381.501" width="1.296" height="1.41"/>
	<rect id="SVGCleanerId_8" x="189.34" y="384.142" width="1.296" height="1.41"/>
	<rect id="SVGCleanerId_9" x="193.055" y="378.527" width="1.296" height="1.41"/>
	<rect id="SVGCleanerId_10" x="189.34" y="375.808" width="1.296" height="1.41"/>
	<rect id="SVGCleanerId_11" x="195.874" y="386.198" width="1.296" height="1.41"/>
	<rect id="SVGCleanerId_12" x="189.466" y="390.56" width="1.296" height="1.41"/>
	<path d="M216.004,394.075c-1.55-1.446-3.422-2.493-5.442-3.067c2.961-1.368,5.021-4.367,5.021-7.837
		c0-4.758-3.871-8.629-8.628-8.629c-4.758,0-8.629,3.871-8.629,8.629c0,3.467,2.055,6.462,5.011,7.833
		c-2.002,0.565-3.851,1.6-5.407,3.048l-1.786-1.786l-11.644,11.644l3.785,3.785l1.649-1.649l1.42,1.42l1.715-1.715l3.484,3.484
		l-1.563,1.563l3.122,3.124l0.001-0.001l2.214,2.216l0.001-0.001l2.135,2.136l0.497-0.497l1.679,1.68l1.996-1.996l1.878,1.878
		l1.883-1.883l0.725,0.725l2.764-2.764l0,0l2.33-2.329l0,0l2.812-2.812l-1.353-1.353l3.155-3.155l1.736,1.736l1.41-1.41l1.649,1.649
		l3.785-3.785l-11.644-11.644L216.004,394.075z M213.219,396.861h-4.986l3.531-4.048c1.214,0.534,2.341,1.268,3.325,2.179
		L213.219,396.861z M206.955,375.838c4.043,0,7.333,3.29,7.333,7.333c0,0.025-0.002,0.05-0.002,0.075
		c-4.861-0.129-7.757-1.757-8.894-2.557c0.542-0.652,0.777-1.123,0.802-1.174l-1.166-0.565c-0.013,0.028-1.307,2.608-5.403,4.063
		C199.712,379.042,202.965,375.838,206.955,375.838z M199.718,384.349c2.224-0.732,3.755-1.779,4.768-2.711
		c1.189,0.884,4.307,2.741,9.672,2.9c-0.643,3.392-3.627,5.966-7.203,5.966C203.313,390.504,200.283,387.835,199.718,384.349z
		 M210.465,392.331l-3.51,4.024l-3.515-4.03c1.126-0.345,2.308-0.525,3.515-0.525C208.154,391.8,209.336,391.983,210.465,392.331z
		 M202.141,392.807l3.536,4.054h-4.938l-1.893-1.893C199.831,394.06,200.943,393.334,202.141,392.807z M190.851,405.129l5.488-5.488
		l-0.916-0.916l-5.946,5.946l0,0l-1.191,1.191l-1.953-1.953l9.812-9.812l3.375,3.376l-6.884,6.884l-0.002-0.002l-1.278,1.278
		L190.851,405.129z M199.581,408.041l1.291,1.291l-2.757,2.757l-1.29-1.291L199.581,408.041z M201.796,410.256l1.219,1.219
		l-2.757,2.757l-1.219-1.22L201.796,410.256z M204.002,412.463l1.147,1.147l-2.757,2.757l-1.147-1.148L204.002,412.463z
		 M203.877,416.859l1.765-1.765l0.764,0.764l-1.765,1.765L203.877,416.859z M209.475,416.545l-0.961,0.961l-0.962-0.962l0.686-0.686
		l-1.68-1.68l0.281-0.281l0.623,0.623l-0.006,0.006L209.475,416.545z M216.759,408.006l-7.243-7.243l-5.045,5.045l-2.755-2.755
		l3.213-3.213l-0.916-0.916l-4.129,4.129l4.587,4.587l5.045-5.045l5.661,5.661l2.019,2.019l-1.39,1.39l-3.381-3.381l-0.916,0.916
		l3.381,3.381l-1.438,1.438l-3.381-3.381l-0.916,0.916l3.381,3.381l-1.413,1.413l-3.381-3.381l-0.701,0.701l-2.122-2.122l0,0
		l-2.215-2.215l-0.908-0.908l-2.215-2.215l-2.11,2.11l-3.482-3.482l6.68-6.68h12.55l6.695,6.695L216.759,408.006z M225.625,405.911
		l-1.191-1.191l0,0l-5.946-5.946l-0.916,0.916l5.488,5.488l-0.494,0.493l-0.82-0.82l0,0l-7.342-7.342l3.362-3.363l9.812,9.812
		L225.625,405.911z"/>
	<g>
		
			<rect id="SVGCleanerId_0_1_" x="216.197" y="397.51" transform="matrix(0.7071 -0.7071 0.7071 0.7071 -217.95 269.918)" width="1.296" height="1.075"/>
	</g>
	<rect x="196.526" y="397.35" transform="matrix(0.7072 -0.707 0.707 0.7072 -223.688 255.8564)" width="1.075" height="1.296"/>
	<g>
		<rect id="SVGCleanerId_1_1_" x="228.205" y="381.501" width="1.296" height="1.41"/>
	</g>
	<g>
		<rect id="SVGCleanerId_2_1_" x="223.454" y="384.142" width="1.296" height="1.41"/>
	</g>
	<g>
		<rect id="SVGCleanerId_3_1_" x="219.738" y="378.527" width="1.296" height="1.41"/>
	</g>
	<g>
		<rect id="SVGCleanerId_4_1_" x="223.454" y="375.808" width="1.296" height="1.41"/>
	</g>
	<g>
		<rect id="SVGCleanerId_5_1_" x="216.919" y="386.198" width="1.296" height="1.41"/>
	</g>
	<g>
		<rect id="SVGCleanerId_6_1_" x="223.328" y="390.56" width="1.296" height="1.41"/>
	</g>
	<g>
		<rect id="SVGCleanerId_7_1_" x="184.589" y="381.501" width="1.296" height="1.41"/>
	</g>
	<g>
		<rect id="SVGCleanerId_8_1_" x="189.34" y="384.142" width="1.296" height="1.41"/>
	</g>
	<g>
		<rect id="SVGCleanerId_9_1_" x="193.055" y="378.527" width="1.296" height="1.41"/>
	</g>
	<g>
		<rect id="SVGCleanerId_10_1_" x="189.34" y="375.808" width="1.296" height="1.41"/>
	</g>
	<g>
		<rect id="SVGCleanerId_11_1_" x="195.874" y="386.198" width="1.296" height="1.41"/>
	</g>
	<g>
		<rect id="SVGCleanerId_12_1_" x="189.466" y="390.56" width="1.296" height="1.41"/>
	</g>
</g>
</svg>
