<?xml version="1.0" encoding="iso-8859-1"?>
<!-- Generator: Adobe Illustrator 21.1.0, SVG Export Plug-In . SVG Version: 6.00 Build 0)  -->
<svg version="1.1" id="Layer_1" xmlns="http://www.w3.org/2000/svg" xmlns:xlink="http://www.w3.org/1999/xlink" x="0px" y="0px"
	 viewBox="186.268 374.5 41.463 45" style="enable-background:new 186.268 374.5 41.463 45;" xml:space="preserve">
<g>
	<path style="fill:#579E2E;" d="M214.195,398.983v7.007l-20.692,0.263v-7.271c0-4.387,2.73-8.136,6.584-9.641
		c1.166-0.456,2.435-0.705,3.761-0.705h0.001c1.319,0,2.579,0.246,3.738,0.696C211.454,390.832,214.195,394.587,214.195,398.983z"/>
	<path style="fill:#75BF4D;" d="M214.195,402.079v3.911l-20.692,0.264v-4.174c0-4.387,2.73-8.136,6.584-9.641
		c1.166-0.456,2.435-0.705,3.761-0.705h0.001c1.319,0,2.579,0.246,3.738,0.696C211.454,393.928,214.195,397.684,214.195,402.079z"/>
	<path style="fill:#EAA96E;" d="M207.588,389.333l-1.291,1.491l-2.448,2.829l-2.466-2.825l-1.297-1.486
		c1.166-0.456,2.435-0.705,3.761-0.705h0.001C205.168,388.637,206.428,388.883,207.588,389.333z"/>
	<g>
		<path style="fill:#FBCB99;" d="M206.297,390.824l-2.448,2.829l-2.466-2.825c0.79-0.193,1.615-0.296,2.465-0.296h0.001
			C204.693,390.532,205.513,390.633,206.297,390.824z"/>
		<path style="fill:#FBCB99;" d="M210.577,381.946c0,0.138-0.004,0.276-0.013,0.412c-0.016,0.265-0.047,0.524-0.093,0.78
			c-0.101,0.567-0.274,1.11-0.508,1.618c-1.063,2.313-3.401,3.919-6.113,3.919c-2.773,0-5.153-1.676-6.182-4.071
			c-0.2-0.465-0.35-0.957-0.44-1.469c-0.045-0.253-0.076-0.509-0.092-0.771c-0.01-0.138-0.014-0.278-0.014-0.418
			c0-3.715,3.012-6.728,6.728-6.728C207.565,375.218,210.577,378.231,210.577,381.946z"/>
	</g>
	<path style="fill:#EAA96E;" d="M210.471,383.137c-0.101,0.567-0.274,1.11-0.508,1.618c-5.623,0.03-8.083-2.469-8.083-2.469
		c-1.278,1.245-2.927,1.938-4.212,2.317c-0.2-0.465-0.35-0.957-0.44-1.469c0.564-3.144,3.315-5.531,6.622-5.531
		S209.907,379.992,210.471,383.137z"/>
	<path style="fill:#694B4B;" d="M210.577,381.946c0,0.138-0.004,0.276-0.013,0.412c-6.049,0.219-8.684-2.457-8.684-2.457
		c-0.379,0.369-0.79,0.689-1.214,0.967c-1.215,0.797-2.542,1.247-3.53,1.496c-0.01-0.138-0.014-0.278-0.014-0.418
		c0-3.715,3.012-6.728,6.728-6.728c2.399,0,4.505,1.257,5.695,3.147C210.199,379.402,210.577,380.63,210.577,381.946z"/>
	<path style="fill:#563939;" d="M210.577,381.946c0,0.138-0.004,0.276-0.013,0.412c-6.049,0.219-8.684-2.457-8.684-2.457
		c-0.379,0.369-0.79,0.689-1.214,0.967c1.177-1.956,3.321-3.264,5.77-3.264c1.122,0,2.18,0.275,3.11,0.762
		C210.199,379.402,210.577,380.63,210.577,381.946z"/>
	<path style="fill:#C8D0E2;" d="M214.917,406.561v3.09h-2.348c-0.226,1.267-0.725,2.439-1.432,3.455l1.661,1.66l-2.185,2.185
		l-1.661-1.66c-1.015,0.708-2.188,1.206-3.455,1.432v2.347h-3.09v-2.347c-1.267-0.226-2.438-0.725-3.454-1.432l-0.203,0.203
		l-1.458,1.457l-2.185-2.185l1.661-1.66c-0.708-1.016-1.207-2.188-1.432-3.455h-2.348v-3.09h2.348
		c0.225-1.267,0.724-2.439,1.432-3.455l-1.661-1.661l2.185-2.185l1.661,1.661c1.015-0.708,2.187-1.206,3.454-1.432v-2.348h3.09
		v2.348c1.267,0.226,2.439,0.724,3.455,1.432l1.661-1.661l2.185,2.185l-1.504,1.504l-0.157,0.157
		c0.708,1.015,1.206,2.188,1.432,3.455H214.917L214.917,406.561z"/>
	<path style="fill:#AEB9CC;" d="M211.137,413.105l1.661,1.66l-2.185,2.185l-1.661-1.66c-1.015,0.708-2.188,1.206-3.455,1.432v2.226
		c-1.092-0.037-2.132-0.271-3.09-0.667v-1.559c-1.267-0.226-2.438-0.725-3.454-1.432l-0.203,0.203
		c-1.176-1.513-1.876-3.415-1.876-5.479c0-4.938,4.003-8.941,8.94-8.941c2.065,0,3.966,0.7,5.479,1.876l-0.157,0.157
		c0.708,1.015,1.206,2.188,1.432,3.455h1.496c0.402,0.957,0.641,1.998,0.684,3.09h-2.179
		C212.344,410.917,211.845,412.089,211.137,413.105z"/>
	<path style="fill:#213847;" d="M209.129,408.152c0,2.858-2.317,5.175-5.175,5.175c-1.87,0-3.507-0.991-4.417-2.476
		c-0.481-0.786-0.758-1.71-0.758-2.699c0-2.859,2.316-5.176,5.175-5.176c0.989,0,1.913,0.277,2.699,0.759
		C208.137,404.644,209.129,406.282,209.129,408.152z"/>
	<path style="fill:#324A5E;" d="M207.411,406.434c0,2.859-2.317,5.175-5.176,5.175c-0.989,0-1.913-0.277-2.699-0.758
		c-0.481-0.786-0.758-1.71-0.758-2.699c0-2.859,2.316-5.176,5.175-5.176c0.989,0,1.913,0.277,2.699,0.759
		C207.134,404.52,207.411,405.445,207.411,406.434z"/>
	<path d="M203.953,413.996c3.242,0,5.879-2.637,5.879-5.879s-2.637-5.879-5.879-5.879c-3.242,0-5.879,2.637-5.879,5.879
		S200.712,413.996,203.953,413.996z M208.628,408.117c0,2.577-2.097,4.674-4.674,4.674c-2.577,0-4.674-2.097-4.674-4.674
		s2.097-4.674,4.674-4.674C206.531,403.442,208.628,405.539,208.628,408.117z"/>
	<path style="fill:#C8D0E2;" d="M227.227,391.557v2.295h-1.744c-0.168,0.941-0.538,1.811-1.064,2.566l1.234,1.233l-1.623,1.623
		l-1.234-1.233c-0.754,0.526-1.625,0.896-2.566,1.064v1.743h-2.295v-1.743c-0.941-0.168-1.811-0.538-2.565-1.064l-0.151,0.151
		l-1.083,1.082l-1.623-1.623l1.234-1.233c-0.526-0.755-0.897-1.625-1.064-2.566h-1.744v-2.295h1.744
		c0.167-0.941,0.537-1.812,1.064-2.566l-1.234-1.234l1.623-1.623l1.234,1.234c0.754-0.526,1.624-0.896,2.565-1.064v-1.744h2.295
		v1.744c0.941,0.168,1.812,0.538,2.566,1.064l1.234-1.234l1.623,1.623l-1.117,1.117l-0.117,0.117
		c0.526,0.754,0.896,1.625,1.064,2.566H227.227L227.227,391.557z"/>
	<path style="fill:#AEB9CC;" d="M224.42,396.417l1.234,1.233l-1.623,1.623l-1.234-1.233c-0.754,0.526-1.625,0.896-2.566,1.064v1.653
		c-0.811-0.027-1.584-0.201-2.295-0.495v-1.158c-0.941-0.168-1.811-0.538-2.565-1.064l-0.151,0.151
		c-0.873-1.124-1.394-2.537-1.394-4.07c0-3.668,2.973-6.641,6.64-6.641c1.534,0,2.946,0.52,4.07,1.394l-0.117,0.117
		c0.526,0.754,0.896,1.625,1.064,2.566h1.111c0.298,0.71,0.476,1.484,0.508,2.295h-1.618
		C225.316,394.792,224.945,395.663,224.42,396.417z"/>
	<path style="fill:#213847;" d="M222.928,392.739c0,2.123-1.721,3.844-3.844,3.844c-1.389,0-2.604-0.736-3.28-1.839
		c-0.357-0.583-0.563-1.27-0.563-2.004c0-2.123,1.72-3.844,3.844-3.844c0.734,0,1.421,0.206,2.004,0.564
		C222.192,390.133,222.928,391.35,222.928,392.739z"/>
	<path style="fill:#324A5E;" d="M221.652,391.463c0,2.123-1.721,3.844-3.844,3.844c-0.734,0-1.421-0.206-2.004-0.563
		c-0.357-0.583-0.563-1.27-0.563-2.004c0-2.123,1.72-3.844,3.844-3.844c0.734,0,1.421,0.206,2.004,0.564
		C221.447,390.042,221.652,390.728,221.652,391.463z"/>
	<path d="M219.084,397.079c2.408,0,4.366-1.959,4.366-4.366c0-2.408-1.959-4.366-4.366-4.366s-4.366,1.959-4.366,4.366
		C214.718,395.12,216.677,397.079,219.084,397.079z M222.556,392.713c0,1.914-1.557,3.472-3.472,3.472s-3.472-1.557-3.472-3.472
		c0-1.914,1.557-3.472,3.472-3.472S222.556,390.798,222.556,392.713z"/>
	<path d="M218.9,388.685c-2.179,0-3.951,1.772-3.951,3.951s1.772,3.951,3.951,3.951c2.179,0,3.951-1.772,3.951-3.951
		S221.079,388.685,218.9,388.685z M216.247,392.636c0-1.463,1.19-2.653,2.653-2.653c1.463,0,2.653,1.19,2.653,2.653
		c0,1.463-1.19,2.653-2.653,2.653C217.437,395.289,216.247,394.099,216.247,392.636z"/>
	<path d="M220.123,409.185l0.953,0.881c1.873-2.028,3.228-4.505,3.917-7.164l-1.257-0.326
		C223.101,405.029,221.851,407.314,220.123,409.185z"/>
	<path d="M217.138,411.696l0.704,1.09c0.462-0.299,0.915-0.624,1.346-0.967l-0.808-1.016
		C217.982,411.12,217.564,411.421,217.138,411.696z"/>
	<rect x="225.133" y="416.724" width="1.298" height="1.427"/>
	<rect x="216.841" y="416.01" width="1.298" height="1.427"/>
	<rect x="226.432" y="409.885" width="1.298" height="1.427"/>
	<rect x="214.949" y="379.123" width="1.298" height="1.427"/>
	<rect x="186.268" y="392.444" width="1.298" height="1.427"/>
	<rect x="188.998" y="410.137" width="1.298" height="1.427"/>
	<rect x="186.268" y="416.724" width="1.298" height="1.427"/>
	<rect x="194.294" y="387.189" width="1.298" height="1.427"/>
	<rect x="187.708" y="382.038" width="1.298" height="1.427"/>
	<rect x="192.594" y="376.875" width="1.298" height="1.427"/>
	<rect x="221.553" y="375.773" width="1.298" height="1.427"/>
	<rect x="225.133" y="380.045" width="1.298" height="1.427"/>
	<path d="M203.966,402.697c-2.995,0-5.431,2.436-5.431,5.431c0,2.995,2.436,5.431,5.431,5.431c2.995,0,5.431-2.436,5.431-5.431
		C209.396,405.133,206.96,402.697,203.966,402.697z M208.098,408.128c0,2.279-1.854,4.133-4.133,4.133
		c-2.279,0-4.133-1.854-4.133-4.133c0-2.279,1.854-4.133,4.133-4.133C206.244,403.995,208.098,405.849,208.098,408.128z"/>
	<path d="M225.852,390.835c-0.167-0.647-0.422-1.263-0.763-1.839l1.329-1.329l-2.548-2.548l-1.329,1.329
		c-0.577-0.341-1.192-0.596-1.839-0.763v-1.878h-3.604v1.878c-0.647,0.167-1.263,0.422-1.839,0.763l-1.329-1.329l-2.548,2.548
		l1.329,1.329c-0.341,0.577-0.596,1.192-0.763,1.839h-0.533c-1.181-1.031-2.577-1.821-4.111-2.295
		c2.418-1.224,4.08-3.732,4.08-6.622c0-4.09-3.328-7.418-7.418-7.418c-4.09,0-7.418,3.328-7.418,7.418
		c0,2.89,1.662,5.398,4.08,6.622c-4.63,1.429-8.005,5.748-8.005,10.842v6.587h-0.029v4.32h2.418
		c0.224,0.936,0.591,1.821,1.096,2.643l-1.71,1.71l3.055,3.055l1.71-1.71c0.822,0.505,1.708,0.872,2.643,1.096v2.418h4.32v-2.418
		c0.936-0.224,1.821-0.591,2.643-1.096l1.71,1.71l3.055-3.055l-1.711-1.71c0.505-0.822,0.872-1.708,1.096-2.643h2.418v-4.32h-0.029
		v-6.586c0-0.179-0.005-0.357-0.013-0.535c0.566,0.33,1.169,0.579,1.803,0.742v1.878h3.604v-1.878
		c0.647-0.167,1.263-0.422,1.839-0.763l1.329,1.329l2.548-2.548l-1.329-1.329c0.341-0.577,0.596-1.192,0.763-1.839h1.878v-3.604
		H225.852L225.852,390.835z M226.433,393.14h-1.646l-0.095,0.535c-0.149,0.838-0.473,1.619-0.962,2.32l-0.311,0.446l1.165,1.165
		l-0.712,0.712l-1.165-1.165l-0.446,0.311c-0.702,0.489-1.482,0.813-2.32,0.962l-0.535,0.095v1.646h-1.008v-1.646l-0.535-0.095
		c-0.838-0.149-1.619-0.473-2.32-0.962l-0.446-0.311l-1.165,1.165l-0.712-0.712l1.165-1.165l-0.311-0.446
		c-0.489-0.701-0.813-1.482-0.962-2.32l-0.095-0.535h-1.646v-1.008h1.646l0.095-0.535c0.149-0.838,0.473-1.619,0.962-2.32
		l0.311-0.446l-1.165-1.165l0.712-0.712l1.165,1.165l0.446-0.311c0.702-0.489,1.482-0.813,2.321-0.962l0.535-0.095v-1.646h1.008
		v1.646l0.535,0.095c0.838,0.149,1.619,0.473,2.32,0.962l0.446,0.311l1.165-1.165l0.712,0.712l-1.165,1.165l0.311,0.446
		c0.489,0.702,0.813,1.482,0.962,2.32l0.095,0.535h1.646L226.433,393.14L226.433,393.14z M211.849,407.266h2.191v1.724h-2.191
		l-0.095,0.535c-0.201,1.127-0.636,2.177-1.294,3.121l-0.311,0.446l1.55,1.55l-1.219,1.219l-1.55-1.55l-0.446,0.311
		c-0.944,0.658-1.994,1.093-3.121,1.294l-0.535,0.095v2.191h-1.724v-2.191l-0.535-0.095c-1.127-0.201-2.177-0.636-3.121-1.294
		l-0.446-0.311l-1.55,1.55l-1.219-1.219l1.55-1.55l-0.311-0.446c-0.658-0.944-1.093-1.994-1.294-3.121l-0.095-0.535h-2.191v-1.724
		h2.191l0.095-0.535c0.201-1.127,0.636-2.177,1.294-3.121l0.311-0.446l-1.55-1.55l1.219-1.219l1.55,1.55l0.446-0.311
		c0.944-0.658,1.994-1.093,3.121-1.294l0.535-0.095v-2.191h1.724v2.191l0.535,0.095c1.127,0.201,2.177,0.636,3.121,1.294
		l0.446,0.311l1.55-1.55l1.219,1.219l-1.55,1.55l0.311,0.446c0.658,0.944,1.094,1.994,1.294,3.121L211.849,407.266z
		 M211.824,403.324l1.711-1.71l-3.055-3.055l-1.162,1.162h-0.047v0.047l-0.501,0.501c-0.822-0.505-1.708-0.872-2.643-1.096v-2.418
		h-1.511v-2.577l3.458-3.964c0.714,0.321,1.383,0.723,1.997,1.194v3.029h1.878c0.167,0.647,0.422,1.263,0.763,1.839l-1.329,1.329
		l2.548,2.548l0.08-0.08v5.885h-1.093C212.693,405.027,212.327,404.144,211.824,403.324z M203.966,375.798
		c3.361,0,6.097,2.724,6.119,6.08c-3.92-0.125-6.301-1.405-7.3-2.087c0.42-0.52,0.605-0.889,0.625-0.931l-1.166-0.57
		c-0.047,0.093-1.103,2.137-4.391,3.349C197.999,378.393,200.685,375.798,203.966,375.798z M197.94,382.984
		c1.812-0.61,3.082-1.464,3.937-2.238c1.058,0.769,3.672,2.272,8.078,2.428c-0.581,2.775-3.046,4.865-5.99,4.865
		C200.954,388.039,198.446,385.852,197.94,382.984z M206.769,389.735l-2.803,3.214l-2.803-3.214c0.89-0.259,1.831-0.399,2.803-0.399
		C204.938,389.337,205.879,389.476,206.769,389.735z M193.921,399.382c0-4.076,2.441-7.593,5.938-9.166l3.458,3.964v2.577h-1.511
		v2.418c-0.936,0.224-1.821,0.591-2.643,1.096l-0.502-0.501v-0.047h-0.047l-1.162-1.162l-3.055,3.055l1.71,1.71
		c-0.503,0.82-0.87,1.702-1.094,2.634h-1.093V399.382z"/>
</g>
</svg>
