<?xml version="1.0" encoding="iso-8859-1"?>
<!-- Generator: Adobe Illustrator 21.1.0, SVG Export Plug-In . SVG Version: 6.00 Build 0)  -->
<svg version="1.1" id="Layer_1" xmlns="http://www.w3.org/2000/svg" xmlns:xlink="http://www.w3.org/1999/xlink" x="0px" y="0px"
	 viewBox="187.506 374.5 38.987 45" style="enable-background:new 187.506 374.5 38.987 45;" xml:space="preserve">
<g>
	<path style="fill:#ECEDEF;" d="M197.981,379.714v9.739v0.031c0,3.321,2.692,6.013,6.013,6.013h0.752v3.006h-0.752
		c-3.321,0-6.013,2.692-6.013,6.013v9.77h18.038v-9.77c0-3.321-2.692-6.013-6.013-6.013h-0.752v-3.006h0.752
		c3.321,0,6.013-2.692,6.013-6.013v-0.031v-9.739H197.981z"/>
	<g>
		<path style="fill:#D9DCDF;" d="M200.236,389.484v-0.031v-9.739h-2.255v9.739v0.031c0,3.321,2.692,6.013,6.013,6.013h0.752h1.503
			C202.928,395.497,200.236,392.805,200.236,389.484z"/>
		<path style="fill:#D9DCDF;" d="M203.994,398.503c-3.321,0-6.013,2.692-6.013,6.013v9.77h2.255v-9.77
			c0-3.321,2.692-6.013,6.013-6.013h-1.503H203.994z"/>
	</g>
	<path style="fill:#C4DF64;" d="M197.981,389.484c0,3.321,2.692,6.013,6.013,6.013h0.752v2.255h4.509v-2.255h0.752
		c3.321,0,6.013-2.692,6.013-6.013v-0.031h-18.038V389.484z"/>
	<path style="fill:#A6C451;" d="M201.739,392.491c-0.811-0.811-1.184-2.06-1.356-3.038h-2.402v0.031
		c0,3.321,2.692,6.013,6.013,6.013h0.752v2.255H207v-3.758C207,393.994,203.242,393.994,201.739,392.491z"/>
	<path style="fill:#FFC44F;" d="M218.273,381.217h-22.547c-0.83,0-1.503-0.673-1.503-1.503v-3.006c0-0.83,0.673-1.503,1.503-1.503
		h22.547c0.83,0,1.503,0.673,1.503,1.503v3.006C219.777,380.544,219.104,381.217,218.273,381.217z"/>
	<path style="fill:#F7AB49;" d="M195.727,375.205c-0.83,0-1.503,0.673-1.503,1.503v3.006c0,0.83,0.673,1.503,1.503,1.503h2.302
		v-6.013H195.727z"/>
	<rect x="209.302" y="375.205" style="fill:#FFD791;" width="4.462" height="6.013"/>
	<path style="fill:#FFC44F;" d="M218.273,412.783h-22.547c-0.83,0-1.503,0.673-1.503,1.503v3.006c0,0.83,0.673,1.503,1.503,1.503
		h22.547c0.83,0,1.503-0.673,1.503-1.503v-3.006C219.777,413.456,219.104,412.783,218.273,412.783z"/>
	<path style="fill:#F7AB49;" d="M195.727,412.783c-0.83,0-1.503,0.673-1.503,1.503v3.006c0,0.83,0.673,1.503,1.503,1.503h2.302
		v-6.013H195.727z"/>
	<rect x="209.302" y="412.783" style="fill:#FFD791;" width="4.462" height="6.013"/>
	<path style="fill:#C4DF64;" d="M207,408.242c-3.351,0-6.275,1.828-7.83,4.541h15.66C213.275,410.07,210.351,408.242,207,408.242z"
		/>
	<path style="fill:#A6C451;" d="M208.66,408.396c-0.538-0.1-1.093-0.154-1.66-0.154c-3.351,0-6.275,1.828-7.83,4.541h3.321
		C203.782,410.529,206.019,408.888,208.66,408.396z"/>
	<g>
		<circle style="fill:#D8ED8C;" cx="211.134" cy="392.115" r="1.127"/>
		<circle style="fill:#D8ED8C;" cx="208.503" cy="410.528" r="0.752"/>
	</g>
	<path d="M218.273,374.5h-5.261c-0.389,0-0.705,0.315-0.705,0.705s0.315,0.705,0.705,0.705h5.261c0.44,0,0.799,0.358,0.799,0.799
		v3.006c0,0.44-0.358,0.799-0.799,0.799h-22.547c-0.44,0-0.799-0.358-0.799-0.799v-3.006c0-0.44,0.358-0.799,0.799-0.799h13.528
		c0.389,0,0.705-0.315,0.705-0.705s-0.315-0.705-0.705-0.705h-13.528c-1.217,0-2.208,0.99-2.208,2.208v3.006
		c0,1.217,0.99,2.208,2.208,2.208h1.55v7.531v0.031c0,3.704,3.013,6.717,6.717,6.717h0.047v1.55v0.047h-0.047
		c-3.704,0-6.717,3.013-6.717,6.717v2.255c0,0.389,0.315,0.705,0.705,0.705c0.389,0,0.705-0.315,0.705-0.705v-2.255
		c0-2.927,2.381-5.308,5.308-5.308h0.752c0.389,0,0.705-0.315,0.705-0.705v-3.006c0-0.389-0.315-0.705-0.705-0.705h-0.752
		c-2.699,0-4.934-2.024-5.265-4.635h16.543c-0.332,2.61-2.567,4.635-5.265,4.635h-0.752c-0.389,0-0.705,0.315-0.705,0.705v3.006
		c0,0.389,0.315,0.705,0.705,0.705h0.752c2.927,0,5.308,2.381,5.308,5.308v7.563h-0.087c-1.775-2.811-4.889-4.541-8.227-4.541
		c-3.338,0-6.452,1.73-8.227,4.541h-0.087v-1.55c0-0.389-0.315-0.705-0.705-0.705c-0.389,0-0.705,0.315-0.705,0.705v1.55h-1.55
		c-1.217,0-2.208,0.99-2.208,2.208v3.006c0,1.217,0.99,2.208,2.208,2.208h22.547c1.217,0,2.208-0.99,2.208-2.208v-3.006
		c0-1.217-0.99-2.208-2.208-2.208h-1.55v-7.563c0-3.704-3.013-6.717-6.717-6.717h-0.047v-0.047v-1.55h0.047
		c3.704,0,6.717-3.013,6.717-6.717v-0.031v-7.531h1.55c1.217,0,2.208-0.99,2.208-2.208v-3.006
		C220.481,375.49,219.491,374.5,218.273,374.5z M207,408.947c2.544,0,4.936,1.174,6.501,3.131h-13.002
		C202.064,410.121,204.456,408.947,207,408.947z M219.072,414.286v3.006c0,0.44-0.358,0.799-0.799,0.799h-22.547
		c-0.44,0-0.799-0.358-0.799-0.799v-3.006c0-0.44,0.358-0.799,0.799-0.799h22.547C218.714,413.487,219.072,413.846,219.072,414.286z
		 M215.314,388.748h-16.628v-6.827h16.628V388.748z"/>
	<path d="M224.286,385.022c-0.44,0-0.799-0.358-0.799-0.799c0-0.44,0.358-0.799,0.799-0.799h1.503c0.389,0,0.705-0.315,0.705-0.705
		s-0.315-0.705-0.705-0.705h-0.799v-0.799c0-0.389-0.315-0.705-0.705-0.705c-0.389,0-0.705,0.315-0.705,0.705v0.914
		c-0.873,0.295-1.503,1.121-1.503,2.092c0,1.217,0.99,2.208,2.208,2.208c0.44,0,0.799,0.358,0.799,0.799s-0.358,0.799-0.799,0.799
		h-1.503c-0.389,0-0.705,0.315-0.705,0.705c0,0.389,0.315,0.705,0.705,0.705h0.799v0.799c0,0.389,0.315,0.705,0.705,0.705
		c0.389,0,0.705-0.315,0.705-0.705v-0.914c0.873-0.295,1.503-1.121,1.503-2.092C226.494,386.012,225.503,385.022,224.286,385.022z"
		/>
	<path d="M224.286,405.972h1.503c0.389,0,0.705-0.315,0.705-0.705c0-0.389-0.315-0.705-0.705-0.705h-0.799v-0.799
		c0-0.389-0.315-0.705-0.705-0.705c-0.389,0-0.705,0.315-0.705,0.705v0.914c-0.873,0.295-1.503,1.121-1.503,2.092
		c0,1.217,0.99,2.208,2.208,2.208c0.44,0,0.799,0.358,0.799,0.799c0,0.44-0.358,0.799-0.799,0.799h-1.503
		c-0.389,0-0.705,0.315-0.705,0.705s0.315,0.705,0.705,0.705h0.799v0.799c0,0.389,0.315,0.705,0.705,0.705
		c0.389,0,0.705-0.315,0.705-0.705v-0.914c0.873-0.295,1.503-1.121,1.503-2.092c0-1.217-0.99-2.208-2.208-2.208
		c-0.44,0-0.799-0.358-0.799-0.799S223.846,405.972,224.286,405.972z"/>
	<path d="M189.714,394.698h1.503c0.389,0,0.705-0.315,0.705-0.705s-0.315-0.705-0.705-0.705h-0.799v-0.799
		c0-0.389-0.315-0.705-0.705-0.705c-0.389,0-0.705,0.315-0.705,0.705v0.914c-0.873,0.295-1.503,1.121-1.503,2.092
		c0,1.217,0.99,2.208,2.208,2.208c0.44,0,0.799,0.358,0.799,0.799c0,0.44-0.358,0.799-0.799,0.799h-1.503
		c-0.389,0-0.705,0.315-0.705,0.705s0.315,0.705,0.705,0.705h0.799v0.799c0,0.389,0.315,0.705,0.705,0.705
		c0.389,0,0.705-0.315,0.705-0.705v-0.914c0.873-0.295,1.503-1.121,1.503-2.092c0-1.217-0.99-2.208-2.208-2.208
		c-0.44,0-0.799-0.358-0.799-0.799C188.915,395.057,189.274,394.698,189.714,394.698z"/>
	<path d="M207,400.711c0.389,0,0.705-0.315,0.705-0.705v-0.752c0-0.389-0.315-0.705-0.705-0.705c-0.389,0-0.705,0.315-0.705,0.705
		v0.752C206.295,400.395,206.611,400.711,207,400.711z"/>
	<path d="M206.295,403.013c0,0.389,0.315,0.705,0.705,0.705c0.389,0,0.705-0.315,0.705-0.705v-0.752
		c0-0.389-0.315-0.705-0.705-0.705c-0.389,0-0.705,0.315-0.705,0.705V403.013z"/>
	<path d="M206.295,406.019c0,0.389,0.315,0.705,0.705,0.705c0.389,0,0.705-0.315,0.705-0.705v-0.752
		c0-0.389-0.315-0.705-0.705-0.705c-0.389,0-0.705,0.315-0.705,0.705V406.019z"/>
</g>
</svg>
