<?xml version="1.0" encoding="iso-8859-1"?>
<!-- Generator: Adobe Illustrator 21.1.0, SVG Export Plug-In . SVG Version: 6.00 Build 0)  -->
<svg version="1.1" id="&#x421;&#x43B;&#x43E;&#x439;_1"
	 xmlns="http://www.w3.org/2000/svg" xmlns:xlink="http://www.w3.org/1999/xlink" x="0px" y="0px" viewBox="0 0 45 45"
	 style="enable-background:new 0 0 45 45;" xml:space="preserve">
<g>
	<rect x="15.612" y="36.735" style="fill:#E7ECED;" width="13.776" height="7.347"/>
	<rect x="0.918" y="22.959" style="fill:#E7ECED;" width="13.776" height="7.347"/>
	<rect x="30.306" y="22.959" style="fill:#E7ECED;" width="13.776" height="7.347"/>
	<rect x="13.776" y="0.918" style="fill:#969DA1;" width="17.449" height="8.265"/>
	<path style="fill:#231F20;" d="M44.082,22.041h-5.969V16.99c0-0.507-0.411-0.918-0.918-0.918H23.418v-5.969h7.806
		c0.507,0,0.918-0.411,0.918-0.918V0.918C32.143,0.411,31.732,0,31.224,0H13.776c-0.507,0-0.918,0.411-0.918,0.918v8.265
		c0,0.507,0.411,0.918,0.918,0.918h7.806v5.969H7.806c-0.507,0-0.918,0.411-0.918,0.918v5.051H0.918C0.411,22.041,0,22.452,0,22.959
		v7.347c0,0.507,0.411,0.918,0.918,0.918h13.776c0.507,0,0.918-0.411,0.918-0.918v-7.347c0-0.507-0.411-0.918-0.918-0.918H8.724
		v-4.133h12.857v17.908h-5.969c-0.507,0-0.918,0.411-0.918,0.918v7.347c0,0.507,0.411,0.918,0.918,0.918h13.776
		c0.507,0,0.918-0.411,0.918-0.918v-7.347c0-0.507-0.411-0.918-0.918-0.918h-5.969V17.908h12.857v4.133h-5.969
		c-0.507,0-0.918,0.411-0.918,0.918v7.347c0,0.507,0.411,0.918,0.918,0.918h13.776c0.507,0,0.918-0.411,0.918-0.918v-7.347
		C45,22.452,44.589,22.041,44.082,22.041L44.082,22.041z M14.694,1.837h15.612v6.429H14.694V1.837z M13.776,29.388H1.837v-5.51
		h11.939V29.388z M28.469,43.163H16.531v-5.51h11.939V43.163z M43.163,29.388H31.224v-5.51h11.939V29.388z M43.163,29.388"/>
	<rect x="18.367" y="2.755" style="fill:#231F20;" width="8.265" height="1.837"/>
	<rect x="20.663" y="5.51" style="fill:#231F20;" width="3.673" height="1.837"/>
	<rect x="3.673" y="25.714" style="fill:#231F20;" width="3.673" height="1.837"/>
	<rect x="8.265" y="25.714" style="fill:#231F20;" width="3.673" height="1.837"/>
	<rect x="33.061" y="25.714" style="fill:#231F20;" width="3.673" height="1.837"/>
	<rect x="37.653" y="25.714" style="fill:#231F20;" width="3.673" height="1.837"/>
	<rect x="18.367" y="39.49" style="fill:#231F20;" width="3.673" height="1.837"/>
	<rect x="22.959" y="39.49" style="fill:#231F20;" width="3.673" height="1.837"/>
</g>
</svg>
