<?xml version="1.0" encoding="iso-8859-1"?>
<!-- Generator: Adobe Illustrator 21.1.0, SVG Export Plug-In . SVG Version: 6.00 Build 0)  -->
<svg version="1.1" id="&#x421;&#x43B;&#x43E;&#x439;_1"
	 xmlns="http://www.w3.org/2000/svg" xmlns:xlink="http://www.w3.org/1999/xlink" x="0px" y="0px" viewBox="0 0 70 81.609"
	 style="enable-background:new 0 0 70 81.609;" xml:space="preserve">
<g>
	<g>
		<defs>
			<rect id="SVGID_1_" width="70" height="81.609"/>
		</defs>
		<clipPath id="SVGID_2_">
			<use xlink:href="#SVGID_1_"  style="overflow:visible;"/>
		</clipPath>
		<path style="clip-path:url(#SVGID_2_);fill:#FFFFFF;" d="M34.959,81.543c-14.491,0-26.28-11.789-26.28-26.28v-0.381H8.103
			C3.635,54.882,0,51.245,0,46.777v-3.711c0-4.469,3.635-8.103,8.103-8.103h0.576V23.018c0-4.58,2.12-8.932,5.7-11.77
			c-0.13-0.621-0.196-1.26-0.196-1.909c0-1.669,0.889-3.382,2.377-4.586c0.015-0.011,0.03-0.023,0.045-0.034l0.902-0.643
			c0.032-0.023,0.066-0.043,0.1-0.062c0.141-0.077,0.3-0.174,0.481-0.283c0.851-0.509,2.133-1.279,4.257-1.926
			c2.928-0.96,6.017-1.524,9.432-1.715c13.11-0.738,24.765,3.097,28.343,9.32c0.004,0.003,0.006,0.007,0.008,0.013
			c0.358,0.624,0.728,1.271,1.071,2.011c2.943,6.33,0.549,12.974,0.04,14.24v9.288h0.628c4.469,0,8.103,3.635,8.103,8.103v3.711
			c0,4.468-3.635,8.105-8.103,8.105h-0.628v0.381C61.238,69.754,49.449,81.543,34.959,81.543L34.959,81.543z M10.611,53.916v1.347
			c0,13.426,10.923,24.348,24.348,24.348c13.426,0,24.348-10.922,24.348-24.348v-8.186h-1.711c-0.258,0-0.505-0.102-0.686-0.287
			c-0.181-0.183-0.281-0.432-0.28-0.689c0.002-0.113,0.117-11.235-0.743-14.679c-0.788-3.152-3.065-4.391-3.088-4.403
			c-0.234-0.124-0.406-0.338-0.477-0.592c-0.072-0.254-0.036-0.528,0.1-0.755c0.011-0.021,1.324-2.271,1.383-4.427
			c0.009-0.336-1.377-1.154-3.209-1.675c-2.092-0.447-3.701-0.424-3.74-0.424c-0.007,0-0.015,0.002-0.023,0.002H26.744
			c-2.905,0-5.416-0.5-7.46-1.485c-0.343-0.164-0.672-0.351-0.987-0.556c-0.902,1.043-2.187,2.822-2.183,4.163
			c0.006,2.133,1.362,4.367,1.375,4.389c0.14,0.226,0.179,0.502,0.109,0.76c-0.07,0.257-0.243,0.474-0.479,0.598
			c-0.088,0.049-2.311,1.292-3.088,4.404c-0.862,3.444-0.745,14.566-0.743,14.677c0.001,0.258-0.099,0.508-0.28,0.691
			c-0.183,0.183-0.43,0.287-0.686,0.287h-1.713V53.916z M61.292,52.951h0.575c3.403,0,6.172-2.769,6.172-6.174v-3.711
			c0-3.403-2.769-6.172-6.172-6.172h-0.575V52.951z M8.103,36.892c-3.403,0-6.172,2.769-6.172,6.174v3.711
			c0,3.404,2.769,6.174,6.172,6.174h0.576V36.892H8.103z M58.569,45.145h0.737V25.728c-0.839-1.832-2.139-3.154-3.587-4.107
			c-0.117,1.686-0.77,3.301-1.215,4.231c0.975,0.762,2.573,2.371,3.256,5.101C58.534,34.042,58.577,42.287,58.569,45.145
			L58.569,45.145z M10.611,45.145h0.739c-0.01-2.858,0.036-11.103,0.807-14.191c0.681-2.722,2.271-4.329,3.246-5.095
			c-0.49-0.996-1.216-2.769-1.22-4.586c-0.006-2.048,1.63-4.25,2.618-5.393c-0.743-0.758-1.353-1.651-1.796-2.637
			c-2.773,2.469-4.395,6.034-4.395,9.775V45.145z M47.005,17.184c1.311,0,9.103,0.245,13.036,5.915
			c0.136-0.522,0.273-1.126,0.387-1.795C59.294,20.2,55.2,16.586,49.11,15.428c-4.259-0.809-9.288-0.496-14.153-0.193
			c-3.616,0.225-7.355,0.458-10.667,0.208c-3.213-0.243-5.438-1.083-6.962-2.02c0.7,1.066,1.671,1.939,2.837,2.494
			c1.775,0.843,3.988,1.27,6.576,1.27h20.089C46.854,17.184,46.914,17.184,47.005,17.184L47.005,17.184z M42.642,12.982
			c2.365,0,4.672,0.14,6.828,0.549c5.353,1.016,9.226,3.71,11.208,5.389c0.034-0.851,0.01-1.749-0.105-2.671
			c-2.692-2.696-7.466-4.574-13.838-5.444c-3.374-0.458-7.223,0.064-11.295,0.619c-4.105,0.558-8.351,1.135-12.17,0.634
			c-4.237-0.558-6.178-2.084-7.063-3.452c-0.06,0.247-0.092,0.492-0.092,0.734c0,0.091,0.002,0.181,0.004,0.272
			c0.315,0.607,2.098,3.433,8.317,3.907c3.18,0.24,6.687,0.022,10.401-0.21C37.432,13.146,40.072,12.982,42.642,12.982
			L42.642,12.982z M43.941,8.702c1.047,0,2.069,0.056,3.054,0.19c5.399,0.736,9.762,2.192,12.831,4.265
			c-0.113-0.303-0.24-0.607-0.38-0.909c-0.311-0.668-0.645-1.253-1-1.873c-0.002-0.004-0.004-0.006-0.006-0.01
			C55.257,4.844,44.09,1.334,31.886,2.018c-3.245,0.183-6.174,0.715-8.954,1.626c-0.015,0.006-0.034,0.012-0.049,0.015
			c-1.871,0.572-3.032,1.268-3.801,1.73c-0.185,0.112-0.349,0.21-0.498,0.293l-0.832,0.593c-0.113,0.092-0.221,0.188-0.325,0.29
			c0.121,0.76,0.926,2.897,6.095,3.576c3.563,0.47,7.677-0.09,11.656-0.632C38.113,9.111,41.119,8.702,43.941,8.702L43.941,8.702z
			 M41.987,65.332c-0.247,0-0.494-0.094-0.683-0.283c-1.701-1.701-3.961-2.637-6.366-2.637c-2.405,0-4.667,0.936-6.368,2.637
			c-0.377,0.378-0.988,0.378-1.366,0c-0.377-0.377-0.377-0.988,0-1.366c2.065-2.065,4.812-3.203,7.734-3.203
			c2.921,0,5.668,1.138,7.734,3.203c0.377,0.377,0.377,0.988,0,1.366C42.481,65.238,42.234,65.332,41.987,65.332L41.987,65.332z
			 M44.371,47.98c-3.245,0-5.885-2.639-5.885-5.884c0-3.245,2.641-5.883,5.885-5.883c3.244,0,5.883,2.639,5.883,5.883
			C50.255,45.341,47.616,47.98,44.371,47.98L44.371,47.98z M44.371,38.145c-2.181,0-3.954,1.773-3.954,3.952
			c0,2.179,1.773,3.952,3.954,3.952c2.178,0,3.951-1.773,3.951-3.952C48.323,39.918,46.55,38.145,44.371,38.145L44.371,38.145z
			 M25.55,47.98c-3.243,0-5.883-2.639-5.883-5.884c0-3.245,2.64-5.883,5.883-5.883c3.245,0,5.885,2.639,5.885,5.883
			C31.435,45.341,28.794,47.98,25.55,47.98L25.55,47.98z M25.55,38.145c-2.179,0-3.952,1.773-3.952,3.952
			c0,2.179,1.773,3.952,3.952,3.952c2.181,0,3.954-1.773,3.954-3.952C29.504,39.918,27.731,38.145,25.55,38.145L25.55,38.145z
			 M44.371,43.158c-0.534,0-0.966-0.432-0.966-0.966v-0.096c0-0.534,0.432-0.966,0.966-0.966c0.534,0,0.966,0.432,0.966,0.966v0.096
			C45.337,42.727,44.905,43.158,44.371,43.158L44.371,43.158z M25.55,43.158c-0.532,0-0.966-0.432-0.966-0.966v-0.096
			c0-0.534,0.434-0.966,0.966-0.966c0.534,0,0.966,0.432,0.966,0.966v0.096C26.516,42.727,26.084,43.158,25.55,43.158L25.55,43.158z
			 M23.007,33.144c-0.283,0-0.566-0.125-0.757-0.366c-0.33-0.417-0.262-1.024,0.156-1.356l5.086-4.042
			c0.417-0.332,1.026-0.262,1.358,0.156c0.332,0.417,0.262,1.024-0.156,1.356l-5.085,4.042
			C23.431,33.075,23.218,33.144,23.007,33.144L23.007,33.144z M46.914,33.135c-0.211,0-0.423-0.068-0.602-0.21l-5.085-4.04
			c-0.419-0.332-0.487-0.94-0.155-1.358c0.33-0.417,0.939-0.487,1.356-0.155l5.087,4.042c0.417,0.332,0.487,0.939,0.155,1.356
			C47.48,33.01,47.197,33.135,46.914,33.135L46.914,33.135z M46.914,33.135"/>
	</g>
</g>
</svg>
