<?xml version="1.0" encoding="iso-8859-1"?>
<!-- Generator: Adobe Illustrator 21.1.0, SVG Export Plug-In . SVG Version: 6.00 Build 0)  -->
<svg version="1.1" id="Layer_1" xmlns="http://www.w3.org/2000/svg" xmlns:xlink="http://www.w3.org/1999/xlink" x="0px" y="0px"
	 viewBox="184.498 369.316 45 55.369" style="enable-background:new 184.498 369.316 45 55.369;" xml:space="preserve">
<g>
	<path style="fill:#515262;" d="M196.506,402.946l-5.414,1.732c-3.627,1.16-5.728,5.225-5.728,9.033v7.512
		c0,1.434,1.162,2.596,2.596,2.596h38.077c1.434,0,2.596-1.162,2.596-2.596v-7.512c0-3.808-2.102-7.873-5.728-9.033l-5.414-1.732
		H196.506z"/>
	<polygon style="fill:#D29B6E;" points="200.075,402.184 200.075,399.588 213.921,399.588 213.921,402.184 207.026,406.516 	"/>
	<path style="fill:#F0C087;" d="M218.257,386.041v3.162c0,6.691-5.035,12.116-11.245,12.116s-11.245-5.424-11.245-12.116v-1.731
		c0,0,0.012-5.192,0.012-9.519l22.386-0.095L218.257,386.041z"/>
	<path style="fill:#E6AF78;" d="M197.689,386.206v-3.589c0,0-0.963-1.23-1.481-4.634l-0.429-0.029c0,4.327-0.012,9.519-0.012,9.519
		v1.731c0,6.691,5.035,12.116,11.245,12.116c3.407,0,6.461-1.633,8.523-4.212c-1.806,1.301-3.956,2.056-6.263,2.056
		C202.875,399.163,197.689,393.362,197.689,386.206z"/>
	<path style="fill:#7D7878;" d="M215.652,371.232c-5.553,1.067-9.959-3.565-14.712,0.854c-4.346-1.53-6.795,3.158-6.784,4.8
		s0.786,7.796,1.514,9.625c0.706-2.429,4.013-6.049,4.208-6.262c7.236,2.359,15.773,1.167,15.773,1.167l2.605,4.627
		C220.574,379.77,220.063,373.486,215.652,371.232z"/>
	<polygon style="fill:#D7DEED;" points="209.594,423.819 217.383,403.915 215.652,401.319 206.998,406.511 198.158,401.434 
		196.644,403.813 204.322,423.711 	"/>
	<g>
		<path style="fill:#65687A;" d="M199.21,423.819l-4.519-6.025c-0.387-0.516-0.335-1.237,0.12-1.692l1.802-1.802l-2.87-2.152
			c-0.367-0.275-0.561-0.723-0.51-1.179l0.784-7.054l2.302-0.643l7.894,20.439L199.21,423.819z"/>
		<path style="fill:#65687A;" d="M214.787,423.819l4.519-6.025c0.387-0.516,0.335-1.237-0.12-1.692l-1.802-1.802l2.87-2.152
			c0.367-0.275,0.561-0.723,0.51-1.179l-0.784-7.054l-2.355-0.859l-7.894,20.763L214.787,423.819L214.787,423.819z"/>
	</g>
	<g>
		<path style="fill:#E4EAF6;" d="M199.21,409.973l2.391,2.391c0.554,0.554,1.476,0.463,1.911-0.189l0.891-1.336l0.245-2.808
			l2.163-1.622l-8.435-5.083l-1.838,2.379L199.21,409.973z"/>
		<path style="fill:#E4EAF6;" d="M209.594,410.838l0.891,1.336c0.435,0.652,1.357,0.743,1.911,0.189l2.391-2.391l2.621-5.944
			l-1.838-2.595l-8.219,4.866L209.594,410.838z"/>
	</g>
	<polygon style="fill:#5B5D6E;" points="208.729,412.569 210.46,421.223 209.297,423.819 204.43,423.927 203.537,421.223 
		205.267,412.569 	"/>
	<path style="fill:#65687A;" d="M209.594,410.828c0,0.952-0.779,1.731-1.731,1.731h-1.731c-0.952,0-1.731-0.779-1.731-1.731v-1.731
		c0-0.952,0.779-1.731,1.731-1.731h1.731c0.952,0,1.731,0.779,1.731,1.731L209.594,410.828L209.594,410.828z"/>
	<g>
		<path style="fill:#515262;" d="M203.092,391.799h-1.706c-1.013,0-1.811-0.514-2.203-1.446l-0.826-1.873
			c-0.088-0.528,0.319-1.008,0.854-1.008h5.192c0.535,0,0.942,0.48,0.854,1.008l-0.456,1.873
			C204.66,391.188,203.938,391.799,203.092,391.799z"/>
		<path style="fill:#515262;" d="M210.905,391.799h1.706c1.013,0,1.811-0.514,2.203-1.446l0.826-1.873
			c0.088-0.528-0.319-1.008-0.854-1.008h-5.192c-0.535,0-0.942,0.48-0.854,1.008l0.456,1.873
			C209.336,391.188,210.058,391.799,210.905,391.799z"/>
	</g>
	<path style="fill:#2D2B29;" d="M227.871,407.758c-1.16-1.941-2.787-3.291-4.703-3.904l-5.414-1.732
		c-0.178-0.057-0.361-0.053-0.527,0.001l-0.856-1.283c-0.256-0.384-0.769-0.499-1.165-0.262l-0.421,0.252v-1.241
		c0-0.131-0.03-0.255-0.082-0.366c2.696-2.383,4.418-5.989,4.418-10.018v-3.013c1.192-3.288,1.611-6.459,1.207-9.179
		c-0.455-3.062-1.927-5.322-4.26-6.537c-0.002-0.001-0.004-0.002-0.006-0.003c-0.004-0.002-0.009-0.005-0.013-0.007
		c-0.007-0.004-0.015-0.007-0.023-0.01c-0.016-0.008-0.032-0.015-0.048-0.022c-0.012-0.005-0.023-0.009-0.035-0.013
		c-0.015-0.005-0.029-0.011-0.044-0.015c-0.013-0.004-0.027-0.007-0.04-0.011c-0.014-0.003-0.027-0.007-0.041-0.009
		c-0.015-0.003-0.03-0.005-0.044-0.007c-0.013-0.002-0.026-0.004-0.038-0.005c-0.016-0.001-0.032-0.002-0.048-0.003
		c-0.012,0-0.024-0.001-0.036-0.001c-0.017,0-0.035,0.001-0.052,0.002c-0.011,0.001-0.022,0.001-0.033,0.002
		c-0.019,0.002-0.037,0.005-0.056,0.008c-0.007,0.001-0.015,0.002-0.022,0.003c-2.02,0.388-3.926-0.045-5.769-0.464
		c-2.927-0.665-5.952-1.351-9.125,1.323c-0.172-0.013-0.346-0.021-0.52-0.021c-3.749,0-6.809,2.96-6.918,6.64
		c-0.003,0.031-0.005,0.062-0.005,0.093c0,0.025,0.001,0.051,0.001,0.076c0,0.011-0.001,0.022-0.001,0.033
		c0,0.01,0.001,0.02,0.002,0.03c0.032,4.042,1.467,8.652,1.748,9.519v1.592c0,4.02,1.714,7.618,4.399,10.001
		c-0.057,0.116-0.091,0.246-0.091,0.384v1.241l-0.421-0.252c-0.396-0.237-0.909-0.122-1.165,0.262l-0.856,1.283
		c-0.166-0.053-0.349-0.058-0.527,0l-5.414,1.732c-1.917,0.613-3.543,1.963-4.703,3.904c-1.049,1.755-1.627,3.869-1.627,5.953v7.512
		c0,1.909,1.553,3.461,3.461,3.461h16.44c0.001,0,0.002,0,0.003,0c0.002,0,0.003,0,0.005,0h5.183c0.002,0,0.003,0,0.005,0
		c0.001,0,0.002,0,0.003,0h16.44c1.909,0,3.461-1.553,3.461-3.461v-7.512C229.498,411.627,228.92,409.513,227.871,407.758z
		 M219.903,411.064c0.017,0.151-0.048,0.3-0.169,0.391l-2.87,2.152c-0.201,0.151-0.326,0.381-0.344,0.631
		c-0.018,0.25,0.074,0.496,0.251,0.673l1.802,1.802c0.15,0.15,0.167,0.392,0.04,0.562l-4.259,5.679h-3.492l7.327-18.724
		c0.018-0.046,0.03-0.093,0.04-0.14l0.933,0.298L219.903,411.064z M204.992,422.954l-0.609-1.556c0-0.002,0.001-0.003,0.001-0.005
		l1.595-7.974c0.051,0.003,0.102,0.005,0.153,0.005h1.731c0.051,0,0.102-0.002,0.153-0.005l1.595,7.974
		c0,0.002,0.001,0.004,0.001,0.005l-0.609,1.556H204.992z M199.642,422.954l-4.259-5.679c-0.127-0.17-0.11-0.412,0.04-0.562
		l1.802-1.802c0.177-0.177,0.269-0.423,0.251-0.673c-0.018-0.25-0.143-0.48-0.344-0.631l-2.87-2.152
		c-0.121-0.091-0.186-0.241-0.169-0.391l0.742-6.675l0.933-0.298c0.01,0.047,0.022,0.094,0.04,0.14l7.327,18.724H199.642
		L199.642,422.954z M206.133,408.232h1.731c0.477,0,0.866,0.388,0.866,0.866v1.731c0,0.477-0.388,0.866-0.866,0.866h-1.731
		c-0.477,0-0.866-0.388-0.866-0.866v-1.731C205.267,408.62,205.655,408.232,206.133,408.232z M210.78,418.414l-1.139-5.697
		c0.034-0.032,0.068-0.065,0.1-0.099l0.024,0.037c0.351,0.527,0.915,0.865,1.545,0.928c0.07,0.007,0.14,0.01,0.21,0.01
		c0.488,0,0.957-0.168,1.334-0.478L210.78,418.414z M204.231,412.655l0.024-0.037c0.032,0.034,0.066,0.067,0.1,0.099l-1.139,5.697
		l-2.074-5.3c0.377,0.31,0.846,0.478,1.334,0.478c0.07,0,0.14-0.003,0.21-0.01C203.316,413.52,203.879,413.182,204.231,412.655z
		 M215.39,402.485l1.023,1.535l-2.03,5.188c-0.075,0.039-0.145,0.091-0.208,0.153l-2.391,2.391c-0.11,0.11-0.237,0.115-0.303,0.108
		c-0.066-0.007-0.19-0.037-0.276-0.166l-0.746-1.118v-1.479c0-1.196-0.813-2.205-1.915-2.505L215.39,402.485z M194.883,378.041
		c0.012-2.808,2.336-5.09,5.192-5.09c0.695,0,1.369,0.133,2.003,0.394c0.442,0.182,0.948-0.029,1.129-0.47
		c0.17-0.413-0.003-0.882-0.387-1.09c2.091-1.183,4.093-0.729,6.516-0.179c1.837,0.417,3.909,0.886,6.163,0.529
		c2.123,1.229,2.869,3.452,3.118,5.13c0.288,1.941,0.082,4.244-0.577,6.628l-1.634-2.903c-0.174-0.31-0.521-0.481-0.873-0.432
		c-0.096,0.014-9.669,1.299-16.858-1.673c-0.442-0.183-0.947,0.027-1.13,0.469c-0.183,0.442,0.027,0.948,0.469,1.13
		c6.654,2.751,14.897,2.107,17.168,1.859l2.21,3.925v0.34c-0.003,0-0.006,0-0.009,0h-2.596h-5.192c-0.51,0-0.991,0.223-1.32,0.612
		c-0.067,0.079-0.125,0.165-0.176,0.253h-2.2c-0.051-0.088-0.108-0.174-0.176-0.253c-0.329-0.389-0.811-0.612-1.32-0.612h-5.192
		h-2.352c0.559-2.183,1.967-3.716,1.984-3.734c0.328-0.348,0.311-0.895-0.037-1.223c-0.348-0.328-0.895-0.311-1.223,0.037
		c-0.066,0.07-1.025,1.105-1.777,2.738C195.363,382.621,194.895,380.209,194.883,378.041z M214.757,388.338l-0.735,1.666
		c-0.002,0.005-0.004,0.009-0.006,0.014c-0.256,0.608-0.728,0.917-1.405,0.917h-1.706c-0.425,0-0.784-0.304-0.854-0.723
		c-0.003-0.021-0.008-0.042-0.013-0.063l-0.441-1.811L214.757,388.338z M204.4,388.338l-0.441,1.81
		c-0.005,0.021-0.009,0.042-0.013,0.063c-0.07,0.419-0.429,0.723-0.854,0.723h-1.706c-0.677,0-1.149-0.308-1.405-0.917
		c-0.002-0.005-0.004-0.009-0.006-0.014l-0.735-1.666L204.4,388.338z M196.632,389.203v-0.865v0h0.85
		c0,0.095,0.005,0.19,0.021,0.285c0.012,0.071,0.033,0.141,0.062,0.207l0.824,1.867c0.529,1.251,1.621,1.969,2.997,1.969h1.706
		c1.262,0,2.331-0.896,2.555-2.135l0.323-1.327h2.057l0.323,1.327c0.223,1.239,1.292,2.135,2.555,2.135h1.706
		c1.376,0,2.468-0.717,2.997-1.969l0.824-1.867c0.029-0.066,0.05-0.136,0.062-0.207c0.016-0.095,0.021-0.19,0.021-0.285h0.868
		c0.003,0,0.006,0,0.009,0v0.866c0,6.203-4.656,11.25-10.38,11.25S196.632,395.407,196.632,389.203z M200.94,400.431
		c1.786,1.114,3.86,1.753,6.072,1.753c2.2,0,4.264-0.632,6.044-1.736v1.419l-6.058,3.635l-6.058-3.635V400.431z M198.606,402.485
		l6.846,4.107c-1.102,0.3-1.915,1.309-1.915,2.505v1.479l-0.746,1.118c-0.086,0.129-0.21,0.159-0.276,0.166
		c-0.066,0.007-0.193,0.001-0.303-0.108l-2.391-2.391c-0.063-0.063-0.133-0.114-0.208-0.153l-2.03-5.188L198.606,402.485z
		 M186.228,421.223v-7.512c0-3.264,1.761-7.132,5.127-8.209l1.675-0.536l-0.656,5.907c-0.084,0.756,0.242,1.51,0.851,1.967
		l2.072,1.554l-1.097,1.097c-0.755,0.755-0.841,1.969-0.201,2.823l3.48,4.641h-9.52
		C187.005,422.954,186.228,422.178,186.228,421.223z M227.768,421.223c0,0.954-0.777,1.731-1.731,1.731h-9.52l3.481-4.641
		c0.641-0.854,0.554-2.068-0.201-2.823l-1.097-1.097l2.072-1.554c0.609-0.457,0.935-1.21,0.851-1.967l-0.656-5.907l1.675,0.536
		c3.366,1.077,5.127,4.945,5.127,8.209L227.768,421.223L227.768,421.223z"/>
</g>
</svg>
