<?xml version="1.0" encoding="iso-8859-1"?>
<!-- Generator: Adobe Illustrator 21.1.0, SVG Export Plug-In . SVG Version: 6.00 Build 0)  -->
<svg version="1.1" id="Layer_1" xmlns="http://www.w3.org/2000/svg" xmlns:xlink="http://www.w3.org/1999/xlink" x="0px" y="0px"
	 viewBox="184.499 374.36 45 45.281" style="enable-background:new 184.499 374.36 45 45.281;" xml:space="preserve">
<g>
	<path style="fill:#F7971D;" d="M228.788,385.134c-0.001-0.069-0.001-0.139-0.003-0.207c-0.001-0.038-0.003-0.077-0.004-0.115
		c-0.002-0.053-0.004-0.107-0.007-0.16c-0.002-0.041-0.005-0.082-0.008-0.123c-0.003-0.05-0.007-0.1-0.011-0.15
		c-0.003-0.042-0.007-0.084-0.011-0.125c-0.005-0.049-0.009-0.098-0.015-0.146c-0.004-0.042-0.009-0.083-0.014-0.124
		c-0.006-0.049-0.012-0.097-0.018-0.146c-0.006-0.041-0.011-0.081-0.017-0.122c-0.007-0.049-0.015-0.099-0.023-0.148
		c-0.006-0.039-0.013-0.078-0.02-0.117c-0.009-0.051-0.018-0.102-0.028-0.153c-0.007-0.037-0.014-0.073-0.021-0.11
		c-0.011-0.056-0.023-0.112-0.036-0.168c-0.007-0.031-0.013-0.062-0.02-0.092c-0.019-0.083-0.039-0.165-0.06-0.247
		c-0.001-0.003-0.002-0.007-0.003-0.01c-0.022-0.086-0.045-0.171-0.07-0.256c-0.008-0.027-0.016-0.053-0.024-0.079
		c-0.017-0.058-0.034-0.117-0.053-0.175c-0.01-0.031-0.02-0.061-0.03-0.092c-0.017-0.053-0.035-0.106-0.053-0.159
		c-0.011-0.032-0.022-0.064-0.034-0.096c-0.018-0.051-0.037-0.103-0.056-0.154c-0.012-0.032-0.024-0.063-0.036-0.095
		c-0.02-0.051-0.04-0.103-0.061-0.153c-0.012-0.03-0.025-0.061-0.037-0.091c-0.022-0.053-0.044-0.105-0.067-0.157
		c-0.012-0.028-0.024-0.055-0.036-0.083c-0.025-0.056-0.051-0.112-0.077-0.168c-0.008-0.017-0.016-0.035-0.024-0.052l-0.001-0.002
		c-0.433-0.911-0.998-1.748-1.671-2.484l-0.001-0.002c-0.023-0.025-0.047-0.05-0.07-0.075c-0.03-0.032-0.06-0.065-0.091-0.097
		c-0.028-0.029-0.057-0.058-0.085-0.087c-0.03-0.03-0.059-0.061-0.09-0.091c-0.03-0.029-0.059-0.058-0.089-0.087
		c-0.03-0.029-0.06-0.058-0.09-0.087c-0.03-0.029-0.061-0.057-0.092-0.086c-0.03-0.028-0.061-0.056-0.092-0.084
		c-0.031-0.028-0.063-0.056-0.095-0.084c-0.031-0.027-0.062-0.054-0.093-0.081c-0.032-0.028-0.064-0.055-0.097-0.082
		c-0.032-0.026-0.063-0.053-0.095-0.079c-0.033-0.027-0.066-0.053-0.099-0.08c-0.032-0.026-0.065-0.051-0.097-0.076
		c-0.033-0.026-0.067-0.052-0.101-0.078c-0.033-0.025-0.066-0.049-0.099-0.074c-0.034-0.025-0.068-0.05-0.103-0.075
		c-0.033-0.024-0.067-0.048-0.101-0.072c-0.035-0.024-0.069-0.048-0.104-0.072c-0.034-0.023-0.069-0.046-0.103-0.069
		c-0.035-0.023-0.071-0.047-0.106-0.07c-0.035-0.023-0.07-0.045-0.105-0.067c-0.036-0.022-0.072-0.045-0.108-0.067
		c-0.036-0.022-0.072-0.043-0.108-0.064c-0.036-0.022-0.072-0.043-0.109-0.064c-0.037-0.021-0.074-0.042-0.111-0.063
		c-0.036-0.02-0.072-0.041-0.109-0.061c-0.039-0.021-0.078-0.042-0.117-0.062c-0.035-0.019-0.07-0.038-0.106-0.056
		c-0.045-0.023-0.09-0.045-0.135-0.067c-0.051-0.025-0.102-0.05-0.153-0.074c-0.054-0.026-0.108-0.051-0.163-0.076
		c-0.034-0.015-0.069-0.03-0.103-0.045c-0.043-0.019-0.086-0.038-0.13-0.056c-0.036-0.015-0.073-0.03-0.11-0.045
		c-0.042-0.017-0.084-0.034-0.126-0.051c-0.038-0.015-0.075-0.029-0.113-0.043c-0.042-0.016-0.084-0.032-0.126-0.047
		c-0.038-0.014-0.077-0.027-0.115-0.041c-0.042-0.015-0.084-0.029-0.126-0.043c-0.039-0.013-0.078-0.026-0.117-0.038
		c-0.042-0.014-0.085-0.027-0.127-0.04c-0.039-0.012-0.079-0.024-0.119-0.035c-0.043-0.013-0.085-0.025-0.128-0.037
		c-0.04-0.011-0.08-0.022-0.12-0.032c-0.043-0.011-0.087-0.023-0.13-0.034c-0.04-0.01-0.08-0.02-0.12-0.029
		c-0.044-0.01-0.088-0.021-0.132-0.031c-0.04-0.009-0.08-0.018-0.121-0.026c-0.045-0.009-0.09-0.018-0.134-0.027
		c-0.04-0.008-0.081-0.016-0.121-0.023c-0.045-0.008-0.091-0.016-0.136-0.024c-0.04-0.007-0.081-0.014-0.121-0.02
		c-0.046-0.007-0.093-0.014-0.139-0.021c-0.04-0.006-0.08-0.012-0.12-0.017c-0.048-0.006-0.095-0.012-0.143-0.017
		c-0.04-0.005-0.079-0.009-0.119-0.014c-0.049-0.005-0.099-0.009-0.148-0.014c-0.038-0.003-0.077-0.007-0.115-0.01
		c-0.052-0.004-0.105-0.007-0.157-0.011c-0.036-0.002-0.072-0.005-0.108-0.007c-0.059-0.003-0.118-0.005-0.177-0.007
		c-0.03-0.001-0.061-0.003-0.091-0.003c-0.088-0.002-0.177-0.004-0.266-0.004c-0.001,0-0.002,0-0.003,0h0h0
		c-0.001,0-0.002,0-0.003,0c-0.089,0-0.178,0.001-0.266,0.004c-0.031,0.001-0.061,0.002-0.091,0.003
		c-0.059,0.002-0.118,0.004-0.177,0.007c-0.036,0.002-0.072,0.005-0.108,0.007c-0.053,0.003-0.105,0.006-0.157,0.011
		c-0.039,0.003-0.077,0.007-0.115,0.01c-0.05,0.005-0.099,0.009-0.148,0.014c-0.04,0.004-0.079,0.009-0.119,0.014
		c-0.048,0.006-0.096,0.011-0.143,0.017c-0.04,0.005-0.08,0.011-0.12,0.017c-0.047,0.007-0.093,0.013-0.139,0.021
		c-0.041,0.006-0.081,0.013-0.121,0.02c-0.045,0.008-0.091,0.016-0.136,0.024c-0.041,0.007-0.081,0.015-0.121,0.023
		c-0.045,0.009-0.09,0.018-0.134,0.027c-0.04,0.009-0.081,0.017-0.121,0.026c-0.044,0.01-0.088,0.02-0.132,0.031
		c-0.04,0.01-0.08,0.019-0.12,0.029c-0.044,0.011-0.087,0.022-0.13,0.034c-0.04,0.011-0.08,0.021-0.12,0.032
		c-0.043,0.012-0.086,0.024-0.128,0.037c-0.04,0.012-0.079,0.023-0.119,0.035c-0.042,0.013-0.085,0.027-0.127,0.04
		c-0.039,0.013-0.078,0.025-0.117,0.038c-0.042,0.014-0.084,0.029-0.126,0.043c-0.038,0.014-0.077,0.027-0.115,0.041
		c-0.042,0.015-0.084,0.031-0.126,0.047c-0.038,0.014-0.076,0.028-0.113,0.043c-0.042,0.017-0.084,0.034-0.126,0.051
		c-0.037,0.015-0.073,0.029-0.11,0.045c-0.043,0.018-0.087,0.038-0.13,0.056c-0.034,0.015-0.069,0.03-0.103,0.045
		c-0.055,0.025-0.109,0.05-0.163,0.076c-0.051,0.024-0.102,0.049-0.153,0.074c-0.045,0.022-0.09,0.044-0.135,0.067
		c-0.036,0.018-0.071,0.037-0.106,0.056c-0.039,0.021-0.078,0.041-0.117,0.062c-0.036,0.02-0.072,0.04-0.109,0.061
		c-0.037,0.021-0.074,0.041-0.111,0.063c-0.036,0.021-0.073,0.043-0.109,0.064c-0.036,0.021-0.072,0.043-0.108,0.064
		c-0.036,0.022-0.072,0.045-0.108,0.067c-0.035,0.022-0.07,0.044-0.105,0.067c-0.036,0.023-0.071,0.046-0.106,0.07
		c-0.034,0.023-0.069,0.046-0.103,0.069c-0.035,0.024-0.07,0.048-0.104,0.072c-0.034,0.024-0.068,0.047-0.101,0.072
		c-0.034,0.025-0.069,0.05-0.103,0.075c-0.033,0.024-0.066,0.049-0.099,0.074c-0.034,0.026-0.068,0.052-0.101,0.078
		c-0.033,0.025-0.065,0.051-0.097,0.076c-0.033,0.026-0.066,0.053-0.099,0.08c-0.032,0.026-0.064,0.052-0.095,0.079
		c-0.033,0.027-0.065,0.054-0.097,0.082c-0.031,0.027-0.062,0.054-0.093,0.081c-0.032,0.028-0.063,0.056-0.095,0.084
		c-0.031,0.028-0.061,0.056-0.092,0.084c-0.031,0.028-0.062,0.057-0.092,0.086c-0.03,0.029-0.06,0.058-0.09,0.087
		c-0.03,0.029-0.06,0.058-0.089,0.087c-0.03,0.03-0.06,0.061-0.09,0.091c-0.029,0.029-0.057,0.058-0.085,0.087
		c-0.031,0.032-0.061,0.065-0.091,0.097c-0.023,0.025-0.047,0.05-0.07,0.075l-0.001,0.002c-0.673,0.737-1.238,1.573-1.671,2.484
		l-0.001,0.002c-0.008,0.017-0.016,0.035-0.024,0.052c-0.026,0.056-0.052,0.112-0.077,0.168c-0.012,0.028-0.024,0.055-0.036,0.083
		c-0.023,0.052-0.045,0.105-0.067,0.157c-0.013,0.03-0.025,0.061-0.037,0.091c-0.021,0.051-0.041,0.102-0.061,0.153
		c-0.012,0.031-0.024,0.063-0.036,0.095c-0.019,0.051-0.038,0.103-0.056,0.154c-0.011,0.032-0.023,0.063-0.034,0.095
		c-0.018,0.053-0.036,0.106-0.053,0.16c-0.01,0.031-0.02,0.061-0.03,0.092c-0.018,0.058-0.036,0.116-0.053,0.175
		c-0.008,0.027-0.016,0.053-0.024,0.079c-0.024,0.085-0.048,0.17-0.07,0.256c-0.001,0.003-0.002,0.007-0.003,0.01
		c-0.021,0.082-0.041,0.164-0.06,0.247c-0.007,0.031-0.013,0.062-0.02,0.092c-0.012,0.056-0.024,0.112-0.036,0.168
		c-0.007,0.037-0.014,0.073-0.021,0.11c-0.01,0.051-0.019,0.102-0.028,0.153c-0.007,0.039-0.013,0.078-0.02,0.117
		c-0.008,0.049-0.016,0.098-0.023,0.148c-0.006,0.041-0.012,0.081-0.017,0.122c-0.007,0.049-0.013,0.098-0.019,0.146
		c-0.005,0.041-0.01,0.083-0.014,0.124c-0.005,0.049-0.01,0.098-0.014,0.147c-0.004,0.042-0.008,0.083-0.011,0.125
		c-0.004,0.05-0.007,0.1-0.01,0.15c-0.003,0.041-0.006,0.082-0.008,0.123c-0.003,0.053-0.005,0.107-0.007,0.16
		c-0.002,0.038-0.003,0.077-0.004,0.115c-0.002,0.069-0.002,0.138-0.003,0.207c0,0.022-0.001,0.044-0.001,0.065
		c0,5.594,4.535,10.129,10.129,10.129h0h0c5.594,0,10.129-4.535,10.129-10.129C228.789,385.178,228.788,385.156,228.788,385.134z"/>
	<path style="fill:#F37521;" d="M210.236,385.2c0-0.022,0.001-0.044,0.001-0.065c0-0.069,0.001-0.139,0.003-0.207
		c0.001-0.038,0.003-0.077,0.004-0.115c0.002-0.053,0.004-0.107,0.007-0.16c0.002-0.041,0.005-0.082,0.008-0.123
		c0.003-0.05,0.006-0.1,0.01-0.15c0.003-0.042,0.007-0.083,0.011-0.125c0.005-0.049,0.009-0.098,0.014-0.147
		c0.004-0.041,0.009-0.083,0.014-0.124c0.006-0.049,0.012-0.098,0.019-0.146c0.005-0.041,0.011-0.081,0.017-0.122
		c0.007-0.049,0.015-0.099,0.023-0.148c0.006-0.039,0.013-0.078,0.02-0.117c0.009-0.051,0.018-0.102,0.028-0.153
		c0.007-0.037,0.014-0.073,0.021-0.11c0.011-0.056,0.023-0.112,0.036-0.168c0.007-0.031,0.013-0.062,0.02-0.092
		c0.019-0.083,0.039-0.165,0.06-0.247c0.001-0.003,0.002-0.007,0.003-0.01c0.022-0.086,0.045-0.171,0.07-0.256
		c0.008-0.027,0.016-0.053,0.024-0.079c0.017-0.058,0.034-0.117,0.053-0.175c0.01-0.031,0.02-0.061,0.03-0.092
		c0.017-0.053,0.035-0.107,0.053-0.16c0.011-0.032,0.022-0.063,0.034-0.095c0.018-0.052,0.037-0.103,0.056-0.154
		c0.012-0.032,0.024-0.063,0.036-0.095c0.02-0.051,0.04-0.103,0.061-0.153c0.012-0.03,0.025-0.061,0.037-0.091
		c0.022-0.053,0.044-0.105,0.067-0.157c0.012-0.028,0.024-0.055,0.036-0.083c0.025-0.056,0.051-0.112,0.077-0.168
		c0.008-0.017,0.016-0.035,0.024-0.052l0.001-0.002c0.433-0.911,0.998-1.748,1.671-2.484l0.001-0.002
		c0.023-0.025,0.047-0.05,0.07-0.075c0.03-0.032,0.06-0.065,0.091-0.097c0.028-0.029,0.057-0.058,0.085-0.087
		c0.03-0.03,0.059-0.061,0.09-0.091c0.03-0.029,0.059-0.058,0.089-0.087c0.03-0.029,0.06-0.058,0.09-0.087
		c0.03-0.029,0.061-0.057,0.092-0.086c0.03-0.028,0.061-0.056,0.092-0.084c0.031-0.028,0.063-0.056,0.095-0.084
		c0.031-0.027,0.062-0.054,0.093-0.081c0.032-0.028,0.064-0.055,0.097-0.082c0.032-0.026,0.063-0.053,0.095-0.079
		c0.033-0.027,0.066-0.053,0.099-0.08c0.032-0.026,0.065-0.051,0.097-0.076c0.034-0.026,0.067-0.052,0.101-0.078
		c0.033-0.025,0.066-0.049,0.099-0.074c0.034-0.025,0.068-0.05,0.103-0.075c0.033-0.024,0.067-0.048,0.101-0.072
		c0.035-0.024,0.069-0.049,0.104-0.072c0.034-0.023,0.069-0.046,0.103-0.069c0.035-0.023,0.071-0.047,0.106-0.07
		c0.035-0.023,0.07-0.045,0.105-0.067c0.036-0.022,0.072-0.045,0.108-0.067c0.036-0.022,0.072-0.043,0.108-0.064
		c0.036-0.022,0.072-0.043,0.109-0.064c0.037-0.021,0.074-0.042,0.111-0.063c0.036-0.02,0.072-0.041,0.109-0.061
		c0.039-0.021,0.078-0.042,0.117-0.062c0.035-0.019,0.07-0.038,0.106-0.056c0.045-0.023,0.09-0.045,0.135-0.067
		c0.051-0.025,0.102-0.05,0.153-0.074c0.054-0.026,0.108-0.051,0.163-0.076c0.034-0.015,0.069-0.03,0.103-0.045
		c0.043-0.019,0.086-0.038,0.13-0.056c0.036-0.015,0.073-0.03,0.11-0.045c0.042-0.017,0.084-0.034,0.126-0.051
		c0.038-0.015,0.076-0.029,0.113-0.043c0.042-0.016,0.084-0.032,0.126-0.047c0.038-0.014,0.077-0.027,0.115-0.041
		c0.042-0.015,0.084-0.029,0.126-0.043c0.039-0.013,0.078-0.026,0.117-0.038c0.042-0.014,0.085-0.027,0.127-0.04
		c0.039-0.012,0.079-0.024,0.119-0.035c0.043-0.013,0.085-0.025,0.128-0.037c0.04-0.011,0.08-0.022,0.12-0.032
		c0.043-0.011,0.087-0.023,0.13-0.034c0.04-0.01,0.08-0.02,0.12-0.029c0.044-0.01,0.088-0.021,0.132-0.031
		c0.04-0.009,0.08-0.018,0.121-0.026c0.045-0.009,0.089-0.018,0.134-0.027c0.04-0.008,0.081-0.016,0.121-0.023
		c0.045-0.008,0.091-0.016,0.136-0.024c0.04-0.007,0.081-0.014,0.121-0.02c0.046-0.007,0.093-0.014,0.139-0.021
		c0.04-0.006,0.08-0.012,0.12-0.017c0.048-0.006,0.095-0.012,0.143-0.017c0.04-0.005,0.079-0.009,0.119-0.014
		c0.049-0.005,0.099-0.009,0.148-0.014c0.022-0.002,0.044-0.004,0.065-0.006c-0.017-0.002-0.033-0.003-0.05-0.004
		c-0.052-0.004-0.105-0.007-0.157-0.011c-0.036-0.002-0.072-0.005-0.108-0.007c-0.059-0.003-0.118-0.005-0.177-0.007
		c-0.03-0.001-0.061-0.003-0.091-0.003c-0.088-0.002-0.177-0.004-0.266-0.004c-0.001,0-0.002,0-0.003,0h0h0
		c-0.001,0-0.002,0-0.003,0c-0.089,0-0.178,0.001-0.266,0.004c-0.031,0.001-0.061,0.002-0.091,0.003
		c-0.059,0.002-0.118,0.004-0.177,0.007c-0.036,0.002-0.072,0.005-0.108,0.007c-0.053,0.003-0.105,0.006-0.157,0.011
		c-0.039,0.003-0.077,0.007-0.115,0.01c-0.05,0.005-0.099,0.009-0.148,0.014c-0.04,0.004-0.079,0.009-0.119,0.014
		c-0.048,0.006-0.096,0.011-0.143,0.017c-0.04,0.005-0.08,0.011-0.12,0.017c-0.047,0.007-0.093,0.013-0.139,0.021
		c-0.041,0.006-0.081,0.013-0.121,0.02c-0.045,0.008-0.091,0.016-0.136,0.024c-0.041,0.007-0.081,0.015-0.121,0.023
		c-0.045,0.009-0.09,0.018-0.134,0.027c-0.04,0.009-0.081,0.017-0.121,0.026c-0.044,0.01-0.088,0.02-0.132,0.031
		c-0.04,0.01-0.08,0.019-0.12,0.029c-0.044,0.011-0.087,0.022-0.13,0.034c-0.04,0.011-0.08,0.021-0.12,0.032
		c-0.043,0.012-0.086,0.024-0.128,0.037c-0.04,0.012-0.079,0.023-0.119,0.035c-0.042,0.013-0.085,0.027-0.127,0.04
		c-0.039,0.013-0.078,0.025-0.117,0.038c-0.042,0.014-0.084,0.029-0.126,0.043c-0.038,0.014-0.077,0.027-0.115,0.041
		c-0.042,0.015-0.084,0.031-0.126,0.047c-0.038,0.014-0.076,0.028-0.113,0.043c-0.042,0.017-0.084,0.034-0.126,0.051
		c-0.037,0.015-0.073,0.029-0.11,0.045c-0.043,0.018-0.087,0.038-0.13,0.056c-0.034,0.015-0.069,0.03-0.103,0.045
		c-0.055,0.025-0.109,0.05-0.163,0.076c-0.051,0.024-0.102,0.049-0.153,0.074c-0.045,0.022-0.09,0.044-0.135,0.067
		c-0.036,0.018-0.071,0.037-0.106,0.056c-0.039,0.021-0.078,0.041-0.117,0.062c-0.036,0.02-0.072,0.04-0.109,0.061
		c-0.037,0.021-0.074,0.041-0.111,0.063c-0.036,0.021-0.073,0.043-0.109,0.064c-0.036,0.021-0.072,0.043-0.108,0.064
		c-0.036,0.022-0.072,0.045-0.108,0.067c-0.035,0.022-0.07,0.044-0.105,0.067c-0.036,0.023-0.071,0.046-0.106,0.07
		c-0.034,0.023-0.069,0.046-0.103,0.069c-0.035,0.024-0.07,0.048-0.104,0.072c-0.034,0.024-0.068,0.047-0.101,0.072
		c-0.035,0.025-0.069,0.05-0.103,0.075c-0.033,0.024-0.066,0.049-0.099,0.074c-0.034,0.026-0.068,0.052-0.101,0.078
		c-0.033,0.025-0.065,0.051-0.097,0.076c-0.033,0.026-0.066,0.053-0.099,0.08c-0.032,0.026-0.064,0.052-0.095,0.079
		c-0.033,0.027-0.065,0.054-0.097,0.082c-0.031,0.027-0.062,0.054-0.093,0.081c-0.032,0.028-0.063,0.056-0.095,0.084
		c-0.031,0.028-0.061,0.056-0.092,0.084c-0.031,0.028-0.062,0.057-0.092,0.086c-0.03,0.029-0.06,0.058-0.09,0.087
		c-0.03,0.029-0.06,0.058-0.089,0.087c-0.03,0.03-0.06,0.061-0.09,0.091c-0.029,0.029-0.057,0.058-0.085,0.087
		c-0.031,0.032-0.061,0.065-0.091,0.097c-0.023,0.025-0.047,0.05-0.07,0.075l-0.001,0.002c-0.673,0.737-1.238,1.573-1.671,2.484
		l-0.001,0.002c-0.008,0.017-0.016,0.035-0.024,0.052c-0.026,0.056-0.052,0.112-0.077,0.168c-0.012,0.028-0.024,0.055-0.036,0.083
		c-0.023,0.052-0.045,0.105-0.067,0.157c-0.013,0.03-0.025,0.061-0.037,0.091c-0.021,0.051-0.041,0.102-0.061,0.153
		c-0.012,0.031-0.024,0.063-0.036,0.095c-0.019,0.051-0.038,0.103-0.056,0.154c-0.011,0.032-0.023,0.063-0.034,0.095
		c-0.018,0.053-0.036,0.106-0.053,0.16c-0.01,0.031-0.02,0.061-0.03,0.092c-0.018,0.058-0.036,0.116-0.053,0.175
		c-0.008,0.027-0.016,0.053-0.024,0.079c-0.024,0.085-0.048,0.17-0.07,0.256c-0.001,0.003-0.002,0.007-0.003,0.01
		c-0.021,0.082-0.041,0.164-0.06,0.247c-0.007,0.031-0.013,0.062-0.02,0.092c-0.012,0.056-0.024,0.112-0.036,0.168
		c-0.007,0.037-0.014,0.073-0.021,0.11c-0.01,0.051-0.019,0.102-0.028,0.153c-0.007,0.039-0.013,0.078-0.02,0.117
		c-0.008,0.049-0.016,0.098-0.023,0.148c-0.006,0.041-0.012,0.081-0.017,0.122c-0.007,0.049-0.013,0.098-0.019,0.146
		c-0.005,0.041-0.01,0.083-0.014,0.124c-0.005,0.049-0.01,0.098-0.014,0.147c-0.004,0.042-0.008,0.083-0.011,0.125
		c-0.004,0.05-0.007,0.1-0.01,0.15c-0.003,0.041-0.006,0.082-0.008,0.123c-0.003,0.053-0.005,0.107-0.007,0.16
		c-0.002,0.038-0.003,0.077-0.004,0.115c-0.002,0.069-0.002,0.138-0.003,0.207c0,0.022-0.001,0.044-0.001,0.065
		c0,5.594,4.535,10.129,10.129,10.129h0h0c0.287,0,0.571-0.013,0.853-0.036C214.318,394.86,210.236,390.507,210.236,385.2z"/>
	<path style="fill:#694B4B;" d="M218.883,377.879h-0.382c-2.233,0-4.05,1.817-4.05,4.05v1.245l0.354-0.12
		c0.057-0.019,0.114-0.029,0.174-0.029c0.034,0,3.404-0.024,4.929-2.133c0.122-0.168,0.337-0.252,0.542-0.211
		c0.206,0.042,0.369,0.202,0.416,0.411c0.016,0.068,0.417,1.659,1.679,1.946c0.014,0.003,0.028,0.008,0.041,0.012l0.348,0.109
		v-1.231C222.933,379.696,221.116,377.879,218.883,377.879z"/>
	<g>
		<path style="fill:#FBCB99;" d="M219.1,388.664h-0.802c-0.095,0-0.195-0.004-0.316-0.013l-0.246-0.018v0.899l0.945,0.921
			l0.981-1.018v-0.802l-0.246,0.019C219.296,388.66,219.196,388.664,219.1,388.664z"/>
		<path style="fill:#FBCB99;" d="M223.726,383.388h-1.386v-0.501l-0.305,0.108c-0.081,0.029-0.168,0.034-0.253,0.014
			c-0.706-0.161-1.28-0.611-1.705-1.339l-0.136-0.234l-0.208,0.173c-1.674,1.395-4.096,1.411-4.198,1.411l-0.02,0
			c-0.05,0-0.101-0.009-0.15-0.027l-0.305-0.107v0.501h-1.437v1.659h1.483c0.257,1.531,1.591,2.701,3.194,2.701h0.802
			c1.603,0,2.937-1.171,3.194-2.701h1.431V383.388z"/>
	</g>
	<path style="fill:#6598CB;" d="M224.613,392.493c-0.456-1.06-1.418-1.414-1.464-1.43c-0.007-0.002-0.01-0.004-0.018-0.007
		l-2.711-1.087l-1.398,1.451c-0.084,0.087-0.202,0.138-0.33,0.14c-0.12,0-0.234-0.046-0.32-0.13l-1.473-1.435l-2.713,1.062
		c-0.006,0.002-0.012,0.005-0.025,0.009c-0.04,0.014-0.996,0.369-1.451,1.428l-0.069,0.159l0.134,0.109
		c1.659,1.35,3.749,2.093,5.885,2.093c2.137,0,4.227-0.744,5.886-2.094l0.134-0.109L224.613,392.493z"/>
	<path style="fill:#563B3B;" d="M215.737,381.93c0-2.08,1.577-3.799,3.598-4.024c-0.148-0.017-0.299-0.026-0.452-0.026h-0.382
		c-2.233,0-4.05,1.817-4.05,4.05v1.245l0.354-0.12c0.057-0.019,0.114-0.029,0.174-0.029c0.01,0,0.307-0.002,0.758-0.058
		L215.737,381.93L215.737,381.93z"/>
	<g>
		<path style="fill:#EDBA89;" d="M219.398,388.664h0.265v-0.032l-0.246,0.019c-0.06,0.005-0.115,0.008-0.167,0.01
			C219.301,388.663,219.35,388.664,219.398,388.664z"/>
		<path style="fill:#EDBA89;" d="M218.836,389.531v-0.867h-0.538c-0.095,0-0.195-0.004-0.316-0.013l-0.246-0.018v0.899l0.945,0.921
			l0.532-0.552L218.836,389.531z"/>
		<path style="fill:#EDBA89;" d="M216.469,383.36c0.052,0.018,0.105,0.028,0.158,0.028l0.021,0c0.097,0,2.156-0.014,3.851-1.076
			c-0.08-0.108-0.156-0.222-0.228-0.345l-0.144-0.246l-0.219,0.182c-1.147,0.956-2.627,1.297-3.551,1.418L216.469,383.36z"/>
		<path style="fill:#EDBA89;" d="M216.158,384.508v-1.161c-0.359,0.038-0.594,0.04-0.625,0.04l-0.02,0
			c-0.05,0-0.101-0.009-0.15-0.027l-0.305-0.107v1.255c0,1.786,1.453,3.24,3.24,3.24h0.802c0.05,0,0.099-0.002,0.149-0.004
			C217.531,387.666,216.158,386.245,216.158,384.508z"/>
	</g>
	<path style="fill:#4982AA;" d="M213.876,392.762l-0.134-0.109l0.068-0.159c0.456-1.059,1.411-1.413,1.451-1.428
		c0.012-0.004,0.019-0.006,0.025-0.009l1.928-0.755l-0.315-0.307l-2.713,1.062c-0.006,0.002-0.012,0.005-0.025,0.009
		c-0.04,0.014-0.996,0.369-1.451,1.428l-0.069,0.159l0.134,0.109c1.659,1.35,3.749,2.093,5.885,2.093
		c0.184,0,0.367-0.007,0.55-0.018C217.269,394.721,215.392,393.996,213.876,392.762z"/>
	<g>
		<path style="fill:#202121;" d="M229.498,385.059l0-0.025c-0.001-0.054-0.002-0.108-0.003-0.163l-0.005-0.136
			c-0.002-0.052-0.005-0.103-0.008-0.154c-0.002-0.045-0.005-0.09-0.008-0.133c-0.003-0.053-0.008-0.105-0.012-0.159
			c-0.004-0.044-0.007-0.087-0.012-0.132c-0.005-0.053-0.011-0.106-0.017-0.162c-0.004-0.041-0.009-0.081-0.014-0.124
			c-0.007-0.055-0.014-0.109-0.022-0.164l-0.004-0.027c-0.004-0.031-0.008-0.062-0.013-0.091c-0.009-0.061-0.019-0.121-0.029-0.182
			l-0.016-0.1c-0.016-0.089-0.033-0.178-0.05-0.266c-0.001-0.004-0.002-0.01-0.002-0.012c-0.019-0.093-0.039-0.185-0.061-0.279
			l-0.021-0.086c-0.015-0.063-0.03-0.126-0.047-0.189c-0.007-0.029-0.015-0.057-0.023-0.086l-0.004-0.014
			c-0.016-0.058-0.031-0.116-0.048-0.172c-0.01-0.036-0.021-0.072-0.031-0.104c-0.017-0.057-0.034-0.113-0.052-0.168l-0.033-0.103
			c-0.018-0.056-0.037-0.112-0.056-0.166c-0.012-0.035-0.024-0.069-0.035-0.099c-0.02-0.057-0.041-0.115-0.064-0.176l-0.034-0.088
			c-0.024-0.061-0.048-0.122-0.073-0.184l-0.022-0.056c-0.003-0.008-0.006-0.015-0.01-0.023c-0.164-0.395-0.354-0.783-0.564-1.155
			c-0.193-0.342-0.626-0.463-0.968-0.27c-0.342,0.193-0.463,0.626-0.27,0.968c0.186,0.329,0.353,0.672,0.497,1.021
			c0.002,0.005,0.004,0.01,0.007,0.016l0.014,0.035c0.022,0.053,0.043,0.107,0.063,0.158l0.03,0.08
			c0.018,0.05,0.037,0.099,0.056,0.154c0.01,0.027,0.019,0.054,0.029,0.084c0.017,0.048,0.033,0.096,0.047,0.141l0.03,0.094
			c0.015,0.048,0.03,0.096,0.045,0.147c0.009,0.029,0.018,0.058,0.027,0.09c0.014,0.049,0.028,0.099,0.042,0.151l0.023,0.085
			c0.014,0.055,0.027,0.11,0.041,0.164l0.018,0.074c0.017,0.076,0.034,0.151,0.051,0.235c0.001,0.004,0.002,0.01,0.003,0.015
			c0.016,0.077,0.03,0.155,0.044,0.231l0.015,0.089c0.009,0.052,0.017,0.104,0.025,0.158c0.004,0.024,0.007,0.048,0.01,0.072
			l0.004,0.03c0.007,0.048,0.013,0.096,0.019,0.142c0.004,0.036,0.008,0.072,0.013,0.111c0.005,0.046,0.01,0.093,0.014,0.139
			c0.004,0.038,0.007,0.076,0.01,0.113c0.004,0.045,0.007,0.09,0.01,0.138c0.003,0.039,0.005,0.077,0.007,0.116
			c0.003,0.046,0.005,0.093,0.007,0.132l0.004,0.12c0.001,0.046,0.002,0.093,0.003,0.142l0,0.029c0,0.027,0.001,0.055,0.001,0.085
			c0,0.041,0,0.083-0.001,0.124l-0.001,0.129c-0.002,0.065-0.004,0.131-0.007,0.19l-0.003,0.065
			c-0.118,2.325-1.075,4.412-2.561,5.984c-0.668-1.183-1.759-1.627-1.95-1.697l-2.724-1.092v-0.405
			c0.84-0.444,1.518-1.189,1.914-2.103c0.033,0.005,0.065,0.008,0.099,0.008c1.045,0,1.894-0.89,1.894-1.983
			c0-0.797-0.453-1.484-1.102-1.799v-0.556c0-2.86-2.155-5.187-4.805-5.187h-0.341c-2.649,0-4.805,2.327-4.805,5.187v0.559
			c-0.647,0.316-1.097,1.001-1.097,1.796c0,1.093,0.85,1.983,1.894,1.983c0.037,0,0.072-0.004,0.107-0.009
			c0.406,0.937,1.108,1.696,1.976,2.136v0.37l-2.797,1.095c-0.182,0.066-1.282,0.509-1.953,1.7c-1.705-1.805-2.7-4.275-2.564-6.944
			l0.004-0.06c0.004-0.065,0.008-0.129,0.013-0.194c0.002-0.023,0.004-0.045,0.006-0.068l0.006-0.071
			c0.004-0.039,0.007-0.079,0.011-0.116c0.003-0.03,0.007-0.059,0.01-0.089l0.003-0.027c0.005-0.046,0.011-0.092,0.016-0.135
			l0.017-0.118c0.006-0.045,0.013-0.09,0.02-0.134c0.006-0.038,0.013-0.077,0.019-0.116c0.008-0.045,0.016-0.09,0.024-0.133
			c0.007-0.038,0.014-0.076,0.021-0.112c0.009-0.046,0.019-0.092,0.028-0.136l0.024-0.11c0.011-0.047,0.022-0.094,0.033-0.139
			l0.025-0.102c0.013-0.052,0.027-0.103,0.041-0.153l0.023-0.085c0.022-0.076,0.044-0.152,0.069-0.231l0.002-0.007
			c0.024-0.078,0.05-0.156,0.075-0.23l0.027-0.075c0.019-0.053,0.037-0.106,0.058-0.16l0.032-0.083
			c0.018-0.048,0.037-0.097,0.057-0.146c0.011-0.029,0.023-0.057,0.036-0.087c0.019-0.047,0.039-0.093,0.061-0.144l0.036-0.083
			c0.021-0.047,0.042-0.094,0.063-0.14l0.039-0.083c0.023-0.048,0.046-0.095,0.068-0.141l0.039-0.077
			c0.026-0.051,0.052-0.101,0.081-0.155l0.018-0.034c0.002-0.004,0.004-0.007,0.006-0.011c0.443-0.821,1.004-1.571,1.669-2.228
			c0.004-0.004,0.008-0.008,0.012-0.012c0.012-0.012,0.024-0.023,0.036-0.035l0.037-0.036c0.025-0.024,0.049-0.048,0.074-0.072
			c0.019-0.018,0.038-0.035,0.057-0.053l0.036-0.033c0.026-0.024,0.052-0.048,0.076-0.07l0.09-0.079
			c0.029-0.025,0.057-0.051,0.087-0.076c0.024-0.021,0.049-0.041,0.073-0.062l0.018-0.015c0.028-0.024,0.057-0.048,0.088-0.072
			c0.026-0.021,0.053-0.043,0.079-0.064l0.012-0.009c0.03-0.024,0.06-0.047,0.09-0.07c0.032-0.024,0.063-0.048,0.096-0.073
			c0.03-0.023,0.061-0.046,0.091-0.068c0.032-0.024,0.064-0.047,0.095-0.069c0.031-0.022,0.061-0.044,0.094-0.066
			c0.033-0.023,0.065-0.045,0.096-0.066c0.032-0.022,0.065-0.043,0.097-0.065c0.033-0.022,0.065-0.043,0.099-0.065
			c0.032-0.021,0.064-0.041,0.097-0.062c0.033-0.021,0.066-0.041,0.101-0.063c0.031-0.019,0.063-0.038,0.099-0.059
			c0.033-0.02,0.067-0.04,0.101-0.059c0.029-0.017,0.059-0.033,0.088-0.05l0.026-0.015c0.03-0.017,0.06-0.034,0.089-0.049
			c0.025-0.014,0.051-0.027,0.077-0.041l0.035-0.019c0.032-0.017,0.064-0.034,0.094-0.049c0.025-0.013,0.05-0.025,0.076-0.038
			l0.058-0.029c0.026-0.013,0.052-0.026,0.078-0.039c0.03-0.014,0.06-0.028,0.09-0.042l0.052-0.024
			c0.023-0.011,0.046-0.022,0.071-0.033c0.036-0.016,0.071-0.031,0.107-0.047l0.021-0.009c0.049-0.021,0.097-0.042,0.146-0.062
			c0.052-0.021,0.103-0.043,0.155-0.063c0.019-0.007,0.038-0.015,0.058-0.022l0.071-0.027c0.031-0.012,0.061-0.023,0.094-0.035
			c0.024-0.009,0.049-0.017,0.073-0.026l0.059-0.021c0.03-0.01,0.059-0.021,0.09-0.031c0.023-0.008,0.046-0.015,0.069-0.022
			l0.061-0.02c0.032-0.01,0.065-0.021,0.095-0.03l0.128-0.038c0.034-0.01,0.067-0.02,0.1-0.029c0.037-0.01,0.074-0.02,0.112-0.03
			c0.04-0.011,0.08-0.021,0.12-0.031c0.037-0.009,0.073-0.018,0.111-0.027c0.041-0.01,0.081-0.019,0.122-0.029
			c0.036-0.008,0.072-0.016,0.111-0.024c0.041-0.009,0.082-0.017,0.122-0.025c0.038-0.007,0.077-0.015,0.115-0.022
			c0.041-0.008,0.082-0.015,0.125-0.022c0.037-0.006,0.075-0.013,0.113-0.019c0.042-0.007,0.085-0.013,0.128-0.019
			c0.037-0.005,0.073-0.01,0.112-0.015c0.043-0.006,0.086-0.011,0.128-0.016c0.038-0.004,0.075-0.009,0.115-0.013
			c0.043-0.005,0.087-0.009,0.129-0.013c0.038-0.003,0.075-0.007,0.112-0.01c0.044-0.004,0.089-0.006,0.135-0.009l0.015-0.001
			c0.031-0.002,0.063-0.004,0.095-0.006c0.033-0.002,0.065-0.003,0.098-0.004l0.147-0.006c0.04-0.001,0.081-0.002,0.121-0.002
			l0.126-0.001c0.046,0,0.093,0.001,0.139,0.001l0.112,0.002c0.082,0.002,0.164,0.005,0.247,0.009c0.002,0,0.004,0,0.006,0
			c0.083,0.004,0.165,0.01,0.248,0.016l0.116,0.01c0.044,0.004,0.088,0.008,0.13,0.012l0.129,0.015
			c0.039,0.005,0.079,0.009,0.118,0.014l0.14,0.02c0.035,0.005,0.069,0.01,0.103,0.015c0.031,0.005,0.062,0.01,0.093,0.015
			l0.02,0.003c0.043,0.007,0.085,0.014,0.129,0.022c0.029,0.005,0.057,0.011,0.085,0.016l0.025,0.005
			c0.043,0.008,0.085,0.017,0.129,0.026c0.038,0.008,0.076,0.016,0.111,0.024c0.042,0.01,0.085,0.019,0.126,0.029
			c0.038,0.009,0.075,0.018,0.112,0.027c0.042,0.01,0.083,0.021,0.122,0.031c0.037,0.01,0.075,0.02,0.112,0.03
			c0.041,0.011,0.081,0.023,0.12,0.034c0.037,0.011,0.074,0.022,0.111,0.033c0.04,0.012,0.08,0.025,0.119,0.038
			c0.037,0.012,0.074,0.024,0.108,0.035c0.04,0.014,0.08,0.027,0.12,0.041c0.036,0.013,0.072,0.025,0.108,0.038
			c0.039,0.014,0.078,0.029,0.115,0.043l0.109,0.042c0.03,0.012,0.059,0.024,0.088,0.036l0.058,0.023
			c0.025,0.01,0.049,0.02,0.074,0.03c0.034,0.014,0.067,0.029,0.101,0.044l0.047,0.02c0.023,0.01,0.046,0.02,0.07,0.031
			c0.031,0.014,0.062,0.029,0.093,0.043l0.062,0.029c0.019,0.009,0.039,0.018,0.06,0.029c0.029,0.014,0.057,0.028,0.086,0.042
			l0.125,0.062c0.049,0.026,0.098,0.052,0.149,0.079c0.046,0.025,0.092,0.05,0.138,0.076l0.022,0.012
			c0.033,0.018,0.066,0.037,0.1,0.057c0.022,0.013,0.044,0.026,0.066,0.039l0.056,0.033c0.026,0.016,0.053,0.031,0.08,0.048
			c0.024,0.015,0.048,0.03,0.071,0.045l0.058,0.037c0.023,0.014,0.046,0.029,0.069,0.044c0.026,0.017,0.051,0.034,0.077,0.051
			l0.041,0.027c0.025,0.017,0.051,0.034,0.077,0.051c0.03,0.02,0.059,0.041,0.089,0.062c0,0,0.007,0.005,0.008,0.005l0.011,0.007
			c0.028,0.02,0.056,0.039,0.085,0.06c0.031,0.023,0.062,0.046,0.095,0.069l0.009,0.007c0.027,0.02,0.054,0.04,0.083,0.062
			c0.032,0.024,0.063,0.048,0.094,0.072c0.03,0.023,0.06,0.047,0.091,0.072c0.03,0.024,0.06,0.048,0.091,0.074
			c0.03,0.024,0.059,0.049,0.088,0.073c0.03,0.026,0.061,0.052,0.092,0.079c0.028,0.024,0.056,0.049,0.085,0.074
			c0.03,0.026,0.059,0.052,0.087,0.078c0.029,0.026,0.057,0.052,0.085,0.078c0.029,0.027,0.057,0.053,0.086,0.081
			c0.027,0.026,0.055,0.052,0.082,0.079l0.021,0.021c0.021,0.021,0.042,0.041,0.065,0.064c0.027,0.027,0.053,0.054,0.081,0.082
			c0.027,0.028,0.054,0.056,0.08,0.083c0.022,0.023,0.043,0.046,0.065,0.069l0.016,0.017c0.267,0.287,0.717,0.303,1.004,0.036
			c0.287-0.267,0.303-0.717,0.036-1.004l-0.015-0.016c-0.025-0.027-0.05-0.054-0.076-0.082c-0.031-0.032-0.062-0.065-0.093-0.096
			c-0.032-0.033-0.063-0.065-0.094-0.095c-0.025-0.025-0.05-0.049-0.075-0.074l-0.021-0.02c-0.032-0.031-0.064-0.062-0.095-0.092
			c-0.033-0.031-0.066-0.062-0.1-0.094c-0.032-0.03-0.064-0.059-0.098-0.09c-0.034-0.03-0.067-0.061-0.101-0.09
			c-0.034-0.03-0.067-0.059-0.1-0.087c-0.034-0.029-0.068-0.059-0.103-0.088c-0.034-0.028-0.067-0.056-0.101-0.083
			c-0.036-0.029-0.071-0.058-0.106-0.086c-0.035-0.028-0.07-0.055-0.105-0.083c-0.036-0.028-0.071-0.055-0.106-0.081
			c-0.033-0.025-0.066-0.049-0.099-0.074l-0.008-0.006c-0.037-0.027-0.074-0.055-0.11-0.081c-0.033-0.024-0.066-0.047-0.1-0.071
			l-0.015-0.011c-0.035-0.025-0.07-0.05-0.105-0.073c-0.031-0.021-0.062-0.042-0.093-0.063l-0.037-0.025
			c-0.032-0.021-0.063-0.042-0.095-0.063c-0.028-0.018-0.057-0.036-0.085-0.054l-0.054-0.034c-0.03-0.019-0.059-0.038-0.089-0.056
			c-0.033-0.02-0.066-0.04-0.099-0.059l-0.047-0.028c-0.029-0.017-0.058-0.035-0.086-0.051c-0.04-0.023-0.081-0.046-0.121-0.068
			l-0.021-0.012c-0.053-0.03-0.107-0.059-0.158-0.087c-0.057-0.03-0.113-0.061-0.172-0.091c-0.025-0.013-0.049-0.025-0.074-0.037
			l-0.063-0.031c-0.035-0.018-0.071-0.036-0.105-0.052c-0.026-0.013-0.053-0.025-0.08-0.038l-0.057-0.027
			c-0.037-0.017-0.074-0.035-0.111-0.051c-0.03-0.013-0.059-0.026-0.089-0.039l-0.042-0.018c-0.04-0.018-0.08-0.035-0.12-0.052
			c-0.03-0.013-0.06-0.025-0.089-0.037l-0.058-0.024c-0.035-0.014-0.071-0.029-0.107-0.043c-0.033-0.013-0.066-0.026-0.1-0.038
			l-0.023-0.009c-0.044-0.017-0.088-0.033-0.133-0.05c-0.042-0.015-0.084-0.03-0.126-0.044c-0.044-0.015-0.088-0.031-0.136-0.047
			c-0.042-0.014-0.083-0.027-0.125-0.041c-0.046-0.015-0.092-0.029-0.139-0.044c-0.042-0.013-0.084-0.025-0.127-0.038
			c-0.046-0.014-0.093-0.027-0.14-0.04c-0.042-0.012-0.084-0.023-0.128-0.035c-0.047-0.013-0.094-0.025-0.143-0.037
			c-0.042-0.01-0.085-0.021-0.128-0.031c-0.047-0.011-0.095-0.022-0.145-0.033c-0.043-0.009-0.085-0.019-0.127-0.027
			c-0.049-0.01-0.099-0.02-0.15-0.03l-0.026-0.005c-0.034-0.006-0.067-0.013-0.1-0.019c-0.05-0.009-0.1-0.018-0.152-0.026
			l-0.016-0.003c-0.037-0.006-0.074-0.013-0.111-0.018c-0.041-0.006-0.083-0.012-0.124-0.018l-0.071-0.01
			c-0.028-0.004-0.056-0.008-0.085-0.012c-0.046-0.006-0.093-0.011-0.139-0.017l-0.144-0.016c-0.051-0.005-0.102-0.01-0.154-0.014
			l-0.065-0.006c-0.022-0.002-0.044-0.004-0.066-0.006c-0.091-0.007-0.183-0.013-0.275-0.018c-0.008-0.001-0.016-0.001-0.025-0.001
			c-0.092-0.005-0.184-0.008-0.274-0.01c-0.022-0.001-0.044-0.001-0.066-0.001l-0.061-0.001c-0.053-0.001-0.106-0.001-0.164-0.002
			l-0.139,0.002c-0.047,0.001-0.095,0.001-0.144,0.002c-0.029,0.001-0.057,0.002-0.086,0.003l-0.077,0.003
			c-0.04,0.002-0.08,0.003-0.119,0.005c-0.038,0.002-0.076,0.005-0.115,0.007l-0.012,0.001c-0.051,0.003-0.103,0.007-0.155,0.011
			c-0.043,0.003-0.086,0.007-0.13,0.011c-0.05,0.005-0.1,0.009-0.148,0.014c-0.044,0.005-0.088,0.01-0.133,0.015
			c-0.049,0.006-0.097,0.012-0.144,0.018c-0.043,0.006-0.086,0.012-0.134,0.018c-0.048,0.007-0.097,0.014-0.145,0.022
			c-0.044,0.007-0.087,0.014-0.128,0.021c-0.049,0.008-0.097,0.017-0.145,0.026c-0.043,0.008-0.085,0.016-0.129,0.025
			c-0.047,0.009-0.094,0.019-0.147,0.03c-0.042,0.009-0.084,0.018-0.125,0.027c-0.046,0.01-0.092,0.021-0.137,0.032
			c-0.044,0.01-0.087,0.021-0.131,0.032c-0.046,0.012-0.092,0.024-0.136,0.036c-0.042,0.011-0.085,0.023-0.128,0.035
			c-0.04,0.011-0.079,0.022-0.118,0.034l-0.146,0.043c-0.038,0.012-0.077,0.024-0.115,0.036l-0.056,0.018
			c-0.029,0.009-0.059,0.019-0.088,0.028c-0.037,0.013-0.074,0.026-0.111,0.038l-0.052,0.018c-0.032,0.011-0.064,0.022-0.095,0.033
			c-0.038,0.014-0.077,0.028-0.114,0.043l-0.062,0.023c-0.026,0.01-0.052,0.02-0.079,0.03c-0.06,0.023-0.119,0.048-0.177,0.072
			c-0.056,0.023-0.112,0.047-0.168,0.071l-0.02,0.009c-0.043,0.018-0.086,0.037-0.127,0.055c-0.031,0.014-0.061,0.028-0.092,0.043
			l-0.043,0.02c-0.037,0.017-0.074,0.034-0.111,0.052c-0.032,0.015-0.064,0.031-0.096,0.047l-0.053,0.026
			c-0.03,0.015-0.06,0.03-0.093,0.046c-0.038,0.02-0.076,0.04-0.119,0.063l-0.026,0.014c-0.031,0.016-0.061,0.032-0.093,0.049
			c-0.035,0.019-0.07,0.039-0.105,0.058l-0.024,0.014c-0.035,0.02-0.07,0.039-0.105,0.059c-0.04,0.023-0.079,0.046-0.119,0.07
			c-0.038,0.022-0.076,0.045-0.111,0.067c-0.039,0.024-0.078,0.048-0.116,0.072c-0.038,0.024-0.076,0.048-0.112,0.071
			c-0.038,0.025-0.077,0.05-0.114,0.075c-0.036,0.024-0.072,0.048-0.111,0.074c-0.037,0.026-0.074,0.051-0.11,0.076
			c-0.037,0.025-0.073,0.051-0.11,0.078c-0.037,0.026-0.073,0.053-0.11,0.08c-0.036,0.026-0.071,0.053-0.105,0.078
			c-0.036,0.027-0.072,0.054-0.108,0.082c-0.035,0.027-0.07,0.055-0.105,0.083l-0.012,0.01c-0.031,0.025-0.063,0.05-0.092,0.074
			c-0.036,0.029-0.071,0.058-0.103,0.086l-0.015,0.012c-0.03,0.025-0.06,0.05-0.088,0.074c-0.035,0.03-0.069,0.06-0.102,0.089
			l-0.025,0.022c-0.025,0.021-0.049,0.043-0.075,0.066c-0.031,0.028-0.062,0.057-0.093,0.085l-0.03,0.027
			c-0.025,0.023-0.05,0.046-0.074,0.069c-0.03,0.028-0.06,0.057-0.089,0.086l-0.027,0.026c-0.022,0.021-0.043,0.041-0.064,0.062
			c-0.005,0.005-0.009,0.009-0.014,0.014c-0.755,0.749-1.394,1.603-1.9,2.537c-0.003,0.005-0.006,0.011-0.009,0.016
			c-0.008,0.015-0.016,0.03-0.023,0.045l-0.005,0.01c-0.031,0.058-0.062,0.117-0.092,0.175l-0.044,0.088
			c-0.027,0.055-0.054,0.109-0.079,0.163c-0.015,0.032-0.03,0.063-0.045,0.096c-0.025,0.053-0.049,0.106-0.073,0.162l-0.008,0.018
			c-0.012,0.028-0.024,0.055-0.034,0.078c-0.024,0.054-0.047,0.109-0.068,0.162c-0.014,0.034-0.028,0.067-0.041,0.101
			c-0.023,0.056-0.044,0.112-0.066,0.168l-0.007,0.02c-0.01,0.026-0.02,0.052-0.029,0.077c-0.023,0.061-0.044,0.123-0.065,0.182
			l-0.031,0.086c-0.03,0.089-0.059,0.178-0.088,0.267c-0.002,0.006-0.004,0.012-0.006,0.019c-0.026,0.085-0.051,0.169-0.076,0.257
			l-0.026,0.096c-0.016,0.059-0.032,0.118-0.047,0.177c-0.007,0.027-0.014,0.055-0.02,0.082l-0.009,0.035
			c-0.013,0.054-0.026,0.108-0.038,0.161c-0.007,0.032-0.014,0.063-0.021,0.095l-0.006,0.03c-0.011,0.052-0.022,0.103-0.033,0.157
			c-0.008,0.042-0.016,0.085-0.025,0.13c-0.01,0.052-0.019,0.103-0.027,0.154c-0.007,0.044-0.015,0.087-0.022,0.132
			c-0.008,0.052-0.016,0.105-0.023,0.157l-0.004,0.028c-0.005,0.034-0.01,0.068-0.015,0.105c-0.007,0.054-0.013,0.108-0.019,0.156
			l-0.003,0.021c-0.005,0.038-0.009,0.075-0.013,0.114c-0.005,0.045-0.009,0.09-0.013,0.135l-0.006,0.067
			c-0.003,0.03-0.005,0.059-0.008,0.089c-0.006,0.073-0.01,0.147-0.014,0.223l-0.001,0.019c-0.001,0.016-0.002,0.033-0.003,0.049
			c-0.304,5.969,4.306,11.073,10.275,11.376c0.188,0.01,0.376,0.014,0.564,0.014c2.687,0,5.244-0.981,7.253-2.796
			c2.149-1.941,3.413-4.602,3.56-7.494l0.003-0.071c0.003-0.073,0.006-0.146,0.008-0.224c0.001-0.031,0.001-0.063,0.001-0.094
			l0.001-0.047c0.001-0.05,0.001-0.1,0.001-0.148C229.499,385.131,229.498,385.095,229.498,385.059z M217.989,388.902
			c0.103,0.008,0.207,0.014,0.313,0.014h0.734c0.126,0,0.251-0.007,0.375-0.019v0.435l-0.734,0.762l-0.687-0.669V388.902
			L217.989,388.902z M223.114,384.852c0.008-0.113,0.014-0.228,0.014-0.343v-0.531c0.01-0.003,0.019-0.006,0.028-0.009
			c0.099,0.103,0.162,0.254,0.162,0.422C223.318,384.581,223.237,384.75,223.114,384.852z M218.491,378.269h0.341
			c1.866,0,3.384,1.689,3.384,3.766v0.168c-0.999-0.27-1.351-1.784-1.354-1.797c-0.058-0.281-0.28-0.499-0.562-0.554
			c-0.283-0.054-0.569,0.066-0.727,0.306c-1.325,2.003-4.254,2.03-4.301,2.03c-0.001,0-0.002,0-0.003,0
			c-0.053,0-0.104,0.006-0.153,0.017c-0.003-0.001-0.006-0.002-0.01-0.002v-0.168C215.108,379.959,216.626,378.269,218.491,378.269z
			 M214.011,384.39c0-0.168,0.063-0.318,0.161-0.421c0.013,0.004,0.025,0.008,0.038,0.011v0.528c0,0.118,0.006,0.235,0.014,0.351
			C214.096,384.759,214.011,384.586,214.011,384.39z M215.631,384.508v-0.914c0.814-0.057,2.81-0.333,4.297-1.684
			c0.337,0.633,0.894,1.333,1.779,1.624v0.974c0,1.647-1.198,2.987-2.671,2.987h-0.734
			C216.829,387.495,215.631,386.155,215.631,384.508z M218.181,394.606c-1.987-0.101-3.801-0.815-5.268-1.949
			c0.001-0.003,0.003-0.005,0.004-0.008c0.403-1.005,1.298-1.334,1.33-1.346c0.011-0.004,0.022-0.008,0.033-0.012l2.56-1.003
			l1.356,1.321c0.133,0.129,0.311,0.202,0.496,0.202c0.004,0,0.008,0,0.011,0c0.189-0.003,0.369-0.081,0.5-0.218l1.28-1.329
			l2.554,1.024c0.013,0.005,0.019,0.008,0.032,0.012c0.04,0.014,0.936,0.345,1.338,1.354
			C222.691,393.981,220.512,394.724,218.181,394.606z"/>
		<path style="fill:#202121;" d="M205.97,380.319l-4.259-4.259c-0.278-0.277-0.727-0.277-1.005,0c-0.277,0.278-0.277,0.727,0,1.005
			l2.936,2.936h-12.792c-0.393,0-0.711,0.318-0.711,0.711v13.99c0,0.393,0.318,0.711,0.711,0.711c0.393,0,0.711-0.318,0.711-0.711
			v-13.279h12.3l-3.155,3.155c-0.277,0.278-0.277,0.727,0,1.005c0.139,0.139,0.321,0.208,0.503,0.208
			c0.182,0,0.364-0.069,0.503-0.208l4.259-4.259c0.133-0.133,0.208-0.314,0.208-0.503S206.103,380.453,205.97,380.319z"/>
		<path style="fill:#202121;" d="M223.147,398.265c-0.393,0-0.711,0.318-0.711,0.711v13.279h-12.3l3.155-3.155
			c0.277-0.278,0.277-0.727,0-1.005c-0.277-0.277-0.727-0.277-1.005,0l-4.259,4.259c-0.133,0.133-0.208,0.314-0.208,0.503
			s0.075,0.369,0.208,0.503l4.259,4.259c0.139,0.139,0.321,0.208,0.502,0.208c0.182,0,0.364-0.069,0.503-0.208
			c0.277-0.278,0.277-0.727,0-1.005l-2.936-2.936h12.791c0.393,0,0.711-0.318,0.711-0.711v-13.99
			C223.858,398.583,223.54,398.265,223.147,398.265z"/>
	</g>
	<path style="fill:#F7971D;" d="M205.468,408.735c-0.001-0.069-0.001-0.139-0.003-0.207c-0.001-0.038-0.003-0.077-0.004-0.115
		c-0.002-0.053-0.004-0.107-0.007-0.16c-0.002-0.041-0.005-0.082-0.008-0.123c-0.003-0.05-0.007-0.1-0.011-0.15
		c-0.003-0.042-0.007-0.084-0.011-0.125c-0.005-0.049-0.009-0.098-0.015-0.146c-0.004-0.042-0.009-0.083-0.014-0.124
		c-0.006-0.049-0.012-0.097-0.018-0.146c-0.005-0.041-0.011-0.081-0.017-0.122c-0.007-0.049-0.015-0.099-0.023-0.148
		c-0.006-0.039-0.013-0.078-0.02-0.117c-0.009-0.051-0.018-0.102-0.028-0.153c-0.007-0.037-0.014-0.073-0.021-0.11
		c-0.011-0.056-0.023-0.112-0.036-0.168c-0.007-0.031-0.013-0.062-0.02-0.092c-0.019-0.083-0.039-0.165-0.06-0.247
		c-0.001-0.003-0.002-0.007-0.003-0.01c-0.022-0.086-0.045-0.171-0.07-0.256c-0.008-0.027-0.016-0.053-0.024-0.079
		c-0.017-0.058-0.034-0.117-0.053-0.175c-0.01-0.031-0.02-0.061-0.03-0.092c-0.017-0.053-0.035-0.106-0.053-0.159
		c-0.011-0.032-0.022-0.064-0.034-0.096c-0.018-0.051-0.037-0.103-0.056-0.154c-0.012-0.032-0.024-0.063-0.036-0.095
		c-0.02-0.051-0.04-0.103-0.061-0.153c-0.012-0.03-0.025-0.061-0.037-0.091c-0.022-0.053-0.044-0.105-0.067-0.157
		c-0.012-0.028-0.024-0.055-0.036-0.083c-0.025-0.056-0.051-0.112-0.077-0.168c-0.008-0.017-0.016-0.035-0.024-0.052l-0.001-0.002
		c-0.433-0.911-0.998-1.748-1.671-2.484l-0.001-0.002c-0.023-0.025-0.047-0.05-0.07-0.075c-0.03-0.032-0.06-0.065-0.091-0.097
		c-0.028-0.029-0.057-0.058-0.085-0.087c-0.03-0.03-0.059-0.061-0.09-0.091c-0.03-0.029-0.059-0.058-0.089-0.087
		c-0.03-0.029-0.06-0.058-0.09-0.087c-0.03-0.029-0.061-0.057-0.092-0.086c-0.03-0.028-0.061-0.056-0.092-0.084
		c-0.031-0.028-0.063-0.056-0.095-0.084c-0.031-0.027-0.062-0.054-0.093-0.081c-0.032-0.028-0.064-0.055-0.097-0.082
		c-0.032-0.026-0.063-0.053-0.095-0.079c-0.033-0.027-0.066-0.053-0.099-0.08c-0.032-0.026-0.065-0.051-0.097-0.076
		c-0.034-0.026-0.067-0.052-0.101-0.077c-0.033-0.025-0.066-0.049-0.099-0.074c-0.034-0.025-0.068-0.05-0.103-0.075
		c-0.034-0.024-0.067-0.048-0.101-0.072c-0.035-0.024-0.069-0.049-0.104-0.072c-0.034-0.023-0.069-0.046-0.103-0.069
		c-0.035-0.023-0.071-0.047-0.106-0.07c-0.035-0.023-0.07-0.045-0.105-0.067c-0.036-0.022-0.072-0.045-0.108-0.067
		c-0.036-0.022-0.072-0.043-0.108-0.064c-0.036-0.022-0.072-0.043-0.109-0.064c-0.037-0.021-0.074-0.042-0.111-0.063
		c-0.036-0.02-0.072-0.041-0.108-0.061c-0.039-0.021-0.078-0.042-0.117-0.062c-0.035-0.019-0.07-0.038-0.106-0.056
		c-0.045-0.023-0.09-0.045-0.135-0.067c-0.051-0.025-0.102-0.05-0.153-0.074c-0.054-0.026-0.108-0.051-0.163-0.076
		c-0.034-0.015-0.069-0.03-0.103-0.045c-0.043-0.019-0.086-0.038-0.13-0.056c-0.036-0.015-0.073-0.03-0.11-0.045
		c-0.042-0.017-0.084-0.034-0.126-0.051c-0.038-0.015-0.075-0.029-0.113-0.043c-0.042-0.016-0.084-0.032-0.126-0.047
		c-0.038-0.014-0.077-0.027-0.115-0.041c-0.042-0.015-0.084-0.029-0.126-0.043c-0.039-0.013-0.078-0.026-0.117-0.038
		c-0.042-0.014-0.085-0.027-0.127-0.04c-0.039-0.012-0.079-0.024-0.119-0.035c-0.043-0.013-0.085-0.025-0.128-0.037
		c-0.04-0.011-0.08-0.022-0.12-0.032c-0.043-0.011-0.087-0.023-0.13-0.034c-0.04-0.01-0.08-0.02-0.12-0.029
		c-0.044-0.01-0.088-0.021-0.132-0.031c-0.04-0.009-0.08-0.018-0.121-0.026c-0.045-0.009-0.09-0.018-0.134-0.027
		c-0.04-0.008-0.081-0.016-0.121-0.023c-0.045-0.008-0.091-0.016-0.136-0.024c-0.04-0.007-0.081-0.014-0.121-0.02
		c-0.046-0.007-0.093-0.014-0.139-0.021c-0.04-0.006-0.08-0.012-0.12-0.017c-0.048-0.006-0.095-0.012-0.143-0.017
		c-0.04-0.005-0.079-0.009-0.119-0.014c-0.049-0.005-0.099-0.009-0.148-0.014c-0.038-0.003-0.077-0.007-0.115-0.01
		c-0.052-0.004-0.105-0.007-0.157-0.011c-0.036-0.002-0.072-0.005-0.108-0.007c-0.059-0.003-0.118-0.005-0.177-0.007
		c-0.03-0.001-0.061-0.003-0.091-0.003c-0.088-0.002-0.177-0.004-0.266-0.004c-0.001,0-0.002,0-0.003,0h0h0
		c-0.001,0-0.002,0-0.003,0c-0.089,0-0.178,0.001-0.266,0.004c-0.031,0.001-0.061,0.002-0.091,0.003
		c-0.059,0.002-0.118,0.004-0.177,0.007c-0.036,0.002-0.072,0.005-0.108,0.007c-0.053,0.003-0.105,0.006-0.157,0.011
		c-0.039,0.003-0.077,0.007-0.115,0.01c-0.049,0.005-0.099,0.009-0.148,0.014c-0.04,0.004-0.079,0.009-0.119,0.014
		c-0.048,0.006-0.096,0.011-0.143,0.017c-0.04,0.005-0.08,0.011-0.12,0.017c-0.047,0.007-0.093,0.013-0.139,0.021
		c-0.041,0.006-0.081,0.013-0.121,0.02c-0.045,0.008-0.091,0.016-0.136,0.024c-0.041,0.007-0.081,0.015-0.121,0.023
		c-0.045,0.009-0.09,0.018-0.134,0.027c-0.04,0.009-0.081,0.017-0.121,0.026c-0.044,0.01-0.088,0.02-0.132,0.031
		c-0.04,0.01-0.08,0.019-0.12,0.029c-0.044,0.011-0.087,0.022-0.13,0.034c-0.04,0.011-0.08,0.021-0.12,0.032
		c-0.043,0.012-0.086,0.024-0.128,0.037c-0.04,0.012-0.079,0.023-0.119,0.035c-0.042,0.013-0.085,0.027-0.127,0.04
		c-0.039,0.013-0.078,0.025-0.117,0.038c-0.042,0.014-0.084,0.029-0.126,0.043c-0.038,0.014-0.077,0.027-0.115,0.041
		c-0.042,0.015-0.084,0.031-0.126,0.047c-0.038,0.014-0.076,0.028-0.113,0.043c-0.042,0.017-0.084,0.034-0.126,0.051
		c-0.037,0.015-0.073,0.029-0.11,0.045c-0.043,0.018-0.087,0.038-0.13,0.056c-0.034,0.015-0.069,0.03-0.103,0.045
		c-0.055,0.025-0.109,0.05-0.163,0.076c-0.051,0.024-0.102,0.049-0.153,0.074c-0.045,0.022-0.09,0.044-0.135,0.067
		c-0.036,0.018-0.071,0.037-0.106,0.056c-0.039,0.021-0.078,0.041-0.117,0.062c-0.036,0.02-0.072,0.04-0.108,0.061
		c-0.037,0.021-0.074,0.041-0.111,0.063c-0.036,0.021-0.073,0.043-0.109,0.064c-0.036,0.021-0.072,0.043-0.108,0.064
		c-0.036,0.022-0.072,0.045-0.108,0.067c-0.035,0.022-0.07,0.044-0.105,0.067c-0.036,0.023-0.071,0.046-0.106,0.07
		c-0.034,0.023-0.069,0.046-0.103,0.069c-0.035,0.024-0.07,0.048-0.104,0.072c-0.034,0.024-0.068,0.047-0.101,0.072
		c-0.035,0.025-0.069,0.05-0.103,0.075c-0.033,0.024-0.066,0.049-0.099,0.074c-0.034,0.026-0.068,0.052-0.101,0.077
		c-0.033,0.025-0.065,0.051-0.097,0.076c-0.033,0.026-0.066,0.053-0.099,0.08c-0.032,0.026-0.064,0.052-0.095,0.079
		c-0.033,0.027-0.065,0.054-0.097,0.082c-0.031,0.027-0.062,0.054-0.093,0.081c-0.032,0.028-0.063,0.056-0.095,0.084
		c-0.031,0.028-0.061,0.056-0.092,0.084c-0.031,0.028-0.062,0.057-0.092,0.086c-0.03,0.029-0.06,0.058-0.09,0.087
		c-0.03,0.029-0.06,0.058-0.089,0.087c-0.03,0.03-0.06,0.061-0.09,0.091c-0.029,0.029-0.057,0.058-0.085,0.087
		c-0.031,0.032-0.061,0.065-0.091,0.097c-0.023,0.025-0.047,0.05-0.07,0.075l-0.001,0.002c-0.673,0.737-1.238,1.573-1.671,2.484
		l-0.001,0.002c-0.008,0.017-0.016,0.035-0.024,0.052c-0.026,0.056-0.052,0.112-0.077,0.168c-0.012,0.028-0.024,0.055-0.036,0.083
		c-0.023,0.052-0.045,0.105-0.067,0.157c-0.013,0.03-0.025,0.061-0.037,0.091c-0.021,0.051-0.041,0.102-0.061,0.153
		c-0.012,0.031-0.024,0.063-0.036,0.095c-0.019,0.051-0.038,0.103-0.056,0.154c-0.011,0.032-0.023,0.063-0.034,0.095
		c-0.018,0.053-0.036,0.106-0.053,0.16c-0.01,0.031-0.02,0.061-0.03,0.092c-0.018,0.058-0.036,0.116-0.053,0.175
		c-0.008,0.027-0.016,0.053-0.024,0.079c-0.024,0.085-0.048,0.17-0.07,0.256c-0.001,0.003-0.002,0.007-0.003,0.01
		c-0.021,0.082-0.041,0.164-0.06,0.247c-0.007,0.031-0.013,0.062-0.02,0.092c-0.012,0.056-0.024,0.112-0.036,0.168
		c-0.007,0.037-0.014,0.073-0.021,0.11c-0.01,0.051-0.019,0.102-0.028,0.153c-0.007,0.039-0.013,0.078-0.02,0.117
		c-0.008,0.049-0.016,0.098-0.023,0.148c-0.006,0.041-0.012,0.081-0.017,0.122c-0.007,0.049-0.013,0.097-0.019,0.146
		c-0.005,0.041-0.01,0.083-0.014,0.124c-0.005,0.049-0.01,0.098-0.014,0.147c-0.004,0.042-0.008,0.083-0.011,0.125
		c-0.004,0.05-0.007,0.1-0.01,0.15c-0.003,0.041-0.006,0.082-0.008,0.123c-0.003,0.053-0.005,0.107-0.007,0.16
		c-0.002,0.038-0.003,0.077-0.004,0.115c-0.002,0.069-0.002,0.138-0.003,0.207c0,0.022-0.001,0.044-0.001,0.065
		c0,5.594,4.535,10.129,10.129,10.129h0h0c5.594,0,10.129-4.535,10.129-10.129C205.468,408.778,205.468,408.757,205.468,408.735z"/>
	<path style="fill:#F37521;" d="M186.915,408.8c0-0.022,0.001-0.044,0.001-0.065c0-0.069,0.001-0.139,0.003-0.207
		c0.001-0.038,0.003-0.077,0.004-0.115c0.002-0.053,0.004-0.107,0.007-0.16c0.002-0.041,0.005-0.082,0.008-0.123
		c0.003-0.05,0.006-0.1,0.01-0.15c0.003-0.042,0.007-0.083,0.011-0.125c0.005-0.049,0.009-0.098,0.014-0.147
		c0.004-0.041,0.009-0.083,0.014-0.124c0.006-0.049,0.012-0.098,0.019-0.146c0.005-0.041,0.011-0.081,0.017-0.122
		c0.007-0.049,0.015-0.099,0.023-0.148c0.006-0.039,0.013-0.078,0.02-0.117c0.009-0.051,0.018-0.102,0.028-0.153
		c0.007-0.037,0.014-0.073,0.021-0.11c0.011-0.056,0.023-0.112,0.036-0.168c0.007-0.031,0.013-0.062,0.02-0.092
		c0.019-0.083,0.039-0.165,0.06-0.247c0.001-0.003,0.002-0.007,0.003-0.01c0.022-0.086,0.045-0.171,0.07-0.256
		c0.008-0.027,0.016-0.053,0.024-0.079c0.017-0.058,0.034-0.117,0.053-0.175c0.01-0.031,0.02-0.061,0.03-0.092
		c0.017-0.053,0.035-0.107,0.053-0.16c0.011-0.032,0.022-0.063,0.034-0.095c0.018-0.052,0.037-0.103,0.056-0.154
		c0.012-0.032,0.024-0.063,0.036-0.095c0.02-0.051,0.04-0.103,0.061-0.153c0.012-0.03,0.025-0.061,0.037-0.091
		c0.022-0.053,0.044-0.105,0.067-0.157c0.012-0.028,0.024-0.055,0.036-0.083c0.025-0.056,0.051-0.112,0.077-0.168
		c0.008-0.017,0.016-0.035,0.024-0.052l0.001-0.002c0.433-0.911,0.998-1.748,1.671-2.484l0.001-0.002
		c0.023-0.025,0.047-0.05,0.07-0.075c0.03-0.032,0.06-0.065,0.091-0.097c0.028-0.029,0.057-0.058,0.085-0.087
		c0.03-0.03,0.059-0.061,0.09-0.091c0.03-0.029,0.059-0.058,0.089-0.087c0.03-0.029,0.06-0.058,0.09-0.087
		c0.03-0.029,0.061-0.057,0.092-0.086c0.03-0.028,0.061-0.056,0.092-0.084c0.031-0.028,0.063-0.056,0.095-0.084
		c0.031-0.027,0.062-0.054,0.093-0.081c0.032-0.028,0.064-0.055,0.097-0.082c0.032-0.026,0.063-0.053,0.095-0.079
		c0.033-0.027,0.066-0.053,0.099-0.08c0.032-0.026,0.065-0.051,0.097-0.076c0.034-0.026,0.067-0.052,0.101-0.078
		c0.033-0.025,0.066-0.049,0.099-0.074c0.034-0.025,0.068-0.05,0.103-0.075c0.034-0.024,0.067-0.048,0.101-0.072
		c0.035-0.024,0.069-0.048,0.104-0.072c0.034-0.023,0.069-0.046,0.103-0.069c0.035-0.023,0.071-0.047,0.106-0.07
		c0.035-0.023,0.07-0.045,0.105-0.067c0.036-0.022,0.072-0.045,0.108-0.067c0.036-0.022,0.072-0.043,0.108-0.064
		c0.036-0.022,0.072-0.043,0.109-0.064c0.037-0.021,0.074-0.042,0.111-0.063c0.036-0.02,0.072-0.041,0.109-0.061
		c0.039-0.021,0.078-0.042,0.117-0.062c0.035-0.019,0.07-0.038,0.106-0.056c0.045-0.023,0.09-0.045,0.135-0.067
		c0.051-0.025,0.102-0.05,0.153-0.074c0.054-0.026,0.108-0.051,0.163-0.076c0.034-0.015,0.069-0.03,0.103-0.045
		c0.043-0.019,0.086-0.038,0.13-0.056c0.036-0.015,0.073-0.03,0.11-0.045c0.042-0.017,0.084-0.034,0.126-0.051
		c0.038-0.015,0.076-0.029,0.113-0.043c0.042-0.016,0.084-0.032,0.126-0.047c0.038-0.014,0.077-0.027,0.115-0.041
		c0.042-0.015,0.084-0.029,0.126-0.043c0.039-0.013,0.078-0.026,0.117-0.038c0.042-0.014,0.085-0.027,0.127-0.04
		c0.039-0.012,0.079-0.024,0.119-0.035c0.043-0.013,0.085-0.025,0.128-0.037c0.04-0.011,0.08-0.022,0.12-0.032
		c0.043-0.011,0.087-0.023,0.13-0.034c0.04-0.01,0.08-0.02,0.12-0.029c0.044-0.01,0.088-0.021,0.132-0.031
		c0.04-0.009,0.08-0.018,0.121-0.026c0.045-0.009,0.089-0.018,0.134-0.027c0.04-0.008,0.081-0.016,0.121-0.023
		c0.045-0.008,0.091-0.016,0.136-0.024c0.04-0.007,0.081-0.014,0.121-0.02c0.046-0.007,0.093-0.014,0.139-0.021
		c0.04-0.006,0.08-0.012,0.12-0.017c0.048-0.006,0.095-0.012,0.143-0.017c0.04-0.005,0.079-0.009,0.119-0.014
		c0.049-0.005,0.099-0.009,0.148-0.014c0.022-0.002,0.044-0.004,0.065-0.006c-0.017-0.001-0.033-0.003-0.05-0.004
		c-0.052-0.004-0.105-0.007-0.157-0.01c-0.036-0.002-0.072-0.005-0.108-0.007c-0.059-0.003-0.118-0.005-0.177-0.007
		c-0.03-0.001-0.061-0.003-0.091-0.003c-0.088-0.002-0.177-0.004-0.266-0.004c-0.001,0-0.002,0-0.003,0h0l0,0
		c-0.001,0-0.002,0-0.003,0c-0.089,0-0.178,0.001-0.266,0.004c-0.031,0.001-0.061,0.002-0.091,0.003
		c-0.059,0.002-0.118,0.004-0.177,0.007c-0.036,0.002-0.072,0.005-0.108,0.007c-0.053,0.003-0.105,0.006-0.157,0.01
		c-0.039,0.003-0.077,0.007-0.115,0.01c-0.049,0.005-0.099,0.009-0.148,0.014c-0.04,0.004-0.079,0.009-0.119,0.014
		c-0.048,0.006-0.096,0.011-0.143,0.017c-0.04,0.005-0.08,0.011-0.12,0.017c-0.047,0.007-0.093,0.013-0.139,0.021
		c-0.041,0.006-0.081,0.013-0.121,0.02c-0.045,0.008-0.091,0.016-0.136,0.024c-0.041,0.007-0.081,0.015-0.121,0.023
		c-0.045,0.009-0.09,0.018-0.134,0.027c-0.04,0.009-0.081,0.017-0.121,0.026c-0.044,0.01-0.088,0.02-0.132,0.031
		c-0.04,0.01-0.08,0.019-0.12,0.029c-0.044,0.011-0.087,0.022-0.13,0.034c-0.04,0.011-0.08,0.021-0.12,0.032
		c-0.043,0.012-0.086,0.024-0.128,0.037c-0.04,0.012-0.079,0.023-0.119,0.035c-0.042,0.013-0.085,0.027-0.127,0.04
		c-0.039,0.013-0.078,0.025-0.117,0.038c-0.042,0.014-0.084,0.029-0.126,0.043c-0.038,0.014-0.077,0.027-0.115,0.041
		c-0.042,0.015-0.084,0.031-0.126,0.047c-0.038,0.014-0.076,0.028-0.113,0.043c-0.042,0.017-0.084,0.034-0.126,0.051
		c-0.037,0.015-0.073,0.029-0.11,0.045c-0.043,0.018-0.087,0.038-0.13,0.056c-0.034,0.015-0.069,0.03-0.103,0.045
		c-0.055,0.025-0.109,0.05-0.163,0.076c-0.051,0.024-0.102,0.049-0.153,0.074c-0.045,0.022-0.09,0.044-0.135,0.067
		c-0.036,0.018-0.071,0.037-0.106,0.056c-0.039,0.021-0.078,0.041-0.117,0.062c-0.036,0.02-0.072,0.04-0.108,0.061
		c-0.037,0.021-0.074,0.041-0.111,0.063c-0.036,0.021-0.073,0.043-0.109,0.064c-0.036,0.021-0.072,0.043-0.108,0.064
		c-0.036,0.022-0.072,0.045-0.108,0.067c-0.035,0.022-0.07,0.044-0.105,0.067c-0.036,0.023-0.071,0.046-0.106,0.07
		c-0.034,0.023-0.069,0.046-0.103,0.069c-0.035,0.024-0.07,0.048-0.104,0.072c-0.034,0.024-0.068,0.047-0.101,0.072
		c-0.035,0.025-0.069,0.05-0.103,0.075c-0.033,0.024-0.066,0.049-0.099,0.074c-0.034,0.026-0.068,0.052-0.101,0.078
		c-0.033,0.025-0.065,0.051-0.097,0.076c-0.033,0.026-0.066,0.053-0.099,0.08c-0.032,0.026-0.064,0.052-0.095,0.079
		c-0.033,0.027-0.065,0.054-0.097,0.082c-0.031,0.027-0.062,0.054-0.093,0.081c-0.032,0.028-0.063,0.056-0.095,0.084
		c-0.031,0.028-0.061,0.056-0.092,0.084c-0.031,0.028-0.062,0.057-0.092,0.086c-0.03,0.029-0.06,0.058-0.09,0.087
		c-0.03,0.029-0.06,0.058-0.089,0.087c-0.03,0.03-0.06,0.061-0.09,0.091c-0.029,0.029-0.057,0.058-0.085,0.087
		c-0.031,0.032-0.061,0.065-0.091,0.097c-0.023,0.025-0.047,0.05-0.07,0.075l-0.001,0.002c-0.673,0.737-1.238,1.573-1.671,2.484
		l-0.001,0.002c-0.008,0.017-0.016,0.035-0.024,0.052c-0.026,0.056-0.052,0.112-0.077,0.168c-0.012,0.028-0.024,0.055-0.036,0.083
		c-0.023,0.052-0.045,0.105-0.067,0.157c-0.013,0.03-0.025,0.061-0.037,0.091c-0.021,0.051-0.041,0.102-0.061,0.153
		c-0.012,0.031-0.024,0.063-0.036,0.095c-0.019,0.051-0.038,0.103-0.056,0.154c-0.011,0.032-0.023,0.063-0.034,0.095
		c-0.018,0.053-0.036,0.106-0.053,0.16c-0.01,0.031-0.02,0.061-0.03,0.092c-0.018,0.058-0.036,0.116-0.053,0.175
		c-0.008,0.027-0.016,0.053-0.024,0.079c-0.024,0.085-0.048,0.17-0.07,0.256c-0.001,0.003-0.002,0.007-0.003,0.01
		c-0.021,0.082-0.041,0.164-0.06,0.247c-0.007,0.031-0.013,0.062-0.02,0.092c-0.012,0.056-0.024,0.112-0.036,0.168
		c-0.007,0.037-0.014,0.073-0.021,0.11c-0.01,0.051-0.019,0.102-0.028,0.153c-0.007,0.039-0.013,0.078-0.02,0.117
		c-0.008,0.049-0.016,0.098-0.023,0.148c-0.006,0.041-0.012,0.081-0.017,0.122c-0.007,0.049-0.013,0.098-0.019,0.146
		c-0.005,0.041-0.01,0.083-0.014,0.124c-0.005,0.049-0.01,0.098-0.014,0.147c-0.004,0.042-0.008,0.083-0.011,0.125
		c-0.004,0.05-0.007,0.1-0.01,0.15c-0.003,0.041-0.006,0.082-0.008,0.123c-0.003,0.053-0.005,0.107-0.007,0.16
		c-0.002,0.038-0.003,0.077-0.004,0.115c-0.002,0.069-0.002,0.138-0.003,0.207c0,0.022-0.001,0.044-0.001,0.065
		c0,5.594,4.535,10.129,10.129,10.129h0h0c0.287,0,0.571-0.013,0.853-0.036C190.997,418.46,186.915,414.107,186.915,408.8z"/>
	<path style="fill:#694B4B;" d="M195.562,401.48h-0.382c-2.233,0-4.05,1.817-4.05,4.05v1.245l0.354-0.12
		c0.057-0.019,0.114-0.029,0.174-0.029c0.034,0,3.404-0.024,4.929-2.133c0.122-0.168,0.337-0.252,0.542-0.211
		c0.206,0.042,0.369,0.202,0.416,0.411c0.016,0.068,0.417,1.659,1.679,1.946c0.014,0.003,0.028,0.008,0.041,0.012l0.348,0.109
		v-1.231C199.612,403.297,197.795,401.48,195.562,401.48z"/>
	<g>
		<path style="fill:#FBCB99;" d="M195.779,412.265h-0.802c-0.095,0-0.195-0.004-0.316-0.013l-0.246-0.018v0.899l0.945,0.921
			l0.981-1.018v-0.802l-0.246,0.019C195.975,412.26,195.875,412.265,195.779,412.265z"/>
		<path style="fill:#FBCB99;" d="M200.405,406.988h-1.386v-0.501l-0.305,0.108c-0.081,0.029-0.168,0.034-0.253,0.014
			c-0.706-0.161-1.28-0.611-1.705-1.339l-0.136-0.234l-0.208,0.173c-1.674,1.395-4.096,1.411-4.198,1.411l-0.02,0
			c-0.05,0-0.101-0.009-0.15-0.027l-0.305-0.107v0.501H190.3v1.659h1.483c0.257,1.531,1.591,2.701,3.194,2.701h0.802
			c1.603,0,2.937-1.171,3.194-2.701h1.431L200.405,406.988L200.405,406.988z"/>
	</g>
	<path style="fill:#6598CB;" d="M201.292,416.093c-0.456-1.06-1.418-1.414-1.464-1.43c-0.007-0.002-0.01-0.004-0.018-0.007
		l-2.711-1.087l-1.398,1.451c-0.084,0.087-0.202,0.138-0.33,0.14c-0.12,0-0.234-0.046-0.32-0.13l-1.473-1.435l-2.713,1.062
		c-0.006,0.002-0.012,0.005-0.025,0.009c-0.04,0.014-0.996,0.369-1.451,1.428l-0.069,0.159l0.134,0.109
		c1.659,1.35,3.749,2.093,5.885,2.093c2.137,0,4.227-0.744,5.886-2.094l0.134-0.109L201.292,416.093z"/>
	<path style="fill:#563B3B;" d="M192.416,405.53c0-2.08,1.577-3.799,3.598-4.024c-0.148-0.016-0.299-0.026-0.452-0.026h-0.382
		c-2.233,0-4.05,1.817-4.05,4.05v1.245l0.354-0.12c0.057-0.019,0.114-0.029,0.174-0.029c0.01,0,0.307-0.002,0.758-0.058V405.53z"/>
	<g>
		<path style="fill:#EDBA89;" d="M196.077,412.265h0.265v-0.032l-0.246,0.019c-0.06,0.005-0.115,0.008-0.167,0.01
			C195.98,412.263,196.029,412.265,196.077,412.265z"/>
		<path style="fill:#EDBA89;" d="M195.515,413.132v-0.867h-0.538c-0.095,0-0.195-0.004-0.316-0.013l-0.246-0.018v0.899l0.945,0.921
			l0.532-0.552L195.515,413.132z"/>
		<path style="fill:#EDBA89;" d="M193.148,406.96c0.052,0.018,0.105,0.028,0.158,0.028l0.021,0c0.097,0,2.156-0.014,3.851-1.076
			c-0.08-0.108-0.156-0.222-0.228-0.345l-0.144-0.246l-0.219,0.182c-1.147,0.956-2.627,1.297-3.551,1.418L193.148,406.96z"/>
		<path style="fill:#EDBA89;" d="M192.837,408.109v-1.161c-0.359,0.038-0.594,0.04-0.625,0.04l-0.02,0
			c-0.05,0-0.101-0.009-0.15-0.027l-0.305-0.107v1.255c0,1.786,1.453,3.24,3.24,3.24h0.802c0.05,0,0.099-0.002,0.149-0.004
			C194.21,411.267,192.837,409.845,192.837,408.109z"/>
	</g>
	<path style="fill:#4982AA;" d="M190.555,416.362l-0.134-0.109l0.068-0.159c0.456-1.059,1.411-1.413,1.451-1.428
		c0.012-0.004,0.019-0.006,0.025-0.009l1.928-0.755l-0.315-0.307l-2.713,1.062c-0.006,0.002-0.012,0.005-0.025,0.009
		c-0.04,0.014-0.996,0.369-1.451,1.428l-0.069,0.159l0.134,0.109c1.659,1.35,3.749,2.093,5.885,2.093
		c0.184,0,0.367-0.007,0.55-0.018C193.948,418.321,192.071,417.596,190.555,416.362z"/>
	<path style="fill:#202121;" d="M196.668,398.042c-5.933-0.732-11.354,3.497-12.087,9.432l-0.007,0.067
		c-0.008,0.073-0.017,0.145-0.024,0.223c-0.003,0.031-0.005,0.063-0.008,0.094l-0.004,0.049c-0.004,0.049-0.008,0.098-0.012,0.145
		c-0.003,0.038-0.005,0.077-0.007,0.115l-0.001,0.016c-0.003,0.054-0.006,0.108-0.009,0.164l-0.005,0.155
		c-0.001,0.046-0.002,0.091-0.003,0.137c-0.001,0.044-0.001,0.089-0.001,0.131c0,0.053,0,0.106,0,0.16
		c0.001,0.044,0.001,0.088,0.002,0.133c0.001,0.053,0.003,0.105,0.005,0.158c0.002,0.042,0.003,0.084,0.005,0.128
		c0.003,0.056,0.006,0.111,0.01,0.166l0.002,0.028c0.002,0.031,0.004,0.062,0.006,0.091c0.005,0.061,0.01,0.121,0.016,0.183
		l0.009,0.102c0.009,0.09,0.02,0.18,0.031,0.27c0,0.004,0.001,0.008,0.002,0.012c0.012,0.094,0.026,0.188,0.041,0.283l0.014,0.086
		c0.011,0.065,0.021,0.13,0.033,0.192c0.005,0.028,0.01,0.055,0.016,0.083l0.004,0.019c0.011,0.06,0.023,0.119,0.035,0.175
		c0.008,0.037,0.016,0.074,0.023,0.107c0.013,0.058,0.026,0.116,0.039,0.17l0.026,0.106c0.014,0.057,0.029,0.114,0.044,0.172
		c0.009,0.035,0.019,0.071,0.027,0.1c0.016,0.059,0.033,0.118,0.052,0.181l0.027,0.09c0.019,0.062,0.039,0.124,0.06,0.191
		l0.017,0.054c0.002,0.008,0.005,0.016,0.008,0.023c0.135,0.405,0.297,0.807,0.48,1.194c0.168,0.355,0.591,0.506,0.946,0.339
		c0.355-0.168,0.506-0.591,0.339-0.946c-0.162-0.342-0.304-0.696-0.422-1.054c-0.002-0.005-0.004-0.011-0.006-0.016l-0.011-0.035
		c-0.018-0.055-0.036-0.11-0.052-0.164l-0.024-0.081c-0.015-0.051-0.03-0.101-0.045-0.158c-0.008-0.028-0.015-0.056-0.023-0.083
		c-0.013-0.049-0.026-0.099-0.038-0.146l-0.023-0.097c-0.012-0.049-0.023-0.097-0.034-0.15c-0.007-0.029-0.013-0.058-0.02-0.09
		c-0.011-0.05-0.021-0.101-0.031-0.153l-0.017-0.089c-0.01-0.055-0.019-0.11-0.029-0.168l-0.012-0.073
		c-0.012-0.08-0.024-0.161-0.035-0.242c0-0.004-0.001-0.008-0.002-0.012c-0.01-0.078-0.019-0.156-0.027-0.234l-0.009-0.094
		c-0.005-0.051-0.01-0.102-0.014-0.155c-0.002-0.024-0.003-0.048-0.005-0.072l-0.002-0.031c-0.003-0.048-0.006-0.097-0.009-0.143
		c-0.002-0.037-0.003-0.075-0.005-0.112c-0.002-0.047-0.003-0.094-0.004-0.139c-0.001-0.038-0.001-0.077-0.002-0.114
		c0-0.045-0.001-0.09,0-0.137c0-0.039,0-0.078,0.001-0.118c0.001-0.04,0.002-0.081,0.003-0.121l0.004-0.131
		c0.002-0.046,0.005-0.092,0.008-0.143l0.001-0.022c0.002-0.03,0.003-0.059,0.005-0.09c0.003-0.041,0.006-0.083,0.01-0.124
		l0.011-0.129c0.006-0.065,0.014-0.13,0.021-0.193l0.007-0.062c0.637-5.154,5.348-8.829,10.502-8.192
		c5.154,0.637,8.829,5.348,8.192,10.505l-0.008,0.056c-0.009,0.064-0.017,0.129-0.027,0.194c-0.003,0.023-0.007,0.045-0.011,0.067
		l-0.011,0.067c-0.006,0.039-0.013,0.079-0.02,0.117c-0.005,0.029-0.011,0.058-0.017,0.087l-0.005,0.027
		c-0.009,0.046-0.017,0.091-0.026,0.134l-0.025,0.115c-0.01,0.045-0.02,0.089-0.03,0.135c-0.009,0.037-0.018,0.074-0.027,0.113
		c-0.011,0.045-0.023,0.09-0.033,0.132c-0.01,0.037-0.02,0.074-0.03,0.111c-0.012,0.045-0.025,0.089-0.038,0.133l-0.008,0.026
		c-0.008,0.027-0.016,0.054-0.024,0.082c-0.013,0.042-0.026,0.083-0.039,0.125l-0.036,0.111c-0.017,0.05-0.034,0.1-0.052,0.149
		l-0.029,0.083c-0.027,0.075-0.055,0.149-0.082,0.218l-0.003,0.007c-0.001,0.002-0.002,0.004-0.003,0.006
		c-0.03,0.077-0.061,0.152-0.092,0.225l-0.032,0.073c-0.022,0.051-0.045,0.103-0.069,0.156c-0.012,0.026-0.024,0.052-0.038,0.081
		c-0.022,0.047-0.044,0.094-0.067,0.14c-0.014,0.028-0.027,0.055-0.043,0.085c-0.022,0.045-0.045,0.09-0.071,0.14
		c-0.011,0.021-0.022,0.041-0.033,0.062l-0.009,0.017c-0.024,0.045-0.049,0.09-0.073,0.134c-0.014,0.026-0.029,0.052-0.045,0.081
		c-0.026,0.046-0.053,0.092-0.078,0.135l-0.044,0.075c-0.029,0.049-0.059,0.097-0.09,0.146l-0.02,0.033
		c-0.003,0.004-0.005,0.008-0.008,0.012c-0.322,0.507-0.693,0.98-1.105,1.416c-0.668-1.186-1.76-1.63-1.952-1.7l-2.724-1.092v-0.405
		c0.84-0.444,1.518-1.189,1.914-2.103c0.033,0.005,0.065,0.008,0.099,0.008c1.045,0,1.894-0.89,1.894-1.983
		c0-0.797-0.453-1.484-1.102-1.799v-0.556c0-2.86-2.155-5.187-4.805-5.187h-0.341c-2.649,0-4.805,2.327-4.805,5.187v0.559
		c-0.647,0.316-1.097,1.001-1.097,1.796c0,1.093,0.85,1.983,1.894,1.983c0.037,0,0.072-0.004,0.107-0.009
		c0.406,0.937,1.108,1.696,1.976,2.136v0.37l-2.797,1.095c-0.182,0.066-1.284,0.51-1.955,1.704
		c-0.012-0.013-0.025-0.026-0.037-0.039c-0.027-0.029-0.053-0.057-0.079-0.086c-0.026-0.029-0.052-0.057-0.076-0.085l-0.08-0.091
		c-0.025-0.029-0.049-0.057-0.075-0.088c-0.025-0.03-0.051-0.06-0.073-0.087l-0.075-0.093c-0.246-0.306-0.693-0.354-0.999-0.108
		c-0.306,0.246-0.354,0.693-0.108,0.999l0.017,0.021c0.022,0.027,0.044,0.055,0.068,0.084c0.028,0.034,0.057,0.068,0.085,0.101
		c0.029,0.035,0.058,0.069,0.087,0.102c0.022,0.026,0.045,0.052,0.068,0.077l0.022,0.024c0.029,0.033,0.058,0.066,0.088,0.098
		c0.031,0.034,0.062,0.067,0.092,0.1c0.03,0.032,0.06,0.065,0.091,0.097c0.031,0.033,0.063,0.065,0.101,0.104
		c0.03,0.03,0.059,0.06,0.086,0.087c0.032,0.032,0.065,0.064,0.097,0.096c0.031,0.03,0.063,0.06,0.094,0.09
		c0.034,0.032,0.068,0.064,0.101,0.094c0.032,0.03,0.065,0.059,0.099,0.091l0.012,0.011c0.029,0.026,0.058,0.052,0.086,0.077
		c0.029,0.026,0.058,0.051,0.087,0.076l0.014,0.012c0.035,0.03,0.07,0.06,0.104,0.088c0.029,0.024,0.058,0.048,0.087,0.071
		l0.02,0.016c0.034,0.028,0.068,0.056,0.102,0.083c0.036,0.028,0.072,0.056,0.105,0.082l0.018,0.014
		c0.03,0.023,0.06,0.047,0.09,0.07c0.027,0.02,0.054,0.04,0.081,0.06l0.047,0.035c0.03,0.022,0.059,0.044,0.088,0.065
		c0.033,0.023,0.066,0.046,0.099,0.069l0.042,0.03c0.027,0.019,0.053,0.038,0.08,0.056c0.038,0.026,0.077,0.052,0.116,0.077
		l0.019,0.013c0.051,0.034,0.102,0.067,0.151,0.098c0.054,0.035,0.109,0.069,0.164,0.103c0.026,0.016,0.051,0.031,0.077,0.046
		l0.056,0.033c0.034,0.02,0.068,0.041,0.1,0.059c0.026,0.015,0.051,0.029,0.077,0.043l0.051,0.028
		c0.037,0.021,0.074,0.042,0.111,0.061c0.027,0.015,0.054,0.029,0.081,0.043l0.033,0.018c0.042,0.022,0.085,0.045,0.129,0.067
		c0.031,0.016,0.061,0.031,0.092,0.046l0.054,0.027c0.033,0.016,0.065,0.032,0.1,0.049c0.039,0.019,0.079,0.037,0.118,0.055
		c0.043,0.02,0.086,0.04,0.13,0.059c0.04,0.018,0.081,0.036,0.123,0.054c0.043,0.018,0.085,0.037,0.132,0.056
		c0.041,0.017,0.081,0.033,0.121,0.049c0.045,0.018,0.09,0.036,0.136,0.054c0.041,0.016,0.082,0.031,0.122,0.046
		c0.045,0.017,0.091,0.034,0.138,0.051l0.125,0.044c0.046,0.016,0.092,0.031,0.138,0.046c0.042,0.014,0.083,0.027,0.126,0.041
		c0.046,0.014,0.092,0.029,0.142,0.043c0.042,0.012,0.083,0.025,0.125,0.037c0.048,0.014,0.097,0.027,0.146,0.041l0.025,0.007
		c0.033,0.009,0.066,0.018,0.099,0.026c0.048,0.013,0.097,0.024,0.15,0.037l0.018,0.004c0.035,0.009,0.07,0.017,0.107,0.026
		c0.042,0.01,0.083,0.019,0.125,0.028l0.063,0.014c0.029,0.006,0.058,0.013,0.089,0.019c0.048,0.01,0.095,0.019,0.143,0.028
		l0.137,0.026c0.05,0.009,0.1,0.017,0.151,0.025l0.068,0.011c0.021,0.003,0.042,0.007,0.063,0.01c0.09,0.013,0.179,0.026,0.27,0.037
		c0,0,0.001,0,0.002,0c0.01,0.001,0.02,0.003,0.03,0.004c0.09,0.011,0.18,0.021,0.267,0.029c0.022,0.002,0.044,0.004,0.066,0.006
		l0.061,0.005c0.054,0.005,0.108,0.009,0.162,0.013c0.025,0.002,0.051,0.003,0.076,0.005l0.065,0.004
		c0.047,0.003,0.094,0.006,0.143,0.008c0.029,0.001,0.058,0.002,0.086,0.003l0.074,0.002c0.041,0.001,0.082,0.003,0.122,0.003
		c0.038,0.001,0.076,0.001,0.115,0.001l0.011,0c0.035,0,0.07,0.001,0.105,0.001c0.017,0,0.034,0,0.051,0
		c0.038,0,0.075-0.001,0.113-0.002l0.018,0c0.05-0.001,0.101-0.002,0.149-0.004c0.039-0.001,0.079-0.003,0.118-0.005l0.015-0.001
		c0.049-0.002,0.099-0.005,0.143-0.007c0.04-0.002,0.08-0.005,0.12-0.008l0.016-0.001c0.049-0.004,0.098-0.007,0.147-0.011
		c0.044-0.004,0.088-0.008,0.13-0.012c0.049-0.005,0.097-0.01,0.148-0.015l0.129-0.015c0.048-0.006,0.096-0.012,0.145-0.019
		c0.044-0.006,0.088-0.012,0.131-0.019c0.048-0.007,0.095-0.015,0.14-0.022c0.045-0.007,0.089-0.014,0.134-0.022
		c0.047-0.008,0.094-0.017,0.138-0.026c0.044-0.008,0.088-0.017,0.131-0.025c0.045-0.009,0.089-0.019,0.142-0.03l0.034-0.007
		c0.031-0.007,0.062-0.013,0.093-0.021c0.036-0.008,0.073-0.017,0.109-0.026l0.07-0.017c0.029-0.007,0.057-0.014,0.086-0.021
		c0.037-0.009,0.074-0.019,0.11-0.029l0.049-0.013c0.035-0.009,0.07-0.019,0.104-0.028c0.038-0.011,0.075-0.022,0.113-0.033
		l0.063-0.019c0.028-0.008,0.056-0.016,0.084-0.025c0.061-0.019,0.122-0.039,0.183-0.059c0.057-0.019,0.115-0.039,0.172-0.059
		l0.02-0.007c0.045-0.015,0.089-0.031,0.132-0.047c0.031-0.011,0.061-0.023,0.092-0.035l0.043-0.016
		c0.04-0.015,0.08-0.03,0.118-0.045c0.031-0.012,0.063-0.025,0.094-0.038l0.062-0.025c0.031-0.013,0.061-0.025,0.095-0.039
		c0.034-0.014,0.067-0.029,0.101-0.044l0.147-0.065c0.035-0.016,0.069-0.032,0.104-0.048l0.04-0.019
		c0.033-0.015,0.066-0.031,0.098-0.047c0.041-0.02,0.082-0.04,0.127-0.063c0.038-0.019,0.077-0.038,0.113-0.057
		c0.04-0.021,0.081-0.042,0.121-0.063c0.039-0.021,0.078-0.041,0.117-0.063c0.04-0.022,0.079-0.044,0.119-0.066
		c0.038-0.021,0.075-0.042,0.115-0.065c0.039-0.022,0.078-0.045,0.116-0.068c0.038-0.022,0.075-0.045,0.115-0.069
		c0.038-0.023,0.076-0.047,0.115-0.071c0.038-0.024,0.075-0.048,0.11-0.07c0.038-0.025,0.076-0.049,0.115-0.075
		c0.036-0.024,0.073-0.049,0.111-0.075l0.022-0.015c0.03-0.02,0.06-0.041,0.087-0.06c0.038-0.026,0.075-0.053,0.109-0.078
		l0.014-0.01c0.032-0.023,0.065-0.046,0.094-0.069c0.037-0.027,0.074-0.055,0.109-0.082l0.031-0.023
		c0.024-0.019,0.049-0.037,0.075-0.057c0.031-0.024,0.062-0.049,0.093-0.074l0.036-0.029c0.027-0.021,0.054-0.043,0.079-0.064
		c0.029-0.023,0.057-0.047,0.086-0.071l0.043-0.036c0.022-0.018,0.043-0.036,0.065-0.054c0.005-0.004,0.01-0.009,0.015-0.013
		c0.806-0.692,1.505-1.497,2.076-2.391c0.004-0.006,0.008-0.012,0.012-0.018c0.009-0.014,0.017-0.027,0.025-0.041l0.007-0.012
		c0.035-0.056,0.07-0.113,0.103-0.166l0.051-0.086c0.031-0.053,0.062-0.105,0.091-0.156c0.018-0.031,0.035-0.062,0.052-0.093
		c0.029-0.051,0.057-0.103,0.085-0.156l0.009-0.017c0.014-0.027,0.029-0.054,0.04-0.076c0.027-0.052,0.054-0.105,0.079-0.155
		c0.016-0.033,0.033-0.065,0.049-0.098c0.026-0.054,0.052-0.109,0.077-0.161c0.015-0.032,0.03-0.064,0.044-0.095
		c0.027-0.06,0.054-0.12,0.079-0.178l0.037-0.084c0.036-0.085,0.071-0.171,0.106-0.258c0.002-0.006,0.004-0.011,0.006-0.015
		c0.033-0.084,0.065-0.168,0.097-0.258l0.032-0.092c0.021-0.058,0.041-0.116,0.06-0.174c0.009-0.027,0.018-0.053,0.026-0.08
		l0.016-0.049c0.015-0.048,0.031-0.097,0.045-0.143c0.01-0.032,0.019-0.064,0.029-0.097l0.008-0.026
		c0.015-0.051,0.03-0.103,0.044-0.154c0.012-0.042,0.023-0.085,0.035-0.13c0.013-0.05,0.026-0.101,0.038-0.15
		c0.011-0.044,0.022-0.087,0.031-0.13c0.012-0.051,0.023-0.103,0.035-0.155l0.006-0.027c0.007-0.034,0.015-0.068,0.023-0.105
		c0.011-0.053,0.021-0.106,0.03-0.155l0.004-0.022c0.007-0.036,0.014-0.072,0.021-0.11c0.008-0.045,0.016-0.091,0.023-0.137
		l0.01-0.061c0.005-0.031,0.01-0.061,0.014-0.091c0.011-0.072,0.021-0.146,0.031-0.221l0.002-0.018
		c0.002-0.018,0.005-0.035,0.007-0.05C206.829,404.197,202.6,398.775,196.668,398.042z M199.807,408.109v-0.531
		c0.01-0.003,0.019-0.006,0.028-0.009c0.099,0.103,0.162,0.254,0.162,0.422c0,0.191-0.081,0.36-0.204,0.461
		C199.801,408.339,199.807,408.224,199.807,408.109z M190.69,407.991c0-0.168,0.062-0.318,0.161-0.421
		c0.013,0.004,0.025,0.008,0.038,0.011v0.528c0,0.118,0.006,0.235,0.014,0.351C190.775,408.359,190.69,408.186,190.69,407.991z
		 M191.952,405.789c-0.001,0-0.002,0-0.003,0c-0.053,0-0.104,0.006-0.153,0.017c-0.003-0.001-0.006-0.002-0.01-0.002v-0.168
		c0-2.077,1.518-3.766,3.384-3.766h0.341c1.866,0,3.384,1.689,3.384,3.766v0.168c-0.999-0.27-1.351-1.784-1.354-1.797
		c-0.058-0.281-0.28-0.499-0.562-0.554c-0.282-0.054-0.569,0.066-0.727,0.306C194.927,405.762,191.999,405.789,191.952,405.789z
		 M192.31,408.109v-0.914c0.814-0.058,2.811-0.333,4.297-1.684c0.337,0.633,0.894,1.333,1.779,1.624v0.974
		c0,1.647-1.198,2.987-2.671,2.987h-0.734C193.508,411.096,192.31,409.756,192.31,408.109z M196.089,412.498v0.435l-0.734,0.762
		l-0.687-0.669v-0.522c0.103,0.008,0.207,0.014,0.313,0.014h0.734C195.841,412.517,195.966,412.51,196.089,412.498z
		 M200.927,416.381c-0.026,0.019-0.052,0.038-0.078,0.057l-0.018,0.013c-0.03,0.022-0.06,0.043-0.092,0.066
		c-0.025,0.018-0.05,0.035-0.075,0.052l-0.02,0.014c-0.032,0.022-0.064,0.044-0.095,0.064c-0.033,0.022-0.066,0.043-0.101,0.066
		c-0.032,0.021-0.063,0.041-0.095,0.061c-0.034,0.021-0.068,0.042-0.1,0.062c-0.033,0.02-0.065,0.04-0.099,0.06
		c-0.034,0.02-0.069,0.041-0.101,0.059c-0.034,0.02-0.068,0.039-0.101,0.058c-0.035,0.02-0.069,0.039-0.103,0.057
		c-0.034,0.018-0.068,0.037-0.102,0.055c-0.035,0.018-0.069,0.037-0.106,0.056c-0.031,0.016-0.063,0.032-0.094,0.048
		c-0.001,0-0.008,0.004-0.009,0.004c-0.035,0.018-0.07,0.035-0.104,0.052c-0.027,0.013-0.054,0.026-0.082,0.039l-0.04,0.019
		c-0.03,0.014-0.061,0.029-0.088,0.041l-0.133,0.059c-0.028,0.012-0.056,0.025-0.081,0.035l-0.144,0.059
		c-0.025,0.01-0.05,0.02-0.076,0.031c-0.032,0.013-0.063,0.025-0.095,0.036l-0.053,0.02c-0.023,0.009-0.046,0.018-0.071,0.027
		c-0.037,0.013-0.073,0.026-0.11,0.039l-0.021,0.007c-0.05,0.017-0.1,0.035-0.149,0.051c-0.053,0.018-0.106,0.035-0.159,0.052
		c-0.021,0.006-0.042,0.013-0.063,0.019l-0.071,0.021c-0.031,0.009-0.061,0.018-0.093,0.028c-0.027,0.008-0.054,0.015-0.081,0.022
		l-0.058,0.016c-0.029,0.008-0.059,0.016-0.089,0.024c-0.022,0.006-0.044,0.011-0.067,0.016l-0.073,0.018
		c-0.03,0.007-0.061,0.015-0.091,0.022l-0.118,0.026c-0.038,0.008-0.076,0.016-0.114,0.024c-0.037,0.008-0.074,0.015-0.115,0.022
		c-0.04,0.008-0.08,0.015-0.121,0.022c-0.037,0.007-0.074,0.013-0.114,0.019c-0.04,0.007-0.081,0.013-0.123,0.02
		c-0.038,0.006-0.076,0.011-0.113,0.016c-0.041,0.006-0.082,0.011-0.122,0.016l-0.116,0.014c-0.042,0.005-0.083,0.009-0.126,0.013
		c-0.038,0.004-0.076,0.007-0.115,0.011c-0.042,0.004-0.084,0.007-0.125,0.01l-0.015,0.001c-0.032,0.002-0.064,0.005-0.101,0.007
		c-0.043,0.003-0.085,0.005-0.127,0.007l-0.015,0.001c-0.033,0.001-0.066,0.003-0.1,0.004c-0.044,0.002-0.087,0.002-0.13,0.003
		l-0.017,0c-0.032,0.001-0.064,0.001-0.097,0.001c-0.044,0-0.088,0-0.135,0l-0.015,0c-0.031,0-0.063,0-0.096-0.001
		c-0.033-0.001-0.066-0.002-0.099-0.003l-0.145-0.005c-0.04-0.002-0.081-0.004-0.121-0.007l-0.127-0.008
		c-0.046-0.003-0.093-0.007-0.139-0.011l-0.11-0.009c-0.082-0.008-0.164-0.017-0.246-0.027c-0.002,0-0.004,0-0.006-0.001
		c0,0,0,0,0,0c-0.083-0.01-0.164-0.022-0.245-0.034l-0.116-0.019c-0.044-0.007-0.087-0.014-0.128-0.021l-0.122-0.023
		c-0.041-0.008-0.082-0.015-0.122-0.023l-0.137-0.029c-0.035-0.008-0.07-0.015-0.103-0.023c-0.03-0.007-0.061-0.014-0.091-0.022
		l-0.022-0.005c-0.042-0.01-0.084-0.02-0.126-0.031c-0.028-0.007-0.056-0.015-0.083-0.022l-0.026-0.007
		c-0.042-0.011-0.084-0.023-0.125-0.035c-0.037-0.011-0.074-0.022-0.109-0.032c-0.042-0.013-0.084-0.025-0.124-0.038
		c-0.037-0.012-0.073-0.024-0.11-0.036c-0.041-0.013-0.081-0.027-0.118-0.04l-0.11-0.039c-0.04-0.014-0.079-0.029-0.119-0.043
		c-0.036-0.014-0.073-0.027-0.107-0.041c-0.039-0.015-0.077-0.03-0.117-0.046c-0.036-0.014-0.072-0.029-0.105-0.043
		c-0.039-0.016-0.078-0.033-0.116-0.05c-0.035-0.015-0.07-0.03-0.105-0.046c-0.038-0.017-0.075-0.034-0.113-0.052
		c-0.035-0.016-0.071-0.033-0.104-0.049c-0.027-0.013-0.055-0.027-0.082-0.04l-0.054-0.027c-0.026-0.013-0.052-0.026-0.076-0.038
		c-0.037-0.019-0.074-0.038-0.11-0.058l-0.038-0.02c-0.021-0.011-0.041-0.022-0.063-0.033c-0.031-0.017-0.062-0.034-0.093-0.051
		l-0.055-0.031c-0.019-0.011-0.038-0.021-0.06-0.034c-0.027-0.015-0.054-0.031-0.08-0.047l-0.065-0.038
		c-0.019-0.011-0.038-0.022-0.057-0.034c-0.047-0.029-0.094-0.059-0.143-0.09c-0.044-0.028-0.088-0.057-0.132-0.085l-0.02-0.013
		c-0.032-0.021-0.064-0.042-0.096-0.063c-0.021-0.014-0.041-0.029-0.062-0.043l-0.051-0.036c-0.026-0.018-0.053-0.037-0.08-0.056
		c-0.024-0.018-0.048-0.035-0.072-0.053l-0.05-0.037c-0.022-0.016-0.044-0.032-0.065-0.049c-0.025-0.019-0.049-0.038-0.073-0.057
		l-0.006-0.005c0.002-0.004,0.004-0.008,0.006-0.012c0.403-1.005,1.298-1.334,1.33-1.346c0.011-0.004,0.022-0.008,0.033-0.012
		l2.56-1.003l1.356,1.321c0.133,0.129,0.311,0.202,0.496,0.202c0.004,0,0.008,0,0.011,0c0.189-0.003,0.369-0.081,0.5-0.218
		l1.28-1.329l2.554,1.024c0.012,0.005,0.019,0.008,0.032,0.012c0.04,0.014,0.938,0.346,1.339,1.357l-0.069,0.052
		C200.989,416.335,200.959,416.358,200.927,416.381z"/>
</g>
</svg>
