<?xml version="1.0" encoding="iso-8859-1"?>
<!-- Generator: Adobe Illustrator 21.1.0, SVG Export Plug-In . SVG Version: 6.00 Build 0)  -->
<svg version="1.1" id="Layer_1" xmlns="http://www.w3.org/2000/svg" xmlns:xlink="http://www.w3.org/1999/xlink" x="0px" y="0px"
	 viewBox="184.5 374.5 45 45" style="enable-background:new 184.5 374.5 45 45;" xml:space="preserve">
<g>
	<circle style="fill:#2EA2DB;" cx="207" cy="397" r="13.36"/>
	<path style="fill:#F16051;" d="M225.566,381.669L225.566,381.669c-1.757,0-3.235-1.478-3.235-3.235l0,0
		c0-1.757,1.478-3.235,3.235-3.235l0,0c1.757,0,3.235,1.478,3.235,3.235l0,0C228.794,380.199,227.324,381.669,225.566,381.669z"/>
	<path style="fill:#193651;" d="M225.566,382.375c-2.176,0-3.934-1.757-3.934-3.934c0-2.176,1.75-3.941,3.934-3.941
		s3.934,1.757,3.934,3.941C229.5,380.625,227.743,382.375,225.566,382.375z M225.566,375.904c-1.404,0-2.529,1.125-2.529,2.529
		c0,1.404,1.125,2.529,2.529,2.529s2.529-1.125,2.529-2.529C228.096,377.029,226.971,375.904,225.566,375.904z"/>
	<path style="fill:#D3D7DA;" d="M188.434,381.669L188.434,381.669c-1.757,0-3.235-1.478-3.235-3.235l0,0
		c0-1.757,1.478-3.235,3.235-3.235l0,0c1.757,0,3.235,1.478,3.235,3.235l0,0C191.669,380.199,190.199,381.669,188.434,381.669z"/>
	<path style="fill:#193651;" d="M188.434,382.375c-2.176,0-3.934-1.757-3.934-3.934c0-2.176,1.757-3.941,3.934-3.941
		s3.934,1.757,3.934,3.941C192.368,380.625,190.618,382.375,188.434,382.375z M188.434,375.904c-1.404,0-2.529,1.125-2.529,2.529
		c0,1.404,1.125,2.537,2.529,2.537c1.404,0,2.537-1.125,2.537-2.529C190.971,377.037,189.846,375.904,188.434,375.904z"/>
	<path style="fill:#4FBF9F;" d="M225.566,418.794L225.566,418.794c-1.757,0-3.235-1.478-3.235-3.235l0,0
		c0-1.757,1.478-3.235,3.235-3.235l0,0c1.757,0,3.235,1.478,3.235,3.235l0,0C228.794,417.324,227.324,418.794,225.566,418.794z"/>
	<path style="fill:#193651;" d="M225.566,419.5c-2.176,0-3.934-1.757-3.934-3.934c0-2.176,1.757-3.934,3.934-3.934
		s3.934,1.757,3.934,3.934C229.5,417.743,227.743,419.5,225.566,419.5z M225.566,413.029c-1.404,0-2.529,1.125-2.529,2.529
		c0,1.404,1.125,2.529,2.529,2.529s2.529-1.125,2.529-2.529C228.096,414.154,226.971,413.029,225.566,413.029z"/>
	<path style="fill:#FDBF5E;" d="M188.434,418.794L188.434,418.794c-1.757,0-3.235-1.478-3.235-3.235l0,0
		c0-1.757,1.478-3.235,3.235-3.235l0,0c1.757,0,3.235,1.478,3.235,3.235l0,0C191.669,417.324,190.199,418.794,188.434,418.794z"/>
	<g>
		<path style="fill:#193651;" d="M188.434,419.5c-2.176,0-3.934-1.757-3.934-3.934c0-2.176,1.757-3.934,3.934-3.934
			s3.934,1.757,3.934,3.934C192.368,417.743,190.618,419.5,188.434,419.5z M188.434,413.029c-1.404,0-2.529,1.125-2.529,2.529
			c0,1.404,1.125,2.529,2.529,2.529c1.404,0,2.537-1.118,2.537-2.529C190.971,414.154,189.846,413.029,188.434,413.029z"/>
		<rect x="199.051" y="414.86" style="fill:#193651;" width="1.404" height="1.404"/>
		<rect x="206.294" y="414.86" style="fill:#193651;" width="1.404" height="1.404"/>
		<rect x="213.537" y="414.86" style="fill:#193651;" width="1.404" height="1.404"/>
		<rect x="199.051" y="377.735" style="fill:#193651;" width="1.404" height="1.404"/>
		<rect x="206.294" y="377.735" style="fill:#193651;" width="1.404" height="1.404"/>
		<rect x="213.537" y="377.735" style="fill:#193651;" width="1.404" height="1.404"/>
		<rect x="224.86" y="389.051" style="fill:#193651;" width="1.404" height="1.404"/>
		<rect x="224.86" y="396.294" style="fill:#193651;" width="1.404" height="1.404"/>
		<rect x="224.86" y="403.537" style="fill:#193651;" width="1.404" height="1.404"/>
		<rect x="187.735" y="389.051" style="fill:#193651;" width="1.404" height="1.404"/>
		<rect x="187.735" y="396.294" style="fill:#193651;" width="1.404" height="1.404"/>
		<rect x="187.735" y="403.537" style="fill:#193651;" width="1.404" height="1.404"/>
		<polygon style="fill:#193651;" points="215.581,383.64 215.581,385.044 217.926,385.044 213.669,389.301 214.669,390.294 
			218.956,386.007 218.956,388.419 220.36,388.419 220.36,383.64 		"/>
		<polygon style="fill:#193651;" points="200.294,389.331 196.007,385.044 198.419,385.044 198.419,383.64 193.64,383.64 
			193.64,388.419 195.044,388.419 195.044,386.081 199.294,390.331 		"/>
	</g>
	<circle style="fill:#FFFFFF;" cx="207" cy="390.956" r="4.779"/>
	<path style="fill:#193651;" d="M207,396.368c-3.022,0-5.485-2.463-5.485-5.485s2.463-5.485,5.485-5.485s5.485,2.463,5.485,5.485
		S210.022,396.368,207,396.368z M207,386.875c-2.25,0-4.081,1.831-4.081,4.081s1.831,4.081,4.081,4.081s4.081-1.831,4.081-4.081
		S209.25,386.875,207,386.875z"/>
	<path style="fill:#FFFFFF;" d="M207,407.831c3.654,0,6.89-1.544,9.213-3.934v-4.221c0-0.846-0.493-1.618-1.265-2.037l-2.176-1.125
		c-1.478,1.544-3.515,2.463-5.838,2.463c-2.25,0-4.36-0.912-5.838-2.463l-2.11,1.191c-0.772,0.353-1.265,1.199-1.265,2.037v4.221
		C200.11,406.353,203.346,407.831,207,407.831z"/>
	<path style="fill:#193651;" d="M218.956,405.581v2.338l-2.875-2.875c0.235-0.213,0.471-0.434,0.691-0.662l0.213-0.213v-4.5
		c0-1.125-0.632-2.176-1.618-2.669l-2.669-1.338l-0.353,0.353c-1.478,1.478-3.301,2.25-5.346,2.25s-3.934-0.772-5.346-2.25
		l-0.353-0.353L198.632,397c-0.985,0.559-1.618,1.544-1.618,2.669v4.5l0.213,0.213c0.235,0.243,0.485,0.478,0.735,0.699
		l-2.912,2.912v-2.419h-1.404v4.779h4.779v-1.404h-2.346l2.978-2.978c2.294,1.662,5.029,2.559,7.941,2.559
		c2.926,0,5.676-0.912,7.985-2.596l3.015,3.015h-2.419v1.404h4.779v-4.779h-1.404V405.581z M198.493,403.61h-0.14v-3.934
		c0-0.632,0.279-1.125,0.846-1.404l1.757-0.846c1.691,1.478,3.728,2.324,5.978,2.324s4.36-0.846,5.978-2.324l1.757,0.846
		c0.493,0.279,0.846,0.846,0.846,1.404v3.934c-2.25,2.25-5.272,3.515-8.507,3.515C203.838,407.125,200.809,405.86,198.493,403.61z"
		/>
</g>
</svg>
