<?xml version="1.0" encoding="iso-8859-1"?>
<!-- Generator: Adobe Illustrator 21.1.0, SVG Export Plug-In . SVG Version: 6.00 Build 0)  -->
<svg version="1.1" id="Layer_1" xmlns="http://www.w3.org/2000/svg" xmlns:xlink="http://www.w3.org/1999/xlink" x="0px" y="0px"
	 viewBox="177 367 60 60" style="enable-background:new 177 367 60 60;" xml:space="preserve">
<g>
	<path style="fill:#66CEDB;" d="M182,426h12v-20h-12c-2.209,0-4-1.791-4-4v20C178,424.209,179.791,426,182,426z M183,410h7v4h-7V410
		z"/>
	<path style="fill:#F6BF58;" d="M182,406h12v-8h-7h-5c-2.209,0-4,1.791-4,4S179.791,406,182,406z"/>
	<path style="fill:#66CEDB;" d="M199,402v20c0,2.209,1.791,4,4,4h12v-20h-12C200.791,406,199,404.209,199,402z M204,410h7v4h-7V410z
		"/>
	<path style="fill:#F6BF58;" d="M203,398c-2.209,0-4,1.791-4,4s1.791,4,4,4h12v-8h-8H203z"/>
	<path style="fill:#66CEDB;" d="M224,426h12v-20h-12c-2.209,0-4-1.791-4-4v20C220,424.209,221.791,426,224,426z M225,410h7v4h-7V410
		z"/>
	<path style="fill:#F6BF58;" d="M224,406h12v-8h-9h-3c-2.209,0-4,1.791-4,4S221.791,406,224,406z"/>
	<g>
		<rect x="183" y="410" style="fill:#F9ECDE;" width="7" height="4"/>
		<rect x="204" y="410" style="fill:#F9ECDE;" width="7" height="4"/>
		<rect x="225" y="410" style="fill:#F9ECDE;" width="7" height="4"/>
	</g>
	<path style="fill:#F6BF58;" d="M221,384c2.209,0,4-1.791,4-4s-1.791-4-4-4c-0.05,0-0.096,0.013-0.146,0.015
		C220.94,375.689,221,375.353,221,375c0-2.209-1.791-4-4-4c-0.75,0-1.443,0.219-2.043,0.578C214.744,369.57,213.065,368,211,368
		c-2.209,0-4,1.791-4,4c0-2.209-1.791-4-4-4c-2.065,0-3.744,1.57-3.957,3.578c-0.6-0.359-1.293-0.578-2.043-0.578
		c-2.209,0-4,1.791-4,4c0,0.353,0.06,0.689,0.146,1.015C193.096,376.013,193.05,376,193,376c-2.209,0-4,1.791-4,4s1.791,4,4,4h2h6h2
		c2.209,0,4-1.791,4-4c0,2.209,1.791,4,4,4h2h6H221z"/>
	<g>
		<path style="fill:#353535;" d="M182,427h12c0.552,0,1-0.448,1-1v-20v-8c0-0.552-0.448-1-1-1h-6v-3.295l13.336-4.763
			C201.734,388.8,202,388.423,202,388v-3h1c1.13,0,2.162-0.391,3-1.026V397h-3c-2.757,0-5,2.243-5,5v20c0,2.757,2.243,5,5,5h12
			c0.552,0,1-0.448,1-1v-20v-8c0-0.552-0.448-1-1-1h-7v-13.026c0.838,0.635,1.87,1.026,3,1.026h1v3c0,0.423,0.266,0.8,0.664,0.942
			L226,393.705V397h-2c-2.757,0-5,2.243-5,5v20c0,2.757,2.243,5,5,5h12c0.552,0,1-0.448,1-1v-20v-8c0-0.552-0.448-1-1-1h-8v-4
			c0-0.423-0.266-0.8-0.664-0.942L214,387.295V385h7c2.757,0,5-2.243,5-5c0-2.415-1.721-4.436-4.001-4.9
			C222,375.067,222,375.033,222,375c0-2.757-2.243-5-5-5c-0.456,0-0.912,0.066-1.355,0.195C214.92,368.307,213.104,367,211,367
			c-1.641,0-3.088,0.806-4,2.031c-0.912-1.225-2.359-2.031-4-2.031c-2.104,0-3.92,1.307-4.645,3.195
			C197.912,370.066,197.457,370,197,370c-2.757,0-5,2.243-5,5c0,0.033,0,0.067,0.001,0.1c-2.28,0.464-4.001,2.485-4.001,4.9
			c0,2.757,2.243,5,5,5h7v2.295l-13.336,4.763C186.266,392.2,186,392.577,186,393v4h-4c-2.757,0-5,2.243-5,5v20
			C177,424.757,179.243,427,182,427z M214,425h-11c-1.654,0-3-1.346-3-3v-16.002c0.038,0.029,0.083,0.05,0.122,0.078
			c0.083,0.059,0.171,0.11,0.258,0.164c0.168,0.104,0.34,0.199,0.52,0.283c0.098,0.046,0.196,0.089,0.298,0.129
			c0.192,0.075,0.39,0.134,0.593,0.184c0.095,0.024,0.186,0.053,0.283,0.071c0.3,0.056,0.608,0.093,0.926,0.093h11V425z M214,399v6
			h-11c-1.654,0-3-1.346-3-3s1.346-3,3-3h3v3h2v-3H214z M235,425h-11c-1.654,0-3-1.346-3-3v-16.002
			c0.038,0.029,0.083,0.05,0.122,0.078c0.083,0.059,0.171,0.11,0.258,0.164c0.168,0.104,0.34,0.199,0.52,0.283
			c0.098,0.046,0.196,0.089,0.298,0.129c0.192,0.075,0.39,0.134,0.593,0.184c0.095,0.024,0.186,0.053,0.283,0.071
			c0.3,0.056,0.608,0.093,0.926,0.093h11V425z M235,399v6h-11c-1.654,0-3-1.346-3-3s1.346-3,3-3h2v3h2v-3H235z M211,369
			c1.526,0,2.8,1.154,2.963,2.684c0.037,0.338,0.243,0.636,0.548,0.788c0.305,0.152,0.667,0.139,0.96-0.036
			c0.484-0.29,0.998-0.436,1.529-0.436c1.654,0,3,1.346,3,3c0,0.226-0.036,0.468-0.113,0.759c-0.081,0.307-0.012,0.634,0.187,0.881
			c0.198,0.247,0.499,0.382,0.819,0.373c0.058-0.001,0.113-0.008,0.107-0.013c1.654,0,3,1.346,3,3s-1.346,3-3,3h-1.142
			c-0.447-1.72-2-3-3.858-3v2c0.737,0,1.375,0.405,1.722,1h-5.632c0.478-2.833,2.942-5,5.91-5v-2c-1.153,0-2.247,0.25-3.238,0.691
			C214.216,375.13,212.745,374,211,374v2c1.028,0,1.867,0.782,1.978,1.781c-1.53,1.238-2.588,3.028-2.885,5.063
			C208.884,382.458,208,381.336,208,380v-8C208,370.346,209.346,369,211,369z M190,380c0-1.654,1.346-3,2.938-3.002
			c0.034,0.005,0.134,0.015,0.168,0.016c0.309,0.009,0.621-0.126,0.819-0.373c0.199-0.248,0.268-0.574,0.187-0.881
			c-0.076-0.292-0.112-0.534-0.112-0.76c0-1.654,1.346-3,3-3c0.531,0,1.045,0.147,1.529,0.436c0.293,0.176,0.656,0.189,0.96,0.037
			c0.305-0.152,0.512-0.45,0.548-0.789C200.2,370.154,201.474,369,203,369c1.654,0,3,1.346,3,3v8c0,1.336-0.884,2.458-2.093,2.845
			c-0.297-2.036-1.355-3.825-2.885-5.063c0.111-1,0.95-1.782,1.978-1.782v-2c-1.745,0-3.216,1.13-3.762,2.691
			C198.247,376.25,197.153,376,196,376v2c2.967,0,5.431,2.167,5.91,5h-5.632c0.347-0.595,0.985-1,1.722-1v-2
			c-1.858,0-3.411,1.28-3.858,3H193C191.346,383,190,381.654,190,380z M193,425h-11c-1.654,0-3-1.346-3-3v-16.002
			c0.038,0.029,0.083,0.05,0.122,0.078c0.083,0.059,0.171,0.11,0.258,0.164c0.168,0.104,0.34,0.199,0.52,0.283
			c0.098,0.046,0.196,0.089,0.298,0.129c0.192,0.075,0.39,0.134,0.593,0.184c0.095,0.024,0.186,0.053,0.283,0.071
			c0.3,0.056,0.608,0.093,0.926,0.093h11V425z M182,399h4v3h2v-3h5v6h-11c-1.654,0-3-1.346-3-3S180.346,399,182,399z"/>
		<path style="fill:#353535;" d="M182,414c0,0.552,0.448,1,1,1h7c0.552,0,1-0.448,1-1v-4c0-0.552-0.448-1-1-1h-7
			c-0.552,0-1,0.448-1,1V414z M184,411h5v2h-5V411z"/>
		<rect x="182" y="417" style="fill:#353535;" width="9" height="2"/>
		<rect x="184" y="421" style="fill:#353535;" width="5" height="2"/>
		<path style="fill:#353535;" d="M203,414c0,0.552,0.448,1,1,1h7c0.552,0,1-0.448,1-1v-4c0-0.552-0.448-1-1-1h-7
			c-0.552,0-1,0.448-1,1V414z M205,411h5v2h-5V411z"/>
		<rect x="203" y="417" style="fill:#353535;" width="9" height="2"/>
		<rect x="205" y="421" style="fill:#353535;" width="5" height="2"/>
		<path style="fill:#353535;" d="M224,414c0,0.552,0.448,1,1,1h7c0.552,0,1-0.448,1-1v-4c0-0.552-0.448-1-1-1h-7
			c-0.552,0-1,0.448-1,1V414z M226,411h5v2h-5V411z"/>
		<rect x="224" y="417" style="fill:#353535;" width="9" height="2"/>
		<rect x="226" y="421" style="fill:#353535;" width="5" height="2"/>
		<rect x="229" y="379" style="fill:#353535;" width="2" height="2"/>
		<rect x="233" y="379" style="fill:#353535;" width="2" height="2"/>
		<rect x="233" y="383" style="fill:#353535;" width="2" height="2"/>
		<rect x="233" y="375" style="fill:#353535;" width="2" height="2"/>
		<rect x="183" y="379" style="fill:#353535;" width="2" height="2"/>
		<rect x="179" y="379" style="fill:#353535;" width="2" height="2"/>
		<rect x="179" y="383" style="fill:#353535;" width="2" height="2"/>
		<rect x="179" y="375" style="fill:#353535;" width="2" height="2"/>
	</g>
</g>
</svg>
