<?xml version="1.0" encoding="utf-8"?>
<!-- Generator: Adobe Illustrator 21.1.0, SVG Export Plug-In . SVG Version: 6.00 Build 0)  -->
<svg version="1.1" id="Слой_1" xmlns="http://www.w3.org/2000/svg" xmlns:xlink="http://www.w3.org/1999/xlink" x="0px" y="0px"
	 viewBox="0 0 50 50" style="enable-background:new 0 0 50 50;" xml:space="preserve">
<style type="text/css">
	.st0{fill:#FFFFFF;}
</style>
<g>
	<path class="st0" d="M47.6,0H2.4C1.1,0,0,1.2,0,2.6v14c0,1.4,1.1,2.6,2.4,2.6h4.3v3c0,0.3,0.2,0.6,0.4,0.8c0.3,0.2,0.6,0.1,0.9,0
		l5.6-3.8h7.8v3c0,0.3,0.2,0.6,0.4,0.8c0.3,0.2,0.6,0.1,0.9,0l5.6-3.8h7.7l5.6,3.8c0.1,0.1,0.3,0.1,0.5,0.1c0.1,0,0.3,0,0.4-0.1
		c0.3-0.2,0.4-0.5,0.4-0.8v-3h4.4c1.4,0,2.4-1.2,2.4-2.6v-14C50,1.2,48.9,0,47.6,0L47.6,0z M48.3,16.6c0,0.4-0.3,0.8-0.7,0.8h-5.3
		c-0.5,0-0.9,0.4-0.9,0.9v2.3l-4.5-3.1c-0.1-0.1-0.3-0.1-0.5-0.1h-8.2c-0.2,0-0.3,0-0.5,0.1l-4.5,3.1v-2.3c0-0.5-0.4-0.9-0.9-0.9
		h-8.9c-0.2,0-0.3,0-0.5,0.1l-4.5,3.1v-2.3c0-0.5-0.4-0.9-0.9-0.9H2.4c-0.4,0-0.7-0.3-0.7-0.8v-14c0-0.4,0.3-0.8,0.7-0.8h45.1
		c0.4,0,0.7,0.3,0.7,0.8V16.6z M48.3,16.6"/>
	<path class="st0" d="M11.1,37.6c1.9-1.2,3.1-3.3,3.1-5.8c0-3.7-2.9-6.7-6.4-6.7c-3.5,0-6.4,3-6.4,6.7c0,2.5,1.3,4.6,3.1,5.8
		c-2.1,1.2-3.5,3.5-3.5,6.2v5.3C1.2,49.6,1.6,50,2,50h11.7c0.5,0,0.9-0.4,0.9-0.9v-5.3C14.6,41.1,13.2,38.8,11.1,37.6L11.1,37.6z
		 M3.2,31.8c0-2.7,2.1-4.9,4.7-4.9c2.6,0,4.7,2.2,4.7,4.9c0,2.7-2.1,4.9-4.7,4.9C5.3,36.7,3.2,34.5,3.2,31.8L3.2,31.8z M12.9,48.2
		h-10v-4.4c0-2.9,2.2-5.3,5-5.3s5,2.4,5,5.3L12.9,48.2L12.9,48.2z M12.9,48.2"/>
	<path class="st0" d="M6.4,31c-0.1-0.3-0.5-0.6-0.8-0.6c-0.4,0-0.7,0.3-0.8,0.6c-0.1,0.4,0,0.8,0.3,1c0.3,0.2,0.7,0.3,1,0
		C6.4,31.8,6.5,31.4,6.4,31C6.4,30.9,6.4,31,6.4,31L6.4,31z M6.4,31"/>
	<path class="st0" d="M11,31c-0.2-0.5-0.8-0.7-1.2-0.4c-0.5,0.3-0.5,1-0.2,1.4c0.3,0.3,0.8,0.4,1.1,0.1C11,31.8,11.1,31.4,11,31
		C10.9,30.9,11,31,11,31L11,31z M11,31"/>
	<path class="st0" d="M28.2,37.6c1.9-1.2,3.1-3.3,3.1-5.8c0-3.7-2.9-6.7-6.4-6.7c-3.5,0-6.4,3-6.4,6.7c0,2.5,1.3,4.6,3.1,5.8
		c-2.1,1.2-3.5,3.5-3.5,6.2v5.3c0,0.5,0.4,0.9,0.9,0.9h11.7c0.5,0,0.9-0.4,0.9-0.9v-5.3C31.7,41.1,30.3,38.8,28.2,37.6L28.2,37.6z
		 M20.3,31.8c0-2.7,2.1-4.9,4.7-4.9c2.6,0,4.7,2.2,4.7,4.9c0,2.7-2.1,4.9-4.7,4.9C22.4,36.7,20.3,34.5,20.3,31.8L20.3,31.8z
		 M30,48.2H20v-4.4c0-2.9,2.2-5.3,5-5.3c2.7,0,5,2.4,5,5.3V48.2z M30,48.2"/>
	<path class="st0" d="M23.5,31c-0.2-0.5-0.8-0.7-1.2-0.5c-0.5,0.3-0.6,1-0.2,1.4c0.3,0.3,0.8,0.4,1.1,0.1
		C23.5,31.8,23.7,31.4,23.5,31C23.5,30.9,23.5,31,23.5,31L23.5,31z M23.5,31"/>
	<path class="st0" d="M28.1,31c-0.2-0.5-0.8-0.7-1.2-0.4c-0.5,0.3-0.5,1-0.2,1.4c0.3,0.3,0.7,0.4,1.1,0.1
		C28.1,31.8,28.2,31.4,28.1,31C28.1,30.9,28.1,31,28.1,31L28.1,31z M28.1,31"/>
	<path class="st0" d="M45.4,37.6c1.9-1.2,3.1-3.3,3.1-5.8c0-3.7-2.9-6.7-6.4-6.7c-3.5,0-6.4,3-6.4,6.7c0,2.5,1.3,4.6,3.1,5.8
		c-2.1,1.2-3.5,3.5-3.5,6.2v5.3c0,0.5,0.4,0.9,0.9,0.9H48c0.5,0,0.9-0.4,0.9-0.9v-5.3C48.8,41.1,47.4,38.8,45.4,37.6L45.4,37.6z
		 M37.5,31.8c0-2.7,2.1-4.9,4.7-4.9c2.6,0,4.7,2.2,4.7,4.9c0,2.7-2.1,4.9-4.7,4.9C39.6,36.7,37.5,34.5,37.5,31.8L37.5,31.8z
		 M47.1,48.2h-10v-4.4c0-2.9,2.2-5.3,5-5.3c2.7,0,5,2.4,5,5.3V48.2z M47.1,48.2"/>
	<path class="st0" d="M40.6,31c0-0.1-0.1-0.2-0.2-0.3c-0.3-0.4-0.9-0.3-1.2,0c-0.5,0.5-0.2,1.4,0.4,1.5C40.3,32.4,40.9,31.6,40.6,31
		C40.6,30.9,40.7,31,40.6,31L40.6,31z M40.6,31"/>
	<path class="st0" d="M45.2,31c0-0.1-0.1-0.2-0.2-0.3c-0.5-0.5-1.4-0.2-1.5,0.5c-0.1,0.8,0.7,1.3,1.3,0.9
		C45.2,31.8,45.4,31.4,45.2,31C45.2,30.9,45.2,31,45.2,31L45.2,31z M45.2,31"/>
	<path class="st0" d="M43.8,6.6H6.2c-0.5,0-0.9,0.4-0.9,0.9c0,0.5,0.4,0.9,0.9,0.9h37.6c0.5,0,0.9-0.4,0.9-0.9
		C44.7,7.1,44.3,6.6,43.8,6.6L43.8,6.6z M43.8,6.6"/>
	<path class="st0" d="M43.8,11H6.2c-0.5,0-0.9,0.4-0.9,0.9c0,0.5,0.4,0.9,0.9,0.9h37.6c0.5,0,0.9-0.4,0.9-0.9
		C44.7,11.4,44.3,11,43.8,11L43.8,11z M43.8,11"/>
</g>
</svg>
