<?xml version="1.0" encoding="iso-8859-1"?>
<!-- Generator: Adobe Illustrator 21.1.0, SVG Export Plug-In . SVG Version: 6.00 Build 0)  -->
<svg version="1.1" id="Layer_1" xmlns="http://www.w3.org/2000/svg" xmlns:xlink="http://www.w3.org/1999/xlink" x="0px" y="0px"
	 viewBox="177 367 60 60" style="enable-background:new 177 367 60 60;" xml:space="preserve">
<g>
	<path style="fill:#66CEDB;" d="M182,426h5h5v-16v-8c0,2.209,1.791,4,4,4h6v-4h-6v-3c0-2.209-1.791-4-4-4h-5h-5
		c-2.209,0-4,1.791-4,4v1v10h4V426z"/>
	<path style="fill:#F9ECDE;" d="M182,395h5c-2.761,0-5-2.239-5-5s2.239-5,5-5s5,2.239,5,5s-2.239,5-5,5h5c2.209,0,4,1.791,4,4v3h6v4
		h-6c-2.209,0-4-1.791-4-4v8h30v-11h-6c-2.209,0-4-1.791-4-4v-7h4v7h11c-2.761,0-5-2.239-5-5s2.239-5,5-5s5,2.239,5,5s-2.239,5-5,5
		h5c2.209,0,4,1.791,4,4v-27h-58v27C178,396.791,179.791,395,182,395z M227,376c1.105,0,2,0.895,2,2s-0.895,2-2,2
		c-0.842,0-1.559-0.522-1.854-1.258c-0.092-0.23-0.146-0.479-0.146-0.742C225,376.895,225.895,376,227,376z M217,380
		c0.842,0,1.559,0.522,1.854,1.258c0.092,0.23,0.146,0.479,0.146,0.742c0,1.105-0.895,2-2,2s-2-0.895-2-2S215.895,380,217,380z
		 M207,377c1.105,0,2,0.895,2,2s-0.895,2-2,2c-0.678,0-1.274-0.339-1.636-0.855C205.136,379.82,205,379.427,205,379
		C205,377.895,205.895,377,207,377z M197,384c0.678,0,1.274,0.339,1.636,0.855C198.864,385.18,199,385.573,199,386
		c0,1.105-0.895,2-2,2s-2-0.895-2-2S195.895,384,197,384z M187,376c1.105,0,2,0.895,2,2s-0.895,2-2,2s-2-0.895-2-2
		S185.895,376,187,376z"/>
	<path style="fill:#F6BF58;" d="M232,395h-5h-11v-7h-4v7c0,2.209,1.791,4,4,4h6v11v16h5h5v-16h4v-10v-1
		C236,396.791,234.209,395,232,395z"/>
	<circle style="fill:#66CEDB;" cx="187" cy="390" r="5"/>
	<circle style="fill:#F6BF58;" cx="227" cy="390" r="5"/>
	<rect x="178" y="368" style="fill:#66CEDB;" width="58" height="4"/>
	<g>
		<circle style="fill:#F6BF58;" cx="187" cy="378" r="2"/>
		<path style="fill:#F6BF58;" d="M197,388c1.105,0,2-0.895,2-2c0-0.427-0.136-0.82-0.364-1.145C198.274,384.339,197.678,384,197,384
			c-1.105,0-2,0.895-2,2S195.895,388,197,388z"/>
	</g>
	<path style="fill:#66CEDB;" d="M207,381c1.105,0,2-0.895,2-2s-0.895-2-2-2s-2,0.895-2,2c0,0.427,0.136,0.82,0.364,1.145
		C205.726,380.661,206.322,381,207,381z"/>
	<path style="fill:#F6BF58;" d="M217,384c1.105,0,2-0.895,2-2c0-0.263-0.054-0.512-0.146-0.742C218.559,380.522,217.842,380,217,380
		c-1.105,0-2,0.895-2,2S215.895,384,217,384z"/>
	<path style="fill:#66CEDB;" d="M227,380c1.105,0,2-0.895,2-2s-0.895-2-2-2s-2,0.895-2,2c0,0.263,0.054,0.512,0.146,0.742
		C225.441,379.478,226.158,380,227,380z"/>
	<g>
		<path style="fill:#353535;" d="M178,411h3v15c0,0.552,0.448,1,1,1h5h5c0.552,0,1-0.448,1-1v-15h28v15c0,0.552,0.448,1,1,1h5h5
			c0.552,0,1-0.448,1-1v-15h3c0.552,0,1-0.448,1-1v-10v-1v-27v-4c0-0.552-0.448-1-1-1h-58c-0.552,0-1,0.448-1,1v4v27v1v10
			C177,410.552,177.448,411,178,411z M193,409v-3.026c0.838,0.635,1.87,1.026,3,1.026h6c0.552,0,1-0.448,1-1v-4c0-0.552-0.448-1-1-1
			h-5v-2c0-2.757-2.243-5-5-5h-0.54c0.954-1.063,1.54-2.462,1.54-4c0-3.309-2.691-6-6-6s-6,2.691-6,6c0,1.538,0.586,2.937,1.54,4
			H182c-1.13,0-2.162,0.391-3,1.026V373h56v22.026c-0.838-0.635-1.87-1.026-3-1.026h-0.54c0.954-1.063,1.54-2.462,1.54-4
			c0-3.309-2.691-6-6-6s-6,2.691-6,6c0,1.538,0.586,2.937,1.54,4H217v-6c0-0.552-0.448-1-1-1h-4c-0.552,0-1,0.448-1,1v7
			c0,2.757,2.243,5,5,5h5v9H193z M183,390c0-2.206,1.794-4,4-4s4,1.794,4,4s-1.794,4-4,4S183,392.206,183,390z M223,390
			c0-2.206,1.794-4,4-4s4,1.794,4,4s-1.794,4-4,4S223,392.206,223,390z M235,409h-2v-10h-2v26h-3v-15h-2v15h-3v-26
			c0-0.552-0.448-1-1-1h-6c-1.654,0-3-1.346-3-3v-6h2v6c0,0.552,0.448,1,1,1h16c1.654,0,3,1.346,3,3v1V409z M179,369h56v2h-56V369z
			 M179,399c0-1.654,1.346-3,3-3h10c1.654,0,3,1.346,3,3v3c0,0.552,0.448,1,1,1h5v2h-5c-1.654,0-3-1.346-3-3v-2v-1h-2v1v2v23h-3v-15
			h-2v15h-3v-26h-2v10h-2v-9V399z"/>
		<path style="fill:#353535;" d="M199.879,385.205l5.383-3.768c0.492,0.351,1.089,0.563,1.738,0.563
			c0.991,0,1.865-0.489,2.411-1.232l4.604,1.381c0.079,1.584,1.382,2.851,2.985,2.851c1.654,0,3-1.346,3-3
			c0-0.04-0.01-0.078-0.012-0.118l4.771-1.908c0.55,0.624,1.346,1.026,2.241,1.026c1.654,0,3-1.346,3-3s-1.346-3-3-3s-3,1.346-3,3
			c0,0.04,0.01,0.078,0.012,0.118l-4.771,1.908c-0.55-0.624-1.346-1.026-2.241-1.026c-0.991,0-1.865,0.489-2.411,1.232l-4.604-1.381
			C209.906,377.267,208.603,376,207,376c-1.654,0-3,1.346-3,3c0,0.277,0.05,0.54,0.121,0.795l-5.383,3.768
			C198.246,383.212,197.649,383,197,383c-0.58,0-1.117,0.173-1.576,0.459l-5.601-4.481C189.93,378.67,190,378.344,190,378
			c0-1.654-1.346-3-3-3s-3,1.346-3,3s1.346,3,3,3c0.58,0,1.117-0.173,1.576-0.459l5.601,4.481C194.07,385.33,194,385.656,194,386
			c0,1.654,1.346,3,3,3s3-1.346,3-3C200,385.723,199.95,385.46,199.879,385.205z M227,377c0.551,0,1,0.449,1,1s-0.449,1-1,1
			s-1-0.449-1-1S226.449,377,227,377z M217,381c0.551,0,1,0.449,1,1s-0.449,1-1,1s-1-0.449-1-1S216.449,381,217,381z M207,378
			c0.551,0,1,0.449,1,1s-0.449,1-1,1s-1-0.449-1-1S206.449,378,207,378z M187,379c-0.551,0-1-0.449-1-1s0.449-1,1-1s1,0.449,1,1
			S187.551,379,187,379z M197,387c-0.551,0-1-0.449-1-1s0.449-1,1-1s1,0.449,1,1S197.551,387,197,387z"/>
		<rect x="202" y="389" style="fill:#353535;" width="7" height="2"/>
		<rect x="200" y="393" style="fill:#353535;" width="9" height="2"/>
		<rect x="200" y="397" style="fill:#353535;" width="9" height="2"/>
		<rect x="217" y="405" style="fill:#353535;" width="2" height="2"/>
		<rect x="213" y="405" style="fill:#353535;" width="2" height="2"/>
		<rect x="209" y="405" style="fill:#353535;" width="2" height="2"/>
	</g>
</g>
</svg>
