<?xml version="1.0" encoding="iso-8859-1"?>
<!-- Generator: Adobe Illustrator 21.1.0, SVG Export Plug-In . SVG Version: 6.00 Build 0)  -->
<svg version="1.1" id="Layer_1" xmlns="http://www.w3.org/2000/svg" xmlns:xlink="http://www.w3.org/1999/xlink" x="0px" y="0px"
	 viewBox="182 372 50 50" style="enable-background:new 182 372 50 50;" xml:space="preserve">
<g>
	<path style="fill:#FFFFFF;" d="M198.129,396.194h-12.903v8.065h12.903V396.194z M196.516,402.645h-9.677v-4.839h9.677V402.645z"/>
	<rect x="196.516" y="405.871" style="fill:#FFFFFF;" width="1.613" height="1.613"/>
	<rect x="190.065" y="405.871" style="fill:#FFFFFF;" width="4.839" height="1.613"/>
	<path style="fill:#FFFFFF;" d="M226.355,405.131V383.29c0-2.856-2.131-5.223-4.886-5.594c-0.306-2.418-2.06-4.433-4.476-5.037
		c-1.749-0.438-3.551-0.659-5.352-0.659h-0.71c-1.038,0-2.089,0.075-3.122,0.221c-5.978,0.855-10.486,6.053-10.486,12.093v8.654
		h-12.097c-1.779,0-3.226,1.447-3.226,3.226v22.581c0,1.779,1.447,3.226,3.226,3.226h15.323h0.806H232v-7.56
		C232,410.422,229.777,406.894,226.355,405.131z M198.935,384.314c0-5.241,3.913-9.754,9.101-10.495
		c0.958-0.136,1.932-0.206,2.894-0.206h0.71c1.67,0,3.34,0.206,4.962,0.61c1.943,0.486,3.301,2.225,3.301,4.228v0.806h0.806
		c2.223,0,4.032,1.809,4.032,4.032v21.176c-0.31-0.099-0.627-0.188-0.952-0.26l-6.306-1.401v-1.993
		c2.437-1.759,4.032-4.615,4.032-7.844v-10.484h-1.613v0.403l-0.7,0.525c-1.282,0.962-2.871,1.491-4.473,1.491h-5.923
		c-1.819,0-3.556,0.533-5.034,1.523v-0.717h-1.613v7.258c0,3.229,1.595,6.085,4.032,7.844v1.993l-4.839,1.074v-10.911h-2.419
		V384.314L198.935,384.314z M201.355,405.532l2.058-0.457l-2.058,5.489V405.532z M205.293,404.657l1.15-0.256l0.439,1.464
		c0.802,2.673,1.72,4.612,2.691,6.664c0.489,1.032,0.994,2.1,1.525,3.338l0.34,0.793l-8.309-6.231L205.293,404.657z
		 M219.903,388.355l-0.752,0.251c-0.663-0.775-1.701-1.283-2.877-1.283c-1.337,0-2.495,0.653-3.124,1.613h-2.623
		c-0.63-0.96-1.787-1.613-3.124-1.613c-1.177,0-2.215,0.508-2.877,1.282l-0.646-0.215c1.363-1.207,3.092-1.873,4.928-1.873h5.923
		c1.84,0,3.662-0.581,5.173-1.63V388.355z M218.29,390.548c0,0.889-0.904,1.613-2.016,1.613c-1.112,0-2.016-0.723-2.016-1.613
		c0-0.89,0.904-1.613,2.016-1.613C217.386,388.935,218.29,389.659,218.29,390.548z M207.403,388.935
		c1.112,0,2.016,0.723,2.016,1.613c0,0.889-0.904,1.613-2.016,1.613c-1.112,0-2.016-0.723-2.016-1.613
		C205.387,389.659,206.291,388.935,207.403,388.935z M203.774,390.548v-0.494l0.054,0.018
		C203.802,390.229,203.774,390.385,203.774,390.548c0,1.779,1.628,3.226,3.629,3.226s3.629-1.447,3.629-3.226h1.613
		c0,1.779,1.628,3.226,3.629,3.226c2.001,0,3.629-1.447,3.629-3.226c0-0.163-0.027-0.319-0.054-0.477l0.054-0.018v0.494v2.419
		c0,4.447-3.618,8.065-8.065,8.065c-4.447,0-8.065-3.618-8.065-8.065V390.548z M211.839,402.645c1.44,0,2.803-0.325,4.032-0.891
		v1.579l-0.621,2.069c-0.767,2.556-1.619,4.354-2.604,6.436c-0.264,0.557-0.532,1.125-0.808,1.725
		c-0.276-0.6-0.544-1.167-0.808-1.725c-0.985-2.082-1.836-3.881-2.604-6.436l-0.619-2.069v-1.579
		C209.035,402.32,210.398,402.645,211.839,402.645z M212.58,415.866c0.53-1.237,1.035-2.305,1.525-3.338
		c0.971-2.052,1.889-3.99,2.691-6.664l0.439-1.464l1.15,0.256l2.165,5.77l-8.309,6.231L212.58,415.866z M183.613,396.194
		c0-0.889,0.723-1.613,1.613-1.613h14.516v20.968h-14.516c-0.587,0-1.138,0.157-1.613,0.433V396.194z M197.756,420.387h-12.53
		c-0.89,0-1.613-0.723-1.613-1.613c0-0.89,0.723-1.613,1.613-1.613h12.53c-0.276,0.475-0.433,1.026-0.433,1.613
		S197.48,419.912,197.756,420.387z M230.387,420.387h-6.452v-3.226h-1.613v3.226h-20.968h-0.806c-0.89,0-1.613-0.723-1.613-1.613
		c0-0.89,0.723-1.613,1.613-1.613h0.806v-6.048l10.484,7.863l10.644-7.983l-2.219-5.918l3.177,0.706
		c4.09,0.908,6.946,4.469,6.946,8.659V420.387z"/>
</g>
</svg>
