<?xml version="1.0" encoding="iso-8859-1"?>
<!-- Generator: Adobe Illustrator 21.1.0, SVG Export Plug-In . SVG Version: 6.00 Build 0)  -->
<svg version="1.1" id="Layer_1" xmlns="http://www.w3.org/2000/svg" xmlns:xlink="http://www.w3.org/1999/xlink" x="0px" y="0px"
	 viewBox="177 367 60 60" style="enable-background:new 177 367 60 60;" xml:space="preserve">
<g>
	<path style="fill:#EFE7E4;" d="M236.032,386.355c0-2.138-1.733-3.871-3.871-3.871h-50.323c-2.138,0-3.871,1.733-3.871,3.871v28.065
		h58.065V386.355z"/>
	<path style="fill:#D8D1D0;" d="M236.032,414.419v-28.065c0-2.138-1.733-3.871-3.871-3.871v31.935H236.032z"/>
	<path style="fill:#A8A8A8;" d="M181.839,420.226h50.323c2.138,0,3.871-1.733,3.871-3.871v-1.935h-58.065v1.935
		C177.968,418.493,179.701,420.226,181.839,420.226z"/>
	<path style="fill:#9B9B9B;" d="M236.032,416.355v-1.935h-3.871v5.806C234.299,420.226,236.032,418.493,236.032,416.355z"/>
	<path style="fill:#353535;" d="M232.161,421.194h-50.323c-2.668,0-4.839-2.171-4.839-4.839v-30c0-2.668,2.171-4.839,4.839-4.839
		h50.323c2.668,0,4.839,2.171,4.839,4.839v30C237,419.023,234.829,421.194,232.161,421.194z M181.839,383.452
		c-1.601,0-2.903,1.303-2.903,2.903v30c0,1.601,1.303,2.903,2.903,2.903h50.323c1.601,0,2.903-1.303,2.903-2.903v-30
		c0-1.601-1.303-2.903-2.903-2.903H181.839z"/>
	<rect x="194.419" y="420.226" style="fill:#A8A8A8;" width="25.161" height="5.806"/>
	<rect x="215.71" y="420.226" style="fill:#9B9B9B;" width="3.871" height="5.806"/>
	<g>
		<path style="fill:#353535;" d="M220.548,427h-27.097v-7.742h27.097V427z M195.387,425.065h23.226v-3.871h-23.226V425.065z"/>
		<rect x="189.581" y="425.065" style="fill:#353535;" width="34.839" height="1.935"/>
		<rect x="177.968" y="413.452" style="fill:#353535;" width="58.065" height="1.935"/>
	</g>
	<rect x="202.161" y="374.742" style="fill:#EFE7E4;" width="9.677" height="9.677"/>
	<rect x="207.968" y="374.742" style="fill:#D8D1D0;" width="3.871" height="9.677"/>
	<path style="fill:#353535;" d="M212.806,385.387h-11.613v-11.613h11.613V385.387z M203.129,383.452h7.742v-7.742h-7.742V383.452z"
		/>
	<circle style="fill:#66ADDD;" cx="207" cy="374.742" r="6.774"/>
	<path style="fill:#5B9DC1;" d="M207,367.968c-0.673,0-1.322,0.102-1.935,0.285c2.798,0.833,4.839,3.421,4.839,6.49
		c0,3.068-2.041,5.656-4.839,6.49c0.614,0.183,1.263,0.285,1.935,0.285c3.741,0,6.774-3.033,6.774-6.774
		C213.774,371.001,210.741,367.968,207,367.968z"/>
	<circle style="fill:#A8A8A8;" cx="207" cy="374.742" r="2.903"/>
	<g>
		<path style="fill:#353535;" d="M207,378.613c-2.135,0-3.871-1.736-3.871-3.871c0-2.135,1.736-3.871,3.871-3.871
			s3.871,1.736,3.871,3.871C210.871,376.877,209.135,378.613,207,378.613z M207,372.806c-1.067,0-1.935,0.868-1.935,1.935
			s0.868,1.935,1.935,1.935s1.935-0.868,1.935-1.935S208.067,372.806,207,372.806z"/>
		<path style="fill:#353535;" d="M207,382.484c-4.269,0-7.742-3.473-7.742-7.742S202.731,367,207,367s7.742,3.473,7.742,7.742
			S211.269,382.484,207,382.484z M207,368.935c-3.202,0-5.806,2.604-5.806,5.806c0,3.202,2.604,5.806,5.806,5.806
			s5.806-2.604,5.806-5.806C212.806,371.54,210.202,368.935,207,368.935z"/>
	</g>
	<circle style="fill:#F7CAB2;" cx="207" cy="396.032" r="7.742"/>
	<path style="fill:#D8B09E;" d="M207,388.29c-0.496,0-0.981,0.051-1.452,0.14c3.582,0.68,6.29,3.823,6.29,7.602
		s-2.709,6.921-6.29,7.602c0.47,0.089,0.955,0.14,1.452,0.14c4.275,0,7.742-3.466,7.742-7.742S211.275,388.29,207,388.29z"/>
	<path style="fill:#A8A8A8;" d="M207,388.29c-3.947,0-7.198,2.956-7.675,6.774h6.554c0.731,0,1.446-0.217,2.055-0.622l1.97-1.313
		l1.154,1.73c0.489,0.733,1.311,1.173,2.192,1.173h1.493C214.742,391.757,211.275,388.29,207,388.29z"/>
	<path style="fill:#9B9B9B;" d="M207,388.29c-0.5,0-0.989,0.048-1.462,0.139c3.444,0.649,6.075,3.577,6.279,7.158
		c0.423,0.277,0.913,0.445,1.432,0.445h1.493C214.742,391.757,211.275,388.29,207,388.29z"/>
	<path style="fill:#353535;" d="M207,404.742c-4.803,0-8.71-3.908-8.71-8.71s3.907-8.71,8.71-8.71s8.71,3.908,8.71,8.71
		S211.803,404.742,207,404.742z M207,389.258c-3.735,0-6.774,3.039-6.774,6.774s3.04,6.774,6.774,6.774s6.774-3.039,6.774-6.774
		S210.735,389.258,207,389.258z"/>
	<path style="fill:#FFCB57;" d="M213.774,405.71h-13.548c-3.207,0-5.806,2.599-5.806,5.806v2.903h25.161v-2.903
		C219.581,408.309,216.981,405.71,213.774,405.71z"/>
	<path style="fill:#F2BE55;" d="M214.742,405.797v8.623h4.839v-2.903C219.581,408.64,217.487,406.258,214.742,405.797z"/>
	<g>
		<path style="fill:#353535;" d="M220.548,415.387h-27.097v-3.871c0-3.736,3.04-6.774,6.774-6.774h13.548
			c3.735,0,6.774,3.039,6.774,6.774V415.387z M195.387,413.452h23.226v-1.935c0-2.668-2.171-4.839-4.839-4.839h-13.548
			c-2.668,0-4.839,2.171-4.839,4.839V413.452z"/>
		<path style="fill:#353535;" d="M214.742,397h-1.493c-1.208,0-2.327-0.6-2.998-1.605l-0.616-0.925l-1.165,0.777
			c-0.769,0.514-1.665,0.785-2.59,0.785h-6.621v-1.935h6.621c0.542,0,1.066-0.159,1.516-0.46l2.775-1.85l1.69,2.535
			c0.311,0.465,0.829,0.742,1.388,0.742h1.493V397z"/>
		<rect x="213.774" y="409.581" style="fill:#353535;" width="1.935" height="4.839"/>
		<rect x="198.29" y="409.581" style="fill:#353535;" width="1.935" height="4.839"/>
	</g>
	<rect x="181.839" y="388.29" style="fill:#FFCB57;" width="15.484" height="11.613"/>
	<rect x="192.484" y="388.29" style="fill:#F2BE55;" width="4.839" height="11.613"/>
	<g>
		<path style="fill:#353535;" d="M198.29,400.871h-17.419v-13.548h17.419V400.871z M182.806,398.935h13.548v-9.677h-13.548V398.935z
			"/>
		<rect x="184.742" y="391.194" style="fill:#353535;" width="9.677" height="1.935"/>
		<rect x="184.742" y="395.065" style="fill:#353535;" width="9.677" height="1.935"/>
	</g>
	<rect x="216.677" y="394.097" style="fill:#66ADDD;" width="15.484" height="11.613"/>
	<rect x="227.323" y="394.097" style="fill:#5B9DC1;" width="4.839" height="11.613"/>
	<g>
		<path style="fill:#353535;" d="M233.129,406.677H215.71v-13.548h17.419V406.677z M217.645,404.742h13.548v-9.677h-13.548V404.742z
			"/>
		<rect x="219.581" y="397" style="fill:#353535;" width="9.677" height="1.935"/>
		<rect x="227.323" y="400.871" style="fill:#353535;" width="1.935" height="1.935"/>
		<rect x="219.581" y="400.871" style="fill:#353535;" width="5.806" height="1.935"/>
	</g>
	<g>
		<rect x="187.645" y="415.387" style="fill:#EFE7E4;" width="1.935" height="1.935"/>
		<rect x="191.516" y="415.387" style="fill:#EFE7E4;" width="11.613" height="1.935"/>
	</g>
</g>
</svg>
