<?xml version="1.0" encoding="utf-8"?>
<!-- Generator: Adobe Illustrator 21.1.0, SVG Export Plug-In . SVG Version: 6.00 Build 0)  -->
<svg version="1.1" id="Слой_1" xmlns="http://www.w3.org/2000/svg" xmlns:xlink="http://www.w3.org/1999/xlink" x="0px" y="0px"
	 viewBox="0 0 50 50" style="enable-background:new 0 0 50 50;" xml:space="preserve">
<style type="text/css">
	.st0{fill:#FFFFFF;}
</style>
<g>
	<path class="st0" d="M35.8,16.7h-1.7c-0.5,0-0.8,0.4-0.8,0.8c0,0.5,0.4,0.8,0.8,0.8h1.7c0.5,0,0.8-0.4,0.8-0.8
		C36.7,17,36.3,16.7,35.8,16.7L35.8,16.7z M35.8,16.7"/>
	<path class="st0" d="M35.8,20h-1.7c-0.5,0-0.8,0.4-0.8,0.8c0,0.5,0.4,0.8,0.8,0.8h1.7c0.5,0,0.8-0.4,0.8-0.8
		C36.7,20.4,36.3,20,35.8,20L35.8,20z M35.8,20"/>
	<path class="st0" d="M35.8,13.3h-1.7c-0.5,0-0.8,0.4-0.8,0.8c0,0.5,0.4,0.8,0.8,0.8h1.7c0.5,0,0.8-0.4,0.8-0.8
		C36.7,13.7,36.3,13.3,35.8,13.3L35.8,13.3z M35.8,13.3"/>
	<path class="st0" d="M35.8,40h-1.7c-0.5,0-0.8,0.4-0.8,0.8c0,0.5,0.4,0.8,0.8,0.8h1.7c0.5,0,0.8-0.4,0.8-0.8
		C36.7,40.4,36.3,40,35.8,40L35.8,40z M35.8,40"/>
	<path class="st0" d="M17.5,13.3h-5c-0.5,0-0.8,0.4-0.8,0.8v11.7c0,0.5,0.4,0.8,0.8,0.8h5c0.5,0,0.8-0.4,0.8-0.8V14.2
		C18.3,13.7,18,13.3,17.5,13.3L17.5,13.3z M16.7,25h-3.3V15h3.3V25z M16.7,25"/>
	<path class="st0" d="M17.5,40h-5c-0.5,0-0.8,0.4-0.8,0.8c0,0.5,0.4,0.8,0.8,0.8h5c0.5,0,0.8-0.4,0.8-0.8C18.3,40.4,18,40,17.5,40
		L17.5,40z M17.5,40"/>
	<path class="st0" d="M17.5,43.3h-5c-0.5,0-0.8,0.4-0.8,0.8c0,0.5,0.4,0.8,0.8,0.8h5c0.5,0,0.8-0.4,0.8-0.8
		C18.3,43.7,18,43.3,17.5,43.3L17.5,43.3z M17.5,43.3"/>
	<path class="st0" d="M35.8,43.3h-1.7c-0.5,0-0.8,0.4-0.8,0.8c0,0.5,0.4,0.8,0.8,0.8h1.7c0.5,0,0.8-0.4,0.8-0.8
		C36.7,43.7,36.3,43.3,35.8,43.3L35.8,43.3z M35.8,43.3"/>
	<path class="st0" d="M45.8,43.3h-3.3c-0.5,0-0.8,0.4-0.8,0.8c0,0.5,0.4,0.8,0.8,0.8h3.3c0.5,0,0.8-0.4,0.8-0.8
		C46.7,43.7,46.3,43.3,45.8,43.3L45.8,43.3z M45.8,43.3"/>
	<path class="st0" d="M28.3,14.2c0-0.5-0.4-0.8-0.8-0.8h-3.3c-0.5,0-0.8,0.4-0.8,0.8v11.7c0,0.5,0.4,0.8,0.8,0.8h3.3
		c0.5,0,0.8-0.4,0.8-0.8V14.2z M26.7,25H25V15h1.7V25z M26.7,25"/>
	<path class="st0" d="M45.8,40h-3.3c-0.5,0-0.8,0.4-0.8,0.8c0,0.5,0.4,0.8,0.8,0.8h3.3c0.5,0,0.8-0.4,0.8-0.8
		C46.7,40.4,46.3,40,45.8,40L45.8,40z M45.8,40"/>
	<path class="st0" d="M27.5,43.3h-3.3c-0.5,0-0.8,0.4-0.8,0.8c0,0.5,0.4,0.8,0.8,0.8h3.3c0.5,0,0.8-0.4,0.8-0.8
		C28.3,43.7,28,43.3,27.5,43.3L27.5,43.3z M27.5,43.3"/>
	<path class="st0" d="M42.5,30c0.5,0,0.8-0.4,0.8-0.8v-8.3c0-0.5-0.4-0.8-0.8-0.8c-0.5,0-0.8,0.4-0.8,0.8v8.3
		C41.7,29.6,42,30,42.5,30L42.5,30z M42.5,30"/>
	<path class="st0" d="M46.7,20.8c0-0.5-0.4-0.8-0.8-0.8c-0.5,0-0.8,0.4-0.8,0.8v8.3c0,0.5,0.4,0.8,0.8,0.8c0.5,0,0.8-0.4,0.8-0.8
		V20.8z M46.7,20.8"/>
	<path class="st0" d="M47.5,6.7h-5c-0.5,0-0.8,0.4-0.8,0.8c0,0.5,0.4,0.8,0.8,0.8h5c0.5,0,0.8,0.4,0.8,0.8v38.3
		c0,0.5-0.4,0.8-0.8,0.8H40v-35h5c0.5,0,0.8-0.4,0.8-0.8c0-0.5-0.4-0.8-0.8-0.8h-5V4.2c0-1.4-1.1-2.5-2.5-2.5h-5
		c-1.4,0-2.5,1.1-2.5,2.5v44.2h-8.3V5h5.8c0.5,0,0.8-0.4,0.8-0.8c0-0.5-0.4-0.8-0.8-0.8h-5.8V2.5c0-1.4-1.1-2.5-2.5-2.5h-8.3
		C9.5,0,8.3,1.1,8.3,2.5V10H4.2c-0.5,0-0.8,0.4-0.8,0.8c0,0.5,0.4,0.8,0.8,0.8h4.2v36.7H2.5c-0.5,0-0.8-0.4-0.8-0.8v-40
		C1.7,7,2,6.7,2.5,6.7h3.3c0.5,0,0.8-0.4,0.8-0.8C6.7,5.4,6.3,5,5.8,5H2.5C1.1,5,0,6.1,0,7.5v40C0,48.9,1.1,50,2.5,50h45
		c1.4,0,2.5-1.1,2.5-2.5V9.2C50,7.8,48.9,6.7,47.5,6.7L47.5,6.7z M20,48.3H10V6.7h7.5c0.5,0,0.8-0.4,0.8-0.8C18.3,5.4,18,5,17.5,5
		H10V2.5c0-0.5,0.4-0.8,0.8-0.8h8.3C19.6,1.7,20,2,20,2.5V48.3z M38.3,48.3h-6.7v-40h4.2c0.5,0,0.8-0.4,0.8-0.8
		c0-0.5-0.4-0.8-0.8-0.8h-4.2V4.2c0-0.5,0.4-0.8,0.8-0.8h5c0.5,0,0.8,0.4,0.8,0.8V48.3z M38.3,48.3"/>
	<path class="st0" d="M5.8,40H4.2c-0.5,0-0.8,0.4-0.8,0.8c0,0.5,0.4,0.8,0.8,0.8h1.7c0.5,0,0.8-0.4,0.8-0.8C6.7,40.4,6.3,40,5.8,40
		L5.8,40z M5.8,40"/>
	<path class="st0" d="M5.8,43.3H4.2c-0.5,0-0.8,0.4-0.8,0.8c0,0.5,0.4,0.8,0.8,0.8h1.7c0.5,0,0.8-0.4,0.8-0.8
		C6.7,43.7,6.3,43.3,5.8,43.3L5.8,43.3z M5.8,43.3"/>
	<path class="st0" d="M27.5,40h-3.3c-0.5,0-0.8,0.4-0.8,0.8c0,0.5,0.4,0.8,0.8,0.8h3.3c0.5,0,0.8-0.4,0.8-0.8
		C28.3,40.4,28,40,27.5,40L27.5,40z M27.5,40"/>
	<path class="st0" d="M5.8,20H4.2c-0.5,0-0.8,0.4-0.8,0.8c0,0.5,0.4,0.8,0.8,0.8h1.7c0.5,0,0.8-0.4,0.8-0.8C6.7,20.4,6.3,20,5.8,20
		L5.8,20z M5.8,20"/>
	<path class="st0" d="M5.8,23.3H4.2c-0.5,0-0.8,0.4-0.8,0.8c0,0.5,0.4,0.8,0.8,0.8h1.7c0.5,0,0.8-0.4,0.8-0.8
		C6.7,23.7,6.3,23.3,5.8,23.3L5.8,23.3z M5.8,23.3"/>
</g>
</svg>
