<?xml version="1.0" encoding="iso-8859-1"?>
<!-- Generator: Adobe Illustrator 21.1.0, SVG Export Plug-In . SVG Version: 6.00 Build 0)  -->
<svg version="1.1" id="Layer_1" xmlns="http://www.w3.org/2000/svg" xmlns:xlink="http://www.w3.org/1999/xlink" x="0px" y="0px"
	 viewBox="184.34 367.001 45.319 60" style="enable-background:new 184.34 367.001 45.319 60;" xml:space="preserve">
<g>
	<path style="fill:#C1B8B5;" d="M223.277,381.578v5.314l-3.328,0.333c-0.334,1.455-0.909,2.82-1.679,4.049l2.119,2.59l-3.758,3.758
		l-2.59-2.119c-1.229,0.77-2.594,1.344-4.051,1.68l-0.332,3.327h-5.316l-0.332-3.327c-1.457-0.336-2.821-0.91-4.051-1.68
		l-2.59,2.119l-3.758-3.758l2.119-2.59c-0.77-1.229-1.344-2.594-1.679-4.049l-3.328-0.333v-5.314l3.328-0.333
		c0.334-1.457,0.909-2.821,1.679-4.051l-2.119-2.589l3.758-3.758l2.59,2.118c1.229-0.77,2.594-1.344,4.051-1.679l0.332-3.328h5.316
		l0.332,3.328c1.457,0.334,2.821,0.909,4.051,1.679l2.59-2.118l3.758,3.758l-2.119,2.589c0.77,1.229,1.344,2.594,1.679,4.051
		L223.277,381.578z M214.404,384.234c0-4.083-3.321-7.404-7.404-7.404c-4.083,0-7.404,3.321-7.404,7.404
		c0,4.083,3.321,7.404,7.404,7.404C211.083,391.639,214.404,388.317,214.404,384.234z"/>
	<path style="fill:#7F7774;" d="M207,393.17l-1.277-1.532l1.277-2.298c2.82,0,5.106-2.286,5.106-5.106
		c0-2.82-2.286-5.106-5.106-5.106l-1.277-2.298l1.277-1.532c4.928,0,8.936,4.008,8.936,8.936
		C215.936,389.162,211.928,393.17,207,393.17z"/>
	<path style="fill:#A99E9B;" d="M207,389.341v3.83c-4.928,0-8.936-4.008-8.936-8.936c0-4.928,4.008-8.936,8.936-8.936v3.83
		c-2.82,0-5.106,2.286-5.106,5.106C201.894,387.054,204.18,389.341,207,389.341z"/>
	<path style="fill:#276AAD;" d="M216.255,406.409l-2.553,1.065l11.17,18.569h3.83C228.702,417.368,223.612,409.882,216.255,406.409z
		"/>
	<path style="fill:#3891E9;" d="M224.872,426.043h-8.617l-2.553-9.285l2.553-9.285C221.42,411.278,224.872,418.17,224.872,426.043z"
		/>
	<path style="fill:#D8D1D0;" d="M211.28,404.763l-1.357,0.18l6.332,2.53v-1.065C214.69,405.67,213.023,405.112,211.28,404.763z"/>
	<path style="fill:#3891E9;" d="M197.745,406.409l2.553,9.817l-2.553,9.817h-12.447
		C185.298,417.368,190.388,409.882,197.745,406.409z"/>
	<path style="fill:#F0EBEA;" d="M211.2,404.943l-8.48-0.18c-1.743,0.349-3.41,0.906-4.975,1.646v19.634h18.511v-18.569
		C214.708,406.335,213.008,405.472,211.2,404.943z"/>
	<path style="fill:#95341D;" d="M211.28,404.763c-0.858-0.172-1.734-0.293-2.625-0.361l-1.698,1.853v6.383l1.957-2.553
		L211.28,404.763z"/>
	<g>
		<path style="fill:#E26142;" d="M208.656,404.403c-0.471-0.035-0.946-0.056-1.424-0.061c-0.077-0.001-0.154-0.001-0.231-0.001
			c-1.466,0-2.897,0.146-4.28,0.423l2.366,5.322l1.873,2.553l0.779-2.553L208.656,404.403z"/>
		<polygon style="fill:#E26142;" points="208.915,410.085 207.737,410.085 207,426.043 211.149,421.641 		"/>
	</g>
	<polygon style="fill:#F1866D;" points="207.737,410.085 205.085,410.085 202.851,421.641 207,426.043 208.596,421.641 	"/>
	<path style="fill:#353535;" d="M207,390.298c3.344,0,6.064-2.72,6.064-6.064c0-3.344-2.72-6.064-6.064-6.064
		c-3.344,0-6.064,2.72-6.064,6.064S203.657,390.298,207,390.298z M207,380.086c2.288,0,4.149,1.861,4.149,4.149
		s-1.861,4.149-4.149,4.149c-2.288,0-4.149-1.861-4.149-4.149S204.712,380.086,207,380.086z"/>
	<path style="fill:#353535;" d="M190.628,387.845l2.662,0.266c0.302,1.072,0.729,2.102,1.276,3.076l-1.695,2.072
		c-0.311,0.381-0.284,0.935,0.064,1.283l3.758,3.758c0.348,0.348,0.903,0.376,1.283,0.064l2.072-1.695
		c0.974,0.546,2.005,0.974,3.076,1.276l0.266,2.661c0.049,0.489,0.461,0.862,0.953,0.862h5.315c0.492,0,0.904-0.373,0.953-0.862
		l0.266-2.661c1.072-0.302,2.102-0.73,3.076-1.276l2.072,1.695c0.381,0.311,0.936,0.284,1.283-0.064l3.758-3.758
		c0.348-0.348,0.375-0.903,0.064-1.283l-1.695-2.072c0.546-0.974,0.974-2.005,1.276-3.076l2.662-0.266
		c0.489-0.049,0.862-0.461,0.862-0.953v-5.315c0-0.492-0.373-0.904-0.862-0.953l-2.662-0.266c-0.302-1.072-0.729-2.102-1.276-3.076
		l1.695-2.072c0.311-0.381,0.284-0.935-0.064-1.283l-3.758-3.758c-0.348-0.348-0.902-0.376-1.283-0.064l-2.072,1.695
		c-0.974-0.546-2.005-0.974-3.076-1.276l-0.266-2.661c-0.049-0.489-0.461-0.862-0.953-0.862h-5.315
		c-0.492,0-0.904,0.373-0.953,0.862l-0.266,2.661c-1.072,0.302-2.102,0.73-3.076,1.276l-2.071-1.695
		c-0.381-0.311-0.935-0.284-1.283,0.064l-3.758,3.758c-0.348,0.348-0.375,0.903-0.064,1.283l1.695,2.072
		c-0.546,0.974-0.974,2.005-1.276,3.076l-2.662,0.266c-0.489,0.049-0.862,0.461-0.862,0.953v5.315
		C189.766,387.384,190.139,387.796,190.628,387.845z M191.681,382.444l2.465-0.247c0.409-0.041,0.746-0.338,0.838-0.738
		c0.306-1.33,0.83-2.594,1.558-3.757c0.218-0.348,0.19-0.796-0.07-1.114l-1.57-1.919l2.533-2.533l1.919,1.57
		c0.318,0.26,0.766,0.289,1.114,0.07c1.163-0.728,2.427-1.252,3.757-1.558c0.4-0.092,0.697-0.429,0.738-0.838l0.246-2.465h3.582
		l0.247,2.465c0.041,0.409,0.338,0.746,0.738,0.838c1.33,0.306,2.594,0.83,3.757,1.558c0.348,0.218,0.796,0.189,1.114-0.07
		l1.919-1.57l2.533,2.533l-1.57,1.919c-0.26,0.318-0.288,0.766-0.07,1.114c0.728,1.163,1.252,2.427,1.558,3.757
		c0.092,0.4,0.429,0.697,0.838,0.738l2.465,0.246v3.582l-2.465,0.247c-0.409,0.041-0.746,0.338-0.838,0.738
		c-0.306,1.33-0.83,2.594-1.558,3.757c-0.218,0.348-0.19,0.796,0.07,1.114l1.57,1.919l-2.533,2.533l-1.919-1.57
		c-0.318-0.26-0.766-0.288-1.114-0.07c-1.163,0.728-2.427,1.252-3.757,1.558c-0.4,0.092-0.697,0.429-0.738,0.838l-0.246,2.465
		h-3.582l-0.247-2.465c-0.041-0.409-0.338-0.746-0.738-0.838c-1.33-0.306-2.594-0.83-3.757-1.558
		c-0.348-0.218-0.797-0.19-1.114,0.07l-1.919,1.57l-2.533-2.533l1.57-1.919c0.26-0.318,0.288-0.766,0.07-1.114
		c-0.728-1.163-1.252-2.427-1.558-3.757c-0.092-0.4-0.429-0.697-0.838-0.738l-2.465-0.247V382.444z"/>
	<path style="fill:#353535;" d="M207,403.383c-12.495,0-22.66,10.165-22.66,22.66c0,0.529,0.429,0.957,0.957,0.957
		s0.957-0.429,0.957-0.957c0-7.728,4.248-14.482,10.532-18.051v18.051c0,0.529,0.429,0.957,0.957,0.957
		c0.529,0,0.957-0.429,0.957-0.957v-19.011c1.107-0.485,2.264-0.876,3.461-1.163l1.925,4.33l-2.177,11.261
		c-0.058,0.302,0.032,0.614,0.243,0.838l4.149,4.401c0.181,0.192,0.433,0.301,0.697,0.301s0.516-0.109,0.697-0.301l4.149-4.401
		c0.211-0.224,0.302-0.536,0.243-0.838l-2.177-11.261l1.925-4.33c1.197,0.287,2.354,0.678,3.461,1.163v19.011
		c0,0.529,0.429,0.957,0.957,0.957s0.957-0.429,0.957-0.957v-18.051c6.284,3.569,10.532,10.323,10.532,18.051
		c0,0.529,0.429,0.957,0.957,0.957c0.529,0,0.957-0.429,0.957-0.957C229.66,413.548,219.495,403.383,207,403.383z M207,405.298
		c0.986,0,1.955,0.071,2.904,0.204l-1.611,3.626h-2.585l-1.611-3.626C205.045,405.369,206.014,405.298,207,405.298z
		 M210.116,421.342L207,424.647l-3.116-3.305l1.991-10.299h2.25L210.116,421.342z"/>
	<circle cx="220.085" cy="422.213" r="0.957"/>
	<circle cx="220.085" cy="417.107" r="0.957"/>
</g>
</svg>
