<?xml version="1.0" encoding="iso-8859-1"?>
<!-- Generator: Adobe Illustrator 21.1.0, SVG Export Plug-In . SVG Version: 6.00 Build 0)  -->
<svg version="1.1" id="Layer_1" xmlns="http://www.w3.org/2000/svg" xmlns:xlink="http://www.w3.org/1999/xlink" x="0px" y="0px"
	 viewBox="172 363.725 70 66.55" style="enable-background:new 172 363.725 70 66.55;" xml:space="preserve">
<g>
	<path style="fill:#F2BF7E;" d="M238.474,379.991h-26.048l2.184-5.459l-2.184-5.459h28.389v8.578
		C240.815,378.943,239.767,379.991,238.474,379.991z"/>
	<path style="fill:#E2804F;" d="M240.782,377.866l0.068-10.977c0-1.206-1.157-2.158-2.363-2.158h-9.999v10.924h9.999
		C239.693,375.655,240.782,376.66,240.782,377.866"/>
	<g>
		<rect x="201.508" y="400.737" style="fill:#D4E4AC;" width="10.919" height="28.388"/>
		<rect x="179.67" y="412.748" style="fill:#D4E4AC;" width="10.919" height="16.377"/>
	</g>
	<g>
		<rect x="179.67" y="412.748" style="fill:#F2BF7E;" width="10.919" height="6.551"/>
		<rect x="201.508" y="400.737" style="fill:#F2BF7E;" width="10.919" height="12.011"/>
	</g>
	<polyline style="fill:#D4E4AC;" points="223.345,429.125 223.345,389.818 234.264,389.818 234.264,429.125 	"/>
	<rect x="223.344" y="389.817" style="fill:#F2BF7E;" width="10.919" height="4.367"/>
	<g>
		<rect x="179.67" y="419.298" style="fill:#FFFFFF;" width="10.919" height="4.367"/>
		<rect x="201.508" y="412.748" style="fill:#FFFFFF;" width="10.919" height="4.367"/>
		<rect x="223.344" y="394.186" style="fill:#FFFFFF;" width="10.919" height="4.367"/>
	</g>
	<rect x="172" y="428.119" width="70" height="2.156"/>
	<path d="M238.631,363.725h-11.005v23.86h2.156v-10.78h8.849c0.62,0,1.106,0.473,1.106,1.078s-0.486,1.078-1.106,1.078h-7.699v2.156
		h7.699c1.798,0,3.261-1.45,3.262-3.233l0.016-10.946C241.909,365.166,240.439,363.725,238.631,363.725z M239.741,374.842
		c-0.347-0.125-0.721-0.193-1.11-0.193h-8.849v-4.312v-4.456h8.849c0.629,0,1.122,0.464,1.122,1.056L239.741,374.842z"/>
	<polygon points="226.62,381.069 210.834,381.069 213.449,374.532 210.834,367.995 226.621,367.995 226.621,370.151 
		214.019,370.151 215.771,374.532 214.019,378.913 226.62,378.913 	"/>
	<rect x="174.156" y="368.037" style="fill:#D4E4AC;" width="20.842" height="2.156"/>
	<rect x="174.156" y="372.493" width="6.612" height="2.156"/>
	<rect x="182.924" y="372.493" style="fill:#E2804F;" width="5.462" height="2.156"/>
	<rect x="174.156" y="376.661" style="fill:#F2BF7E;" width="9.918" height="2.156"/>
	<rect x="174.156" y="381.117" style="fill:#E2804F;" width="3.306" height="2.156"/>
	<path d="M200.43,399.659v27.283h2.156v-8.74h8.762v8.74h2.156v-27.283H200.43z M211.348,401.815v9.775h-8.763v-9.775H211.348z
		 M202.586,416.045v-2.3h8.762v2.3H202.586z"/>
	<path d="M178.592,411.669v15.272h2.156v-2.272h8.763v2.272h2.156v-15.272H178.592z M189.511,413.825v4.376h-8.763v-4.376H189.511z
		 M180.748,422.513v-2.156h8.763v2.156H180.748z"/>
	<path d="M222.267,388.74v38.201h2.156v-27.282h8.763v27.282h2.156V388.74H222.267z M233.186,390.896v2.295h-8.763v-2.295H233.186z
		 M224.423,397.503v-2.156h8.763v2.156H224.423z"/>
</g>
</svg>
