<?xml version="1.0" encoding="iso-8859-1"?>
<!-- Generator: Adobe Illustrator 21.1.0, SVG Export Plug-In . SVG Version: 6.00 Build 0)  -->
<svg version="1.1" id="Layer_1" xmlns="http://www.w3.org/2000/svg" xmlns:xlink="http://www.w3.org/1999/xlink" x="0px" y="0px"
	 viewBox="180.464 362.001 53.075 70" style="enable-background:new 180.464 362.001 53.075 70;" xml:space="preserve">
<g>
	<g>
		<polygon style="fill:#FF507D;" points="221.38,407.861 210.531,412.424 218.812,430.897 222.737,425.27 229.549,426.084 		"/>
		<polygon style="fill:#FF507D;" points="184.498,426.084 191.311,425.27 195.235,430.897 203.516,412.424 192.667,407.861 		"/>
	</g>
	<g>
		<path style="fill:#D23C69;" d="M197.993,410.101l-5.325-2.24l-8.169,18.224l6.688-0.8l4.523-10.089
			c0.799,0.367,1.674,0.574,2.573,0.574c0.321,0,0.644-0.025,0.961-0.075l2.432-0.383l0.429,0.262l1.412-3.149L197.993,410.101z"/>
		<path style="fill:#D23C69;" d="M218.331,415.179c0.937-0.438,1.767-1.1,2.389-1.956l1.447-1.989l0.655-0.158l-1.441-3.215
			l-5.325,2.24l-5.524,2.323l8.281,18.473l3.925-5.628l0.124,0.015L218.331,415.179z"/>
	</g>
	<path style="fill:#FFC850;" d="M232.045,389.92l-1.451,2.38c-0.327,0.537-0.454,1.173-0.356,1.794l0.433,2.75
		c0.155,0.984-0.255,1.973-1.061,2.559l-2.25,1.636c-0.509,0.371-0.87,0.91-1.019,1.522l-0.655,2.707
		c-0.234,0.967-0.989,1.722-1.956,1.955l-2.707,0.655c-0.612,0.148-1.152,0.509-1.522,1.019l-1.636,2.249
		c-0.586,0.806-1.575,1.216-2.559,1.061l-2.749-0.433c-0.621-0.098-1.257,0.028-1.795,0.356l-2.38,1.451
		c-0.849,0.517-1.915,0.517-2.764,0l-2.38-1.451c-0.537-0.327-1.173-0.454-1.794-0.356l-2.75,0.433
		c-0.984,0.155-1.973-0.255-2.559-1.061l-1.636-2.25c-0.37-0.509-0.91-0.87-1.522-1.019l-2.707-0.655
		c-0.967-0.234-1.722-0.989-1.955-1.956l-0.655-2.707c-0.148-0.612-0.509-1.152-1.019-1.522l-2.249-1.636
		c-0.806-0.586-1.216-1.575-1.061-2.559l0.433-2.749c0.098-0.621-0.028-1.257-0.356-1.795l-1.451-2.38
		c-0.517-0.849-0.517-1.915,0-2.764l1.451-2.38c0.327-0.537,0.454-1.173,0.356-1.794l-0.433-2.75
		c-0.155-0.984,0.255-1.973,1.061-2.559l2.25-1.636c0.509-0.37,0.87-0.91,1.019-1.522l0.655-2.707
		c0.234-0.967,0.989-1.722,1.956-1.955l2.707-0.655c0.612-0.148,1.152-0.509,1.522-1.019l1.636-2.249
		c0.586-0.806,1.575-1.216,2.559-1.061l2.749,0.433c0.621,0.098,1.257-0.028,1.795-0.356l2.38-1.451
		c0.849-0.517,1.915-0.517,2.764,0l2.38,1.451c0.537,0.327,1.173,0.454,1.794,0.356l2.75-0.433c0.984-0.155,1.973,0.255,2.559,1.061
		l1.636,2.25c0.37,0.509,0.91,0.87,1.522,1.019l2.707,0.655c0.967,0.234,1.722,0.989,1.955,1.956l0.655,2.707
		c0.148,0.612,0.509,1.152,1.019,1.522l2.249,1.636c0.806,0.586,1.216,1.575,1.061,2.559l-0.433,2.749
		c-0.098,0.621,0.028,1.257,0.356,1.795l1.451,2.38C232.562,388.005,232.562,389.071,232.045,389.92z"/>
	<path style="fill:#E1A546;" d="M191.704,383.243c0-7.055,2.646-13.489,6.994-18.374l-0.003,0c-0.985-0.155-1.973,0.255-2.559,1.061
		l-1.636,2.249c-0.37,0.509-0.91,0.87-1.522,1.019l-2.707,0.655c-0.967,0.234-1.722,0.989-1.956,1.955l-0.655,2.707
		c-0.148,0.612-0.509,1.152-1.019,1.522l-2.25,1.636c-0.806,0.586-1.216,1.575-1.061,2.559l0.433,2.749
		c0.098,0.621-0.028,1.257-0.356,1.794l-1.452,2.38c-0.517,0.849-0.517,1.915,0,2.764l1.451,2.38
		c0.328,0.537,0.454,1.173,0.356,1.795l-0.433,2.749c-0.155,0.985,0.255,1.973,1.061,2.559l2.249,1.636
		c0.509,0.371,0.87,0.91,1.019,1.522l0.655,2.707c0.234,0.967,0.989,1.722,1.955,1.956l2.707,0.655
		c0.612,0.148,1.152,0.509,1.522,1.019l1.636,2.25c0.586,0.806,1.575,1.216,2.559,1.061l2.749-0.433
		c0.621-0.098,1.257,0.028,1.794,0.356l2.38,1.451c0.849,0.517,1.915,0.517,2.764,0l2.38-1.451c0.537-0.328,1.173-0.454,1.795-0.356
		l2.749,0.433c0.985,0.155,1.973-0.255,2.559-1.061l0.207-0.285C203.397,410.191,191.704,398.084,191.704,383.243z"/>
	<circle style="fill:#FFDC64;" cx="207" cy="388.538" r="18.827"/>
	<path style="fill:#FFC850;" d="M211.251,397.613c-6.669-1.327-12.004-6.665-13.328-13.335c-0.423-2.131-0.432-4.201-0.108-6.16
		c0.123-0.742-0.782-1.2-1.328-0.683c-3.378,3.197-5.301,7.914-4.661,13.06c0.849,6.832,6.384,12.368,13.216,13.217
		c5.147,0.64,9.864-1.283,13.061-4.661c0.517-0.546,0.059-1.45-0.683-1.328C215.459,398.048,213.385,398.038,211.251,397.613z"/>
	<path style="fill:#FFFFFF;" d="M207.001,395.878l-6.371,3.566c-0.663,0.371-1.456-0.205-1.308-0.95l1.423-7.162l-5.361-4.958
		c-0.558-0.516-0.255-1.448,0.5-1.538l7.251-0.86l3.058-6.63c0.318-0.69,1.299-0.69,1.617,0l3.058,6.63l7.251,0.86
		c0.754,0.089,1.057,1.022,0.5,1.538l-5.361,4.958l1.423,7.162c0.148,0.745-0.645,1.321-1.308,0.95L207.001,395.878z"/>
	<path style="fill:#FFFAB4;" d="M207.001,377.948l0.711-0.711c-0.377-0.55-1.224-0.53-1.52,0.11l-3.058,6.63l-7.251,0.86
		c-0.754,0.089-1.057,1.022-0.5,1.538l5.361,4.958l-1.423,7.162c-0.148,0.745,0.645,1.321,1.308,0.95l1.679-0.94l2.433-7.116
		c0.262-0.767,0.111-1.616-0.4-2.245l-0.432-0.532c-0.309-0.38-0.124-0.953,0.35-1.08l0.406-0.109
		c0.96-0.258,1.655-1.091,1.736-2.082L207.001,377.948z"/>
	<path d="M214.942,372.692c0.544,0.275,1.207,0.057,1.482-0.487c0.275-0.544,0.057-1.207-0.487-1.482
		c-7.7-3.891-16.975-2.403-23.08,3.702c-7.095,7.095-7.805,18.408-1.652,26.315c0.218,0.279,0.543,0.426,0.871,0.426
		c0.237,0,0.475-0.076,0.677-0.233c0.481-0.374,0.567-1.067,0.193-1.548c-5.471-7.03-4.839-17.09,1.471-23.4
		C199.846,370.555,208.094,369.232,214.942,372.692z"/>
	<path d="M223.263,379.046c-0.544,0.275-0.762,0.938-0.487,1.482c3.457,6.846,2.134,15.093-3.294,20.521
		c-6.31,6.31-16.369,6.942-23.4,1.471c-0.481-0.374-1.174-0.288-1.548,0.193s-0.288,1.174,0.193,1.548
		c3.602,2.803,7.91,4.182,12.204,4.182c5.133,0,10.247-1.97,14.111-5.834c6.103-6.103,7.591-15.377,3.704-23.076
		C224.471,378.99,223.807,378.771,223.263,379.046z"/>
	<path d="M218.673,375.224c0.275,0.243,0.548,0.499,0.809,0.76c0.261,0.261,0.517,0.533,0.76,0.809
		c0.218,0.247,0.522,0.373,0.827,0.373c0.26,0,0.52-0.091,0.73-0.277c0.457-0.403,0.499-1.1,0.096-1.557
		c-0.273-0.309-0.56-0.615-0.853-0.908c-0.293-0.293-0.598-0.58-0.908-0.853c-0.457-0.404-1.154-0.36-1.557,0.096
		C218.174,374.123,218.217,374.821,218.673,375.224z"/>
	<path d="M232.986,386.582l-1.451-2.38c-0.191-0.314-0.265-0.686-0.208-1.049l0.433-2.749c0.22-1.401-0.355-2.789-1.501-3.623
		l-2.249-1.636c-0.297-0.216-0.509-0.532-0.595-0.89l-0.655-2.707c-0.333-1.375-1.393-2.436-2.768-2.768l-2.707-0.655
		c-0.357-0.086-0.673-0.298-0.89-0.595l-1.636-2.25c-0.834-1.147-2.222-1.722-3.622-1.502l-2.749,0.433
		c-0.363,0.057-0.735-0.017-1.049-0.208l-2.38-1.451c-1.207-0.736-2.706-0.736-3.912,0l-2.38,1.451
		c-0.313,0.191-0.686,0.265-1.049,0.208l-2.749-0.433c-1.4-0.22-2.789,0.355-3.623,1.502l-1.636,2.249
		c-0.216,0.297-0.532,0.509-0.89,0.595l-2.707,0.655c-1.375,0.333-2.436,1.393-2.768,2.768l-0.655,2.707
		c-0.086,0.357-0.298,0.673-0.595,0.89l-2.25,1.636c-1.146,0.834-1.722,2.222-1.502,3.622l0.433,2.75
		c0.057,0.363-0.017,0.735-0.208,1.049l-1.452,2.38c-0.736,1.207-0.736,2.706,0,3.912l1.451,2.38
		c0.191,0.314,0.265,0.686,0.208,1.049l-0.433,2.749c-0.22,1.401,0.355,2.789,1.501,3.623l2.249,1.636
		c0.297,0.216,0.509,0.532,0.595,0.89l0.655,2.707c0.333,1.375,1.393,2.436,2.768,2.768l1.13,0.274l-7.65,17.064
		c-0.163,0.363-0.118,0.785,0.118,1.105c0.235,0.32,0.625,0.489,1.02,0.442l6.155-0.736l3.546,5.085
		c0.208,0.297,0.546,0.472,0.905,0.472c0.034,0,0.069-0.002,0.104-0.005c0.396-0.037,0.741-0.284,0.903-0.647l7.813-17.429
		l0.99,0.604c0.603,0.368,1.28,0.552,1.956,0.552c0.676,0,1.353-0.184,1.956-0.552l1.026-0.625l7.823,17.451
		c0.163,0.363,0.508,0.61,0.903,0.647c0.035,0.003,0.069,0.005,0.104,0.005c0.358,0,0.697-0.175,0.905-0.472l3.546-5.085
		l6.155,0.736c0.395,0.047,0.784-0.121,1.02-0.442c0.235-0.32,0.281-0.742,0.118-1.105l-7.654-17.074l1.088-0.263
		c1.375-0.333,2.436-1.393,2.768-2.768l0.655-2.707c0.086-0.357,0.298-0.673,0.595-0.89l2.25-1.636
		c1.146-0.834,1.722-2.222,1.502-3.622l-0.433-2.75c-0.057-0.363,0.017-0.735,0.208-1.049l1.452-2.38l0,0
		C233.722,389.287,233.722,387.788,232.986,386.582z M195.026,428.668l-2.81-4.03c-0.233-0.334-0.631-0.513-1.036-0.464
		l-4.878,0.583l6.97-15.548c0.127,0.094,0.242,0.206,0.336,0.336l1.636,2.25c0.155,0.214,0.33,0.407,0.521,0.58l-3.669,8.184
		c-0.249,0.556-0.001,1.209,0.555,1.458c0.146,0.066,0.3,0.097,0.451,0.097c0.421,0,0.824-0.243,1.007-0.652l3.656-8.155
		c0.36,0.049,0.73,0.049,1.102-0.01l2.749-0.433c0.165-0.026,0.331-0.024,0.493,0.003L195.026,428.668z M222.868,424.175
		c-0.405-0.049-0.803,0.13-1.036,0.464l-2.81,4.03l-7.086-15.807c0.149-0.02,0.3-0.02,0.45,0.003l2.749,0.433
		c0.387,0.061,0.772,0.059,1.146,0.003l3.658,8.161c0.184,0.409,0.586,0.652,1.007,0.652c0.151,0,0.304-0.031,0.451-0.097
		c0.556-0.249,0.805-0.902,0.555-1.458l-3.682-8.215c0.178-0.165,0.342-0.347,0.488-0.549l1.636-2.249
		c0.103-0.142,0.229-0.263,0.371-0.362l6.981,15.573L222.868,424.175z M231.103,389.345l-1.452,2.38
		c-0.463,0.759-0.642,1.661-0.504,2.54l0.433,2.749c0.091,0.578-0.147,1.151-0.62,1.495l-2.25,1.636
		c-0.72,0.524-1.232,1.289-1.442,2.155l-0.655,2.707c-0.137,0.568-0.575,1.005-1.143,1.143l-2.707,0.655
		c-0.866,0.209-1.631,0.722-2.155,1.442l-1.636,2.249c-0.344,0.473-0.917,0.711-1.496,0.62l-2.749-0.433
		c-0.879-0.138-1.781,0.041-2.54,0.504l-2.38,1.451c-0.498,0.304-1.117,0.304-1.615,0l-2.38-1.451
		c-0.592-0.361-1.271-0.549-1.957-0.549c-0.194,0-0.389,0.015-0.583,0.046l-2.75,0.433c-0.578,0.091-1.151-0.147-1.495-0.62
		l-1.636-2.25c-0.524-0.72-1.289-1.232-2.155-1.442l-2.707-0.655c-0.568-0.137-1.005-0.575-1.143-1.143l-0.655-2.707
		c-0.209-0.866-0.721-1.631-1.442-2.155l-2.249-1.636c-0.473-0.344-0.711-0.917-0.62-1.496l0.433-2.749
		c0.138-0.879-0.041-1.781-0.504-2.54l-1.451-2.38c-0.304-0.498-0.304-1.117,0-1.615l1.452-2.38c0.463-0.759,0.642-1.661,0.504-2.54
		l-0.433-2.749c-0.091-0.578,0.147-1.151,0.62-1.495l2.25-1.636c0.72-0.524,1.232-1.289,1.442-2.155l0.655-2.707
		c0.137-0.568,0.575-1.005,1.143-1.143l2.707-0.655c0.866-0.209,1.631-0.722,2.155-1.442l1.636-2.249
		c0.344-0.473,0.917-0.711,1.496-0.62l2.749,0.433c0.879,0.139,1.781-0.041,2.54-0.504l2.38-1.451c0.498-0.304,1.117-0.304,1.615,0
		l2.38,1.451c0.759,0.463,1.662,0.642,2.54,0.504l2.75-0.433c0.578-0.091,1.151,0.147,1.495,0.62l1.636,2.25
		c0.524,0.72,1.289,1.232,2.155,1.442l2.707,0.655c0.568,0.137,1.005,0.575,1.143,1.143l0.655,2.707
		c0.209,0.866,0.721,1.631,1.442,2.155l2.249,1.636c0.473,0.344,0.711,0.917,0.62,1.496l-0.433,2.749
		c-0.138,0.879,0.041,1.781,0.504,2.54l1.451,2.38C231.407,388.229,231.407,388.847,231.103,389.345z"/>
	<path d="M194.635,387.185l4.908,4.538l-1.303,6.556c-0.153,0.772,0.147,1.539,0.784,2.001c0.351,0.255,0.759,0.384,1.169,0.384
		c0.333,0,0.668-0.085,0.976-0.258l5.833-3.265l5.833,3.265c0.687,0.384,1.509,0.336,2.145-0.127
		c0.637-0.463,0.937-1.229,0.784-2.001l-1.303-6.556l4.908-4.538c0.578-0.534,0.786-1.331,0.542-2.079s-0.88-1.271-1.661-1.364
		l-6.638-0.787l-2.8-6.07c-0.33-0.715-1.023-1.158-1.81-1.158s-1.481,0.444-1.81,1.158l-2.8,6.07l-6.638,0.787
		c-0.781,0.093-1.418,0.615-1.661,1.364C193.849,385.854,194.057,386.651,194.635,387.185z M203.264,385.073
		c0.381-0.045,0.711-0.285,0.872-0.633l2.865-6.211l2.865,6.211c0.161,0.348,0.491,0.588,0.872,0.633l6.793,0.805l-5.022,4.644
		c-0.282,0.26-0.408,0.649-0.333,1.025l1.333,6.709l-5.969-3.341c-0.167-0.094-0.353-0.141-0.539-0.141
		c-0.186,0-0.371,0.047-0.539,0.141l-5.969,3.341l1.333-6.709c0.075-0.376-0.051-0.764-0.333-1.025l-5.022-4.644L203.264,385.073z"
		/>
</g>
</svg>
