<?xml version="1.0" encoding="iso-8859-1"?>
<!-- Generator: Adobe Illustrator 21.1.0, SVG Export Plug-In . SVG Version: 6.00 Build 0)  -->
<svg version="1.1" id="Layer_1" xmlns="http://www.w3.org/2000/svg" xmlns:xlink="http://www.w3.org/1999/xlink" x="0px" y="0px"
	 viewBox="172 362 70 70" style="enable-background:new 172 362 70 70;" xml:space="preserve">
<g>
	<path style="fill:#FFEF9F;" d="M201.873,393.55c-0.444,0-0.858-0.222-1.104-0.591l-2.751-4.127
		c-0.246-0.369-0.66-0.591-1.104-0.591h-22.561c-0.733,0-1.327-0.594-1.327-1.327v-22.561c0-0.733,0.594-1.327,1.327-1.327h28.138
		c0.733,0,1.327,0.594,1.327,1.327v21.234v2.654v3.981c0,0.733-0.594,1.327-1.327,1.327H201.873L201.873,393.55z"/>
	<path style="fill:#FFCC81;" d="M203.817,364.353v21.234v2.654v3.981c0,0.733-0.594,1.327-1.327,1.327h-0.617
		c-0.016,0-0.031-0.002-0.047-0.003v-2.32v-3.451v-24.751h0.663C203.223,363.026,203.817,363.62,203.817,364.353z"/>
	<path style="fill:#FF9C97;" d="M211.51,393.55c-0.733,0-1.327-0.594-1.327-1.327v-3.981v-2.654v-21.234
		c0-0.733,0.594-1.327,1.327-1.327h28.138c0.733,0,1.327,0.594,1.327,1.327v22.561c0,0.733-0.594,1.327-1.327,1.327h-22.561
		c-0.444,0-0.858,0.222-1.104,0.591l-2.751,4.127c-0.246,0.369-0.66,0.591-1.104,0.591L211.51,393.55L211.51,393.55z"/>
	<path style="fill:#FF7C6F;" d="M240.975,364.353v22.561c0,0.733-0.594,1.327-1.327,1.327h-0.663v-25.216h0.663
		C240.38,363.026,240.975,363.62,240.975,364.353z"/>
	<path style="fill:#FFFAD2;" d="M222.953,369.891l6.865,4.706c0.757,0.519,0.758,1.636,0.002,2.156l-6.999,4.821
		c-0.218,0.15-0.477,0.231-0.742,0.231l0,0c-0.722,0-1.308-0.586-1.308-1.308v-9.527c0-0.722,0.586-1.308,1.308-1.308h0.134
		C222.477,369.661,222.735,369.741,222.953,369.891z"/>
	<path style="fill:#FFFFFF;" d="M227.803,376.111l-6.965,4.797c-0.043-0.13-0.067-0.268-0.067-0.412v-9.527
		c0-0.173,0.034-0.337,0.095-0.488l6.936,4.755C228.11,375.447,228.11,375.9,227.803,376.111z"/>
	<path style="fill:#B8F4F2;" d="M202.49,400.451c0.733,0,1.327,0.594,1.327,1.327v3.981v2.654v21.234
		c0,0.733-0.594,1.327-1.327,1.327h-28.138c-0.733,0-1.327-0.594-1.327-1.327v-22.561c0-0.733,0.594-1.327,1.327-1.327h22.561
		c0.444,0,0.858-0.222,1.104-0.591l2.751-4.127c0.246-0.369,0.66-0.591,1.104-0.591L202.49,400.451L202.49,400.451z"/>
	<path style="fill:#7DE5EF;" d="M202.49,430.975h-0.663v-24.751v-3.451v-2.32c0.016-0.001,0.031-0.003,0.047-0.003h0.617
		c0.733,0,1.327,0.594,1.327,1.327v3.981v2.654v21.234C203.817,430.381,203.223,430.975,202.49,430.975z"/>
	<path style="fill:#FFF261;" d="M195.721,418.102c0,4.031-3.268,7.299-7.299,7.299c-4.031,0-7.299-3.268-7.299-7.299
		s3.268-7.299,7.299-7.299C192.453,410.803,195.721,414.071,195.721,418.102z"/>
	<path style="fill:#FFC561;" d="M195.721,418.102c0,4.031-3.268,7.299-7.299,7.299c-0.477,0-0.943-0.047-1.394-0.135
		c3.364-0.651,5.905-3.61,5.905-7.165c0-3.554-2.541-6.514-5.905-7.165c0.451-0.087,0.917-0.135,1.394-0.135
		C192.453,410.803,195.721,414.071,195.721,418.102z"/>
	<path style="fill:#B9F088;" d="M212.127,400.451c0.444,0,0.858,0.222,1.104,0.591l2.751,4.127c0.246,0.369,0.66,0.591,1.104,0.591
		h22.561c0.733,0,1.327,0.594,1.327,1.327v22.561c0,0.733-0.594,1.327-1.327,1.327H211.51c-0.733,0-1.327-0.594-1.327-1.327v-21.234
		v-2.654v-3.981c0-0.733,0.594-1.327,1.327-1.327H212.127z"/>
	<path style="fill:#8DDD64;" d="M239.647,430.975h-0.663v-25.216h0.663c0.733,0,1.327,0.594,1.327,1.327v22.561
		C240.975,430.381,240.38,430.975,239.647,430.975z"/>
	<path style="fill:#B7B7B7;" d="M220.561,421.42h-2.574c-0.755,0-1.367-0.612-1.367-1.367v-3.901c0-0.755,0.612-1.367,1.367-1.367
		h2.574c0.755,0,1.367,0.612,1.367,1.367v3.901C221.928,420.808,221.316,421.42,220.561,421.42z"/>
	<path style="fill:#A0A0A0;" d="M221.928,416.111v3.981c0,0.733-0.594,1.327-1.327,1.327h-1.126v-6.636h1.126
		C221.334,414.784,221.928,415.378,221.928,416.111z"/>
	<path style="fill:#EAFFB4;" d="M226.03,424.677l-5.43-3.258v-6.636l5.43-3.258c0.531-0.318,1.206,0.064,1.206,0.683v11.786
		C227.236,424.614,226.561,424.996,226.03,424.677z"/>
	<path style="fill:#FFFCEE;" d="M225.447,424.328l-4.847-2.908v-6.636l4.847-2.908V424.328z"/>
	<path d="M204.843,364.353v27.87c0,1.297-1.055,2.353-2.353,2.353h-0.617c-0.788,0-1.52-0.392-1.957-1.048l-2.751-4.127
		c-0.056-0.084-0.15-0.134-0.251-0.134h-22.561c-1.297,0-2.353-1.055-2.353-2.352v-14.599c0-0.566,0.459-1.025,1.025-1.025
		s1.025,0.459,1.025,1.025v14.599c0,0.166,0.135,0.302,0.302,0.302h22.561c0.788,0,1.52,0.392,1.957,1.048l2.751,4.127
		c0.056,0.084,0.15,0.134,0.251,0.134h0.617c0.166,0,0.302-0.135,0.302-0.302v-27.87c0-0.166-0.135-0.302-0.302-0.302h-28.138
		c-0.166,0-0.302,0.135-0.302,0.302v3.981c0,0.566-0.459,1.025-1.025,1.025S172,368.901,172,368.334v-3.981
		c0-1.297,1.055-2.353,2.353-2.353h28.138C203.787,362,204.843,363.056,204.843,364.353z M202.49,399.16h-0.617
		c-0.788,0-1.52,0.392-1.957,1.048l-2.751,4.127c-0.056,0.084-0.15,0.134-0.251,0.134h-15.926c-0.566,0-1.025,0.459-1.025,1.025
		c0,0.566,0.459,1.025,1.025,1.025h15.926c0.788,0,1.52-0.392,1.957-1.048l2.751-4.127c0.056-0.084,0.15-0.134,0.251-0.134h0.617
		c0.166,0,0.302,0.135,0.302,0.302v28.135c0,0.166-0.135,0.302-0.302,0.302h-28.138c-0.166,0-0.302-0.135-0.302-0.302v-22.827
		c0-0.166,0.135-0.302,0.302-0.302h2.654c0.566,0,1.025-0.459,1.025-1.025s-0.459-1.025-1.025-1.025h-2.654
		c-1.297,0-2.353,1.055-2.353,2.353v22.827c0,1.297,1.055,2.353,2.353,2.353h28.138c1.297,0,2.353-1.055,2.353-2.353v-28.135
		C204.843,400.216,203.787,399.16,202.49,399.16z M239.647,362H211.51c-1.297,0-2.353,1.055-2.353,2.353v27.87
		c0,1.297,1.055,2.353,2.353,2.353h0.617c0.788,0,1.52-0.392,1.957-1.048l2.751-4.127c0.056-0.084,0.15-0.134,0.251-0.134h15.66
		c0.566,0,1.025-0.459,1.025-1.025s-0.459-1.025-1.025-1.025h-15.66c-0.788,0-1.52,0.392-1.957,1.048l-2.751,4.127
		c-0.056,0.084-0.15,0.134-0.251,0.134h-0.617c-0.166,0-0.302-0.135-0.302-0.302v-27.87c0-0.166,0.135-0.302,0.302-0.302h28.138
		c0.166,0,0.302,0.135,0.302,0.302v22.561c0,0.166-0.135,0.302-0.302,0.302h-2.92c-0.566,0-1.025,0.459-1.025,1.025
		s0.459,1.025,1.025,1.025h2.92c1.297,0,2.353-1.055,2.353-2.353v-22.561C242,363.056,240.945,362,239.647,362z M239.647,404.469
		h-22.561c-0.101,0-0.195-0.05-0.251-0.134l-2.751-4.127c-0.437-0.656-1.169-1.048-1.957-1.048h-0.617
		c-1.297,0-2.353,1.055-2.353,2.353v21.234c0,0.566,0.459,1.025,1.025,1.025s1.025-0.459,1.025-1.025v-21.234
		c0-0.166,0.135-0.302,0.302-0.302h0.617c0.101,0,0.195,0.05,0.251,0.134l2.751,4.127c0.437,0.656,1.169,1.048,1.957,1.048h22.561
		c0.166,0,0.302,0.135,0.302,0.302v22.827c0,0.166-0.135,0.302-0.302,0.302H211.51c-0.166,0-0.302-0.135-0.302-0.302v-2.92
		c0-0.566-0.459-1.025-1.025-1.025c-0.566,0-1.025,0.459-1.025,1.025v2.92c0,1.297,1.055,2.353,2.353,2.353h28.138
		c1.297,0,2.353-1.055,2.353-2.353v-22.827C242,405.524,240.945,404.469,239.647,404.469z M179.131,372.014h18.58
		c0.566,0,1.025-0.459,1.025-1.025s-0.459-1.025-1.025-1.025h-18.58c-0.566,0-1.025,0.459-1.025,1.025
		S178.565,372.014,179.131,372.014z M179.131,375.995h18.58c0.566,0,1.025-0.459,1.025-1.025s-0.459-1.025-1.025-1.025h-18.58
		c-0.566,0-1.025,0.459-1.025,1.025S178.565,375.995,179.131,375.995z M179.131,379.977h9.558c0.566,0,1.025-0.459,1.025-1.025
		s-0.459-1.025-1.025-1.025h-9.558c-0.566,0-1.025,0.459-1.025,1.025S178.565,379.977,179.131,379.977z M230.398,373.751
		c0.634,0.435,1.013,1.153,1.014,1.922c0.001,0.769-0.377,1.488-1.01,1.924l-6.999,4.821c-0.391,0.269-0.849,0.412-1.324,0.412
		c-1.287,0-2.333-1.047-2.333-2.333v-9.527c0-1.287,1.047-2.333,2.333-2.333h0.134c0.473,0,0.929,0.141,1.319,0.409L230.398,373.751
		z M229.361,375.675c0-0.056-0.016-0.16-0.123-0.233l-6.865-4.706c-0.047-0.032-0.103-0.049-0.16-0.049h-0.134
		c-0.156,0-0.283,0.127-0.283,0.283v9.527c0,0.156,0.127,0.283,0.283,0.283c0.057,0,0.113-0.017,0.16-0.05l6.999-4.821
		C229.345,375.835,229.361,375.731,229.361,375.675z M218.013,422.445c-1.297,0-2.353-1.055-2.353-2.353v-3.981
		c0-1.297,1.055-2.353,2.353-2.353h2.37l5.186-3.112c0.562-0.337,1.265-0.346,1.835-0.023c0.57,0.323,0.924,0.93,0.924,1.585v11.786
		c0,0.655-0.354,1.262-0.924,1.585c-0.278,0.158-0.588,0.236-0.897,0.236c-0.325,0-0.65-0.087-0.937-0.259l-5.186-3.112H218.013
		L218.013,422.445z M221.693,415.365v5.474l4.585,2.751v-10.976L221.693,415.365z M218.013,420.394h1.629v-4.585h-1.629
		c-0.166,0-0.302,0.135-0.302,0.302v3.981C217.712,420.259,217.847,420.394,218.013,420.394z M232.045,419.65v-3.097
		c0-0.566-0.459-1.025-1.025-1.025c-0.566,0-1.025,0.459-1.025,1.025v3.097c0,0.566,0.459,1.025,1.025,1.025
		C231.586,420.676,232.045,420.216,232.045,419.65z M235.496,422.747v-9.29c0-0.566-0.459-1.025-1.025-1.025
		c-0.566,0-1.025,0.459-1.025,1.025v9.29c0,0.566,0.459,1.025,1.025,1.025C235.037,423.772,235.496,423.313,235.496,422.747z
		 M188.421,426.426c-4.59,0-8.325-3.734-8.325-8.325s3.734-8.325,8.325-8.325s8.325,3.734,8.325,8.325
		S193.012,426.426,188.421,426.426z M188.421,424.376c3.459,0,6.274-2.814,6.274-6.274s-2.814-6.274-6.274-6.274
		c-3.46,0-6.274,2.814-6.274,6.274S184.962,424.376,188.421,424.376z M192.546,418.969c0.113-0.555-0.246-1.096-0.801-1.209
		c-0.555-0.112-1.096,0.246-1.209,0.801c-0.216,1.062-1.16,1.833-2.247,1.833c-1.086,0-2.031-0.771-2.247-1.833
		c-0.113-0.555-0.654-0.914-1.209-0.801c-0.555,0.113-0.914,0.654-0.801,1.209c0.409,2.014,2.199,3.476,4.256,3.476
		C190.347,422.445,192.137,420.983,192.546,418.969z M186.298,416.739h0.265c0.566,0,1.025-0.459,1.025-1.025
		c0-0.566-0.459-1.025-1.025-1.025h-0.265c-0.566,0-1.025,0.459-1.025,1.025C185.273,416.279,185.732,416.739,186.298,416.739z
		 M190.279,416.739h0.265c0.566,0,1.025-0.459,1.025-1.025c0-0.566-0.459-1.025-1.025-1.025h-0.265
		c-0.566,0-1.025,0.459-1.025,1.025C189.254,416.279,189.713,416.739,190.279,416.739z"/>
</g>
</svg>
