<?xml version="1.0" encoding="iso-8859-1"?>
<!-- Generator: Adobe Illustrator 21.1.0, SVG Export Plug-In . SVG Version: 6.00 Build 0)  -->
<svg version="1.1" id="&#x421;&#x43B;&#x43E;&#x439;_1"
	 xmlns="http://www.w3.org/2000/svg" xmlns:xlink="http://www.w3.org/1999/xlink" x="0px" y="0px" viewBox="0 0 10 12"
	 style="enable-background:new 0 0 10 12;" xml:space="preserve">
<g>
	<path d="M9.729,0H0.271C0.121,0,0,0.109,0,0.243v1.151c0,0.134,0.121,0.243,0.271,0.243H1.04c0.037,1.005,0.301,1.957,0.771,2.766
		c0.508,0.874,1.206,1.503,2.02,1.82c0.035,0.014,0.072,0.02,0.108,0.02c0.105,0,0.204-0.055,0.249-0.146
		c0.06-0.123-0.003-0.266-0.14-0.32C2.652,5.233,1.661,3.551,1.583,1.637h8.146C9.879,1.637,10,1.528,10,1.394V0.243
		C10,0.109,9.879,0,9.729,0L9.729,0z M9.458,1.151H0.542V0.486h8.916V1.151z M9.458,1.151"/>
	<path d="M9.729,10.363H8.96C8.923,9.358,8.659,8.407,8.189,7.597C7.781,6.895,7.249,6.351,6.634,5.999
		c0.515-0.295,0.975-0.729,1.35-1.275c0.48-0.698,0.799-1.55,0.922-2.463c0.018-0.133-0.088-0.254-0.237-0.27
		C8.522,1.975,8.387,2.07,8.369,2.203C8.14,3.891,7.192,5.294,5.952,5.777C5.854,5.816,5.789,5.903,5.789,6
		c0,0.097,0.064,0.184,0.163,0.223c1.395,0.544,2.387,2.226,2.465,4.141H2.726C2.819,9.613,3.803,9.022,5,9.022
		c0.863,0,1.669,0.323,2.052,0.822c0.07,0.092,0.211,0.115,0.313,0.052c0.103-0.063,0.128-0.189,0.058-0.28
		C6.951,9,6.023,8.618,5,8.618c-1.449,0-2.638,0.773-2.727,1.745H1.582C1.64,8.93,2.202,7.614,3.11,6.807
		c0.106-0.094,0.107-0.248,0.001-0.344C3.006,6.368,2.834,6.367,2.728,6.462C1.72,7.358,1.099,8.803,1.04,10.363H0.271
		C0.121,10.363,0,10.472,0,10.606v1.151C0,11.891,0.121,12,0.271,12h9.458C9.879,12,10,11.891,10,11.757v-1.151
		C10,10.472,9.879,10.363,9.729,10.363L9.729,10.363z M9.458,11.514H0.542v-0.665h8.916V11.514z M9.458,11.514"/>
	<path d="M5,8.351c0.071,0,0.141-0.026,0.192-0.071c0.051-0.045,0.079-0.108,0.079-0.172c0-0.064-0.029-0.127-0.079-0.172
		C5.141,7.891,5.071,7.865,5,7.865c-0.071,0-0.141,0.026-0.192,0.071C4.758,7.981,4.729,8.044,4.729,8.108
		c0,0.064,0.029,0.127,0.079,0.172C4.859,8.325,4.929,8.351,5,8.351L5,8.351z M5,8.351"/>
	<path d="M5,6.811c-0.071,0-0.141,0.026-0.192,0.071C4.758,6.928,4.729,6.99,4.729,7.054c0,0.064,0.029,0.127,0.079,0.172
		C4.859,7.271,4.929,7.297,5,7.297c0.071,0,0.141-0.026,0.192-0.071C5.242,7.18,5.271,7.118,5.271,7.054
		c0-0.064-0.029-0.126-0.079-0.172C5.141,6.837,5.071,6.811,5,6.811L5,6.811z M5,6.811"/>
	<path d="M5.192,5.828C5.141,5.783,5.071,5.757,5,5.757c-0.071,0-0.141,0.026-0.192,0.071C4.758,5.873,4.729,5.936,4.729,6
		c0,0.064,0.029,0.126,0.079,0.172C4.859,6.217,4.929,6.243,5,6.243c0.071,0,0.141-0.026,0.192-0.071
		C5.242,6.126,5.271,6.064,5.271,6C5.271,5.936,5.242,5.873,5.192,5.828L5.192,5.828z M5.192,5.828"/>
	<path d="M6.594,4.532C6.993,4.091,7.306,3.495,7.5,2.807c0.02-0.073,0.002-0.15-0.049-0.209C7.4,2.539,7.321,2.504,7.237,2.504
		H2.763c-0.084,0-0.162,0.035-0.214,0.094C2.497,2.657,2.479,2.734,2.5,2.807c0.194,0.688,0.507,1.284,0.906,1.726
		C3.867,5.042,4.418,5.311,5,5.311C5.582,5.311,6.133,5.042,6.594,4.532L6.594,4.532z M5,4.825c-0.857,0-1.534-0.879-1.878-1.835
		h3.755C6.534,3.946,5.857,4.825,5,4.825L5,4.825z M5,4.825"/>
</g>
</svg>
