<?xml version="1.0" encoding="iso-8859-1"?>
<!-- Generator: Adobe Illustrator 21.1.0, SVG Export Plug-In . SVG Version: 6.00 Build 0)  -->
<svg version="1.1" id="&#x421;&#x43B;&#x43E;&#x439;_1"
	 xmlns="http://www.w3.org/2000/svg" xmlns:xlink="http://www.w3.org/1999/xlink" x="0px" y="0px" viewBox="0 0 12 12"
	 style="enable-background:new 0 0 12 12;" xml:space="preserve">
<g>
	<path d="M11.785,0.8h-1.501V0.2c0-0.111-0.095-0.2-0.213-0.2H8.571C8.453,0,8.357,0.09,8.357,0.2v0.6H3.643V0.2
		C3.643,0.09,3.547,0,3.429,0H1.928C1.81,0,1.714,0.09,1.714,0.2v0.6H0.215C0.096,0.8,0,0.89,0,1v10.8C0,11.91,0.096,12,0.215,12
		h11.571C11.904,12,12,11.91,12,11.8V1C12,0.89,11.904,0.8,11.785,0.8L11.785,0.8z M8.786,0.401h1.071V1.6H8.786V0.401z
		 M2.143,0.401h1.071V1.6H2.143V0.401z M0.429,1.2h1.285v0.6C1.714,1.91,1.81,2,1.928,2h1.501c0.118,0,0.215-0.09,0.215-0.2V1.2
		h4.713v0.6C8.357,1.91,8.453,2,8.571,2h1.501c0.118,0,0.213-0.09,0.213-0.2V1.2h1.286V3H0.429V1.2z M0.429,11.599V3.401h11.142
		v8.199H0.429z M0.429,11.599"/>
	<path d="M7.714,4.599H1.928V10.4h8.143V4.599H7.714z M6.214,5h1.501v1.4H6.214V5z M7.714,8.2H6.214V6.8h1.501V8.2z M4.286,6.8
		h1.501v1.4H4.286V6.8z M4.286,5h1.501v1.4H4.286V5z M2.357,5h1.499v1.4H2.357V5z M2.357,6.8h1.499v1.4H2.357V6.8z M3.857,10H2.357
		v-1.4h1.499V10z M5.786,10H4.286v-1.4h1.501V10z M7.714,10H6.214v-1.4h1.501V10z M9.643,10H8.142v-1.4h1.501V10z M9.643,8.2H8.142
		V6.8h1.501V8.2z M9.643,5v1.4H8.142V5H9.643z M9.643,5"/>
</g>
</svg>
