<?xml version="1.0" encoding="iso-8859-1"?>
<!-- Generator: Adobe Illustrator 21.1.0, SVG Export Plug-In . SVG Version: 6.00 Build 0)  -->
<svg version="1.1" id="&#x421;&#x43B;&#x43E;&#x439;_1"
	 xmlns="http://www.w3.org/2000/svg" xmlns:xlink="http://www.w3.org/1999/xlink" x="0px" y="0px" viewBox="0 0 18.642 20"
	 style="enable-background:new 0 0 18.642 20;" xml:space="preserve">
<g>
	<g>
		<defs>
			<rect id="SVGID_1_" width="18.642" height="20"/>
		</defs>
		<clipPath id="SVGID_2_">
			<use xlink:href="#SVGID_1_"  style="overflow:visible;"/>
		</clipPath>
		<path style="clip-path:url(#SVGID_2_);" d="M9.495,5.581H8.121c-0.172,0-0.314,0.142-0.314,0.314v3.486H7.371
			c-0.172,0-0.314,0.143-0.314,0.314c0,0.172,0.143,0.314,0.314,0.314h0.436v0.541H7.371c-0.172,0-0.314,0.143-0.314,0.314
			c0,0.172,0.143,0.314,0.314,0.314h0.436v1.634c0,0.172,0.143,0.314,0.314,0.314c0.172,0,0.314-0.142,0.314-0.314v-1.634h1.995
			c0.172,0,0.314-0.142,0.314-0.314c0-0.172-0.143-0.314-0.314-0.314H8.435V10.01h1.052c1.161,0,2.103-0.985,2.103-2.2
			C11.59,6.6,10.673,5.619,9.495,5.581L9.495,5.581z M9.487,9.382H8.435V6.21h1.048c0.83,0.029,1.479,0.733,1.479,1.601
			C10.962,8.678,10.3,9.382,9.487,9.382L9.487,9.382z M9.487,9.382"/>
		<path style="clip-path:url(#SVGID_2_);" d="M9.34,0.013c-2.493,0-4.84,0.972-6.604,2.736C0.972,4.513,0,6.859,0,9.353v1.303
			c0,3.306,1.785,6.386,4.651,8.033c1.425,0.826,3.038,1.261,4.672,1.261s3.247-0.436,4.668-1.257
			c1.42-0.809,2.602-1.978,3.415-3.39c0.813-1.404,1.24-3.013,1.24-4.647V9.353C18.647,4.203,14.473,0.013,9.34,0.013L9.34,0.013z
			 M13.677,18.144c-1.345,0.779-2.849,1.169-4.354,1.169s-3.013-0.39-4.358-1.169c-1.546-0.888-2.753-2.221-3.499-3.784
			c1.659,2.585,4.567,4.299,7.869,4.299c3.294,0,6.193-1.718,7.848-4.307C16.443,15.927,15.232,17.26,13.677,18.144L13.677,18.144z
			 M9.34,18.035c-4.802,0-8.712-3.893-8.712-8.678c0-4.806,3.91-8.712,8.712-8.712c4.785,0,8.678,3.91,8.678,8.712
			C18.018,14.142,14.125,18.035,9.34,18.035L9.34,18.035z M9.34,18.035"/>
	</g>
	<path d="M9.323,2.208c-3.939,0-7.144,3.205-7.144,7.144c0,3.939,3.205,7.144,7.144,7.144s7.144-3.205,7.144-7.144
		C16.468,5.414,13.262,2.208,9.323,2.208L9.323,2.208z M9.323,15.868c-3.591,0-6.516-2.925-6.516-6.516
		c0-3.591,2.925-6.516,6.516-6.516s6.516,2.925,6.516,6.516C15.839,12.944,12.914,15.868,9.323,15.868L9.323,15.868z M9.323,15.868"
		/>
</g>
</svg>
