<?xml version="1.0" encoding="iso-8859-1"?>
<!-- Generator: Adobe Illustrator 21.1.0, SVG Export Plug-In . SVG Version: 6.00 Build 0)  -->
<svg version="1.1" id="Capa_1" xmlns="http://www.w3.org/2000/svg" xmlns:xlink="http://www.w3.org/1999/xlink" x="0px" y="0px"
	 viewBox="201 391.001 12 12" style="enable-background:new 201 391.001 12 12;" xml:space="preserve">
<g>
	<path d="M211.243,392.758c-1.133-1.133-2.639-1.757-4.242-1.757c-1.602,0-3.109,0.624-4.242,1.757
		c-1.121,1.121-1.743,2.607-1.756,4.191c-0.002,0.016-0.004,0.032-0.004,0.049c0,0.017,0.002,0.033,0.004,0.048
		c0.012,1.586,0.634,3.075,1.756,4.197c1.133,1.133,2.639,1.757,4.242,1.757c1.602,0,3.109-0.624,4.242-1.757
		c1.133-1.133,1.757-2.64,1.757-4.243S212.376,393.891,211.243,392.758z M201.718,397.349h1.265c0.194,0,0.352-0.158,0.352-0.352
		s-0.157-0.352-0.352-0.352h-1.264c0.072-1.097,0.477-2.129,1.167-2.978l0.407,0.392c0.068,0.066,0.156,0.098,0.244,0.098
		c0.092,0,0.184-0.036,0.253-0.108c0.135-0.14,0.131-0.363-0.009-0.497l-0.416-0.401c0.902-0.854,2.053-1.356,3.286-1.436v1.268
		c0,0.194,0.157,0.352,0.352,0.352c0.194,0,0.352-0.157,0.352-0.352v-1.268c1.231,0.08,2.38,0.58,3.282,1.432l-0.402,0.417
		c-0.135,0.14-0.131,0.363,0.009,0.497c0.068,0.066,0.156,0.098,0.244,0.098c0.092,0,0.184-0.036,0.253-0.108l0.375-0.389
		c0.692,0.85,1.098,1.884,1.171,2.982h-1.271c-0.194,0-0.352,0.158-0.352,0.352s0.157,0.352,0.352,0.352h1.271
		c-0.075,1.168-0.529,2.264-1.302,3.143l-0.405-0.39c-0.14-0.135-0.362-0.131-0.497,0.009c-0.135,0.14-0.131,0.363,0.009,0.497
		l0.395,0.381c-0.877,0.769-1.968,1.22-3.132,1.296v-1.268c0-0.194-0.157-0.352-0.352-0.352c-0.194,0-0.352,0.157-0.352,0.352v1.268
		c-1.033-0.067-2.008-0.43-2.828-1.049l0.37-0.384c0.135-0.14,0.131-0.363-0.009-0.497c-0.14-0.135-0.362-0.131-0.497,0.009
		l-0.397,0.412c-0.01-0.01-0.021-0.02-0.031-0.031C202.34,399.828,201.801,398.633,201.718,397.349z"/>
	<path d="M206.812,397.296l1.983,1.608c0.065,0.053,0.143,0.078,0.221,0.078c0.102,0,0.204-0.045,0.273-0.13
		c0.122-0.151,0.099-0.372-0.052-0.495l-1.884-1.527v-2.571c0-0.194-0.157-0.352-0.352-0.352c-0.194,0-0.352,0.157-0.352,0.352
		v2.742C206.65,397.125,206.714,397.234,206.812,397.296z"/>
</g>
</svg>
