<?xml version="1.0" encoding="iso-8859-1"?>
<!-- Generator: Adobe Illustrator 21.1.0, SVG Export Plug-In . SVG Version: 6.00 Build 0)  -->
<svg version="1.1" id="Layer_1" xmlns="http://www.w3.org/2000/svg" xmlns:xlink="http://www.w3.org/1999/xlink" x="0px" y="0px"
	 viewBox="179.5 372.365 55 49.27" style="enable-background:new 179.5 372.365 55 49.27;" xml:space="preserve">
<g>
	<rect x="182.078" y="376.887" style="fill:#48CFAD;" width="49.844" height="31.724"/>
	<rect x="186.052" y="404.242" style="fill:#FFCE54;" width="9.561" height="4.351"/>
	<g>
		<rect x="204.995" y="373.59" style="fill:#FFE1C5;" width="3.939" height="2.578"/>
		<polygon style="fill:#FFE1C5;" points="197.332,409.11 191.89,420.067 196.258,420.64 202.202,409.11 		"/>
		<polygon style="fill:#FFE1C5;" points="216.918,409.11 211.297,409.11 218.242,420.64 222.539,420.067 		"/>
	</g>
	<g>
		<path style="fill:#080808;" d="M233.355,407.885v-30.937c0-0.631-0.514-1.145-1.148-1.145h-21.77v-2.293
			c0-0.631-0.514-1.145-1.145-1.145h-4.585c-0.633,0-1.146,0.514-1.146,1.145v2.293h-21.771c-0.633,0-1.146,0.514-1.146,1.145
			v30.937c-0.633,0-1.146,0.514-1.146,1.146s0.513,1.146,1.146,1.146h1.146h4.583h9.096l-5.51,9.749
			c-0.201,0.354-0.198,0.789,0.008,1.141c0.206,0.352,0.582,0.567,0.989,0.567h5.265c0.413,0,0.794-0.221,0.997-0.581l2.262-4.002
			h15.056l2.254,3.988c0.203,0.359,0.584,0.581,0.997,0.581h5.266c0.408,0,0.784-0.215,0.99-0.567
			c0.205-0.352,0.208-0.785,0.008-1.141l-5.504-9.735h13.658h1.148c0.631,0,1.145-0.514,1.145-1.146
			S233.987,407.885,233.355,407.885z M205.854,374.656h2.291v1.146h-2.291V374.656z M193.25,407.885
			c0-0.631-0.513-1.145-1.146-1.145c-0.633,0-1.146,0.514-1.146,1.145h-3.437v-2.291h1.146c0,0.633,0.513,1.146,1.146,1.146
			c0.633,0,1.146-0.514,1.146-1.146h3.438v2.291H193.25z M195.555,419.344h-2.633l5.181-9.166h2.633L195.555,419.344z
			 M200.778,414.76l2.59-4.582h7.285l2.591,4.582H200.778z M221.091,419.33h-2.632l-5.175-9.153h2.632L221.091,419.33z
			 M228.77,407.885c0-0.631-0.512-1.145-1.145-1.145h-4.582c-0.634,0-1.148,0.514-1.148,1.145h-25.207v-3.437
			c0-0.631-0.513-1.145-1.146-1.145h-9.167c-0.633,0-1.146,0.514-1.146,1.145v3.437h-2.292v-29.791h48.125v29.791H228.77z"/>
		<path style="fill:#080808;" d="M200.132,396.428h-1.785c0.117-0.129,0.235-0.262,0.353-0.4c1.72-1.991,2.585-3.78,2.572-5.322
			c-0.012-1.271-0.619-2.335-1.667-2.924c-1.115-0.626-2.544-0.609-3.639,0.045c-1.015,0.608-1.583,1.665-1.56,2.9
			c0.011,0.633,0.536,1.136,1.167,1.125c0.633-0.01,1.136-0.534,1.125-1.167c-0.008-0.415,0.138-0.707,0.444-0.891
			c0.384-0.228,0.949-0.235,1.342-0.013c0.331,0.185,0.493,0.493,0.497,0.945c0.018,2.018-3.097,5.057-4.189,5.964
			c-0.373,0.309-0.511,0.816-0.347,1.272c0.164,0.453,0.595,0.757,1.078,0.757h4.611c0.633,0,1.146-0.512,1.146-1.146
			C201.278,396.941,200.765,396.428,200.132,396.428z"/>
		<path style="fill:#080808;" d="M218.479,396.428h-1.786c0.118-0.129,0.237-0.262,0.354-0.4c1.719-1.991,2.585-3.78,2.572-5.322
			c-0.012-1.271-0.619-2.335-1.667-2.924c-1.116-0.626-2.545-0.609-3.641,0.045c-1.014,0.608-1.581,1.665-1.559,2.9
			c0.012,0.633,0.537,1.136,1.167,1.125c0.633-0.01,1.136-0.534,1.125-1.167c-0.007-0.415,0.138-0.707,0.445-0.891
			c0.384-0.228,0.948-0.235,1.341-0.013c0.331,0.185,0.494,0.493,0.497,0.945c0.018,2.018-3.095,5.057-4.188,5.964
			c-0.373,0.309-0.512,0.816-0.347,1.272c0.163,0.453,0.594,0.757,1.078,0.757h4.611c0.633,0,1.146-0.512,1.146-1.146
			C219.625,396.941,219.112,396.428,218.479,396.428z"/>
		<path style="fill:#080808;" d="M209.35,390.592c-0.446-0.448-1.172-0.448-1.62,0l-0.811,0.811l-0.81-0.811
			c-0.447-0.448-1.173-0.448-1.621,0c-0.447,0.448-0.447,1.173,0,1.62l0.811,0.812l-0.811,0.809c-0.447,0.446-0.447,1.173,0,1.621
			c0.224,0.223,0.517,0.336,0.811,0.336c0.293,0,0.586-0.114,0.81-0.336l0.81-0.812l0.811,0.812c0.223,0.223,0.517,0.336,0.81,0.336
			c0.293,0,0.587-0.114,0.81-0.336c0.448-0.448,0.448-1.175,0-1.621l-0.81-0.809l0.81-0.812
			C209.798,391.765,209.798,391.04,209.35,390.592z"/>
	</g>
</g>
</svg>
