<?xml version="1.0" encoding="iso-8859-1"?>
<!-- Generator: Adobe Illustrator 21.1.0, SVG Export Plug-In . SVG Version: 6.00 Build 0)  -->
<svg version="1.1" id="Layer_1" xmlns="http://www.w3.org/2000/svg" xmlns:xlink="http://www.w3.org/1999/xlink" x="0px" y="0px"
	 viewBox="179.501 371.216 55 51.568" style="enable-background:new 179.501 371.216 55 51.568;" xml:space="preserve">
<g>
	<path style="fill:#C7CFE2;" d="M209.628,375.455h20.654c1.893,0,3.442,1.549,3.442,3.442v12.048c0,1.893-1.549,3.442-3.442,3.442
		h-18.091v3.264c0,0.383-0.464,0.575-0.735,0.304c0,0-5.271-5.118-5.271-7.011v-12.048
		C206.186,377.004,207.735,375.455,209.628,375.455z"/>
	<path style="fill:#E4EAF6;" d="M206.293,372.19h-22.806c-1.893,0-3.442,1.549-3.442,3.442v12.048c0,1.893,1.549,3.442,3.442,3.442
		h13.339v3.264c0,0.383,0.464,0.575,0.735,0.304l3.568-3.568h5.164c1.893,0,3.442-1.549,3.442-3.442v-12.048
		C209.736,373.739,208.187,372.19,206.293,372.19z"/>
	<g>
		<path style="fill:#E6AF78;" d="M198.792,415.774c-0.282-0.081-1.165-0.401-1.167-1.11l-0.007-2.081l-6.932,0.015l0.001,2.081
			c0.001,0.625-0.683,0.95-1.039,1.075l4.515,2.764L198.792,415.774z"/>
		<path style="fill:#E6AF78;" d="M197.625,414.664l-0.005-1.743c-0.91,1.77-2.753,2.981-4.88,2.981
			c-0.854,0-1.663-0.195-2.384-0.544c-0.224,0.201-0.513,0.328-0.706,0.395l4.515,2.764l4.628-2.744
			C198.509,415.694,197.626,415.374,197.625,414.664z"/>
	</g>
	<path style="fill:#D29B6E;" d="M197.619,412.922l-0.001-0.339l-6.932,0.015l0.001,2.081c0.001,0.287-0.144,0.509-0.333,0.68
		c0.721,0.348,1.53,0.544,2.384,0.544C194.866,415.903,196.709,414.691,197.619,412.922z"/>
	<path style="fill:#785550;" d="M199.308,399.575c-2.623,0.38-6.065-2.086-8.628,0.016c-1.552,0.003-2.539,1.241-2.536,2.891
		c0.003,1.555,0.862,4.642,0.862,4.642l0.002,0.833c-0.003-1.514,0.887-4.061,0.887-4.061c4.45-0.008,8.114,1.264,9.426,1.784
		l0-0.081l0,0.081c0.095,0.038,0.177,0.071,0.247,0.1C200.269,402.773,199.622,400.286,199.308,399.575z"/>
	<path style="fill:#F0C087;" d="M189.006,407.957c0.006,3.222,2.277,6.227,5.159,6.222c2.881-0.005,5.165-2.856,5.159-6.078
		l-0.005-2.421c-1.313-0.521-4.977-1.793-9.426-1.784C189.893,403.896,189.003,406.444,189.006,407.957z"/>
	<path style="fill:#E6AF78;" d="M190.866,408.704c-0.088-4.184,0.608-3.974,0.608-3.974c1.263-0.291,3.135-0.217,5.181,0.078
		c-1.76-0.472-4.123-0.918-6.763-0.913c0,0-0.889,2.548-0.887,4.061c0.006,2.99,1.963,5.792,4.547,6.176
		C192.434,413.249,190.919,411.223,190.866,408.704z"/>
	<path style="fill:#EFF2FA;" d="M204.499,420.025c-0.003-1.444-0.916-2.984-2.487-3.421l-3.22-0.83c0,0,0,0,0,0l-4.628,2.744
		l-4.515-2.764c-0.048,0.017-0.091,0.03-0.124,0.04l-3.217,0.842c-1.57,0.443-2.477,1.986-2.474,3.43l0.002,0.929
		c0.001,0.544,0.505,0.984,1.126,0.982l18.417-0.037c0.621-0.001,1.123-0.443,1.122-0.987L204.499,420.025z"/>
	<g>
		<path style="fill:#E4EAF6;" d="M187.596,421.927v-1.036c0-0.531-0.241-1.036-0.662-1.391l-2.209-1.843
			c-0.579,0.674-0.893,1.559-0.891,2.409l0.002,0.929c0.001,0.368,0.232,0.688,0.574,0.856c0.143,0.048,0.282,0.076,0.394,0.076
			L187.596,421.927L187.596,421.927z"/>
		<path style="fill:#E4EAF6;" d="M204.501,420.955l-0.002-0.929c-0.001-0.742-0.244-1.509-0.691-2.138l-1.986,1.613
			c-0.421,0.355-0.662,0.86-0.662,1.391v1.036h2.4C204.094,421.85,204.502,421.444,204.501,420.955z"/>
	</g>
	<path style="fill:#694B4B;" d="M199.308,399.575c-1.139,0.165-2.432-0.207-3.741-0.508c-1.705-0.393-3.437-0.666-4.888,0.524
		c-0.012,0-0.024,0.001-0.037,0.001c-0.18,0.185,0.16,0.712,0.16,0.712s-0.681,0.323-0.968,1.614
		c-0.157,0.706-0.115,1.464,0.106,1.978c2.02,0,3.876,0.264,5.421,0.599c1.843,0.4,3.246,0.903,3.957,1.185
		c0.095,0.038,0.177,0.071,0.247,0.1C200.269,402.773,199.622,400.286,199.308,399.575z"/>
	<g>
		<path style="fill:#E6AF78;" d="M224.61,415.726c-0.282-0.081-1.165-0.401-1.167-1.11l-0.007-2.081l-6.932,0.015l0.001,2.081
			c0.001,0.625-0.683,0.95-1.039,1.075l4.515,2.764L224.61,415.726z"/>
		<path style="fill:#E6AF78;" d="M223.443,414.616l-0.005-1.743c-0.91,1.77-2.753,2.981-4.88,2.981
			c-0.854,0-1.663-0.195-2.384-0.544c-0.224,0.201-0.513,0.328-0.706,0.395l4.515,2.764l4.628-2.744
			C224.327,415.645,223.444,415.325,223.443,414.616z"/>
	</g>
	<path style="fill:#D29B6E;" d="M223.437,412.873l-0.001-0.339l-6.932,0.015l0.001,2.081c0.001,0.287-0.144,0.509-0.333,0.68
		c0.721,0.348,1.53,0.544,2.384,0.544C220.684,415.854,222.527,414.643,223.437,412.873z"/>
	<path style="fill:#785550;" d="M225.125,399.527c-2.623,0.38-6.065-2.086-8.628,0.016c-1.552,0.003-2.539,1.241-2.536,2.891
		c0.003,1.555,0.862,4.642,0.862,4.642l0.002,0.833c-0.003-1.514,0.887-4.061,0.887-4.061c4.45-0.008,8.114,1.264,9.426,1.784
		l0-0.081l0,0.081c0.095,0.038,0.177,0.071,0.247,0.1C226.086,402.725,225.44,400.237,225.125,399.527z"/>
	<path style="fill:#F0C087;" d="M214.824,407.909c0.006,3.222,2.277,6.227,5.159,6.222c2.881-0.005,5.165-2.856,5.159-6.078
		l-0.005-2.421c-1.313-0.521-4.977-1.793-9.426-1.784C215.711,403.847,214.821,406.395,214.824,407.909z"/>
	<path style="fill:#E6AF78;" d="M216.684,408.655c-0.088-4.184,0.608-3.974,0.608-3.974c1.263-0.291,3.135-0.217,5.181,0.078
		c-1.76-0.472-4.123-0.918-6.763-0.913c0,0-0.889,2.548-0.887,4.061c0.006,2.99,1.963,5.792,4.547,6.176
		C218.252,413.2,216.737,411.174,216.684,408.655z"/>
	<path style="fill:#B4E1FA;" d="M230.317,419.977c-0.003-1.444-0.916-2.984-2.487-3.421l-3.22-0.83c0,0,0,0,0,0l-4.628,2.744
		l-4.515-2.764c-0.048,0.017-0.091,0.03-0.124,0.04l-3.217,0.842c-1.57,0.443-2.477,1.986-2.474,3.43l0.002,0.929
		c0.001,0.544,0.505,0.984,1.126,0.982l18.417-0.037c0.621-0.001,1.123-0.443,1.122-0.987L230.317,419.977z"/>
	<g>
		<path style="fill:#A0D2F0;" d="M213.414,421.879v-1.036c0-0.531-0.241-1.036-0.662-1.391l-2.209-1.843
			c-0.579,0.674-0.893,1.559-0.891,2.409l0.002,0.929c0.001,0.368,0.232,0.688,0.574,0.856c0.143,0.048,0.282,0.076,0.394,0.076
			L213.414,421.879L213.414,421.879z"/>
		<path style="fill:#A0D2F0;" d="M230.319,420.906l-0.002-0.929c-0.001-0.742-0.244-1.509-0.691-2.138l-1.986,1.613
			c-0.421,0.355-0.662,0.86-0.662,1.391v1.036h2.4C229.912,421.802,230.32,421.396,230.319,420.906z"/>
	</g>
	<path style="fill:#694B4B;" d="M225.125,399.527c-1.139,0.165-2.432-0.207-3.741-0.508c-1.705-0.393-3.437-0.666-4.888,0.524
		c-0.012,0-0.024,0.001-0.037,0.001c-0.18,0.185,0.16,0.712,0.16,0.712s-0.681,0.323-0.968,1.614
		c-0.157,0.706-0.115,1.464,0.106,1.978c2.02,0,3.876,0.264,5.421,0.599c1.843,0.4,3.246,0.903,3.957,1.185
		c0.095,0.038,0.177,0.071,0.247,0.1C226.086,402.725,225.44,400.237,225.125,399.527z"/>
	<path d="M202.229,415.827c-0.005-0.001-0.01-0.003-0.015-0.004l-3.209-0.827c-0.309-0.09-0.549-0.259-0.573-0.335l-0.006-1.775
		c0.007-0.008,0.014-0.015,0.021-0.024c1.089-1.307,1.687-2.998,1.684-4.763l-0.002-1.307c1.089-3.563,0.314-6.647-0.083-7.544
		c-0.001-0.003-0.003-0.005-0.004-0.008c-0.007-0.016-0.015-0.032-0.024-0.047c-0.005-0.008-0.009-0.017-0.014-0.025
		c-0.008-0.014-0.017-0.027-0.026-0.04c-0.006-0.009-0.012-0.019-0.019-0.028c-0.008-0.011-0.016-0.021-0.025-0.032
		s-0.017-0.021-0.025-0.031c-0.008-0.008-0.016-0.016-0.024-0.025c-0.01-0.011-0.02-0.021-0.031-0.031
		c-0.008-0.007-0.017-0.014-0.025-0.021c-0.011-0.009-0.022-0.019-0.034-0.028c-0.01-0.008-0.021-0.015-0.031-0.022
		c-0.011-0.007-0.021-0.015-0.032-0.022c-0.013-0.008-0.027-0.015-0.041-0.023c-0.009-0.005-0.017-0.01-0.026-0.014
		c-0.016-0.008-0.033-0.015-0.05-0.022c-0.007-0.003-0.013-0.006-0.02-0.009c-0.018-0.007-0.036-0.013-0.054-0.018
		c-0.006-0.002-0.013-0.004-0.019-0.006c-0.017-0.005-0.035-0.009-0.052-0.012c-0.008-0.002-0.016-0.004-0.025-0.005
		c-0.015-0.003-0.03-0.004-0.046-0.006c-0.011-0.001-0.023-0.003-0.034-0.004c-0.012-0.001-0.025-0.001-0.037-0.001
		c-0.015,0-0.03-0.001-0.045,0c-0.01,0-0.02,0.001-0.03,0.002c-0.017,0.001-0.035,0.003-0.052,0.005c-0.003,0-0.006,0-0.009,0.001
		c-0.839,0.121-1.856-0.12-2.933-0.376c-1.888-0.448-4.018-0.953-5.871,0.397c-0.861,0.072-1.625,0.454-2.174,1.098
		c-0.568,0.666-0.88,1.585-0.878,2.588c0.003,1.495,0.706,4.173,0.862,4.749l0.001,0.726c0.003,1.85,0.649,3.559,1.681,4.829
		l0.001,1.894c-0.024,0.073-0.264,0.243-0.572,0.334l-3.206,0.839c-0.005,0.001-0.01,0.003-0.015,0.004
		c-2.014,0.568-3.065,2.547-3.062,4.208l0.002,0.929c0.001,0.492,0.222,0.966,0.607,1.302c0.359,0.313,0.829,0.486,1.323,0.486
		c0.001,0,0.003,0,0.004,0l9.188-0.018c0.006,0,0.013,0.001,0.019,0.001c0.001,0,0.001,0,0.002,0c0.007,0,0.013-0.001,0.02-0.001
		l9.189-0.018c1.065-0.002,1.93-0.807,1.928-1.795l-0.002-0.929C205.303,418.363,204.245,416.388,202.229,415.827z M194.165,417.579
		l-3.069-1.833c0.242-0.289,0.399-0.643,0.398-1.067l0-0.465c0.807,0.492,1.713,0.772,2.663,0.772c0.003,0,0.006,0,0.009,0
		c0.935-0.002,1.836-0.255,2.65-0.729l0.001,0.409c0.001,0.436,0.167,0.799,0.422,1.091L194.165,417.579z M189.442,400.943
		c0.307-0.36,0.724-0.544,1.239-0.545c0.006,0,0.012-0.001,0.018-0.001c0.02,0,0.04-0.001,0.06-0.003
		c0.01-0.001,0.021-0.003,0.031-0.004c0.016-0.002,0.032-0.004,0.047-0.007c0.012-0.002,0.024-0.006,0.035-0.009
		c0.014-0.003,0.028-0.007,0.041-0.011c0.012-0.004,0.025-0.009,0.037-0.013c0.012-0.005,0.025-0.009,0.037-0.014
		c0.013-0.005,0.025-0.012,0.038-0.018c0.011-0.005,0.022-0.01,0.033-0.016c0.014-0.008,0.027-0.016,0.041-0.024
		c0.009-0.005,0.018-0.011,0.027-0.016c0.017-0.011,0.033-0.024,0.049-0.036c0.005-0.004,0.01-0.007,0.014-0.011
		c1.285-1.054,2.942-0.661,4.696-0.244c0.937,0.223,1.9,0.451,2.831,0.451c0.01,0,0.02,0,0.03-0.001
		c0.234,0.837,0.472,2.36,0.219,4.175c-1.355-0.497-4.648-1.507-9.022-1.507c-0.018,0-0.035,0-0.053,0c-0.002,0-0.004,0-0.006,0
		c-0.018,0-0.036,0.001-0.053,0.003c-0.01,0.001-0.019,0.001-0.029,0.002c-0.014,0.002-0.029,0.004-0.043,0.007
		c-0.013,0.002-0.025,0.004-0.038,0.007c-0.009,0.002-0.019,0.005-0.028,0.007c-0.017,0.004-0.033,0.008-0.049,0.013
		c-0.005,0.002-0.009,0.004-0.014,0.005c-0.02,0.007-0.04,0.014-0.059,0.022c-0.003,0.001-0.006,0.003-0.008,0.004
		c-0.021,0.009-0.041,0.019-0.061,0.03c-0.007,0.004-0.013,0.008-0.02,0.012c-0.015,0.009-0.03,0.018-0.045,0.028
		c-0.014,0.009-0.027,0.02-0.041,0.03c-0.007,0.005-0.014,0.01-0.02,0.015c-0.016,0.014-0.032,0.028-0.048,0.043
		c-0.003,0.003-0.006,0.005-0.009,0.008c-0.014,0.014-0.027,0.029-0.041,0.045c-0.004,0.005-0.008,0.009-0.012,0.013
		c-0.01,0.012-0.02,0.026-0.029,0.039c-0.006,0.009-0.013,0.017-0.018,0.025c-0.007,0.01-0.012,0.021-0.019,0.031
		c-0.008,0.013-0.016,0.026-0.023,0.039c-0.004,0.008-0.008,0.016-0.012,0.024c-0.008,0.016-0.016,0.033-0.023,0.05
		c-0.001,0.002-0.002,0.004-0.002,0.005c-0.005,0.014-0.028,0.071-0.062,0.162c-0.078-0.485-0.13-0.935-0.13-1.281
		C188.949,401.862,189.123,401.316,189.442,400.943z M189.812,407.662L189.812,407.662c-0.002-0.876,0.371-2.161,0.643-2.954
		c3.968,0.078,6.955,1.035,8.058,1.444l0.001,0.515c0,0.003,0,0.006,0,0.009l0.003,1.427c0.005,2.852-1.988,5.265-4.353,5.27
		c-0.002,0-0.004,0-0.006,0c-2.309,0-4.339-2.53-4.345-5.417L189.812,407.662z M184.96,421.171
		c-0.103,0.001-0.199-0.032-0.264-0.088c-0.016-0.014-0.054-0.051-0.054-0.089l-0.002-0.93c-0.002-1.051,0.643-2.297,1.88-2.65
		l2.937-0.769l3.901,2.331l0.004,2.178L184.96,421.171z M203.377,421.134l-8.402,0.017l-0.004-2.174l3.944-2.338l2.888,0.744
		c1.238,0.348,1.888,1.592,1.89,2.643l0.002,0.929C203.694,421.019,203.574,421.134,203.377,421.134z"/>
	<path d="M228.046,415.779c-0.005-0.001-0.01-0.003-0.015-0.004l-3.209-0.827c-0.309-0.09-0.549-0.259-0.573-0.335l-0.006-1.775
		c0.007-0.008,0.014-0.016,0.021-0.024c1.089-1.307,1.687-2.998,1.684-4.763l-0.002-1.307c1.089-3.563,0.314-6.647-0.083-7.544
		c-0.001-0.003-0.003-0.005-0.004-0.008c-0.007-0.016-0.015-0.031-0.023-0.045c-0.005-0.009-0.009-0.018-0.015-0.027
		c-0.008-0.013-0.016-0.026-0.025-0.039c-0.007-0.01-0.013-0.02-0.02-0.03c-0.007-0.01-0.015-0.02-0.023-0.029
		c-0.009-0.011-0.018-0.022-0.027-0.033c-0.007-0.008-0.014-0.015-0.021-0.022c-0.011-0.012-0.022-0.023-0.034-0.034
		c-0.007-0.006-0.015-0.012-0.022-0.019c-0.012-0.011-0.025-0.021-0.037-0.031c-0.009-0.007-0.018-0.013-0.027-0.019
		c-0.012-0.008-0.024-0.017-0.036-0.024c-0.012-0.007-0.024-0.014-0.036-0.02c-0.01-0.005-0.02-0.011-0.03-0.016
		c-0.015-0.007-0.031-0.014-0.046-0.02c-0.008-0.003-0.016-0.007-0.024-0.01c-0.017-0.006-0.034-0.012-0.052-0.017
		c-0.007-0.002-0.015-0.005-0.022-0.007c-0.017-0.005-0.034-0.008-0.051-0.012c-0.009-0.002-0.017-0.004-0.026-0.005
		c-0.015-0.003-0.03-0.004-0.045-0.006c-0.012-0.001-0.023-0.003-0.035-0.004c-0.012-0.001-0.025-0.001-0.037-0.001
		c-0.015,0-0.03-0.001-0.045,0c-0.01,0-0.02,0.001-0.03,0.002c-0.017,0.001-0.035,0.002-0.052,0.005c-0.003,0-0.006,0-0.009,0.001
		c-0.839,0.121-1.856-0.12-2.933-0.376c-1.888-0.448-4.018-0.953-5.871,0.397c-0.861,0.072-1.625,0.454-2.174,1.098
		c-0.568,0.666-0.88,1.585-0.878,2.588c0.003,1.495,0.706,4.173,0.862,4.749l0.001,0.43c0,0.001,0,0.001,0,0.001c0,0,0,0,0,0
		l0.001,0.293c0.003,1.745,0.615,3.504,1.68,4.826c0,0,0.001,0.001,0.001,0.001l0.001,1.896c-0.024,0.073-0.264,0.243-0.572,0.334
		l-3.206,0.839c-0.005,0.001-0.01,0.003-0.015,0.004c-2.014,0.568-3.065,2.547-3.062,4.208l0.002,0.929
		c0.001,0.492,0.222,0.966,0.607,1.302c0.359,0.313,0.829,0.486,1.323,0.486c0.001,0,0.003,0,0.004,0l9.188-0.018
		c0.006,0,0.013,0.001,0.019,0.001c0.001,0,0.001,0,0.002,0c0.007,0,0.013-0.001,0.02-0.001l9.189-0.018
		c1.065-0.002,1.93-0.807,1.928-1.795l-0.002-0.929C231.121,418.314,230.063,416.339,228.046,415.779z M219.983,417.531
		l-3.069-1.833c0.242-0.289,0.399-0.643,0.398-1.067l0-0.458c0.819,0.499,1.724,0.765,2.663,0.765c0.003,0,0.006,0,0.009,0
		c0.935-0.002,1.836-0.255,2.65-0.729l0.001,0.409c0.001,0.436,0.167,0.799,0.422,1.091L219.983,417.531z M214.768,402.432
		c-0.001-0.619,0.173-1.165,0.492-1.538c0.308-0.36,0.724-0.544,1.239-0.545c0.006,0,0.012-0.001,0.018-0.001
		c0.02,0,0.04-0.001,0.06-0.003c0.011-0.001,0.021-0.003,0.031-0.004c0.016-0.002,0.032-0.004,0.047-0.007
		c0.012-0.002,0.024-0.006,0.035-0.009c0.014-0.003,0.027-0.007,0.041-0.011c0.012-0.004,0.025-0.009,0.037-0.013
		c0.012-0.005,0.025-0.009,0.037-0.014c0.013-0.005,0.025-0.012,0.038-0.018c0.011-0.005,0.022-0.01,0.033-0.016
		c0.014-0.008,0.027-0.016,0.041-0.024c0.009-0.005,0.018-0.011,0.027-0.016c0.017-0.011,0.033-0.024,0.049-0.036
		c0.005-0.004,0.01-0.007,0.014-0.011c1.285-1.054,2.942-0.661,4.696-0.244c0.937,0.223,1.9,0.451,2.831,0.451
		c0.01,0,0.02,0,0.03-0.001c0.234,0.837,0.472,2.36,0.219,4.175c-1.355-0.497-4.648-1.507-9.022-1.507c-0.018,0-0.036,0-0.053,0
		c-0.002,0-0.004,0-0.006,0c-0.019,0-0.038,0.001-0.057,0.003c-0.008,0.001-0.017,0.001-0.025,0.002
		c-0.016,0.002-0.031,0.005-0.047,0.007c-0.011,0.002-0.023,0.003-0.034,0.006c-0.011,0.002-0.021,0.006-0.032,0.008
		c-0.015,0.004-0.03,0.008-0.045,0.012c-0.006,0.002-0.012,0.005-0.018,0.007c-0.018,0.006-0.037,0.013-0.055,0.021
		c-0.004,0.002-0.008,0.004-0.013,0.006c-0.019,0.009-0.038,0.018-0.057,0.028c-0.007,0.004-0.014,0.009-0.022,0.013
		c-0.015,0.009-0.029,0.017-0.043,0.027c-0.014,0.009-0.026,0.02-0.039,0.03c-0.007,0.006-0.015,0.011-0.022,0.016
		c-0.016,0.013-0.031,0.027-0.046,0.042c-0.004,0.004-0.008,0.007-0.011,0.01c-0.014,0.014-0.027,0.029-0.039,0.043
		c-0.004,0.005-0.009,0.01-0.013,0.015c-0.01,0.012-0.019,0.025-0.028,0.038c-0.006,0.009-0.013,0.017-0.019,0.026
		c-0.006,0.01-0.012,0.02-0.018,0.03c-0.008,0.013-0.016,0.026-0.023,0.04c-0.004,0.008-0.008,0.016-0.012,0.024
		c-0.008,0.016-0.016,0.033-0.023,0.05c-0.001,0.002-0.002,0.004-0.002,0.006c-0.005,0.014-0.028,0.071-0.062,0.162
		C214.82,403.228,214.769,402.778,214.768,402.432z M215.631,407.907l-0.001-0.295c-0.001-0.876,0.371-2.16,0.643-2.953
		c3.968,0.078,6.955,1.035,8.058,1.444l0.001,0.515c0,0.003,0,0.006,0,0.009l0.003,1.427c0.003,1.367-0.475,2.726-1.309,3.727
		c-0.827,0.993-1.908,1.54-3.044,1.543c-0.002,0-0.004,0-0.006,0c-1.118,0-2.191-0.568-3.021-1.6
		C216.116,410.683,215.634,409.292,215.631,407.907z M210.778,421.122C210.778,421.122,210.777,421.122,210.778,421.122
		c-0.104,0-0.199-0.032-0.264-0.088c-0.016-0.014-0.054-0.051-0.054-0.089l-0.002-0.93c-0.002-1.051,0.643-2.297,1.88-2.65
		l2.937-0.769l3.901,2.331l0.004,2.178L210.778,421.122z M229.195,421.086l-8.402,0.017l-0.004-2.174l3.944-2.338l2.888,0.744
		c1.238,0.348,1.888,1.592,1.89,2.643l0.002,0.929C229.512,420.97,229.392,421.085,229.195,421.086z"/>
	<path d="M234.478,378.855c-0.004-2.34-1.91-4.241-4.249-4.241c-0.003,0-0.005,0-0.008,0l-17.212,0.032
		c-0.446,0.001-0.806,0.363-0.805,0.808c0.001,0.445,0.362,0.805,0.807,0.805c0.001,0,0.001,0,0.002,0l17.212-0.032
		c1.454,0.002,2.638,1.177,2.641,2.631l0.023,12.048c0.003,1.453-1.177,2.638-2.631,2.641l-18.073,0.034
		c-0.214,0-0.419,0.086-0.57,0.237c-0.151,0.152-0.236,0.357-0.235,0.571l0.004,2.355l-2.931-2.92
		c-0.316-0.314-0.826-0.314-1.141,0.002c-0.314,0.316-0.313,0.826,0.002,1.141l4.311,4.295c0.154,0.154,0.36,0.235,0.57,0.235
		c0.104,0,0.21-0.02,0.31-0.062c0.301-0.125,0.497-0.42,0.497-0.746l-0.007-3.496l17.266-0.032c2.343-0.004,4.246-1.914,4.241-4.257
		L234.478,378.855z"/>
	<path d="M210.397,387.506l-0.023-12.048c-0.004-2.339-1.911-4.241-4.257-4.241l-22.376,0.042c-2.343,0.004-4.246,1.914-4.241,4.257
		l0.023,12.048c0.004,2.339,1.911,4.241,4.257,4.241l12.102-0.023l0.007,3.496c0.001,0.326,0.198,0.62,0.499,0.744
		c0.099,0.041,0.204,0.061,0.307,0.061c0.211,0,0.417-0.083,0.572-0.237l4.059-4.074l4.829-0.009
		C208.499,391.759,210.402,389.849,210.397,387.506z M206.153,390.149l-5.164,0.01c-0.214,0-0.419,0.086-0.57,0.237l-2.92,2.931
		l-0.004-2.355c-0.001-0.445-0.362-0.805-0.807-0.805c-0.001,0-0.001,0-0.002,0l-12.914,0.024c-1.45,0-2.633-1.18-2.636-2.631
		l-0.023-12.048c-0.003-1.453,1.177-2.638,2.631-2.641l22.381-0.042c1.45,0,2.633,1.18,2.635,2.631l0.023,12.048
		C208.786,388.962,207.606,390.147,206.153,390.149z"/>
	<path d="M184.612,377.173c0.001,0,0.001,0,0.002,0l2.582-0.005c0.446-0.001,0.806-0.363,0.805-0.808
		c-0.001-0.445-0.362-0.805-0.807-0.805c-0.001,0-0.001,0-0.002,0l-2.582,0.005c-0.446,0.001-0.806,0.363-0.805,0.808
		C183.806,376.813,184.167,377.173,184.612,377.173z"/>
	<path d="M190.636,377.162c0.001,0,0.001,0,0.002,0l14.63-0.027c0.446-0.001,0.806-0.363,0.805-0.808
		c-0.001-0.445-0.362-0.805-0.807-0.805c-0.001,0-0.001,0-0.002,0l-14.63,0.027c-0.446,0.001-0.806,0.363-0.805,0.808
		C189.83,376.802,190.191,377.162,190.636,377.162z"/>
	<path d="M184.618,380.616c0.001,0,0.001,0,0.002,0l20.654-0.039c0.446-0.001,0.806-0.363,0.805-0.808
		c-0.001-0.445-0.362-0.805-0.807-0.805c-0.001,0-0.001,0-0.002,0l-20.654,0.039c-0.446,0.001-0.806,0.363-0.805,0.808
		C183.812,380.256,184.174,380.616,184.618,380.616z"/>
	<path d="M205.279,382.406c-0.001,0-0.001,0-0.002,0l-2.582,0.005c-0.446,0.001-0.806,0.363-0.805,0.808
		c0.001,0.445,0.362,0.805,0.807,0.805c0.001,0,0.001,0,0.002,0l2.582-0.005c0.446-0.001,0.806-0.363,0.805-0.808
		C206.085,382.766,205.724,382.406,205.279,382.406z"/>
	<path d="M184.625,384.058c0.001,0,0.001,0,0.002,0l14.63-0.027c0.446-0.001,0.806-0.363,0.805-0.808
		c-0.001-0.445-0.362-0.805-0.807-0.805c-0.001,0-0.001,0-0.002,0l-14.63,0.027c-0.446,0.001-0.806,0.363-0.805,0.808
		C183.819,383.698,184.18,384.058,184.625,384.058z"/>
	<path d="M205.286,385.848c-0.001,0-0.001,0-0.002,0l-20.654,0.039c-0.446,0.001-0.806,0.363-0.805,0.808
		c0.001,0.445,0.362,0.805,0.807,0.805c0.001,0,0.001,0,0.002,0l20.654-0.039c0.446-0.001,0.806-0.363,0.805-0.808
		C206.092,386.208,205.731,385.848,205.286,385.848z"/>
	<path d="M215.6,378.944c-0.001,0-0.001,0-0.002,0l-2.582,0.005c-0.446,0.001-0.806,0.363-0.805,0.808
		c0.001,0.445,0.362,0.805,0.807,0.805c0.001,0,0.001,0,0.002,0l2.582-0.005c0.446-0.001,0.806-0.363,0.805-0.808
		C216.406,379.304,216.045,378.944,215.6,378.944z"/>
	<path d="M219.044,380.551l10.327-0.019c0.446-0.001,0.806-0.363,0.805-0.808c-0.001-0.445-0.362-0.805-0.807-0.805
		c-0.001,0-0.001,0-0.002,0l-10.327,0.019c-0.446,0.001-0.806,0.363-0.805,0.808c0.001,0.445,0.362,0.805,0.807,0.805
		C219.043,380.551,219.043,380.551,219.044,380.551z"/>
	<path d="M212.218,383.199c0.001,0.445,0.362,0.805,0.807,0.805c0.001,0,0.001,0,0.002,0l16.351-0.031
		c0.446-0.001,0.806-0.363,0.805-0.808c-0.001-0.445-0.362-0.805-0.807-0.805c-0.001,0-0.001,0-0.002,0l-16.351,0.031
		C212.578,382.392,212.217,382.754,212.218,383.199z"/>
	<path d="M229.383,385.803c-0.001,0-0.001,0-0.002,0l-2.582,0.005c-0.446,0.001-0.806,0.363-0.805,0.808
		c0.001,0.445,0.362,0.805,0.807,0.805c0.001,0,0.001,0,0.002,0l2.582-0.005c0.446-0.001,0.806-0.363,0.805-0.808
		C230.188,386.163,229.827,385.803,229.383,385.803z"/>
	<path d="M213.033,387.447l10.327-0.019c0.446-0.001,0.806-0.363,0.805-0.808c-0.001-0.445-0.362-0.805-0.807-0.805
		c-0.001,0-0.001,0-0.002,0l-10.327,0.019c-0.446,0.001-0.806,0.363-0.805,0.808c0.001,0.445,0.362,0.805,0.807,0.805
		C213.032,387.447,213.032,387.447,213.033,387.447z"/>
	<path d="M213.038,390.89c0.001,0,0.001,0,0.002,0l16.351-0.031c0.446-0.001,0.806-0.363,0.805-0.808
		c-0.001-0.445-0.362-0.805-0.807-0.805c-0.001,0-0.001,0-0.002,0l-16.351,0.031c-0.446,0.001-0.806,0.363-0.805,0.808
		C212.232,390.529,212.593,390.89,213.038,390.89z"/>
</g>
</svg>
