<?xml version="1.0" encoding="iso-8859-1"?>
<!-- Generator: Adobe Illustrator 21.1.0, SVG Export Plug-In . SVG Version: 6.00 Build 0)  -->
<svg version="1.1" id="&#x421;&#x43B;&#x43E;&#x439;_1"
	 xmlns="http://www.w3.org/2000/svg" xmlns:xlink="http://www.w3.org/1999/xlink" x="0px" y="0px" viewBox="0 0 41.031 55"
	 style="enable-background:new 0 0 41.031 55;" xml:space="preserve">
<g>
	<path style="fill:#2BA5F7;" d="M27.625,3.057v13.468c0,1.171-0.95,2.12-2.121,2.12H12.036c-1.171,0-2.121-0.949-2.121-2.12V3.057
		c0-1.172,0.949-2.122,2.121-2.122h13.468C26.675,0.935,27.625,1.885,27.625,3.057L27.625,3.057z M27.625,3.057"/>
	<path style="fill:#F7B239;" d="M40.096,38.476v13.468c0,1.171-0.95,2.12-2.121,2.12H24.507c-1.171,0-2.12-0.949-2.12-2.12V38.476
		c0-1.172,0.949-2.122,2.12-2.122h13.468C39.146,36.354,40.096,37.304,40.096,38.476L40.096,38.476z M40.096,38.476"/>
	<path style="fill:#F95428;" d="M18.646,38.476v13.468c0,1.171-0.95,2.12-2.122,2.12H3.056c-1.171,0-2.12-0.949-2.12-2.12V38.476
		c0-1.172,0.949-2.122,2.12-2.122h13.468C17.695,36.354,18.646,37.304,18.646,38.476L18.646,38.476z M18.646,38.476"/>
	<path style="fill:#9AD14B;" d="M32.863,20.766v13.468c0,1.171-0.95,2.12-2.122,2.12H17.273c-1.171,0-2.12-0.949-2.12-2.12V20.766
		c0-1.172,0.949-2.121,2.12-2.121h13.468C31.913,18.645,32.863,19.594,32.863,20.766L32.863,20.766z M32.863,20.766"/>
	<path style="fill:#FFFFFF;" d="M24.912,16.463c-0.517,0-0.935-0.419-0.935-0.935v-8.8c0-0.517,0.419-0.936,0.935-0.936
		c0.517,0,0.935,0.419,0.935,0.936v8.8C25.848,16.043,25.429,16.463,24.912,16.463L24.912,16.463z M24.912,16.463"/>
	<path style="fill:#FFFFFF;" d="M30.057,34.172c-0.517,0-0.935-0.419-0.935-0.935v-8.8c0-0.517,0.419-0.935,0.935-0.935
		c0.517,0,0.935,0.419,0.935,0.935v8.8C30.992,33.753,30.574,34.172,30.057,34.172L30.057,34.172z M30.057,34.172"/>
	<path style="fill:#FFFFFF;" d="M37.394,51.882c-0.517,0-0.935-0.419-0.935-0.935v-8.8c0-0.517,0.419-0.935,0.935-0.935
		c0.517,0,0.935,0.419,0.935,0.935v8.8C38.33,51.463,37.911,51.882,37.394,51.882L37.394,51.882z M37.394,51.882"/>
	<path style="fill:#FFFFFF;" d="M15.715,51.882c-0.517,0-0.935-0.419-0.935-0.935v-8.8c0-0.517,0.419-0.935,0.935-0.935
		c0.517,0,0.935,0.419,0.935,0.935v8.8C16.65,51.463,16.231,51.882,15.715,51.882L15.715,51.882z M15.715,51.882"/>
	<path style="fill:#FFFFFF;" d="M25.847,4.053c0,0.517-0.419,0.936-0.935,0.936c-0.517,0-0.935-0.419-0.935-0.936
		c0-0.517,0.419-0.935,0.935-0.935C25.429,3.118,25.847,3.536,25.847,4.053L25.847,4.053z M25.847,4.053"/>
	<path style="fill:#FFFFFF;" d="M30.992,21.763c0,0.517-0.419,0.935-0.935,0.935c-0.517,0-0.935-0.419-0.935-0.935
		c0-0.517,0.419-0.935,0.935-0.935C30.573,20.828,30.992,21.246,30.992,21.763L30.992,21.763z M30.992,21.763"/>
	<path style="fill:#FFFFFF;" d="M38.33,39.473c0,0.517-0.419,0.935-0.935,0.935c-0.517,0-0.936-0.419-0.936-0.935
		c0-0.517,0.419-0.935,0.936-0.935C37.911,38.537,38.33,38.956,38.33,39.473L38.33,39.473z M38.33,39.473"/>
	<path style="fill:#FFFFFF;" d="M16.65,39.454c0,0.517-0.419,0.936-0.936,0.936c-0.516,0-0.935-0.419-0.935-0.936
		c0-0.516,0.419-0.935,0.935-0.935C16.231,38.518,16.65,38.938,16.65,39.454L16.65,39.454z M16.65,39.454"/>
	<path style="fill:#333333;" d="M37.975,35.419h-4.416c0.154-0.365,0.239-0.765,0.239-1.185V20.766c0-1.685-1.371-3.056-3.056-3.056
		H28.32c0.154-0.365,0.24-0.765,0.24-1.186V3.056C28.56,1.371,27.189,0,25.504,0H12.036C10.351,0,8.98,1.371,8.98,3.056v13.468
		c0,1.685,1.371,3.056,3.056,3.056h2.421c-0.154,0.365-0.239,0.765-0.239,1.185v13.468c0,0.42,0.086,0.821,0.239,1.185h-11.4
		C1.371,35.419,0,36.79,0,38.476v13.468C0,53.629,1.371,55,3.056,55h13.468c1.685,0,3.056-1.371,3.056-3.056V38.476
		c0-0.42-0.085-0.821-0.239-1.185h2.349c-0.154,0.365-0.239,0.765-0.239,1.185v13.468c0,1.685,1.371,3.056,3.056,3.056h13.468
		c1.685,0,3.056-1.371,3.056-3.056V38.476C41.031,36.79,39.66,35.419,37.975,35.419L37.975,35.419z M10.85,16.524V3.056
		c0-0.654,0.532-1.185,1.185-1.185h13.468c0.654,0,1.185,0.531,1.185,1.185v13.468c0,0.654-0.532,1.186-1.185,1.186H12.036
		C11.382,17.71,10.85,17.178,10.85,16.524L10.85,16.524z M30.742,19.58c0.654,0,1.185,0.532,1.185,1.185v13.468
		c0,0.654-0.532,1.185-1.185,1.185H17.274c-0.654,0-1.186-0.532-1.186-1.185V20.766c0-0.654,0.532-1.185,1.186-1.185H30.742z
		 M17.71,51.944c0,0.654-0.532,1.185-1.186,1.185H3.056c-0.654,0-1.185-0.532-1.185-1.185V38.476c0-0.654,0.531-1.185,1.185-1.185
		h13.468c0.654,0,1.186,0.532,1.186,1.185V51.944z M39.161,51.944c0,0.654-0.532,1.185-1.186,1.185H24.507
		c-0.654,0-1.185-0.532-1.185-1.185V38.476c0-0.654,0.531-1.185,1.185-1.185h13.468c0.654,0,1.186,0.532,1.186,1.185V51.944z
		 M39.161,51.944"/>
	<path style="fill:#333333;" d="M20.734,11.474v3.554c0,0.517,0.419,0.935,0.936,0.935c0.517,0,0.935-0.419,0.935-0.935V7.452
		c0-2.114-1.72-3.835-3.835-3.835c-2.114,0-3.835,1.72-3.835,3.835v7.576c0,0.517,0.419,0.935,0.935,0.935
		c0.517,0,0.936-0.419,0.936-0.935v-3.554H20.734z M18.77,5.487c1.083,0,1.964,0.881,1.964,1.964v2.152h-3.928V7.452
		C16.806,6.369,17.687,5.487,18.77,5.487L18.77,5.487z M18.77,5.487"/>
	<path style="fill:#333333;" d="M24.008,33.673c2.115,0,3.835-1.72,3.835-3.835c0-0.517-0.419-0.935-0.936-0.935
		c-0.516,0-0.935,0.419-0.935,0.935c0,1.083-0.881,1.964-1.964,1.964c-1.083,0-1.964-0.881-1.964-1.964v-4.677
		c0-1.083,0.881-1.964,1.964-1.964c1.083,0,1.964,0.881,1.964,1.964c0,0.517,0.419,0.935,0.935,0.935
		c0.517,0,0.936-0.419,0.936-0.935c0-2.115-1.72-3.835-3.835-3.835c-2.114,0-3.835,1.72-3.835,3.835v4.677
		C20.173,31.953,21.893,33.673,24.008,33.673L24.008,33.673z M24.008,33.673"/>
	<path style="fill:#333333;" d="M9.79,39.036h-2.9c-0.517,0-0.935,0.419-0.935,0.935v10.476c0,0.517,0.419,0.936,0.935,0.936h2.9
		c2.115,0,3.835-1.72,3.835-3.835v-4.677C13.625,40.757,11.905,39.036,9.79,39.036L9.79,39.036z M11.754,47.548
		c0,1.083-0.881,1.964-1.964,1.964H7.826v-8.605H9.79c1.083,0,1.964,0.881,1.964,1.964V47.548z M11.754,47.548"/>
	<path style="fill:#333333;" d="M33.604,44.465c0.339-0.544,0.537-1.187,0.537-1.875c0-1.96-1.595-3.554-3.555-3.554h-3.18
		c-0.517,0-0.935,0.419-0.935,0.935v10.476c0,0.517,0.419,0.935,0.935,0.935h5.052c1.959,0,3.554-1.595,3.554-3.554
		C36.012,46.27,35.003,44.943,33.604,44.465L33.604,44.465z M28.341,40.907h2.245c0.928,0,1.684,0.755,1.684,1.684
		c0,0.928-0.755,1.684-1.684,1.684h-2.245V40.907z M32.458,49.512h-4.116v-3.367h4.116c0.928,0,1.683,0.755,1.683,1.684
		S33.386,49.512,32.458,49.512L32.458,49.512z M32.458,49.512"/>
</g>
</svg>
