<?xml version="1.0" encoding="iso-8859-1"?>
<!-- Generator: Adobe Illustrator 21.1.0, SVG Export Plug-In . SVG Version: 6.00 Build 0)  -->
<svg version="1.1" id="Layer_1" xmlns="http://www.w3.org/2000/svg" xmlns:xlink="http://www.w3.org/1999/xlink" x="0px" y="0px"
	 viewBox="185.508 369.5 42.983 55" style="enable-background:new 185.508 369.5 42.983 55;" xml:space="preserve">
<g>
	<path style="fill:#EFF2FA;" d="M227.685,421.9c0.002,0.946-0.771,1.721-1.717,1.723l-37.837,0.071
		c-0.946,0.002-1.721-0.771-1.723-1.717l-0.094-49.877c-0.002-0.946,0.771-1.721,1.717-1.723l37.837-0.071
		c0.946-0.002,1.721,0.771,1.723,1.717L227.685,421.9z"/>
	<path style="fill:#C3E678;" d="M203.215,390.112h-11.233c-0.638,0-1.156-0.517-1.156-1.156v-13.383
		c0-0.638,0.517-1.156,1.156-1.156h11.233c0.638,0,1.156,0.517,1.156,1.156v13.383C204.371,389.595,203.853,390.112,203.215,390.112
		z"/>
	<path style="fill:#F0C087;" d="M197.5,375.52c-1.9,0.004-3.437,1.547-3.433,3.446l0.002,0.86c0.004,1.9,1.546,3.437,3.446,3.433
		c1.9-0.004,3.437-1.547,3.433-3.446l-0.002-0.86C200.943,377.053,199.4,375.516,197.5,375.52z"/>
	<g>
		<path style="fill:#B4E1FA;" d="M200.966,385.001l-0.73,0.001c-0.627,1.023-1.603,1.695-2.715,1.697
			c-1.111,0.002-2.09-0.666-2.721-1.687l-0.73,0.001c-1.524,0.003-2.569,1.51-2.567,2.557l0.004,1.863
			c0.001,0.395,0.324,0.717,0.719,0.716l10.608-0.02c0.394-0.001,0.713-0.321,0.712-0.715l-0.004-1.866
			C203.541,386.501,202.49,384.998,200.966,385.001z"/>
		<path style="fill:#B4E1FA;" d="M201.145,385.06l-0.73,0.001c-0.627,1.023-1.603,1.695-2.715,1.697
			c-1.111,0.002-2.09-0.666-2.721-1.687l-0.73,0.001c-1.524,0.003-2.569,1.51-2.567,2.556l0.004,1.863
			c0.001,0.395,0.324,0.717,0.719,0.716l10.608-0.02c0.394-0.001,0.713-0.321,0.712-0.715l-0.004-1.866
			C203.72,386.56,202.669,385.057,201.145,385.06z"/>
	</g>
	<path d="M228.398,372.022c-0.003-1.39-1.136-2.521-2.531-2.521l-37.837,0.071c-0.673,0.001-1.306,0.266-1.783,0.745
		c-0.477,0.479-0.739,1.113-0.738,1.786l0.094,49.876c0.003,1.39,1.136,2.521,2.526,2.521c0,0,0.004,0,0.005,0l37.837-0.071
		c1.393-0.003,2.524-1.138,2.521-2.531L228.398,372.022z M187.389,371.454c0.173-0.174,0.402-0.27,0.644-0.27l37.839-0.071
		c0.503,0,0.913,0.409,0.914,0.912l0.041,21.552l-39.665,0.074l-0.041-21.552C187.12,371.857,187.215,371.628,187.389,371.454z
		 M225.967,422.817l-37.837,0.071l-0.002,0.806v-0.806c-0.503,0-0.913-0.409-0.914-0.912l-0.05-26.712l39.665-0.074l0.05,26.712
		C226.88,422.405,226.471,422.816,225.967,422.817z"/>
	<path d="M197.508,384.065c0.001,0,0.008,0,0.008,0c1.134-0.002,2.2-0.446,3-1.249c0.8-0.803,1.24-1.87,1.238-3.005l-0.002-0.86
		c-0.004-2.337-1.909-4.238-4.254-4.238c-1.134,0.002-2.2,0.446-3,1.249c-0.8,0.804-1.24,1.871-1.238,3.005l0.002,0.86
		C193.267,382.164,195.171,384.065,197.508,384.065z M195.641,377.101c0.497-0.498,1.157-0.774,1.866-0.775
		c1.449,0,2.631,1.179,2.633,2.629l0.002,0.86c0.001,0.703-0.271,1.365-0.768,1.864c-0.497,0.498-1.157,0.774-1.861,0.775
		l-0.005,0.806v-0.806c-1.449,0-2.631-1.179-2.633-2.629l-0.002-0.86C194.872,378.261,195.144,377.599,195.641,377.101z"/>
	<path d="M192.224,390.955c0.001,0,0.002,0,0.003,0l10.608-0.02c0.838-0.002,1.518-0.685,1.517-1.523l-0.004-1.866
		c-0.003-1.55-1.48-3.352-3.385-3.352l-0.73,0.001c-0.28,0.001-0.54,0.146-0.686,0.385c-0.51,0.832-1.249,1.31-2.032,1.312
		c-0.778,0-1.518-0.475-2.03-1.304c-0.147-0.238-0.406-0.382-0.686-0.382c0,0-0.001,0-0.002,0l-0.73,0.001
		c-1.903,0.004-3.375,1.811-3.372,3.364l0.004,1.863C190.702,390.273,191.386,390.955,192.224,390.955z M194.072,385.82l0.303-0.001
		c0.805,1.077,1.93,1.686,3.148,1.686c1.215-0.002,2.339-0.615,3.141-1.698l0.306-0.001c1.076,0,1.765,1.144,1.766,1.742
		l0.003,1.774l-10.427,0.02l-0.003-1.774C192.308,386.969,192.994,385.822,194.072,385.82z"/>
	<path d="M206.961,377.168c0.001,0,0.001,0,0.002,0l9.459-0.018c0.445-0.001,0.806-0.362,0.805-0.808
		c-0.001-0.445-0.362-0.805-0.806-0.805c-0.001,0-0.001,0-0.002,0l-9.459,0.018c-0.445,0.001-0.806,0.362-0.805,0.808
		C206.156,376.808,206.517,377.168,206.961,377.168z"/>
	<path d="M209.554,382.43c-0.001,0-0.001,0-0.002,0l-2.58,0.005c-0.445,0.001-0.806,0.362-0.805,0.808
		c0.001,0.445,0.362,0.805,0.806,0.805c0.001,0,0.001,0,0.002,0l2.58-0.005c0.445-0.001,0.806-0.362,0.805-0.808
		C210.359,382.79,209.999,382.43,209.554,382.43z"/>
	<path d="M215.572,382.419l-2.58,0.005c-0.445,0.001-0.806,0.362-0.805,0.808c0.001,0.445,0.362,0.805,0.806,0.805
		c0.001,0,0.001,0,0.002,0l2.58-0.005c0.445-0.001,0.806-0.362,0.805-0.808C216.379,382.778,216.02,382.421,215.572,382.419z"/>
	<path d="M221.593,382.408c-0.001,0-0.001,0-0.002,0l-2.58,0.005c-0.445,0.001-0.806,0.362-0.805,0.808
		c0.001,0.445,0.362,0.805,0.806,0.805c0.001,0,0.001,0,0.002,0l2.58-0.005c0.445-0.001,0.806-0.362,0.805-0.808
		C222.399,382.768,222.038,382.408,221.593,382.408z"/>
	<path d="M206.161,379.803c0.001,0.445,0.362,0.805,0.806,0.805c0.001,0,0.001,0,0.002,0l14.619-0.027
		c0.445-0.001,0.806-0.362,0.805-0.808c-0.001-0.445-0.362-0.805-0.806-0.805c-0.001,0-0.001,0-0.002,0l-14.619,0.027
		C206.521,378.996,206.161,379.358,206.161,379.803z"/>
	<path d="M191.524,399.556c0.001,0,0.001,0,0.002,0l1.72-0.003c0.445-0.001,0.806-0.362,0.805-0.808
		c-0.001-0.445-0.362-0.805-0.806-0.805c-0.001,0-0.001,0-0.002,0l-1.72,0.003c-0.445,0.001-0.806,0.362-0.805,0.808
		C190.719,399.196,191.08,399.556,191.524,399.556z"/>
	<path d="M197.544,399.544c0.001,0,0.001,0,0.002,0l24.938-0.047c0.445-0.001,0.806-0.362,0.805-0.808
		c-0.001-0.445-0.362-0.805-0.806-0.805c-0.001,0-0.001,0-0.002,0l-24.938,0.047c-0.445,0.001-0.806,0.362-0.805,0.808
		C196.738,399.184,197.099,399.544,197.544,399.544z"/>
	<path d="M191.531,402.995c0.001,0,0.001,0,0.002,0l1.72-0.003c0.445-0.001,0.806-0.362,0.805-0.808
		c-0.001-0.445-0.362-0.805-0.806-0.805c-0.001,0-0.001,0-0.002,0l-1.72,0.003c-0.445,0.001-0.806,0.362-0.805,0.808
		C190.725,402.635,191.086,402.995,191.531,402.995z"/>
	<path d="M222.489,401.325c-0.001,0-0.001,0-0.002,0l-24.938,0.047c-0.445,0.001-0.806,0.362-0.805,0.808
		c0.001,0.445,0.362,0.805,0.806,0.805c0.001,0,0.001,0,0.002,0l24.938-0.047c0.445-0.001,0.806-0.362,0.805-0.808
		C223.294,401.685,222.933,401.325,222.489,401.325z"/>
	<path d="M212.179,406.504c0,0-0.001,0-0.002,0l-20.639,0.039c-0.445,0.001-0.806,0.362-0.805,0.808
		c0.001,0.445,0.362,0.805,0.806,0.805c0.001,0,0.001,0,0.002,0l20.639-0.039c0.445-0.001,0.806-0.362,0.805-0.808
		C212.984,406.864,212.624,406.504,212.179,406.504z"/>
	<path d="M208.752,413.39c-0.001,0-0.001,0-0.002,0l-17.199,0.032c-0.445,0.001-0.806,0.362-0.805,0.808
		c0.001,0.445,0.362,0.805,0.806,0.805c0.001,0,0.001,0,0.002,0l17.199-0.032c0.445-0.001,0.806-0.362,0.805-0.808
		C209.558,413.75,209.197,413.39,208.752,413.39z"/>
	<path d="M191.547,411.595c0.001,0,0.001,0,0.002,0l13.759-0.026c0.445-0.001,0.806-0.362,0.805-0.808
		c-0.001-0.445-0.362-0.805-0.806-0.805c-0.001,0-0.001,0-0.002,0l-13.759,0.026c-0.445,0.001-0.806,0.362-0.805,0.808
		C190.742,411.235,191.102,411.595,191.547,411.595z"/>
	<path d="M201.019,416.844c-0.001,0-0.001,0-0.002,0l-9.459,0.018c-0.445,0.001-0.806,0.362-0.805,0.808
		c0.001,0.445,0.362,0.805,0.806,0.805c0.001,0,0.001,0,0.002,0l9.459-0.018c0.445-0.001,0.806-0.362,0.805-0.808
		C201.825,417.204,201.464,416.844,201.019,416.844z"/>
	<path d="M222.518,416.804c-0.001,0-0.001,0-0.002,0l-3.44,0.006c-0.445,0.001-0.806,0.362-0.805,0.808
		c0.001,0.445,0.362,0.805,0.806,0.805c0.001,0,0.001,0,0.002,0l3.44-0.006c0.445-0.001,0.806-0.362,0.805-0.808
		C223.323,417.164,222.962,416.804,222.518,416.804z"/>
	<path d="M222.511,413.364c-0.001,0-0.001,0-0.002,0l-1.72,0.003c-0.445,0.001-0.806,0.362-0.805,0.808
		c0.001,0.445,0.362,0.805,0.806,0.805c0.001,0,0.001,0,0.002,0l1.72-0.003c0.445-0.001,0.806-0.362,0.805-0.808
		C223.317,413.724,222.956,413.364,222.511,413.364z"/>
</g>
</svg>
