<?xml version="1.0" encoding="iso-8859-1"?>
<!-- Generator: Adobe Illustrator 21.1.0, SVG Export Plug-In . SVG Version: 6.00 Build 0)  -->
<svg version="1.1" id="Layer_1" xmlns="http://www.w3.org/2000/svg" xmlns:xlink="http://www.w3.org/1999/xlink" x="0px" y="0px"
	 viewBox="182 372 50 50" style="enable-background:new 182 372 50 50;" xml:space="preserve">
<g>
	<path style="fill:#FFEF9F;" d="M203.338,394.536c-0.317,0-0.613-0.158-0.789-0.422l-1.965-2.948
		c-0.176-0.264-0.472-0.422-0.789-0.422H183.68c-0.524,0-0.948-0.424-0.948-0.948v-16.115c0-0.524,0.424-0.948,0.948-0.948h20.098
		c0.524,0,0.948,0.424,0.948,0.948v15.167v1.896v2.844c0,0.524-0.424,0.948-0.948,0.948H203.338L203.338,394.536z"/>
	<path style="fill:#FFCC81;" d="M204.727,373.681v15.167v1.896v2.844c0,0.524-0.424,0.948-0.948,0.948h-0.441
		c-0.011,0-0.022-0.002-0.033-0.002v-1.657v-2.465v-17.679h0.474C204.302,372.733,204.727,373.157,204.727,373.681z"/>
	<path style="fill:#FF9C97;" d="M210.221,394.536c-0.524,0-0.948-0.424-0.948-0.948v-2.844v-1.896v-15.167
		c0-0.524,0.424-0.948,0.948-0.948h20.098c0.524,0,0.948,0.424,0.948,0.948v16.115c0,0.524-0.424,0.948-0.948,0.948h-16.115
		c-0.317,0-0.613,0.158-0.789,0.422l-1.965,2.948c-0.176,0.264-0.472,0.422-0.789,0.422L210.221,394.536L210.221,394.536z"/>
	<path style="fill:#FF7C6F;" d="M231.268,373.681v16.115c0,0.524-0.424,0.948-0.948,0.948h-0.474v-18.011h0.474
		C230.843,372.733,231.268,373.157,231.268,373.681z"/>
	<path style="fill:#FFFAD2;" d="M218.395,377.636l4.904,3.362c0.541,0.371,0.542,1.168,0.002,1.54l-5,3.443
		c-0.156,0.107-0.341,0.165-0.53,0.165l0,0c-0.516,0-0.934-0.418-0.934-0.934v-6.805c0-0.516,0.418-0.934,0.934-0.934h0.096
		C218.055,377.473,218.239,377.53,218.395,377.636z"/>
	<path style="fill:#FFFFFF;" d="M221.859,382.08l-4.975,3.427c-0.031-0.093-0.048-0.191-0.048-0.294v-6.805
		c0-0.123,0.025-0.241,0.068-0.349l4.954,3.396C222.078,381.605,222.079,381.929,221.859,382.08z"/>
	<path style="fill:#B8F4F2;" d="M203.779,399.465c0.524,0,0.948,0.424,0.948,0.948v2.844v1.896v15.167
		c0,0.524-0.424,0.948-0.948,0.948H183.68c-0.524,0-0.948-0.424-0.948-0.948v-16.115c0-0.524,0.424-0.948,0.948-0.948h16.115
		c0.317,0,0.613-0.158,0.789-0.422l1.965-2.948c0.176-0.264,0.472-0.422,0.789-0.422L203.779,399.465L203.779,399.465z"/>
	<path style="fill:#7DE5EF;" d="M203.779,421.268h-0.474v-17.679v-2.465v-1.657c0.011,0,0.022-0.002,0.033-0.002h0.441
		c0.524,0,0.948,0.424,0.948,0.948v2.844v1.896v15.167C204.727,420.844,204.302,421.268,203.779,421.268z"/>
	<path style="fill:#FFF261;" d="M198.943,412.073c0,2.88-2.334,5.214-5.214,5.214s-5.214-2.334-5.214-5.214
		c0-2.879,2.334-5.214,5.214-5.214S198.943,409.193,198.943,412.073z"/>
	<path style="fill:#FFC561;" d="M198.943,412.073c0,2.88-2.334,5.214-5.214,5.214c-0.341,0-0.673-0.034-0.996-0.096
		c2.403-0.465,4.218-2.579,4.218-5.118c0-2.539-1.815-4.653-4.218-5.118c0.322-0.062,0.655-0.096,0.996-0.096
		C196.609,406.859,198.943,409.193,198.943,412.073z"/>
	<path style="fill:#B9F088;" d="M210.662,399.465c0.317,0,0.613,0.158,0.789,0.422l1.965,2.948c0.176,0.264,0.472,0.422,0.789,0.422
		h16.115c0.524,0,0.948,0.424,0.948,0.948v16.115c0,0.524-0.424,0.948-0.948,0.948h-20.098c-0.524,0-0.948-0.424-0.948-0.948
		v-15.167v-1.896v-2.844c0-0.524,0.424-0.948,0.948-0.948H210.662z"/>
	<path style="fill:#8DDD64;" d="M230.32,421.268h-0.474v-18.011h0.474c0.524,0,0.948,0.424,0.948,0.948v16.115
		C231.268,420.844,230.843,421.268,230.32,421.268z"/>
	<path style="fill:#B7B7B7;" d="M216.686,414.443h-1.839c-0.539,0-0.977-0.437-0.977-0.977v-2.787c0-0.539,0.437-0.977,0.977-0.977
		h1.839c0.539,0,0.977,0.437,0.977,0.977v2.787C217.663,414.005,217.225,414.443,216.686,414.443z"/>
	<path style="fill:#A0A0A0;" d="M217.663,410.651v2.844c0,0.524-0.424,0.948-0.948,0.948h-0.804v-4.74h0.804
		C217.238,409.703,217.663,410.127,217.663,410.651z"/>
	<path style="fill:#EAFFB4;" d="M220.593,416.77l-3.878-2.327v-4.74l3.878-2.327c0.379-0.227,0.861,0.046,0.861,0.488v8.418
		C221.454,416.724,220.972,416.997,220.593,416.77z"/>
	<path style="fill:#FFFCEE;" d="M220.177,416.52l-3.462-2.077v-4.74l3.462-2.077V416.52z"/>
	<path d="M205.459,373.681v19.907c0,0.927-0.754,1.68-1.68,1.68h-0.441c-0.563,0-1.086-0.28-1.398-0.748l-1.965-2.948
		c-0.04-0.06-0.107-0.096-0.179-0.096H183.68c-0.927,0-1.68-0.754-1.68-1.68v-10.428c0-0.405,0.328-0.732,0.732-0.732
		s0.732,0.328,0.732,0.732v10.428c0,0.119,0.097,0.216,0.216,0.216h16.115c0.563,0,1.086,0.28,1.398,0.748l1.965,2.948
		c0.04,0.06,0.107,0.096,0.179,0.096h0.441c0.119,0,0.216-0.097,0.216-0.216v-19.907c0-0.119-0.097-0.216-0.216-0.216H183.68
		c-0.119,0-0.216,0.097-0.216,0.216v2.844c0,0.404-0.328,0.732-0.732,0.732S182,376.929,182,376.525v-2.844
		c0-0.927,0.754-1.68,1.68-1.68h20.098C204.705,372,205.459,372.754,205.459,373.681z M203.779,398.543h-0.441
		c-0.563,0-1.086,0.28-1.398,0.748l-1.965,2.948c-0.04,0.06-0.107,0.096-0.179,0.096H188.42c-0.404,0-0.732,0.328-0.732,0.732
		c0,0.405,0.328,0.732,0.732,0.732h11.375c0.563,0,1.086-0.28,1.398-0.748l1.965-2.948c0.04-0.06,0.107-0.096,0.179-0.096h0.441
		c0.119,0,0.216,0.097,0.216,0.216v20.097c0,0.119-0.097,0.216-0.216,0.216H183.68c-0.119,0-0.216-0.097-0.216-0.216v-16.305
		c0-0.119,0.097-0.216,0.216-0.216h1.896c0.404,0,0.732-0.328,0.732-0.732s-0.328-0.732-0.732-0.732h-1.896
		c-0.927,0-1.68,0.754-1.68,1.68v16.305c0,0.927,0.754,1.68,1.68,1.68h20.098c0.927,0,1.68-0.754,1.68-1.68v-20.097
		C205.459,399.297,204.705,398.543,203.779,398.543z M230.32,372h-20.098c-0.927,0-1.68,0.754-1.68,1.68v19.907
		c0,0.927,0.754,1.68,1.68,1.68h0.441c0.563,0,1.086-0.28,1.398-0.748l1.965-2.948c0.04-0.06,0.107-0.096,0.179-0.096h11.186
		c0.404,0,0.732-0.328,0.732-0.732c0-0.405-0.328-0.732-0.732-0.732h-11.186c-0.563,0-1.086,0.28-1.398,0.748l-1.965,2.948
		c-0.04,0.06-0.107,0.096-0.179,0.096h-0.441c-0.119,0-0.216-0.097-0.216-0.216v-19.907c0-0.119,0.097-0.216,0.216-0.216h20.098
		c0.119,0,0.216,0.097,0.216,0.216v16.115c0,0.119-0.097,0.216-0.216,0.216h-2.085c-0.404,0-0.732,0.328-0.732,0.732
		c0,0.404,0.328,0.732,0.732,0.732h2.085c0.927,0,1.68-0.754,1.68-1.68v-16.115C232,372.754,231.246,372,230.32,372z
		 M230.32,402.335h-16.115c-0.072,0-0.139-0.036-0.179-0.096l-1.965-2.948c-0.312-0.469-0.835-0.748-1.398-0.748h-0.441
		c-0.927,0-1.68,0.754-1.68,1.68v15.167c0,0.405,0.328,0.732,0.732,0.732s0.732-0.328,0.732-0.732v-15.167
		c0-0.119,0.097-0.216,0.216-0.216h0.441c0.072,0,0.139,0.036,0.179,0.096l1.965,2.948c0.312,0.469,0.835,0.748,1.398,0.748h16.115
		c0.119,0,0.216,0.097,0.216,0.216v16.305c0,0.119-0.097,0.216-0.216,0.216h-20.098c-0.119,0-0.216-0.097-0.216-0.216v-2.085
		c0-0.405-0.328-0.732-0.732-0.732c-0.404,0-0.732,0.328-0.732,0.732v2.085c0,0.927,0.754,1.68,1.68,1.68h20.098
		c0.927,0,1.68-0.754,1.68-1.68v-16.305C232,403.089,231.246,402.335,230.32,402.335z M187.094,379.153h13.271
		c0.404,0,0.732-0.328,0.732-0.732c0-0.404-0.328-0.732-0.732-0.732h-13.271c-0.404,0-0.732,0.328-0.732,0.732
		C186.361,378.825,186.689,379.153,187.094,379.153z M187.094,381.997h13.271c0.404,0,0.732-0.328,0.732-0.732
		c0-0.405-0.328-0.732-0.732-0.732h-13.271c-0.404,0-0.732,0.328-0.732,0.732C186.361,381.669,186.689,381.997,187.094,381.997z
		 M187.094,384.841h6.827c0.404,0,0.732-0.328,0.732-0.732c0-0.405-0.328-0.732-0.732-0.732h-6.827
		c-0.404,0-0.732,0.328-0.732,0.732C186.361,384.513,186.689,384.841,187.094,384.841z M223.713,380.394
		c0.453,0.31,0.724,0.824,0.724,1.373c0.001,0.549-0.269,1.063-0.721,1.375l-5,3.443c-0.279,0.192-0.606,0.294-0.945,0.294
		c-0.919,0-1.667-0.748-1.667-1.667v-6.805c0-0.919,0.748-1.667,1.667-1.667h0.096c0.338,0,0.664,0.101,0.942,0.292L223.713,380.394
		z M222.972,381.768c0-0.04-0.012-0.114-0.088-0.166l-4.904-3.362c-0.034-0.023-0.073-0.035-0.114-0.035h-0.096
		c-0.111,0-0.202,0.091-0.202,0.202v6.805c0,0.111,0.091,0.202,0.202,0.202c0.041,0,0.081-0.012,0.115-0.036l4.999-3.443
		C222.961,381.882,222.972,381.808,222.972,381.768z M214.867,415.175c-0.927,0-1.68-0.754-1.68-1.68v-2.844
		c0-0.927,0.754-1.68,1.68-1.68h1.693l3.704-2.223c0.401-0.241,0.903-0.247,1.311-0.017c0.407,0.23,0.66,0.664,0.66,1.132v8.418
		c0,0.468-0.253,0.902-0.66,1.132c-0.199,0.113-0.42,0.169-0.641,0.169c-0.232,0-0.464-0.062-0.67-0.185l-3.704-2.223H214.867
		L214.867,415.175z M217.495,410.118v3.91l3.275,1.965v-7.84L217.495,410.118z M214.867,413.71h1.163v-3.275h-1.163
		c-0.119,0-0.216,0.097-0.216,0.216v2.844C214.651,413.614,214.748,413.71,214.867,413.71z M224.889,413.179v-2.212
		c0-0.405-0.328-0.732-0.732-0.732c-0.404,0-0.732,0.328-0.732,0.732v2.212c0,0.405,0.328,0.732,0.732,0.732
		C224.561,413.911,224.889,413.583,224.889,413.179z M227.355,415.391v-6.636c0-0.404-0.328-0.732-0.732-0.732
		c-0.404,0-0.732,0.328-0.732,0.732v6.636c0,0.405,0.328,0.732,0.732,0.732C227.027,416.123,227.355,415.795,227.355,415.391z
		 M193.729,418.019c-3.279,0-5.946-2.667-5.946-5.946s2.667-5.946,5.946-5.946s5.946,2.667,5.946,5.946
		S197.008,418.019,193.729,418.019z M193.729,416.554c2.471,0,4.481-2.01,4.481-4.481s-2.01-4.481-4.481-4.481
		s-4.481,2.01-4.481,4.481S191.258,416.554,193.729,416.554z M196.676,412.693c0.08-0.396-0.176-0.783-0.572-0.863
		c-0.396-0.08-0.783,0.176-0.863,0.572c-0.154,0.759-0.829,1.309-1.605,1.309c-0.776,0-1.451-0.551-1.605-1.309
		c-0.08-0.396-0.467-0.653-0.863-0.572c-0.396,0.08-0.653,0.467-0.572,0.863c0.292,1.438,1.571,2.483,3.04,2.483
		C195.105,415.175,196.384,414.131,196.676,412.693z M192.213,411.099h0.19c0.404,0,0.732-0.328,0.732-0.732
		s-0.328-0.732-0.732-0.732h-0.19c-0.404,0-0.732,0.328-0.732,0.732S191.808,411.099,192.213,411.099z M195.057,411.099h0.19
		c0.404,0,0.732-0.328,0.732-0.732s-0.328-0.732-0.732-0.732h-0.19c-0.404,0-0.732,0.328-0.732,0.732
		S194.652,411.099,195.057,411.099z"/>
</g>
</svg>
