<?xml version="1.0" encoding="iso-8859-1"?>
<!-- Generator: Adobe Illustrator 21.1.0, SVG Export Plug-In . SVG Version: 6.00 Build 0)  -->
<svg version="1.1" id="Layer_1" xmlns="http://www.w3.org/2000/svg" xmlns:xlink="http://www.w3.org/1999/xlink" x="0px" y="0px"
	 viewBox="187.01 372 39.979 50" style="enable-background:new 187.01 372 39.979 50;" xml:space="preserve">
<g>
	<path style="fill:#C7CFE2;" d="M223.701,414.537h-26.722c-1.384,0-2.505-1.122-2.505-2.505v-36.743
		c0-1.384,1.122-2.505,2.505-2.505h26.722c1.384,0,2.505,1.122,2.505,2.505v36.743C226.207,413.415,225.085,414.537,223.701,414.537
		z"/>
	<path style="fill:#00C3FF;" d="M226.207,397.835h-31.733v-22.547c0-1.384,1.122-2.505,2.505-2.505h26.722
		c1.384,0,2.505,1.122,2.505,2.505V397.835z"/>
	<path style="fill:#D5DCED;" d="M220.361,417.877h-26.722c-1.384,0-2.505-1.122-2.505-2.505v-36.743
		c0-1.384,1.122-2.505,2.505-2.505h26.722c1.384,0,2.505,1.122,2.505,2.505v36.743C222.866,416.755,221.745,417.877,220.361,417.877
		z"/>
	<path style="fill:#7DF5A5;" d="M222.866,401.175h-31.733v-22.547c0-1.384,1.122-2.505,2.505-2.505h26.722
		c1.384,0,2.505,1.122,2.505,2.505V401.175z"/>
	<path style="fill:#E4EAF8;" d="M217.021,421.217h-26.722c-1.384,0-2.505-1.122-2.505-2.505v-36.743
		c0-1.384,1.122-2.505,2.505-2.505h26.722c1.384,0,2.505,1.122,2.505,2.505v36.743C219.526,420.096,218.404,421.217,217.021,421.217
		z"/>
	<path style="fill:#FFC850;" d="M219.526,404.516h-31.733v-22.547c0-1.384,1.122-2.505,2.505-2.505h26.722
		c1.384,0,2.505,1.122,2.505,2.505V404.516z"/>
	<path d="M223.701,372h-26.722c-1.813,0-3.288,1.475-3.288,3.288v0.052h-0.052c-1.813,0-3.288,1.475-3.288,3.288v0.052h-0.052
		c-1.813,0-3.288,1.475-3.288,3.288v36.743c0,1.813,1.475,3.288,3.288,3.288h26.722c1.813,0,3.288-1.475,3.288-3.288v-0.052h0.052
		c1.813,0,3.288-1.475,3.288-3.288v-0.052h0.052c1.813,0,3.288-1.475,3.288-3.288v-36.743C226.99,373.475,225.515,372,223.701,372z
		 M195.257,375.288c0-0.95,0.773-1.722,1.722-1.722h26.722c0.95,0,1.722,0.773,1.722,1.722v21.764h-1.775v-18.424
		c0-1.813-1.475-3.288-3.288-3.288h-25.104V375.288z M191.916,378.628c0-0.95,0.773-1.722,1.722-1.722h26.722
		c0.95,0,1.722,0.773,1.722,1.722v21.764h-1.775v-18.424c0-1.813-1.475-3.288-3.288-3.288h-25.104V378.628z M190.299,380.246h26.722
		c0.95,0,1.722,0.773,1.722,1.722v21.764h-30.167v-21.764C188.576,381.019,189.349,380.246,190.299,380.246z M218.743,418.712
		c0,0.95-0.773,1.722-1.722,1.722h-26.722c-0.95,0-1.722-0.773-1.722-1.722v-13.413h30.167V418.712z M222.084,415.372
		c0,0.95-0.773,1.722-1.722,1.722h-0.052v-15.136h1.775V415.372z M223.701,413.754h-0.052v-15.136h1.775v13.413
		C225.424,412.981,224.651,413.754,223.701,413.754z"/>
	<path d="M191.759,400.26c0.417,0.116,0.848-0.128,0.964-0.545l1.001-3.602h9.016l1.001,3.602c0.096,0.347,0.411,0.574,0.754,0.574
		c0.069,0,0.14-0.009,0.21-0.029c0.417-0.116,0.661-0.547,0.545-0.964l-3.836-13.808c-0.294-1.058-1.266-1.797-2.363-1.797h-1.636
		c-1.098,0-2.07,0.739-2.364,1.796l-3.836,13.808C191.099,399.712,191.342,400.144,191.759,400.26z M196.559,385.907
		c0.106-0.383,0.458-0.65,0.855-0.65h1.636c0.397,0,0.749,0.267,0.855,0.65l2.4,8.64h-8.146L196.559,385.907z"/>
	<path d="M210.758,400.288c1.168,0,2.234-0.443,3.039-1.17c0.195,0.675,0.817,1.17,1.554,1.17c0.432,0,0.783-0.35,0.783-0.783
		s-0.351-0.783-0.783-0.783c-0.029,0-0.052-0.023-0.052-0.052v-2.923v-0.835v-3.758c0-0.432-0.351-0.783-0.783-0.783
		s-0.783,0.351-0.783,0.783v0.332c-0.798-0.693-1.838-1.115-2.975-1.115c-2.504,0-4.541,2.037-4.541,4.541v0.835
		C206.217,398.251,208.254,400.288,210.758,400.288z M207.783,394.912c0-1.64,1.335-2.975,2.975-2.975s2.975,1.335,2.975,2.975
		v0.835c0,1.64-1.335,2.975-2.975,2.975s-2.975-1.335-2.975-2.975V394.912z"/>
	<path d="M214.516,408.743h-21.712c-0.432,0-0.783,0.351-0.783,0.783c0,0.432,0.351,0.783,0.783,0.783h21.712
		c0.432,0,0.783-0.351,0.783-0.783C215.299,409.094,214.948,408.743,214.516,408.743z"/>
	<path d="M206.165,415.424h-13.361c-0.432,0-0.783,0.351-0.783,0.783c0,0.432,0.351,0.783,0.783,0.783h13.361
		c0.432,0,0.783-0.351,0.783-0.783C206.948,415.774,206.597,415.424,206.165,415.424z"/>
	<path d="M192.804,413.649h5.01c0.432,0,0.783-0.351,0.783-0.783c0-0.432-0.351-0.783-0.783-0.783h-5.01
		c-0.432,0-0.783,0.351-0.783,0.783C192.021,413.299,192.371,413.649,192.804,413.649z"/>
	<path d="M214.516,412.083h-13.361c-0.432,0-0.783,0.351-0.783,0.783c0,0.432,0.351,0.783,0.783,0.783h13.361
		c0.432,0,0.783-0.351,0.783-0.783C215.299,412.434,214.948,412.083,214.516,412.083z"/>
</g>
</svg>
