<?xml version="1.0" encoding="iso-8859-1"?>
<!-- Generator: Adobe Illustrator 21.1.0, SVG Export Plug-In . SVG Version: 6.00 Build 0)  -->
<svg version="1.1" id="&#x421;&#x43B;&#x43E;&#x439;_1"
	 xmlns="http://www.w3.org/2000/svg" xmlns:xlink="http://www.w3.org/1999/xlink" x="0px" y="0px" viewBox="0 0 60 60"
	 style="enable-background:new 0 0 60 60;" xml:space="preserve">
<g>
	<path style="fill:#FFFFFF;" d="M56.327,2.449h-9.184V0h-2.449v2.449H14.082V0h-2.449v2.449H3.673C1.648,2.449,0,4.097,0,6.122
		v52.653C0,59.452,0.548,60,1.224,60h57.551C59.452,60,60,59.452,60,58.776V6.122C60,4.097,58.352,2.449,56.327,2.449L56.327,2.449z
		 M45.918,8.571c0.675,0,1.224,0.549,1.224,1.224c0,0.675-0.549,1.224-1.224,1.224s-1.224-0.549-1.224-1.224
		C44.694,9.121,45.243,8.571,45.918,8.571L45.918,8.571z M12.857,8.571c0.675,0,1.224,0.549,1.224,1.224
		c0,0.675-0.549,1.224-1.224,1.224c-0.675,0-1.224-0.549-1.224-1.224C11.633,9.121,12.182,8.571,12.857,8.571L12.857,8.571z
		 M57.551,57.551H2.449V18.367h55.102V57.551z M57.551,15.918H2.449V6.122c0-0.675,0.549-1.224,1.224-1.224h7.959v1.435
		c-1.425,0.506-2.449,1.867-2.449,3.463c0,2.026,1.648,3.673,3.673,3.673s3.673-1.648,3.673-3.673c0-1.596-1.024-2.957-2.449-3.463
		V4.898h30.612v1.435c-1.425,0.506-2.449,1.867-2.449,3.463c0,2.026,1.648,3.673,3.673,3.673s3.673-1.648,3.673-3.673
		c0-1.596-1.024-2.957-2.449-3.463V4.898h9.184c0.675,0,1.224,0.549,1.224,1.224V15.918z M57.551,15.918"/>
	<rect x="26.327" y="8.571" style="fill:#FFFFFF;" width="7.347" height="2.449"/>
	<rect x="35.51" y="8.571" style="fill:#FFFFFF;" width="2.449" height="2.449"/>
	<rect x="22.041" y="8.571" style="fill:#FFFFFF;" width="2.449" height="2.449"/>
	<path style="fill:#FFFFFF;" d="M21.429,30.612h4.898c1.351,0,2.449-1.098,2.449-2.449v-4.898c0-1.351-1.098-2.449-2.449-2.449
		h-4.898c-1.351,0-2.449,1.098-2.449,2.449v4.898C18.98,29.514,20.078,30.612,21.429,30.612L21.429,30.612z M21.429,23.265h4.898
		v4.898h-4.898V23.265z M21.429,23.265"/>
	<path style="fill:#FFFFFF;" d="M33.673,30.612h4.898c1.351,0,2.449-1.098,2.449-2.449v-4.898c0-1.351-1.098-2.449-2.449-2.449
		h-4.898c-1.351,0-2.449,1.098-2.449,2.449v4.898C31.224,29.514,32.323,30.612,33.673,30.612L33.673,30.612z M33.673,23.265h4.898
		v4.898h-4.898V23.265z M33.673,23.265"/>
	<path style="fill:#FFFFFF;" d="M9.184,30.612h4.898c1.351,0,2.449-1.098,2.449-2.449v-4.898c0-1.351-1.098-2.449-2.449-2.449H9.184
		c-1.351,0-2.449,1.098-2.449,2.449v4.898C6.735,29.514,7.833,30.612,9.184,30.612L9.184,30.612z M9.184,23.265h4.898v4.898H9.184
		V23.265z M9.184,23.265"/>
	<path style="fill:#FFFFFF;" d="M45.918,42.245h4.898c1.351,0,2.449-1.098,2.449-2.449v-4.898c0-1.351-1.098-2.449-2.449-2.449
		h-4.898c-1.351,0-2.449,1.098-2.449,2.449v4.898C43.469,41.147,44.568,42.245,45.918,42.245L45.918,42.245z M45.918,34.898h4.898
		v4.898h-4.898V34.898z M45.918,34.898"/>
	<path style="fill:#FFFFFF;" d="M9.184,42.245h4.898c1.351,0,2.449-1.098,2.449-2.449v-4.898c0-1.351-1.098-2.449-2.449-2.449H9.184
		c-1.351,0-2.449,1.098-2.449,2.449v4.898C6.735,41.147,7.833,42.245,9.184,42.245L9.184,42.245z M9.184,34.898h4.898v4.898H9.184
		V34.898z M9.184,34.898"/>
	<path style="fill:#FFFFFF;" d="M21.429,53.878h4.898c1.351,0,2.449-1.098,2.449-2.449v-4.898c0-1.351-1.098-2.449-2.449-2.449
		h-4.898c-1.351,0-2.449,1.098-2.449,2.449v4.898C18.98,52.779,20.078,53.878,21.429,53.878L21.429,53.878z M21.429,46.531h4.898
		v4.898h-4.898V46.531z M21.429,46.531"/>
	<path style="fill:#FFFFFF;" d="M33.673,53.878h4.898c1.351,0,2.449-1.098,2.449-2.449v-4.898c0-1.351-1.098-2.449-2.449-2.449
		h-4.898c-1.351,0-2.449,1.098-2.449,2.449v4.898C31.224,52.779,32.323,53.878,33.673,53.878L33.673,53.878z M33.673,46.531h4.898
		v4.898h-4.898V46.531z M33.673,46.531"/>
	<path style="fill:#FFFFFF;" d="M45.918,53.878h4.898c1.351,0,2.449-1.098,2.449-2.449v-4.898c0-1.351-1.098-2.449-2.449-2.449
		h-4.898c-1.351,0-2.449,1.098-2.449,2.449v4.898C43.469,52.779,44.568,53.878,45.918,53.878L45.918,53.878z M45.918,46.531h4.898
		v4.898h-4.898V46.531z M45.918,46.531"/>
	<path style="fill:#FFFFFF;" d="M45.918,30.612h4.898c1.351,0,2.449-1.098,2.449-2.449v-4.898c0-1.351-1.098-2.449-2.449-2.449
		h-4.898c-1.351,0-2.449,1.098-2.449,2.449v4.898C43.469,29.514,44.568,30.612,45.918,30.612L45.918,30.612z M50.816,28.163H47.65
		l3.167-3.167V28.163z M45.918,23.265h3.167l-3.167,3.167V23.265z M45.918,23.265"/>
	<path style="fill:#FFFFFF;" d="M21.429,42.245h4.898c1.351,0,2.449-1.098,2.449-2.449v-4.898c0-1.351-1.098-2.449-2.449-2.449
		h-4.898c-1.351,0-2.449,1.098-2.449,2.449v4.898C18.98,41.147,20.078,42.245,21.429,42.245L21.429,42.245z M26.327,39.796H23.16
		l3.167-3.167V39.796z M21.429,34.898h3.167l-3.167,3.167V34.898z M21.429,34.898"/>
	<path style="fill:#FFFFFF;" d="M33.673,42.245h4.898c1.351,0,2.449-1.098,2.449-2.449v-4.898c0-1.351-1.098-2.449-2.449-2.449
		h-4.898c-1.351,0-2.449,1.098-2.449,2.449v4.898C31.224,41.147,32.323,42.245,33.673,42.245L33.673,42.245z M38.571,39.796h-3.167
		l3.167-3.167V39.796z M33.673,34.898h3.167l-3.167,3.167V34.898z M33.673,34.898"/>
	<path style="fill:#FFFFFF;" d="M9.184,53.878h4.898c1.351,0,2.449-1.098,2.449-2.449v-4.898c0-1.351-1.098-2.449-2.449-2.449H9.184
		c-1.351,0-2.449,1.098-2.449,2.449v4.898C6.735,52.779,7.833,53.878,9.184,53.878L9.184,53.878z M14.082,51.429h-3.016l3.016-2.742
		V51.429z M9.184,46.531h3.629l-3.629,3.299V46.531z M9.184,46.531"/>
</g>
</svg>
