<?xml version="1.0" encoding="iso-8859-1"?>
<!-- Generator: Adobe Illustrator 21.1.0, SVG Export Plug-In . SVG Version: 6.00 Build 0)  -->
<svg version="1.1" id="&#x421;&#x43B;&#x43E;&#x439;_1"
	 xmlns="http://www.w3.org/2000/svg" xmlns:xlink="http://www.w3.org/1999/xlink" x="0px" y="0px" viewBox="0 0 40 40"
	 style="enable-background:new 0 0 40 40;" xml:space="preserve">
<g>
	<path style="fill:#A6A6A6;" d="M39.146,0H0.854C0.384,0,0,0.369,0,0.82V39.18C0,39.631,0.384,40,0.854,40h38.292
		C39.616,40,40,39.631,40,39.18V0.82C40,0.369,39.616,0,39.146,0L39.146,0z M6.13,38.361H1.708V1.639H6.13V38.361z M38.292,38.361
		H7.838V1.639h30.455V38.361z M38.292,38.361"/>
	<path style="fill:#A6A6A6;" d="M15.667,17.5c0-0.451-0.384-0.82-0.854-0.82c-0.47,0-0.854,0.369-0.854,0.82v11.68
		c0,0.344,0.222,0.656,0.563,0.77C14.617,29.984,14.719,30,14.813,30c0.248,0,0.486-0.098,0.657-0.295l14.992-17.418v9.393
		c0,0.451,0.384,0.82,0.854,0.82c0.469,0,0.854-0.369,0.854-0.82V10c0-0.345-0.222-0.656-0.564-0.771
		c-0.341-0.123-0.717-0.024-0.948,0.246L15.667,26.902V17.5z M15.667,17.5"/>
	<path style="fill:#A6A6A6;" d="M26.997,24.992c0,0.451,0.384,0.82,0.854,0.82h3.569l-4.277,6.229
		c-0.179,0.246-0.188,0.565-0.042,0.836c0.145,0.271,0.435,0.435,0.751,0.435h5.157c0.478,0,0.854-0.369,0.854-0.82
		c0-0.451-0.384-0.82-0.854-0.82h-3.569l4.278-6.23c0.179-0.246,0.188-0.565,0.042-0.836c-0.145-0.27-0.436-0.434-0.751-0.434
		h-5.157C27.381,24.172,26.997,24.541,26.997,24.992L26.997,24.992z M26.997,24.992"/>
	<path style="fill:#A6A6A6;" d="M11.936,15.787c0.094,0.033,0.179,0.041,0.273,0.041c0.359,0,0.692-0.213,0.811-0.557l0.674-1.943
		h2.245l0.675,1.943c0.154,0.426,0.632,0.664,1.084,0.516c0.436-0.147,0.683-0.615,0.529-1.041l-0.863-2.484l-1.742-5.017
		c-0.119-0.336-0.444-0.557-0.811-0.557c-0.367,0-0.692,0.229-0.811,0.557l-1.742,5.017l-0.862,2.484
		C11.244,15.172,11.492,15.64,11.936,15.787L11.936,15.787z M14.813,10.09l0.555,1.59h-1.11L14.813,10.09z M14.813,10.09"/>
</g>
</svg>
