<?xml version="1.0" encoding="iso-8859-1"?>
<!-- Generator: Adobe Illustrator 21.1.0, SVG Export Plug-In . SVG Version: 6.00 Build 0)  -->
<svg version="1.1" id="Layer_1" xmlns="http://www.w3.org/2000/svg" xmlns:xlink="http://www.w3.org/1999/xlink" x="0px" y="0px"
	 viewBox="187 378.516 40 36.97" style="enable-background:new 187 378.516 40 36.97;" xml:space="preserve">
<g>
	<path style="fill:#A6A6A6;" d="M226.987,407.455c-0.015-0.383-0.339-0.68-0.721-0.665c-0.383,0.015-0.68,0.338-0.665,0.721
		c0.069,1.711-0.165,3.179-0.677,4.247c-0.668,1.395-1.793,2.153-3.44,2.317c-0.157,0.016-0.315,0.024-0.475,0.024
		c-3.204,0-6.873-3.173-10.916-9.441c-0.208-0.322-0.637-0.414-0.959-0.207c-0.322,0.208-0.414,0.637-0.207,0.959
		c2.031,3.149,4.014,5.587,5.896,7.246c2.133,1.881,4.213,2.831,6.191,2.831c0.204,0,0.406-0.01,0.607-0.03
		C225.274,415.091,227.179,412.25,226.987,407.455z"/>
	<path style="fill:#A6A6A6;" d="M223.868,398.546c0.001-0.382-0.308-0.693-0.69-0.696c-0.124-0.001-3.05-0.052-4.015-2.72
		c-0.433-1.198,0.074-1.677,1.17-2.562c0.913-0.737,2.049-1.655,2.049-3.353c0-0.804-0.38-1.606-1.1-2.319
		c-1.509-1.496-4.444-2.524-7.128-2.5c-0.383,0.003-0.691,0.317-0.687,0.7c0.003,0.383,0.314,0.691,0.7,0.687
		c2.313-0.021,4.892,0.862,6.14,2.098c0.315,0.312,0.689,0.796,0.689,1.334c0,1.036-0.711,1.61-1.533,2.274
		c-1.065,0.86-2.391,1.931-1.602,4.112c1.3,3.594,5.153,3.636,5.316,3.636C223.558,399.236,223.867,398.927,223.868,398.546z"/>
	<path style="fill:#A6A6A6;" d="M220.221,403.765c-0.457,0.659-0.995,0.979-1.642,0.979c-1.501,0-3.11-2.896-3.556-3.911
		c-0.153-0.351-0.562-0.511-0.913-0.357c-0.351,0.154-0.511,0.562-0.357,0.913c0.212,0.485,2.152,4.742,4.826,4.742
		c1.104,0,2.066-0.545,2.781-1.575c0.218-0.315,0.14-0.747-0.174-0.965C220.872,403.373,220.44,403.451,220.221,403.765z"/>
	<path style="fill:#A6A6A6;" d="M217.3,397.226c0-0.237-0.121-0.457-0.321-0.585l-7.828-4.99c-0.196-3.278,0.995-4.64,2.049-5.205
		c0.338-0.181,0.465-0.601,0.284-0.939c-0.181-0.338-0.601-0.465-0.939-0.284c-1.799,0.964-2.754,2.863-2.8,5.532l-1.608-1.025
		c-0.213-0.136-0.484-0.145-0.706-0.023c-0.222,0.122-0.36,0.355-0.36,0.608v2.503h-1.187c-0.694-2.657-0.135-5.399,1.598-7.774
		c2.245-3.075,6.204-5.141,9.853-5.141c2.785,0,5.036,1.057,6.69,3.142c1.261,1.59,1.692,3.216,1.696,3.231
		c0.095,0.371,0.472,0.595,0.843,0.501c0.371-0.095,0.595-0.472,0.501-0.843c-0.019-0.076-0.492-1.886-1.917-3.704
		c-1.328-1.694-3.762-3.713-7.812-3.713c-4.134,0-8.441,2.241-10.973,5.71c-1.911,2.618-2.573,5.636-1.906,8.591h-14.763
		c-0.383,0-0.693,0.31-0.693,0.693v7.428c0,0.383,0.31,0.693,0.693,0.693h3.003c0.383,0,0.693-0.31,0.693-0.693
		c0-0.383-0.31-0.693-0.693-0.693h-2.309v-6.041h17.377c0.383,0,0.693-0.31,0.693-0.693v-1.932l8.858,5.646l-8.858,5.646v-1.932
		c0-0.383-0.31-0.693-0.693-0.693h-12.393c-0.383,0-0.693,0.31-0.693,0.693c0,0.383,0.31,0.693,0.693,0.693h11.7v2.503
		c0,0.253,0.138,0.486,0.36,0.608c0.104,0.057,0.219,0.085,0.333,0.085c0.13,0,0.259-0.036,0.373-0.109l10.842-6.911
		C217.179,397.683,217.3,397.462,217.3,397.226z"/>
</g>
</svg>
