<?xml version="1.0" encoding="iso-8859-1"?>
<!-- Generator: Adobe Illustrator 21.1.0, SVG Export Plug-In . SVG Version: 6.00 Build 0)  -->
<svg version="1.1" id="&#x421;&#x43B;&#x43E;&#x439;_1"
	 xmlns="http://www.w3.org/2000/svg" xmlns:xlink="http://www.w3.org/1999/xlink" x="0px" y="0px" viewBox="0 0 40 40"
	 style="enable-background:new 0 0 40 40;" xml:space="preserve">
<g>
	<path style="fill:#A6A6A6;" d="M39.332,38.544V10.181h-7.997v28.363h-2.003V16.001h-7.997v22.543h-2.003V21.818h-7.997v16.726
		H9.332V28.363H1.335v10.181H0.667C0.299,38.544,0,38.871,0,39.272C0,39.673,0.299,40,0.667,40h38.665
		C39.701,40,40,39.673,40,39.272C40,38.871,39.701,38.544,39.332,38.544L39.332,38.544z M2.666,38.544v-8.725h5.336v8.725H2.666z
		 M12.666,38.544v-15.27h5.336v15.27H12.666z M22.666,38.544v-21.09h5.336v21.09H22.666z M32.666,38.544V11.637h5.336v26.906H32.666
		z M32.666,38.544"/>
	<path style="fill:#A6A6A6;" d="M5.355,18.423c0.111,0,0.227-0.032,0.332-0.099l24.18-15.227l-1.514,3.629
		c-0.152,0.366-0.006,0.795,0.329,0.963c0.091,0.043,0.186,0.064,0.277,0.064c0.254,0,0.495-0.156,0.608-0.426l2.373-5.692
		c0.007-0.022,0.007-0.039,0.013-0.057c0.013-0.039,0.023-0.078,0.029-0.117c0.003-0.021,0.013-0.039,0.016-0.06
		c0-0.007-0.003-0.015-0.003-0.022c0-0.028,0-0.053-0.003-0.081c0-0.039-0.007-0.078-0.017-0.117
		c-0.003-0.029-0.007-0.057-0.013-0.085c-0.009-0.025-0.023-0.046-0.036-0.071c-0.006-0.018-0.006-0.039-0.016-0.057
		c-0.01-0.014-0.026-0.025-0.036-0.043c-0.013-0.021-0.026-0.045-0.043-0.067c-0.016-0.021-0.039-0.035-0.058-0.056
		c-0.026-0.025-0.056-0.05-0.085-0.075c-0.022-0.015-0.039-0.029-0.062-0.043c-0.01-0.004-0.012-0.011-0.019-0.015
		c-0.017-0.007-0.036-0.007-0.052-0.01c-0.036-0.018-0.072-0.025-0.111-0.033c-0.016-0.004-0.029-0.017-0.048-0.017L25.69,0.003
		c-0.371-0.039-0.693,0.255-0.729,0.654c-0.036,0.401,0.231,0.756,0.599,0.795l3.636,0.383L5.019,17.063
		c-0.318,0.203-0.429,0.646-0.244,0.995C4.899,18.292,5.123,18.423,5.355,18.423L5.355,18.423z M5.355,18.423"/>
</g>
</svg>
