<?xml version="1.0" encoding="iso-8859-1"?>
<!-- Generator: Adobe Illustrator 21.1.0, SVG Export Plug-In . SVG Version: 6.00 Build 0)  -->
<svg version="1.1" id="Capa_1" xmlns="http://www.w3.org/2000/svg" xmlns:xlink="http://www.w3.org/1999/xlink" x="0px" y="0px"
	 viewBox="187 377 40 40" style="enable-background:new 187 377 40 40;" xml:space="preserve">
<g>
	<path style="fill:#A6A6A6;" d="M189,408.333c-1.103,0-2,0.897-2,2c0,1.103,0.897,2,2,2h1.333v4c0,0.368,0.299,0.667,0.667,0.667h28
		c1.838,0,3.333-1.495,3.333-3.333V413h2c1.471,0,2.667-1.196,2.667-2.667s-1.196-2.667-2.667-2.667h-2v-27.333
		c0-1.838-1.495-3.333-3.333-3.333h-28c-0.368,0-0.667,0.299-0.667,0.667v4H189c-1.103,0-2,0.897-2,2c0,1.103,0.897,2,2,2h1.333
		v2.667H189c-1.103,0-2,0.897-2,2c0,1.103,0.897,2,2,2h1.333V395H189c-1.103,0-2,0.897-2,2s0.897,2,2,2h1.333v2.667H189
		c-1.103,0-2,0.897-2,2c0,1.103,0.897,2,2,2h1.333v2.667H189z M188.333,410.333c0-0.367,0.299-0.667,0.667-0.667h2h1.929
		c0.253,0,0.482,0.124,0.615,0.304c0.013,0.019,0.028,0.037,0.039,0.058c0.021,0.035,0.032,0.074,0.044,0.113
		c0.013,0.043,0.023,0.086,0.027,0.132c0.004,0.054,0,0.105-0.007,0.157c-0.006,0.04-0.011,0.08-0.023,0.117
		c-0.018,0.052-0.047,0.1-0.078,0.147c-0.019,0.029-0.035,0.061-0.059,0.087c-0.043,0.047-0.095,0.081-0.149,0.113
		c-0.024,0.015-0.043,0.035-0.069,0.047c-0.084,0.038-0.175,0.06-0.269,0.06h-2h-2C188.633,411,188.333,410.701,188.333,410.333z
		 M224.333,409c0.735,0,1.333,0.598,1.333,1.333c0,0.735-0.598,1.333-1.333,1.333h-2V409H224.333z M201,411.323l-2.307-0.989
		l2.307-0.989V411.323z M202.333,409h16v2.667h-16V409z M219.667,409H221v2.667h-1.333V409z M188.333,383.667
		c0-0.367,0.299-0.667,0.667-0.667h2h1.929c0.253,0,0.482,0.124,0.615,0.304c0.013,0.019,0.028,0.037,0.039,0.058
		c0.021,0.035,0.032,0.074,0.044,0.113c0.013,0.043,0.023,0.086,0.027,0.132c0.004,0.054,0,0.105-0.007,0.157
		c-0.006,0.04-0.011,0.08-0.023,0.117c-0.018,0.052-0.047,0.1-0.078,0.147c-0.019,0.029-0.035,0.061-0.059,0.087
		c-0.043,0.047-0.095,0.081-0.149,0.113c-0.024,0.015-0.043,0.035-0.069,0.047c-0.084,0.038-0.175,0.06-0.269,0.06h-2h-2
		C188.633,384.333,188.333,384.034,188.333,383.667z M188.333,390.333c0-0.367,0.299-0.667,0.667-0.667h2h1.929
		c0.253,0,0.482,0.124,0.615,0.304c0.013,0.019,0.028,0.037,0.039,0.058c0.021,0.035,0.032,0.074,0.044,0.113
		c0.013,0.043,0.023,0.086,0.027,0.132c0.004,0.054,0,0.105-0.007,0.157c-0.006,0.04-0.011,0.08-0.023,0.117
		c-0.018,0.052-0.047,0.1-0.078,0.147c-0.019,0.029-0.035,0.061-0.059,0.087c-0.043,0.047-0.095,0.081-0.149,0.113
		c-0.024,0.015-0.043,0.035-0.069,0.047c-0.084,0.038-0.175,0.06-0.269,0.06h-2h-2C188.633,391,188.333,390.701,188.333,390.333z
		 M188.333,397c0-0.367,0.299-0.667,0.667-0.667h2h1.929c0.253,0,0.482,0.124,0.615,0.304c0.013,0.019,0.028,0.037,0.039,0.058
		c0.021,0.035,0.032,0.074,0.044,0.113c0.013,0.043,0.023,0.086,0.027,0.132c0.004,0.054,0,0.105-0.007,0.157
		c-0.006,0.04-0.011,0.08-0.023,0.117c-0.018,0.052-0.047,0.1-0.078,0.147c-0.019,0.029-0.035,0.061-0.059,0.087
		c-0.043,0.047-0.095,0.081-0.149,0.113c-0.024,0.015-0.043,0.035-0.069,0.047c-0.084,0.038-0.175,0.06-0.269,0.06h-2h-2
		C188.633,397.667,188.333,397.367,188.333,397z M188.333,403.667c0-0.367,0.299-0.667,0.667-0.667h2h1.929
		c0.253,0,0.482,0.124,0.615,0.304c0.013,0.019,0.028,0.037,0.039,0.058c0.021,0.035,0.032,0.074,0.044,0.113
		c0.013,0.043,0.023,0.086,0.027,0.132c0.004,0.054,0,0.105-0.007,0.157c-0.006,0.04-0.011,0.08-0.023,0.117
		c-0.018,0.052-0.047,0.1-0.078,0.147c-0.019,0.029-0.035,0.061-0.059,0.087c-0.043,0.047-0.095,0.081-0.149,0.113
		c-0.024,0.015-0.043,0.035-0.069,0.047c-0.084,0.038-0.175,0.06-0.269,0.06h-2h-2C188.633,404.333,188.333,404.034,188.333,403.667
		z M191.667,405.667H193c0.143,0,0.283-0.017,0.418-0.045c0.042-0.009,0.081-0.027,0.123-0.038c0.091-0.026,0.181-0.052,0.267-0.09
		c0.05-0.022,0.096-0.052,0.145-0.079c0.071-0.039,0.142-0.077,0.207-0.125c0.048-0.035,0.092-0.074,0.137-0.113
		c0.059-0.051,0.117-0.103,0.17-0.161c0.018-0.019,0.04-0.034,0.057-0.054c0.023-0.026,0.037-0.057,0.057-0.085
		c0.048-0.063,0.092-0.128,0.133-0.196c0.03-0.05,0.058-0.1,0.083-0.153c0.035-0.073,0.064-0.15,0.091-0.228
		c0.017-0.052,0.036-0.103,0.049-0.157c0.02-0.081,0.031-0.165,0.041-0.249c0.007-0.056,0.015-0.111,0.017-0.167
		c0.001-0.021,0.006-0.039,0.006-0.06c0-0.067-0.013-0.129-0.02-0.195c-0.004-0.045,0-0.091-0.007-0.137
		c-0.002-0.014-0.008-0.026-0.011-0.039c-0.009-0.049-0.025-0.094-0.037-0.141c-0.019-0.071-0.038-0.143-0.065-0.211
		c-0.027-0.069-0.061-0.133-0.094-0.197c-0.018-0.033-0.034-0.068-0.054-0.1c-0.35-0.584-0.983-0.98-1.711-0.98h-0.071h-1.262V399
		H193c0.143,0,0.283-0.017,0.418-0.045c0.042-0.009,0.081-0.027,0.123-0.038c0.091-0.026,0.181-0.052,0.267-0.09
		c0.05-0.022,0.096-0.052,0.145-0.079c0.071-0.039,0.142-0.077,0.207-0.125c0.048-0.035,0.092-0.074,0.137-0.113
		c0.059-0.051,0.117-0.103,0.17-0.161c0.018-0.019,0.04-0.034,0.057-0.054c0.023-0.026,0.037-0.057,0.057-0.085
		c0.048-0.063,0.092-0.128,0.133-0.196c0.03-0.05,0.058-0.1,0.083-0.153c0.035-0.073,0.064-0.15,0.091-0.228
		c0.017-0.052,0.036-0.103,0.049-0.157c0.02-0.081,0.031-0.165,0.041-0.249c0.007-0.056,0.015-0.111,0.017-0.167
		c0.001-0.021,0.006-0.039,0.006-0.06c0-0.067-0.013-0.129-0.02-0.195c-0.004-0.045,0-0.091-0.007-0.137
		c-0.002-0.014-0.008-0.026-0.011-0.039c-0.009-0.049-0.025-0.094-0.037-0.141c-0.019-0.071-0.038-0.143-0.065-0.211
		c-0.027-0.069-0.061-0.133-0.094-0.197c-0.018-0.033-0.034-0.068-0.054-0.1c-0.35-0.584-0.983-0.98-1.711-0.98h-0.071h-1.262
		v-2.667H193c0.143,0,0.283-0.017,0.418-0.045c0.042-0.009,0.081-0.027,0.123-0.038c0.091-0.026,0.181-0.052,0.267-0.09
		c0.05-0.022,0.096-0.052,0.145-0.079c0.071-0.039,0.142-0.077,0.207-0.125c0.048-0.035,0.092-0.074,0.137-0.113
		c0.059-0.051,0.117-0.103,0.17-0.161c0.018-0.019,0.04-0.034,0.057-0.054c0.023-0.026,0.037-0.057,0.057-0.085
		c0.048-0.063,0.092-0.128,0.133-0.196c0.03-0.05,0.058-0.1,0.083-0.153c0.035-0.073,0.064-0.15,0.091-0.228
		c0.017-0.052,0.036-0.103,0.049-0.157c0.02-0.081,0.031-0.165,0.041-0.249c0.007-0.056,0.015-0.111,0.017-0.167
		c0.001-0.021,0.006-0.039,0.006-0.06c0-0.067-0.013-0.129-0.02-0.195c-0.004-0.045,0-0.091-0.007-0.137
		c-0.002-0.014-0.008-0.026-0.011-0.039c-0.009-0.049-0.025-0.094-0.037-0.141c-0.019-0.071-0.038-0.143-0.065-0.211
		c-0.027-0.069-0.061-0.133-0.094-0.197c-0.018-0.033-0.034-0.068-0.054-0.1c-0.35-0.584-0.983-0.98-1.711-0.98h-0.071h-1.262
		v-2.667H193c0.143,0,0.283-0.017,0.418-0.045c0.042-0.009,0.081-0.027,0.123-0.038c0.091-0.026,0.181-0.052,0.267-0.09
		c0.05-0.022,0.096-0.052,0.145-0.079c0.071-0.039,0.142-0.077,0.207-0.125c0.048-0.035,0.092-0.074,0.137-0.113
		c0.059-0.051,0.117-0.103,0.17-0.161c0.018-0.019,0.04-0.034,0.057-0.054c0.023-0.026,0.037-0.057,0.057-0.085
		c0.048-0.063,0.092-0.128,0.133-0.196c0.03-0.05,0.058-0.1,0.083-0.153c0.035-0.073,0.064-0.15,0.091-0.228
		c0.017-0.052,0.036-0.103,0.049-0.157c0.02-0.081,0.031-0.165,0.041-0.249c0.007-0.056,0.015-0.111,0.017-0.167
		c0.001-0.021,0.006-0.039,0.006-0.06c0-0.067-0.013-0.129-0.02-0.195c-0.004-0.045,0-0.091-0.007-0.137
		c-0.002-0.014-0.008-0.026-0.011-0.039c-0.009-0.049-0.025-0.094-0.037-0.141c-0.019-0.071-0.038-0.143-0.065-0.211
		c-0.027-0.069-0.061-0.133-0.094-0.197c-0.018-0.033-0.034-0.068-0.054-0.1c-0.35-0.584-0.983-0.98-1.711-0.98h-0.071h-1.262
		v-3.333H219c1.103,0,2,0.897,2,2v27.333h-19.333c-0.09,0-0.18,0.018-0.263,0.054l-4.667,2c-0.245,0.105-0.404,0.346-0.404,0.613
		c0,0.267,0.159,0.508,0.404,0.613l4.667,2c0.083,0.036,0.173,0.054,0.263,0.054H221v0.667c0,1.103-0.897,2-2,2h-27.333v-3.333H193
		c0.143,0,0.283-0.017,0.418-0.045c0.042-0.009,0.081-0.027,0.123-0.038c0.091-0.026,0.181-0.052,0.267-0.09
		c0.05-0.022,0.096-0.052,0.145-0.079c0.071-0.039,0.142-0.077,0.207-0.125c0.048-0.035,0.092-0.074,0.137-0.113
		c0.059-0.051,0.117-0.103,0.17-0.161c0.018-0.019,0.04-0.034,0.057-0.054c0.023-0.026,0.037-0.057,0.057-0.085
		c0.048-0.063,0.092-0.128,0.133-0.196c0.03-0.05,0.058-0.1,0.083-0.153c0.035-0.073,0.064-0.15,0.091-0.228
		c0.017-0.052,0.036-0.103,0.049-0.157c0.02-0.081,0.031-0.165,0.041-0.249c0.007-0.056,0.015-0.111,0.017-0.167
		c0.001-0.021,0.006-0.039,0.006-0.06c0-0.067-0.013-0.129-0.02-0.195c-0.004-0.045,0-0.091-0.007-0.137
		c-0.002-0.014-0.008-0.026-0.011-0.039c-0.009-0.049-0.025-0.094-0.037-0.141c-0.019-0.071-0.038-0.143-0.065-0.211
		c-0.027-0.069-0.061-0.133-0.094-0.197c-0.018-0.033-0.034-0.068-0.054-0.1c-0.35-0.584-0.983-0.98-1.711-0.98h-0.071h-1.262
		V405.667z"/>
	<path style="fill:#A6A6A6;" d="M197.667,405.667H203c0.368,0,0.667-0.299,0.667-0.667v-5.333c0-0.368-0.299-0.667-0.667-0.667
		h-5.333c-0.368,0-0.667,0.299-0.667,0.667V405C197,405.368,197.299,405.667,197.667,405.667z M198.333,400.333h4v4h-4V400.333z"/>
	<rect x="205" y="399" style="fill:#A6A6A6;" width="13.333" height="1.333"/>
	<rect x="205" y="401.667" style="fill:#A6A6A6;" width="13.333" height="1.333"/>
	<rect x="205" y="404.333" style="fill:#A6A6A6;" width="13.333" height="1.333"/>
	<path style="fill:#A6A6A6;" d="M197.667,397H203c0.368,0,0.667-0.299,0.667-0.667V391c0-0.368-0.299-0.667-0.667-0.667h-5.333
		c-0.368,0-0.667,0.299-0.667,0.667v5.333C197,396.701,197.299,397,197.667,397z M198.333,391.667h4v4h-4V391.667z"/>
	<rect x="205" y="390.333" style="fill:#A6A6A6;" width="13.333" height="1.333"/>
	<rect x="205" y="393" style="fill:#A6A6A6;" width="13.333" height="1.333"/>
	<rect x="205" y="395.667" style="fill:#A6A6A6;" width="13.333" height="1.333"/>
	<path style="fill:#A6A6A6;" d="M197.667,388.333H203c0.368,0,0.667-0.299,0.667-0.667v-5.333c0-0.368-0.299-0.667-0.667-0.667
		h-5.333c-0.368,0-0.667,0.299-0.667,0.667v5.333C197,388.035,197.299,388.333,197.667,388.333z M198.333,383h4v4h-4V383z"/>
	<rect x="205" y="381.667" style="fill:#A6A6A6;" width="13.333" height="1.333"/>
	<rect x="205" y="384.333" style="fill:#A6A6A6;" width="13.333" height="1.333"/>
	<rect x="205" y="387" style="fill:#A6A6A6;" width="13.333" height="1.333"/>
</g>
</svg>
