<?xml version="1.0" encoding="iso-8859-1"?>
<!-- Generator: Adobe Illustrator 21.1.0, SVG Export Plug-In . SVG Version: 6.00 Build 0)  -->
<svg version="1.1" id="Layer_1" xmlns="http://www.w3.org/2000/svg" xmlns:xlink="http://www.w3.org/1999/xlink" x="0px" y="0px"
	 viewBox="186.999 376.999 40 40" style="enable-background:new 186.999 376.999 40 40;" xml:space="preserve">
<g>
	<polygon style="fill:#A6A6A6;" points="209.499,402 209.499,400.748 199.726,400.748 199.726,413.04 201.092,413.04 
		201.092,405.333 206.772,405.333 206.772,404.081 201.092,404.081 201.092,402 	"/>
	<rect x="195.409" y="410.331" style="fill:#A6A6A6;" width="1.818" height="1.252"/>
	<rect x="208.136" y="404.082" style="fill:#A6A6A6;" width="1.818" height="1.252"/>
	<rect x="220.862" y="394.082" style="fill:#A6A6A6;" width="1.818" height="1.252"/>
	<path style="fill:#A6A6A6;" d="M223.363,387.415h-3.182v-2.29h-1.366v2.29h-3.182v3.333h-3.182v17.708h1.366v-13.123h5.68v-1.252
		h-5.68v-2.081h11.361v20.83h-20.225v1.252h20.225v1.664h-36.814v-4.164h5.68v-1.252h-5.68v-2.081h8.407v-1.252h-9.773v10.002
		h39.546v-26.251h-3.182V387.415z M221.997,390.749H217v-2.081h4.997V390.749z"/>
	<rect x="217.226" y="379.499" style="fill:#A6A6A6;" width="4.545" height="1.252"/>
	<path style="fill:#A6A6A6;" d="M211.998,376.999v3.543h1.366v-2.29h1.361v3.957c0,0.805,0.714,1.459,1.592,1.459h6.363
		c0.878,0,1.592-0.655,1.592-1.459v-3.957h1.361v2.29h1.366v-3.543H211.998z M222.907,382.209c0,0.112-0.104,0.207-0.226,0.207
		h-6.363c-0.123,0-0.226-0.095-0.226-0.207v-3.957h6.815L222.907,382.209L222.907,382.209z"/>
	<polygon style="fill:#A6A6A6;" points="189.074,404.317 209.953,385.178 209.953,388.25 211.319,388.25 211.319,383.041 
		205.181,383.041 205.181,384.293 208.987,384.293 188.108,403.431 	"/>
</g>
</svg>
