<?xml version="1.0" encoding="iso-8859-1"?>
<!-- Generator: Adobe Illustrator 21.1.0, SVG Export Plug-In . SVG Version: 6.00 Build 0)  -->
<svg version="1.1" id="Layer_1" xmlns="http://www.w3.org/2000/svg" xmlns:xlink="http://www.w3.org/1999/xlink" x="0px" y="0px"
	 viewBox="187 379.225 40 35.552" style="enable-background:new 187 379.225 40 35.552;" xml:space="preserve">
<g>
	<path style="fill:#A6A6A6;" d="M226.651,410.875l-17.391-30.341c-0.47-0.82-1.315-1.31-2.26-1.31s-1.79,0.49-2.26,1.31
		l-17.391,30.341c-0.468,0.816-0.465,1.788,0.006,2.602c0.471,0.814,1.314,1.299,2.254,1.299h34.781c0.94,0,1.783-0.486,2.254-1.299
		C227.116,412.664,227.119,411.691,226.651,410.875z M225.144,412.607c-0.076,0.13-0.3,0.434-0.753,0.434H189.61
		c-0.453,0-0.677-0.303-0.753-0.434c-0.076-0.13-0.227-0.476-0.002-0.869l0,0l17.391-30.341c0.226-0.395,0.603-0.437,0.755-0.437
		c0.152,0,0.529,0.043,0.755,0.437l17.391,30.341C225.371,412.131,225.219,412.477,225.144,412.607z"/>
	<path style="fill:#A6A6A6;" d="M217.393,401.702c-0.238-0.416-0.769-0.56-1.184-0.321c-0.416,0.238-0.56,0.768-0.321,1.184
		l4.338,7.569c0.16,0.28,0.453,0.436,0.754,0.436c0.146,0,0.295-0.037,0.431-0.115c0.416-0.238,0.56-0.768,0.321-1.184
		L217.393,401.702z"/>
	<path style="fill:#A6A6A6;" d="M197.792,401.38c-0.416-0.238-0.946-0.094-1.184,0.321l-4.338,7.569
		c-0.238,0.416-0.094,0.946,0.321,1.184c0.136,0.078,0.284,0.115,0.431,0.115c0.301,0,0.593-0.157,0.754-0.436l4.338-7.569
		C198.351,402.149,198.208,401.619,197.792,401.38z"/>
	<path style="fill:#A6A6A6;" d="M215.603,398.579c-0.238-0.416-0.768-0.56-1.184-0.322c-0.416,0.238-0.56,0.768-0.322,1.184
		l0.05,0.087c0.16,0.28,0.453,0.437,0.754,0.437c0.146,0,0.294-0.037,0.43-0.115c0.416-0.238,0.56-0.768,0.322-1.184
		L215.603,398.579z"/>
	<path style="fill:#A6A6A6;" d="M199.6,398.225c-0.416-0.238-0.946-0.094-1.184,0.321l-0.087,0.151
		c-0.238,0.416-0.094,0.946,0.321,1.184c0.136,0.078,0.284,0.115,0.431,0.115c0.301,0,0.593-0.157,0.754-0.436l0.087-0.151
		C200.16,398.994,200.016,398.464,199.6,398.225z"/>
	<path style="fill:#A6A6A6;" d="M207,386.719c-0.925,0-1.784,0.37-2.42,1.041c-0.636,0.671-0.959,1.549-0.909,2.473l0.633,11.72
		c0.077,1.432,1.261,2.554,2.695,2.554c1.434,0,2.618-1.122,2.695-2.554l0.633-11.719c0.05-0.923-0.273-1.801-0.909-2.473
		C208.784,387.089,207.925,386.719,207,386.719z M208.596,390.139l-0.634,11.719c-0.028,0.511-0.45,0.912-0.963,0.912
		s-0.935-0.401-0.963-0.912l-0.633-11.72c-0.024-0.443,0.131-0.864,0.436-1.186s0.717-0.499,1.16-0.499
		c0.443,0,0.855,0.177,1.16,0.499C208.465,389.275,208.62,389.696,208.596,390.139z"/>
	<path style="fill:#A6A6A6;" d="M207,405.807c-1.555,0-2.82,1.265-2.82,2.82c0,1.555,1.265,2.82,2.82,2.82s2.82-1.265,2.82-2.82
		C209.82,407.072,208.555,405.807,207,405.807z M207,409.711c-0.598,0-1.085-0.486-1.085-1.085c0-0.598,0.486-1.085,1.085-1.085
		s1.085,0.486,1.085,1.085C208.085,409.225,207.598,409.711,207,409.711z"/>
</g>
</svg>
