<?xml version="1.0" encoding="utf-8"?>
<!-- Generator: Adobe Illustrator 21.1.0, SVG Export Plug-In . SVG Version: 6.00 Build 0)  -->
<svg version="1.1" id="Слой_1" xmlns="http://www.w3.org/2000/svg" xmlns:xlink="http://www.w3.org/1999/xlink" x="0px" y="0px"
	 viewBox="0 0 70 70" enable-background="new 0 0 70 70" xml:space="preserve">
<path fill="#FFFFFF" d="M35,0C15.7,0,0,15.7,0,35s15.7,35,35,35s35-15.7,35-35S54.3,0,35,0z M47.6,18.4c0,0.4-0.4,0.8-0.8,0.8h-4.7
	c-1.7,0-2.5,0.8-2.5,2.4v5.2h7.3c0.2,0,0.4,0.1,0.6,0.3c0.2,0.2,0.2,0.4,0.2,0.6l-1,8.3c0,0.4-0.4,0.7-0.8,0.7h-6.3v22.5
	c0,0.4-0.4,0.8-0.8,0.8h-9.3c-0.4,0-0.8-0.4-0.8-0.8V36.6h-5.5c-0.4,0-0.8-0.4-0.8-0.8v-8.2c0-0.4,0.4-0.8,0.8-0.8h5.8v-6.1
	c-0.1-0.7-0.6-4.5,2.9-7.6c3.1-2.9,7.1-3.1,8.2-3.1c0.2,0,0.3,0,0.3,0h6.5c0.4,0,0.8,0.4,0.8,0.8V18.4z"/>
</svg>
