<?xml version="1.0" encoding="utf-8"?>
<!-- Generator: Adobe Illustrator 21.1.0, SVG Export Plug-In . SVG Version: 6.00 Build 0)  -->
<svg version="1.1" id="Слой_1" xmlns="http://www.w3.org/2000/svg" xmlns:xlink="http://www.w3.org/1999/xlink" x="0px" y="0px"
	 viewBox="0 0 70 70" enable-background="new 0 0 70 70" xml:space="preserve">
<g>
	<path fill="#FFFFFF" d="M43.5,18.7H26.9c-4.5,0-8.1,3.6-8.1,8.1v16.6c0,4.5,3.6,8.1,8.1,8.1h16.6c4.5,0,8.1-3.6,8.1-8.1V26.8
		C51.6,22.3,48,18.7,43.5,18.7z M35.2,45.7c-5.9,0-10.6-4.8-10.6-10.6s4.8-10.6,10.6-10.6s10.6,4.8,10.6,10.6S41.1,45.7,35.2,45.7z
		 M45.8,27.1c-1.4,0-2.5-1.1-2.5-2.5s1.1-2.5,2.5-2.5c1.4,0,2.5,1.1,2.5,2.5S47.3,27.1,45.8,27.1z"/>
	<path fill="#FFFFFF" d="M35.2,0.1c-19.3,0-35,15.7-35,35s15.7,35,35,35s35-15.7,35-35S54.5,0.1,35.2,0.1z M55.8,43.4
		c0,6.8-5.5,12.3-12.3,12.3H26.9c-6.8,0-12.3-5.5-12.3-12.3V26.8c0-6.8,5.5-12.3,12.3-12.3h16.6c6.8,0,12.3,5.5,12.3,12.3V43.4z"/>
	<circle fill="#FFFFFF" cx="35.2" cy="35.1" r="6.5"/>
</g>
</svg>
