<?xml version="1.0" encoding="utf-8"?>
<!-- Generator: Adobe Illustrator 21.1.0, SVG Export Plug-In . SVG Version: 6.00 Build 0)  -->
<svg version="1.1" id="Слой_1" xmlns="http://www.w3.org/2000/svg" xmlns:xlink="http://www.w3.org/1999/xlink" x="0px" y="0px"
	 viewBox="0 0 70 70" enable-background="new 0 0 70 70" xml:space="preserve">
<g>
	<path fill="#FFFFFF" d="M35.3,30c3.1,0,5.5-2.5,5.5-5.6c0-3.1-2.5-5.6-5.6-5.6c-3.1,0-5.6,2.5-5.6,5.6C29.7,27.6,32.2,30,35.3,30z"
		/>
	<path fill="#FFFFFF" d="M35.2,0.2c-19.3,0-35,15.7-35,35s15.7,35,35,35s35-15.7,35-35S54.6,0.2,35.2,0.2z M35.3,13
		c6.3,0,11.4,5.2,11.3,11.5c0,6.2-5.2,11.3-11.5,11.2c-6.2,0-11.3-5.2-11.3-11.4C23.9,18.1,29,13,35.3,13z M48,40.3
		c-1.4,1.4-3.1,2.5-4.9,3.2c-1.8,0.7-3.7,1-5.6,1.3c0.3,0.3,0.4,0.5,0.6,0.6c2.6,2.6,5.2,5.2,7.8,7.8c0.9,0.9,1.1,2,0.6,3
		c-0.5,1.1-1.7,1.9-2.9,1.8c-0.7-0.1-1.3-0.4-1.8-0.9c-2-2-3.9-3.9-5.9-5.9c-0.6-0.6-0.8-0.5-1.3,0c-2,2-4,4-6,6
		c-0.9,0.9-2,1.1-3,0.5c-1.1-0.5-1.8-1.7-1.8-2.8c0-0.8,0.4-1.4,0.9-1.9c2.6-2.6,5.1-5.1,7.7-7.7c0.2-0.2,0.3-0.4,0.6-0.6
		c-3.5-0.4-6.6-1.2-9.3-3.3c-0.3-0.3-0.7-0.5-1-0.8c-1.2-1.1-1.3-2.4-0.4-3.8c0.8-1.1,2.1-1.5,3.5-0.8c0.3,0.1,0.5,0.3,0.8,0.5
		c5,3.4,11.9,3.5,17,0.2c0.5-0.4,1-0.7,1.7-0.9c1.2-0.3,2.3,0.1,3,1.2C49,38.2,49,39.3,48,40.3z"/>
</g>
</svg>
