<?xml version="1.0" encoding="utf-8"?>
<!-- Generator: Adobe Illustrator 21.1.0, SVG Export Plug-In . SVG Version: 6.00 Build 0)  -->
<svg version="1.1" id="Слой_1" xmlns="http://www.w3.org/2000/svg" xmlns:xlink="http://www.w3.org/1999/xlink" x="0px" y="0px"
	 viewBox="0 0 70 70" style="enable-background:new 0 0 70 70;" xml:space="preserve">
<style type="text/css">
	.st0{fill:#FFFFFF;}
</style>
<path class="st0" d="M35,0C15.7,0,0,15.7,0,35s15.7,35,35,35c19.3,0,35-15.7,35-35S54.3,0,35,0z M51,40.8c1.7,1.6,3.4,3.1,4.9,4.9
	c0.7,0.8,1.3,1.6,1.8,2.5c0.7,1.3,0.1,2.7-1.1,2.8l-7.3,0c-1.9,0.2-3.4-0.6-4.6-1.9c-1-1-1.9-2.1-2.9-3.2c-0.4-0.4-0.8-0.8-1.3-1.2
	c-1-0.6-1.9-0.4-2.4,0.6c-0.6,1.1-0.7,2.2-0.8,3.4c-0.1,1.7-0.6,2.2-2.3,2.2c-3.7,0.2-7.2-0.4-10.4-2.2c-2.9-1.6-5.1-3.9-7-6.6
	c-3.8-5.1-6.6-10.7-9.2-16.5c-0.6-1.3-0.2-2,1.3-2c2.4,0,4.8,0,7.1,0c1,0,1.6,0.6,2,1.5c1.3,3.2,2.9,6.2,4.8,9
	c0.5,0.7,1.1,1.5,1.8,2c0.8,0.6,1.5,0.4,1.9-0.6c0.3-0.6,0.4-1.2,0.4-1.9c0.2-2.2,0.2-4.4-0.1-6.6c-0.2-1.4-1-2.3-2.3-2.5
	c-0.7-0.1-0.6-0.4-0.3-0.8c0.6-0.7,1.1-1.1,2.2-1.1h8.2c1.3,0.3,1.6,0.8,1.8,2.1l0,9.1c0,0.5,0.3,2,1.2,2.3c0.7,0.2,1.2-0.3,1.6-0.8
	c2-2.1,3.4-4.6,4.6-7.1c0.6-1.1,1-2.3,1.5-3.5c0.3-0.9,0.9-1.3,1.9-1.3l7.9,0c0.2,0,0.5,0,0.7,0c1.3,0.2,1.7,0.8,1.3,2.1
	c-0.6,2-1.9,3.8-3.2,5.5c-1.3,1.8-2.7,3.6-4,5.4C49.4,38.5,49.5,39.4,51,40.8z"/>
</svg>
