<?xml version="1.0" encoding="iso-8859-1"?>
<!-- Generator: Adobe Illustrator 21.1.0, SVG Export Plug-In . SVG Version: 6.00 Build 0)  -->
<svg version="1.1" id="&#x421;&#x43B;&#x43E;&#x439;_1"
	 xmlns="http://www.w3.org/2000/svg" xmlns:xlink="http://www.w3.org/1999/xlink" x="0px" y="0px" viewBox="0 0 42.386 45"
	 style="enable-background:new 0 0 42.386 45;" xml:space="preserve">
<g>
	<g>
		<defs>
			<rect id="SVGID_1_" width="42.386" height="45"/>
		</defs>
		<clipPath id="SVGID_2_">
			<use xlink:href="#SVGID_1_"  style="overflow:visible;"/>
		</clipPath>
		<linearGradient id="SVGID_3_" gradientUnits="userSpaceOnUse" x1="21.1597" y1="0.1304" x2="21.1597" y2="45.0443">
			<stop  offset="0" style="stop-color:#E61C24"/>
			<stop  offset="1" style="stop-color:#333333"/>
		</linearGradient>
		<path style="clip-path:url(#SVGID_2_);fill:url(#SVGID_3_);" d="M17.481,15.64H6.302c-0.519,0-0.939-0.42-0.939-0.939
			c0-0.519,0.42-0.939,0.939-0.939h11.179c0.519,0,0.939,0.42,0.939,0.939C18.42,15.219,17.999,15.64,17.481,15.64L17.481,15.64z
			 M16.489,38.307c0,0.519-0.42,0.939-0.94,0.939h-3.536v4.729c0,0.365-0.212,0.698-0.544,0.852
			c-0.126,0.059-0.261,0.087-0.395,0.087c-0.218,0-0.434-0.076-0.607-0.223l-1.78-1.507l-1.779,1.507
			c-0.279,0.236-0.67,0.289-1.002,0.136c-0.332-0.154-0.544-0.487-0.544-0.852v-4.729H0.939C0.42,39.246,0,38.825,0,38.307V2.866
			C0,1.286,1.123,0,2.504,0h26.046c0.519,0,0.939,0.42,0.939,0.94c0,0.519-0.42,0.939-0.939,0.939H2.504
			c-0.295,0-0.626,0.422-0.626,0.987v0.988h26.671c0.519,0,0.939,0.42,0.939,0.939v9.141c0,0.519-0.42,0.939-0.939,0.939
			c-0.519,0-0.939-0.42-0.939-0.939V5.732H1.878v31.636h13.671C16.068,37.368,16.489,37.788,16.489,38.307L16.489,38.307z
			 M10.135,39.246H7.241v2.703l0.84-0.712c0.175-0.148,0.391-0.222,0.607-0.222c0.216,0,0.432,0.074,0.607,0.222l0.841,0.712V39.246
			z M42.319,30.311c0,7.117-5.79,12.907-12.907,12.907c-7.117,0-12.907-5.791-12.907-12.907c0-7.117,5.79-12.907,12.907-12.907
			c1.317,0,3.307,0,4.418,1.59c0.471,0.674,1.298,2.511-1.195,4.999c-0.809,0.808-0.811,2.124-0.003,2.933
			c0.809,0.808,2.125,0.81,2.933,0.002c1.655-1.652,3.014-1.817,3.862-1.664c1.018,0.183,1.867,0.913,2.392,2.056
			C42.259,28.277,42.319,29.323,42.319,30.311L42.319,30.311z M40.441,30.311c0-0.896-0.056-1.614-0.328-2.207
			c-0.185-0.403-0.511-0.901-1.018-0.992c-0.576-0.103-1.359,0.304-2.203,1.146c-1.541,1.538-4.049,1.536-5.589-0.005
			c-1.54-1.543-1.537-4.051,0.005-5.59c0.615-0.613,1.561-1.767,0.983-2.593c-0.511-0.73-1.56-0.788-2.879-0.788
			c-6.081,0-11.029,4.948-11.029,11.029c0,6.082,4.948,11.029,11.029,11.029C35.494,41.34,40.441,36.393,40.441,30.311
			L40.441,30.311z M32.776,32.038L32.776,32.038C32.776,32.038,32.776,32.038,32.776,32.038L32.776,32.038z M6.302,17.444
			c-0.519,0-0.939,0.42-0.939,0.939c0,0.519,0.42,0.94,0.939,0.94h3.786c0.519,0,0.939-0.421,0.939-0.94
			c0-0.519-0.42-0.939-0.939-0.939H6.302z M33.003,1.634c-0.296-0.268-0.39-0.694-0.234-1.062c0.156-0.368,0.527-0.596,0.926-0.57
			c6.556,0.434,7.283,4.257,7.184,7.54c-0.046,1.525-1.04,2.78-2.399,3.187v11.159c0,0.519-0.42,0.939-0.939,0.939
			c-0.519,0-0.939-0.42-0.939-0.939v-11.15c-1.402-0.402-2.43-1.696-2.43-3.225c0-0.432,0.003-0.832,0.007-1.204
			C34.202,3.471,34.16,2.685,33.003,1.634L33.003,1.634z M35.661,2.196c0.42,1.104,0.41,2.374,0.395,4.13
			c-0.003,0.367-0.007,0.762-0.007,1.188c0,0.814,0.662,1.475,1.476,1.475c0.802,0,1.45-0.66,1.476-1.504
			C39.069,5.25,38.828,3.039,35.661,2.196L35.661,2.196z M25.558,33.228c-0.505,0.504-1.176,0.782-1.889,0.782h-0.002
			c-0.714-0.001-1.386-0.279-1.891-0.785c-1.041-1.043-1.04-2.741,0.004-3.782c1.043-1.042,2.741-1.04,3.783,0.003
			C26.603,30.49,26.602,32.186,25.558,33.228L25.558,33.228z M24.232,30.773c-0.155-0.156-0.359-0.233-0.563-0.233
			c-0.204,0-0.408,0.077-0.562,0.232c-0.311,0.31-0.311,0.815-0.001,1.126c0.15,0.151,0.35,0.234,0.562,0.234h0.001
			c0.212,0,0.412-0.083,0.563-0.233C24.542,31.589,24.542,31.084,24.232,30.773L24.232,30.773z M30.27,34.164
			c1.042,1.044,1.04,2.741-0.004,3.783c-0.521,0.52-1.205,0.781-1.889,0.781c-0.686,0-1.372-0.261-1.893-0.784
			c-0.504-0.505-0.782-1.178-0.782-1.892c0.001-0.714,0.28-1.386,0.785-1.891C27.531,33.118,29.229,33.12,30.27,34.164L30.27,34.164
			z M28.941,35.491c-0.31-0.311-0.815-0.311-1.126-0.001c-0.151,0.15-0.234,0.351-0.234,0.563c0,0.213,0.083,0.413,0.233,0.563
			c0.31,0.311,0.815,0.311,1.126,0.001S29.251,35.801,28.941,35.491L28.941,35.491z M6.302,11.958H15.2
			c0.519,0,0.939-0.42,0.939-0.939c0-0.519-0.42-0.94-0.939-0.94H6.302c-0.519,0-0.939,0.42-0.939,0.94
			C5.363,11.537,5.783,11.958,6.302,11.958L6.302,11.958z M23.689,26.72c-0.505-0.506-0.783-1.178-0.782-1.892
			c0.001-0.714,0.279-1.386,0.785-1.89c1.043-1.042,2.741-1.04,3.783,0.004c0.504,0.505,0.782,1.177,0.782,1.892
			c-0.001,0.714-0.28,1.386-0.785,1.891c-0.505,0.504-1.176,0.782-1.889,0.782h-0.003C24.865,27.504,24.194,27.225,23.689,26.72
			L23.689,26.72z M24.786,24.83c0,0.212,0.083,0.413,0.233,0.563c0.15,0.151,0.35,0.234,0.563,0.234h0.001
			c0.212,0,0.412-0.083,0.562-0.232c0.15-0.15,0.233-0.35,0.234-0.563c0-0.213-0.083-0.413-0.233-0.563
			c-0.155-0.155-0.36-0.233-0.563-0.233c-0.204,0-0.408,0.077-0.563,0.232C24.869,24.417,24.786,24.617,24.786,24.83L24.786,24.83z
			 M36.559,32.042c1.042,1.043,1.04,2.741-0.004,3.782c-0.505,0.504-1.176,0.782-1.89,0.782h-0.002
			c-0.715-0.001-1.386-0.279-1.891-0.785c-1.042-1.044-1.04-2.741,0.004-3.783c0.505-0.504,1.176-0.782,1.889-0.782h0.002
			C35.383,31.257,36.054,31.536,36.559,32.042L36.559,32.042z M35.462,33.931c0.001-0.212-0.083-0.413-0.232-0.563
			c-0.15-0.151-0.351-0.234-0.564-0.234h0c-0.212,0-0.412,0.083-0.563,0.233c-0.311,0.31-0.311,0.815-0.001,1.126
			c0.15,0.151,0.35,0.234,0.563,0.234h0.001c0.212,0,0.412-0.082,0.562-0.233C35.379,34.344,35.462,34.144,35.462,33.931
			L35.462,33.931z M35.462,33.931"/>
	</g>
</g>
</svg>
