<?xml version="1.0" encoding="iso-8859-1"?>
<!-- Generator: Adobe Illustrator 21.1.0, SVG Export Plug-In . SVG Version: 6.00 Build 0)  -->
<svg version="1.1" id="Capa_1" xmlns="http://www.w3.org/2000/svg" xmlns:xlink="http://www.w3.org/1999/xlink" x="0px" y="0px"
	 viewBox="185.032 374.794 45 44.412" style="enable-background:new 185.032 374.794 45 44.412;" xml:space="preserve">
<g>
	<linearGradient id="SVGID_1_" gradientUnits="userSpaceOnUse" x1="193.8743" y1="374.9731" x2="193.8743" y2="418.9637">
		<stop  offset="0" style="stop-color:#E61C24"/>
		<stop  offset="1" style="stop-color:#333333"/>
	</linearGradient>
	<rect x="192.442" y="399.865" style="fill:url(#SVGID_1_);" width="2.865" height="1.433"/>
	<linearGradient id="SVGID_2_" gradientUnits="userSpaceOnUse" x1="207.532" y1="374.9731" x2="207.532" y2="418.9637">
		<stop  offset="0" style="stop-color:#E61C24"/>
		<stop  offset="1" style="stop-color:#333333"/>
	</linearGradient>
	<path style="fill:url(#SVGID_2_);" d="M213.163,411.831l-3.53-0.424v-2.062c0.326-0.262,0.622-0.559,0.885-0.885h1.264
		c1.58,0,2.865-1.285,2.865-2.865h15.384l-2.701-6.753c-0.254-0.637-0.651-1.201-1.133-1.681c2.169-1.201,3.274-2.506,3.327-2.568
		l0.419-0.503l-0.463-0.463c-1.251-1.25-1.939-2.912-1.939-4.68v-1.259v-6.447c0-1.975-1.607-3.582-3.582-3.582h-0.072
		c-0.332-1.633-1.779-2.865-3.509-2.865h-5.014c-3.554,0-6.447,2.892-6.447,6.447v6.447v1.259c0,1.769-0.688,3.43-1.939,4.681
		l-0.463,0.463l0.036,0.044h-1.216c-1.739,0-3.344,0.574-4.649,1.531l-1.798-1.198v-1.302c1.082-0.628,1.984-1.53,2.612-2.612h0.969
		c1.58,0,2.865-1.285,2.865-2.865v-5.014c0-4.344-3.535-7.88-7.88-7.88h-4.298c-4.344,0-7.88,3.535-7.88,7.88v5.014
		c0,1.58,1.285,2.865,2.865,2.865h0.969c0.628,1.082,1.53,1.984,2.612,2.612v1.302l-2.262,1.508
		c-1.246,0.83-2.169,2.077-2.599,3.511l-1.832,6.109h12.424c0,1.58,1.285,2.865,2.865,2.865h1.264
		c0.262,0.326,0.559,0.622,0.885,0.885v2.062l-3.531,0.424c-1.366,0.164-2.531,1.114-2.969,2.419l-1.658,4.956h23.48l-1.659-4.956
		C215.696,412.945,214.53,411.996,213.163,411.831z M201.754,412.937l0.954-0.115c0.491,1.062,1.476,1.816,2.627,2.023v2.928h-6.232
		l0.336-1.264h2.314V412.937z M206.768,414.845c1.152-0.207,2.137-0.961,2.627-2.023l0.954,0.115v3.572h2.314l0.336,1.264h-6.232
		V414.845z M211.782,407.028h-0.422c0.27-0.664,0.422-1.389,0.422-2.149v-0.716c0.79,0,1.433,0.643,1.433,1.433
		C213.215,406.386,212.572,407.028,211.782,407.028z M223.243,386.971c0,2.764-2.249,5.014-5.014,5.014s-5.014-2.25-5.014-5.014
		v-2.865c0-0.395,0.322-0.716,0.716-0.716h2.221c1.939,0,3.88-0.458,5.611-1.324c0.142-0.072,0.3-0.108,0.458-0.108
		c0.563,0,1.021,0.458,1.021,1.022V386.971z M218.229,393.418c0.754,0,1.476-0.137,2.149-0.376v1.675
		c-0.15,0.357-0.761,1.566-2.149,1.566c-1.39,0-2.001-1.213-2.149-1.566v-1.675C216.754,393.282,217.475,393.418,218.229,393.418z
		 M215.059,395.851c0.403,0.663,1.172,1.543,2.454,1.792v0.789h-1.433v1.433h1.433v1.433h-1.433v1.433h1.433v1.433h-2.865v-2.149
		c0-1.867-0.655-3.581-1.744-4.932L215.059,395.851z M227.916,404.163h-2.524v-2.865h-1.433v2.865h-5.014v-1.433h1.433v-1.433
		h-1.433v-1.433h1.433v-1.433h-1.433v-0.79c1.283-0.249,2.051-1.129,2.454-1.792l3.052,1.744c0.699,0.4,1.249,1.031,1.548,1.779
		L227.916,404.163z M227.99,394.12c-0.532,0.502-1.559,1.345-3.073,2.09l-3.106-1.771v-2.11c0.701-0.47,1.305-1.074,1.775-1.775
		h1.09c0.56,0,1.08-0.168,1.522-0.447C226.411,391.586,227.021,392.97,227.99,394.12z M224.676,389.12H224.3
		c0.239-0.673,0.376-1.395,0.376-2.149v-0.716c0.79,0,1.433,0.643,1.433,1.433S225.466,389.12,224.676,389.12z M215.364,376.227
		h5.014c1.185,0,2.149,0.964,2.149,2.149v0.716h1.433c1.185,0,2.149,0.964,2.149,2.149v3.98c-0.423-0.246-0.908-0.398-1.433-0.398
		v-1.843c0-1.354-1.102-2.455-2.455-2.455c-0.378,0-0.757,0.09-1.098,0.259c-1.535,0.769-3.254,1.174-4.971,1.174h-2.221
		c-1.185,0-2.149,0.964-2.149,2.149v0.716c-0.524,0-1.009,0.152-1.433,0.398v-3.98C210.35,378.477,212.599,376.227,215.364,376.227z
		 M211.782,386.255v0.716c0,0.754,0.137,1.476,0.376,2.149h-0.376c-0.79,0-1.433-0.643-1.433-1.433S210.992,386.255,211.782,386.255
		z M210.26,390.106c0.442,0.279,0.962,0.447,1.522,0.447h1.09c0.47,0.701,1.074,1.305,1.775,1.775v2.107l-2.776,1.587
		c-0.923-0.787-2.029-1.361-3.245-1.657l0.049-0.055c-0.075-0.067-0.145-0.131-0.207-0.19
		C209.437,392.969,210.048,391.586,210.26,390.106z M205.335,395.567h1.433c3.554,0,6.447,2.892,6.447,6.447v1.115
		c-0.423-0.246-0.908-0.398-1.433-0.398v-1.802c0-0.981-0.799-1.78-1.78-1.78c-0.476,0-0.923,0.186-1.259,0.521
		c-0.634,0.634-1.477,0.983-2.373,0.983h-3.9c-1.16,0-2.103,0.926-2.142,2.077h-0.007c-0.524,0-1.009,0.152-1.433,0.398v-1.115
		C198.888,398.459,201.781,395.567,205.335,395.567z M202.47,389.12h-0.33c0.213-0.679,0.33-1.4,0.33-2.149v-0.716
		c0.79,0,1.433,0.643,1.433,1.433S203.26,389.12,202.47,389.12z M188.144,389.12c-0.79,0-1.433-0.643-1.433-1.433
		s0.643-1.433,1.433-1.433v0.716c0,0.749,0.117,1.47,0.33,2.149H188.144z M189.576,386.971v-3.582h8.596v-1.433h-8.596
		c-0.79,0-1.433,0.643-1.433,1.433v1.433c-0.524,0-1.009,0.152-1.433,0.398v-2.547c0-3.555,2.893-6.447,6.447-6.447h4.298
		c3.554,0,6.447,2.892,6.447,6.447v2.547c-0.423-0.246-0.908-0.398-1.433-0.398v-1.433c0-0.79-0.643-1.433-1.433-1.433h-1.433v1.433
		h1.433v3.582c0,3.16-2.571,5.731-5.731,5.731C192.147,392.702,189.576,390.131,189.576,386.971z M191.045,404.163l-0.036-2.875
		l-1.433,0.018l0.036,2.857h-2.655l1.279-4.264c0.335-1.116,1.052-2.085,2.021-2.731l2.092-1.395l2.957,2.956l1.693-1.693
		l-1.013-1.013l-0.68,0.68l-2.149-2.149v-0.75c0.679,0.213,1.4,0.33,2.149,0.33c0.749,0,1.47-0.117,2.149-0.33v0.75l-0.91,0.91
		l1.013,1.013l0.704-0.703l1.317,0.878c-1.313,1.408-2.124,3.29-2.124,5.363v2.149H191.045z M200.321,407.028
		c-0.79,0-1.433-0.643-1.433-1.433c0-0.79,0.643-1.433,1.433-1.433v0.716c0,0.76,0.152,1.485,0.422,2.149H200.321z M201.754,404.88
		v-2.077c0-0.395,0.322-0.716,0.716-0.716h3.9c1.279,0,2.481-0.498,3.386-1.403c0.201-0.201,0.593-0.038,0.593,0.246v3.951
		c0,2.37-1.928,4.298-4.298,4.298C203.681,409.177,201.754,407.25,201.754,404.88z M206.052,410.61c0.76,0,1.485-0.152,2.149-0.422
		v1.74c-0.271,0.913-1.109,1.547-2.068,1.547h-0.163c-0.958,0-1.797-0.635-2.068-1.547v-1.74
		C204.567,410.458,205.292,410.61,206.052,410.61z M197.329,414.705c0.262-0.783,0.961-1.352,1.781-1.451l1.211-0.146v1.968h-1.983
		l-0.716,2.697h-1.319L197.329,414.705z M214.482,417.773l-0.716-2.697h-1.983v-1.968l1.21,0.145
		c0.82,0.099,1.519,0.668,1.781,1.451l1.028,3.069H214.482z"/>
	<linearGradient id="SVGID_3_" gradientUnits="userSpaceOnUse" x1="206.0517" y1="374.9731" x2="206.0517" y2="418.9637">
		<stop  offset="0" style="stop-color:#E61C24"/>
		<stop  offset="1" style="stop-color:#333333"/>
	</linearGradient>
	<path style="fill:url(#SVGID_3_);" d="M206.052,408.461c1.185,0,2.149-0.964,2.149-2.149h-1.433c0,0.395-0.322,0.716-0.716,0.716
		c-0.395,0-0.716-0.321-0.716-0.716h-1.433C203.903,407.497,204.867,408.461,206.052,408.461z"/>
	<linearGradient id="SVGID_4_" gradientUnits="userSpaceOnUse" x1="218.2292" y1="374.9731" x2="218.2292" y2="418.9637">
		<stop  offset="0" style="stop-color:#E61C24"/>
		<stop  offset="1" style="stop-color:#333333"/>
	</linearGradient>
	<path style="fill:url(#SVGID_4_);" d="M218.229,389.12c-0.79,0-1.433-0.643-1.433-1.433h-1.433c0,1.58,1.285,2.865,2.865,2.865
		c1.58,0,2.865-1.285,2.865-2.865h-1.433C219.662,388.478,219.019,389.12,218.229,389.12z"/>
	<linearGradient id="SVGID_5_" gradientUnits="userSpaceOnUse" x1="195.3069" y1="374.9731" x2="195.3069" y2="418.9637">
		<stop  offset="0" style="stop-color:#E61C24"/>
		<stop  offset="1" style="stop-color:#333333"/>
	</linearGradient>
	<path style="fill:url(#SVGID_5_);" d="M198.172,388.404h-1.433c0,0.79-0.643,1.433-1.433,1.433c-0.79,0-1.433-0.643-1.433-1.433
		h-1.433c0,1.58,1.285,2.865,2.865,2.865C196.887,391.269,198.172,389.984,198.172,388.404z"/>
	<linearGradient id="SVGID_6_" gradientUnits="userSpaceOnUse" x1="216.0802" y1="374.9731" x2="216.0802" y2="418.9637">
		<stop  offset="0" style="stop-color:#E61C24"/>
		<stop  offset="1" style="stop-color:#333333"/>
	</linearGradient>
	<rect x="215.364" y="384.823" style="fill:url(#SVGID_6_);" width="1.433" height="1.433"/>
	<linearGradient id="SVGID_7_" gradientUnits="userSpaceOnUse" x1="220.3781" y1="374.9731" x2="220.3781" y2="418.9637">
		<stop  offset="0" style="stop-color:#E61C24"/>
		<stop  offset="1" style="stop-color:#333333"/>
	</linearGradient>
	<rect x="219.662" y="384.823" style="fill:url(#SVGID_7_);" width="1.433" height="1.433"/>
	<linearGradient id="SVGID_8_" gradientUnits="userSpaceOnUse" x1="192.4416" y1="374.9731" x2="192.4416" y2="418.9637">
		<stop  offset="0" style="stop-color:#E61C24"/>
		<stop  offset="1" style="stop-color:#333333"/>
	</linearGradient>
	<rect x="191.725" y="384.823" style="fill:url(#SVGID_8_);" width="1.433" height="1.433"/>
	<linearGradient id="SVGID_9_" gradientUnits="userSpaceOnUse" x1="198.1722" y1="374.9731" x2="198.1722" y2="418.9637">
		<stop  offset="0" style="stop-color:#E61C24"/>
		<stop  offset="1" style="stop-color:#333333"/>
	</linearGradient>
	<rect x="197.456" y="384.823" style="fill:url(#SVGID_9_);" width="1.433" height="1.433"/>
	<linearGradient id="SVGID_10_" gradientUnits="userSpaceOnUse" x1="203.9027" y1="374.9731" x2="203.9027" y2="418.9637">
		<stop  offset="0" style="stop-color:#E61C24"/>
		<stop  offset="1" style="stop-color:#333333"/>
	</linearGradient>
	<rect x="203.186" y="403.447" style="fill:url(#SVGID_10_);" width="1.433" height="1.433"/>
	<linearGradient id="SVGID_11_" gradientUnits="userSpaceOnUse" x1="208.2007" y1="374.9731" x2="208.2007" y2="418.9637">
		<stop  offset="0" style="stop-color:#E61C24"/>
		<stop  offset="1" style="stop-color:#333333"/>
	</linearGradient>
	<rect x="207.484" y="403.447" style="fill:url(#SVGID_11_);" width="1.433" height="1.433"/>
</g>
</svg>
