<?xml version="1.0" encoding="iso-8859-1"?>
<!-- Generator: Adobe Illustrator 21.1.0, SVG Export Plug-In . SVG Version: 6.00 Build 0)  -->
<svg version="1.1" id="&#x421;&#x43B;&#x43E;&#x439;_1"
	 xmlns="http://www.w3.org/2000/svg" xmlns:xlink="http://www.w3.org/1999/xlink" x="0px" y="0px" viewBox="0 0 44.188 45"
	 style="enable-background:new 0 0 44.188 45;" xml:space="preserve">
<g>
	<g>
		<defs>
			<rect id="SVGID_1_" width="44.188" height="45"/>
		</defs>
		<clipPath id="SVGID_2_">
			<use xlink:href="#SVGID_1_"  style="overflow:visible;"/>
		</clipPath>
		<linearGradient id="SVGID_3_" gradientUnits="userSpaceOnUse" x1="22.0909" y1="0.1327" x2="22.0909" y2="44.5566">
			<stop  offset="0" style="stop-color:#E61C24"/>
			<stop  offset="1" style="stop-color:#333333"/>
		</linearGradient>
		<path style="clip-path:url(#SVGID_2_);fill:url(#SVGID_3_);" d="M22.091,32.842c-2.225,0-4.036,1.811-4.036,4.036
			c0,0.709,0.19,1.216,0.582,1.552c0.605,0.519,1.416,0.395,2.2,0.274c0.405-0.062,0.823-0.127,1.254-0.127
			c0.431,0,0.849,0.064,1.254,0.127c0.343,0.053,0.692,0.106,1.026,0.106c0.429,0,0.834-0.088,1.174-0.38
			c0.391-0.335,0.582-0.843,0.582-1.552C26.126,34.652,24.316,32.842,22.091,32.842L22.091,32.842z M24.411,37.113
			c-0.186,0.007-0.538-0.048-0.807-0.09c-0.446-0.068-0.952-0.146-1.513-0.146c-0.561,0-1.067,0.078-1.513,0.146
			c-0.27,0.041-0.622,0.096-0.808,0.09c-0.008-0.05-0.016-0.127-0.016-0.236c0-1.289,1.048-2.337,2.336-2.337
			c1.289,0,2.337,1.048,2.337,2.337C24.427,36.987,24.42,37.063,24.411,37.113L24.411,37.113z M24.411,37.113"/>
		<linearGradient id="SVGID_4_" gradientUnits="userSpaceOnUse" x1="22.0909" y1="0.1327" x2="22.0909" y2="44.5566">
			<stop  offset="0" style="stop-color:#E61C24"/>
			<stop  offset="1" style="stop-color:#333333"/>
		</linearGradient>
		<path style="clip-path:url(#SVGID_2_);fill:url(#SVGID_4_);" d="M43.46,35.884c-1.299-3.261-4.24-5.233-5.392-5.905
			c1.92-0.498,3.341-2.245,3.341-4.318c0-0.903-0.275-1.783-0.781-2.522c0.289-1.331,0.437-2.698,0.437-4.07
			C41.065,8.555,32.511,0,21.996,0S2.927,8.555,2.927,19.07c0,1.448,0.165,2.889,0.487,4.29c-0.407,0.672-0.641,1.46-0.641,2.301
			c0,2.073,1.421,3.82,3.34,4.318c-1.152,0.672-4.093,2.645-5.392,5.906c-1.6,4.015-0.05,8.323,0.017,8.505
			c0.083,0.227,0.259,0.406,0.483,0.496c0.101,0.04,0.208,0.061,0.314,0.061c0.13,0,0.259-0.029,0.377-0.088
			c0.174-0.086,4.262-2.148,5.862-6.163c0.286-0.717,0.47-1.443,0.582-2.154c0.554,0.997,1.218,1.938,1.987,2.804
			c2.98,3.356,7.263,5.281,11.748,5.281c4.485,0,8.767-1.925,11.747-5.281c0.769-0.866,1.433-1.807,1.986-2.804
			c0.112,0.711,0.296,1.437,0.582,2.154c1.6,4.015,5.689,6.077,5.862,6.163c0.118,0.059,0.247,0.088,0.377,0.088
			c0.106,0,0.213-0.02,0.314-0.06c0.224-0.089,0.4-0.27,0.483-0.496C43.51,44.208,45.06,39.899,43.46,35.884L43.46,35.884z
			 M39.71,25.657c0,0.001,0,0.002,0,0.004c0,1.226-0.803,2.268-1.911,2.627v-1.786c0.247,0.048,0.498,0.094,0.753,0.134
			c0.044,0.007,0.088,0.01,0.132,0.01c0.315,0,0.609-0.175,0.756-0.462L39.71,25.657z M4.472,25.661
			c0-1.226,0.804-2.268,1.912-2.627v5.254C5.275,27.929,4.472,26.887,4.472,25.661L4.472,25.661z M6.196,38.065
			c-0.936,2.35-2.968,3.96-4.145,4.736c-0.321-1.374-0.688-3.939,0.248-6.289c0.936-2.349,2.967-3.959,4.144-4.736
			C6.765,33.151,7.132,35.716,6.196,38.065L6.196,38.065z M13.544,36.103c-0.003-0.008-0.005-0.016-0.007-0.024
			c-0.094-0.316-0.142-0.644-0.142-0.976c0-0.386,0.065-0.768,0.192-1.135c0.192-0.547,0.289-1.118,0.289-1.697
			c0-0.493-0.072-0.985-0.212-1.46c-0.206-0.697-0.189-1.428,0.051-2.112l0.351-1.003c0.009,0,0.018-0.001,0.027-0.001
			c0.205,0,0.405,0.03,0.596,0.088l-0.254,0.985c-0.235,0.911-0.215,1.87,0.058,2.774l0.217,0.715
			c0.183,0.603,0.196,1.245,0.039,1.856l-0.187,0.724c-0.234,0.912-0.214,1.87,0.059,2.771l0.217,0.715
			c0.183,0.605,0.196,1.248,0.039,1.858l-0.166,0.642c-0.501-0.311-0.984-0.654-1.445-1.027l0.196-0.56
			C13.817,38.218,13.845,37.135,13.544,36.103L13.544,36.103z M29.305,40.181c-0.157-0.611-0.143-1.254,0.039-1.858l0.217-0.716
			c0.272-0.901,0.293-1.859,0.058-2.772l-0.187-0.722c-0.157-0.613-0.144-1.255,0.039-1.857l0.217-0.716
			c0.273-0.903,0.293-1.862,0.058-2.773l-0.254-0.985c0.19-0.057,0.39-0.088,0.595-0.088c0.009,0,0.019,0.002,0.028,0.002
			l0.35,1.003c0.24,0.684,0.257,1.415,0.051,2.111c-0.141,0.476-0.213,0.968-0.213,1.46c0,0.579,0.097,1.15,0.288,1.695
			c0.128,0.368,0.193,0.75,0.193,1.136c0,0.332-0.048,0.661-0.141,0.976c-0.003,0.008-0.005,0.016-0.007,0.024
			c-0.301,1.033-0.273,2.116,0.082,3.134l0.196,0.559c-0.46,0.374-0.943,0.717-1.445,1.027L29.305,40.181z M36.099,28.917
			c0,3.433-1.254,6.736-3.531,9.299c-0.095,0.107-0.191,0.211-0.289,0.314c-0.193-0.644-0.198-1.32-0.006-1.967
			c0.003-0.008,0.005-0.016,0.007-0.023c0.136-0.466,0.205-0.949,0.205-1.437c0-0.577-0.097-1.148-0.288-1.697
			c-0.128-0.366-0.193-0.748-0.193-1.135c0-0.33,0.048-0.659,0.143-0.978c0.268-0.906,0.283-1.85,0.046-2.753
			c0.198-0.013,0.391-0.095,0.542-0.246c0.332-0.332,0.332-0.87,0-1.201c-0.707-0.707-1.647-1.096-2.647-1.096
			c-1,0-1.94,0.389-2.647,1.096c-0.332,0.332-0.332,0.87,0,1.201c0.137,0.138,0.311,0.217,0.49,0.241l0.17,0.658
			c0.157,0.61,0.144,1.252-0.038,1.856l-0.217,0.715c-0.273,0.9-0.293,1.859-0.058,2.774l0.187,0.722
			c0.157,0.611,0.143,1.253-0.039,1.856l-0.217,0.717c-0.272,0.902-0.292,1.86-0.058,2.773l0.269,1.045
			c-1.813,0.832-3.801,1.277-5.838,1.277c-2.036,0-4.025-0.445-5.838-1.277l0.27-1.046c0.234-0.912,0.214-1.87-0.059-2.772
			l-0.217-0.716c-0.183-0.604-0.196-1.246-0.039-1.855l0.187-0.725c0.234-0.914,0.214-1.872-0.059-2.772l-0.217-0.713
			c-0.183-0.605-0.196-1.248-0.038-1.858l0.169-0.657c0.179-0.023,0.353-0.103,0.49-0.241c0.332-0.332,0.332-0.87,0-1.201
			c-0.707-0.707-1.647-1.097-2.647-1.097c-1,0-1.94,0.389-2.647,1.097c-0.332,0.332-0.332,0.87,0,1.201
			c0.151,0.151,0.345,0.232,0.542,0.246c-0.236,0.904-0.222,1.848,0.046,2.754c0.094,0.319,0.142,0.648,0.142,0.978
			c0,0.387-0.065,0.769-0.193,1.137c-0.191,0.548-0.287,1.118-0.287,1.695c0,0.488,0.068,0.971,0.204,1.437
			c0.003,0.008,0.005,0.016,0.007,0.024c0.192,0.648,0.188,1.325-0.006,1.968c-0.098-0.104-0.194-0.208-0.289-0.315
			c-2.277-2.564-3.531-5.866-3.531-9.299V22.52c0.572-0.291,1.502-0.856,2.424-1.807c1.006-1.038,2.159-2.71,2.655-5.201
			c0.486,0.691,1.102,1.477,1.848,2.266c2.822,2.987,6.161,4.567,9.657,4.567c0.31,0,0.595-0.169,0.745-0.441
			c0.149-0.272,0.138-0.603-0.028-0.865c-0.942-1.481-1.121-2.989-1.047-4.167c0.518,0.892,1.238,1.969,2.194,3.085
			c1.854,2.163,4.941,4.825,9.569,6.139V28.917z M27.864,18.903c-2.161-2.504-3.027-4.841-3.035-4.863
			c-0.118-0.327-0.424-0.55-0.772-0.561c-0.352-0.009-0.667,0.191-0.806,0.511c-0.063,0.146-1.36,3.21-0.023,6.554
			c-2.499-0.36-4.831-1.666-6.949-3.897c-1.928-2.031-2.942-4.101-2.951-4.12c-0.191-0.397-0.659-0.589-1.084-0.419
			c-0.326,0.13-0.531,0.458-0.532,0.808c-0.008,5.372-3.197,7.484-4.358,8.075c-0.229,0.116-1.882,0.511-2.497,0.9
			c-0.151-0.929-0.23-1.873-0.23-2.821c0-9.578,7.792-17.37,17.37-17.37s17.37,7.792,17.37,17.37c0,1.375-0.161,2.744-0.479,4.068
			c-0.001,0.003-0.001,0.006-0.002,0.008c-0.125,0.514-0.673,1.707-0.673,1.707C34.082,24.076,30.603,22.076,27.864,18.903
			L27.864,18.903z M42.129,42.804c-1.176-0.773-3.203-2.378-4.144-4.739c-0.936-2.349-0.569-4.915-0.248-6.288
			c1.178,0.776,3.209,2.386,4.145,4.736C42.818,38.864,42.45,41.432,42.129,42.804L42.129,42.804z M42.129,42.804"/>
	</g>
</g>
</svg>
