<?xml version="1.0" encoding="iso-8859-1"?>
<!-- Generator: Adobe Illustrator 21.1.0, SVG Export Plug-In . SVG Version: 6.00 Build 0)  -->
<svg version="1.1" id="Layer_1" xmlns="http://www.w3.org/2000/svg" xmlns:xlink="http://www.w3.org/1999/xlink" x="0px" y="0px"
	 viewBox="186.4 374.5 41.199 45" style="enable-background:new 186.4 374.5 41.199 45;" xml:space="preserve">
<g>
	<linearGradient id="SVGID_1_" gradientUnits="userSpaceOnUse" x1="207.1459" y1="375.2031" x2="207.1459" y2="419.2499">
		<stop  offset="0" style="stop-color:#E61C24"/>
		<stop  offset="1" style="stop-color:#333333"/>
	</linearGradient>
	<rect x="206.398" y="397.058" style="fill:url(#SVGID_1_);" width="1.496" height="1.496"/>
	<linearGradient id="SVGID_2_" gradientUnits="userSpaceOnUse" x1="207.0021" y1="375.2031" x2="207.0021" y2="419.2499">
		<stop  offset="0" style="stop-color:#E61C24"/>
		<stop  offset="1" style="stop-color:#333333"/>
	</linearGradient>
	<polygon style="fill:url(#SVGID_2_);" points="215.543,387.547 211.221,398.001 210.001,405.587 209.996,405.615 208.951,418.004 
		205.059,418.004 204.131,405.761 202.796,398.077 202.782,397.996 198.461,387.547 197.079,388.118 201.336,398.415 
		202.645,405.946 203.672,419.5 210.326,419.5 211.482,405.797 212.67,398.411 216.926,388.118 	"/>
	<linearGradient id="SVGID_3_" gradientUnits="userSpaceOnUse" x1="207.1459" y1="375.2031" x2="207.1459" y2="419.2499">
		<stop  offset="0" style="stop-color:#E61C24"/>
		<stop  offset="1" style="stop-color:#333333"/>
	</linearGradient>
	<rect x="206.398" y="399.552" style="fill:url(#SVGID_3_);" width="1.496" height="4.887"/>
	<linearGradient id="SVGID_4_" gradientUnits="userSpaceOnUse" x1="207.8437" y1="375.2031" x2="207.8437" y2="419.2499">
		<stop  offset="0" style="stop-color:#E61C24"/>
		<stop  offset="1" style="stop-color:#333333"/>
	</linearGradient>
	<path style="fill:url(#SVGID_4_);" d="M207.395,396.31c1.563,0,2.834-1.271,2.834-2.834v-2.166c0.056-0.044,0.111-0.09,0.164-0.14
		c0.487-0.464,0.733-1.134,0.733-1.991h-1.496c0,0.432-0.091,0.738-0.27,0.909c-0.378,0.361-2.487,0.262-2.702,0.262v1.496
		c0.18,0,1.849,0.035,2.074,0.011v1.619c0,0.738-0.6,1.338-1.338,1.338c-0.738,0-1.338-0.6-1.338-1.338v-1.504h-1.496v1.504
		C204.561,395.039,205.832,396.31,207.395,396.31z"/>
	<linearGradient id="SVGID_5_" gradientUnits="userSpaceOnUse" x1="207.0021" y1="375.2031" x2="207.0021" y2="419.2499">
		<stop  offset="0" style="stop-color:#E61C24"/>
		<stop  offset="1" style="stop-color:#333333"/>
	</linearGradient>
	<path style="fill:url(#SVGID_5_);" d="M210.984,386.755l-3.982-2.093l-3.982,2.093l0.761-4.434l-3.222-3.14l4.452-0.647
		l1.991-4.034l1.991,4.034l4.452,0.647l-3.222,3.14L210.984,386.755z M207.002,382.972l1.995,1.049l-0.381-2.221l1.614-1.573
		l-2.23-0.324l-0.997-2.021l-0.997,2.021l-2.23,0.324l1.614,1.573l-0.381,2.221L207.002,382.972z"/>
	<linearGradient id="SVGID_6_" gradientUnits="userSpaceOnUse" x1="195.4323" y1="375.2031" x2="195.4323" y2="419.2499">
		<stop  offset="0" style="stop-color:#E61C24"/>
		<stop  offset="1" style="stop-color:#333333"/>
	</linearGradient>
	<path style="fill:url(#SVGID_6_);" d="M200.469,383.258h-1.496v-1.496h1.496V383.258z M196.18,383.258h-1.496v-1.496h1.496V383.258
		z M191.891,383.258h-1.496v-1.496h1.496V383.258z"/>
	<linearGradient id="SVGID_7_" gradientUnits="userSpaceOnUse" x1="218.5719" y1="375.2031" x2="218.5719" y2="419.2499">
		<stop  offset="0" style="stop-color:#E61C24"/>
		<stop  offset="1" style="stop-color:#333333"/>
	</linearGradient>
	<path style="fill:url(#SVGID_7_);" d="M223.609,383.258h-1.496v-1.496h1.496V383.258z M219.32,383.258h-1.496v-1.496h1.496V383.258
		z M215.031,383.258h-1.496v-1.496h1.496V383.258z"/>
	<linearGradient id="SVGID_8_" gradientUnits="userSpaceOnUse" x1="191.8358" y1="375.2031" x2="191.8358" y2="419.2499">
		<stop  offset="0" style="stop-color:#E61C24"/>
		<stop  offset="1" style="stop-color:#333333"/>
	</linearGradient>
	<rect x="191.088" y="397.058" style="fill:url(#SVGID_8_);" width="1.496" height="1.496"/>
	<linearGradient id="SVGID_9_" gradientUnits="userSpaceOnUse" x1="191.8416" y1="375.2031" x2="191.8416" y2="419.2499">
		<stop  offset="0" style="stop-color:#E61C24"/>
		<stop  offset="1" style="stop-color:#333333"/>
	</linearGradient>
	<path style="fill:url(#SVGID_9_);" d="M194.647,395.959l-1.011,1.103l2.151,1.972v6.453c0,0.522-0.425,0.948-0.948,0.948h-0.686
		l-0.997,11.57h-2.618l-1.01-11.57h-0.686c-0.522,0-0.948-0.425-0.948-0.948v-6.453l2.151-1.972l-1.011-1.103l-2.636,2.417v7.111
		c0,1.106,0.739,2.043,1.749,2.343l1.019,11.67h5.362l1.006-11.67c1.01-0.3,1.749-1.237,1.749-2.343v-7.111L194.647,395.959z"/>
	<linearGradient id="SVGID_10_" gradientUnits="userSpaceOnUse" x1="191.8358" y1="375.2031" x2="191.8358" y2="419.2499">
		<stop  offset="0" style="stop-color:#E61C24"/>
		<stop  offset="1" style="stop-color:#333333"/>
	</linearGradient>
	<rect x="191.088" y="399.552" style="fill:url(#SVGID_10_);" width="1.496" height="4.887"/>
	<linearGradient id="SVGID_11_" gradientUnits="userSpaceOnUse" x1="192.2843" y1="375.2031" x2="192.2843" y2="419.2499">
		<stop  offset="0" style="stop-color:#E61C24"/>
		<stop  offset="1" style="stop-color:#333333"/>
	</linearGradient>
	<path style="fill:url(#SVGID_11_);" d="M191.835,396.31c1.563,0,2.834-1.271,2.834-2.834v-2.166c0.056-0.044,0.111-0.09,0.164-0.14
		c0.487-0.464,0.733-1.134,0.733-1.991h-1.496c0,0.432-0.091,0.738-0.27,0.909c-0.378,0.361-2.487,0.262-2.702,0.262v1.496h2.074
		v1.631c0,0.738-0.6,1.338-1.338,1.338c-0.738,0-1.338-0.6-1.338-1.338v-1.504h-1.496v1.504
		C189.001,395.039,190.273,396.31,191.835,396.31z"/>
	<linearGradient id="SVGID_12_" gradientUnits="userSpaceOnUse" x1="222.1497" y1="375.2031" x2="222.1497" y2="419.2499">
		<stop  offset="0" style="stop-color:#E61C24"/>
		<stop  offset="1" style="stop-color:#333333"/>
	</linearGradient>
	<rect x="221.402" y="397.034" style="fill:url(#SVGID_12_);" width="1.496" height="1.496"/>
	<linearGradient id="SVGID_13_" gradientUnits="userSpaceOnUse" x1="222.1562" y1="375.2031" x2="222.1562" y2="419.2499">
		<stop  offset="0" style="stop-color:#E61C24"/>
		<stop  offset="1" style="stop-color:#333333"/>
	</linearGradient>
	<path style="fill:url(#SVGID_13_);" d="M224.962,395.934l-1.011,1.103l2.151,1.972v6.453c0,0.522-0.425,0.948-0.948,0.948h-0.686
		l-0.997,11.57h-2.618l-1.01-11.57h-0.686c-0.522,0-0.948-0.425-0.948-0.948v-6.453l2.151-1.972l-1.011-1.103l-2.636,2.417v7.111
		c0,1.106,0.739,2.043,1.749,2.343l1.019,11.67h5.362l1.006-11.67c1.01-0.3,1.749-1.237,1.749-2.343v-7.111L224.962,395.934z"/>
	<linearGradient id="SVGID_14_" gradientUnits="userSpaceOnUse" x1="222.1497" y1="375.2031" x2="222.1497" y2="419.2499">
		<stop  offset="0" style="stop-color:#E61C24"/>
		<stop  offset="1" style="stop-color:#333333"/>
	</linearGradient>
	<rect x="221.402" y="399.528" style="fill:url(#SVGID_14_);" width="1.496" height="4.887"/>
	<linearGradient id="SVGID_15_" gradientUnits="userSpaceOnUse" x1="222.5989" y1="375.2031" x2="222.5989" y2="419.2499">
		<stop  offset="0" style="stop-color:#E61C24"/>
		<stop  offset="1" style="stop-color:#333333"/>
	</linearGradient>
	<path style="fill:url(#SVGID_15_);" d="M222.15,396.286c1.563,0,2.834-1.271,2.834-2.834v-2.166c0.056-0.044,0.111-0.09,0.164-0.14
		c0.487-0.464,0.733-1.134,0.733-1.991h-1.496c0,0.432-0.091,0.738-0.27,0.909c-0.378,0.361-2.487,0.262-2.702,0.262v1.496h2.074
		v1.631c0,0.738-0.6,1.338-1.338,1.338s-1.338-0.6-1.338-1.338v-1.504h-1.496v1.504C219.316,395.015,220.587,396.286,222.15,396.286
		z"/>
</g>
</svg>
