<?xml version="1.0" encoding="iso-8859-1"?>
<!-- Generator: Adobe Illustrator 21.1.0, SVG Export Plug-In . SVG Version: 6.00 Build 0)  -->
<svg version="1.1" id="Layer_1" xmlns="http://www.w3.org/2000/svg" xmlns:xlink="http://www.w3.org/1999/xlink" x="0px" y="0px"
	 viewBox="184.559 377.896 44.883 45" style="enable-background:new 184.559 377.896 44.883 45;" xml:space="preserve">
<g>
	<linearGradient id="SVGID_1_" gradientUnits="userSpaceOnUse" x1="207" y1="377.8232" x2="207" y2="422.9335">
		<stop  offset="0" style="stop-color:#E61C24"/>
		<stop  offset="1" style="stop-color:#333333"/>
	</linearGradient>
	<path style="fill:url(#SVGID_1_);" d="M215.848,409.352l-4.432-1.024v-1.851c1.076-0.965,1.833-2.274,2.098-3.755
		c1.912-1.526,3.053-3.866,3.053-6.318v-2.789c0-1.144-0.818-2.1-1.9-2.317c-1.811-3.177-5.403-4.919-9.066-4.352
		c-0.531,0.082-1.046,0.219-1.544,0.397v-6.071L207,379.59l2.944,1.682v4.83h1.472v-3.988l0.371,0.212l0.73-1.277L207,377.896
		l-5.516,3.152l0.73,1.277l0.371-0.212v5.921c-2.353,1.382-4.047,3.835-4.359,6.62c-0.279,2.492,0.51,4.957,2.151,6.826v0.075
		c0,1.955,0.857,3.71,2.208,4.922v1.851l-4.432,1.024c-3.023,0.697-5.134,3.35-5.134,6.453v7.091h27.964v-7.091
		C220.982,412.703,218.871,410.049,215.848,409.352z M212.453,410.079l-1.996,2.995l-2.17-1.303l2.575-2.06L212.453,410.079z
		 M207,412.716l1.763,1.057l-1.052,1.578l0.675,6.073h-2.771l0.675-6.073l-1.052-1.578L207,412.716z M199.689,394.818
		c0.36-3.226,2.94-5.925,6.135-6.418c3.174-0.49,6.273,1.088,7.724,3.923l0.206,0.401h0.45c0.492,0,0.891,0.4,0.891,0.89v2.789
		c0,1.519-0.536,2.985-1.473,4.152l-0.004-4.515l-1.017,0.42c-0.016,0.007-1.687,0.678-5.602,0.678s-5.585-0.671-5.597-0.676
		l-1.026-0.439v2.824C199.782,397.611,199.532,396.22,199.689,394.818z M201.849,401.555v-3.434c0.962,0.224,2.632,0.49,5.151,0.49
		c2.519,0,4.189-0.266,5.151-0.49v3.434c0,2.84-2.311,5.151-5.151,5.151S201.849,404.395,201.849,401.555z M207,408.178
		c1.058,0,2.055-0.255,2.944-0.699v1.08L207,410.914l-2.944-2.355v-1.08C204.945,407.923,205.942,408.178,207,408.178z
		 M203.139,409.712l2.575,2.06l-2.17,1.303l-1.996-2.995L203.139,409.712z M194.49,415.805c0-2.413,1.642-4.477,3.993-5.019
		l1.531-0.353l3.083,4.624l0.876-0.525l0.794,1.191l-0.634,5.702h-5.228v-3.679h-1.472v3.679h-2.944V415.805z M219.51,421.424
		h-2.944v-3.679h-1.472v3.679h-5.228l-0.634-5.702l0.794-1.191l0.876,0.525l3.083-4.624l1.531,0.353
		c2.351,0.542,3.993,2.606,3.993,5.019V421.424z"/>
	<linearGradient id="SVGID_2_" gradientUnits="userSpaceOnUse" x1="193.7541" y1="377.8232" x2="193.7541" y2="422.9335">
		<stop  offset="0" style="stop-color:#E61C24"/>
		<stop  offset="1" style="stop-color:#333333"/>
	</linearGradient>
	<rect x="193.018" y="409.65" style="fill:url(#SVGID_2_);" width="1.472" height="1.472"/>
	<linearGradient id="SVGID_3_" gradientUnits="userSpaceOnUse" x1="190.0747" y1="377.8232" x2="190.0747" y2="422.9335">
		<stop  offset="0" style="stop-color:#E61C24"/>
		<stop  offset="1" style="stop-color:#333333"/>
	</linearGradient>
	<polygon style="fill:url(#SVGID_3_);" points="190.075,379.59 193.018,381.272 193.018,408.178 194.49,408.178 194.49,382.113 
		194.861,382.325 195.591,381.048 190.075,377.896 184.559,381.048 185.288,382.325 185.659,382.113 185.659,422.896 
		187.131,422.896 187.131,381.272 	"/>
	<linearGradient id="SVGID_4_" gradientUnits="userSpaceOnUse" x1="190.0747" y1="377.8232" x2="190.0747" y2="422.9335">
		<stop  offset="0" style="stop-color:#E61C24"/>
		<stop  offset="1" style="stop-color:#333333"/>
	</linearGradient>
	<rect x="189.339" y="381.687" style="fill:url(#SVGID_4_);" width="1.472" height="35.322"/>
	<linearGradient id="SVGID_5_" gradientUnits="userSpaceOnUse" x1="227.6047" y1="377.8232" x2="227.6047" y2="422.9335">
		<stop  offset="0" style="stop-color:#E61C24"/>
		<stop  offset="1" style="stop-color:#333333"/>
	</linearGradient>
	<rect x="226.869" y="421.424" style="fill:url(#SVGID_5_);" width="1.472" height="1.472"/>
	<linearGradient id="SVGID_6_" gradientUnits="userSpaceOnUse" x1="220.2459" y1="377.8232" x2="220.2459" y2="422.9335">
		<stop  offset="0" style="stop-color:#E61C24"/>
		<stop  offset="1" style="stop-color:#333333"/>
	</linearGradient>
	<rect x="219.51" y="408.178" style="fill:url(#SVGID_6_);" width="1.472" height="1.472"/>
	<linearGradient id="SVGID_7_" gradientUnits="userSpaceOnUse" x1="223.9253" y1="377.8232" x2="223.9253" y2="422.9335">
		<stop  offset="0" style="stop-color:#E61C24"/>
		<stop  offset="1" style="stop-color:#333333"/>
	</linearGradient>
	<polygon style="fill:url(#SVGID_7_);" points="229.441,389.142 223.925,385.991 218.409,389.142 219.139,390.42 219.51,390.208 
		219.51,406.707 220.982,406.707 220.982,389.367 223.925,387.685 226.869,389.367 226.869,419.952 228.341,419.952 
		228.341,390.208 228.712,390.42 	"/>
	<linearGradient id="SVGID_8_" gradientUnits="userSpaceOnUse" x1="223.9253" y1="377.8232" x2="223.9253" y2="422.9335">
		<stop  offset="0" style="stop-color:#E61C24"/>
		<stop  offset="1" style="stop-color:#333333"/>
	</linearGradient>
	<rect x="223.189" y="389.781" style="fill:url(#SVGID_8_);" width="1.472" height="27.228"/>
	<linearGradient id="SVGID_9_" gradientUnits="userSpaceOnUse" x1="207" y1="377.8232" x2="207" y2="422.9335">
		<stop  offset="0" style="stop-color:#E61C24"/>
		<stop  offset="1" style="stop-color:#333333"/>
	</linearGradient>
	<rect x="206.264" y="381.687" style="fill:url(#SVGID_9_);" width="1.472" height="3.679"/>
	<linearGradient id="SVGID_10_" gradientUnits="userSpaceOnUse" x1="190.0747" y1="377.8232" x2="190.0747" y2="422.9335">
		<stop  offset="0" style="stop-color:#E61C24"/>
		<stop  offset="1" style="stop-color:#333333"/>
	</linearGradient>
	<rect x="189.339" y="418.481" style="fill:url(#SVGID_10_);" width="1.472" height="1.472"/>
	<linearGradient id="SVGID_11_" gradientUnits="userSpaceOnUse" x1="190.0747" y1="377.8232" x2="190.0747" y2="422.9335">
		<stop  offset="0" style="stop-color:#E61C24"/>
		<stop  offset="1" style="stop-color:#333333"/>
	</linearGradient>
	<rect x="189.339" y="421.424" style="fill:url(#SVGID_11_);" width="1.472" height="1.472"/>
	<linearGradient id="SVGID_12_" gradientUnits="userSpaceOnUse" x1="223.9253" y1="377.8232" x2="223.9253" y2="422.9335">
		<stop  offset="0" style="stop-color:#E61C24"/>
		<stop  offset="1" style="stop-color:#333333"/>
	</linearGradient>
	<rect x="223.189" y="418.481" style="fill:url(#SVGID_12_);" width="1.472" height="4.415"/>
</g>
</svg>
