<?xml version="1.0" encoding="utf-8"?>
<!-- Generator: Adobe Illustrator 21.1.0, SVG Export Plug-In . SVG Version: 6.00 Build 0)  -->
<svg version="1.1" id="Слой_1" xmlns="http://www.w3.org/2000/svg" xmlns:xlink="http://www.w3.org/1999/xlink" x="0px" y="0px"
	 viewBox="0 0 70 70" enable-background="new 0 0 70 70" xml:space="preserve">
<g>
	<path fill="#353535" d="M6.4,14.4c0.6-0.3,0.8-1,0.6-1.6c-0.3-0.6-1-0.8-1.5-0.6c-0.8,0.4-1.6,0.9-2.2,1.4
		c-0.5,0.4-0.5,1.2-0.1,1.6c0.2,0.3,0.6,0.4,0.9,0.4c0.3,0,0.5-0.1,0.8-0.3C5.3,15.1,5.8,14.7,6.4,14.4L6.4,14.4z M6.4,14.4"/>
	<path fill="#353535" d="M10.5,13.8h2.3c0.6,0,1.2-0.5,1.2-1.2c0-0.6-0.5-1.2-1.2-1.2h-2.3c-0.6,0-1.2,0.5-1.2,1.2
		C9.3,13.3,9.9,13.8,10.5,13.8L10.5,13.8z M10.5,13.8"/>
	<path fill="#353535" d="M17.5,13.8h2.3c0.6,0,1.2-0.5,1.2-1.2c0-0.6-0.5-1.2-1.2-1.2h-2.3c-0.6,0-1.2,0.5-1.2,1.2
		C16.3,13.3,16.9,13.8,17.5,13.8L17.5,13.8z M17.5,13.8"/>
	<path fill="#353535" d="M12.8,27.8h-2.3c-0.6,0-1.2,0.5-1.2,1.2c0,0.6,0.5,1.2,1.2,1.2h2.3c0.6,0,1.2-0.5,1.2-1.2
		C14,28.4,13.5,27.8,12.8,27.8L12.8,27.8z M12.8,27.8"/>
	<path fill="#353535" d="M26.8,27.8h-2.3c-0.6,0-1.2,0.5-1.2,1.2c0,0.6,0.5,1.2,1.2,1.2h2.3c0.7,0,1.2-0.5,1.2-1.2
		C28,28.4,27.5,27.8,26.8,27.8L26.8,27.8z M26.8,27.8"/>
	<path fill="#353535" d="M19.8,27.8h-2.3c-0.6,0-1.2,0.5-1.2,1.2c0,0.6,0.5,1.2,1.2,1.2h2.3c0.6,0,1.2-0.5,1.2-1.2
		C21,28.4,20.5,27.8,19.8,27.8L19.8,27.8z M19.8,27.8"/>
	<path fill="#353535" d="M6.4,27.2c-0.6-0.3-1.2-0.6-1.7-1.1c-0.5-0.4-1.2-0.4-1.6,0.1c-0.4,0.5-0.4,1.2,0.1,1.7
		c0.7,0.6,1.4,1.1,2.2,1.4c0.2,0.1,0.3,0.1,0.5,0.1c0.4,0,0.9-0.3,1.1-0.7C7.3,28.2,7,27.5,6.4,27.2L6.4,27.2z M6.4,27.2"/>
	<path fill="#353535" d="M33.8,27.8h-2.3c-0.7,0-1.2,0.5-1.2,1.2c0,0.6,0.5,1.2,1.2,1.2h2.3c0.6,0,1.2-0.5,1.2-1.2
		C35,28.4,34.5,27.8,33.8,27.8L33.8,27.8z M33.8,27.8"/>
	<path fill="#353535" d="M54.8,27.8h-2.3c-0.6,0-1.2,0.5-1.2,1.2c0,0.6,0.5,1.2,1.2,1.2h2.3c0.6,0,1.2-0.5,1.2-1.2
		C56,28.4,55.5,27.8,54.8,27.8L54.8,27.8z M54.8,27.8"/>
	<path fill="#353535" d="M61.8,27.8h-2.3c-0.6,0-1.2,0.5-1.2,1.2c0,0.6,0.5,1.2,1.2,1.2h2.3c0.7,0,1.2-0.5,1.2-1.2
		C63,28.4,62.5,27.8,61.8,27.8L61.8,27.8z M61.8,27.8"/>
	<path fill="#353535" d="M40.8,27.8h-2.3c-0.6,0-1.2,0.5-1.2,1.2c0,0.6,0.5,1.2,1.2,1.2h2.3c0.6,0,1.2-0.5,1.2-1.2
		C42,28.4,41.5,27.8,40.8,27.8L40.8,27.8z M40.8,27.8"/>
	<path fill="#353535" d="M47.8,27.8h-2.3c-0.6,0-1.2,0.5-1.2,1.2c0,0.6,0.5,1.2,1.2,1.2h2.3c0.6,0,1.2-0.5,1.2-1.2
		C49,28.4,48.5,27.8,47.8,27.8L47.8,27.8z M47.8,27.8"/>
	<path fill="#353535" d="M6.4,62.3c-0.6-0.3-1.2-0.6-1.7-1.1c-0.5-0.4-1.2-0.4-1.6,0.1c-0.4,0.5-0.4,1.2,0.1,1.7
		c0.7,0.6,1.4,1.1,2.2,1.4c0.2,0.1,0.3,0.1,0.5,0.1c0.4,0,0.9-0.3,1.1-0.7C7.3,63.3,7,62.6,6.4,62.3L6.4,62.3z M6.4,62.3"/>
	<path fill="#353535" d="M19.8,63h-2.3c-0.6,0-1.2,0.5-1.2,1.2c0,0.6,0.5,1.2,1.2,1.2h2.3c0.6,0,1.2-0.5,1.2-1.2
		C21,63.5,20.5,63,19.8,63L19.8,63z M19.8,63"/>
	<path fill="#353535" d="M12.8,63h-2.3c-0.6,0-1.2,0.5-1.2,1.2c0,0.6,0.5,1.2,1.2,1.2h2.3c0.6,0,1.2-0.5,1.2-1.2
		C14,63.5,13.5,63,12.8,63L12.8,63z M12.8,63"/>
	<path fill="#353535" d="M40.8,63h-2.3c-0.6,0-1.2,0.5-1.2,1.2c0,0.6,0.5,1.2,1.2,1.2h2.3c0.6,0,1.2-0.5,1.2-1.2
		C42,63.5,41.5,63,40.8,63L40.8,63z M40.8,63"/>
	<path fill="#353535" d="M44.3,64.1c0,0.6,0.5,1.2,1.2,1.2h2.3c0.6,0,1.2-0.5,1.2-1.2c0-0.7-0.5-1.2-1.2-1.2h-2.3
		C44.9,63,44.3,63.5,44.3,64.1L44.3,64.1z M44.3,64.1"/>
	<path fill="#353535" d="M52.5,65.3h2.3c0.6,0,1.2-0.5,1.2-1.2c0-0.7-0.5-1.2-1.2-1.2h-2.3c-0.6,0-1.2,0.5-1.2,1.2
		C51.3,64.8,51.9,65.3,52.5,65.3L52.5,65.3z M52.5,65.3"/>
	<path fill="#353535" d="M33.8,63h-2.3c-0.7,0-1.2,0.5-1.2,1.2c0,0.6,0.5,1.2,1.2,1.2h2.3c0.6,0,1.2-0.5,1.2-1.2
		C35,63.5,34.5,63,33.8,63L33.8,63z M33.8,63"/>
	<path fill="#353535" d="M59.5,65.3h2.3c0.7,0,1.2-0.5,1.2-1.2c0-0.7-0.5-1.2-1.2-1.2h-2.3c-0.6,0-1.2,0.5-1.2,1.2
		C58.3,64.8,58.9,65.3,59.5,65.3L59.5,65.3z M59.5,65.3"/>
	<path fill="#353535" d="M26.8,63h-2.3c-0.6,0-1.2,0.5-1.2,1.2c0,0.6,0.5,1.2,1.2,1.2h2.3c0.7,0,1.2-0.5,1.2-1.2
		C28,63.5,27.5,63,26.8,63L26.8,63z M26.8,63"/>
	<path fill="#353535" d="M51.3,45.4c0,2.6,2.1,4.7,4.7,4.7c2.6,0,4.7-2.1,4.7-4.7c0-2.6-2.1-4.7-4.7-4.7
		C53.4,40.7,51.3,42.8,51.3,45.4L51.3,45.4z M56,43.1c1.3,0,2.3,1.1,2.3,2.3c0,1.3-1,2.3-2.3,2.3c-1.3,0-2.3-1-2.3-2.3
		C53.7,44.1,54.7,43.1,56,43.1L56,43.1z M56,43.1"/>
	<path fill="#353535" d="M50.1,6.8l-6.3-6.4c-0.5-0.5-1.4-0.5-1.9,0l-2.4,2.4l-2.4-2.4c-0.5-0.5-1.4-0.5-1.9,0l-6.3,6.4H9.3
		C4.2,6.8,0,11,0,16.1v45.5C0,66.2,3.7,70,8.3,70H70V6.8H50.1z M42.8,2.8l20.3,20.4h-6.3L43.7,10c-0.5-0.5-1.3-0.5-1.8,0L28.8,23.2
		h-6.3L41.1,4.4L42.8,2.8z M53.5,23.2H32.1l10.7-10.8L53.5,23.2z M36.2,2.8l1.7,1.7L19.2,23.2h-3.3L32.2,6.8L36.2,2.8z M9.3,9.1
		h17.2l-2.4,2.4c-0.4,0.1-0.6,0.4-0.7,0.7L12.6,23.2H9.3c-3.9,0-7-3.2-7-7C2.3,12.3,5.5,9.1,9.3,9.1L9.3,9.1z M67.7,51.3H54.8
		c-3.2,0-5.8-2.6-5.8-5.9c0-3.2,2.6-5.9,5.8-5.9h12.8V51.3z M67.7,27.8h-1.2c-0.7,0-1.2,0.5-1.2,1.2c0,0.6,0.5,1.2,1.2,1.2h1.2v7
		H54.8c-4.5,0-8.2,3.7-8.2,8.2c0,4.5,3.7,8.2,8.2,8.2h12.8V63h-1.2c-0.7,0-1.2,0.5-1.2,1.2c0,0.6,0.5,1.2,1.2,1.2h1.2v2.3H8.3
		c-3.3,0-6-2.7-6-6V59c0.3-0.3,0.4-0.7,0.3-1.1c-0.2-0.6-0.3-1.3-0.3-2v-32c0.3-0.3,0.4-0.7,0.3-1.1c0-0.1,0-0.2-0.1-0.2
		c0.1,0.1,0.2,0.2,0.3,0.3C3,23,3.1,23.1,3.2,23.2c0.1,0.1,0.3,0.2,0.4,0.3c0.1,0.1,0.2,0.2,0.3,0.3c0.1,0.1,0.3,0.2,0.4,0.3
		c0.1,0.1,0.2,0.1,0.4,0.2c0.2,0.1,0.3,0.2,0.5,0.3c0.1,0.1,0.2,0.1,0.4,0.2c0.2,0.1,0.3,0.1,0.5,0.2C6.2,24.9,6.3,25,6.4,25
		c0.2,0.1,0.4,0.1,0.6,0.2c0.1,0,0.2,0.1,0.4,0.1c0.2,0,0.4,0.1,0.6,0.1c0.1,0,0.2,0,0.3,0c0.3,0,0.7,0.1,1,0.1h58.3V27.8z
		 M66.4,23.2l-9.3-9.4h0.1c0.6,0,1.2-0.5,1.2-1.2c0-0.6-0.5-1.2-1.2-1.2h-2.3c0,0,0,0-0.1,0l-2.3-2.4h15.2v14.1H66.4z M66.4,23.2"/>
	<path fill="#353535" d="M64.2,11.4h-2.3c-0.6,0-1.2,0.5-1.2,1.2c0,0.7,0.5,1.2,1.2,1.2h2.3c0.6,0,1.2-0.5,1.2-1.2
		C65.3,12,64.8,11.4,64.2,11.4L64.2,11.4z M64.2,11.4"/>
</g>
</svg>
